<svg width="40" height="40" viewBox="0 0 40 40" fill="black" xmlns="http://www.w3.org/2000/svg">
<path d="M35.2341 21.1765C34.6599 28.6706 28.6694 34.6588 21.1752 35.2353V30.5882H18.8223V35.2353C11.3282 34.6588 5.33995 28.6706 4.76584 21.1765H9.41055V18.8235H4.76584C5.33995 11.3294 11.3282 5.34117 18.8223 4.76471V9.41177H21.1752V4.76469C28.6694 5.34117 34.6599 11.3294 35.2341 18.8235H30.587V21.1765H35.2341V21.1765ZM37.587 18.8235C37.0035 10.0329 29.9682 2.99529 21.1752 2.41177V0H18.8223V2.41177C10.0317 2.99531 2.99643 10.0329 2.41288 18.8235H-0.0012207V21.1765H2.41288C2.99643 29.9671 10.0317 37.0047 18.8223 37.5882V40H21.1752V37.5882C29.9682 37.0047 37.0035 29.9671 37.587 21.1765H39.9988V18.8235H37.587V18.8235ZM19.9997 25.8823C16.7574 25.8823 14.1174 23.2423 14.1174 20C14.1174 16.7576 16.7574 14.1176 19.9997 14.1176C23.2421 14.1176 25.8821 16.7576 25.8821 20C25.8821 23.2424 23.2421 25.8823 19.9997 25.8823ZM19.9997 11.7647C15.4586 11.7647 11.7644 15.4588 11.7644 20C11.7644 24.5412 15.4586 28.2353 19.9997 28.2353C24.5409 28.2353 28.235 24.5412 28.235 20C28.235 15.4588 24.5409 11.7647 19.9997 11.7647Z"/>
</svg>
