<svg width="40" height="36" viewBox="0 0 40 36" fill="black" xmlns="http://www.w3.org/2000/svg">
<path d="M7.33333 18.6667H20.0667C20.3933 20.9253 22.3173 22.6667 24.6667 22.6667C27.016 22.6667 28.94 20.9253 29.2667 18.6667H32.6667C34.2973 18.6667 35.652 17.488 35.9387 15.9387C38.2267 15.6387 40 13.7027 40 11.3333C40 8.964 38.2267 7.028 35.9387 6.728C35.652 5.17867 34.2973 4 32.6667 4H23.9333C23.6067 1.74133 21.6827 0 19.3333 0C16.984 0 15.06 1.74133 14.7333 4H11.9333C11.6067 1.74133 9.68267 0 7.33333 0C4.756 0 2.66667 2.08933 2.66667 4.66667C2.66667 7.244 4.756 9.33333 7.33333 9.33333C9.68267 9.33333 11.6067 7.592 11.9333 5.33333H14.7347C15.0613 7.592 16.9853 9.33333 19.3347 9.33333C21.684 9.33333 23.608 7.592 23.9347 5.33333H32.668C33.564 5.33333 34.316 5.92933 34.5693 6.744C32.3573 7.11067 30.6667 9.01867 30.6667 11.3333C30.6667 13.648 32.3573 15.556 34.568 15.9227C34.3147 16.7373 33.5627 17.3333 32.6667 17.3333H29.2667C28.94 15.0747 27.016 13.3333 24.6667 13.3333C22.3173 13.3333 20.3933 15.0747 20.0667 17.3333H7.33333C5.70267 17.3333 4.348 18.512 4.06133 20.0613C1.77333 20.3613 0 22.2973 0 24.6667C0 27.036 1.77333 28.972 4.06133 29.272C4.348 30.8213 5.70267 32 7.33333 32H10.7333C11.06 34.2587 12.984 36 15.3333 36C17.6827 36 19.6067 34.2587 19.9333 32H28.068C28.3947 34.2587 30.3187 36 32.668 36C35.2453 36 37.3347 33.9107 37.3347 31.3333C37.3347 28.756 35.244 26.6667 32.6667 26.6667C30.3173 26.6667 28.3933 28.408 28.0667 30.6667H19.9333C19.6067 28.408 17.6827 26.6667 15.3333 26.6667C12.984 26.6667 11.06 28.408 10.7333 30.6667H7.33333C6.43733 30.6667 5.68533 30.0707 5.432 29.256C7.64267 28.8893 9.33333 26.9813 9.33333 24.6667C9.33333 22.352 7.64267 20.444 5.432 20.0773C5.68533 19.2627 6.43733 18.6667 7.33333 18.6667ZM7.33333 6.66667C6.23067 6.66667 5.33333 5.76933 5.33333 4.66667C5.33333 3.564 6.23067 2.66667 7.33333 2.66667C8.436 2.66667 9.33333 3.564 9.33333 4.66667C9.33333 5.76933 8.436 6.66667 7.33333 6.66667ZM19.3333 6.66667C18.2307 6.66667 17.3333 5.76933 17.3333 4.66667C17.3333 3.564 18.2307 2.66667 19.3333 2.66667C20.436 2.66667 21.3333 3.564 21.3333 4.66667C21.3333 5.76933 20.436 6.66667 19.3333 6.66667ZM33.3333 11.3333C33.3333 10.2307 34.2307 9.33333 35.3333 9.33333C36.436 9.33333 37.3333 10.2307 37.3333 11.3333C37.3333 12.436 36.436 13.3333 35.3333 13.3333C34.2307 13.3333 33.3333 12.436 33.3333 11.3333ZM24.6667 16C25.7693 16 26.6667 16.8973 26.6667 18C26.6667 19.1027 25.7693 20 24.6667 20C23.564 20 22.6667 19.1027 22.6667 18C22.6667 16.8973 23.564 16 24.6667 16ZM32.6667 29.3333C33.7693 29.3333 34.6667 30.2307 34.6667 31.3333C34.6667 32.436 33.7693 33.3333 32.6667 33.3333C31.564 33.3333 30.6667 32.436 30.6667 31.3333C30.6667 30.2307 31.564 29.3333 32.6667 29.3333ZM15.3333 29.3333C16.436 29.3333 17.3333 30.2307 17.3333 31.3333C17.3333 32.436 16.436 33.3333 15.3333 33.3333C14.2307 33.3333 13.3333 32.436 13.3333 31.3333C13.3333 30.2307 14.2307 29.3333 15.3333 29.3333ZM6.66667 24.6667C6.66667 25.7693 5.76933 26.6667 4.66667 26.6667C3.564 26.6667 2.66667 25.7693 2.66667 24.6667C2.66667 23.564 3.564 22.6667 4.66667 22.6667C5.76933 22.6667 6.66667 23.564 6.66667 24.6667Z"/>
</svg>
