<svg xmlns="http://www.w3.org/2000/svg" width="21" height="21" viewBox="0 0 21 21"><defs><linearGradient id="a" x1="100.677%" x2=".333%" y1="100%" y2="0%"><stop offset="0%" stop-color="#DF56EB"/><stop offset="44.431%" stop-color="#FF59C7"/><stop offset="100%" stop-color="#FFBB5F"/></linearGradient></defs><path fill="url(#a)" fill-rule="nonzero" d="M8.34 11.296c.719 0 1.31.549 1.377 1.251l.006.133v6.92c0 .72-.548 1.311-1.25 1.378l-.134.007H1.42c-.72 0-1.31-.55-1.378-1.251L.035 19.6v-6.92c0-.72.549-1.311 1.25-1.378l.134-.007h6.92zm11.225 0c.765 0 1.385.62 1.385 1.384v6.92c0 .765-.62 1.385-1.385 1.385h-6.92c-.764 0-1.384-.62-1.384-1.384v-6.92c0-.765.62-1.385 1.384-1.385zm-3.46 6.347a.692.692 0 1 0 0 1.384.692.692 0 0 0 0-1.384zm-13.324-3.6a.556.556 0 0 0-.064.709l.064.077 1.311 1.312-1.311 1.311a.556.556 0 0 0 .71.85l.077-.063 1.31-1.312L6.19 18.24a.556.556 0 0 0 .852-.71l-.065-.077-1.311-1.311 1.311-1.312a.557.557 0 0 0-.71-.851l-.077.064-1.311 1.312-1.311-1.312a.555.555 0 0 0-.787 0zm15.4 2.043H14.03a.462.462 0 0 0 0 .923h4.152a.462.462 0 0 0 0-.923zm-2.076-2.134a.692.692 0 1 0 0 1.384.692.692 0 0 0 0-1.384zM19.565 0c.72 0 1.311.549 1.378 1.25l.007.134v6.92c0 .72-.55 1.311-1.251 1.378l-.134.006h-6.92c-.719 0-1.31-.548-1.378-1.25l-.006-.134v-6.92c0-.72.549-1.31 1.25-1.378L12.646 0h6.92zM1.42 0h6.92c.72 0 1.311.549 1.378 1.25l.006.134v6.92c0 .72-.548 1.311-1.25 1.378l-.134.006H1.42C.7 9.688.11 9.14.041 8.438l-.006-.134v-6.92c0-.72.549-1.31 1.25-1.378L1.42 0h6.92zm14.686 1.876a.557.557 0 0 0-.549.467l-.007.09v1.855h-1.855a.557.557 0 0 0-.09 1.105l.09.008h1.855v1.854a.557.557 0 0 0 1.106.09l.007-.09V5.401h1.855a.556.556 0 0 0 .09-1.106l-.09-.007h-1.855V2.433a.557.557 0 0 0-.557-.557zm-9.15 2.507H2.803a.462.462 0 0 0-.083.915l.083.008h4.152a.462.462 0 0 0 0-.923z"/></svg>