<svg xmlns="http://www.w3.org/2000/svg" width="22" height="22" viewBox="0 0 22 22"><defs><linearGradient id="a" x1="101.017%" x2="0%" y1="100%" y2="0%"><stop offset="0%" stop-color="#DF56EB"/><stop offset="44.431%" stop-color="#FF59C7"/><stop offset="100%" stop-color="#FFBB5F"/></linearGradient></defs><path fill="url(#a)" fill-rule="nonzero" d="M11 0c6.08 0 11 4.92 11 11s-4.92 11-11 11S0 17.08 0 11 4.92 0 11 0zM4.767 6.309a.645.645 0 0 0-.889.2A8.387 8.387 0 0 0 2.578 11c0 4.644 3.778 8.422 8.422 8.422a8.438 8.438 0 0 0 8.215-6.56.645.645 0 0 0-1.258-.286 7.144 7.144 0 0 1-1.482 2.988l-.915-.915a5.839 5.839 0 0 0 .705-6.184.645.645 0 0 0-1.16.561c.204.424.34.869.405 1.33H14.2A3.27 3.27 0 0 0 11 7.733 3.27 3.27 0 0 0 7.734 11 3.27 3.27 0 0 0 11 14.266a3.27 3.27 0 0 0 3.201-2.622h1.307a4.566 4.566 0 0 1-3.003 3.655.645.645 0 0 0 .427 1.216 5.831 5.831 0 0 0 1.718-.954l.915.915A7.14 7.14 0 0 1 11 18.133 7.14 7.14 0 0 1 3.867 11a7.1 7.1 0 0 1 1.1-3.802.646.646 0 0 0-.2-.89zM11 2.579a8.39 8.39 0 0 0-4.491 1.299.645.645 0 1 0 .689 1.09 7.093 7.093 0 0 1 3.157-1.07v1.294A5.852 5.852 0 0 0 5.156 11a5.855 5.855 0 0 0 3.912 5.515.645.645 0 1 0 .427-1.216A4.564 4.564 0 0 1 6.445 11 4.56 4.56 0 0 1 11 6.445c.691 0 1.355.152 1.974.45a.644.644 0 1 0 .56-1.16 5.765 5.765 0 0 0-1.89-.544V3.897a7.152 7.152 0 0 1 6.313 5.527.644.644 0 1 0 1.258-.285c-.85-3.75-4.211-6.56-8.215-6.56zm0 6.444c1.09 0 1.977.887 1.977 1.977S12.09 12.977 11 12.977A1.979 1.979 0 0 1 9.023 11 1.98 1.98 0 0 1 11 9.023z"/></svg>