<svg xmlns="http://www.w3.org/2000/svg" width="23" height="20" viewBox="0 0 23 20"><defs><linearGradient id="a" x1="101.017%" x2="0%" y1="88.624%" y2="11.376%"><stop offset="0%" stop-color="#DF56EB"/><stop offset="44.431%" stop-color="#FF59C7"/><stop offset="100%" stop-color="#FFBB5F"/></linearGradient></defs><path fill="url(#a)" fill-rule="nonzero" d="M22.089 14.667c.335 0 .612.246.66.568l.007.098v4a.666.666 0 0 1-.569.66L22.09 20h-4a.666.666 0 0 1-.099-1.326l.099-.007h3.333v-3.334c0-.368.298-.666.667-.666zm-21.422 0c.368 0 .666.298.666.666v3.334h3.334a.666.666 0 1 1 0 1.333h-4A.666.666 0 0 1 0 19.333v-4c0-.368.298-.666.667-.666zM11.377 4c4.311 0 8.062 3.895 9.474 5.569a.667.667 0 0 1 0 .86C19.433 12.104 15.673 16 11.378 16c-4.31 0-8.062-3.895-9.473-5.569a.667.667 0 0 1 0-.86C3.322 7.896 7.082 4 11.378 4zm0 2.667A3.337 3.337 0 0 0 8.045 10a3.337 3.337 0 0 0 3.334 3.333A3.337 3.337 0 0 0 14.71 10a3.337 3.337 0 0 0-3.333-3.333zm0 1.333c1.104 0 2 .897 2 2s-.896 2-2 2c-1.102 0-2-.897-2-2s.898-2 2-2zm-.47 1.528a.667.667 0 1 0 .942.943.667.667 0 0 0-.943-.943zM4.666 0a.666.666 0 0 1 .098 1.326l-.098.007H1.333v3.334a.666.666 0 0 1-1.326.098L0 4.667v-4C0 .332.246.055.568.007L.667 0h4zm17.422 0c.335 0 .612.246.66.568l.007.099v4a.666.666 0 0 1-1.327.098l-.007-.098V1.333H18.09a.666.666 0 0 1-.1-1.326l.1-.007h4z"/></svg>