<svg xmlns="http://www.w3.org/2000/svg" id="Layer_1" data-name="Layer 1" viewBox="0 0 632 478"><defs><style>.cls-5{fill:#a35e26}.cls-6{fill:#864f22}</style><clipPath id="clip-path"><path id="_Прямоугольник_" d="M0-.07h632v478H0z" data-name="&lt;Прямоугольник&gt;" style="fill:none"/></clipPath></defs><g id="_Группа_" data-name="&lt;Группа&gt;"><g id="_Группа_обтравки_" data-name="&lt;Группа обтравки&gt;" style="clip-path:url(#clip-path)"><g id="_Группа_2" data-name="&lt;Группа&gt;"><path id="_Контур_" d="M684-.08H-52.92C-75.54-.08-94 19.54-94 43.51V446.2c0 24 18.51 43.59 41.13 43.59H684c22.62 0 41.13-19.62 41.13-43.59V43.51C725.14 19.54 706.64-.08 684-.08z" data-name="&lt;Контур&gt;" style="fill:#523202"/><path id="_Контур_2" d="M725.14 33.22v402.69A44.25 44.25 0 0 1 705 473.36a41.47 41.47 0 0 1-4.49 2.44 38.73 38.73 0 0 1-16.51 3.7H-54.21c-.42 0-.85 0-1.27-.06s-.63 0-.93-.08-.56 0-.84-.08l-1.42-.18c-.58-.09-1.17-.19-1.74-.31-.38-.06-.75-.15-1.12-.24s-.64-.14-1-.23c-.79-.19-1.58-.42-2.34-.67-.52-.18-1.06-.36-1.58-.55s-1-.4-1.55-.6l-.7-.31q-1-.44-2-1l-.9-.48c-.18-.1-.36-.19-.55-.31l-.55-.31-.76-.46c-.56-.35-1.12-.71-1.66-1.08s-1.08-.76-1.61-1.16c-1.06-.81-2.08-1.66-3.06-2.56-.25-.22-.5-.45-.74-.69s-.28-.27-.41-.4a43.53 43.53 0 0 1-3.37-3.74c-.27-.33-.53-.67-.78-1-.51-.67-1-1.36-1.47-2.07-.28-.42-.56-.85-.81-1.27s-.47-.77-.7-1.17-.56-1-.83-1.52c-.16-.28-.3-.58-.44-.86-.24-.48-.47-1-.7-1.47l-.44-1c-.44-1-.83-2.07-1.19-3.13-.12-.35-.24-.71-.34-1.07s-.22-.71-.32-1.07c-.3-1.05-.57-2.12-.79-3.2q-.2-1-.36-2a.23.23 0 0 0 0-.09c-.07-.5-.15-1-.21-1.52a45.84 45.84 0 0 1-.35-5.66V30.6l.07-1a1.19 1.19 0 0 1 0-.22c0-.36.06-.72.1-1.07s.08-.72.13-1.07c.06-.5.13-1 .22-1.48A41.61 41.61 0 0 1-92.37 21c.07-.31.17-.6.26-.9 0-.09.06-.18.08-.27.19-.62.39-1.24.61-1.83s.38-1.05.58-1.57c.29-.73.61-1.47.93-2.19a42.93 42.93 0 0 1 18.71-20c.72-.39 1.46-.75 2.2-1.08 1-.44 1.93-.84 2.93-1.2l.83-.28c.51-.18 1-.35 1.57-.49.28-.09.55-.17.83-.23l.83-.22c.24-.05.49-.1.72-.17q.89-.19 1.78-.35l1.31-.21.38-.05 1.72-.18 1.06-.06 1-.05H684a38.42 38.42 0 0 1 11.6 1.78c12.48 3.91 22.53 14 27 26.82.07.19.13.39.19.58.13.39.25.78.38 1.18.23.75.44 1.49.62 2.26.12.45.22.91.32 1.38s.19.91.27 1.38c0 .24.1.49.13.73.09.5.16 1 .22 1.52a.8.8 0 0 1 0 .18 2.72 2.72 0 0 1 0 .31c.06.45.11.9.13 1.35a2.58 2.58 0 0 1 0 .44c0 .36.07.73.09 1.11v.5a3.19 3.19 0 0 1 0 .33c.18.56.19 1.12.19 1.7z" data-name="&lt;Контур&gt;" style="fill:#945c23"/><g id="_Группа_3" data-name="&lt;Группа&gt;"><path id="_Контур_3" d="M725.13 247.48v108.95l-10.79-1c-27.67-2.46-56.09-4.92-83.79-2.44-5.32.48-10.57 1.14-15.77 1.87-13.59 2-26.87 4.48-40.76 5.91-10.17 1.05-20.53 1.49-30.92 1.66-19.59.34-39.45-.34-59.06.32-4.62.15-9.22.38-13.78.65-17.71 1.09-35.1 3.09-52.44 5.42-40.87 5.49-81.17 12.74-123.42 14-84.31 2.5-160.07-18.64-238-36.47-14-3.22-28.14-6.31-42.38-9.14-30.88-6.16-62.39-11.06-95.14-13.1a102.64 102.64 0 0 1-13-1.64v-13.74c2.58-.82 5.16-1.64 7.73-2.44l4.94-1.56 73.52-23.1c35.22-11.08 81-8.6 119.47-15.32 11.7-2.06 22.79-4.94 34.73-6.66 16.36-2.4 33.68-2.56 50.75-2.69l75-.65q28.86-.22 57.71-.48l104.46-.88c12.51-.11 25.39-.19 37.09 2 11.32 2.08 20.71 6.1 31.75 8.51 35.24 7.69 74.79-2.31 111.64-8.22.46-.08.89-.15 1.35-.21 14.81-2.31 30-3.93 45.36-5.21a.32.32 0 0 0 .14 0c13.37-1.09 26.87-2 40.32-2.8z" data-name="&lt;Контур&gt;" class="cls-5"/><path id="_Контур_4" d="M725.13 33.23v54q-3.48-.32-7-.5c-33.79-2-69.49 1.66-101.68-3-16.16-2.35-30.17-6.64-45.5-9.77-41.41-8.49-89.66-8.11-135.28-11.16-52.85-3.55-103.09-11.86-153.94-18.83C192.61 31.63 99.9 23.35 6.11 22.32-27 22-60.17 22.53-93.11 24c.2-1 .46-2.06.73-3.07.08-.29.18-.59.26-.9 0-.08.06-.17.1-.25q.27-.95.59-1.83c.18-.55.38-1.05.6-1.58.08-.19.14-.38.22-.57.22-.55.46-1.09.71-1.62A43.74 43.74 0 0 1-81.57 2 41.25 41.25 0 0 1-71.2-5.78c.71-.4 1.45-.76 2.2-1.09q1.43-.63 2.92-1.2l.46-.15.38-.13c.52-.19 1-.34 1.57-.48a5.9 5.9 0 0 1 .81-.23c.3-.08.56-.17.83-.23a7.18 7.18 0 0 0 .71-.17c.6-.13 1.19-.23 1.78-.34.44-.08.87-.15 1.31-.21h.38l1.73-.19 1.05-.06h473.85c5.93.69 11.82 1.37 17.73 2C470.58-4.37 504.74-.44 539 3.26q14.73 1.58 29.47 3.07 22 2.3 44 4.33l12.57 1.16c32.37 2.9 64.93 5.38 97.75 7.23.12.32.22.63.32 1 .24.76.44 1.49.63 2.27.12.44.22.9.32 1.37s.18.92.26 1.39c0 .23.1.48.14.74.08.5.16 1 .22 1.51s0 .08 0 .13a1.7 1.7 0 0 1 0 .32c.06.46.1.9.14 1.35a3.3 3.3 0 0 1 0 .44c0 .36.08.74.1 1.11v.5a1.9 1.9 0 0 1 0 .34c.21.55.21 1.12.21 1.71z" data-name="&lt;Контур&gt;" class="cls-5"/><path id="_Контур_5" d="M725.13 80.21v11c-38.67.57-78.18 4.65-113.4-1.53-15.61-2.68-28.91-7.29-44.07-10.38-23.9-4.86-51.07-5.89-77.45-7.34-120.81-6.72-236.12-24.54-353.9-37.51C83.42 28.61 29 23.71-25.62 25.16c-24.69.65-47 2.67-68.34 5.34 0-.29 0-.63.06-.92a.8.8 0 0 1 0-.23c0-.36.06-.71.08-1.05s.1-.74.14-1.07c.06-.5.14-1 .22-1.49s.2-1.14.32-1.7c.2-1 .46-2.06.73-3.07.08-.29.18-.59.26-.9 0-.08.06-.17.1-.25q.27-.95.59-1.83c.18-.55.38-1.05.6-1.58.08-.19.14-.38.22-.57 68.46-3.62 139.7 1.93 208.28 7.52C206.12 30.58 295 37.83 379.87 50.4c32.8 4.86 65.43 10.53 100 11.92 29.87 1.2 61.32-.78 89 4.08C590.51 70.2 608.58 78 632 79c12.41.5 24.75-1.05 37.15-1.53 19.85-.79 38.15.62 55.98 2.74z" data-name="&lt;Контур&gt;" class="cls-6"/><path id="_Контур_6" d="M725.13 106.23v5.53c-8 .19-16 .36-24 .4-54.06.23-106.9-6-158.84-12.23C425.56 86 312.06 68.65 190.93 64.63c-94.78-3.11-190.59-6.2-285-3V56c84.53-3.43 170.12-1.58 254.71 2.06 67.95 2.92 135.79 7 201.89 14.19 29.63 3.22 58.88 7 88.12 10.87 39.37 5.19 72.94 12.8 113.76 15.34 49.72 3.09 100 6.71 150.19 7.86 3.65.1 7.16.04 10.53-.09z" data-name="&lt;Контур&gt;" class="cls-6"/><path id="_Контур_7" d="M725.13 53.43v10.3c-18.23-.53-36.49-1.64-53-4.73-18-3.38-33.48-9-52.34-11.46-26.67-3.41-55.59.17-83.34-1-23.72-1-56.13-4.92-76.1-10.51-23.5-6.63-31.43-14.84-63.35-16.93-27.9-1.83-56.34.25-84.63.34-84.66.29-165-17.3-249.67-17.85-21.66-.15-43.31.86-65 .59-28-.34-53.86-.63-79.37-.15A41.25 41.25 0 0 1-71.2-5.78c.71-.4 1.45-.76 2.2-1.09q1.43-.63 2.92-1.2l.46-.15C19-9.17 103.53-4 187.4 1.22q91.53 5.64 183.11 11.28c19.16 1.18 38.87 2.44 55.55 6.56 11.4 2.84 20.84 6.87 32.07 9.86C504.26 41.15 565.62 32.54 619 37.6c32.21 3 60.59 11.06 92.52 14.59 4.48.5 9.03.9 13.61 1.24z" data-name="&lt;Контур&gt;" class="cls-6"/><path id="_Контур_8" d="M724.76 27.28c-20.88-.42-42.18-1.7-58.86-5.91-13.41-3.38-26.18-7.59-40.78-9.61-3-.44-6-.76-9.12-1-1.13-.08-2.3-.15-3.45-.19-8.9-.38-18-.08-26.67-1.07a167.71 167.71 0 0 1-17.38-3.18c-3.13-.65-6.29-1.28-9.6-1.79A149.85 149.85 0 0 0 539 3.26c-11.78-.13-23.88.48-35.6-.17-30.66-1.77-63-7.92-94.68-13.45h92.7c23.14.59 46.37 1.22 68.64 3.3 44.07 4.1 84 13.87 128 18.24 7.38.74 14.81 1.3 22.31 1.74a41.53 41.53 0 0 1 2.26 5.32l.18.59c0 .06 0 .13.06.21.12.32.22.63.32 1 .24.76.44 1.49.63 2.27.12.44.22.9.32 1.37s.18.92.26 1.39c0 .23.1.48.14.74.08.46.16.95.22 1.47z" data-name="&lt;Контур&gt;" class="cls-6"/><path id="_Контур_9" d="M725.13 156.61V165c-32.55.65-64.87-2.31-96.64-5.25q-91.77-8.48-183.53-17c-66.32-6.14-121.77-7.29-189.48-10.17-29.89-1.28-60.71-2.52-89.56.86-25.82 3-49.66 9.71-76.55 9.48-10-.08-20.25-1.16-29.93-.08-12.34 1.35-20.63 5.78-30.3 9.1C-3.53 163.17-49.6 161.47-94 162.37v-9.44c17.27.36 34.37.48 50.24-2s28.65-7.5 43.52-10.93c33.52-7.74 74.63-7.29 112.33-10.85 42.06-4 74.11-9.27 119-8.66 66.06.88 131.71 4.73 196.34 10.19 95 8.05 197.83 29.49 296.49 26z" data-name="&lt;Контур&gt;" class="cls-6"/><path id="_Контур_10" d="M725.13 126.22v9.16q-43.2 0-86.33 1.56c-13.7.48-27.69 1.09-41.05-.5-61.94-7.42-121.67-21-185.29-27.64-71.5-7.5-144.32-12-217.4-13.52-15.49-.29-31.24-.5-45.87-2.94-11.76-2-22.53-5.32-34.65-6.62-14.32-1.56-29.25-.15-43.65 1.26Q-11.58 95.14-94 103.25v-12c25.41-1.66 53.9 1.53 78.22-3 9.28-1.8 17.78-4.68 27.64-5.6 30.74-2.9 94.2-11.64 122.7-4.5 6.78 1.7 12.61 4.2 19.5 5.78 19.38 4.48 42.16.92 63.6 1.26 22.75.36 44.8 5.19 67.51 4.37 8.19-.29 16.2-1.32 24.41-1.56 22.65-.61 41.27 5.53 62.93 6.94 17.65 1.16 32.62.06 50.41 2.19 35.2 4.16 59.89 12.09 91.29 19.21 7.2 1.64 15.45 1.6 23.34 2 31.34 1.68 57.77 12.25 89 13.22 21.48.67 42.14-4 63.54-4.67 11.46-.31 23.16-.54 35.04-.67z" data-name="&lt;Контур&gt;" class="cls-6"/><path id="_Контур_11" d="M725.13 180.77v7.92q-43.76 1.83-87.32 4.58c-42.44 2.75-84.64 6.33-127 9.27-66 4.56-133.37 7.61-199 2.08-55.91-4.73-109.61-15.6-166.27-17.09-38-1-75.94 2.29-113.5 5.38q-62.92 5.18-126.04 9.53V189c9.5-.57 19-1.05 28.56-1.51 47.08-2.31 94.2-4.62 141.48-5.76 48.75-1.16 98.27-1 145.43 5.09 38.14 4.9 74.55 13.66 113.9 15.09 39.7 1.45 79-4.67 118.86-4.86 24.18-.08 48.69 2 72.41-.36 16.92-1.68 32.55-5.53 49-8.05 23.22-3.55 47.78-4.39 72.05-5.23z" data-name="&lt;Контур&gt;" class="cls-6"/><path id="_Контур_12" d="M725.13 238.36v9.92c-7.52.36-15.05.71-22.57 1.09-13.64.69-27.39 1.37-41 2.38a.32.32 0 0 1-.14 0c-15.41 1.16-30.66 2.73-45.36 5.21-.46.06-.89.13-1.35.21-1.57.25-3.13.55-4.66.82-28.5 5.3-56.11 14.27-86.47 12.88-24.89-1.14-46.17-9.08-70.27-12.23-34.25-4.5-70.17 1.05-105.17 3.83a673.2 673.2 0 0 1-120.92-1.32c-15.95-1.64-32.11-3.87-48.27-2.92-21.78 1.28-40.4 8.09-61.42 11.16-30 4.37-63.32.84-93 5.8-38.85 6.5-66 26.67-105.93 29.53-1.57.13-3.15.21-4.76.27a4.18 4.18 0 0 0-.18 1.28c.22 4.77 10.43 8.43 19.48 10.87q39.66 10.72 80.9 20.07 21 4.76 42.38 9.14 40.79 8.39 82.7 15.37c74.59 12.42 157 21.4 231.35 8.64 30.09-5.15 58.47-13.79 90.3-14.63 21.72-.57 43.27 2.61 65 2.23 40.16-.69 76.95-13.28 117.11-12.57 20.15.34 39.35 4.06 59.2 5.82 7.6.67 15.27 1.05 23 1.26V362c-12.3.23-24.55.23-36.77-.48-24.65-1.45-49.16-5.82-73.58-6.66a193.17 193.17 0 0 0-25.62.74c-13 1.32-25 4.25-37.74 5.93-2.78.36-5.53.65-8.31.9-23.74 2.14-48.51.63-72.84 1-8 .13-16 .46-23.82 1.18a279.37 279.37 0 0 0-28.62 4.25c-16.68 3.26-32.7 7.52-49.16 11.1-25.62 5.55-52.66 5.51-80.54 7.15-35.3 2.06-71.85-1.09-103.56-8.89-11.88-2.94-23.24-6.54-36.08-8.3-15.79-2.17-32.56-1.41-48.95-2-30.26-1.05-59.74-6.85-83-16.31-32-13.05-54.14-24.49-99-25.12-3.87-.06-7.75 0-11.64-.08v-29.62c16.52-2.94 34.81-4.62 49.7-9.16 13.45-4.1 23.5-10.36 36.11-15 37.11-13.73 84-5.72 126.31-11.86 17.75-2.56 33.48-7.86 51.41-10.13 33.7-4.27 68 2.63 102.59 5.7 10.11.88 20.25 1.45 30.4 1.32 9.18-.13 18.27-.82 27.31-1.81 35.44-3.89 70-12.28 105.17-8.62 32.6 3.38 60.91 16.9 94 14.82 17.87-1.11 33.18-6.73 50.49-9.19 43.71-6.16 83.22-.19 125.7-10.89a150.22 150.22 0 0 1 20.09-3.61z" data-name="&lt;Контур&gt;" class="cls-6"/><path id="_Контур_13" d="M725.13 207.86v10.24l-130.3 11.1c-43.57 3.72-87.9 7.44-131.81 4.86-24.22-1.45-48.37-4.81-72.59-3.43-11.28.63-22.21 2.29-33.38 3.28-57.55 5.09-116.3-7.63-174.53-4.77-25.27 1.26-49.54 5.4-73.5 9.52l-67.11 11.55c-13.62 2.33-27.29 4.69-40.18 7.9-11.84 2.92-23 6.58-35.74 8.49-17.81 2.69-37 1.72-55.39 3.32-1.57.13-3.11.29-4.64.46v-8c13.88-.27 28 .5 41.21-1.51 18.08-2.73 31.75-10.34 49.83-13.07 15.51-2.33 32.53-.82 48.25-2.77 15.89-2 28.94-7.29 42.92-11.46 43.33-12.95 95.08-14.76 144.72-14 24.45.4 50.55.53 74.69 1.89 20.76 1.18 46.17 8 66.89 4.33 6-1.05 11.17-3 17.25-3.89 22.89-3.36 43.67 9 67.57 9.35 21.08.32 39.8-8.77 60.71-7.38 11.64.8 22.93 4.81 34.13 3.09 4.76-.71 8.61-2.38 12.81-3.66 23.78-7.23 50.51-1.05 75.84-3.62 20.19-2 36-8.13 56.78-10q12.77-1.12 25.57-1.82z" data-name="&lt;Контур&gt;" class="cls-6"/><path id="_Контур_14" d="M725.13 400.13v14.59c-24.14 2.84-48.33 5.42-72.51 6.68-53.81 2.77-108.62-1.09-162.11 2.82-31.81 2.33-62.65 7.4-94.64 9-93.37 4.77-181.43-19.63-273.31-29C49 396.72-32.19 398.11-94 377.66v-6.5c55.09 18.92 128.73 18.31 196 23 104.18 7.23 205.94 29.07 310.56 23.5 44.9-2.4 88.47-9.82 133.61-10.38 30.94-.36 61.86 2.5 92.66 1.2 20.47-.86 40.4-3.51 60.43-5.74q12.86-1.45 25.87-2.61z" data-name="&lt;Контур&gt;" class="cls-6"/><path id="_Контур_15" d="M724.62 442.79A44.76 44.76 0 0 1 721 454.9c-125.32 4.2-251.38 2.73-376.76-1.58-35.56-1.22-71.16-2.69-106.36-5.53-24.31-2-48.87-4.6-73.36-3.38-19.06.95-38.36 4.22-56.88 1.89-15.06-1.87-27.2-7.2-41.32-10.3-37.15-8.26-81.71-.61-121-5.95-12.67-1.72-24.49-4.77-37.36-6.14-.65-.06-1.33-.13-2-.17v-8c19.59 1 38 5.95 57.73 7.15 29.17 1.77 58.33-4.94 87.62-3.51 33.22 1.62 61.18 13.37 94.14 16.08 28.14 2.29 57.3-2.21 85.4.25 17.61 1.56 33.74 5.76 50.91 8.2 20 2.84 41.15 3.22 62 3.51 44.27.61 97.4 9.48 140.41 3.83 10.81-1.41 21.2-3.87 32.39-4 17.85-.27 33.85 5.25 51.43 6.73 25.66 2.14 51.39-4.5 77.35-3.57 5.26.19 10.51.67 15.69.29 8.09-.63 14.78-3.28 22.11-5 12.11-2.95 26.56-3.26 41.48-2.91z" data-name="&lt;Контур&gt;" class="cls-6"/><path id="_Контур_16" d="M295 479.49h-86.22a361.67 361.67 0 0 0-44.27-1c-4.7.23-9.4.59-14.12 1h-48.45c-12.53-2.33-23.32-6.71-35.62-9.46-37.15-8.26-81.71-.61-121-5.95-11.34-1.53-22-4.14-33.38-5.63-.3-.5-.56-1-.81-1.51-.16-.27-.32-.57-.46-.86-.24-.46-.46-1-.69-1.45s-.3-.67-.44-1c-.44-1-.83-2.06-1.19-3.11-.06-.19-.12-.38-.2-.57 18.76 1.2 36.55 5.89 55.55 7 29.16 1.76 58.3-4.95 87.61-3.5 33.22 1.6 61.18 13.37 94.14 16.06 28.14 2.31 57.3-2.21 85.4.27 17.61 1.56 33.74 5.76 50.91 8.18q6.54.95 13.24 1.53z" data-name="&lt;Контур&gt;" class="cls-6"/><path id="_Контур_17" d="M33.93 308.92c-1.55 2.82 8.13 4.94 16.64 6.35 56.78 9.27 116.38 17.07 177.86 23.25C292.81 345 364 349.68 428.16 343c26-2.69 50.47-7.19 77.94-7.63 18.76-.29 37.38 1.35 56.17 1.16 34.67-.36 66.4-6.94 101.07-6.58 17.43.21 34 2.12 51.15 3q5.3.28 10.65.44v5.25c-7.54 0-15 0-22.53-.29-28.76-1-57.3-4.83-85.66-3.09-11.19.67-21.56 2.21-32.58 3.07-29.29 2.33-60.81-.06-90.61 1.6-23.82 1.32-45 5.11-67.15 8s-45.48 2.88-69.53 3.72a502.51 502.51 0 0 1-89.42-4.65c-10.27-1.51-20.09-3.38-31.16-4.31-13.62-1.14-28.1-.74-42.24-1-26.12-.57-51.58-3.57-71.63-8.51-27.63-6.75-46.77-12.72-85.5-13.06-8.05-.06-16.24.11-24.06-.46s-15.49-2.08-17.63-4.35 1.9-4.79 7.64-6.52c17.27-5.17 46-5.09 66.91-8.93 11.62-2.14 20.31-5.4 31.2-7.84 32-7.17 72.53-3 109-6.18 15.33-1.37 28.92-4.12 44.39-5.3 37.56-2.88 76 4 114.83 3.66s76.28-7.84 114.39-5.44c28.14 1.79 52.58 8.83 81.13 7.74 15.43-.59 28.64-3.51 43.61-4.79 37.7-3.22 71.81-.11 108.5-5.68 2.72-.42 5.39-.76 8.05-1.05v4.65c-3.41.08-6.84.19-10.25.29-27.07.8-54.48 1.66-79.88 4.5-24.59 2.75-48.43 7.44-74.67 6.71-21.48-.57-39.84-4.73-60.67-6.37-29.57-2.35-60.55.55-90.79 2a960.48 960.48 0 0 1-104.4-.69c-13.76-.86-27.71-2-41.67-1.53-18.8.67-34.89 4.25-53 5.84-25.94 2.27-54.7.42-80.3 3-34.82 3.52-58.74 14.74-95.53 15.54z" data-name="&lt;Контур&gt;" class="cls-6"/><path id="_Контур_18" d="M129.37 311.15c-1.39 1.35 7.32 2.38 15 3 51 4.44 104.64 8.16 159.91 11.12 57.91 3.09 121.89 5.32 179.6 2.17 23.34-1.28 45.36-3.45 70.07-3.66 16.88-.15 33.62.65 50.51.55 31.16-.17 59.74-3.3 90.89-3.13 10.13.06 20 .46 29.83.86v3c-24-.59-47.84-2.1-71.56-1.32-10.06.32-19.38 1.05-29.31 1.45-26.34 1.11-54.66 0-81.47.78-21.4.63-40.48 2.44-60.37 3.8s-40.87 1.39-62.51 1.79c-27.43.53-55.79-.25-80.42-2.21-9.24-.74-18-1.64-28-2.06-12.26-.55-25.31-.36-38-.5a567.19 567.19 0 0 1-64.4-4.06c-24.85-3.26-42-6.1-76.85-6.26-7.24 0-14.62 0-21.64-.23s-13.92-1-15.83-2.08 1.69-2.29 6.84-3.11c15.53-2.46 41.35-2.42 60.17-4.27 10.45-1 18.23-2.56 28-3.74 28.8-3.43 65.23-1.43 98.05-2.94 13.76-.65 26-2 39.9-2.54 33.75-1.37 68.34 1.91 103.23 1.74 35-.15 68.62-3.74 102.87-2.59 25.29.84 47.26 4.22 72.92 3.68 13.9-.25 25.78-1.66 39.23-2.27 27.53-1.24 52.89-.5 79.09-1.62v1c-18.88.36-37.66.84-55.35 1.89-22.09 1.32-43.55 3.55-67.13 3.22-19.3-.29-35.8-2.27-54.52-3-26.58-1.14-54.46.25-81.65.95-31.06.8-63.07.67-93.87-.32-12.4-.42-24.91-1-37.48-.74-16.9.32-31.36 2-47.66 2.77-23.32 1.09-49.18.21-72.17 1.45-31.34 1.69-52.86 7.05-85.92 7.43z" data-name="&lt;Контур&gt;" class="cls-6"/></g><path id="_Контур_19" d="M725.1 31.5a3.19 3.19 0 0 0 0-.33v-.5c0-.37 0-.75-.09-1.11a2.58 2.58 0 0 0 0-.44c0-.45-.07-.9-.13-1.35a2.72 2.72 0 0 0 0-.31.8.8 0 0 0 0-.18c-.06-.51-.13-1-.22-1.52 0-.24-.09-.49-.13-.73-.07-.46-.17-.93-.27-1.38s-.19-.93-.32-1.38c-.18-.77-.39-1.52-.62-2.26-.12-.4-.24-.8-.38-1.18-.06-.19-.12-.39-.19-.58-4.48-12.85-14.53-22.91-27-26.82a38.42 38.42 0 0 0-11.75-1.8H-54.07l-1 .05-1.06.06-1.72.18-.38.05-1.31.21q-.89.15-1.78.35c-.23.06-.47.12-.72.17l-.83.22c-.28.06-.55.14-.83.23-.53.14-1.06.31-1.57.49l-.83.28c-1 .36-2 .76-2.93 1.2-.74.33-1.48.69-2.2 1.08a42.93 42.93 0 0 0-18.71 20c-.33.72-.64 1.45-.93 2.19-.21.51-.4 1-.58 1.57s-.41 1.21-.61 1.83c0 .09-.06.18-.08.27-.08.3-.18.59-.26.9a41.61 41.61 0 0 0-1.06 4.77c-.09.49-.16 1-.22 1.48 0 .35-.1.71-.13 1.07s-.07.71-.1 1.07a1.19 1.19 0 0 0 0 .22l-.07 1v10.32l.07-1a1.2 1.2 0 0 1 0-.22c0-.36.06-.72.1-1.07s.08-.72.13-1.07c.06-.5.13-1 .22-1.48a41.61 41.61 0 0 1 1.06-4.77c.07-.31.17-.6.26-.9 0-.09.06-.18.08-.27.19-.62.39-1.24.61-1.83s.38-1.05.58-1.57c.29-.73.61-1.47.93-2.19A42.93 42.93 0 0 1-71.2 4.5c.72-.39 1.46-.75 2.2-1.08 1-.44 1.93-.84 2.93-1.2l.83-.28c.51-.18 1-.35 1.57-.49.28-.09.55-.17.83-.23L-62 1c.24-.05.49-.1.72-.17q.89-.19 1.78-.35l1.31-.21.38-.05 1.72-.18 1.02-.04 1-.05H684a38.43 38.43 0 0 1 11.6 1.78c12.48 3.91 22.53 14 27 26.82.07.19.13.39.19.58.13.39.25.78.38 1.18.23.75.44 1.49.62 2.26.12.45.22.91.32 1.38s.19.91.27 1.38c0 .24.1.49.13.73.09.5.16 1 .22 1.52a.8.8 0 0 1 0 .18 2.7 2.7 0 0 1 0 .31c.06.45.11.9.13 1.35a2.58 2.58 0 0 1 0 .44c0 .36.07.73.09 1.11v.5a3.2 3.2 0 0 1 0 .33v1.72-10.3c.19-.58.18-1.14.15-1.72z" data-name="&lt;Контур&gt;" style="fill:#c49931;opacity:.62"/></g></g><path id="_Прямоугольник_2" d="M0 0h632v478H0z" data-name="&lt;Прямоугольник&gt;" style="fill:#1a171b;opacity:.4"/></g></svg>