<svg xmlns="http://www.w3.org/2000/svg" viewBox="0 0 46 46"><defs><clipPath id="e"><path fill="none" d="M-17 13h82v12h-82z"/></clipPath><clipPath id="c"><path fill="none" d="M-100 0h248v47h-248z"/></clipPath><clipPath id="a"><circle cx="23" cy="23" r="23" fill="none"/></clipPath><clipPath id="b"><path fill="none" d="M-16 0h79v47h-79z"/></clipPath><clipPath id="d"><path fill="none" d="M11 13h26v12H11z"/></clipPath><linearGradient id="f" x1="-2629.32" x2="-2628.79" y1="-7568.96" y2="-7568.96" gradientTransform="matrix(-.93 -.36 -.36 .93 -5138.9 6138.7)" gradientUnits="userSpaceOnUse"><stop offset="0.2" stop-color="#fff"/><stop offset="1" stop-color="#e6e6e6"/></linearGradient></defs><g clip-path="url(#a)"><path fill="#e2ba87" d="M-16 0h79v47h-79z"/><g fill="#e2ba87" clip-path="url(#b)"><path d="M-100 0h248v47h-248z"/><g clip-path="url(#c)"><path d="M-16 0h79v47h-79z"/><path d="M-100-8h248v188h-248z"/></g></g><g clip-path="url(#b)"><path fill="#ed6261" d="M11 13h26v12H11z"/><g fill="#ed6261" clip-path="url(#d)"><path d="M-17 13h82v12h-82z"/><g clip-path="url(#e)"><path d="M11 13h26v12H11z"/><path d="M-17 11h82v49h-82z"/><path d="M45.1 22.7c-.3-.3-.8-.5-.8-.8a.8.8 0 0 1 .4-.9h-1.3c1.3-.7 1-1.3 1-1.3-1.5.3-1.3 1-1.2 1.3h-.3c-.2-1.2-1.9-2.1-1.9-2.1s.3-.8-1.3-.8c-1.1 0-1-.2-1-.2s-.2.3.3.5l-.7.5.7.5c-.5.2-.3.5-.3.5s-.1-.1 1-.1 1.3-.4 1.5-.6a2.8 2.8 0 0 1 1.4 1.8h-.9a1 1 0 0 1 .5 1c-.1.4-.6.5-.9.8a1.4 1.4 0 0 0 0 1.8 1.4 1.4 0 0 0 .6.4h2.6c.3.3.4 0 .6-.4.5-.7.6-1.3 0-2z"/></g></g><g clip-path="url(#b)"><path fill="#e2ba87" d="M-16 0h79v62h-79z"/><path fill="#d7a66c" d="M9.4 32c5.1-.4 10.3-.5 15.4-.5a65 65 0 0 1 7.2.4c2.1.2 4.3.7 6.5.7a346.9 346.9 0 0 0 24.5-.4v-.4l-13.8.4c-5.8.2-11.6.3-17.4-.7a50.6 50.6 0 0 0-7.6-.4l-6.6.2L.8 31a24.5 24.5 0 0 0-3 .1A90.2 90.2 0 0 1-16 32.4v.3c8.5 0 17 0 25.4-.7zm-2-.1l-14.2.6c4.6-1.6 9.4-1 14.2-.6zM21.2 37.9c8.4 2.3 17 2.2 25.7 1A169.4 169.4 0 0 1 63 37.3v-.1l-8.5.4a47.4 47.4 0 0 1 8.5-1.3V36c-2 0-4 .2-5.9.5-5 .8-9.9 2-14.9 2.6a55.4 55.4 0 0 1-21-1.5 23 23 0 0 0-10.3-1C8 37 5 38 2 38.6a67.2 67.2 0 0 1-18 .5v.3l3.1.2a56 56 0 0 0 18.6-1.7 27.3 27.3 0 0 1 15.5 0zM-10.1 21.1a24 24 0 0 1-5.9 1v-.3a33 33 0 0 0 7.6-1.4 32.4 32.4 0 0 1 11.6-1l14.1.6c2.8 0 5.5-.5 8.2-.7A31.9 31.9 0 0 1 37 20.7a29 29 0 0 0 14.1.4A49.8 49.8 0 0 1 62 20h1v.4a62.3 62.3 0 0 0-12.7 1.2 30.7 30.7 0 0 1-15-.9 30.7 30.7 0 0 0-12.8-.8 77.3 77.3 0 0 1-18 0A35.1 35.1 0 0 0-10 21.1zM10.2 13.6c-5.9 0-11.8-.7-17.7-1.2-2.8-.3-5.6-.5-8.5-.6v-.3c4 .1 7.9.5 11.8.8l14.8 1c8.4.3 16.6-.6 24.9-1.4a114.8 114.8 0 0 1 23 .2l4.5.6v.1l-2.4-.3a157 157 0 0 0-28.3 0c-7.3.7-14.7 1-22.1 1z"/><path fill="#d7a66c" d="M1 18.2a16.3 16.3 0 0 1-10.8-.8 15 15 0 0 0-6.2-1.1v-.5a12.3 12.3 0 0 1 5.6 1 18.8 18.8 0 0 0 11.8 1c2.5-.5 5.3-.3 8-.4H21a24.6 24.6 0 0 1 5.3.6 15.8 15.8 0 0 0 10.2-.8 15.9 15.9 0 0 1 10.3-.8c4 1 8.1 1.9 12.2 2.6a28.3 28.3 0 0 0 4 .5v.4a61.7 61.7 0 0 1-9-1.5l-10.1-2a10.4 10.4 0 0 0-6.1.8 18 18 0 0 1-12.2 1 12 12 0 0 0-3.3-.3H4.8a15.3 15.3 0 0 0-3.8.3z"/><path fill="#d7a66c" d="M9.8 16c-3 0-6.2.2-9.2 0A143 143 0 0 1-10.7 15a27.4 27.4 0 0 0-5.3-.1v-.4c3.7-.3 7.2.5 10.8 1a30.8 30.8 0 0 0 4.6.3h28.3a25 25 0 0 0 5.6-.4c5-1.2 10-1 15-.3A145.7 145.7 0 0 0 63 16.2v.1c-5-.2-10.2-.5-15.2-1a50.6 50.6 0 0 0-14.1.2 55.5 55.5 0 0 1-9.4.5H9.8zM-9.3 31c-2.2.4-4.5.6-6.7.7v-.3l7.6-.6c4.3-.5 8.7-.7 13-.8h18.7c3.6 0 7.2.3 10.8.5 5.7.4 11.4 1 17 1 4 0 8-.3 11.9-.5v.5l-5.2.3a149.1 149.1 0 0 1-25-1 124 124 0 0 0-13-.3c-4.1 0-8.3.2-12.5 0a99.6 99.6 0 0 0-16.6.6zM-15.5 45a2.3 2.3 0 0 1-.5 0v-.2l7.6.2a145.1 145.1 0 0 0 15.7-.8 64.4 64.4 0 0 1 14 .2 120.3 120.3 0 0 0 19.9.3c3.6-.2 7.3-.2 11-.3l10.8-.6v.5l-5.5.3c-2.9.2-5.8.1-8.7.2-4.2.1-8.3.5-12.5.4a251 251 0 0 1-18.5-1 57.5 57.5 0 0 0-11.4.4 133.4 133.4 0 0 1-22 .4zM-16 41v-.3h10.2c5-.2 9.8-.7 14.6-1.3a48.9 48.9 0 0 1 10.5.1 186.2 186.2 0 0 0 26 1.1c4-.1 8.1-.7 12.2-.9l5.5-.2v.5c-5.7.4-11.4.8-17.2 1a140.3 140.3 0 0 1-20.2-.6A82 82 0 0 0 5.2 40 137.5 137.5 0 0 1-16 41z"/><path fill="#d7a66c" d="M4.4 14.7c-6.8-.5-13.6-1-20.4-1.2v-.4c5 0 9.8.3 14.7.8a149.2 149.2 0 0 0 26 .3c5.5-.4 11-1 16.6-1 5-.2 10 .3 15 .5l6.7.4v.3l-10.2-.6a135.6 135.6 0 0 0-23.7.4 150 150 0 0 1-24.7.5zM2.3 42.4a128.4 128.4 0 0 1-18.3.4v-.3a122.2 122.2 0 0 0 18.6-.4 95.9 95.9 0 0 1 20-.2 125.8 125.8 0 0 0 22.5.5c5.2-.4 10.2-1.2 15.4-1.5l2.5-.1v.3c-3.5.1-7 .4-10.5.8A130 130 0 0 1 21 42a91.8 91.8 0 0 0-18.8.4zM31.9 28.4c-4.5 0-10.8-.4-15.3-.4l-14.3.2h-12a48.7 48.7 0 0 0-6.3.7v-.3A56.4 56.4 0 0 1-6 27.9l18-.3h6.7l7.8.2c6.8 0 13.7-.3 20.3 1.5a20.6 20.6 0 0 0 9.8.3 44.2 44.2 0 0 1 6.3-.9v.3h-.1c-3 .2-6 .8-9 1.2a22.6 22.6 0 0 1-8.2-.8c-5.1-1.3-8.5-1-13.8-1zM22.3 33.5h19.8L63 33v.2h-7l-21 .5c-4.2.1-8.5-.1-12.7-.2zM-16 33.2v-.5c6 0 11.9.2 17.8.3h2.9a8.9 8.9 0 0 1-1 .1H-16z"/><path fill="#d7a66c" d="M41.7 30.8l4.3-.4V30l-3.2-.5.1-.2 3.3.5 3.6.4c4.1.5 8-.2 12-.8H63v.2l-3.2.5a61 61 0 0 1-7.4.6c-3.5.1-7.1 0-10.7 0zM-10 26.1a24.6 24.6 0 0 1-6 .5V26a26.7 26.7 0 0 0 8.2-.8c3.8-1 7.6-.7 11.4-.8 3.1 0 6.3-.4 9.5-.1 8.3.6 16.8-.8 25 1.5a16.6 16.6 0 0 0 8.5-.3 29.5 29.5 0 0 1 14.6-.1l1.8.4v.3l-2-.4a29.8 29.8 0 0 0-14 0 23 23 0 0 1-11.2 0 51 51 0 0 0-14.4-1h-22a61 61 0 0 0-9.5 1.3z"/><path fill="#d7a66c" d="M48.7 24.3a29.3 29.3 0 0 1-3 .7 18.9 18.9 0 0 1-7.6-.6 40 40 0 0 0-13.4-1.2 72.8 72.8 0 0 1-8.1-.2 5 5 0 0 1-2.4-.8 8.6 8.6 0 0 1 1-.2l8.4-1c4.4-.5 8.6.3 12.8 1 4 .6 8 1.5 12.3 2.3zm-32.7-2v.5a63.7 63.7 0 0 0 7 .1A43.7 43.7 0 0 1 39 24.2a16.8 16.8 0 0 0 8.1.2L39 23a94.9 94.9 0 0 0-11.6-1.5c-3.8 0-7.6.6-11.4.9zM-16 23.6v-.4c2.8-.4 5.5-1 8.3-1.5a44.2 44.2 0 0 1 16.2 0 38.3 38.3 0 0 0 4.2.4v.4c-2-.2-4-.2-5.8-.5a44.9 44.9 0 0 0-16.9.6zM44.8 36.1l-4.3 1-.2-.5 3.9-.5c-2.8-1-8.7-.3-11.8 1.3 2.3 1 14.2-.1 17.4-1.7-1.3-1-1.8-1-10.4-.8A36.5 36.5 0 0 0 29 36.5c4-2.3 18.8-2.9 21.5-1a37.4 37.4 0 0 1-18.7 2c1.8-1.8 9.7-3 13-1.8a1.6 1.6 0 0 0 0 .4zM21.2 35.8l5.7 1.9c-4.4-.8-8.3-3-13-3 5.9.4 11.8 1 17.6-.3v.5l-10.3 1zM5.8 35.8L-4.6 35v-.5c5.9 1.3 11.8.7 17.7.3-4.7 0-8.6 2.1-13 3l5.7-1.9zM4.6 33.5a49.9 49.9 0 0 1 17.9 0l-7.5-.6-6.4.3-4 .3zM40.7 38.4c-4.3.3-8.7 1.5-12.7-.7 4.1 1.9 8.5.6 12.7.7zM12.2 19.2l13.3-.7a1.3 1.3 0 0 0 0 .4l-13.3.7a1.2 1.2 0 0 1 0-.4zM50.3 20c.2-1-.8-1.2-1.5-1.4-3.8-.9-7.5-1.4-11.3 0a6 6 0 0 1 4-1.2 20 20 0 0 1 8 1c.7.4 1.6.7.9 1.6z"/><path fill="#d7a66c" d="M38 19.5a7.5 7.5 0 0 0 2.3 1.1 19.3 19.3 0 0 0 10-.7 6.3 6.3 0 0 1-1.6.8 22.1 22.1 0 0 1-9 .2c-1.3-.3-1.8-.7-1.7-1.5z"/><path fill="#d7a66c" d="M38 19.4c.5-.2.9-.6 1.3-.6H47v.4a9.2 9.2 0 0 1-1 .1l-1.2-.1c-2.2 0-4.6-.4-6.7.4zM.7 11.5c-5-.2-10-1-15-1.5l-1.7-.2v-.3c3 .2 5.9.5 8.8 1a147.7 147.7 0 0 0 21.2.7c2.6 0 5.3.2 8 0 5.5-.3 11.1-.7 16.7-1.3a96.7 96.7 0 0 1 22.8.2 4.2 4.2 0 0 1 .5.2l-11.4-.8c-7.7-.2-15.1 1-22.7 1.8-1.7.1-3.4.3-5.2.3-7.3 0-14.6.1-22-.1zM-8.4 6.6a44.3 44.3 0 0 1-7.6.9v-.3a23 23 0 0 0 4.3-.4A82 82 0 0 1 6.6 5.4h19.9a49.7 49.7 0 0 1 8.9.9A35.5 35.5 0 0 0 53 5.6a28 28 0 0 1 9.9-.8V5a34.5 34.5 0 0 0-11.8 1.3 29.6 29.6 0 0 1-14.5.4 52.3 52.3 0 0 0-10.9-1H.1a48.2 48.2 0 0 0-8.5.8zM-10.8.8L-16 .2V0l2.8.3c6.5.6 13 1 19.6 1.3 4.7.1 9.4.2 14 0C27.7 1 34.9.5 42 0a41 41 0 0 1 11.4.4 38.6 38.6 0 0 0 7.3.6H63v.1c-2.7 0-5.4 0-8-.2-3.7-.2-7.3-1.2-11-.8-4.2.4-8.2 1-12.4 1.2-4.5.3-9.2.3-13.7.4H9.5a121.5 121.5 0 0 1-20.3-1z"/><path fill="#d7a66c" d="M-8 3.4l-8-1.6v-.4a18.1 18.1 0 0 1 1.9.4l7.6 1.6A44.9 44.9 0 0 0 9.8 4.8a28.8 28.8 0 0 1 7.5 0c6.2.8 12.2-.3 18.2-1.7 3-.7 6-1.2 9-1.7A11.4 11.4 0 0 1 52 3a7.1 7.1 0 0 1-1.2-.3 13.3 13.3 0 0 0-8.7-.8L29.9 4.5a45.3 45.3 0 0 1-14.6.4A19.8 19.8 0 0 0 11 5 51 51 0 0 1-8 3.4zM-7.8 8h-.8a.8.8 0 0 1 .3 0zm-.5-.1a9.2 9.2 0 0 0-2.7.8l2.9-.1a41.1 41.1 0 0 1 6 0L.7 9h6.9L4.7 9c-4.3-.2-8.5-.7-13-1zm46 .8a1 1 0 0 0 .4-.1C34.2 6.1 3 5.8-7.8 7.7a259.3 259.3 0 0 1 43 .1c-5.7.4-11.3.9-17 1.1H25a66 66 0 0 1 12.8-.3zM39.1 9.1l18.4-3A27.3 27.3 0 0 1 63 6v.4a55.9 55.9 0 0 0-12.5 1.2l-9.8 1.6a12.6 12.6 0 0 1-1.6 0zM38.3 5.4c3.9.8 7.7 1.2 11.4-.5-3.2-1.2-6.5-.6-9.7-.3V5h5.6c-1.4.9-4.9.8-6.5-.3a8.8 8.8 0 0 1 1.6-.5l7.3-.4a2 2 0 0 1 1 .2c.4.2 1 .5 1 .8s-.3.7-.7 1a7.8 7.8 0 0 1-2.2.5c-3 .3-6 .3-9-.8a.5.5 0 0 0 .2 0z"/><path fill="#d7a66c" d="M38 5.4c-1.2-.8-1.2-1.3.1-1.9a18 18 0 0 1 7.4-1.1 11.2 11.2 0 0 1 5.4 1 22.6 22.6 0 0 0-10.2-.3 12.2 12.2 0 0 0-2.3.6c-1 .4-1.3.9-.3 1.5a.5.5 0 0 0-.1.2zM24 3.7a54.8 54.8 0 0 1-6.6-.4c-3.5-.6-6.8-.2-10.2.2A33 33 0 0 1-5 2.4l3.1.4a38.2 38.2 0 0 0 11.7 0 24.3 24.3 0 0 1 6.8 0l7.5.6zM30.3 10.1l-1.6.3a28.6 28.6 0 0 1-4.7.3c-4-.1-7.9-.5-11.8-.8 2-.6 15.3-.4 18 .2zM19.5 10c2.8.8 5.7.5 8.5.3V10z"/><path fill="url(#f)" d="M33.3 18.2l-.4-.1-.5 1a1.8 1.8 0 0 1 .4.1z"/></g><path fill="#30cde5" d="M-10 8h30v30h-30z"/><path fill="#ffed4f" d="M27 8h30v30H27z"/></g></g></svg>
