<svg id="Layer_1" data-name="Layer 1" xmlns="http://www.w3.org/2000/svg" xmlns:xlink="http://www.w3.org/1999/xlink" viewBox="0 0 46 46"><defs><style>.cls-1{fill:none;}.cls-2{clip-path:url(#clip-path);}.cls-3{clip-path:url(#clip-path-3);}.cls-4{clip-path:url(#clip-path-4);}.cls-5{clip-path:url(#clip-path-5);}.cls-6{clip-path:url(#clip-path-6);}.cls-7{clip-path:url(#clip-path-7);}.cls-8{clip-path:url(#clip-path-8);}.cls-9{clip-path:url(#clip-path-9);}.cls-10{clip-path:url(#clip-path-10);}.cls-11{clip-path:url(#clip-path-11);}.cls-12{clip-path:url(#clip-path-12);}.cls-13{clip-path:url(#clip-path-13);}.cls-14{clip-path:url(#clip-path-14);}.cls-15{clip-path:url(#clip-path-15);}.cls-16{clip-path:url(#clip-path-16);}.cls-17{clip-path:url(#clip-path-17);}.cls-18{fill:#7b1fa2;}.cls-19{fill:#8e24aa;}.cls-20{fill:#ba68c8;}.cls-21{fill:#9c27b0;}</style><clipPath id="clip-path"><rect class="cls-1" x="-382.63" y="-990.58" width="632" height="120"/></clipPath><clipPath id="clip-path-3"><rect class="cls-1" x="129" y="-220" width="115" height="88"/></clipPath><clipPath id="clip-path-4"><rect class="cls-1" x="129" y="-132" width="115" height="32"/></clipPath><clipPath id="clip-path-5"><rect class="cls-1" x="129" y="-100" width="115" height="32"/></clipPath><clipPath id="clip-path-6"><rect class="cls-1" x="129" y="-68" width="115" height="32"/></clipPath><clipPath id="clip-path-7"><rect class="cls-1" x="129" y="-36" width="115" height="32"/></clipPath><clipPath id="clip-path-8"><rect class="cls-1" x="129" y="-4" width="115" height="32"/></clipPath><clipPath id="clip-path-9"><rect class="cls-1" x="129" y="28" width="115" height="32"/></clipPath><clipPath id="clip-path-10"><rect class="cls-1" x="129" y="60" width="115" height="32"/></clipPath><clipPath id="clip-path-11"><rect class="cls-1" x="129" y="92" width="115" height="32"/></clipPath><clipPath id="clip-path-12"><rect class="cls-1" x="129" y="124" width="115" height="32"/></clipPath><clipPath id="clip-path-13"><rect class="cls-1" x="129" y="156" width="115" height="32"/></clipPath><clipPath id="clip-path-14"><rect class="cls-1" x="129" y="188" width="115" height="32"/></clipPath><clipPath id="clip-path-15"><rect class="cls-1" x="129" y="220" width="115" height="32"/></clipPath><clipPath id="clip-path-16"><rect class="cls-1" x="129" y="252" width="115" height="32"/></clipPath><clipPath id="clip-path-17"><rect class="cls-1" x="129" y="284" width="115" height="32"/></clipPath></defs><title>Artboard 49</title><circle class="cls-18" cx="23" cy="23" r="23"/><path class="cls-19" d="M46,23a23.06,23.06,0,0,0-.55-5H30v7a4,4,0,0,1-4,4H15v8a4,4,0,0,0,4,4H37.31A23,23,0,0,0,46,23Z"/><path class="cls-20" d="M26.57,32.07a2.52,2.52,0,0,1,1.76-2.46,2.45,2.45,0,0,1-1.41-2.25c0-1.64,1.57-2.85,3.86-2.85s3.86,1.21,3.86,2.88a2.44,2.44,0,0,1-1.41,2.22A2.57,2.57,0,0,1,35,32.08c0,1.83-1.76,3-4.22,3S26.57,33.88,26.57,32.07Zm5.69-.28c0-.66-.61-1.11-1.48-1.11s-1.48.45-1.48,1.14S29.83,33,30.78,33,32.26,32.43,32.26,31.79ZM32,27.69a1.27,1.27,0,1,0-1.26,1.14A1.15,1.15,0,0,0,32,27.69Z"/><path class="cls-21" d="M15,22a4,4,0,0,1,4-4H30V10a4,4,0,0,0-4-4H7.51A23,23,0,0,0,.8,29H15Z"/><path class="cls-21" d="M15,22v7H26a4,4,0,0,0,4-4V18H19A4,4,0,0,0,15,22Z"/><path class="cls-20" d="M11.87,15.06H7.13V12.68H15v2.14L10.5,22.92H7.36Z"/><path class="cls-20" d="M15.71,20.78l3.83-2.93c1-.73,1.32-1.23,1.32-1.84a1,1,0,0,0-1.14-1c-.69,0-1.23.4-2,1.32l-1.92-1.6a4.74,4.74,0,0,1,4.17-2.2c2.24,0,3.78,1.33,3.78,3.29,0,1.64-.83,2.5-2.37,3.59l-1.76,1.23h4.23v2.31H15.71Z"/></svg>