<svg xmlns="http://www.w3.org/2000/svg" width="27" height="20" viewBox="0 0 27 20"><defs><linearGradient id="a" x1="101.017%" x2="0%" y1="77.274%" y2="22.726%"><stop offset="0%" stop-color="#DF56EB"/><stop offset="44.431%" stop-color="#FF59C7"/><stop offset="100%" stop-color="#FFBB5F"/></linearGradient></defs><path fill="url(#a)" fill-rule="nonzero" d="M25.491 4.523c.72 0 1.313.551 1.38 1.253l.007.133v12.63c0 .72-.551 1.313-1.253 1.38l-.134.007H4.521c-.72 0-1.313-.551-1.38-1.254l-.007-.133v-1.782h19.417a2.475 2.475 0 0 0 2.467-2.31l.006-.162V4.523h.467zM0 13.305c11.078-2.16 21.392-.45 23.744 0v.98c0 .657-.535 1.192-1.193 1.192H1.192A1.194 1.194 0 0 1 0 14.285zM6.033 5.88c.295 0 .576.098.803.28l.11.098 4.695 4.696c-3.234.002-6.995.227-10.906.915L0 12.002v-.625l5.12-5.12c.244-.244.568-.378.913-.378zm12.253 2.91l.14.06 5.318 2.659V12c-1.182-.221-3.638-.624-6.935-.863a70.268 70.268 0 0 0-2.178-.123l-.591-.022 3.093-2.062a1.294 1.294 0 0 1 1.153-.141zm-5.58-3.363a3.568 3.568 0 0 1 3.379 2.446l.054.182-3.352 2.235-3.13-3.132a3.56 3.56 0 0 1 3.049-1.731zM1.192.074h21.36c.616 0 1.124.47 1.185 1.071l.007.122v8.81l-4.745-2.373a2.573 2.573 0 0 0-1.692-.211 4.853 4.853 0 0 0-4.601-3.347c-1.51 0-2.922.707-3.83 1.884l-.146.2-.88-.878a2.553 2.553 0 0 0-1.817-.753c-.618 0-1.203.216-1.667.614l-.15.139L0 9.567v-8.3C0 .65.47.142 1.07.08l.122-.007h21.36zM17.337 2.68l-.079.068-.643.643a.64.64 0 0 0 .825.973l.08-.068.643-.643a.64.64 0 0 0-.826-.973zm-8.42-.658a.64.64 0 0 0-.068.825l.068.08.643.643a.639.639 0 0 0 .905 0 .64.64 0 0 0 .068-.826l-.068-.079-.643-.643a.64.64 0 0 0-.905 0zm4.699-.833a.64.64 0 0 0-.633.545l-.007.094v.91a.64.64 0 0 0 1.273.095l.007-.095v-.91a.64.64 0 0 0-.64-.64z"/></svg>