<svg xmlns="http://www.w3.org/2000/svg" viewBox="0 0 46 46"><defs><clipPath id="a"><circle cx="23" cy="23" r="23" fill="none"/></clipPath><clipPath id="b"><path fill="none" d="M-81.8-63h209.6V95.5H-81.8z"/></clipPath></defs><circle cx="23" cy="23" r="23" fill="#fff"/><g clip-path="url(#a)"><g clip-path="url(#b)"><path d="M145-63H-99.3c-7.5 0-13.7 6.5-13.7 14.4V85c0 8 6.2 14.5 13.7 14.5H145c7.5 0 13.6-6.5 13.6-14.5V-48.6A14 14 0 0 0 145-63z" fill="#523202"/><path d="M158.7-52V81.6A14.7 14.7 0 0 1 152 94a13.8 13.8 0 0 1-1.5.8A12.8 12.8 0 0 1 145 96h-246.2l-.6-.2h-.4l-.3-.1-.8-.2-.5-.2-.5-.2-.2-.1-.7-.3-.3-.2-.2-.1-.2-.1-.2-.1-.6-.4-.5-.4-1-.8-.3-.3-.1-.1a14.4 14.4 0 0 1-1.1-1.2l-.3-.4-.5-.7-.2-.4-.3-.5-.3-.5-.1-.3-.2-.5-.2-.3-.4-1V86c0-.2-.1-.2-.2-.3l-.2-1c0-.4-.1-.5-.2-.7v-.5a15.2 15.2 0 0 1-.2-1.9V-54l.1-.5a13.8 13.8 0 0 1 .5-1.5v-.3l.3-.7.2-.5.3-.8a14.2 14.2 0 0 1 6.2-6.6l.7-.3 1-.4.3-.1.5-.2h.3l.2-.1.3-.1.6-.1h.5l.6-.1H145a13 13 0 0 1 1.9 0 13.1 13.1 0 0 1 2 .5 14.1 14.1 0 0 1 9 9v.1l.2.4.2.8v.4l.2.5v.7a.9.9 0 0 1 0 .2v.4a.8.8 0 0 1 0 .2v.5a1 1 0 0 1 0 .1c.2.2.2.4.2.5z" fill="#945c23"/><path d="M158.7 19v36.2L155 55a157.3 157.3 0 0 0-33-.2c-4.5.6-9 1.5-13.5 2-3.4.3-6.8.5-10.3.5-6.5.2-13 0-19.6.1l-4.5.3c-5.9.3-11.7 1-17.4 1.8-13.6 1.7-27 4.1-41 4.6-28 .8-53-6.2-78.9-12a166 166 0 0 0-14-3 235.3 235.3 0 0 0-31.6-4.4 34 34 0 0 1-4.3-.6v-4.6l2.6-.8 1.6-.5 24.4-7.7c11.7-3.7 26.9-2.9 39.6-5 3.9-.8 7.5-1.7 11.5-2.3a124 124 0 0 1 16.8-.9l25-.2 19-.2 34.7-.3a66.7 66.7 0 0 1 12.3.7c3.8.7 6.9 2 10.6 2.8 11.7 2.6 24.8-.8 37-2.7h.4c5-.9 10-1.4 15-1.8l13.4-1z" fill="#a35e26"/><path d="M158.7-3v2.6q-14.5.6-29 1.5c-14 .9-28 2.1-42.1 3a435.6 435.6 0 0 1-66 .8C3.1 3.3-14.7-.3-33.5-.8-46.1-1.1-58.7 0-71.2 1Q-92 2.7-113 4.2V-.3l9.5-.5c15.6-.8 31.2-1.5 46.9-2C-40.4-3-24-3-8.3-1 4.2.6 16.3 3.5 29.4 4s26.2-1.6 39.4-1.6c8 0 16.2.6 24-.2 5.6-.5 10.8-1.8 16.3-2.6A207.6 207.6 0 0 1 133-2.2zm0 19v3.3l-7.5.4-13.6.8c-5.1.4-10.2 1-15 1.7l-.5.1-1.5.3c-9.4 1.7-18.6 4.7-28.7 4.2-8.2-.3-15.3-3-23.3-4-11.3-1.5-23.2.3-34.8 1.2a223.2 223.2 0 0 1-40.1-.4c-5.3-.5-10.7-1.3-16-1-7.3.4-13.4 2.7-20.4 3.7-10 1.5-21 .3-30.8 2-13 2-22 8.8-35.2 9.7l-1.5.1a1.4 1.4 0 0 0-.1.4c0 1.6 3.5 2.8 6.5 3.6q13.1 3.6 26.8 6.7l14 3q13.5 2.9 27.4 5.2c24.7 4.1 52 7.1 76.7 2.9C51 58 60.5 55.3 71 55c7.2-.2 14.3.9 21.6.7 13.3-.2 25.5-4.4 38.8-4.1 6.7 0 13 1.3 19.6 1.9l7.6.4v3.2c-4 0-8 0-12.1-.2-8.2-.5-16.3-2-24.4-2.2a64 64 0 0 0-8.5.2c-4.3.5-8.3 1.5-12.6 2l-2.7.4c-7.9.7-16.1.2-24.2.3-2.6 0-5.3.1-7.9.4a92.6 92.6 0 0 0-9.5 1.4c-5.5 1-10.8 2.5-16.3 3.6-8.4 1.8-17.4 1.8-26.6 2.4a118.5 118.5 0 0 1-34.4-3 111.4 111.4 0 0 0-12-2.7c-5.2-.7-10.8-.5-16.2-.7a82.7 82.7 0 0 1-27.5-5.4c-10.6-4.3-18-8.1-32.8-8.3h-3.9v-9.9c5.5-1 11.5-1.5 16.5-3 4.4-1.3 7.8-3.4 12-5 12.3-4.5 27.8-1.9 41.9-3.9 5.9-.8 11-2.6 17-3.4 11.2-1.4 22.6.9 34 1.9a102.7 102.7 0 0 0 19.2-.2c11.7-1.2 23.2-4 34.9-2.8 10.8 1.1 20.2 5.6 31.1 5 6-.5 11-2.3 16.8-3 14.4-2 27.5-.1 41.6-3.7a49.8 49.8 0 0 1 6.7-1.2z" fill="#864f22"/><path d="M158.7 6v3.3L115.5 13a305 305 0 0 1-43.7 1.6c-8-.5-16-1.6-24.1-1.1-3.7.2-7.4.7-11 1C17.4 16.4-2 12-21.4 13a202.3 202.3 0 0 0-24.3 3.2L-68 20c-4.5.8-9 1.6-13.3 2.6-4 1-7.6 2.2-11.8 2.8-6 1-12.3.6-18.4 1.1l-1.6.2V24c4.6 0 9.3.2 13.7-.5 6-1 10.5-3.4 16.5-4.3 5.2-.8 10.8-.3 16-1s9.6-2.4 14.3-3.8c14.3-4.3 31.5-4.9 48-4.6 8 .1 16.7.2 24.7.6 7 .4 15.4 2.7 22.2 1.5 2-.4 3.7-1 5.7-1.3 7.6-1.1 14.5 3 22.4 3 7 .2 13.2-2.8 20.2-2.4 3.8.3 7.6 1.6 11.3 1a28.1 28.1 0 0 0 4.2-1.2c8-2.4 16.8-.3 25.2-1.2 6.7-.7 12-2.7 18.8-3.3l8.5-.6zM-70.5 39.5c-.5.9 2.7 1.6 5.5 2 18.8 3.1 38.6 5.7 59 7.8 21.4 2.1 45 3.7 66.2 1.5 8.6-1 16.8-2.4 25.9-2.6 6.2 0 12.4.5 18.6.4 11.5-.1 22-2.3 33.5-2.2 5.8.1 11.3.7 17 1l3.5.2v1.7h-7.4c-9.6-.4-19-1.7-28.4-1-3.7.1-7.2.7-10.8 1-9.7.7-20.2 0-30 .5-8.1.4-15.1 1.7-22.4 2.6s-15.1 1-23 1.3A166.6 166.6 0 0 1 7 52c-3.4-.4-6.7-1-10.4-1.3-4.5-.4-9.3-.3-14-.4A113.7 113.7 0 0 1-41 47.5c-9.2-2.2-15.5-4.2-28.3-4.3-2.7 0-5.4 0-8-.2s-5.2-.7-5.9-1.4.6-1.6 2.5-2.2c5.8-1.7 15.3-1.7 22.2-3 3.9-.7 6.8-1.8 10.4-2.6 10.6-2.4 24-1 36.1-2 5.1-.4 9.6-1.4 14.8-1.8 12.4-1 25.2 1.3 38 1.2s25.3-2.5 38-1.8c9.3.6 17.4 3 26.9 2.6 5-.2 9.5-1.2 14.4-1.6 12.5-1 23.8 0 36-1.9l2.7-.3v1.5l-3.4.1c-9 .3-18 .6-26.5 1.5-8.2 1-16 2.5-24.8 2.2-7.1-.1-13.2-1.5-20-2-9.9-.8-20.2.1-30.2.6a318.5 318.5 0 0 1-34.6-.2c-4.6-.3-9.2-.7-13.8-.5-6.3.2-11.6 1.4-17.6 1.9-8.6.8-18.2.1-26.6 1-11.6 1.2-19.5 4.9-31.7 5.2z" fill="#864f22"/><path d="M-38.9 40.2c-.4.4 2.5.8 5 1 17 1.5 34.7 2.7 53 3.7 19.2 1 40.5 1.7 59.6.7 7.7-.4 15-1.1 23.2-1.2l16.8.2c10.3 0 19.8-1.1 30.1-1 3.4 0 6.6.1 9.9.3v1c-8-.2-15.9-.7-23.7-.5l-9.8.5c-8.7.4-18 0-27 .3-7 .2-13.4.8-20 1.2a450.4 450.4 0 0 1-56.6-.8c-4.1-.2-8.4-.1-12.6-.2A188 188 0 0 1-12.4 44c-8.3-1-14-2-25.5-2h-7.2a17.9 17.9 0 0 1-5.2-.8c-.7-.3.5-.7 2.2-1 5.2-.8 13.7-.8 20-1.4 3.5-.3 6-.8 9.3-1.2 9.6-1.2 21.7-.5 32.5-1 4.6-.2 8.7-.7 13.3-.9 11.2-.4 22.6.7 34.2.6s22.7-1.3 34-.9c8.4.3 15.7 1.4 24.2 1.2 4.6 0 8.6-.5 13-.7 9.2-.4 17.6-.2 26.3-.5v.3c-6.3.1-12.5.3-18.4.6-7.3.5-14.4 1.2-22.2 1-6.4 0-12-.7-18.1-1-8.8-.3-18 .2-27 .4-10.4.3-21 .2-31.2-.1-4.1-.1-8.3-.3-12.4-.2-5.6 0-10.4.6-15.8.9-7.8.3-16.4 0-24 .5-10.4.5-17.5 2.3-28.5 2.4z" fill="#864f22"/></g><path fill="#1a171b" opacity=".4" d="M-81.8-63h209.6V95.5H-81.8z"/></g><rect x="12" y="12" width="23" height="23" rx="2" ry="2" fill="#ffd400"/><path d="M37 14v19a2 2 0 0 0 2 2h3.6a23 23 0 0 0 .6-23H39a2 2 0 0 0-2 2zM10 33V14a2 2 0 0 0-2-2H2.8a23 23 0 0 0 .6 23H8a2 2 0 0 0 2-2zm4-23h19a2 2 0 0 0 2-2V3.4a23 23 0 0 0-23-.6V8a2 2 0 0 0 2 2zm25 0h3a23.1 23.1 0 0 0-5-5.2V8a2 2 0 0 0 2 2zM10 8V4a23.1 23.1 0 0 0-6 6h4a2 2 0 0 0 2-2zm23 29H14a2 2 0 0 0-2 2v4.2a23 23 0 0 0 23-.6V39a2 2 0 0 0-2-2zm4 2v2.2a23.1 23.1 0 0 0 4.2-4.2H39a2 2 0 0 0-2 2zM8 37H4.8a23.1 23.1 0 0 0 5.2 5v-3a2 2 0 0 0-2-2z" fill="#a35e26"/><path d="M19.6 26.4l1.7-1.7a3.2 3.2 0 0 0 2.3 1.1c.7 0 1.2-.4 1.2-1s-.5-1-1.5-1H22l-.4-1.4 2.3-2h-3.8v-2.2h7v2l-2.3 2a2.7 2.7 0 0 1 2.6 2.7c0 2-1.6 3.3-3.8 3.3a5.3 5.3 0 0 1-4.1-1.8z" fill="#673b15"/></svg>
