<svg width="126" height="152" viewBox="0 0 126 152" fill="inherit" xmlns="http://www.w3.org/2000/svg">
<path d="M117.619 29.8C120.694 17.975 116.081 5.05 115.825 4.225C115.056 2.3 113.263 0.649998 111.213 0.649998C110.7 0.649998 98.9125 -0.450001 87.125 9.175C77.9 7.25 67.3937 6.7 66.8812 6.7C66.625 6.7 66.625 6.7 66.3687 6.7C65.8562 6.7 55.35 7.25 46.125 9.175C34.3375 -0.450001 22.55 0.649998 22.0375 0.649998C19.9875 0.924998 18.1937 2.3 17.425 4.225C17.1687 4.775 12.3 17.975 15.6312 29.8C9.73749 38.6 5.12499 50.15 9.22499 70.775C13.0687 89.475 27.4187 99.925 42.2812 103.5C41 107.35 40.4875 112.025 39.975 116.975C33.825 117.25 29.9812 113.4 24.6 107.35C19.9875 102.125 14.8625 96.075 6.40624 94.15C3.58749 93.325 0.768744 95.25 -6.04015e-06 98.55C-0.512506 101.85 1.28124 104.875 4.35624 105.425C9.22499 106.525 12.5562 110.375 16.6562 115.05C22.0375 121.1 28.1875 128.525 39.2062 128.525H39.4625C39.4625 134.85 39.975 140.9 40.2312 145.85C40.4875 149.15 43.05 151.35 46.125 151.075C49.2 150.8 51.25 148.05 50.9937 144.75C49.4562 126.05 50.7375 106.25 53.5562 103.5C55.6062 102.125 56.8875 99.65 56.1187 96.9C55.6062 94.425 53.5562 92.5 50.9937 92.5C48.6875 92.5 24.6 91.125 19.9875 68.3C16.1437 49.6 21.0125 41.35 26.1375 34.75C27.4187 33.1 27.675 30.625 26.9062 28.425C24.8562 23.75 25.625 17.15 26.65 12.75C30.2375 13.3 35.6187 14.95 41.2562 20.175C42.5375 21.55 44.3312 21.825 46.125 21.55C54.0687 19.35 64.8312 18.8 66.625 18.8C68.1625 18.8 79.1812 19.35 87.125 21.55C88.9187 22.1 90.7125 21.55 91.9937 20.175C97.6312 14.95 103.269 13.3 106.6 12.75C107.625 16.875 108.394 23.475 106.344 28.425C105.575 30.35 105.831 32.825 107.112 34.75C112.237 41.35 116.85 49.6 113.262 68.3C108.65 91.125 84.5625 92.5 81.7437 92.775C79.1812 92.775 77.1312 94.7 76.6187 97.175C76.1062 99.65 77.1312 102.4 79.1812 103.775C82.2562 106.525 83.5375 126.05 82 145.025C81.7437 148.325 84.05 151.075 86.8687 151.35C87.125 151.35 87.125 151.35 87.3812 151.35C90.2 151.35 92.5062 149.15 92.7625 146.125C93.7875 134.025 94.5562 115.325 90.9687 103.5C105.831 100.2 120.181 89.475 124.025 70.775C128.125 50.15 123.769 38.6 117.619 29.8Z" />
</svg>
