<svg width="35" height="37" viewBox="0 0 35 37" fill="unherit" xmlns="http://www.w3.org/2000/svg">
<path d="M17.5 0.629028C7.83559 0.629028 0 8.62427 0 18.4856C0 28.348 7.83559 36.3421 17.5 36.3421C27.1644 36.3421 35 28.348 35 18.4856C34.9999 8.62427 27.1643 0.629028 17.5 0.629028ZM22.4021 32.0888C22.3014 30.6916 22.1888 28.9606 22.1822 28.2597C22.1385 27.7218 22.0815 26.3536 20.8085 25.4797C25.8627 25.0479 28.2678 22.1975 28.4407 18.4309C28.5851 16.2859 27.7494 14.3998 26.2653 12.8775C26.3407 11.2493 26.2171 9.3196 26.1144 8.47152C24.9747 8.13672 22.3169 9.56858 21.5742 10.1813C20.0079 9.56074 16.1743 9.34314 13.8447 10.1813C12.1931 8.99608 10.3129 8.26397 9.28812 8.46821C8.34199 10.6077 8.95016 12.6299 9.13494 12.8709C7.91645 14.0071 6.21679 15.4055 6.67838 18.335C7.41882 22.6306 10.3807 24.9476 15.1494 25.5144C14.1323 25.7265 13.9605 26.501 13.8752 26.8369C10.6726 28.1851 9.75728 26.0044 9.35252 25.4363C8.00836 23.7388 6.80188 24.231 6.72752 24.2578C6.65531 24.2845 6.60065 24.3916 6.60833 24.443C6.6761 24.809 7.40788 25.1807 7.44393 25.2108C8.43595 25.9652 8.80346 27.3279 9.02981 27.7163C10.4528 30.1035 13.7603 29.1136 13.792 29.1337C13.7942 29.3423 13.7691 31.0991 13.7494 32.4662C7.71857 30.7853 3.28122 25.1717 3.28122 18.4856C3.28122 10.4724 9.64687 3.97722 17.4999 3.97722C25.3529 3.97722 31.7187 10.4724 31.7187 18.4856C31.7187 24.7387 27.8359 30.0498 22.4021 32.0888Z" fill="inherit"/>
</svg>
