<svg width="120" height="121" viewBox="0 0 120 121" fill="none" xmlns="http://www.w3.org/2000/svg">
<path d="M98.88 16.9C85.7 0.240025 60 1.17003 60 1.17003C60 1.17003 34.3 0.240025 21.12 16.9C6.76999 35.06 1.20999 62.58 0.0499944 85.18C-0.0200056 86.61 0.779994 87.93 2.07999 88.52C4.77999 89.76 9.81999 91.49 15.81 90.75C17.01 90.6 18.01 89.77 18.43 88.63C20.02 84.22 25.23 73.31 31 64.17C31 64.17 28.84 82.85 22.6 99.28C22.02 100.8 23 102.51 24.48 103.2C29.51 105.57 44.16 110.38 60 110.38C75.84 110.38 90.5 105.57 95.52 103.2C96.99 102.5 97.98 100.8 97.4 99.28C91.17 82.85 89 64.17 89 64.17C94.77 73.31 99.97 84.22 101.57 88.63C101.98 89.77 102.99 90.6 104.19 90.75C110.19 91.49 115.22 89.76 117.92 88.52C119.22 87.92 120.03 86.6 119.95 85.18C118.79 62.58 113.23 35.06 98.88 16.9Z" fill="url(#paint0_linear_1_6)"/>
<path d="M88.89 64.18L88.77 41.58C88.76 40.1 90.48 39.28 91.62 40.22C92.02 40.55 92.26 41.04 92.26 41.56C92.27 45.27 92.41 60.86 94.06 73.05L88.89 64.18Z" fill="url(#paint1_linear_1_6)"/>
<path d="M30.99 64.18L31.11 41.58C31.12 40.1 29.4 39.28 28.26 40.22C27.86 40.55 27.62 41.04 27.62 41.56C27.61 45.27 27.47 60.86 25.82 73.05L30.99 64.18Z" fill="url(#paint2_linear_1_6)"/>
<g opacity="0.2">
<path d="M60.74 4.15997C64.79 4.15997 85.53 4.85997 96.52 18.76C103.31 27.36 115 47.44 116.95 85.33C116.96 85.53 116.85 85.71 116.66 85.79C114.54 86.76 111.17 87.92 107.1 87.92C106.25 87.92 105.39 87.87 104.55 87.76C104.5 87.75 104.42 87.69 104.39 87.59C102.79 83.16 97.59 72.14 91.54 62.55C90.98 61.66 90.01 61.15 89 61.15C88.67 61.15 88.33 61.21 88 61.32C86.68 61.79 85.86 63.1 86.02 64.49C86.11 65.27 88.29 83.64 94.54 100.19C94.49 100.27 94.38 100.4 94.24 100.46C88.59 103.13 74.29 107.35 60 107.35C45.71 107.35 31.41 103.12 25.76 100.46C25.62 100.39 25.51 100.27 25.46 100.19C31.72 83.64 33.89 65.27 33.98 64.49C34.14 63.1 33.32 61.78 32 61.32C31.67 61.2 31.34 61.15 31 61.15C29.99 61.15 29.02 61.66 28.46 62.55C22.4 72.14 17.21 83.16 15.61 87.59C15.57 87.69 15.5 87.75 15.45 87.76C14.61 87.86 13.76 87.92 12.9 87.92C8.82999 87.92 5.44999 86.76 3.33999 85.79C3.14999 85.7 3.03999 85.52 3.04999 85.33C4.99999 47.44 16.69 27.36 23.48 18.76C34.46 4.85997 55.21 4.15997 59.26 4.15997C59.65 4.15997 59.87 4.16997 59.9 4.16997C59.94 4.16997 59.97 4.16997 60.01 4.16997C60.05 4.16997 60.08 4.16997 60.12 4.16997C60.13 4.16997 60.35 4.15997 60.74 4.15997ZM60.74 1.15997C60.26 1.15997 60 1.16997 60 1.16997C60 1.16997 59.74 1.15997 59.26 1.15997C54.95 1.15997 32.97 1.90997 21.13 16.9C6.76999 35.06 1.20999 62.58 0.0499944 85.18C-0.0200056 86.61 0.779994 87.93 2.07999 88.52C4.32999 89.55 8.19999 90.93 12.9 90.93C13.84 90.93 14.81 90.88 15.81 90.75C17.01 90.6 18.01 89.77 18.43 88.63C20.02 84.22 25.23 73.31 31 64.17C31 64.17 28.84 82.85 22.6 99.28C22.02 100.8 23 102.51 24.48 103.2C29.51 105.57 44.16 110.38 60 110.38C75.84 110.38 90.5 105.57 95.52 103.2C96.99 102.5 97.98 100.8 97.4 99.28C91.17 82.85 89 64.17 89 64.17C94.77 73.31 99.97 84.22 101.57 88.63C101.98 89.77 102.99 90.6 104.19 90.75C105.19 90.87 106.16 90.93 107.1 90.93C111.8 90.93 115.67 89.56 117.92 88.52C119.22 87.92 120.03 86.6 119.95 85.18C118.79 62.58 113.23 35.06 98.87 16.9C87.03 1.91997 65.06 1.15997 60.74 1.15997Z" fill="#444444"/>
</g>
<path d="M46.08 4.28998H74.22L71.95 17.81L60 33.54L47.38 18.27L46.08 4.28998Z" fill="#989898"/>
<path d="M47.38 0C47.38 0 59.83 1.7 72.62 0V7.37C72.62 7.37 60.47 10.09 47.38 7.37V0Z" fill="#B2B2B2"/>
<path d="M47.38 0C47.38 0 43.21 0.87 39.43 2.69C39.43 2.69 38.44 23.52 55.53 39.58L63.14 32.09C55.57 25.18 48.92 14.96 47.38 0Z" fill="#C6C6C6"/>
<path d="M72.62 0C72.62 0 76.79 0.87 80.57 2.69C80.57 2.69 85.32 45.75 31.19 55.74L31.02 45.44C31.02 45.44 68.62 38.69 72.62 0Z" fill="#C6C6C6"/>
<path d="M55.67 75.88C55.13 75.66 54.51 75.73 54.05 76.08C51.54 77.99 50.51 80.27 49.77 83.36C48.96 86.74 48.89 90.23 48.36 93.65C47.47 99.32 45.27 104.81 41.95 109.65C41.5 110.31 41.72 111.18 42.45 111.58C44.54 112.7 45.62 113.26 47.96 113.82C48.59 113.97 49.25 113.7 49.59 113.19C52.39 109.04 54.92 103.58 55.41 98.65C56.59 86.77 57.14 84.11 59.95 80.47C60.36 79.94 60.51 79.17 60.26 78.54C60.12 78.18 59.82 77.9 59.51 77.65C58.6 76.87 56.82 76.36 55.67 75.88Z" fill="#444444"/>
<path d="M56.69 78.38C56.69 78.38 61.88 83.18 62.25 90.06C62.58 96.12 62.26 96.98 62.45 103.04C62.63 108.67 63.58 114.44 66.54 119.34C66.91 119.96 67.75 120.19 68.42 119.84C70.27 118.88 74.26 116.82 75.86 116.05C76.52 115.73 76.78 114.98 76.43 114.37C75.3 112.39 71.87 107.66 71.87 91.18C71.87 81.56 65.05 76.2 65.05 76.2L56.69 78.38Z" fill="#444444"/>
<path d="M65.37 81.42L58.64 83.14C56.1 83.79 53.52 82.26 52.87 79.72L51.52 74.42C50.87 71.88 52.4 69.3 54.94 68.65L61.67 66.93C64.21 66.28 66.79 67.81 67.44 70.35L68.79 75.65C69.43 78.19 67.9 80.78 65.37 81.42Z" fill="#444444"/>
<path d="M89.7 63.46C89.64 62.67 88.86 62.18 88.19 62.53C84.36 64.52 73.04 69.73 60.01 69.73C46.98 69.73 35.66 64.51 31.83 62.53C31.16 62.18 30.37 62.67 30.32 63.46L29.78 70.69C29.7 71.71 30.19 72.67 31.01 73.16C43.66 80.86 60.02 80.86 60.02 80.86C60.02 80.86 76.38 80.86 89.03 73.16C89.85 72.66 90.33 71.7 90.26 70.69L89.7 63.46Z" fill="#444444"/>
<g opacity="0.2">
<path d="M47.47 2.03C48.84 2.2 53.88 2.76 60.39 2.76C64.68 2.76 68.77 2.52 72.53 2.03C73.42 2.24 76.03 2.89 78.65 4.01C78.76 6.99 78.62 15.57 74.29 24.79C67.4 39.47 53.56 49.06 33.15 53.32L33.05 47.04C36.53 46.18 44.86 43.65 53.26 37.64C53.72 37.31 54.02 36.8 54.08 36.24C54.14 35.68 53.97 35.12 53.6 34.69C42.77 22.34 41.55 8.13 41.43 3.98C44.02 2.88 46.6 2.23 47.47 2.03ZM59.75 6.58C56.02 6.58 52.42 6.27 49.05 5.66C48.93 5.64 48.81 5.63 48.69 5.63C48.14 5.63 47.62 5.85 47.23 6.26C46.77 6.75 46.58 7.45 46.74 8.11C48.81 16.6 52.78 24.08 58.55 30.35C58.93 30.76 59.46 31 60.02 31C60.58 31 61.11 30.76 61.49 30.35C67.21 24.11 71.17 16.62 73.23 8.11C73.39 7.45 73.21 6.76 72.75 6.27C72.37 5.86 71.84 5.64 71.29 5.64C71.18 5.64 71.06 5.65 70.95 5.67C68.97 6 64.86 6.58 59.75 6.58ZM47.38 0C47.38 0 43.21 0.87 39.43 2.69C39.43 2.69 38.59 20.61 52.09 36.01C41.57 43.54 31.02 45.44 31.02 45.44L31.19 55.74C85.32 45.75 80.57 2.69 80.57 2.69C76.79 0.87 72.62 0 72.62 0C68.36 0.57 64.13 0.76 60.39 0.76C52.91 0.76 47.38 0 47.38 0ZM59.75 8.58C65.03 8.58 69.27 7.98 71.31 7.62C69.11 16.69 64.92 23.65 60.04 28.98C55.13 23.64 50.91 16.67 48.7 7.62C52.6 8.34 56.38 8.58 59.75 8.58Z" fill="#444444"/>
</g>
<path d="M55.67 75.88C55.13 75.66 54.51 75.73 54.05 76.08C51.54 77.99 50.51 80.27 49.77 83.36C48.96 86.74 48.89 90.23 48.36 93.65C47.47 99.32 45.27 104.81 41.95 109.65C41.5 110.31 41.72 111.18 42.45 111.58C44.54 112.7 45.62 113.26 47.96 113.82C48.59 113.97 49.25 113.7 49.59 113.19C52.39 109.04 54.92 103.58 55.41 98.65C56.59 86.77 57.14 84.11 59.95 80.47C60.36 79.94 60.51 79.17 60.26 78.54C60.12 78.18 59.82 77.9 59.51 77.65C58.6 76.87 56.82 76.36 55.67 75.88Z" fill="#444444"/>
<path d="M56.69 78.38C56.69 78.38 61.88 83.18 62.25 90.06C62.58 96.12 62.26 96.98 62.45 103.04C62.63 108.67 63.58 114.44 66.54 119.34C66.91 119.96 67.75 120.19 68.42 119.84C70.27 118.88 74.26 116.82 75.86 116.05C76.52 115.73 76.78 114.98 76.43 114.37C75.3 112.39 71.87 107.66 71.87 91.18C71.87 81.56 65.05 76.2 65.05 76.2L56.69 78.38Z" fill="#444444"/>
<path d="M89.7 63.46C89.64 62.67 88.86 62.18 88.19 62.53C84.36 64.52 73.04 69.73 60.01 69.73C46.98 69.73 35.66 64.51 31.83 62.53C31.16 62.18 30.37 62.67 30.32 63.46L29.78 70.69C29.7 71.71 30.19 72.67 31.01 73.16C43.66 80.86 60.02 80.86 60.02 80.86C60.02 80.86 76.38 80.86 89.03 73.16C89.85 72.66 90.33 71.7 90.26 70.69L89.7 63.46Z" fill="#444444"/>
<path d="M65.37 81.42L58.64 83.14C56.1 83.79 53.52 82.26 52.87 79.72L51.52 74.42C50.87 71.88 52.4 69.3 54.94 68.65L61.67 66.93C64.21 66.28 66.79 67.81 67.44 70.35L68.79 75.65C69.43 78.19 67.9 80.78 65.37 81.42Z" fill="#444444"/>
<g opacity="0.2">
<path d="M32.19 64.96C36.08 66.85 43.9 70.13 53.25 71.3C53.33 71.31 53.42 71.32 53.5 71.32C53.89 71.32 54.27 71.21 54.6 70.99C54.89 70.8 55.16 70.67 55.42 70.61L62.15 68.89C62.37 68.83 62.6 68.8 62.82 68.8C63.81 68.8 64.73 69.35 65.21 70.23C65.56 70.88 66.24 71.27 66.96 71.27C67.05 71.27 67.14 71.26 67.23 71.25C76.35 70.03 83.98 66.82 87.79 64.97L88.23 70.85C88.25 71.15 88.11 71.37 87.96 71.47C81.31 75.51 73.53 77.33 68.17 78.14C67.49 78.24 66.92 78.68 66.64 79.31C66.36 79.94 66.43 80.66 66.81 81.23C68.84 84.26 69.87 87.62 69.87 91.2C69.87 106.39 72.78 112.09 74.25 114.63C72.38 115.57 69.2 117.2 67.96 117.85C65.76 114 64.64 109.26 64.44 103C64.35 100.33 64.37 98.71 64.38 97.14C64.4 95.21 64.42 93.39 64.23 89.98C64.08 87.24 63.25 84.5 61.75 81.84C61.39 81.2 60.72 80.82 60.01 80.82C59.85 80.82 59.68 80.84 59.51 80.88L58.17 81.22L58.12 81.23C58.04 81.24 57.96 81.25 57.88 81.26C57.24 81.36 56.69 81.77 56.4 82.36C54.82 85.59 54.28 89.75 53.41 98.47C53.02 102.41 51.04 107.38 48.11 111.82C46.45 111.4 45.54 110.99 44.01 110.17C47.26 105.25 49.43 99.66 50.32 93.98C50.54 92.6 50.68 91.22 50.81 89.88C51.03 87.77 51.23 85.78 51.7 83.84C51.99 82.63 52.3 81.69 52.69 80.86C52.95 80.29 52.94 79.63 52.64 79.08C52.35 78.53 51.81 78.14 51.19 78.04C46.01 77.21 38.47 75.39 32.01 71.47C31.86 71.38 31.71 71.15 31.74 70.85L32.19 64.96ZM88.65 62.42C88.5 62.42 88.34 62.46 88.19 62.53C85.06 64.15 76.95 67.92 66.99 69.25C66.16 67.74 64.57 66.78 62.85 66.78C62.46 66.78 62.07 66.83 61.68 66.93L54.95 68.65C54.42 68.78 53.95 69.02 53.52 69.3C43.32 68.04 35 64.18 31.82 62.53C31.67 62.45 31.51 62.42 31.36 62.42C30.83 62.42 30.35 62.85 30.31 63.46L29.77 70.69C29.69 71.71 30.18 72.67 31 73.16C37.57 77.16 45.14 79.08 50.9 80C50.43 81.01 50.08 82.11 49.78 83.35C48.97 86.73 48.9 90.22 48.37 93.64C47.48 99.31 45.28 104.8 41.96 109.64C41.51 110.3 41.73 111.17 42.46 111.57C44.55 112.69 45.63 113.25 47.97 113.81C48.09 113.84 48.21 113.85 48.32 113.85C48.83 113.85 49.32 113.59 49.6 113.18C52.4 109.03 54.93 103.57 55.42 98.64C56.3 89.77 56.83 86.04 58.21 83.21C58.35 83.19 58.49 83.18 58.64 83.15L60.03 82.8C61.12 84.74 62.1 87.22 62.26 90.06C62.59 96.12 62.27 96.98 62.46 103.04C62.64 108.67 63.59 114.44 66.55 119.34C66.81 119.76 67.28 120 67.77 120C68 120 68.23 119.95 68.44 119.84C70.29 118.88 74.28 116.82 75.88 116.05C76.54 115.73 76.8 114.98 76.45 114.37C75.32 112.39 71.89 107.66 71.89 91.18C71.89 86.38 70.19 82.64 68.49 80.1C74.32 79.22 82.21 77.31 89.02 73.16C89.84 72.66 90.32 71.7 90.25 70.69L89.71 63.46C89.65 62.85 89.17 62.42 88.65 62.42Z" fill="#EEEEEE"/>
</g>
<defs>
<linearGradient id="paint0_linear_1_6" x1="60" y1="2.08772" x2="60" y2="88.6365" gradientUnits="userSpaceOnUse">
<stop offset="0.284" stop-color="#F5F5F5"/>
<stop offset="0.8416" stop-color="#E0E0E0"/>
</linearGradient>
<linearGradient id="paint1_linear_1_6" x1="91.4097" y1="31.6791" x2="91.4097" y2="71.0139" gradientUnits="userSpaceOnUse">
<stop offset="0.2817" stop-color="#E0E0E0"/>
<stop offset="0.8361" stop-color="#9E9E9E"/>
</linearGradient>
<linearGradient id="paint2_linear_1_6" x1="28.4718" y1="31.6791" x2="28.4718" y2="71.0139" gradientUnits="userSpaceOnUse">
<stop offset="0.2817" stop-color="#E0E0E0"/>
<stop offset="0.8361" stop-color="#9E9E9E"/>
</linearGradient>
</defs>
</svg>
