<svg width="128" height="128" viewBox="0 0 128 128" fill="none" xmlns="http://www.w3.org/2000/svg">
<g clip-path="url(#clip0_1_157)">
<path d="M98.2354 90.4578L90.1886 98.5046L106.615 114.931L114.661 106.884L98.2354 90.4578Z" fill="#6D4C41"/>
<g opacity="0.2">
<path d="M98.24 94.7L110.43 106.89L106.63 110.69L94.43 98.51L98.24 94.7ZM98.24 90.46L90.19 98.51L106.62 114.94L114.67 106.89L98.24 90.46Z" fill="#424242"/>
</g>
<path d="M4.00001 7.01999L13.85 29.98C13.97 30.26 14.15 30.51 14.37 30.71L86.45 94.78L94.5 86.73L30.4 14.69C30.2 14.46 29.95 14.29 29.67 14.17L6.71001 4.31999C5.00001 3.57999 3.27001 5.30999 4.00001 7.01999Z" fill="url(#paint0_linear_1_157)"/>
<g opacity="0.2">
<path d="M7.69001 8.00001L28.3 16.84L90.39 86.61L86.34 90.66L16.53 28.61L7.69001 8.00001ZM5.89001 4.14001C4.50001 4.14001 3.39001 5.59001 4.00001 7.02001L13.85 29.98C13.97 30.26 14.15 30.51 14.37 30.71L86.45 94.78L94.5 86.73L30.4 14.69C30.2 14.46 29.95 14.29 29.67 14.17L6.71001 4.32001C6.43001 4.20001 6.15001 4.14001 5.89001 4.14001Z" fill="#424242"/>
</g>
<path d="M108.44 84.57L84.3 108.71C82.09 110.92 78.47 110.92 76.25 108.71C74.04 106.5 74.04 102.88 76.25 100.66L100.39 76.52C102.6 74.31 106.22 74.31 108.44 76.52C110.66 78.74 110.66 82.36 108.44 84.57Z" fill="#FFB300"/>
<g opacity="0.2">
<path d="M104.42 77.87C105.14 77.87 105.82 78.15 106.32 78.65C107.37 79.7 107.37 81.41 106.32 82.45L82.18 106.59C81.68 107.09 81 107.37 80.28 107.37C79.56 107.37 78.88 107.09 78.38 106.59C77.33 105.54 77.33 103.83 78.38 102.79L102.52 78.65C103.02 78.14 103.7 77.87 104.42 77.87ZM104.42 74.87C102.96 74.87 101.5 75.42 100.4 76.53L76.26 100.67C74.05 102.88 74.05 106.5 76.26 108.72C77.37 109.83 78.82 110.38 80.28 110.38C81.74 110.38 83.2 109.83 84.3 108.72L108.44 84.58C110.65 82.37 110.65 78.75 108.44 76.53C107.34 75.42 105.88 74.87 104.42 74.87Z" fill="#424242"/>
</g>
<path d="M121.016 120.95C124.628 117.338 124.628 111.481 121.016 107.869C117.403 104.256 111.547 104.256 107.934 107.869C104.322 111.481 104.322 117.338 107.934 120.95C111.547 124.562 117.403 124.562 121.016 120.95Z" fill="#FFB300"/>
<g opacity="0.2">
<path d="M114.48 108.17C116.15 108.17 117.72 108.82 118.9 110C121.34 112.44 121.34 116.4 118.9 118.83C117.72 120.01 116.15 120.66 114.48 120.66C112.81 120.66 111.24 120.01 110.06 118.83C107.62 116.39 107.62 112.43 110.06 110C111.24 108.82 112.81 108.17 114.48 108.17ZM114.48 105.17C112.11 105.17 109.75 106.07 107.94 107.88C104.33 111.49 104.33 117.35 107.94 120.96C109.75 122.77 112.11 123.67 114.48 123.67C116.85 123.67 119.21 122.77 121.02 120.96C124.63 117.35 124.63 111.49 121.02 107.88C119.21 106.07 116.84 105.17 114.48 105.17Z" fill="#424242"/>
</g>
<path d="M37.6658 98.8136L29.619 90.7668L13.1931 107.193L21.2399 115.24L37.6658 98.8136Z" fill="#6D4C41"/>
<g opacity="0.2">
<path d="M29.62 95.01L33.42 98.81L21.24 111L17.44 107.2L29.62 95.01ZM29.62 90.77L13.19 107.2L21.24 115.25L37.67 98.82L29.62 90.77Z" fill="#424242"/>
</g>
<path d="M121.11 4.58003L98.15 14.43C97.87 14.55 97.62 14.73 97.42 14.95L33.35 87.04L41.4 95.09L113.44 30.98C113.67 30.78 113.84 30.53 113.96 30.25L123.81 7.29003C124.55 5.58003 122.82 3.84003 121.11 4.58003Z" fill="url(#paint1_linear_1_157)"/>
<g opacity="0.2">
<path d="M120.13 8.26003L111.29 28.87L41.52 90.96L37.47 86.91L99.52 17.1L120.13 8.26003ZM121.93 4.41003C121.66 4.41003 121.38 4.46003 121.11 4.58003L98.15 14.43C97.87 14.55 97.62 14.73 97.42 14.95L33.35 87.04L41.4 95.09L113.44 30.98C113.67 30.78 113.84 30.53 113.96 30.25L123.81 7.29003C124.43 5.85003 123.31 4.41003 121.93 4.41003Z" fill="#424242"/>
</g>
<path d="M43.56 109.02L19.42 84.88C17.21 82.67 17.21 79.05 19.42 76.83C21.63 74.62 25.25 74.62 27.47 76.83L51.61 100.97C53.82 103.18 53.82 106.8 51.61 109.02C49.39 111.23 45.77 111.23 43.56 109.02Z" fill="#FFB300"/>
<g opacity="0.2">
<path d="M23.44 78.17C24.16 78.17 24.84 78.45 25.34 78.95L49.48 103.09C50.53 104.14 50.53 105.85 49.48 106.89C48.98 107.39 48.3 107.67 47.58 107.67C46.86 107.67 46.18 107.39 45.68 106.89L21.54 82.76C20.49 81.71 20.49 80 21.54 78.96C22.04 78.45 22.72 78.17 23.44 78.17ZM23.44 75.17C21.98 75.17 20.52 75.72 19.42 76.83C17.21 79.04 17.21 82.66 19.42 84.88L43.56 109.02C44.67 110.13 46.12 110.68 47.58 110.68C49.04 110.68 50.5 110.13 51.6 109.02C53.81 106.81 53.81 103.19 51.6 100.97L27.46 76.83C26.36 75.72 24.9 75.17 23.44 75.17Z" fill="#424242"/>
</g>
<path d="M20.2561 121.588C23.8684 117.976 23.8684 112.119 20.2561 108.507C16.6437 104.894 10.787 104.894 7.17471 108.507C3.56239 112.119 3.56239 117.976 7.17471 121.588C10.787 125.2 16.6437 125.2 20.2561 121.588Z" fill="#FFB300"/>
<g opacity="0.2">
<path d="M13.72 108.81C15.39 108.81 16.96 109.46 18.14 110.64C20.58 113.08 20.58 117.04 18.14 119.47C16.96 120.65 15.39 121.3 13.72 121.3C12.05 121.3 10.48 120.65 9.30002 119.47C6.86002 117.03 6.86002 113.07 9.30002 110.64C10.48 109.46 12.05 108.81 13.72 108.81ZM13.72 105.81C11.35 105.81 8.99002 106.71 7.18002 108.52C3.57002 112.13 3.57002 117.99 7.18002 121.6C8.99002 123.41 11.35 124.31 13.72 124.31C16.09 124.31 18.45 123.41 20.26 121.6C23.87 117.99 23.87 112.13 20.26 108.52C18.45 106.71 16.08 105.81 13.72 105.81Z" fill="#424242"/>
</g>
</g>
<defs>
<linearGradient id="paint0_linear_1_157" x1="36.2627" y1="58.9533" x2="59.0206" y2="36.1953" gradientUnits="userSpaceOnUse">
<stop stop-color="#BDBDBD"/>
<stop offset="1" stop-color="#EEEEEE"/>
</linearGradient>
<linearGradient id="paint1_linear_1_157" x1="69.1763" y1="36.8388" x2="91.9344" y2="59.5968" gradientUnits="userSpaceOnUse">
<stop stop-color="#EEEEEE"/>
<stop offset="1" stop-color="#BDBDBD"/>
</linearGradient>
<clipPath id="clip0_1_157">
<rect width="128" height="128" fill="white"/>
</clipPath>
</defs>
</svg>
