<svg width="766" height="765" viewBox="0 0 766 765" fill="none" xmlns="http://www.w3.org/2000/svg">
<path d="M382.812 147.656C251.719 147.656 145 254.375 145 385.469C145 516.563 251.719 623.281 382.812 623.281C513.906 623.281 620.625 516.563 620.625 385.469C620.625 254.219 513.906 147.656 382.812 147.656ZM382.812 559.375C286.875 559.375 208.75 481.25 208.75 385.313C208.75 289.375 286.875 211.25 382.812 211.25C478.75 211.25 556.875 289.375 556.875 385.313C556.875 481.25 478.75 559.375 382.812 559.375Z" fill="#F9F9F9"/>
<path d="M382.812 559.375C286.875 559.375 208.75 481.25 208.75 385.313C208.75 289.375 286.875 211.25 382.812 211.25C478.75 211.25 556.875 289.375 556.875 385.313C556.875 481.25 478.75 559.375 382.812 559.375Z" fill="#F8C768"/>
<path d="M382.812 99.6875C400.469 99.6875 414.687 85.4688 414.687 67.8125V31.875C414.687 14.2187 400.469 0 382.812 0C365.156 0 350.938 14.2187 350.938 31.875V67.8125C350.938 85.4688 365.156 99.6875 382.812 99.6875Z" fill="#F9F9F9"/>
<path d="M382.812 665.938C365.156 665.938 350.938 680.156 350.938 697.812V733.594C350.938 751.25 365.156 765.469 382.812 765.469C400.469 765.469 414.687 751.25 414.687 733.594V697.812C414.687 680.312 400.469 665.938 382.812 665.938Z" fill="#F9F9F9"/>
<path d="M733.75 350.938H697.812C680.156 350.938 665.938 365.156 665.938 382.812C665.938 400.469 680.156 414.687 697.812 414.687H733.75C751.406 414.687 765.625 400.469 765.625 382.812C765.625 365.156 751.406 350.938 733.75 350.938Z" fill="#F9F9F9"/>
<path d="M67.8125 350.938H31.875C14.2187 350.938 0 365.156 0 382.812C0 400.469 14.2187 414.687 31.875 414.687H67.6562C85.3125 414.687 99.5312 400.469 99.5312 382.812C99.6875 365.156 85.3125 350.938 67.8125 350.938Z" fill="#F9F9F9"/>
<path d="M608.437 112.188L582.969 137.5C570.469 150 570.469 170.156 582.969 182.656C595.469 195.156 615.625 195.156 628.125 182.656L653.438 157.344C665.938 144.844 665.938 124.688 653.438 112.188C640.938 99.6875 620.781 99.6875 608.437 112.188Z" fill="#F9F9F9"/>
<path d="M137.5 582.969L112.188 608.281C99.6875 620.781 99.6875 640.938 112.188 653.438C124.688 665.938 144.844 665.938 157.344 653.438L182.656 628.125C195.156 615.625 195.156 595.469 182.656 582.969C170.156 570.469 150 570.625 137.5 582.969Z" fill="#F9F9F9"/>
<path d="M628.125 582.969C615.625 570.469 595.469 570.469 582.969 582.969C570.469 595.469 570.469 615.625 582.969 628.125L608.281 653.438C620.781 665.938 640.938 665.938 653.438 653.438C665.938 640.938 665.938 620.781 653.438 608.281L628.125 582.969Z" fill="#F9F9F9"/>
<path d="M137.5 182.656C150 195.156 170.156 195.156 182.656 182.656C195.156 170.156 195.156 150 182.656 137.5L157.344 112.188C144.844 99.6875 124.688 99.6875 112.188 112.188C99.6875 124.688 99.6875 144.844 112.188 157.344L137.5 182.656Z" fill="#F9F9F9"/>
</svg>
