<svg width="94" height="94" viewBox="0 0 94 94" fill="none" xmlns="http://www.w3.org/2000/svg">
<path d="M47.045 92.0901C71.9225 92.0901 92.0901 71.9225 92.0901 47.045C92.0901 22.1667 71.9225 2 47.045 2C22.1676 2 2 22.1667 2 47.045C2 71.9225 22.1676 92.0901 47.045 92.0901Z" fill="url(#paint0_radial_966_638)"/>
<path d="M47.0423 90.2875C70.4272 90.2875 89.3847 71.1385 89.3847 47.5175C89.3847 23.8956 70.4272 4.74744 47.0423 4.74744C23.6575 4.74744 4.7 23.8956 4.7 47.5175C4.7 71.1385 23.6575 90.2875 47.0423 90.2875Z" fill="url(#paint1_radial_966_638)"/>
<mask id="mask0_966_638" style="mask-type:alpha" maskUnits="userSpaceOnUse" x="4" y="5" width="86" height="85">
<path d="M47 89.7599C70.3848 89.7599 89.3423 70.8024 89.3423 47.4175C89.3423 24.0319 70.3848 5.0752 47 5.0752C23.6152 5.0752 4.65766 24.0319 4.65766 47.4175C4.65766 70.8024 23.6152 89.7599 47 89.7599Z" fill="url(#paint2_radial_966_638)"/>
</mask>
<g mask="url(#mask0_966_638)">
<path d="M68.764 11.6611C72.1378 17.7965 74.0568 24.833 74.0568 32.3225C74.0568 56.1172 54.6978 75.4016 30.8108 75.4016C24.1444 75.4016 17.8312 73.901 12.187 71.2148C19.7646 82.4016 32.6044 89.7599 47.1711 89.7599C70.4627 89.7599 89.344 70.9514 89.344 47.7495C89.3364 32.4182 81.083 18.9974 68.7648 11.662L68.764 11.6611Z" fill="url(#paint3_radial_966_638)" fill-opacity="0.2"/>
<path d="M70.8906 43.395C70.6079 37.2859 69.3604 25.607 65.6384 24.1671C61.9544 22.7428 60.2719 25.9153 60.2719 25.9153C60.2719 25.9153 59.3584 16.0103 54.5629 14.5532C48.6351 12.7534 46.8261 19.3602 46.8261 19.3602C46.8261 19.3602 45.0171 12.7534 39.0896 14.5532C34.2939 16.0103 33.3805 25.9153 33.3805 25.9153C33.3805 25.9153 31.6981 22.7428 28.014 24.1671C24.292 25.607 23.0445 37.2859 22.7618 43.395C22.4502 50.124 21.62 131.648 21.62 131.648H73.32C73.32 131.648 71.2021 50.124 70.8906 43.395Z" fill="#2D2B2C"/>
<path d="M47.6743 39.1563C40.0488 39.1563 33.0252 46.5794 37.0386 51.6998C41.0522 56.8202 43.4193 50.1635 47.875 50.1635C52.0892 50.1635 54.2965 55.5388 57.9087 52.468C61.5207 49.3954 56.3033 39.1563 47.6743 39.1563Z" fill="#FFC0C0"/>
<path d="M29.0527 28.4829C26.9863 28.7188 26.4672 31.5555 26.7258 34.4352C26.9842 37.3149 28.277 39.2352 29.6991 39.0423C31.121 38.8512 32.2847 36.1627 32.1553 33.0918C32.026 30.0192 30.7331 28.2917 29.0527 28.4829Z" fill="#FFC0C0"/>
<path d="M40.9863 29.1241C42.4085 28.9312 43.5719 26.2444 43.4425 23.1718C43.3133 20.1009 42.0206 18.3718 40.34 18.5647C38.2737 18.8006 37.7545 21.6355 38.013 24.5169C38.2715 27.3966 39.5644 29.3153 40.9863 29.1241Z" fill="#FFC0C0"/>
<path d="M53.4777 29.1241C54.8996 28.9312 56.0631 26.2444 55.9339 23.1718C55.8047 20.1009 54.5118 18.3718 52.8312 18.5647C50.7649 18.8006 50.2457 21.6355 50.5042 24.5169C50.7629 27.3966 52.0556 29.3153 53.4777 29.1241Z" fill="#FFC0C0"/>
<path d="M66.6191 33.0918C66.4899 30.0192 65.1972 28.2917 63.5166 28.4829C61.4502 28.7188 60.931 31.5555 61.1895 34.4352C61.4481 37.3149 62.7409 39.2352 64.163 39.0423C65.585 38.8512 66.7484 36.1627 66.6191 33.0918Z" fill="#FFC0C0"/>
<path d="M34.5925 87.0382C41.1586 84.3807 42.6136 77.3847 38.463 70.0787C33.294 60.9781 22.3701 66.114 22.3701 66.114C22.2753 73.6473 22.1799 81.7714 22.0924 89.4891C25.9294 89.527 31.3237 88.3627 34.5925 87.0382Z" fill="#AAA897"/>
<path d="M71.7126 71.4703C65.6149 69.5292 56.431 77.7963 63.136 84.8491C65.6042 87.4464 68.9168 89.9782 72.2299 90.4191C72.0518 83.8089 71.8744 77.2951 71.7126 71.4703Z" fill="#AAA897"/>
<path d="M39.2949 49.8225C39.1008 49.8225 38.9182 49.7278 38.7483 49.5108C37.5522 47.9848 39.0358 44.647 42.6351 42.6457C44.2791 41.7311 45.9409 41.316 47.2811 41.316C49.1097 41.316 50.3399 42.0876 50.1099 43.4069C49.871 44.7779 46.3226 45.0603 44.13 45.6959C42.1231 46.278 40.4854 49.8225 39.2949 49.8225Z" fill="#FFD9D9"/>
<path d="M28.6486 35.5862C28.6216 35.5862 28.5936 35.5827 28.5647 35.5776C27.8671 35.4501 27.8345 34.0671 27.885 33.1095C27.9445 31.9814 28.1346 30.3108 29.0296 30.3108C29.0463 30.3108 29.0636 30.3108 29.0809 30.3125C29.8477 30.3659 29.7786 32.474 29.5792 33.3644C29.3882 34.2169 29.2723 35.5862 28.6486 35.5862Z" fill="#FFD9D9"/>
<path d="M39.9604 25.0969C39.9335 25.0969 39.9054 25.0935 39.8765 25.0883C39.1789 24.9609 39.1461 23.5779 39.1968 22.6203C39.2562 21.4921 39.4465 19.8215 40.3414 19.8215C40.3581 19.8215 40.3754 19.8215 40.3927 19.8232C41.1595 19.8766 41.0903 21.9847 40.8909 22.8752C40.7 23.7277 40.584 25.0969 39.9604 25.0969Z" fill="#FFD9D9"/>
<path d="M52.5179 25.2869C52.4909 25.2869 52.4629 25.2851 52.434 25.28C51.7365 25.1525 51.7038 23.7695 51.7543 22.8119C51.8138 21.6838 52.004 20.0132 52.8988 20.0132C52.9156 20.0132 52.9329 20.0132 52.9502 20.0149C53.7171 20.0683 53.6479 22.1764 53.4485 23.0651C53.2575 23.9194 53.1416 25.2869 52.5179 25.2869Z" fill="#FFD9D9"/>
<path d="M63.5306 35.3311C63.5036 35.3311 63.4756 35.3293 63.4468 35.3242C62.7492 35.1967 62.7165 33.812 62.767 32.8544C62.8265 31.728 63.0167 30.0556 63.9117 30.0556C63.9285 30.0556 63.9456 30.0574 63.963 30.0574C64.7297 30.1107 64.6606 32.2188 64.4612 33.1093C64.2702 33.9618 64.1543 35.3311 63.5306 35.3311Z" fill="#FFD9D9"/>
</g>
<defs>
<radialGradient id="paint0_radial_966_638" cx="0" cy="0" r="1" gradientUnits="userSpaceOnUse" gradientTransform="translate(47.045 28.026) rotate(50.906) scale(61.9085 64.5149)">
<stop stop-color="#B5EDFF"/>
<stop offset="1" stop-color="#A38CD5"/>
</radialGradient>
<radialGradient id="paint1_radial_966_638" cx="0" cy="0" r="1" gradientUnits="userSpaceOnUse" gradientTransform="translate(47.0423 29.459) rotate(51.1875) scale(58.5487 60.8854)">
<stop stop-color="#B5EDFF"/>
<stop offset="1" stop-color="#A38CD5"/>
</radialGradient>
<radialGradient id="paint2_radial_966_638" cx="0" cy="0" r="1" gradientUnits="userSpaceOnUse" gradientTransform="translate(47 29.5396) rotate(50.906) scale(58.194 60.644)">
<stop stop-color="#B5EDFF"/>
<stop offset="1" stop-color="#A38CD5"/>
</radialGradient>
<radialGradient id="paint3_radial_966_638" cx="0" cy="0" r="1" gradientUnits="userSpaceOnUse" gradientTransform="translate(50.765 50.7106) rotate(58.644) scale(73.9017 86.6011)">
<stop stop-color="white"/>
<stop offset="1" stop-color="white" stop-opacity="0"/>
</radialGradient>
</defs>
</svg>
