<svg width="40" height="40" viewBox="0 0 40 40" fill="black" xmlns="http://www.w3.org/2000/svg">
<path d="M21.55 39.15C21.175 39.15 20.775 39 20.5 38.7L13.55 31.75C13.275 32.175 13.15 32.725 12.975 33.525C12.75 34.625 12.475 35.975 11.35 37.1C9.15 39.3 5 39.3 2.8 37.1C0.6 34.9 0.6 30.75 2.8 28.55C3.925 27.425 5.3 27.1501 6.375 26.9251C7.15 26.7751 7.725 26.65 8.15 26.35L1.2 19.4C0.9 19.125 0.75 18.75 0.75 18.35C0.75 17.95 0.9 17.575 1.2 17.3L7.65 10.875C8.225 10.3 9.175 10.3 9.775 10.875L10.575 11.675C11.7 12.8 11.975 14.175 12.2 15.25C12.375 16.2 12.5 16.825 12.975 17.275C14 18.3 16.275 18.3 17.3 17.275C18.325 16.25 18.325 14 17.3 12.95C16.825 12.5 16.2 12.375 15.225 12.175C14.125 11.95 12.775 11.675 11.65 10.55L10.85 9.75005C10.575 9.47505 10.4 9.07505 10.4 8.67505C10.4 8.27505 10.55 7.90005 10.85 7.62505L17.3 1.20005C17.875 0.625049 18.825 0.625049 19.425 1.20005L26.375 8.15005C26.65 7.72505 26.775 7.17505 26.95 6.37505C27.175 5.27505 27.45 3.92505 28.575 2.80005C30.775 0.600049 34.925 0.600049 37.125 2.80005C39.325 5.00005 39.325 9.15005 37.125 11.35C36 12.475 34.625 12.75 33.55 12.975C32.775 13.125 32.2 13.25 31.775 13.55L38.725 20.5C39 20.775 39.175 21.175 39.175 21.55C39.175 21.925 39.025 22.325 38.725 22.6L32.275 29.025C31.7 29.6 30.75 29.6 30.15 29.025L29.35 28.225C28.225 27.1 27.95 25.725 27.725 24.65C27.525 23.675 27.4 23.05 26.925 22.6C25.9 21.575 23.625 21.575 22.6 22.6C21.575 23.625 21.575 25.8751 22.6 26.9251C23.05 27.3751 23.675 27.525 24.65 27.725C25.75 27.95 27.1 28.225 28.225 29.35L29.025 30.1501C29.3 30.4251 29.475 30.825 29.475 31.2C29.475 31.6 29.325 31.975 29.025 32.275L22.575 38.7C22.325 39 21.95 39.15 21.55 39.15ZM4.375 18.35L11.35 25.3251C11.925 25.9001 11.925 26.85 11.35 27.45L10.55 28.25C9.425 29.375 8.05 29.65 6.975 29.875C6 30.075 5.375 30.2001 4.925 30.6751C4.45 31.1501 4.15 31.9501 4.15 32.8251C4.15 33.7001 4.425 34.5 4.925 34.975C5.95 36 8.225 36 9.25 34.975C9.7 34.525 9.85 33.9 10.05 32.925C10.275 31.825 10.55 30.475 11.675 29.35L12.475 28.55C13.05 27.975 14 27.975 14.6 28.55L21.575 35.5251L25.875 31.225C25.45 30.95 24.9 30.825 24.1 30.65C23 30.425 21.65 30.15 20.525 29.025C19.475 27.975 18.875 26.425 18.875 24.75C18.875 23.075 19.475 21.525 20.525 20.475C22.725 18.275 26.875 18.275 29.075 20.475C30.2 21.6 30.475 22.975 30.7 24.05C30.85 24.825 30.975 25.4 31.275 25.825L35.575 21.525L28.6 14.55C28.025 13.975 28.025 13.025 28.6 12.425L29.4 11.625C30.525 10.5 31.9 10.225 32.975 10C33.95 9.80005 34.575 9.67505 35.025 9.20005C35.5 8.72505 35.8 7.90005 35.8 7.05005C35.8 6.20005 35.525 5.37505 35.025 4.90005C34.075 3.92505 31.675 3.92505 30.7 4.90005C30.25 5.35005 30.1 5.97505 29.9 6.95005C29.675 8.05005 29.4 9.40005 28.275 10.525L27.475 11.325C26.9 11.9 25.95 11.9 25.35 11.325L18.35 4.37505L14.05 8.65005C14.475 8.92505 15.025 9.05005 15.825 9.22505C16.925 9.45005 18.275 9.72505 19.4 10.85C20.45 11.9 21.05 13.45 21.05 15.125C21.05 16.8 20.45 18.35 19.4 19.4C17.3 21.5 12.925 21.5 10.85 19.4C9.725 18.275 9.45 16.9 9.225 15.825C9.075 15.025 8.95 14.475 8.675 14.05L4.375 18.35Z"/>
</svg>
