<svg width="120" height="120" viewBox="0 0 120 120" fill="none" xmlns="http://www.w3.org/2000/svg">
<path d="M63.75 60C63.75 28.875 62.0625 3.75 60 3.75C28.875 3.75 3.75 28.875 3.75 60C3.75 91.125 28.875 116.25 60 116.25C62.0625 116.25 63.75 91.125 63.75 60Z" fill="#FFE8A6"/>
<path d="M60 3.75C62.0625 3.75 63.75 28.875 63.75 60C63.75 91.125 62.0625 116.25 60 116.25C91.125 116.25 116.25 91.125 116.25 60C116.25 28.875 91.125 3.75 60 3.75Z" fill="#3E4347"/>
<path d="M45.375 76.875H44.625C45 75.75 45.375 74.4375 45.375 73.125C45.375 66.9375 40.3125 61.875 34.125 61.875C27.9375 61.875 22.875 66.9375 22.875 73.125C22.875 78.5625 26.625 82.875 31.6875 84C29.8125 86.8125 28.6875 90 28.6875 93.75C28.6875 103.125 36.1875 110.625 45.5625 110.625C54.9375 110.625 62.4375 103.125 62.4375 93.75C62.25 84.5625 54.5625 76.875 45.375 76.875Z" fill="#F4DC9F"/>
<path d="M45 39.75C49.125 39.75 52.5 36.375 52.5 32.25C52.5 31.125 52.125 30 51.75 28.875C52.6875 29.25 53.625 29.4375 54.75 29.4375C58.3125 29.4375 61.5 27.375 63 24.375C62.8125 20.625 62.625 17.25 62.25 14.4375C60.5625 12.1875 57.75 10.5 54.75 10.5C49.5 10.5 45.375 14.625 45.375 19.875C45.375 21.75 45.9375 23.4375 46.875 24.75C46.3125 24.5625 45.75 24.5625 45.1875 24.5625C41.0625 24.5625 37.6875 27.9375 37.6875 32.0625C37.6875 36.1875 40.875 39.75 45 39.75Z" fill="#F4DC9F"/>
<path d="M63.5625 38.8125C63.5625 35.8125 63.375 32.8125 63.1875 30C62.4375 31.125 61.875 32.625 61.875 34.125C61.875 36 62.4375 37.5 63.5625 38.8125Z" fill="#F4DC9F"/>
<path d="M22.6875 56.0625C26.8296 56.0625 30.1875 52.7046 30.1875 48.5625C30.1875 44.4204 26.8296 41.0625 22.6875 41.0625C18.5454 41.0625 15.1875 44.4204 15.1875 48.5625C15.1875 52.7046 18.5454 56.0625 22.6875 56.0625Z" fill="#F4DC9F"/>
<path d="M15.1875 76.875C17.2586 76.875 18.9375 75.1961 18.9375 73.125C18.9375 71.0539 17.2586 69.375 15.1875 69.375C13.1164 69.375 11.4375 71.0539 11.4375 73.125C11.4375 75.1961 13.1164 76.875 15.1875 76.875Z" fill="#F4DC9F"/>
<path d="M46.875 61.6875C49.9816 61.6875 52.5 59.1691 52.5 56.0625C52.5 52.9559 49.9816 50.4375 46.875 50.4375C43.7684 50.4375 41.25 52.9559 41.25 56.0625C41.25 59.1691 43.7684 61.6875 46.875 61.6875Z" fill="#F4DC9F"/>
<path d="M28.125 33.1875C30.1961 33.1875 31.875 31.5086 31.875 29.4375C31.875 27.3664 30.1961 25.6875 28.125 25.6875C26.0539 25.6875 24.375 27.3664 24.375 29.4375C24.375 31.5086 26.0539 33.1875 28.125 33.1875Z" fill="#F4DC9F"/>
<path d="M93.75 79.125C100.999 79.125 106.875 73.2487 106.875 66C106.875 58.7513 100.999 52.875 93.75 52.875C86.5013 52.875 80.625 58.7513 80.625 66C80.625 73.2487 86.5013 79.125 93.75 79.125Z" fill="#464D51"/>
<path d="M69.375 26.625C66.75 26.625 64.5 27.9375 63.1875 30C63.375 32.8125 63.375 35.625 63.5625 38.8125C64.875 40.5 67.125 41.8125 69.375 41.8125C73.5 41.8125 76.875 38.4375 76.875 34.3125C76.875 30.1875 73.5 26.625 69.375 26.625Z" fill="#464D51"/>
<path d="M73.125 21C75.1961 21 76.875 19.3211 76.875 17.25C76.875 15.1789 75.1961 13.5 73.125 13.5C71.0539 13.5 69.375 15.1789 69.375 17.25C69.375 19.3211 71.0539 21 73.125 21Z" fill="#464D51"/>
<path d="M97.5 97.5C99.5711 97.5 101.25 95.8211 101.25 93.75C101.25 91.6789 99.5711 90 97.5 90C95.4289 90 93.75 91.6789 93.75 93.75C93.75 95.8211 95.4289 97.5 97.5 97.5Z" fill="#464D51"/>
<path d="M86.25 106.125C90.3921 106.125 93.75 102.767 93.75 98.625C93.75 94.4829 90.3921 91.125 86.25 91.125C82.1079 91.125 78.75 94.4829 78.75 98.625C78.75 102.767 82.1079 106.125 86.25 106.125Z" fill="#464D51"/>
<path d="M62.25 14.625C62.4375 17.4375 62.8125 20.8125 63 24.5625C63.75 23.25 64.125 21.75 64.125 20.25C64.125 18 63.375 16.125 62.25 14.625Z" fill="#464D51"/>
</svg>
