<svg xmlns="http://www.w3.org/2000/svg" viewBox="0 0 36 36"><defs><style>.cls-1{fill:#f2f2f2;}.cls-2{fill:#e2e2e2;}.cls-3{fill:#ffabb5;}.cls-4{fill:#ff96ac;}.cls-5{fill:#fff;}.cls-6{fill:#460d0d;}.cls-7{fill:#fa688e;}</style></defs><g id="Слой_2" data-name="Слой 2"><g id="Слой_1-2" data-name="Слой 1"><circle class="cls-1" cx="18" cy="18" r="18"/><circle class="cls-2" cx="18" cy="18" r="15.38"/><path class="cls-3" d="M31.48,18.66a3.59,3.59,0,0,0-1.45-2,3.74,3.74,0,0,0-2.2-.65,0,0,0,0,1,0-.06,2.16,2.16,0,0,0,.55-1.25A3.18,3.18,0,0,0,28,12.88,3.57,3.57,0,0,0,24.83,11a2.31,2.31,0,0,0-1.17.29,0,0,0,0,1-.05,0,2.14,2.14,0,0,0-.08-1,2.77,2.77,0,0,0-1.19-1.56,2.89,2.89,0,0,0-3.63.42,2.27,2.27,0,0,0-.51.94h0s-.05,0-.07,0A3,3,0,0,0,15.7,8.56a2.66,2.66,0,0,0-2.52,1.21,2.64,2.64,0,0,0-.18.38c0,.1-.07.21-.1.31a3.28,3.28,0,0,0-.08.88s0,0,0,0a3.5,3.5,0,0,0-2.45,0,3.8,3.8,0,0,0-2,5.31,2.53,2.53,0,0,0-1.47.2,2.09,2.09,0,0,0-.43.25l-.31.25a3.51,3.51,0,0,0-.93,1.27,3.46,3.46,0,0,0,1.12,4,2.85,2.85,0,0,0,2.79.31,0,0,0,0,1,.05,0c.19,1.39,1.93,2.23,3.21,2a2.51,2.51,0,0,0,1-.39s0,0,.05,0a2.2,2.2,0,0,0,1.74,1.3,3.89,3.89,0,0,0,2.29-.15,1.48,1.48,0,0,0,.68-.58s0,0,.06,0a1.12,1.12,0,0,0,.58.51,3.65,3.65,0,0,0,1.47.21,2.93,2.93,0,0,0,2.06-.93,2,2,0,0,0,.35-.63s0,0,.06,0a1.59,1.59,0,0,0,1.26.69,2.5,2.5,0,0,0,1.12-.33,3.37,3.37,0,0,0,1.09-.82,1.76,1.76,0,0,0,.4-1s0,0,.05,0a3.09,3.09,0,0,0,2.52.28,3.44,3.44,0,0,0,2.13-1.82A3.82,3.82,0,0,0,31.48,18.66Z"/><path class="cls-4" d="M24.09,11.07a1,1,0,0,0-.46.22,1,1,0,0,0,0-.17A2.37,2.37,0,0,0,23.46,10l-.11-.22a3.16,3.16,0,0,0-1.2-1.15,2.5,2.5,0,0,1,.48.55,2.39,2.39,0,0,1,.13.21l.1.21A3.75,3.75,0,0,1,23,11.94a1.33,1.33,0,0,1,0,.19c0,.12,0,.23,0,.28s.4-.27.62-.4l.1-.1.38-.3.09-.07a1.07,1.07,0,0,0,.43-.57l-.38.08Z"/><path class="cls-4" d="M31.48,18.66a3.59,3.59,0,0,0-1.45-2,3.88,3.88,0,0,0-1.09-.51l-.39-.09a2.28,2.28,0,0,0-.78,0,2.53,2.53,0,0,0,.51-2.4,3.48,3.48,0,0,0-1.5-2c-.14-.09-.29-.17-.44-.25a2.86,2.86,0,0,0-2.72-.07,3,3,0,0,1,3,2.13,2.11,2.11,0,0,1,.08.45,3.78,3.78,0,0,1-1.47,2.7.4.4,0,0,0,0,.55.77.77,0,0,0,.38.26,1.83,1.83,0,0,0,.47.05s.08,0,.11,0a5.29,5.29,0,0,1,1.58.22,4,4,0,0,1,1.24.73,1.5,1.5,0,0,1,.39,2,2,2,0,0,1-1.06,1c-.16.05-1.51.07-1.51-.11,0,0,0,0,0,0a2.49,2.49,0,0,1-.57-.22.72.72,0,0,0-.54-.05h0s0,0,0,0a.46.46,0,0,0-.27.26c-.26.61-.42,1.48-1.2,1.62a2.57,2.57,0,0,1-1.63-.49.62.62,0,0,0-.4-.05.67.67,0,0,0-.4.24c-.41.46-.66,1-1.21,1.34a1.22,1.22,0,0,1-.82.12,1.14,1.14,0,0,1-.26-.09,11.77,11.77,0,0,1-1.24-.72c-.05,0-.1-.06-.15,0a4,4,0,0,1-1.21.75,3.29,3.29,0,0,1-.43.09,2,2,0,0,1-2-.84c-.28-.43-.6-1-1.17-.7l-.34.11a2.33,2.33,0,0,1-2,0c-.53-.33-.63-.93-1-1.42-.09-.14-.27-.13-.43-.12l-.3,0a5,5,0,0,1-1.49.14,1.43,1.43,0,0,1-.41-.09A2.14,2.14,0,0,1,7,21a2.24,2.24,0,0,1-.4-3.17,2.69,2.69,0,0,1,.27-.32,2.8,2.8,0,0,1,1.83-.89A3.38,3.38,0,0,0,5,19a3.11,3.11,0,0,0-.07.44,2.77,2.77,0,0,0,0,.5,3.47,3.47,0,0,0,1.34,2.61,3.91,3.91,0,0,0,.44.26,2.54,2.54,0,0,0,.46.17,2.83,2.83,0,0,0,1.63,0,1.66,1.66,0,0,0,.31-.12,2,2,0,0,0,.13.5A3,3,0,0,0,12.34,25a2.36,2.36,0,0,0,1-.42,2.18,2.18,0,0,0,1.76,1.34,3.89,3.89,0,0,0,2.29-.15,1.5,1.5,0,0,0,.71-.63,1.14,1.14,0,0,0,.61.57,3.65,3.65,0,0,0,1.47.21,2.93,2.93,0,0,0,2.06-.93,2,2,0,0,0,.37-.7,1.5,1.5,0,0,0,.55.54,1.94,1.94,0,0,0,.36.15,2.7,2.7,0,0,0,2.09-.57,1.89,1.89,0,0,0,.93-1.55,2.58,2.58,0,0,0,.37.19,3.52,3.52,0,0,0,.42.15,3.19,3.19,0,0,0,1.76,0,3.44,3.44,0,0,0,2.13-1.82A3.82,3.82,0,0,0,31.48,18.66Z"/><path class="cls-4" d="M20.85,11a.94.94,0,0,0-.83-.28,1.1,1.1,0,0,0-.83.64,1.47,1.47,0,0,0-.19,1s0,.05,0,.08l0,0s0,0,0,.07a.27.27,0,0,0,.16.2c.1,0,.16-.08.2-.16a.64.64,0,0,1,0-.07c0-.09,0-.19.07-.29l0-.07a1.38,1.38,0,0,1,.33-.76c.29-.25.68-.2,1-.33A.06.06,0,0,0,20.85,11Z"/><path class="cls-4" d="M26.14,18.88a.9.9,0,0,0,.35.75,1,1,0,0,0,1,.16,1.42,1.42,0,0,0,.79-.5c.1-.13.23-.35.07-.46s-.15,0-.23.06c-.34.15-.65.46-1.06.43s-.58-.33-.89-.48C26.16,18.85,26.15,18.86,26.14,18.88Z"/><path class="cls-4" d="M12.56,14.34a.91.91,0,0,0,.35.76,1.07,1.07,0,0,0,1,.16,1.42,1.42,0,0,0,.79-.5c.1-.13.22-.36.07-.46s-.15,0-.23,0c-.35.16-.65.46-1.06.44s-.58-.34-.89-.48Z"/><path class="cls-4" d="M22.27,13.83a.9.9,0,0,0,.35.75,1,1,0,0,0,1,.16,1.42,1.42,0,0,0,.79-.5c.1-.13.22-.36.07-.46s-.15,0-.24.06c-.34.15-.64.45-1.05.43s-.58-.34-.89-.48Z"/><path class="cls-4" d="M25.9,12.09a1.94,1.94,0,0,0-.53-.77l-.14-.1a.6.6,0,0,0-.15-.09,1,1,0,0,0-.21-.09,1.38,1.38,0,0,0-1,.12A1.76,1.76,0,0,0,23,12c-.09.18-.18.48,0,.57s.18-.07.28-.12.47-.44.73-.61l.21-.11a1.4,1.4,0,0,1,.4-.07h.2a.64.64,0,0,1,.2,0,.64.64,0,0,1,.18.06,3,3,0,0,1,.68.42Z"/><path class="cls-4" d="M19.35,12.69c0-.09,0-.18,0-.26a.25.25,0,0,1,0-.07,1.37,1.37,0,0,0-.38-.52,1.29,1.29,0,0,0-1.24-.2,1.8,1.8,0,0,0-1,.62c-.12.17-.28.45-.09.58s.19,0,.3-.07c.43-.19.81-.57,1.33-.54a1.36,1.36,0,0,1,.71.35l.06.05a.44.44,0,0,0,.31.09Z"/><path class="cls-4" d="M7.22,18.25a.36.36,0,0,0,0,.33,1.44,1.44,0,0,0,.48.53l.08.05.08,0a1.77,1.77,0,0,0,1.82-.44.85.85,0,0,0,.32-.58c0-.08-.08-.19-.18-.16a3.07,3.07,0,0,0-.76.44,1.15,1.15,0,0,1-1.51-.21.24.24,0,0,0-.27,0Z"/><path class="cls-5" d="M11,12.05A1.45,1.45,0,0,0,9.79,13c-.12.33-.1.85.27.95a1.45,1.45,0,0,0,1.55-.78L11.7,13c.13-.28.15-.69-.18-.83l-.13-.05-.14,0A.88.88,0,0,0,11,12.05Z"/><path class="cls-5" d="M9.24,14.28a.77.77,0,0,0-.36.93.54.54,0,0,0,.56.39.69.69,0,0,0,.14-1.33A.44.44,0,0,0,9.24,14.28Z"/><path class="cls-6" d="M19.57,19.5a1.55,1.55,0,0,1-1.35,1.18,1.57,1.57,0,0,1-1.54-1.16c-.14-.38.46-.56.6-.18a.92.92,0,0,0,.92.71.91.91,0,0,0,.76-.69c.11-.39.72-.24.61.14Z"/><path class="cls-7" d="M24.39,20.29c.11.78-.66,1.18-1.32,1.26-.85.09-2.09-.39-2.09-1.4a1.2,1.2,0,0,1,1.08-1.09,1.9,1.9,0,0,1,2.26.94A1.74,1.74,0,0,1,24.39,20.29Z"/><path class="cls-7" d="M11.85,20.29c-.1.78.66,1.18,1.33,1.26.85.09,2.09-.39,2.09-1.4a1.2,1.2,0,0,0-1.08-1.09,1.9,1.9,0,0,0-2.26.94A1.82,1.82,0,0,0,11.85,20.29Z"/><path class="cls-6" d="M12.66,17.87a1.69,1.69,0,0,0,2.5,0,.35.35,0,0,0-.5-.5,1,1,0,0,1-1.5,0,.35.35,0,0,0-.5.5Z"/><path class="cls-6" d="M21.08,17.87a1.7,1.7,0,0,0,2.51,0,.37.37,0,0,0,0-.5.35.35,0,0,0-.5,0,1,1,0,0,1-1.51,0,.35.35,0,0,0-.5,0,.36.36,0,0,0,0,.5Z"/></g></g></svg>