<svg xmlns="http://www.w3.org/2000/svg" width="22" height="22" viewBox="0 0 22 22"><defs><linearGradient id="a" x1="101.017%" x2="0%" y1="100%" y2="0%"><stop offset="0%" stop-color="#DF56EB"/><stop offset="44.431%" stop-color="#FF59C7"/><stop offset="100%" stop-color="#FFBB5F"/></linearGradient></defs><path fill="url(#a)" fill-rule="nonzero" d="M11 0c1.066 0 1.934.91 1.934 1.977 0 .839-.54 1.547-1.29 1.814v2.697h2.579V4.555a.644.644 0 1 1 1.289 0v1.933h1.71l1.105-1.105a1.911 1.911 0 0 1-.194-.828c0-1.067.867-1.934 1.933-1.934 1.067 0 1.934.867 1.934 1.934a1.936 1.936 0 0 1-1.934 1.933c-.297 0-.576-.073-.828-.194l-1.294 1.294a.644.644 0 0 1-.456.19h-1.976v2.577h2.74a1.93 1.93 0 0 1 1.814-1.289C21.133 9.066 22 9.934 22 11a1.936 1.936 0 0 1-1.934 1.934 1.93 1.93 0 0 1-1.814-1.29h-2.74v2.579h1.976c.171 0 .335.068.456.189l1.294 1.294c.252-.121.53-.194.828-.194 1.067 0 1.934.867 1.934 1.933a1.936 1.936 0 0 1-1.934 1.934 1.936 1.936 0 0 1-1.933-1.934c0-.297.073-.576.194-.828l-1.106-1.105h-1.71v1.933a.644.644 0 1 1-1.288 0v-1.933h-2.578v2.697a1.93 1.93 0 0 1 1.289 1.814C12.934 21.09 12.066 22 11 22c-1.066 0-1.934-.91-1.934-1.977 0-.839.54-1.547 1.29-1.814v-2.697h-2.58v1.933a.644.644 0 1 1-1.289 0v-1.933h-1.71l-1.105 1.105c.121.252.194.53.194.828a1.936 1.936 0 0 1-1.933 1.934A1.936 1.936 0 0 1 0 17.445c0-1.066.867-1.933 1.934-1.933.297 0 .576.073.828.194l1.294-1.294a.644.644 0 0 1 .456-.19h1.976v-2.577h-2.74a1.93 1.93 0 0 1-1.814 1.289A1.936 1.936 0 0 1 0 11c0-1.066.867-1.934 1.934-1.934.839 0 1.548.54 1.814 1.29h2.74v-2.58H4.512a.644.644 0 0 1-.456-.189L2.762 6.294c-.252.121-.53.194-.828.194A1.936 1.936 0 0 1 0 4.555C0 3.488.867 2.62 1.934 2.62c1.066 0 1.933.867 1.933 1.934 0 .297-.073.576-.194.828L4.78 6.488h1.71V4.555a.644.644 0 1 1 1.288 0v1.933h2.578V3.791a1.93 1.93 0 0 1-1.289-1.814C9.066.91 9.934 0 11 0zm1.29 9.066H9.71a.644.644 0 0 0-.644.645v2.578c0 .356.289.645.645.645h2.578a.644.644 0 0 0 .645-.645V9.711a.644.644 0 0 0-.645-.645zm-.645 1.29v1.289h-1.29v-1.29h1.29z"/></svg>