<svg xmlns="http://www.w3.org/2000/svg" width="25" height="25" viewBox="0 0 25 25"><defs><linearGradient id="a" x1="101.017%" x2="0%" y1="100%" y2="0%"><stop offset="0%" stop-color="#DF56EB"/><stop offset="44.431%" stop-color="#FF59C7"/><stop offset="100%" stop-color="#FFBB5F"/></linearGradient></defs><path fill="url(#a)" fill-rule="nonzero" d="M2.623 18.21l4.168 4.169-1.76 1.76a2.95 2.95 0 0 1-4.167 0A2.946 2.946 0 0 1 .73 20.11l.133-.141 1.76-1.76zm3.168-3.168a11.142 11.142 0 0 0 3.846 3.978l.322.19-2.132 2.133-4.168-4.169 2.132-2.132zM15.41 0C20.697 0 25 4.303 25 9.592c0 5.29-4.303 9.592-9.591 9.592-5.29 0-9.592-4.303-9.592-9.592C5.817 4.303 10.12 0 15.409 0zm.014 5.901c-3.522 0-6.288 3.05-6.404 3.18a.733.733 0 0 0 0 .976c.116.13 2.882 3.18 6.404 3.18 3.523 0 6.289-3.05 6.405-3.18a.732.732 0 0 0 0-.976c-.116-.13-2.882-3.18-6.405-3.18zm.007 1.472a2.2 2.2 0 0 1 2.197 2.198 2.2 2.2 0 0 1-2.197 2.197 2.2 2.2 0 0 1-2.197-2.197 2.2 2.2 0 0 1 2.197-2.198zm-3.518 1.185a3.645 3.645 0 0 0-.003 2.016 10.764 10.764 0 0 1-1.3-1.007c.313-.283.76-.653 1.303-1.01zm7.04.016c.534.351.974.715 1.283.995-.308.279-.748.643-1.28.994a3.645 3.645 0 0 0-.002-1.99zm-3.522.264a.732.732 0 1 0 0 1.465.732.732 0 0 0 0-1.465z"/></svg>