<svg width="90" height="90" viewBox="0 0 90 90" fill="none" xmlns="http://www.w3.org/2000/svg">
<path d="M45 90C69.8526 90 90 69.8526 90 45C90 20.1465 69.8526 0 45 0C20.1474 0 0 20.1465 0 45C0 69.8526 20.1474 90 45 90Z" fill="url(#paint0_radial_974_6042)"/>
<path d="M45.0424 87.2875C68.4272 87.2875 87.3848 68.1385 87.3848 44.5175C87.3848 20.8956 68.4272 1.74744 45.0424 1.74744C21.6576 1.74744 2.70007 20.8956 2.70007 44.5175C2.70007 68.1385 21.6576 87.2875 45.0424 87.2875Z" fill="url(#paint1_radial_974_6042)"/>
<path d="M45.0424 87.2875C68.4272 87.2875 87.3848 68.1385 87.3848 44.5175C87.3848 20.8956 68.4272 1.74744 45.0424 1.74744C21.6576 1.74744 2.70007 20.8956 2.70007 44.5175C2.70007 68.1385 21.6576 87.2875 45.0424 87.2875Z" fill="#332C2D"/>
<mask id="mask0_974_6042" style="mask-type:alpha" maskUnits="userSpaceOnUse" x="2" y="2" width="86" height="85">
<path d="M45.0001 86.7599C68.3849 86.7599 87.3424 67.8024 87.3424 44.4175C87.3424 21.0319 68.3849 2.0752 45.0001 2.0752C21.6152 2.0752 2.65771 21.0319 2.65771 44.4175C2.65771 67.8024 21.6152 86.7599 45.0001 86.7599Z" fill="url(#paint2_radial_974_6042)"/>
</mask>
<g mask="url(#mask0_974_6042)">
<path d="M66.764 8.66113C70.1379 14.7965 72.0568 21.833 72.0568 29.3225C72.0568 53.1172 52.6979 72.4016 28.8109 72.4016C22.1445 72.4016 15.8312 70.901 10.187 68.2148C17.7646 79.4016 30.6045 86.7599 45.1711 86.7599C68.4628 86.7599 87.3441 67.9514 87.3441 44.7495C87.3365 29.4182 79.0831 15.9974 66.7649 8.66198L66.764 8.66113Z" fill="url(#paint3_radial_974_6042)" fill-opacity="0.2"/>
<path d="M35.3571 17.2394C22.05 19.8066 10.6728 26.2859 5.69535 34.1099C3.35898 37.7774 2.85107 39.7334 2.85107 45.6014C2.85107 55.0146 6.30484 60.2714 16.6661 66.6283C35.2555 78.1198 62.073 76.6528 78.2245 63.3276C95.4933 49.1466 87.6716 27.1416 62.6825 19.3176C55.1655 16.9949 42.0615 16.0169 35.3571 17.2394ZM64.511 23.2296C86.9605 33.0096 89.7032 53.6699 70.098 64.9168C61.362 69.8068 53.0323 71.6406 41.1473 70.9071C26.418 69.9291 14.7361 64.1833 9.04754 54.8924C5.69535 49.3911 6.10168 40.8336 10.0634 34.8434C13.6187 29.7089 21.3389 24.4521 29.7702 21.6404C37.7951 19.0731 56.7908 19.9289 64.511 23.2296Z" fill="#201D1D"/>
<path d="M64.511 23.2296C86.9605 33.0096 89.7032 53.6699 70.098 64.9168C61.362 69.8068 53.0323 71.6406 41.1473 70.9071C26.418 69.9291 14.7361 64.1833 9.04754 54.8924C5.69535 49.3911 6.10168 40.8336 10.0634 34.8434C13.6187 29.7089 21.3389 24.4521 29.7702 21.6404C37.7951 19.0731 56.7908 19.9289 64.511 23.2296Z" fill="#FFC700"/>
<path d="M64.6093 22.9998L64.6108 23.0004C75.8852 27.9121 82.2662 35.5812 83.3228 43.49C84.381 51.4108 80.087 59.4746 70.2224 65.1337L70.2201 65.135C61.4371 70.0513 53.0586 71.8927 41.1319 71.1566L41.1307 71.1565C26.3538 70.1754 14.5801 64.4074 8.83433 55.0229L8.83405 55.0224C5.4252 49.4282 5.84666 40.766 9.85483 34.7055L9.85479 34.7054L9.85782 34.701C13.4534 29.5085 21.2268 24.226 29.6911 21.4032L29.694 21.4023C33.7501 20.1047 40.5417 19.6788 47.2662 19.9848C53.9906 20.2907 60.7065 21.3311 64.6093 22.9998ZM69.9746 64.6994C79.7144 59.1116 83.8514 51.222 82.8272 43.5562C81.8014 35.8784 75.5867 28.3277 64.4122 23.4593C60.5947 21.8273 53.953 20.7895 47.2435 20.4842C40.5347 20.179 33.8167 20.6087 29.8477 21.8781C21.4512 24.6785 13.786 29.9081 10.2704 34.9835C6.35672 40.9032 5.96594 49.3542 9.26075 54.7618C14.892 63.9592 26.4818 69.6827 41.1633 70.6576C53.0057 71.3884 61.2862 69.5625 69.9746 64.6994ZM5.90629 34.2441L5.9062 34.2442C4.74475 36.0674 4.04939 37.4472 3.63965 39.0909C3.22846 40.7404 3.10107 42.6706 3.10107 45.6014C3.10107 50.275 3.95776 53.8904 6.08206 57.1237C8.21091 60.3638 11.6282 63.2441 16.7969 66.4153L16.7976 66.4157C35.3009 77.854 62.001 76.3882 78.0654 63.1348L78.0658 63.1344C86.6289 56.1025 88.9458 47.1632 86.0645 39.0222C83.1776 30.865 75.0509 23.4523 62.6085 19.5564C58.8742 18.4026 53.7393 17.5796 48.6962 17.1983C43.6518 16.817 38.7246 16.8796 35.403 17.4851C22.1328 20.0456 10.8326 26.5006 5.90629 34.2441Z" stroke="black" stroke-width="0.5"/>
<path d="M42.708 56.7988L45.4991 60.6427L48.2902 56.7988L48.2902 56.7988L48.2937 56.7942C49.8815 54.6601 51.7864 53.1785 53.5161 52.5713C54.3818 52.2674 55.236 52.1719 55.9922 52.3613C56.7617 52.5541 57.392 53.0338 57.7929 53.7964C57.8426 53.88 57.9925 54.0193 58.5464 53.9254C59.0917 53.8331 59.8534 53.5314 60.809 52.9956C63.0862 51.5548 65.1821 51.2834 66.6656 52.3463C68.1237 53.391 68.7331 55.554 68.4701 58.3618L68.4696 58.366L68.1581 61.4133L70.1849 60.2116C70.9019 59.7566 71.8694 58.8797 72.8756 57.7922C73.8765 56.7103 74.8897 55.4487 75.6981 54.251C78.5072 49.846 79.0953 45.174 77.6769 40.836C76.2553 36.4882 72.799 32.4212 67.419 29.2895C65.8267 28.4368 64.3472 27.681 63.2441 27.1848C62.6886 26.9349 62.246 26.7589 61.939 26.6674C61.9157 26.6605 61.8938 26.6542 61.8733 26.6486C61.8788 26.8585 61.9151 27.155 61.9825 27.5256C62.1195 28.2787 62.3711 29.2659 62.677 30.2945C63.5155 32.9073 63.5177 35.0258 62.4944 36.5032C61.4649 37.9894 59.5267 38.6439 56.9418 38.6439C54.4394 38.6439 52.6512 38.2181 51.546 36.7834C50.4772 35.396 50.1535 33.1836 50.1535 29.9531C50.1535 28.6873 50.0771 27.638 49.9472 26.8333C49.814 26.0075 49.6341 25.5049 49.4719 25.2751C49.4535 25.2491 49.438 25.2303 49.4256 25.2168C49.4213 25.2202 49.4167 25.224 49.4116 25.2283C49.2335 25.3797 48.9607 25.811 48.6545 26.6862C48.4147 27.461 47.9627 28.0386 47.3658 28.3913C46.7713 28.7426 46.0708 28.849 45.3666 28.7523C43.9664 28.56 42.5044 27.5654 41.5641 25.9296C41.288 25.4795 41.0681 25.1251 40.8911 24.8625C40.8828 24.98 40.8759 25.1134 40.8701 25.2637C40.8448 25.9261 40.8447 26.8618 40.8447 28.1194C40.8447 32.0211 40.5186 34.6628 39.5093 36.3251C38.4485 38.0723 36.7073 38.6439 34.2625 38.6439C31.5391 38.6439 29.5628 38.0278 28.528 36.5162C27.5063 35.0235 27.5368 32.8439 28.3153 30.0702C28.6241 28.8184 28.8045 27.9102 28.8326 27.2926C28.8466 26.9821 28.8192 26.7911 28.7799 26.6822C28.7496 26.5984 28.7242 26.5895 28.7132 26.5856C28.7125 26.5853 28.7119 26.5851 28.7113 26.5849C28.6737 26.5706 28.5643 26.5507 28.3261 26.6055C28.0944 26.6588 27.7915 26.7707 27.4028 26.9538C26.6257 27.3199 25.5852 27.9318 24.2192 28.7876L24.2193 28.7877L24.2108 28.7928C14.7257 34.4773 10.8103 41.8589 12.8891 49.377C13.4857 51.4387 14.7377 53.7044 16.3338 55.7624C17.9297 57.8201 19.8461 59.64 21.7439 60.8247C22.2337 61.1289 22.5946 61.3431 22.8568 61.472C22.7893 61.1518 22.651 60.6928 22.4468 60.0573L22.4467 60.0573L22.4438 60.0474C21.5354 57.0058 22.0589 54.3954 23.6135 52.9518C25.1939 51.4843 27.6437 51.3947 30.1886 52.9953C31.1445 53.5313 31.9064 53.833 32.4518 53.9254C33.0061 54.0193 33.1558 53.8798 33.2053 53.7962C33.6063 53.0337 34.2365 52.5541 35.006 52.3613C35.7622 52.1719 36.6164 52.2674 37.4821 52.5713C39.2118 53.1785 41.1167 54.6601 42.7045 56.7942L42.7045 56.7941L42.708 56.7988ZM61.6391 26.6027C61.6395 26.6027 61.6402 26.6027 61.6412 26.6027C61.6389 26.6027 61.6382 26.6027 61.6391 26.6027ZM61.8872 26.4228C61.887 26.4226 61.8861 26.4252 61.8848 26.431C61.8866 26.4259 61.8873 26.423 61.8872 26.4228ZM49.4649 25.1914C49.4649 25.1913 49.464 25.1916 49.4619 25.1926C49.4639 25.192 49.4649 25.1915 49.4649 25.1914ZM22.898 61.8156C22.8981 61.8157 22.8984 61.8138 22.8989 61.8096C22.8981 61.8134 22.8979 61.8155 22.898 61.8156Z" fill="#151414" stroke="black"/>
</g>
<defs>
<radialGradient id="paint0_radial_974_6042" cx="0" cy="0" r="1" gradientUnits="userSpaceOnUse" gradientTransform="translate(45 26) rotate(50.906) scale(61.8466 64.4504)">
<stop stop-color="#B5EDFF"/>
<stop offset="1" stop-color="#A38CD5"/>
</radialGradient>
<radialGradient id="paint1_radial_974_6042" cx="0" cy="0" r="1" gradientUnits="userSpaceOnUse" gradientTransform="translate(45.0424 26.459) rotate(51.1875) scale(58.5487 60.8854)">
<stop stop-color="#B5EDFF"/>
<stop offset="1" stop-color="#A38CD5"/>
</radialGradient>
<radialGradient id="paint2_radial_974_6042" cx="0" cy="0" r="1" gradientUnits="userSpaceOnUse" gradientTransform="translate(45 26.5396) rotate(50.906) scale(58.194 60.644)">
<stop stop-color="#B5EDFF"/>
<stop offset="1" stop-color="#A38CD5"/>
</radialGradient>
<radialGradient id="paint3_radial_974_6042" cx="0" cy="0" r="1" gradientUnits="userSpaceOnUse" gradientTransform="translate(48.7651 47.7106) rotate(58.644) scale(73.9017 86.6011)">
<stop stop-color="white"/>
<stop offset="1" stop-color="white" stop-opacity="0"/>
</radialGradient>
</defs>
</svg>
