<svg width="94" height="94" viewBox="0 0 94 94" fill="none" xmlns="http://www.w3.org/2000/svg">
<path d="M47 93C71.8526 93 92 72.8526 92 48C92 23.1465 71.8526 3 47 3C22.1474 3 2 23.1465 2 48C2 72.8526 22.1474 93 47 93Z" fill="url(#paint0_radial_966_620)"/>
<path d="M47.0424 90.2875C70.4272 90.2875 89.3847 71.1385 89.3847 47.5175C89.3847 23.8956 70.4272 4.74744 47.0424 4.74744C23.6575 4.74744 4.70001 23.8956 4.70001 47.5175C4.70001 71.1385 23.6575 90.2875 47.0424 90.2875Z" fill="url(#paint1_radial_966_620)"/>
<mask id="mask0_966_620" style="mask-type:alpha" maskUnits="userSpaceOnUse" x="4" y="5" width="86" height="85">
<path d="M47 89.7599C70.3848 89.7599 89.3423 70.8024 89.3423 47.4175C89.3423 24.0319 70.3848 5.0752 47 5.0752C23.6152 5.0752 4.65765 24.0319 4.65765 47.4175C4.65765 70.8024 23.6152 89.7599 47 89.7599Z" fill="url(#paint2_radial_966_620)"/>
</mask>
<g mask="url(#mask0_966_620)">
<path d="M68.764 11.6611C72.1378 17.7965 74.0568 24.833 74.0568 32.3225C74.0568 56.1172 54.6979 75.4016 30.8108 75.4016C24.1445 75.4016 17.8312 73.901 12.187 71.2148C19.7646 82.4016 32.6045 89.7599 47.1711 89.7599C70.4628 89.7599 89.3441 70.9514 89.3441 47.7495C89.3364 32.4182 81.0831 18.9974 68.7648 11.662L68.764 11.6611Z" fill="url(#paint3_radial_966_620)" fill-opacity="0.2"/>
<path d="M-25.7942 116.829H193.771V-44.6188H-25.7942V116.829Z" fill="#ABDBF5"/>
<path d="M110.526 29.4247C96.4015 28.6329 82.2014 25.7956 68.7377 22.2861C44.0799 15.8585 20.0706 7.17809 -5.70274 4.5594C-10.1238 4.11025 -14.5869 3.87809 -19.0507 3.87809C-21.3005 3.87809 -23.5505 3.93718 -25.7942 4.0573V-1.65732C-25.441 -1.66346 -25.0876 -1.66637 -24.7341 -1.66637C-22.6553 -1.66637 -20.5745 -1.56078 -18.5049 -1.33701C-11.4539 -0.574655 -4.61235 1.51772 2.49436 1.51772C2.63275 1.51772 2.77248 1.51675 2.91107 1.51513C11.4452 1.41568 19.6005 -1.79004 28.102 -1.79004C28.4276 -1.79004 28.7543 -1.78519 29.0807 -1.7755C43.5357 -1.34347 54.2839 8.4813 67.2833 13.4478C73.6003 15.8611 80.6153 17.049 87.6393 17.0487C96.8652 17.0484 106.104 14.998 113.779 10.9808C124.46 5.38989 133.067 -3.92212 145.849 -4.95345C146.64 -5.01739 147.428 -5.04677 148.214 -5.04677C154.202 -5.04677 160.082 -3.34026 165.921 -2.10195C174.813 -0.216238 183.805 0.597141 192.841 0.596818C193.152 0.596818 193.46 0.595846 193.771 0.593909V2.61201C193.365 2.97236 192.945 3.35241 192.51 3.75087C188.82 7.13902 183.98 12.0257 181.268 15.122C180.914 15.5259 180.508 15.9722 180.06 16.4504C179.522 16.5082 178.987 16.5737 178.454 16.6467C177.882 15.782 176.953 15.1504 175.863 14.9392C175.431 9.98244 170.798 6.07572 165.155 6.07572C159.708 6.07572 155.203 9.71379 154.506 14.4226C153.756 14.0932 152.931 13.9108 152.065 13.9108C149.746 13.9108 147.722 15.2179 146.647 17.1559C145.333 16.2418 143.673 15.6958 141.868 15.6958C138.509 15.6958 135.649 17.5873 134.594 20.2231C133.495 19.5292 132.206 19.1301 130.83 19.1301C127.265 19.1301 124.293 21.8092 123.655 25.3459C121.805 25.538 120.259 26.6284 119.569 28.1192C118.547 28.1557 117.52 28.229 116.492 28.343C116.488 28.3436 116.482 28.3443 116.478 28.3446C116.002 28.2642 115.507 28.2219 114.999 28.2219C113.374 28.2219 111.888 28.6552 110.743 29.372C110.67 29.3895 110.599 29.4069 110.526 29.4247Z" fill="#B6DCF5"/>
<path d="M86.6984 47.7996C68.7845 47.7996 51.3326 42.8234 34.0962 38.6894C21.6849 35.7123 8.58004 33.1507 -4.26813 33.1507C-10.7623 33.1507 -17.1909 33.8052 -23.4316 35.3913C-24.2232 35.5925 -25.0097 35.8082 -25.7942 36.031V25.7558C-20.6921 24.7893 -15.4082 24.3563 -10.1555 24.3563C-8.11831 24.3563 -6.08698 24.4215 -4.07131 24.5459C12.3955 25.562 28.1243 30.0706 44.1042 33.3428C53.8383 35.3358 64.0018 36.8644 74.0146 36.8644C80.4396 36.8644 86.8015 36.2354 92.9511 34.6958C98.9183 33.2021 104.577 30.874 110.526 29.4248C110.567 29.4271 110.609 29.4293 110.65 29.4316C109.37 30.2647 108.539 31.4591 108.459 32.7949C107.899 32.6228 107.27 32.5259 106.604 32.5259C104.599 32.5259 102.92 33.4045 102.497 34.5789C102.188 35.4362 103.213 36.1236 99.3132 36.6438C93.8548 37.3719 84.4776 38.0319 84.4776 38.0319C84.4776 38.0319 109.408 38.1343 138.838 38.237C137.904 39.5344 136.879 40.9693 136.013 42.2367C121.028 42.3723 106.317 46.9545 91.2244 47.6904C89.7123 47.7644 88.2038 47.7996 86.6984 47.7996Z" fill="#B6DCF5"/>
<path fill-rule="evenodd" clip-rule="evenodd" d="M-15.8388 20.5197C-15.5531 18.5878 -13.7051 17.0953 -11.4703 17.0953C-9.15528 17.0953 -7.25455 18.6979 -7.07729 20.7315C-6.44752 20.8535 -5.94858 21.3175 -5.8053 21.91C-5.61077 21.8387 -5.40186 21.7999 -5.18388 21.7999C-4.80514 21.7999 -4.45325 21.9168 -4.16006 22.1174C-3.61012 21.5817 -2.88166 21.2552 -2.08332 21.2552C-0.690456 21.2552 0.48878 22.2481 0.879782 23.613C1.20123 23.4981 1.54706 23.4354 1.90694 23.4354C3.48497 23.4354 4.79065 24.6376 4.99353 26.1936C6.12941 26.3021 7.0106 27.0654 7.0106 27.9899C7.0106 28.1616 6.98015 28.3279 6.92336 28.4855L6.94942 28.4852C7.41753 28.4852 7.79723 28.8485 7.79723 29.296C7.79723 29.4213 7.76737 29.5401 7.71438 29.646C11.3756 29.9831 15.8746 30.2834 16.3544 30.348C17.1718 30.4578 -44.5673 30.2049 -44.5673 30.2049C-44.5673 30.2049 -40.7203 29.934 -38.4811 29.6353C-36.8812 29.4219 -37.3018 29.14 -37.1751 28.7884C-37.0015 28.3063 -36.3126 27.946 -35.4902 27.946C-35.2171 27.946 -34.9589 27.9857 -34.7292 28.0564C-34.6669 27.0134 -33.4886 26.1804 -32.0463 26.1804C-31.3876 26.1804 -30.7839 26.3541 -30.3165 26.6424C-30.2086 25.7829 -29.4502 25.1 -28.4951 25.0008C-28.2334 23.5497 -27.0142 22.4506 -25.5515 22.4506C-24.987 22.4506 -24.4586 22.6143 -24.0076 22.8991C-23.5746 21.8177 -22.4013 21.0418 -21.0235 21.0418C-20.2832 21.0418 -19.602 21.2659 -19.0629 21.6408C-18.622 20.8458 -17.7914 20.3095 -16.8403 20.3095C-16.4851 20.3095 -16.1466 20.3844 -15.8388 20.5197Z" fill="#ECEFF9"/>
<path fill-rule="evenodd" clip-rule="evenodd" d="M-15.8388 20.5197C-15.5531 18.5878 -13.7051 17.0953 -11.4703 17.0953C-9.15528 17.0953 -7.25455 18.6979 -7.07729 20.7315C-6.44752 20.8535 -5.94858 21.3175 -5.8053 21.91C-5.61077 21.8387 -5.40186 21.7999 -5.18388 21.7999C-4.80514 21.7999 -4.45325 21.9168 -4.16006 22.1174C-3.61012 21.5817 -2.88166 21.2552 -2.08332 21.2552C-0.690456 21.2552 0.48878 22.2481 0.879782 23.613C1.20123 23.4981 1.54706 23.4354 1.90694 23.4354C3.48497 23.4354 4.79065 24.6376 4.99353 26.1936C6.12941 26.3021 7.0106 27.0654 7.0106 27.9899C7.0106 28.1616 6.98015 28.3279 6.92336 28.4855L6.94942 28.4852C7.41753 28.4852 7.79723 28.8485 7.79723 29.296C7.79723 29.4213 7.76737 29.5401 7.71438 29.646C11.3756 29.9831 15.8746 30.2834 16.3544 30.348C17.1718 30.4578 -44.5673 30.2049 -44.5673 30.2049C-44.5673 30.2049 -40.7203 29.934 -38.4811 29.6353C-36.8812 29.4219 -37.3018 29.14 -37.1751 28.7884C-37.0015 28.3063 -36.3126 27.946 -35.4902 27.946C-35.2171 27.946 -34.9589 27.9857 -34.7292 28.0564C-34.6669 27.0134 -33.4886 26.1804 -32.0463 26.1804C-31.3876 26.1804 -30.7839 26.3541 -30.3165 26.6424C-30.2086 25.7829 -29.4502 25.1 -28.4951 25.0008C-28.2334 23.5497 -27.0142 22.4506 -25.5515 22.4506C-24.987 22.4506 -24.4586 22.6143 -24.0076 22.8991C-23.5746 21.8177 -22.4013 21.0418 -21.0235 21.0418C-20.2832 21.0418 -19.602 21.2659 -19.0629 21.6408C-18.622 20.8458 -17.7914 20.3095 -16.8403 20.3095C-16.4851 20.3095 -16.1466 20.3844 -15.8388 20.5197Z" fill="#ECEFF9"/>
<mask id="mask1_966_620" style="mask-type:luminance" maskUnits="userSpaceOnUse" x="-26" y="-45" width="220" height="162">
<path d="M-25.7942 116.829H193.771V-44.6188H-25.7942V116.829Z" fill="white"/>
</mask>
<g mask="url(#mask1_966_620)">
<mask id="mask2_966_620" style="mask-type:luminance" maskUnits="userSpaceOnUse" x="-45" y="17" width="62" height="14">
<path fill-rule="evenodd" clip-rule="evenodd" d="M-15.8388 20.5198C-15.5531 18.5879 -13.7051 17.0955 -11.4704 17.0955C-9.15528 17.0955 -7.25443 18.698 -7.07717 20.7316C-6.44752 20.8537 -5.94858 21.3177 -5.8053 21.9102C-5.61077 21.8388 -5.40186 21.8001 -5.18388 21.8001C-4.80514 21.8001 -4.45325 21.9173 -4.16006 22.1175C-3.61 21.5818 -2.88166 21.2553 -2.08332 21.2553C-0.690456 21.2553 0.48878 22.2483 0.879782 23.6131C1.20123 23.4982 1.54706 23.4355 1.90694 23.4355C3.48497 23.4355 4.79065 24.6377 4.99353 26.1937C6.12941 26.3022 7.0106 27.0655 7.0106 27.99C7.0106 28.1618 6.98015 28.3281 6.92336 28.4856L6.94942 28.4853C7.41753 28.4853 7.79723 28.8486 7.79723 29.2961C7.79723 29.4214 7.76737 29.5402 7.71409 29.6461C11.3756 29.9832 15.8746 30.2835 16.3541 30.3481C17.1718 30.4579 -44.5673 30.2051 -44.5673 30.2051C-44.5673 30.2051 -40.7204 29.9341 -38.4811 29.6355C-36.8811 29.422 -37.3018 29.1401 -37.1751 28.7885C-37.0015 28.3064 -36.3126 27.9461 -35.4902 27.9461C-35.2171 27.9461 -34.9589 27.9858 -34.7292 28.0565C-34.6669 27.0136 -33.4886 26.1805 -32.0462 26.1805C-31.3876 26.1805 -30.7839 26.3542 -30.3165 26.6425C-30.2086 25.783 -29.4502 25.0997 -28.4951 25.0006C-28.2334 23.5498 -27.0142 22.4507 -25.5516 22.4507C-24.987 22.4507 -24.4586 22.6144 -24.0076 22.8992C-23.5746 21.8178 -22.4013 21.0419 -21.0235 21.0419C-20.2832 21.0419 -19.602 21.266 -19.0629 21.6409C-18.6221 20.8459 -17.7914 20.3096 -16.8403 20.3096C-16.4851 20.3096 -16.1466 20.3845 -15.8388 20.5198Z" fill="white"/>
</mask>
<g mask="url(#mask2_966_620)">
<path fill-rule="evenodd" clip-rule="evenodd" d="M-23.9199 28.825C-24.0028 29.1454 -24.3954 29.3804 -24.6526 29.475C-25.4143 29.755 -26.3441 29.6494 -27.0403 29.2035C-27.2743 29.0536 -27.6636 28.508 -27.9609 28.5586C-28.2588 28.609 -28.4843 29.0188 -28.6999 29.2141C-29.0849 29.5629 -29.5311 29.7798 -30.03 29.8276C-30.6668 29.8887 -31.2675 29.6694 -31.8012 29.2955C-32.0168 29.1447 -32.3509 28.6969 -32.6194 28.6901C-32.7842 28.6862 -32.9478 28.9465 -33.0449 29.0614C-33.244 29.2978 -33.5029 29.528 -33.7932 29.6064C-34.3416 29.7547 -34.9906 29.6113 -35.5182 29.4282C-35.7117 29.361 -35.903 29.2332 -36.104 29.2002C-36.3698 29.1563 -36.5797 29.5425 -36.8377 29.6064C-37.6468 29.8073 -38.5146 29.2461 -38.8687 28.4585C-39.4013 27.2742 -38.2636 26.425 -37.506 25.7921C-36.3887 24.8589 -35.1376 24.4214 -33.7658 24.1853C-32.765 24.0132 -31.7332 24.0785 -30.8322 23.5008C-27.8435 22.0355 -25.8324 19.2541 -22.8813 17.6822C-18.7541 15.4839 -14.2322 15.3967 -9.75712 15.7494C-6.83406 15.9796 -3.94301 16.3716 -1.29619 17.8569C0.17352 18.6816 1.59806 19.9241 2.65713 21.3235C3.61964 22.5951 4.30351 24.5195 5.55591 25.4915C5.76875 25.6481 5.90458 26.0475 5.96313 26.299C6.17333 27.1983 5.91864 28.0481 5.21339 28.5716C4.73474 28.9264 4.11469 29.0601 3.55348 28.9112C3.23244 28.826 2.86958 28.5289 2.52905 28.6029C2.22359 28.6691 1.98253 28.9826 1.72488 29.1544C1.18774 29.5118 0.571813 29.797 -0.0624088 29.8179C-1.00654 29.8493 -2.00796 29.4863 -2.82264 28.9794C-3.10146 28.806 -3.36812 28.6216 -3.60233 28.3798C-3.7042 28.2745 -3.85105 28.0669 -4.0068 28.0669C-4.31065 28.0669 -4.72018 28.7165 -4.96179 28.8886C-5.47847 29.2568 -6.13052 29.4266 -6.73628 29.4799C-7.74901 29.569 -8.7908 29.3491 -9.70774 28.8686C-10.0125 28.7088 -10.3099 28.5309 -10.5928 28.3284C-10.731 28.2296 -10.9194 28.0207 -11.0957 28.0172C-11.4406 28.0107 -11.8158 28.702 -12.0261 28.9339C-12.4353 29.3856 -12.9548 29.6349 -13.5271 29.7056C-14.278 29.7989 -14.9917 29.5993 -15.732 29.5251C-16.6643 29.4318 -17.5486 29.5709 -18.4253 29.0959C-18.8205 28.8819 -19.154 28.5377 -19.4484 28.1805C-19.5703 28.033 -19.7527 27.6707 -19.9407 27.6135C-20.0664 27.5754 -20.1048 27.9519 -20.1211 28.0213C-20.2183 28.4379 -20.3341 28.9261 -20.6919 29.1628C-21.6153 29.7737 -23.0069 29.3633 -23.8736 28.8118" fill="#ECEFF9"/>
</g>
</g>
<path fill-rule="evenodd" clip-rule="evenodd" d="M154.506 14.4227C155.202 9.71388 159.708 6.07581 165.155 6.07581C170.798 6.07581 175.431 9.98253 175.863 14.9393C177.398 15.237 178.615 16.3681 178.964 17.8121C179.438 17.6387 179.947 17.5441 180.479 17.5441C181.402 17.5441 182.26 17.8292 182.975 18.3181C184.315 17.0117 186.091 16.2164 188.037 16.2164C191.432 16.2164 194.307 18.6362 195.26 21.9636C196.043 21.6833 196.886 21.5309 197.763 21.5309C201.61 21.5309 204.793 24.4612 205.287 28.254C208.057 28.5181 210.204 30.3792 210.204 32.6327C210.204 33.0515 210.13 33.4571 209.991 33.841L210.055 33.8401C211.196 33.8401 212.122 34.7258 212.122 35.8162C212.122 36.122 212.049 36.4113 211.919 36.6696C220.845 37.4914 231.811 38.2234 232.98 38.3806C234.973 38.648 84.4776 38.0319 84.4776 38.0319C84.4776 38.0319 93.8548 37.3719 99.3132 36.6438C103.213 36.1236 102.188 35.4361 102.497 34.5788C102.92 33.4045 104.599 32.5259 106.604 32.5259C107.27 32.5259 107.899 32.6227 108.459 32.7948C108.611 30.2524 111.483 28.222 114.999 28.222C116.604 28.222 118.076 28.6456 119.215 29.3479C119.478 27.253 121.327 25.5878 123.655 25.3459C124.293 21.8093 127.265 19.1302 130.83 19.1302C132.206 19.1302 133.495 19.5293 134.594 20.2232C135.649 17.5874 138.509 15.6959 141.868 15.6959C143.673 15.6959 145.333 16.2419 146.647 17.156C147.722 15.218 149.746 13.9109 152.065 13.9109C152.931 13.9109 153.756 14.0933 154.506 14.4227Z" fill="#ECEFF9"/>
<path fill-rule="evenodd" clip-rule="evenodd" d="M154.506 14.4227C155.202 9.71388 159.708 6.07581 165.155 6.07581C170.798 6.07581 175.431 9.98253 175.863 14.9393C177.398 15.237 178.615 16.3681 178.964 17.8121C179.438 17.6387 179.947 17.5441 180.479 17.5441C181.402 17.5441 182.26 17.8292 182.975 18.3181C184.315 17.0117 186.091 16.2164 188.037 16.2164C191.432 16.2164 194.307 18.6362 195.26 21.9636C196.043 21.6833 196.886 21.5309 197.763 21.5309C201.61 21.5309 204.793 24.4612 205.287 28.254C208.057 28.5181 210.204 30.3792 210.204 32.6327C210.204 33.0515 210.13 33.4571 209.991 33.841L210.055 33.8401C211.196 33.8401 212.122 34.7258 212.122 35.8162C212.122 36.122 212.049 36.4113 211.919 36.6696C220.845 37.4914 231.811 38.2234 232.98 38.3806C234.973 38.648 84.4776 38.0319 84.4776 38.0319C84.4776 38.0319 93.8548 37.3719 99.3132 36.6438C103.213 36.1236 102.188 35.4361 102.497 34.5788C102.92 33.4045 104.599 32.5259 106.604 32.5259C107.27 32.5259 107.899 32.6227 108.459 32.7948C108.611 30.2524 111.483 28.222 114.999 28.222C116.604 28.222 118.076 28.6456 119.215 29.3479C119.478 27.253 121.327 25.5878 123.655 25.3459C124.293 21.8093 127.265 19.1302 130.83 19.1302C132.206 19.1302 133.495 19.5293 134.594 20.2232C135.649 17.5874 138.509 15.6959 141.868 15.6959C143.673 15.6959 145.333 16.2419 146.647 17.156C147.722 15.218 149.746 13.9109 152.065 13.9109C152.931 13.9109 153.756 14.0933 154.506 14.4227Z" fill="#ECEFF9"/>
<path d="M53.6817 112.707C46.0798 111.351 41.8837 110.13 42.8876 109.163C48.6285 103.634 114.797 47.0065 116.203 45.568C116.314 45.4549 116.447 45.4026 116.6 45.4026C117.563 45.4026 119.328 47.4692 121.397 49.445C119.539 47.6713 117.927 45.8243 116.92 45.4649L116.473 45.4159L123.78 55.0304L123.48 59.8819L121.45 64.3111C121.386 64.3043 121.318 64.3008 121.246 64.3008C117.584 64.3008 103.959 73.2511 90.2677 82.7582C96.162 77.0035 104.097 69.2585 105.113 68.2782C106.753 66.6957 109.315 63.4893 109.315 63.4893L106.855 59.5733C106.855 59.5733 109.623 56.973 111.058 56.0685C112.493 55.1641 116.473 45.4159 116.473 45.4159C116.473 45.4159 116.374 45.4733 116.19 45.5815C115.155 46.6041 92.0579 66.4277 71.994 83.7466C73.8231 85.2564 79.3181 87.4214 82.1163 88.4676C70.3107 96.7925 60.0072 104.237 58.0935 104.959C56.5407 105.545 55.021 108.718 53.6817 112.707Z" fill="#619DD1"/>
<mask id="mask3_966_620" style="mask-type:luminance" maskUnits="userSpaceOnUse" x="-26" y="-45" width="220" height="162">
<path d="M-25.7942 116.829H193.771V-44.6188H-25.7942V116.829Z" fill="white"/>
</mask>
<g mask="url(#mask3_966_620)">
<mask id="mask4_966_620" style="mask-type:luminance" maskUnits="userSpaceOnUse" x="42" y="-2" width="160" height="131">
<path fill-rule="evenodd" clip-rule="evenodd" d="M149 27.8162C153.483 22.3841 155.08 20.3706 156.104 20.5966C158.975 21.2298 166.289 30.833 167.352 29.3555C168.415 27.8782 177.645 19.2595 181.268 15.1222C183.98 12.0259 188.82 7.13923 192.51 3.75108C196.676 -0.0736288 199.585 -2.18925 200.244 -1.42431C203.048 1.82694 201.341 128.529 201.341 128.529C201.341 128.529 37.1466 114.692 42.8875 109.163C48.6284 103.634 114.797 47.0066 116.203 45.5681C117.01 44.7428 118.999 47.1551 121.397 49.4451C121.512 49.5552 121.89 49.4202 122.268 49.285C122.644 49.1506 123.019 49.016 123.133 49.1238C124.676 50.5817 125.513 52.7861 126.507 53.0993C127.313 53.3534 130.054 50.4545 133.572 46.293C133.787 45.891 134.014 45.4641 134.248 45.0201C135.54 42.5681 141.278 34.9861 141.588 34.3591C141.898 33.732 142.902 31.8647 142.902 31.8647C143.295 31.1417 144.311 31.5518 144.612 31.6067C145.206 31.7155 145.814 30.1146 146.216 29.3829C147.497 27.0461 148.058 27.762 149 27.8162Z" fill="white"/>
</mask>
<g mask="url(#mask4_966_620)">
<path d="M82.1162 88.4675C79.3181 87.4214 73.8231 85.2564 71.994 83.7465C92.0579 66.4277 115.155 46.6041 116.19 45.5815C116.374 45.4733 116.473 45.4158 116.473 45.4158C116.473 45.4158 112.493 55.1641 111.058 56.0685C109.623 56.9729 106.855 59.5732 106.855 59.5732L109.315 63.4893C109.315 63.4893 106.753 66.6957 105.113 68.2782C104.097 69.2585 96.162 77.0035 90.2677 82.7581C87.5269 84.6613 84.7832 86.5874 82.1162 88.4675Z" fill="#63A8E0"/>
</g>
</g>
<path d="M188.78 116.829H149.86C151.781 116.051 153.167 115.575 153.669 115.575C153.698 115.575 153.724 115.576 153.746 115.58C153.773 115.583 153.802 115.585 153.832 115.585C156.162 115.586 168.963 104.785 168.063 102.659C167.535 101.41 164.597 89.2058 161.791 78.726C153.762 67.659 147.172 58.8284 146.046 57.8514C145.935 57.7551 145.801 57.7025 145.647 57.6893C144.469 59.944 143.51 63.9719 144.245 65.4775C145.156 67.3439 146.718 70.3939 143.594 74.1089C140.47 77.8235 136.956 86.2937 136.956 86.2937L143.594 82.83C143.594 82.83 136.045 97.7785 133.442 101.08C130.838 104.382 127.715 109.263 126.413 113.426C126.156 114.249 125.822 115.448 125.465 116.829H98.2734L107.97 103.226L114.53 89.0803L114.12 82.83L115.076 79.7114L112.07 78.5054L120.842 64.3309C116.037 64.9929 99.3352 76.3607 84.3254 86.9123C85.6738 89.0528 87.5419 91.4735 88.4266 92.6748C89.5941 94.2599 90.939 107.761 91.7239 116.829H52.4287C52.8236 115.409 53.2429 114.015 53.6817 112.708C55.021 108.718 56.5407 105.545 58.0935 104.959C60.0072 104.237 70.3107 96.7926 82.1163 88.4677C84.7833 86.5876 87.5269 84.6614 90.2677 82.7583C103.959 73.2512 117.584 64.3009 121.246 64.3009C121.318 64.3009 121.386 64.3044 121.45 64.3112C121.694 64.3374 121.88 64.4145 122.007 64.5463C122.222 64.7697 122.451 64.9932 122.692 65.2153C125.1 67.4359 128.702 69.4947 131.503 69.4947C131.71 69.4947 131.912 69.4834 132.109 69.4601C136.32 66.2725 143.172 57.686 145.568 57.686C145.756 57.686 145.916 57.739 146.046 57.8514C146.347 58.1126 147.039 58.9353 148.043 60.2104C149.414 61.9512 151.366 64.5343 153.709 67.6923C154.104 68.2247 154.513 68.7766 154.929 69.3403C157.801 73.2306 161.155 77.8351 164.682 82.7221C173.132 94.4319 182.575 107.768 188.78 116.829ZM130.382 83.8442L127.051 91.5447L128.396 94.9916L127.82 98.6089L118.981 111.749L127.307 103.272L131.343 96.9841L132.395 92.3923V87.666L132.109 69.4601C131.912 69.4834 131.71 69.4947 131.503 69.4947C130.594 69.4947 129.6 69.2777 128.59 68.9086C126.45 68.1266 124.237 66.6619 122.601 65.1317L121.285 64.3012L122.979 70.8935L128.32 73.2409L129.869 77.3449L124.169 86.5994L130.382 83.8442Z" fill="#5387B8"/>
<mask id="mask5_966_620" style="mask-type:luminance" maskUnits="userSpaceOnUse" x="-26" y="-45" width="220" height="162">
<path d="M-25.7942 116.829H193.771V-44.6188H-25.7942V116.829Z" fill="white"/>
</mask>
<g mask="url(#mask5_966_620)">
<mask id="mask6_966_620" style="mask-type:luminance" maskUnits="userSpaceOnUse" x="48" y="57" width="148" height="76">
<path fill-rule="evenodd" clip-rule="evenodd" d="M58.0935 104.959C62.8027 103.183 118.313 60.705 122.007 64.5462C124.53 67.1687 128.973 69.8288 132.109 69.46C136.65 66.0221 144.264 56.3049 146.046 57.8512C149.352 60.7202 199.778 131.295 195.337 127.394C192.767 125.136 48.9827 132.297 48.9827 132.297C48.9827 132.297 53.3842 106.736 58.0935 104.959Z" fill="white"/>
</mask>
<g mask="url(#mask6_966_620)">
<path d="M98.2734 116.829H91.7239C90.939 107.761 89.5941 94.2599 88.4266 92.6748C87.5419 91.4735 85.6738 89.0528 84.3254 86.9124C99.3352 76.3607 116.037 64.9929 120.842 64.3309L112.07 78.5054L115.076 79.7114L114.12 82.83L114.53 89.0803L107.97 103.226L98.2734 116.829Z" fill="#5790C3"/>
</g>
</g>
<path fill-rule="evenodd" clip-rule="evenodd" d="M91.6741 92.4337C93.519 88.792 93.7529 86.2364 93.7848 86.2809C94.7565 90.1124 96.333 92.4205 97.9949 94.7866L97.0356 94.3659L98.846 97.0037L97.4457 95.8719L98.7233 98.096L97.6179 97.361L101.468 105.024L100.657 104.627L101.271 105.818L100.657 105.421C100.657 105.421 103.359 109.592 103.114 109.314C102.868 109.036 101.014 107.362 101.014 107.362L105.122 116.105L104.385 115.668L105.22 116.9C105.22 116.9 107.087 119.879 106.694 119.561C106.465 119.375 105.608 118.635 104.934 118.051C105.352 119.195 105.595 119.864 105.595 119.864L102.013 119.803L98.1873 119.438L96.8031 119.56L90.6913 119.946C90.6913 119.946 90.0142 120.141 89.441 120.335C88.868 120.529 88.5478 118.858 88.5478 118.858C88.5478 118.858 87.0445 119.596 86.367 120.141C85.6899 120.685 86.5023 118.462 86.5023 118.462C86.5023 118.462 85.6899 119.052 85.0646 119.791C84.4396 120.529 85.4294 118.353 85.4294 118.353C85.4294 118.353 84.5297 118.256 83.1052 119.471C82.4266 120.049 82.7641 119.508 83.7162 117.773L82.0015 119.255C82.0015 119.255 83.5127 116.084 83.369 116.113C83.2249 116.142 85.2399 113.087 85.4917 112.593C85.7438 112.098 84.3763 113.349 84.2823 113.487C84.1881 113.625 85.276 111.575 85.5277 111.167C85.7795 110.76 88.1953 105.794 88.1953 105.794C88.1953 105.794 87.8785 106.003 87.5618 106.259C87.2453 106.515 88.224 104.49 88.368 103.949C88.5118 103.407 87.4754 104.816 87.0439 105.282C86.6121 105.747 87.2453 104.816 88.5407 102.582C89.8359 100.348 91.3368 96.661 91.3368 96.661C91.3368 96.661 90.8307 96.9565 90.5777 97.2972C90.3248 97.6384 91.1117 95.3882 91.2241 94.7866C91.3368 94.1848 90.2405 95.7747 89.9591 96.1839C89.6781 96.5929 90.6155 94.5235 91.6741 92.4337Z" fill="#275275"/>
<path fill-rule="evenodd" clip-rule="evenodd" d="M25.4983 43.5303C28.1146 38.8345 28.5499 35.4754 28.5901 35.5361C29.6826 40.6524 31.649 43.7941 33.7255 47.0176L32.4799 46.4044L34.7391 49.9957L32.9468 48.417L34.5227 51.43L33.0999 50.3935L37.8021 60.741L36.7517 60.1676L37.5035 61.7779L36.7125 61.2163C36.7125 61.2163 40.0724 66.8845 39.7621 66.5028C39.4515 66.1208 37.0869 63.8002 37.0869 63.8002L42.0763 75.5888L41.1252 74.9675L42.1668 76.6434C42.1668 76.6434 44.4834 80.6883 43.9801 80.2449C43.6865 79.9863 42.5922 78.9579 41.7318 78.1458C42.2262 79.6815 42.514 80.5785 42.514 80.5785L37.789 80.2824L32.7565 79.5704L30.9239 79.6473L22.8369 79.7884C22.8369 79.7884 21.9331 80.0041 21.167 80.2259C20.4009 80.448 20.061 78.2223 20.061 78.2223C20.061 78.2223 18.0401 79.1067 17.1191 79.7842C16.1981 80.4616 17.3808 77.5768 17.3808 77.5768C17.3808 77.5768 16.2789 78.3066 15.417 79.2436C14.5552 80.1807 15.9697 77.3673 15.9697 77.3673C15.9697 77.3673 14.7873 77.1855 12.8466 78.7031C11.9218 79.4258 12.3943 78.7318 13.7369 76.4984L11.4001 78.3512C11.4001 78.3512 13.5525 74.2565 13.361 74.2862C13.1695 74.3159 15.9809 70.4053 16.338 69.7679C16.6949 69.1302 14.828 70.6988 14.6968 70.8755C14.566 71.0521 16.1035 68.4108 16.456 67.8883C16.8088 67.3659 20.2436 60.9561 20.2436 60.9561C20.2436 60.9561 19.8153 61.2134 19.3847 61.5325C18.9541 61.8508 20.3464 59.2373 20.563 58.5311C20.78 57.8246 19.3423 59.6222 18.7491 60.2108C18.156 60.7992 19.0381 59.6083 20.859 56.7374C22.6797 53.8662 24.8434 49.0903 24.8434 49.0903C24.8434 49.0903 24.161 49.4497 23.81 49.8843C23.4593 50.3192 24.6098 47.3967 24.7881 46.6092C24.9664 45.8216 23.4402 47.8539 23.0488 48.3773C22.6574 48.9001 23.9973 46.2249 25.4983 43.5303Z" fill="#2E5B72"/>
<path fill-rule="evenodd" clip-rule="evenodd" d="M41.9297 45.5775C44.5457 40.8816 44.9811 37.5225 45.0212 37.5832C46.1137 42.6995 48.0804 45.8413 50.1569 49.0647L48.911 48.4516L51.1702 52.0425L49.3779 50.4642L50.9538 53.4771L49.531 52.4403L54.2335 62.7882L53.1831 62.2147L53.9346 63.8246L53.1436 63.2635C53.1436 63.2635 56.5035 68.9316 56.1932 68.5496C55.8826 68.1679 53.518 65.8473 53.518 65.8473L58.5074 77.6356L57.5563 77.0143L58.5979 78.6901C58.5979 78.6901 60.9145 82.7351 60.4115 82.2921C60.1176 82.0334 59.0233 81.0047 58.1629 80.1929C58.6573 81.7286 58.9454 82.6256 58.9454 82.6256L54.2201 82.3292L49.1876 81.6175L47.355 81.6944L39.268 81.8355C39.268 81.8355 38.3642 82.0512 37.5981 82.273C36.832 82.4948 36.4921 80.2694 36.4921 80.2694C36.4921 80.2694 34.4712 81.1535 33.5502 81.831C32.6292 82.5084 33.8119 79.624 33.8119 79.624C33.8119 79.624 32.7103 80.3534 31.8484 81.2908C30.9865 82.2278 32.4011 79.4144 32.4011 79.4144C32.4011 79.4144 31.2184 79.2326 29.2777 80.7499C28.3532 81.4729 28.8254 80.7786 30.1683 78.5455L27.8315 80.3979C27.8315 80.3979 29.9836 76.3036 29.7921 76.3333C29.6007 76.363 32.412 72.4524 32.7691 71.8147C33.126 71.177 31.2591 72.746 31.1282 72.9226C30.9971 73.0992 32.5346 70.4576 32.8874 69.9351C33.2399 69.4127 36.6748 63.0029 36.6748 63.0029C36.6748 63.0029 36.2465 63.2605 35.8158 63.5792C35.3852 63.8979 36.7775 61.2844 36.9944 60.5779C37.2111 59.8718 35.7734 61.6693 35.1802 62.2576C34.5874 62.846 35.4695 61.6554 37.2901 58.7846C39.1108 55.9134 41.2748 51.1371 41.2748 51.1371C41.2748 51.1371 40.5921 51.4968 40.2414 51.9314C39.8904 52.3663 41.0409 49.4435 41.2192 48.6563C41.3975 47.8687 39.8713 49.901 39.4802 50.4241C39.0888 50.9472 40.4284 48.272 41.9297 45.5775Z" fill="#2E5B72"/>
<path fill-rule="evenodd" clip-rule="evenodd" d="M29.6229 76.9119L24.3086 79.135L27.8667 71.4533C27.8667 71.4533 27.0997 71.9748 26.758 72.3681C26.4164 72.7617 27.7136 70.5527 27.9197 70.0416C28.1258 69.5305 26.6076 71.3958 26.6076 71.3958L30.6941 60.2049C30.6941 60.2049 29.6311 61.6437 29.3589 61.9288C29.0866 62.2139 31.2661 57.911 31.4266 57.6207C31.5867 57.3308 31.0785 57.9323 30.7688 58.2155C30.4596 58.4987 31.592 56.2006 31.592 56.2006C31.592 56.2006 30.7266 57.3511 30.2939 57.9262C29.8612 58.5013 34.8111 45.7795 34.8111 45.7795L33.5066 47.0885L35.3834 42.4863C35.3834 42.4863 34.9791 42.8964 34.7309 43.1466C34.482 43.3968 35.983 40.8479 36.0825 40.5909C36.1815 40.3335 35.3085 41.2932 34.8723 41.7727C34.4358 42.2525 38.4076 34.3909 38.5458 34.1226C38.5548 34.1049 38.5598 34.1223 38.5616 34.1701L40.3535 39.5363L39.7133 38.822L41.3743 45.4488L40.393 44.3584C40.393 44.3584 42.2353 49.8977 42.1209 49.7414C42.0058 49.5855 41.5661 48.9248 41.5661 48.9248C41.5661 48.9248 42.2915 51.1473 42.1774 50.9778C42.0635 50.808 41.7028 50.3255 41.7028 50.3255C41.7028 50.3255 44.9878 59.8161 44.7679 59.4047C44.5481 58.9931 43.3244 57.5449 43.3244 57.5449L44.7196 60.6876L44.1297 60.2856C44.1297 60.2856 46.807 69.234 46.7244 68.9625C46.6419 68.6909 44.9808 65.9156 45.0537 66.2088C45.1266 66.5023 45.7905 68.2282 45.6014 68.0409C45.412 67.854 45.2182 67.8004 45.2182 67.8004C45.2182 67.8004 46.5321 71.4213 47.8375 74.3775C47.8509 74.4075 46.5596 73.3468 46.5596 73.3468L47.2098 75.4495C47.2098 75.4495 48.6106 78.9558 48.079 78.5393C47.547 78.1227 45.2668 77.6335 45.2668 77.6335L38.3643 77.2893L29.6229 76.9119Z" fill="#2E657C"/>
<path fill-rule="evenodd" clip-rule="evenodd" d="M10.7502 38.799L10.7581 38.8161L13.1186 43.8813L12.4207 43.1787L13.4658 45.4435L12.6561 44.624L14.7484 51.1284L13.9934 50.3454L15.5783 53.7985L15.0663 53.2027L15.3787 54.3742L14.9823 53.8853L16.5661 56.9974L15.9405 56.2693L16.3152 57.3548L16.6794 58.72L16.0447 57.6987L17.9285 62.3045L17.247 61.2141L20.0311 68.0517L19.0354 67.2248L19.678 68.817L18.8894 68.0075L22.2004 75.1128L21.3274 74.19L21.9419 76.376L20.8233 75.1664L22.4592 79.9598L22.0514 79.9411C22.326 81.0784 22.4504 81.7074 22.3758 81.6596C22.3617 81.6509 22.3348 81.6415 22.2947 81.6312L22.3119 81.6589L22.232 81.6169C20.0411 81.1594 -4.86713 79.4749 -4.86713 79.4749L-5.62085 79.4254L-1.75867 71.3488L-3.20186 72.4021L-1.92232 69.4247L-2.51538 69.6704L-0.413612 66.9862L-1.49624 67.5506L-0.308075 65.5922L-1.55728 66.354L2.08085 59.6868L1.44857 59.9874L2.28122 58.6561L1.40901 59.3009L2.5018 57.9884L2.3066 57.9793L2.64247 57.1356L1.75344 58.2347L6.15926 50.6786L5.45783 51.0377L6.12413 49.9331L5.36737 50.5446L6.55507 48.5905L6.04714 49.0913L7.79049 45.686L7.2407 46.3505L8.67138 42.8949L8.27792 43.0383L10.73 38.8338L10.7429 38.8051L10.7502 38.799Z" fill="#2E5B72"/>
<path fill-rule="evenodd" clip-rule="evenodd" d="M9.55639 78.7951L4.24203 81.0179L7.80016 73.3366C7.80016 73.3366 7.03315 73.8577 6.69151 74.2513C6.34986 74.6446 7.64705 72.4357 7.85315 71.9245C8.05925 71.4134 6.54132 73.2788 6.54132 73.2788L10.6276 62.0881C10.6276 62.0881 9.56459 63.5266 9.29233 63.8118C9.02036 64.0969 11.1996 59.794 11.36 59.504C11.5205 59.2137 11.012 59.8153 10.7025 60.0985C10.3931 60.382 11.5255 58.0836 11.5255 58.0836C11.5255 58.0836 10.6604 59.2341 10.2277 59.8091C9.79499 60.3842 14.7446 47.6624 14.7446 47.6624L13.4401 48.9715L15.3169 44.3695C15.3169 44.3695 14.9129 44.7793 14.6644 45.0295C14.4158 45.2801 15.9165 42.7308 16.016 42.4738C16.1152 42.2165 15.242 43.1761 14.8058 43.6559C14.3693 44.1358 18.3413 36.2742 18.4792 36.0055C18.4883 35.9881 18.4933 36.0052 18.495 36.053L20.287 41.4196L19.6467 40.705L21.3078 47.3321L20.3265 46.2414C20.3265 46.2414 22.1688 51.7807 22.0543 51.6247C21.9393 51.4684 21.4996 50.8078 21.4996 50.8078C21.4996 50.8078 22.225 53.0303 22.1111 52.8607C21.997 52.6909 21.6363 52.2085 21.6363 52.2085C21.6363 52.2085 24.9213 61.6994 24.7014 61.2877C24.4816 60.876 23.2578 59.4281 23.2578 59.4281L24.6531 62.5706L24.0632 62.1686C24.0632 62.1686 26.7404 71.117 26.6579 70.8454C26.5753 70.5739 24.9142 67.7986 24.9871 68.0921C25.0603 68.3853 25.724 70.1112 25.5349 69.9242C25.3458 69.7369 25.1517 69.6833 25.1517 69.6833C25.1517 69.6833 26.4655 73.3043 27.7709 76.2604C27.7844 76.2904 26.4931 75.2297 26.4931 75.2297L27.1433 77.3324C27.1433 77.3324 28.5444 80.8387 28.0125 80.4222C27.4805 80.006 25.2003 79.5165 25.2003 79.5165L18.2977 79.1723L9.55639 78.7951Z" fill="#2E657C"/>
<path fill-rule="evenodd" clip-rule="evenodd" d="M0.502756 39.256L0.51063 39.2731L2.87119 44.3387L2.17315 43.6361L3.21828 45.9009L2.40849 45.081L4.50083 51.5858L3.74582 50.8024L5.33079 54.2555L4.81876 53.6597L5.13113 54.8312L4.73474 54.3424L6.31854 57.4547L5.69293 56.7266L6.06765 57.8119L6.43184 59.1774L5.79715 58.1561L7.68102 62.7615L6.99949 61.6715L9.78357 68.5088L8.78792 67.6818L9.43051 69.274L8.64184 68.4649L11.9532 75.5699L11.0799 74.647L11.6944 76.8334L10.5758 75.6238L12.2117 80.4172L11.8039 80.3985C12.0785 81.5357 12.2029 82.1644 12.1282 82.1166C12.1142 82.1079 12.0873 82.0985 12.0471 82.0885L12.0644 82.116L11.9848 82.0743C9.79353 81.6164 -15.1146 79.9319 -15.1146 79.9319L-15.8685 79.8825L-12.0062 71.8062L-13.4495 72.8595L-12.1699 69.8821L-12.763 70.1278L-10.6611 67.4432L-11.7437 68.0076L-10.5556 66.0496L-11.8048 66.811L-8.16665 60.1441L-8.79905 60.4444L-7.96629 59.1131L-8.83849 59.758L-7.7457 58.4454L-7.9409 58.4367L-7.60503 57.5929L-8.49418 58.6918L-4.08833 51.136L-4.78979 51.495L-4.12334 50.3901L-4.88002 51.002L-3.69243 49.0475L-4.20054 49.5483L-2.45704 46.1434L-3.00675 46.8076L-1.57603 43.3519L-1.96952 43.4953L0.482379 39.2909L0.495553 39.2621L0.502756 39.256Z" fill="#2E657C"/>
<path fill-rule="evenodd" clip-rule="evenodd" d="M39.6691 57.3858C41.4487 54.1911 41.745 51.906 41.7722 51.9473C42.5155 55.4278 43.8534 57.5651 45.2659 59.7582L44.4187 59.341L45.9554 61.784L44.7363 60.7101L45.8084 62.7598L44.8403 62.0546L48.0395 69.0944L47.3249 68.7043L47.8363 69.7996L47.2979 69.4176C47.2979 69.4176 49.5838 73.2736 49.3727 73.014C49.1613 72.7541 47.5529 71.1755 47.5529 71.1755L50.9471 79.1952L50.3001 78.7726L51.0086 79.9127C51.0086 79.9127 52.5845 82.6644 52.2423 82.3628C52.0426 82.1869 51.2981 81.4872 50.7126 80.935C51.049 81.9796 51.2448 82.5898 51.2448 82.5898L48.0304 82.3884L44.6067 81.904L43.3598 81.9563L37.8584 82.0522C37.8584 82.0522 37.2436 82.1991 36.7222 82.3499C36.2011 82.501 35.9698 80.987 35.9698 80.987C35.9698 80.987 34.5951 81.5885 33.9686 82.0493C33.3418 82.5101 34.1466 80.5478 34.1466 80.5478C34.1466 80.5478 33.3971 81.0441 32.8107 81.6819C32.2243 82.3193 33.1866 80.4051 33.1866 80.4051C33.1866 80.4051 32.3821 80.2815 31.0618 81.3138C30.433 81.8059 30.7541 81.3335 31.6675 79.8142L30.0779 81.0745C30.0779 81.0745 31.5419 78.2889 31.412 78.3092C31.2817 78.3296 33.1942 75.6689 33.4369 75.2352C33.6799 74.8016 32.41 75.8688 32.3207 75.9889C32.2317 76.109 33.2777 74.3121 33.5174 73.9566C33.7575 73.6011 36.0943 69.2403 36.0943 69.2403C36.0943 69.2403 35.8027 69.4157 35.5096 69.6327C35.2169 69.8493 36.1639 68.0715 36.3115 67.5907C36.459 67.1102 35.4809 68.333 35.0775 68.7334C34.6741 69.1338 35.274 68.3236 36.5126 66.3704C37.7512 64.4172 39.2235 61.1682 39.2235 61.1682C39.2235 61.1682 38.7592 61.4127 38.5203 61.7085C38.2817 62.0042 39.0645 60.0158 39.1857 59.4802C39.3069 58.9445 38.2688 60.3271 38.0027 60.6829C37.7363 61.0388 38.648 59.2189 39.6691 57.3858Z" fill="#214A5F"/>
<path fill-rule="evenodd" clip-rule="evenodd" d="M4.33074 52.63C6.26233 49.1627 6.58377 46.6823 6.61334 46.7271C7.42017 50.505 8.87223 52.8247 10.4054 55.2048L9.48554 54.7521L11.1537 57.4034L9.83041 56.238L10.9938 58.4625L9.94341 57.6972L13.4152 65.3373L12.6397 64.914L13.1947 66.1029L12.6107 65.6883C12.6107 65.6883 15.0915 69.8736 14.8623 69.5918C14.633 69.3095 12.887 67.5963 12.887 67.5963L16.5711 76.3002L15.8687 75.8417L16.6378 77.0787C16.6378 77.0787 18.3484 80.0655 17.9769 79.7381C17.7599 79.5473 16.9519 78.7878 16.3167 78.1882C16.6817 79.3222 16.8943 79.9845 16.8943 79.9845L13.4055 79.7659L9.68988 79.2402L8.33648 79.297L2.36551 79.401C2.36551 79.401 1.69824 79.5602 1.13261 79.7242C0.56689 79.8883 0.316001 78.2447 0.316001 78.2447C0.316001 78.2447 -1.17613 78.8976 -1.8562 79.3978C-2.5363 79.898 -1.66296 77.7681 -1.66296 77.7681C-1.66296 77.7681 -2.47649 78.307 -3.11288 78.999C-3.74918 79.691 -2.70475 77.6135 -2.70475 77.6135C-2.70475 77.6135 -3.57797 77.4795 -5.01086 78.5996C-5.69347 79.1333 -5.34477 78.6209 -4.3533 76.9719L-6.07874 78.34C-6.07874 78.34 -4.48964 75.3167 -4.63098 75.3387C-4.77232 75.3606 -2.69661 72.4733 -2.43304 72.0025C-2.16945 71.5317 -3.54791 72.6899 -3.64452 72.8204C-3.74127 72.9505 -2.60618 71.0002 -2.34566 70.6147C-2.08528 70.2288 0.450813 65.4961 0.450813 65.4961C0.450813 65.4961 0.134639 65.6863 -0.183408 65.9217C-0.501427 66.1571 0.526637 64.2272 0.686744 63.7057C0.846851 63.1842 -0.214732 64.5113 -0.652604 64.9459C-1.09048 65.3802 -0.439216 64.501 0.905168 62.3815C2.24943 60.2613 3.84711 56.735 3.84711 56.735C3.84711 56.735 3.34313 57.0004 3.08413 57.3214C2.8251 57.6423 3.67468 55.4844 3.80612 54.9032C3.93786 54.3217 2.81102 55.8222 2.52216 56.2087C2.23319 56.5945 3.22237 54.6194 4.33074 52.63Z" fill="#214A5F"/>
<path fill-rule="evenodd" clip-rule="evenodd" d="M15.5909 81.4275L10.2004 83.3287L13.7755 76.6609C13.7755 76.6609 12.9986 77.1101 12.6534 77.4504C12.3083 77.7907 13.6151 75.8753 13.8218 75.4313C14.0282 74.9877 12.4953 76.6025 12.4953 76.6025L16.5883 66.8814C16.5883 66.8814 15.5157 68.1274 15.2405 68.3741C14.9653 68.6205 17.1571 64.8868 17.3187 64.635C17.4801 64.3834 16.9666 64.9039 16.6533 65.1487C16.3404 65.3935 17.4792 63.3989 17.4792 63.3989C17.4792 63.3989 16.6059 64.3954 16.1691 64.8936C15.7323 65.3915 20.6948 54.3427 20.6948 54.3427L19.3756 55.4744L21.2583 51.4779C21.2583 51.4779 20.8499 51.8321 20.5988 52.0485C20.3473 52.2651 21.8591 50.0546 21.9586 49.8311C22.0581 49.6077 21.1758 50.4379 20.7349 50.8528C20.2937 51.268 24.2886 44.4462 24.4274 44.2134C24.4368 44.1979 24.4417 44.2131 24.4438 44.2547L26.2949 48.9412L25.64 48.3145L27.3649 54.0985L26.3613 53.1418C26.3613 53.1418 28.2645 57.9794 28.1474 57.8425C28.0297 57.7059 27.5789 57.1273 27.5789 57.1273C27.5789 57.1273 28.3286 59.0686 28.2118 58.92C28.095 58.7712 27.7256 58.3485 27.7256 58.3485C27.7256 58.3485 31.1171 66.6379 30.8914 66.2779C30.6657 65.9178 29.4136 64.6482 29.4136 64.6482L30.8492 67.3951L30.2473 67.0412C30.2473 67.0412 33.018 74.8537 32.9325 74.6167C32.8473 74.3797 31.1432 71.9508 31.219 72.2069C31.2948 72.463 31.9793 73.9709 31.7857 73.8065C31.5925 73.6422 31.3949 73.5944 31.3949 73.5944C31.3949 73.5944 32.7504 76.7571 34.0938 79.341L32.789 78.4346L33.4615 80.2709C33.4615 80.2709 34.905 83.3345 34.362 82.9681C33.8192 82.6019 31.4983 82.1605 31.4983 82.1605L24.4792 81.8144L15.5909 81.4275Z" fill="#214A5F"/>
<path fill-rule="evenodd" clip-rule="evenodd" d="M65.3216 75.7724C65.3579 76.1073 65.4228 79.5045 65.4228 79.5045C65.4228 79.5045 66.9036 79.497 67.1741 80.4063C67.374 81.0776 67.4481 81.6905 67.1694 81.8012C66.8907 81.9123 62.4739 81.5206 62.4739 81.5206L61.9842 75.5018C61.9842 75.5018 65.2853 75.4376 65.3216 75.7724Z" fill="#321917"/>
<path fill-rule="evenodd" clip-rule="evenodd" d="M52.22 74.5802L51.6222 78.0246C51.6222 78.0246 52.8345 78.6997 53.0429 79.1925C53.2511 79.6855 53.1085 80.3013 53.1085 80.3013C53.0452 80.5942 49.8624 80.0953 48.6838 79.9045L49.6294 74.1653L52.22 74.5802Z" fill="#321917"/>
<path fill-rule="evenodd" clip-rule="evenodd" d="M72.1038 39.4917L72.0877 81.7669C72.0877 81.7669 71.742 81.9222 71.5912 81.8511C71.4401 81.7801 71.4741 81.5861 71.4741 81.5861L71.6249 39.5168L72.1038 39.4917Z" fill="#362120"/>
<path fill-rule="evenodd" clip-rule="evenodd" d="M72.2206 39.2621H71.4556V43.2314C71.4556 43.338 71.4937 43.4397 71.5619 43.5146C71.6298 43.5899 71.722 43.6318 71.8186 43.6318H71.8576C71.9539 43.6318 72.0461 43.5899 72.1143 43.5146C72.1822 43.4397 72.2206 43.338 72.2206 43.2314C72.2206 42.1523 72.2206 39.2621 72.2206 39.2621Z" fill="#362120"/>
<path fill-rule="evenodd" clip-rule="evenodd" d="M59.3312 55.3162C59.3432 54.7014 61.0023 62.5681 61.7333 64.3709C61.0936 68.8956 61.0544 76.895 62.3551 76.722C64.0545 76.4963 65.8125 77.1466 65.8942 76.7333C66.1489 75.4469 65.8854 66.73 65.191 64.0089C65.2621 57.3408 65.3587 51.7782 64.8318 48.0439C64.8318 48.0439 57.0735 47.2076 56.411 47.2428C55.7488 47.2777 54.1735 49.0297 54.1735 49.0297L52.4015 62.4383C50.0076 68.3515 48.4876 74.1934 49.3676 74.4927C49.3676 74.4927 51.8356 75.3183 52.4064 75.2231C53.0824 75.1101 55.0114 67.8075 56.5427 64.0706C56.5427 64.0706 59.3257 55.5991 59.3312 55.3162Z" fill="#362120"/>
<mask id="mask7_966_620" style="mask-type:luminance" maskUnits="userSpaceOnUse" x="49" y="47" width="17" height="30">
<path fill-rule="evenodd" clip-rule="evenodd" d="M59.3312 55.3163C59.3429 54.7015 61.0023 62.5682 61.7333 64.3706C61.0936 68.8957 61.0544 76.8948 62.3551 76.722C63.1227 76.62 63.902 76.6968 64.5337 76.7734C65.3005 76.8667 65.8494 76.9597 65.8942 76.7333C66.1489 75.4469 65.8854 66.73 65.191 64.009C65.2621 57.3408 65.3587 51.778 64.8315 48.044C64.8315 48.044 57.0735 47.2074 56.411 47.2426C55.7488 47.2778 54.1735 49.0298 54.1735 49.0298L52.4015 62.4384C50.0076 68.3516 48.4876 74.1934 49.3676 74.4927C49.3676 74.4927 51.8356 75.3184 52.4064 75.2231C53.0824 75.1101 55.0114 67.8075 56.5427 64.0706C56.5427 64.0706 59.3257 55.5991 59.3312 55.3163Z" fill="white"/>
</mask>
<g mask="url(#mask7_966_620)">
<path fill-rule="evenodd" clip-rule="evenodd" d="M59.2478 77.2093C59.8149 77.6327 63.6268 79.045 64.3019 77.7483C64.9773 76.4515 65.4042 72.5948 64.9662 68.835C64.5282 65.0749 63.8754 62.688 64.2636 60.0445C64.6515 57.4006 63.491 49.6479 63.491 49.6479L65.1366 49.0773L67.7717 50.2743C67.7717 50.2743 69.3868 76.0447 67.3504 77.6498C65.3137 79.2552 60.3571 80.3059 59.7218 78.8419C59.0865 77.3779 58.6805 76.786 59.2478 77.2093Z" fill="#452924"/>
<path fill-rule="evenodd" clip-rule="evenodd" d="M50.5882 76.4278C50.9805 75.7513 55.0796 65.8994 55.8372 63.3372C56.5946 60.7747 59.0391 54.0172 59.0391 54.0172L59.4279 55.2881C59.4279 55.2881 56.8235 67.9253 55.1381 72.5546C53.4531 77.1837 50.1956 77.1042 50.5882 76.4278Z" fill="#452924"/>
</g>
<path fill-rule="evenodd" clip-rule="evenodd" d="M70.3066 40.109C70.5314 39.6354 70.3809 38.8317 70.6175 38.6279C70.8537 38.4245 70.9477 38.5947 71.1509 38.6156C71.3537 38.6366 71.5689 37.9408 71.9597 38.3021C72.3509 38.6634 72.624 39.9705 72.2794 40.339C71.9346 40.7074 71.3634 40.8491 71.3634 40.8491C71.3634 40.8491 70.0817 40.5824 70.3066 40.109Z" fill="#D07935"/>
<path fill-rule="evenodd" clip-rule="evenodd" d="M61.8173 26.8265C61.9318 26.4971 62.2069 23.447 61.6053 21.4631C61.0034 19.4799 59.5066 19.136 58.0979 19.8325C56.6891 20.529 56.3987 22.7341 56.6745 24.1377C56.9503 25.5413 57.7138 27.2924 57.7138 27.2924L57.8323 29.028L61.2748 29.1691L61.0564 27.4161C61.0564 27.4161 61.7025 27.1558 61.8173 26.8265Z" fill="#D07935"/>
<path fill-rule="evenodd" clip-rule="evenodd" d="M61.5696 22.5503C61.8249 23.0779 62.3694 23.5235 62.2365 23.8344C62.1036 24.1454 61.8416 24.2545 61.8416 24.2545C61.8416 24.2545 61.3143 22.023 61.5696 22.5503Z" fill="#D07935"/>
<path fill-rule="evenodd" clip-rule="evenodd" d="M64.6655 29.8993C64.3221 29.7482 62.3123 28.8919 60.2148 28.5635C58.1172 28.2351 53.946 30.2471 53.6246 30.602C53.3028 30.9568 52.066 42.1349 52.1002 46.4417C52.1345 50.7481 54.5406 49.2399 55.2678 49.2735C59.5332 49.4711 62.8595 49.824 64.9041 49.5373C65.3842 49.4701 65.7244 44.3083 65.6169 38.316C65.5359 33.7993 65.0092 30.0501 64.6655 29.8993Z" fill="#EAE4A2"/>
<path fill-rule="evenodd" clip-rule="evenodd" d="M52.2138 42.7845C52.2393 44.0422 51.9293 48.3509 52.8388 49.0771C53.7481 49.8036 53.5532 49.4691 53.8933 49.5004C54.2332 49.5321 55.288 49.2363 55.476 49.297C55.6639 49.3574 60.2247 49.6722 60.906 49.5501C61.5875 49.4281 62.3604 46.78 62.8709 44.7183C63.3818 42.6563 62.9798 35.848 62.779 33.3375C62.6607 31.8551 62.0822 29.8338 61.7784 29.6064C61.3685 29.2997 60.5318 30.7689 59.8272 30.6394C58.1064 30.3236 52.3043 31.4712 52.0431 34.5778C51.782 37.6847 52.1883 41.5275 52.2138 42.7845Z" fill="#DCCF5E"/>
<path fill-rule="evenodd" clip-rule="evenodd" d="M64.265 37.8825L61.3372 43.7685L61.5073 44.9268L64.438 38.8298L64.265 37.8825Z" fill="#52271F"/>
<path fill-rule="evenodd" clip-rule="evenodd" d="M62.9836 29.2416C62.0079 29.3695 61.2695 29.7008 60.7941 30.8119L59.7783 29.58L60.5573 28.6143C61.1545 27.9559 63.1701 28.736 62.9836 29.2416Z" fill="#52271F"/>
<path fill-rule="evenodd" clip-rule="evenodd" d="M61.093 21.587C61.3609 21.6148 61.6914 21.3797 61.8823 21.2037C62.4833 20.6503 62.7837 19.7652 62.5096 18.9464C62.4057 18.6361 62.1478 18.0913 61.8076 18.0274C61.6393 17.9957 61.5087 18.1369 61.4297 18.2838C61.3969 18.3451 61.3594 18.4904 61.2777 18.4885C61.2048 18.4872 61.1299 18.3991 61.0678 18.3655C60.9733 18.3138 60.8644 18.2922 60.7598 18.2815C60.6038 18.2654 60.4428 18.2996 60.297 18.3603C60.2112 18.3961 60.126 18.4623 60.0332 18.4717C59.8681 18.4878 59.686 18.3577 59.5215 18.3338C59.1354 18.2776 58.7557 18.4194 58.4377 18.6567C58.1953 18.8379 57.967 19.0752 57.8253 19.3613C57.7509 19.5114 57.7635 19.8024 57.6242 19.9018C57.5366 19.9641 57.4184 19.9176 57.3235 19.9096C57.1994 19.8986 57.0849 19.9221 56.9672 19.9661C56.2968 20.2176 55.9783 20.9325 55.8612 21.66C55.8132 21.959 55.875 22.238 55.9326 22.5295C56.0196 22.9709 56.1264 23.382 56.339 23.7724C56.4707 24.0139 56.6794 24.2112 56.7831 24.4698C56.8651 24.6739 56.8677 24.9196 56.8993 25.1373C56.9576 25.5396 57.0987 26.0087 57.3879 26.2877C57.7864 26.6726 58.4828 26.4434 58.9079 26.2506C59.5233 25.9719 60.0526 25.5322 60.3198 24.8373C60.4229 24.5686 60.4068 24.2832 60.4387 24.0006C60.4618 23.7963 60.5145 23.5974 60.5283 23.3917C60.5403 23.2096 60.5227 23.0197 60.4844 22.8418C60.453 22.6958 60.432 22.4356 60.4785 22.2925C60.5587 22.0458 60.8515 21.7833 61.093 21.587Z" fill="#362120"/>
<path fill-rule="evenodd" clip-rule="evenodd" d="M60.4291 25.9526C60.4291 25.9526 62.7424 36.8536 61.4391 47.6861C61.175 49.8818 50.3905 49.3904 50.1157 48.1828C48.5939 41.4962 48.2821 28.1725 49.9939 26.4522C51.9966 24.4399 60.8208 24.4286 60.4291 25.9526Z" fill="#7E371B"/>
<mask id="mask8_966_620" style="mask-type:luminance" maskUnits="userSpaceOnUse" x="48" y="24" width="14" height="26">
<path fill-rule="evenodd" clip-rule="evenodd" d="M60.4291 25.9527C60.4291 25.9527 62.7424 36.8536 61.4391 47.6859C61.1747 49.8819 50.3905 49.3904 50.1157 48.1828C48.5939 41.4963 48.2821 28.1723 49.9939 26.4522C51.9966 24.4399 60.8208 24.4286 60.4291 25.9527Z" fill="white"/>
</mask>
<g mask="url(#mask8_966_620)">
<path fill-rule="evenodd" clip-rule="evenodd" d="M59.2932 25.5286C58.7773 25.6904 57.4705 27.4766 57.2878 28.9339C57.1051 30.3911 60.949 50.1649 55.87 49.2198C54.9912 49.0561 61.8911 50.1072 62.3785 48.8679C62.8659 47.6286 61.7637 33.5132 61.5726 30.344C61.3814 27.1747 60.7452 25.4724 60.2253 25.5263C59.7054 25.5803 59.8093 25.3665 59.2932 25.5286Z" fill="#AE4B1E"/>
</g>
<path fill-rule="evenodd" clip-rule="evenodd" d="M60.3087 23.2951C60.5456 23.2826 60.754 23.6497 60.7742 24.114C60.7944 24.5783 60.6188 24.9658 60.3822 24.9781C60.1457 24.9907 59.9369 24.6239 59.9167 24.1592C59.8965 23.6949 60.0722 23.3077 60.3087 23.2951Z" fill="#D07935"/>
<path fill-rule="evenodd" clip-rule="evenodd" d="M60.8439 28.2551C60.8439 28.2551 60.4701 27.742 59.475 27.9174C57.5774 28.2516 57.8581 31.4373 57.5059 31.539C56.4933 31.8318 49.0181 32.7088 48.8164 31.828C48.4724 30.3236 48.5248 28.9209 48.644 27.8638C48.8299 26.2144 49.9959 25.8318 51.3897 25.4466C53.677 24.8137 58.9077 24.3758 60.0643 24.9596C61.2213 25.5434 60.8439 28.2551 60.8439 28.2551Z" fill="#52271F"/>
<mask id="mask9_966_620" style="mask-type:luminance" maskUnits="userSpaceOnUse" x="48" y="24" width="13" height="9">
<path fill-rule="evenodd" clip-rule="evenodd" d="M60.8439 28.2551C60.8439 28.2551 60.4701 27.742 59.475 27.917C57.5774 28.2516 57.8581 31.4373 57.5059 31.539C56.4933 31.8318 49.0181 32.7088 48.8164 31.828C48.4724 30.3236 48.5248 28.9209 48.644 27.8634C48.8299 26.2144 49.9959 25.8318 51.3897 25.4466C53.677 24.8137 58.9077 24.3758 60.0643 24.9596C61.2213 25.5434 60.8439 28.2551 60.8439 28.2551Z" fill="white"/>
</mask>
<g mask="url(#mask9_966_620)">
<path d="M60.9472 24.8265C60.9466 24.8262 60.5953 24.7181 60.0877 24.7181C59.3312 24.7177 58.2255 24.9593 57.4216 26.1611C56.6757 27.2757 56.5337 28.6238 56.5337 29.4914C56.5337 30.0281 56.5881 30.381 56.5881 30.3817L56.5992 30.3797L56.5969 30.3675C54.9098 30.7452 53.1442 31.051 51.4078 31.051C50.6148 31.051 49.8282 30.9874 49.0579 30.8376L49.0559 30.8495L49.067 30.8486C49.067 30.8473 49.021 30.1918 49.021 29.4023C49.0207 28.5935 49.0696 27.6448 49.2637 27.1243C49.5708 26.3006 50.0243 25.7988 50.4008 25.5024C50.5893 25.3542 50.7582 25.2576 50.8803 25.1979C51.0021 25.1381 51.0765 25.1159 51.0765 25.1159L51.0844 25.1007L51.0706 25.0923C51.0691 25.0926 49.8606 25.4581 49.2432 27.1149C49.0468 27.6432 48.9988 28.5922 48.9988 29.4023C48.9988 30.1928 49.0447 30.8505 49.0447 30.8505L49.0538 30.8618C49.8258 31.0116 50.6139 31.0756 51.4078 31.0756C53.1465 31.0756 54.9136 30.7695 56.6013 30.3917L56.6101 30.3775C56.6101 30.3768 56.5559 30.0265 56.5559 29.4914C56.5559 28.6267 56.6979 27.2835 57.4394 26.1756C58.2381 24.9819 59.335 24.7426 60.0877 24.7426C60.5924 24.7426 60.9405 24.8504 60.9411 24.8501L60.9548 24.8417L60.9472 24.8265Z" fill="#B1B5C4"/>
</g>
<path fill-rule="evenodd" clip-rule="evenodd" d="M65.2779 44.1455C65.1766 44.1139 65.0926 44.0677 65.0308 44.006C64.4415 43.4151 61.7154 31.7518 61.8392 30.8037C61.9631 29.856 61.9645 29.2958 63.0591 29.2848C63.4661 29.2803 64.3399 29.2106 64.77 30.042C65.816 32.064 67.0423 36.0114 67.7862 38.9504C68.8946 39.0802 69.9576 39.2862 69.9576 39.2862C70.1851 38.8464 72.1989 39.9876 71.5235 41.254C71.1119 42.026 67.8811 43.6689 66.718 44.1487C66.088 44.408 65.6307 44.4258 65.2779 44.1455Z" fill="#EAE4A2"/>
<mask id="mask10_966_620" style="mask-type:luminance" maskUnits="userSpaceOnUse" x="61" y="29" width="11" height="16">
<path fill-rule="evenodd" clip-rule="evenodd" d="M65.2779 44.1455C65.1766 44.1139 65.0926 44.0677 65.0308 44.006C64.4415 43.4151 61.7154 31.7518 61.8392 30.8037C61.9631 29.856 61.9645 29.2958 63.0591 29.2848C63.4661 29.2803 64.3399 29.2106 64.77 30.042C65.816 32.064 67.0423 36.0114 67.7859 38.9504C68.8946 39.0802 69.9573 39.2862 69.9573 39.2862C70.1851 38.8464 72.1989 39.9876 71.5235 41.254C71.1119 42.026 67.8811 43.6689 66.718 44.1487C66.088 44.408 65.6307 44.4255 65.2779 44.1455Z" fill="white"/>
</mask>
<g mask="url(#mask10_966_620)">
<path fill-rule="evenodd" clip-rule="evenodd" d="M61.9478 30.0721C61.9478 30.0721 64.7185 41.9906 65.6998 42.698C66.6814 43.4055 71.97 40.6305 71.97 40.6305C71.97 40.6305 71.2182 42.9483 69.9429 43.7752C68.6677 44.6022 64.8414 46.3232 64.1119 44.6264C63.3823 42.9292 60.6003 30.2665 61.2748 29.169C61.949 28.0718 61.9478 30.0721 61.9478 30.0721Z" fill="#DDD167"/>
</g>
<path fill-rule="evenodd" clip-rule="evenodd" d="M52.4454 38.6728C52.3523 38.265 48.6671 38.822 48.7244 39.0648L49.1756 43.9657C50.1616 44.338 51.2345 44.1646 52.5089 43.8101C52.5089 43.8101 52.4776 38.8142 52.4454 38.6728Z" fill="#9A441D"/>
<mask id="mask11_966_620" style="mask-type:luminance" maskUnits="userSpaceOnUse" x="48" y="38" width="5" height="7">
<path fill-rule="evenodd" clip-rule="evenodd" d="M52.4454 38.6728C52.3523 38.265 48.6671 38.822 48.7244 39.0648L49.1756 43.9657C50.1616 44.338 51.2345 44.1646 52.5089 43.8101C52.5089 43.8101 52.4776 38.8142 52.4454 38.6728Z" fill="white"/>
</mask>
<g mask="url(#mask11_966_620)">
<path fill-rule="evenodd" clip-rule="evenodd" d="M52.6125 38.4761C52.203 38.5174 51.5782 38.7748 51.5375 39.2798C51.4968 39.7845 51.926 42.0567 51.7831 43.3589C51.6596 44.4875 51.118 44.3464 51.3431 44.4329C51.5683 44.5194 52.508 44.7019 52.7489 43.8707C52.9896 43.0396 53.0218 38.4351 52.6125 38.4761Z" fill="#B7501F"/>
</g>
<path fill-rule="evenodd" clip-rule="evenodd" d="M58.66 33.5607C58.7173 33.1449 62.4339 33.3102 62.3978 33.5582L62.3744 38.4843C61.425 38.9589 60.3421 38.8995 59.0429 38.6812C59.0429 38.6812 58.6404 33.7051 58.66 33.5607Z" fill="#9A441D"/>
<mask id="mask12_966_620" style="mask-type:luminance" maskUnits="userSpaceOnUse" x="58" y="33" width="5" height="6">
<path fill-rule="evenodd" clip-rule="evenodd" d="M58.66 33.5611C58.7174 33.1449 62.4339 33.3102 62.3979 33.5582L62.3744 38.4843C61.425 38.9589 60.3421 38.8995 59.0429 38.6812C59.0429 38.6812 58.6401 33.7051 58.66 33.5611Z" fill="white"/>
</mask>
<g mask="url(#mask12_966_620)">
<path fill-rule="evenodd" clip-rule="evenodd" d="M58.4767 33.3828C58.8877 33.3806 59.5321 33.5708 59.6164 34.0693C59.7007 34.5672 59.4709 36.8746 59.7259 38.1556C59.9472 39.266 60.4739 39.0681 60.2572 39.1782C60.0406 39.288 59.1211 39.5685 58.8093 38.7671C58.4972 37.9654 58.0657 33.3851 58.4767 33.3828Z" fill="#82391B"/>
</g>
<path fill-rule="evenodd" clip-rule="evenodd" d="M57.5838 38.3634C57.4907 37.9555 53.8055 38.5125 53.8632 38.7554L54.3143 43.6563C55.3003 44.0286 56.3733 43.8552 57.6473 43.5006C57.6473 43.5006 57.6163 38.5048 57.5838 38.3634Z" fill="#9A441D"/>
<mask id="mask13_966_620" style="mask-type:luminance" maskUnits="userSpaceOnUse" x="53" y="38" width="5" height="6">
<path fill-rule="evenodd" clip-rule="evenodd" d="M57.5838 38.3634C57.4907 37.9555 53.8055 38.5125 53.8632 38.7554L54.314 43.6563C55.3003 44.0286 56.3733 43.8552 57.6473 43.5006C57.6473 43.5006 57.6163 38.5048 57.5838 38.3634Z" fill="white"/>
</mask>
<g mask="url(#mask13_966_620)">
<path fill-rule="evenodd" clip-rule="evenodd" d="M57.751 38.1669C57.3417 38.2079 56.7167 38.4656 56.6763 38.9706C56.6356 39.4753 57.0648 41.7475 56.9219 43.0497C56.7983 44.1782 56.2565 44.0371 56.4819 44.1237C56.707 44.2102 57.6465 44.3923 57.8874 43.5612C58.1283 42.7304 58.1605 38.1259 57.751 38.1669Z" fill="#B7501F"/>
</g>
<path fill-rule="evenodd" clip-rule="evenodd" d="M52.4676 39.1297C51.2799 38.8075 51.3467 40.1039 51.3411 40.142C51.3007 40.4236 48.7897 40.9454 48.6548 40.3367C48.5228 39.741 48.6158 39.0603 48.6937 38.8343C48.8866 38.2741 51.3212 38.0603 52.0662 38.2537C52.811 38.4471 52.4676 39.1297 52.4676 39.1297Z" fill="#DF5E21"/>
<path fill-rule="evenodd" clip-rule="evenodd" d="M58.6775 34.0181C59.8318 33.5718 59.8778 34.8692 59.8866 34.9067C59.9516 35.1828 62.4962 35.4369 62.5776 34.8169C62.6572 34.2096 62.5055 33.5421 62.4083 33.3255C62.1677 32.7882 59.7258 32.8327 59.001 33.1036C58.2764 33.3749 58.6775 34.0181 58.6775 34.0181Z" fill="#DF5E21"/>
<path fill-rule="evenodd" clip-rule="evenodd" d="M57.6063 38.8201C56.4186 38.4982 56.4853 39.7946 56.4798 39.8327C56.4391 40.1143 53.9284 40.6361 53.7935 40.0274C53.6614 39.4313 53.7542 38.751 53.8324 38.5246C54.025 37.9647 56.4599 37.751 57.2049 37.9441C57.9497 38.1378 57.6063 38.8201 57.6063 38.8201Z" fill="#DF5E21"/>
<path fill-rule="evenodd" clip-rule="evenodd" d="M56.2886 31.3812C56.2386 31.6893 56.4432 36.7558 56.4432 36.7558L55.822 36.7885L55.7602 31.357C55.7602 31.357 56.3387 31.0732 56.2886 31.3812Z" fill="#52271F"/>
<path fill-rule="evenodd" clip-rule="evenodd" d="M50.303 31.6921C50.2523 31.9856 50.4687 37.0718 50.4687 37.0718C50.2237 36.9808 50.0184 37.004 49.8407 37.1051L49.6753 31.6107C49.6753 31.6107 50.3536 31.3989 50.303 31.6921Z" fill="#52271F"/>
<path fill-rule="evenodd" clip-rule="evenodd" d="M47.6208 44.7397V44.7381L60.1948 44.0722L60.3673 48.0371L47.7932 48.7026V48.701L47.7402 48.7055C47.0297 48.7429 46.4143 47.8853 46.3666 46.7914C46.3192 45.6971 46.8573 44.7784 47.5678 44.7406L47.6208 44.7397Z" fill="#362120"/>
<path fill-rule="evenodd" clip-rule="evenodd" d="M60.23 44.0705C60.9405 44.033 61.5559 44.8909 61.6036 45.9849C61.651 47.0789 61.113 47.9978 60.4024 48.0353C59.6919 48.0731 59.0766 47.2151 59.0291 46.1212C58.9814 45.0272 59.5195 44.1082 60.23 44.0705Z" fill="#A12B1F"/>
<mask id="mask14_966_620" style="mask-type:luminance" maskUnits="userSpaceOnUse" x="59" y="44" width="3" height="5">
<path fill-rule="evenodd" clip-rule="evenodd" d="M60.23 44.0705C60.9405 44.033 61.5559 44.8909 61.6036 45.9849C61.651 47.0789 61.1129 47.9978 60.4024 48.0353C59.6919 48.0731 59.0765 47.2151 59.0288 46.1212C58.9814 45.0272 59.5195 44.1082 60.23 44.0705Z" fill="white"/>
</mask>
<g mask="url(#mask14_966_620)">
<path fill-rule="evenodd" clip-rule="evenodd" d="M59.8758 48.0168H59.9314C59.9759 48.0097 60.0424 47.9878 60.1196 47.9549C60.3732 47.848 60.7473 47.6255 60.8612 47.4634C61.1431 47.0617 61.2204 46.548 61.2383 46.052C61.2473 45.7992 61.2473 45.5506 61.1662 45.3103C61.0486 44.9623 60.7953 44.6261 60.4496 44.5567C60.2221 44.5108 60.0681 44.6035 59.8811 44.733C59.6826 44.8709 59.28 45.3659 59.367 46.1373C59.4314 46.7056 59.4855 47.0927 59.9938 47.3785C60.2815 47.5406 60.608 47.3294 60.7517 47.0482C60.7956 46.9623 61.007 46.3707 60.9748 45.8544C60.9528 45.5012 60.8182 45.1831 60.4493 45.0753C60.3644 45.0504 60.2801 45.0714 60.2034 45.1176C60.0945 45.1834 60.0008 45.3013 59.942 45.402C59.7268 45.7721 59.7157 46.3949 59.9823 46.7437C60.0793 46.8702 60.225 46.9293 60.3486 46.8954C60.4329 46.8722 60.5078 46.8066 60.5515 46.6888C60.6135 46.5209 60.5793 46.3068 60.5456 46.1357L60.507 46.1082L60.4818 46.1512C60.5128 46.3087 60.5485 46.5063 60.4912 46.6617C60.4569 46.7543 60.3989 46.8073 60.3328 46.8254C60.2309 46.8535 60.112 46.8015 60.0321 46.6972C59.7824 46.371 59.7953 45.7873 59.997 45.4408C60.0506 45.3491 60.1355 45.2409 60.2347 45.1809C60.2968 45.1434 60.3641 45.125 60.4326 45.145C60.7696 45.2435 60.8896 45.5367 60.9098 45.8593C60.9408 46.3581 60.7374 46.9297 60.6949 47.0126C60.567 47.2629 60.2795 47.4586 60.0236 47.3145C59.5394 47.042 59.4932 46.67 59.432 46.1282C59.3491 45.3962 59.7277 44.9248 59.9159 44.794C60.0877 44.6749 60.2286 44.5854 60.4379 44.6274C60.7614 44.6923 60.995 45.0097 61.1051 45.3355C61.1832 45.5664 61.1818 45.8057 61.173 46.0491C61.1557 46.5302 61.0831 47.0298 60.8097 47.4192C60.7002 47.5748 60.3395 47.7847 60.0962 47.8877C60.0345 47.9138 59.9803 47.9329 59.9399 47.9419L59.8919 47.9468L59.8521 47.9729L59.8758 48.0168Z" fill="#601916"/>
</g>
<path fill-rule="evenodd" clip-rule="evenodd" d="M51.1819 48.6258C51.0861 48.6632 50.986 48.6858 50.8824 48.6913C50.1083 48.7323 49.4382 47.8092 49.387 46.6316C49.3358 45.4536 49.9227 44.464 50.6965 44.4233C50.842 44.4152 50.9837 44.4417 51.1183 44.4972C50.4983 44.741 50.0641 45.6199 50.1083 46.64C50.1502 47.5967 50.5999 48.3852 51.1819 48.6258Z" fill="#7E371B"/>
<path fill-rule="evenodd" clip-rule="evenodd" d="M57.4614 48.2931C57.3657 48.3309 57.2653 48.3535 57.1616 48.3586C56.3876 48.4 55.7178 47.4768 55.6665 46.2989C55.6153 45.1213 56.202 44.1316 56.976 44.0906C57.1212 44.0829 57.2629 44.109 57.3976 44.1649C56.7775 44.4087 56.3434 45.2876 56.3879 46.3076C56.4295 47.264 56.8791 48.0525 57.4614 48.2931Z" fill="#7E371B"/>
<path fill-rule="evenodd" clip-rule="evenodd" d="M71.2419 38.5841C71.2419 38.5841 71.6667 38.3232 71.9252 39.208C72.1834 40.0927 71.8242 40.587 71.91 40.6229C71.9955 40.6587 72.0786 40.9035 72.1047 40.7595C72.131 40.6155 72.5022 39.7049 72.2841 39.1447C72.0663 38.5844 71.8994 38.1937 71.71 38.1999C71.434 38.2089 71.2419 38.5841 71.2419 38.5841Z" fill="#362120"/>
<path fill-rule="evenodd" clip-rule="evenodd" d="M17.5855 73.9311L74.748 82.1931L98.4997 88.5803L98.5538 102.748L95.8784 123.531L86.5784 135.57L21.6726 129.065L17.5855 73.9311Z" fill="#6A3358"/>
<mask id="mask15_966_620" style="mask-type:luminance" maskUnits="userSpaceOnUse" x="-26" y="-45" width="220" height="162">
<path d="M-25.7942 116.829H193.771V-44.6188H-25.7942V116.829Z" fill="white"/>
</mask>
<g mask="url(#mask15_966_620)">
<mask id="mask16_966_620" style="mask-type:luminance" maskUnits="userSpaceOnUse" x="17" y="73" width="82" height="63">
<path fill-rule="evenodd" clip-rule="evenodd" d="M17.5855 73.9314L74.748 82.1933L98.4997 88.5806L98.5538 102.749L95.8784 123.531L86.5784 135.57L21.6726 129.066L17.5855 73.9314Z" fill="white"/>
</mask>
<g mask="url(#mask16_966_620)">
<path fill-rule="evenodd" clip-rule="evenodd" d="M92.514 138.755L98.8881 109.913L102.498 98.733L98.3439 86.934L98.4997 88.5806L80.1308 90.1696L74.0937 101.45L67.7983 104.683L63.8274 107.135L58.5973 115.468L51.2363 136.833L92.514 138.755Z" fill="#4B2242"/>
<path fill-rule="evenodd" clip-rule="evenodd" d="M74.1182 110.589L80.1308 90.1698L69.0489 85.1752L53.4641 83.798L45.1769 83.1374L21.0256 75.1024L22.0101 104.683L33.5701 115.419L50.385 128.073L74.1182 110.589Z" fill="#512546"/>
<path fill-rule="evenodd" clip-rule="evenodd" d="M42.9959 100.167C43.3575 99.0504 53.4642 83.7981 53.4642 83.7981C53.4642 83.7981 28.2098 71.5574 27.2156 71.4576C26.2214 71.3578 14.653 72.5542 13.6588 72.6536C12.6646 72.7534 19.2305 96.1233 19.2305 96.1233C19.2305 96.1233 42.6344 101.283 42.9959 100.167Z" fill="#45203D"/>
</g>
</g>
<path fill-rule="evenodd" clip-rule="evenodd" d="M47.7192 119.629C45.316 113.713 32.9594 71.0355 26.563 70.8024C19.8168 70.5563 14.21 74.2674 12.2793 70.8024C10.3486 67.337 5.84339 58.3457 3.05474 55.9795C0.265909 53.6133 -7.71108 26.2223 -16.0777 29.7319C-24.444 33.2414 -40.7084 51.0107 -40.7084 51.0107L-50.3621 117.499C-50.3621 117.499 50.1221 125.544 47.7192 119.629Z" fill="#31192E"/>
<mask id="mask17_966_620" style="mask-type:luminance" maskUnits="userSpaceOnUse" x="-26" y="-45" width="220" height="162">
<path d="M-25.7942 116.829H193.771V-44.6188H-25.7942V116.829Z" fill="white"/>
</mask>
<g mask="url(#mask17_966_620)">
<mask id="mask18_966_620" style="mask-type:luminance" maskUnits="userSpaceOnUse" x="-51" y="29" width="99" height="93">
<path fill-rule="evenodd" clip-rule="evenodd" d="M47.7192 119.629C45.316 113.713 32.9594 71.0356 26.5631 70.8025C24.1654 70.7153 21.9112 71.1276 19.9152 71.54C16.2956 72.2878 13.5238 73.0359 12.2793 70.8025C10.3486 67.3371 5.84342 58.3458 3.05477 55.9796C0.265939 53.6134 -7.71104 26.2224 -16.0776 29.732C-24.444 33.2416 -40.7084 51.0109 -40.7084 51.0109L-50.362 117.499C-50.362 117.499 50.1221 125.544 47.7192 119.629Z" fill="white"/>
</mask>
<g mask="url(#mask18_966_620)">
<path fill-rule="evenodd" clip-rule="evenodd" d="M2.74209 35.3772L-14.3059 28.9302L-7.3243 58.9689L-11.3836 74.4163L-9.59747 90.4711L-16.7416 105.935L-18.0402 121.335L-3.91486 93.7045L1.3076 76.5655L13.2955 71.7301L27.4211 70.1912L2.74209 35.3772Z" fill="#401E3A"/>
<path fill-rule="evenodd" clip-rule="evenodd" d="M58.1553 130.909C58.1553 130.909 40.0043 86.8126 36.9804 81.8842C33.9568 76.9559 27.4211 70.1912 27.4211 70.1912C27.4211 70.1912 23.4616 80.6236 21.6952 81.7696C19.9287 82.9159 13.1743 85.6664 11.9274 86.3541C10.6803 87.0418 12.8625 92.543 14.0057 94.7207C15.1486 96.8982 18.1789 102.744 19.1576 104.577C20.1365 106.411 13.1743 118.445 12.3431 119.591C11.5117 120.737 14.0057 124.592 14.0057 124.592L58.1553 130.909Z" fill="#401E3A"/>
</g>
</g>
<path fill-rule="evenodd" clip-rule="evenodd" d="M-33.5827 100.611C-33.5381 100.976 -33.4935 101.341 -33.449 101.706C-33.6192 102.291 -33.7894 102.875 -33.9596 103.46C-33.8184 102.515 -33.6928 101.564 -33.5827 100.611ZM-33.1771 103.934C-33.0707 104.805 -32.9644 105.676 -32.858 106.547C-32.9248 106.744 -32.9907 106.941 -33.0564 107.138C-33.1775 106.787 -33.3097 106.447 -33.4525 106.116C-33.3606 105.389 -33.2688 104.661 -33.1771 103.934ZM-30.2534 105.582C-30.2217 105.859 -30.1937 106.137 -30.1606 106.414C-30.2107 106.219 -30.2666 106.028 -30.3191 105.834C-30.2968 105.75 -30.2752 105.666 -30.2534 105.582ZM-22.7535 102.998C-22.6821 103.2 -22.6109 103.403 -22.5395 103.606C-22.6471 104.118 -22.7482 104.633 -22.8432 105.15C-22.9456 105.475 -23.0489 105.8 -23.1486 106.128C-23.0169 105.085 -22.8852 104.041 -22.7535 102.998ZM-18.1595 97.606C-18.2356 98.0187 -18.3115 98.4313 -18.3874 98.844C-18.4973 98.4949 -18.6165 98.1533 -18.7406 97.8161C-18.6505 96.8894 -18.6214 95.954 -18.6702 95.0112C-18.5188 95.8853 -18.3483 96.7506 -18.1595 97.606ZM-17.4849 100.334C-17.4584 101.386 -17.4318 102.438 -17.4052 103.49C-17.5365 102.358 -17.7413 101.253 -18.0094 100.188C-17.9988 99.574 -17.9921 98.9599 -17.9915 98.346C-17.8342 99.0157 -17.6648 99.6779 -17.4849 100.334ZM-8.37409 98.4759C-8.35922 99.0661 -8.34435 99.6564 -8.32939 100.247C-8.45288 100.671 -8.57639 101.095 -8.6999 101.518C-8.57446 100.507 -8.46605 99.4914 -8.37409 98.4759ZM-8.24294 103.67C-8.22268 104.471 -8.20245 105.273 -8.18231 106.074C-8.21343 106.016 -8.24464 105.957 -8.27587 105.899C-8.31818 105.614 -8.36587 105.331 -8.41722 105.05C-8.35911 104.59 -8.30102 104.13 -8.24294 103.67ZM13.575 111.917C13.5209 112.423 13.4731 112.931 13.4304 113.439C13.3569 113.691 13.2837 113.944 13.2103 114.195C13.1681 113.904 13.1262 113.613 13.0844 113.322C13.2486 112.859 13.4128 112.39 13.575 111.917ZM18.4084 108.853C18.3516 109.201 18.2948 109.549 18.238 109.897C18.2728 108.935 18.2643 107.972 18.2222 107.013C18.2843 107.626 18.3463 108.239 18.4084 108.853ZM26.3321 111.08C26.325 111.52 26.3221 111.959 26.328 112.398C26.3613 112.998 26.3818 113.6 26.3868 114.203C26.3534 113.604 26.3364 113.001 26.328 112.398C26.3127 112.122 26.2908 111.848 26.2697 111.573C26.2905 111.409 26.3113 111.244 26.3321 111.08ZM-47.933 112.696L-32.9656 113.81C-32.9247 113.696 -32.8834 113.581 -32.8448 113.47C-32.8083 113.589 -32.7707 113.708 -32.7341 113.827L-23.6801 114.502C-23.3041 114.039 -22.9801 113.467 -22.7299 112.749C-22.6887 112.63 -22.6497 112.509 -22.6109 112.388C-22.6293 113.046 -22.6029 113.812 -22.5287 114.587L-17.7697 114.942C-17.7402 114.82 -17.7103 114.698 -17.6825 114.573C-17.6294 114.547 -17.5766 114.52 -17.5252 114.494C-17.3189 114.389 -17.1135 114.306 -16.9092 114.237C-16.6228 114.398 -16.3363 114.558 -16.0498 114.719C-15.9444 114.849 -15.8334 114.972 -15.721 115.094L13.8669 117.297C13.9196 116.878 13.9726 116.46 14.0253 116.04C14.2729 114.941 14.4946 113.825 14.6916 112.695C14.7709 112.995 14.8517 113.29 14.9328 113.58C15.0215 113.897 15.1102 114.213 15.1989 114.53C14.8699 115.453 14.5557 116.386 14.2495 117.326L28.7862 118.408C28.6504 117.467 28.5148 116.525 28.379 115.583C29.4923 112.213 30.3911 108.622 30.0246 104.932C29.1908 106.808 28.4074 108.734 27.6755 110.702C27.4451 109.105 27.215 107.507 26.9846 105.91C27.0086 105.719 27.0329 105.528 27.0569 105.337C27.0224 105.456 26.9878 105.574 26.9533 105.693L26.8517 104.987C26.7501 105.632 26.664 106.282 26.592 106.934C26.39 107.627 26.188 108.321 25.986 109.014C25.8458 108.062 25.6663 107.128 25.4544 106.212L25.4775 106.005C25.7477 103.579 25.9966 100.936 25.2208 98.851C25.5484 99.7313 24.062 105.2 23.8615 106.299L23.1065 110.436L23.0951 110.382C23.3688 106.83 23.6425 103.278 23.916 99.7264C23.1466 101.677 22.4774 103.716 21.9121 105.818C21.8965 105.77 21.8816 105.721 21.8661 105.672C21.8684 105.769 21.8711 105.865 21.8734 105.962C21.5622 107.13 21.2832 108.318 21.0382 109.521C20.7855 108.742 20.4969 107.994 20.1749 107.281C20.09 104.716 20.0051 102.152 19.9205 99.5876C19.6204 101.426 19.3203 103.265 19.0202 105.104C18.6698 104.542 18.2948 104.017 17.8978 103.532C17.762 102.585 17.5922 101.651 17.3808 100.738C16.8088 103.592 16.2367 106.445 15.6644 109.298C15.5693 108.842 15.4741 108.386 15.379 107.93C15.6872 105.256 15.8781 102.562 15.9695 99.9211C15.8272 100.396 15.6913 100.875 15.5596 101.356C15.5461 101.055 15.5248 100.752 15.4949 100.449C14.8833 101.826 14.2993 103.229 13.7425 104.656C13.7308 103.485 13.5958 102.357 13.224 101.358C13.4688 102.015 12.7009 105.235 12.2131 107.279C12.125 106.666 12.0366 106.053 11.9482 105.44C12.1411 103.912 12.334 102.384 12.527 100.855C12.2506 101.804 11.9742 102.754 11.6976 103.703C11.5814 102.896 11.4652 102.089 11.3489 101.283C11.0717 103.041 10.906 104.832 10.8469 106.624C10.7985 106.79 10.75 106.957 10.7014 107.123C10.6481 106.572 10.5837 106.025 10.5064 105.483C10.6533 104.163 10.8006 102.843 10.9476 101.523C11.2181 99.0965 11.4666 96.4539 10.6908 94.3692C10.9613 95.0957 9.99611 98.9476 9.53795 100.889C9.43402 100.525 9.32453 100.164 9.2089 99.8091C9.23788 100.626 9.24842 101.444 9.25018 102.264C8.8371 104.527 8.42402 106.79 8.01095 109.053C7.92107 108.454 7.81978 107.86 7.70824 107.27C8.73639 101.897 9.82309 96.5468 10.9724 91.2236C9.21914 94.9969 7.81714 99.1358 6.81563 103.466C6.67306 102.961 6.52288 102.461 6.36333 101.968C6.39026 103.033 6.41719 104.098 6.44413 105.163C6.30419 105.848 6.17363 106.536 6.05389 107.228C6.19178 103.976 6.32966 100.725 6.46755 97.4733C5.94616 99.6841 5.42447 101.895 4.90307 104.106C4.79417 103.845 4.68175 103.588 4.56436 103.337C4.78744 97.8888 4.52542 92.4277 3.78154 87.1547L2.60039 100.089C2.52137 99.9876 2.44351 99.8847 2.36265 99.7865C2.4092 100.246 2.45574 100.705 2.50217 101.164C2.48522 101.351 2.46818 101.537 2.45115 101.723C2.23138 102.226 2.01523 102.732 1.80264 103.241C1.63477 101.879 1.38479 100.545 1.05691 99.2618C1.12895 98.1655 1.18341 97.0732 1.22091 95.9896C1.03074 96.6237 0.85063 97.264 0.679193 97.9092C0.20461 96.3641 -0.386048 94.9085 -1.08304 93.5837C-1.00493 96.8988 -0.92694 100.214 -0.848833 103.529C-0.934844 103.825 -1.02083 104.12 -1.10695 104.415C-1.30708 103.518 -1.5431 102.641 -1.81448 101.792C-1.56825 99.5001 -1.39833 97.0639 -2.12334 95.1152C-1.94025 95.6072 -2.32417 97.5333 -2.7332 99.3283C-2.90956 98.9176 -3.09469 98.5163 -3.28829 98.1243C-3.32535 97.8666 -3.36253 97.6089 -3.39968 97.3516C-3.42199 97.4932 -3.4412 97.6356 -3.46213 97.7778C-3.84877 97.0264 -4.26583 96.3121 -4.7133 95.644C-4.19779 96.4135 -3.97752 98.9386 -3.80313 100.856C-3.90012 102.156 -3.94104 103.462 -3.92333 104.762C-3.92011 104.82 -3.91853 104.878 -3.91555 104.935L-3.91897 104.954C-3.92011 104.89 -3.92243 104.826 -3.92333 104.762C-4.00841 103.226 -4.18634 101.708 -4.45246 100.233C-4.34267 99.0681 -4.32815 97.8881 -4.44628 96.698C-4.62079 97.0906 -4.79176 97.4868 -4.96179 97.8836C-5.13504 97.2014 -5.32682 96.5311 -5.53977 95.8775C-5.5011 96.9693 -5.48772 98.0645 -5.49756 99.1607C-6.04498 100.489 -6.56737 101.84 -7.06516 103.21C-7.271 102.141 -7.51126 101.088 -7.78733 100.06C-7.66291 99.0748 -7.53849 98.0893 -7.41407 97.1038C-7.61832 97.8049 -7.82255 98.5062 -8.0268 99.2075C-8.12927 98.8553 -8.23562 98.5062 -8.3462 98.1603C-8.18814 96.3483 -8.08043 94.5379 -8.01855 92.7518C-8.29292 93.666 -8.54723 94.5931 -8.78223 95.5301C-8.66697 93.7964 -8.70927 92.0715 -9.25019 90.6178C-8.92266 91.4977 -10.409 96.9663 -10.6095 98.0661C-10.6317 98.1875 -10.6539 98.3089 -10.6761 98.4306C-11.186 97.4845 -11.7571 96.6172 -12.386 95.8549L-12.3808 95.905C-12.4669 95.3079 -12.553 94.7105 -12.6392 94.1135C-12.9614 96.1578 -13.1334 98.246 -13.161 100.329C-13.2015 100.208 -13.2439 100.089 -13.2849 99.9696C-13.5325 97.4125 -14.0335 94.9291 -14.7792 92.6396C-14.6784 95.4875 -14.7444 98.3603 -14.9723 101.213C-15.5699 100.093 -16.1675 98.9725 -16.7651 97.8521C-17.0176 96.811 -17.3037 95.7907 -17.6246 94.7984C-17.612 95.3031 -17.5991 95.8075 -17.5865 96.3121C-18.0059 95.5258 -18.4253 94.7393 -18.8447 93.9531C-18.8247 94.0825 -18.8028 94.2114 -18.782 94.3406C-19.0238 94.8872 -19.2605 95.4387 -19.4941 95.9931C-19.6106 93.1335 -19.7271 90.2736 -19.8436 87.4138C-20.0922 89.6249 -20.3409 91.8361 -20.5895 94.0473C-20.9157 93.5397 -21.2603 93.0596 -21.6254 92.6168C-21.4434 94.4145 -21.2613 96.2117 -21.0793 98.009C-21.1681 98.2915 -21.2551 98.5749 -21.34 98.8601L-21.8682 98.1642C-21.7271 98.5165 -21.5861 98.8686 -21.445 99.2207C-21.7471 100.261 -22.0226 101.317 -22.2704 102.387C-22.3929 102.288 -22.5152 102.189 -22.6395 102.096C-22.3252 99.605 -22.0108 97.1142 -21.6963 94.6237C-22.2599 96.5582 -22.8232 98.4927 -23.3868 100.427C-23.393 99.7739 -23.3993 99.1207 -23.4056 98.4671C-23.6292 99.8033 -23.8528 101.139 -24.0763 102.475C-23.8095 100.081 -23.5426 97.6861 -23.2758 95.2915C-23.0055 92.8648 -22.7568 90.2222 -23.5324 88.1377C-23.205 89.0176 -24.6912 94.4865 -24.8918 95.586C-25.1736 97.1297 -25.4554 98.6738 -25.7371 100.218C-25.96 98.7922 -26.2171 97.3819 -26.5078 95.9899C-26.5894 98.8804 -26.6711 101.771 -26.7527 104.662C-26.9661 97.5927 -28.5831 90.7315 -31.338 85.2061C-31.3754 90.4435 -31.1704 95.6676 -30.7302 100.829C-30.9509 101.372 -31.1666 101.92 -31.3793 102.469C-31.7546 101.439 -32.1697 100.445 -32.6154 99.4846C-32.5679 99.1081 -32.5203 98.7312 -32.4728 98.3545L-32.7299 99.2376C-32.9215 98.8332 -33.1186 98.4352 -33.3222 98.0451C-33.162 96.2182 -33.0533 94.3925 -32.9909 92.5924C-33.2796 93.5546 -33.5455 94.531 -33.7906 95.5185C-33.7771 94.2224 -33.8998 92.9676 -34.3088 91.8684C-33.9813 92.7487 -35.4675 98.2172 -35.6682 99.3167C-35.7237 99.6208 -35.7793 99.9253 -35.8347 100.23C-35.8081 99.6909 -35.7839 99.1536 -35.7654 98.6189C-36.0421 99.5411 -36.2985 100.476 -36.5351 101.422C-36.8938 98.9324 -37.2526 96.4432 -37.6114 93.954C-37.9955 96.39 -38.1689 98.8878 -38.1351 101.365C-38.1019 101.964 -38.0812 102.567 -38.0765 103.17C-38.1098 102.571 -38.1268 101.968 -38.1351 101.365C-38.307 98.2611 -38.8555 95.2314 -39.7516 92.48C-39.6362 95.7367 -39.7405 99.0255 -40.0545 102.281C-40.165 101.514 -40.2754 100.747 -40.386 99.9805C-40.5497 101.019 -40.6727 102.068 -40.7602 103.122C-41.1158 100.169 -41.7342 97.306 -42.597 94.6389C-42.5637 95.9599 -42.5303 97.2812 -42.4969 98.6021C-42.5071 98.5708 -42.5159 98.5382 -42.5261 98.5068C-42.4797 99.8172 -42.4726 101.133 -42.4961 102.449C-43.0889 98.5124 -44.5484 94.9417 -46.5978 92.4574C-46.1453 96.9246 -45.6929 101.392 -45.2405 105.859C-45.211 107.025 -45.1816 108.191 -45.1522 109.357C-45.649 105.074 -47.171 101.153 -49.3723 98.4842C-48.8926 103.221 -48.4127 107.958 -47.933 112.696Z" fill="#10202E"/>
<path fill-rule="evenodd" clip-rule="evenodd" d="M-10.6019 102.877C-10.5573 103.242 -10.5128 103.608 -10.4682 103.973C-10.6384 104.557 -10.8086 105.142 -10.9788 105.726C-10.8376 104.781 -10.712 103.831 -10.6019 102.877ZM-10.1963 106.2C-10.0899 107.071 -9.98357 107.943 -9.87733 108.813C-9.94399 109.01 -10.0099 109.207 -10.0756 109.405C-10.1967 109.054 -10.3289 108.713 -10.4716 108.382C-10.3799 107.655 -10.2881 106.928 -10.1963 106.2ZM-7.27261 107.848C-7.24093 108.125 -7.21292 108.404 -7.17986 108.68C-7.22984 108.485 -7.28575 108.294 -7.33824 108.101C-7.31594 108.017 -7.29433 107.933 -7.27261 107.848ZM0.227359 105.264C0.298615 105.467 0.369989 105.67 0.441333 105.872C0.333717 106.384 0.232629 106.899 0.137601 107.416C0.0352546 107.742 -0.0682344 108.067 -0.167859 108.395C-0.0361194 107.351 0.0956198 106.307 0.227359 105.264ZM4.8214 99.8723C4.74528 100.285 4.66946 100.698 4.59334 101.11C4.48356 100.761 4.36441 100.42 4.24028 100.082C4.33016 99.1559 4.35943 98.2205 4.31054 97.2775C4.4619 98.1514 4.63257 99.0168 4.8214 99.8723ZM5.4959 102.6C5.52254 103.652 5.54889 104.704 5.57553 105.756C5.44438 104.625 5.23945 103.52 4.97158 102.455C4.98183 101.84 4.98885 101.226 4.98944 100.612C5.14665 101.282 5.31615 101.944 5.4959 102.6ZM14.6067 100.742C14.6216 101.333 14.6366 101.923 14.6515 102.513C14.5279 102.937 14.4044 103.361 14.2809 103.785C14.4064 102.773 14.5148 101.758 14.6067 100.742ZM14.7378 105.936C14.758 106.738 14.7782 107.539 14.7984 108.341C14.7674 108.282 14.7361 108.224 14.7051 108.165C14.6626 107.88 14.6149 107.597 14.5637 107.316C14.6216 106.856 14.6799 106.396 14.7378 105.936ZM36.5556 114.183C36.5017 114.69 36.454 115.197 36.4113 115.706C36.3378 115.958 36.2643 116.21 36.1911 116.462C36.149 116.171 36.1071 115.88 36.0652 115.588C36.2292 115.125 36.3937 114.656 36.5556 114.183ZM41.3893 111.119C41.3325 111.467 41.2757 111.815 41.2189 112.163C41.2537 111.202 41.2449 110.238 41.2028 109.279C41.2651 109.892 41.3272 110.506 41.3893 111.119ZM49.3126 113.346C49.3056 113.786 49.303 114.225 49.3088 114.665C49.3422 115.264 49.3627 115.866 49.3674 116.47C49.334 115.87 49.317 115.268 49.3088 114.665C49.2936 114.389 49.2716 114.114 49.2506 113.84C49.2714 113.675 49.2921 113.511 49.3126 113.346ZM-24.9522 114.962L-9.98482 116.077C-9.94399 115.962 -9.90271 115.847 -9.86395 115.736C-9.82747 115.856 -9.78994 115.975 -9.75323 116.094L-0.699264 116.768C-0.323251 116.306 0.000708835 115.734 0.250925 115.015C0.292087 114.897 0.330994 114.775 0.369989 114.654C0.351575 115.312 0.377864 116.079 0.452077 116.854L5.21105 117.208C5.24062 117.086 5.27048 116.965 5.29829 116.839C5.35157 116.813 5.40427 116.787 5.4555 116.761C5.66189 116.655 5.86741 116.572 6.07175 116.504C6.35806 116.664 6.64437 116.825 6.93098 116.985C7.03637 117.115 7.14732 117.239 7.25974 117.36L36.8475 119.564C36.9005 119.145 36.9535 118.726 37.0061 118.307C37.2535 117.208 37.4751 116.091 37.6725 114.962C37.7518 115.261 37.8326 115.557 37.9137 115.847C38.0024 116.163 38.0911 116.48 38.1798 116.797C37.8507 117.719 37.5363 118.653 37.2301 119.592L51.7671 120.675C51.6312 119.733 51.4954 118.792 51.3599 117.85C52.4729 114.48 53.372 110.889 53.0054 107.198C52.1717 109.074 51.388 111 50.6564 112.969C50.426 111.371 50.1956 109.774 49.9655 108.176C49.9895 107.985 50.0135 107.794 50.0378 107.604C50.0032 107.722 49.9687 107.841 49.9342 107.959L49.8326 107.254C49.7307 107.899 49.6449 108.548 49.5726 109.2C49.3709 109.893 49.1689 110.587 48.9669 111.28C48.8267 110.329 48.6469 109.394 48.4353 108.478L48.4581 108.272C48.7286 105.845 48.9771 103.202 48.2016 101.117C48.5289 101.998 47.0429 107.466 46.8421 108.566L46.0874 112.702L46.0759 112.648C46.3497 109.096 46.6231 105.544 46.8968 101.993C46.1275 103.943 45.4582 105.983 44.8926 108.085C44.8771 108.036 44.8625 107.987 44.847 107.939C44.8493 108.035 44.8517 108.132 44.8543 108.228C44.5431 109.397 44.2641 110.585 44.0191 111.787C43.7664 111.009 43.4775 110.26 43.1554 109.547C43.0708 106.983 42.9859 104.418 42.901 101.854C42.601 103.693 42.3012 105.531 42.0011 107.37C41.6507 106.809 41.2757 106.283 40.8787 105.798C40.7426 104.852 40.5731 103.917 40.3614 103.005C39.7894 105.858 39.2173 108.711 38.6453 111.564C38.5501 111.108 38.455 110.652 38.3598 110.196C38.6681 107.522 38.8587 104.828 38.9503 102.188C38.808 102.662 38.6722 103.141 38.5405 103.622C38.5267 103.321 38.5056 103.019 38.4755 102.716C37.8642 104.092 37.2802 105.496 36.7231 106.922C36.7116 105.752 36.5767 104.623 36.2049 103.624C36.4496 104.282 35.6817 107.501 35.194 109.545C35.1056 108.933 35.0175 108.32 34.9291 107.707C35.122 106.179 35.3149 104.65 35.5078 103.122C35.2315 104.071 34.9548 105.02 34.6785 105.969C34.5622 105.162 34.446 104.356 34.3298 103.549C34.0526 105.308 33.8869 107.098 33.8277 108.89C33.7794 109.057 33.7308 109.223 33.6822 109.389C33.6286 108.839 33.5645 108.292 33.4872 107.749C33.6342 106.429 33.7812 105.109 33.9284 103.789C34.1986 101.363 34.4475 98.7203 33.6717 96.6357C33.9422 97.3622 32.977 101.214 32.5188 103.155C32.4149 102.791 32.3054 102.431 32.1898 102.075C32.2185 102.892 32.229 103.711 32.2308 104.53C31.818 106.793 31.4049 109.057 30.9918 111.32C30.9016 110.72 30.8006 110.126 30.6891 109.537C31.717 104.164 32.8037 98.813 33.9533 93.4901C32.1997 97.2634 30.7977 101.402 29.7965 105.733C29.6536 105.227 29.5037 104.727 29.3442 104.234C29.3711 105.299 29.3981 106.365 29.425 107.43C29.2848 108.114 29.1545 108.802 29.0345 109.494C29.1724 106.242 29.3105 102.991 29.4484 99.7396C28.9267 101.951 28.4053 104.161 27.8839 106.372C27.775 106.112 27.6626 105.855 27.5452 105.603C27.768 100.155 27.5063 94.6941 26.7624 89.4212L25.5811 102.355C25.5021 102.254 25.4242 102.151 25.3434 102.053C25.39 102.512 25.4365 102.972 25.4831 103.431C25.4661 103.617 25.4491 103.803 25.4321 103.989C25.2123 104.492 24.9959 104.998 24.7834 105.508C24.6156 104.145 24.3656 102.812 24.0377 101.528C24.1098 100.432 24.1642 99.3393 24.2017 98.256C24.0114 98.8902 23.8314 99.5304 23.6601 100.176C23.1855 98.6306 22.5948 97.1749 21.8977 95.8501C21.9759 99.1652 22.0538 102.48 22.1319 105.796C22.0459 106.091 21.9598 106.386 21.874 106.682C21.6738 105.784 21.4378 104.907 21.1664 104.058C21.4126 101.767 21.5824 99.3302 20.8576 97.3816C21.0405 97.8734 20.6567 99.7998 20.2475 101.595C20.0712 101.184 19.8862 100.782 19.6924 100.391C19.6555 100.133 19.6183 99.8753 19.5812 99.6179C19.5589 99.7597 19.5396 99.9021 19.5188 100.044C19.1321 99.2925 18.7149 98.5786 18.2676 97.9105C18.7831 98.6799 19.0033 101.205 19.1777 103.122C19.0806 104.422 19.0399 105.728 19.0574 107.028C19.0606 107.086 19.0624 107.144 19.0653 107.201L19.0618 107.22C19.0606 107.156 19.0583 107.093 19.0574 107.028C18.9725 105.492 18.7945 103.975 18.5284 102.5C18.6382 101.334 18.6528 100.155 18.5346 98.9644C18.3601 99.3571 18.1891 99.7533 18.019 100.15C17.8457 99.4678 17.654 98.7975 17.4411 98.1439C17.4798 99.2356 17.4929 100.331 17.4833 101.427C16.9358 102.755 16.4133 104.106 15.9156 105.477C15.7098 104.407 15.4694 103.355 15.1934 102.327C15.3178 101.341 15.4422 100.356 15.5666 99.3703C15.3626 100.071 15.1582 100.773 14.9539 101.474C14.8517 101.122 14.7452 100.773 14.6345 100.427C14.7926 98.6147 14.9003 96.8042 14.9621 95.0179C14.6881 95.9324 14.4334 96.8594 14.1986 97.7965C14.3139 96.0629 14.2715 94.3379 13.7308 92.8839C14.0581 93.7642 12.5718 99.2327 12.3712 100.333C12.349 100.454 12.327 100.575 12.3048 100.697C11.7948 99.751 11.2236 98.8837 10.5948 98.1214L10.6001 98.1713C10.5137 97.5744 10.4276 96.977 10.3416 96.38C10.0192 98.4242 9.84739 100.512 9.81987 102.595C9.77918 102.475 9.73703 102.356 9.69575 102.236C9.44837 99.679 8.94717 97.1953 8.20153 94.9059C8.30253 97.7538 8.23637 100.626 8.00861 103.48C7.4108 102.359 6.81329 101.239 6.21578 100.118C5.96314 99.0774 5.67712 98.0571 5.35597 97.0648C5.36885 97.5692 5.38173 98.0738 5.39432 98.5786C4.9748 97.7923 4.55558 97.0057 4.13606 96.2195C4.15597 96.349 4.17793 96.4778 4.199 96.6069C3.9569 97.1533 3.72035 97.7051 3.48673 98.2595C3.37025 95.3996 3.2537 92.5397 3.13718 89.6799C2.88858 91.8914 2.63997 94.1026 2.39134 96.3138C2.06509 95.8061 1.72052 95.3261 1.3554 94.8833C1.53743 96.681 1.71938 98.4781 1.90144 100.275C1.81271 100.558 1.72567 100.841 1.64083 101.127L1.11262 100.431C1.25372 100.783 1.39471 101.135 1.53573 101.487C1.2337 102.527 0.958101 103.583 0.710402 104.653C0.587944 104.554 0.465573 104.456 0.341153 104.362C0.655629 101.871 0.970018 99.3807 1.28449 96.8901C0.720943 98.8245 0.157509 100.759 -0.405925 102.694C-0.412219 102.04 -0.418514 101.387 -0.424808 100.734C-0.648384 102.07 -0.87193 103.406 -1.09551 104.742C-0.828719 102.347 -0.561904 99.9524 -0.295 97.5578C-0.0246714 95.1313 0.223933 92.4887 -0.55163 90.4038C-0.224214 91.284 -1.71041 96.7526 -1.91109 97.8523C-2.19286 99.3962 -2.47452 100.94 -2.7563 102.484C-2.9792 101.059 -3.23627 99.6483 -3.52709 98.2563C-3.60874 101.147 -3.69027 104.038 -3.77204 106.929C-3.98531 99.8592 -5.6023 92.9979 -8.35717 87.4725C-8.39456 92.71 -8.18951 97.9341 -7.74936 103.096C-7.97006 103.639 -8.18574 104.186 -8.39845 104.736C-8.77376 103.705 -9.18889 102.711 -9.63466 101.751C-9.58709 101.375 -9.53952 100.998 -9.49194 100.621L-9.74913 101.504C-9.94068 101.099 -10.1378 100.702 -10.3414 100.311C-10.1812 98.4846 -10.0725 96.6589 -10.0101 94.8587C-10.2987 95.8207 -10.5647 96.7975 -10.8098 97.7849C-10.7963 96.4887 -10.919 95.234 -11.328 94.1349C-11.0005 95.015 -12.4867 100.484 -12.6874 101.583C-12.7429 101.887 -12.7985 102.192 -12.854 102.496C-12.8273 101.957 -12.8031 101.42 -12.7847 100.885C-13.0613 101.808 -13.3176 102.743 -13.5542 103.688C-13.9131 101.199 -14.2718 98.7097 -14.6307 96.2205C-15.0147 98.6564 -15.1882 101.154 -15.1543 103.631C-15.121 104.231 -15.1005 104.833 -15.0957 105.436C-15.129 104.837 -15.146 104.235 -15.1543 103.631C-15.3262 100.528 -15.8746 97.4978 -16.7707 94.7464C-16.6554 98.0032 -16.7597 101.292 -17.0737 104.547C-17.1842 103.78 -17.2947 103.014 -17.4052 102.247C-17.5688 103.285 -17.6919 104.335 -17.7794 105.389C-18.135 102.435 -18.7534 99.5724 -19.6163 96.9053C-19.5829 98.2263 -19.5495 99.5473 -19.5162 100.869C-19.5263 100.837 -19.5351 100.805 -19.5453 100.773C-19.499 102.084 -19.4919 103.399 -19.5153 104.716C-20.108 100.779 -21.5677 97.2082 -23.617 94.7238C-23.1646 99.1911 -22.7121 103.658 -22.2597 108.125C-22.2303 109.291 -22.2008 110.458 -22.1714 111.624C-22.6683 107.34 -24.1902 103.419 -26.3915 100.751C-25.9118 105.488 -25.432 110.225 -24.9522 114.962Z" fill="#1A3647"/>
<path fill-rule="evenodd" clip-rule="evenodd" d="M13.729 83.6152C9.00748 88.3982 7.39587 101.216 8.86725 108.091L8.51565 108.222C6.91781 101.873 8.71239 88.292 13.6886 83.5396L13.729 83.6152Z" fill="#2F5368"/>
<path fill-rule="evenodd" clip-rule="evenodd" d="M9.20743 93.6105C8.34146 89.1817 4.41593 90.9773 4.47712 90.9699C4.55294 90.9606 5.13962 92.8139 6.68477 93.4429C8.22993 94.072 9.20743 93.6105 9.20743 93.6105Z" fill="#2F5368"/>
<path fill-rule="evenodd" clip-rule="evenodd" d="M10.1015 89.9359C12.37 86.5871 15.0859 90.0005 15.0364 89.9646C14.9752 89.92 13.8353 91.2139 12.3041 91.0059C10.773 90.798 10.1015 89.9359 10.1015 89.9359Z" fill="#2F5368"/>
<path fill-rule="evenodd" clip-rule="evenodd" d="M10.1448 90.0168C10.7534 86.0491 7.21053 85.6132 7.26 85.6364C7.32119 85.6652 7.23893 87.433 8.24863 88.6766C9.25834 89.9197 10.1448 90.0168 10.1448 90.0168Z" fill="#2F5368"/>
<path fill-rule="evenodd" clip-rule="evenodd" d="M11.6964 86.3422C12.5721 82.9541 9.53973 82.0567 9.58042 82.0842C9.63107 82.1184 9.40477 83.6554 10.1706 84.8918C10.9368 86.1281 11.6964 86.3422 11.6964 86.3422Z" fill="#2F5368"/>
<path fill-rule="evenodd" clip-rule="evenodd" d="M11.673 86.4062C13.8997 83.4766 16.2473 86.8202 16.2034 86.7833C16.1492 86.7382 15.0467 87.8515 13.6497 87.5506C12.2524 87.2497 11.673 86.4062 11.673 86.4062Z" fill="#2F5368"/>
<path fill-rule="evenodd" clip-rule="evenodd" d="M12.5688 84.8934C12.0767 80.9592 15.6357 80.307 15.5856 80.3331C15.5236 80.3654 15.5534 82.1297 14.5063 83.4358C13.4588 84.742 12.5688 84.8934 12.5688 84.8934Z" fill="#2F5368"/>
<path fill-rule="evenodd" clip-rule="evenodd" d="M33.1822 92.343C34.1492 88.5177 30.702 87.3437 30.7482 87.377C30.8059 87.4182 30.5612 89.1622 31.44 90.6117C32.3186 92.0612 33.1822 92.343 33.1822 92.343Z" fill="#142532"/>
</g>
<defs>
<radialGradient id="paint0_radial_966_620" cx="0" cy="0" r="1" gradientUnits="userSpaceOnUse" gradientTransform="translate(47 29) rotate(50.906) scale(61.8466 64.4504)">
<stop stop-color="#B5EDFF"/>
<stop offset="1" stop-color="#A38CD5"/>
</radialGradient>
<radialGradient id="paint1_radial_966_620" cx="0" cy="0" r="1" gradientUnits="userSpaceOnUse" gradientTransform="translate(47.0423 29.459) rotate(51.1875) scale(58.5487 60.8854)">
<stop stop-color="#B5EDFF"/>
<stop offset="1" stop-color="#A38CD5"/>
</radialGradient>
<radialGradient id="paint2_radial_966_620" cx="0" cy="0" r="1" gradientUnits="userSpaceOnUse" gradientTransform="translate(47 29.5396) rotate(50.906) scale(58.194 60.644)">
<stop stop-color="#B5EDFF"/>
<stop offset="1" stop-color="#A38CD5"/>
</radialGradient>
<radialGradient id="paint3_radial_966_620" cx="0" cy="0" r="1" gradientUnits="userSpaceOnUse" gradientTransform="translate(50.765 50.7106) rotate(58.644) scale(73.9017 86.6011)">
<stop stop-color="white"/>
<stop offset="1" stop-color="white" stop-opacity="0"/>
</radialGradient>
</defs>
</svg>
