<svg width="90" height="90" viewBox="0 0 90 90" fill="none" xmlns="http://www.w3.org/2000/svg">
<path d="M45 90C69.8526 90 90 69.8526 90 45C90 20.1465 69.8526 0 45 0C20.1474 0 0 20.1465 0 45C0 69.8526 20.1474 90 45 90Z" fill="url(#paint0_radial_968_843)"/>
<path d="M45.0424 87.2875C68.4272 87.2875 87.3848 68.1385 87.3848 44.5175C87.3848 20.8956 68.4272 1.74744 45.0424 1.74744C21.6576 1.74744 2.70007 20.8956 2.70007 44.5175C2.70007 68.1385 21.6576 87.2875 45.0424 87.2875Z" fill="url(#paint1_radial_968_843)"/>
<mask id="mask0_968_843" style="mask-type:alpha" maskUnits="userSpaceOnUse" x="2" y="2" width="86" height="85">
<path d="M45.0001 86.7599C68.3849 86.7599 87.3424 67.8024 87.3424 44.4175C87.3424 21.0319 68.3849 2.0752 45.0001 2.0752C21.6152 2.0752 2.65771 21.0319 2.65771 44.4175C2.65771 67.8024 21.6152 86.7599 45.0001 86.7599Z" fill="url(#paint2_radial_968_843)"/>
</mask>
<g mask="url(#mask0_968_843)">
<path d="M66.764 8.66113C70.1379 14.7965 72.0568 21.833 72.0568 29.3225C72.0568 53.1172 52.6979 72.4016 28.8109 72.4016C22.1445 72.4016 15.8312 70.901 10.187 68.2148C17.7646 79.4016 30.6045 86.7599 45.1711 86.7599C68.4628 86.7599 87.3441 67.9514 87.3441 44.7495C87.3365 29.4182 79.0831 15.9974 66.7649 8.66198L66.764 8.66113Z" fill="url(#paint3_radial_968_843)" fill-opacity="0.2"/>
<mask id="mask1_968_843" style="mask-type:luminance" maskUnits="userSpaceOnUse" x="-18" y="2" width="120" height="83">
<path d="M102 85H81.6827C85.4563 78.3809 87.7173 70.7325 87.9752 62.5636H93.8437C94.4187 62.5636 94.8848 62.0827 94.8848 61.4898C94.8848 60.8968 94.4187 60.4162 93.8437 60.4162H90.3646C89.7898 60.4162 89.3237 59.9355 89.3237 59.3425C89.3237 58.7495 89.7898 58.2688 90.3646 58.2688H90.5424C91.1173 58.2688 91.5835 57.7882 91.5835 57.1952C91.5835 56.6022 91.1173 56.1215 90.5424 56.1215H87.7605C86.803 46.4375 83.0226 37.6191 77.2792 30.5492V27.055C77.279 23.6091 74.5706 20.8162 71.2293 20.816C70.0182 20.816 68.8906 21.1828 67.9446 21.8147C65.9992 20.4419 63.9454 19.219 61.8008 18.1626V16.0942C61.8008 15.2756 61.479 14.5344 60.9589 13.998C60.639 13.6682 60.2442 13.4157 59.8027 13.2702C59.6789 13.0536 59.5291 12.8547 59.3578 12.678C58.8376 12.1416 58.119 11.8098 57.3253 11.8098H26.6747C25.0872 11.8098 23.8002 13.1371 23.8002 14.7742V17.4125C20.4653 18.8957 17.3368 20.7723 14.4653 22.9885H8.83216C8.25712 22.9885 7.79104 23.4692 7.79104 24.0622C7.79104 24.6552 8.25712 25.1359 8.83216 25.1359H10.8514C11.1259 25.1359 11.3757 25.2456 11.5618 25.4246C10.9022 26.0252 10.2598 26.6451 9.63488 27.2832H4.83072C4.25584 27.2832 3.78976 27.7638 3.78976 28.3568C3.78976 28.9498 4.25584 29.4305 4.83072 29.4305H7.6584C2.7568 35.0984 -0.84496 41.9868 -2.66469 49.5994H-2.89656H-7.3115H-6.93194C-7.50694 49.5994 -7.97312 50.0801 -7.97312 50.6731C-7.97312 51.2661 -7.50694 51.7467 -6.93194 51.7467H-3.12675C-3.69987 54.7378 -4 57.828 -4 60.9925C-4 69.7522 -1.69728 77.9578 2.31728 85H-18V2.5H102V85ZM76.6392 29.7781C74.2352 26.9434 71.507 24.4046 68.5181 22.2259C69.315 21.7489 70.2405 21.4762 71.2293 21.476C72.7242 21.4762 74.0746 22.0999 75.0546 23.11C76.0341 24.1206 76.639 25.5134 76.6392 27.055V29.7781Z" fill="white"/>
</mask>
<g mask="url(#mask1_968_843)">
<path d="M102 85H81.6827C85.4563 78.3809 87.7173 70.7325 87.9752 62.5636H93.8437C94.4187 62.5636 94.8848 62.0827 94.8848 61.4898C94.8848 60.8968 94.4187 60.4162 93.8437 60.4162H90.3646C89.7898 60.4162 89.3237 59.9355 89.3237 59.3425C89.3237 58.7495 89.7898 58.2688 90.3646 58.2688H90.5424C91.1173 58.2688 91.5835 57.7882 91.5835 57.1952C91.5835 56.6022 91.1173 56.1215 90.5424 56.1215H87.7605C86.803 46.4375 83.0226 37.6191 77.2792 30.5492V27.055C77.279 23.6091 74.5706 20.8162 71.2293 20.816C70.0182 20.816 68.8906 21.1828 67.9446 21.8147C65.9992 20.4419 63.9454 19.219 61.8008 18.1626V16.0942C61.8008 15.2756 61.479 14.5344 60.9589 13.998C60.639 13.6682 60.2442 13.4157 59.8027 13.2702C59.6789 13.0536 59.5291 12.8547 59.3578 12.678C58.8376 12.1416 58.119 11.8098 57.3253 11.8098H26.6747C25.0872 11.8098 23.8002 13.1371 23.8002 14.7742V17.4125C20.4653 18.8957 17.3368 20.7723 14.4653 22.9885H8.83216C8.25712 22.9885 7.79104 23.4692 7.79104 24.0622C7.79104 24.6552 8.25712 25.1359 8.83216 25.1359H10.8514C11.1259 25.1359 11.3757 25.2456 11.5618 25.4246C10.9022 26.0252 10.2598 26.6451 9.63488 27.2832H4.83072C4.25584 27.2832 3.78976 27.7638 3.78976 28.3568C3.78976 28.9498 4.25584 29.4305 4.83072 29.4305H7.6584C2.7568 35.0984 -0.84496 41.9868 -2.66469 49.5994H-2.89656H-7.3115H-6.93194C-7.50694 49.5994 -7.97312 50.0801 -7.97312 50.6731C-7.97312 51.2661 -7.50694 51.7467 -6.93194 51.7467H-3.12675C-3.69987 54.7378 -4 57.828 -4 60.9925C-4 69.7522 -1.69728 77.9578 2.31728 85H-18V2.5H102V85ZM76.6392 29.7781C74.2352 26.9434 71.507 24.4046 68.5181 22.2259C69.315 21.7489 70.2405 21.4762 71.2293 21.476C72.7242 21.4762 74.0746 22.0999 75.0546 23.11C76.0341 24.1206 76.639 25.5134 76.6392 27.055V29.7781Z" fill="url(#paint4_linear_968_843)"/>
</g>
<mask id="mask2_968_843" style="mask-type:luminance" maskUnits="userSpaceOnUse" x="-4" y="17" width="92" height="68">
<path d="M81.6828 85H2.31734C-1.69722 77.9578 -3.99994 69.7522 -3.99994 60.9925C-3.99994 57.828 -3.69981 54.7378 -3.12669 51.7467H0.582622C1.1575 51.7467 1.62374 51.2661 1.62374 50.6731C1.62374 50.0801 1.1575 49.5994 0.582622 49.5994H-2.66463C-0.844899 41.9868 2.75686 35.0984 7.65846 29.4305H18.7453C19.3202 29.4305 19.7865 28.9498 19.7865 28.3568C19.7865 27.7638 19.3202 27.2832 18.7453 27.2832H15.2663C14.6913 27.2832 14.2252 26.8025 14.2252 26.2095C14.2252 25.6167 14.6913 25.1359 15.2663 25.1359H15.4439C16.0188 25.1359 16.485 24.6552 16.485 24.0622C16.485 23.4692 16.0188 22.9885 15.4439 22.9885H14.4653C17.3369 20.7723 20.4653 18.8957 23.8002 17.4125V48.3773H7.90022V52.6173C7.90022 52.6179 7.90022 52.6188 7.90022 52.6194V52.6196C7.90022 52.6201 7.90038 52.6209 7.90038 52.6214C7.90038 52.6216 7.90038 52.6219 7.90038 52.622C7.90038 52.6224 7.90038 52.623 7.90038 52.6235C7.90038 52.6237 7.90038 52.6239 7.90038 52.624C7.90038 52.6245 7.90038 52.625 7.90038 52.6255C7.90038 52.6257 7.90038 52.626 7.90038 52.6262C7.90038 52.6267 7.90038 52.6272 7.90038 52.6277C7.90038 52.6278 7.90038 52.628 7.90038 52.6282C7.90038 52.6286 7.90038 52.6291 7.90038 52.6296C7.90038 52.6298 7.90038 52.63 7.90038 52.6301C7.90054 52.6306 7.90054 52.6311 7.90054 52.6318C7.90054 52.632 7.90054 52.632 7.90054 52.6321C7.90054 52.6326 7.90054 52.6333 7.90054 52.6338C7.90054 52.6338 7.90054 52.6339 7.90054 52.6341C7.90054 52.6346 7.90054 52.6353 7.9007 52.6359C7.9007 52.6359 7.9007 52.6359 7.9007 52.6361C7.9519 54.0117 13.6493 55.1239 20.6703 55.1239C22.3417 55.1239 23.9381 55.0609 25.4013 54.9462V56.804H7.90022V61.0441C7.90022 61.0448 7.90022 61.0455 7.90022 61.0461V61.0463C7.90022 61.047 7.90038 61.0476 7.90038 61.0481C7.90038 61.0484 7.90038 61.0486 7.90038 61.0488C7.90038 61.0493 7.90038 61.0498 7.90038 61.0503C7.90038 61.0504 7.90038 61.0506 7.90038 61.0507C7.90038 61.0512 7.90038 61.0519 7.90038 61.0522C7.90038 61.0524 7.90038 61.0527 7.90038 61.0529C7.90038 61.0534 7.90038 61.0539 7.90038 61.0544C7.90038 61.0545 7.90038 61.0547 7.90038 61.0549C7.90038 61.0554 7.90038 61.0559 7.90038 61.0564C7.90038 61.0565 7.90038 61.0567 7.90038 61.0569C7.90054 61.0573 7.90054 61.058 7.90054 61.0585V61.0588C7.90054 61.0595 7.90054 61.06 7.90054 61.0606C7.90054 61.0606 7.90054 61.0606 7.90054 61.0608C7.90054 61.0613 7.90054 61.0621 7.9007 61.0626V61.0628C7.9071 61.2365 8.00374 61.4063 8.18182 61.57C7.99734 61.7396 7.90022 61.9155 7.90022 62.0959V66.336C7.90022 66.3367 7.90022 66.3373 7.90022 66.338C7.90022 66.3382 7.90022 66.3382 7.90022 66.3382C7.90022 66.3388 7.90038 66.3395 7.90038 66.3401C7.90038 66.3403 7.90038 66.3405 7.90038 66.3406C7.90038 66.3411 7.90038 66.3418 7.90038 66.3421C7.90038 66.3423 7.90038 66.3426 7.90038 66.3428C7.90038 66.3431 7.90038 66.3438 7.90038 66.3443C7.90038 66.3444 7.90038 66.3446 7.90038 66.3448C7.90038 66.3454 7.90038 66.3458 7.90038 66.3463C7.90038 66.3464 7.90038 66.3466 7.90038 66.3468C7.90038 66.3474 7.90038 66.3477 7.90038 66.3484C7.90038 66.3486 7.90038 66.3487 7.90038 66.3489C7.90054 66.3494 7.90054 66.3499 7.90054 66.3504C7.90054 66.3505 7.90054 66.3507 7.90054 66.3509C7.90054 66.3514 7.90054 66.352 7.90054 66.3525V66.3527C7.90054 66.3533 7.90054 66.354 7.9007 66.3545C7.9007 66.3547 7.9007 66.3547 7.9007 66.3547C7.9071 66.5286 8.00374 66.6982 8.18182 66.8619C7.99734 67.0315 7.90022 67.2072 7.90022 67.3877V71.6277C7.90022 71.6284 7.90022 71.6291 7.90022 71.6297C7.90022 71.6299 7.90022 71.6299 7.90022 71.63C7.90022 71.6305 7.90038 71.6312 7.90038 71.6318C7.90038 71.632 7.90038 71.6322 7.90038 71.6324C7.90038 71.6329 7.90038 71.6333 7.90038 71.6338C7.90038 71.634 7.90038 71.6344 7.90038 71.6345C7.90038 71.6348 7.90038 71.6355 7.90038 71.636C7.90038 71.6362 7.90038 71.6363 7.90038 71.6365C7.90038 71.637 7.90038 71.6374 7.90038 71.638C7.90038 71.6382 7.90038 71.6383 7.90038 71.6385C7.90038 71.6389 7.90038 71.6396 7.90038 71.6401C7.90038 71.6403 7.90038 71.6404 7.90038 71.6406C7.90054 71.6411 7.90054 71.6416 7.90054 71.6421C7.90054 71.6423 7.90054 71.6424 7.90054 71.6426C7.90054 71.6431 7.90054 71.6436 7.90054 71.6442V71.6444C7.90054 71.645 7.90054 71.6457 7.9007 71.6464C7.9519 73.0222 13.6493 74.1344 20.6703 74.1344C27.7228 74.1344 33.4401 73.0122 33.4401 71.6277V67.5371H39.9121V69.8738C39.9121 70.379 40.3092 70.7885 40.7989 70.7885H41.6713V72.9968C41.6713 73.2766 41.8913 73.5034 42.1628 73.5034H42.321V76.0291C42.3212 78.515 44.2751 80.53 46.6857 80.5302H61.4546C63.8653 80.53 65.8191 78.515 65.8193 76.0291V75.0896H71.0156C71.5905 75.0896 72.0567 74.6088 72.0567 74.016C72.0567 73.4229 71.5905 72.9423 71.0156 72.9423H67.5364H65.8193V27.055C65.8194 25.5134 66.4244 24.1206 67.4039 23.11C67.7357 22.7679 68.1101 22.4703 68.5181 22.2259C71.5071 24.4046 74.2353 26.9434 76.6393 29.7781V41.5237H76.4809C76.2095 41.5237 75.9895 41.7505 75.9895 42.0304V44.2386H75.117C74.6273 44.2386 74.2301 44.6481 74.2301 45.1533V49.789H74.7237V53.6513H78.2372H79.1948V49.789H79.6882V45.1533C79.6882 44.6481 79.2911 44.2386 78.8013 44.2386H77.929V43.7596V42.0304C77.929 41.7505 77.709 41.5237 77.4375 41.5237H77.2793V30.5492C83.0226 37.6191 86.8031 46.4375 87.7605 56.1215H83.9306C83.3557 56.1215 82.8897 56.6022 82.8897 57.1952C82.8897 57.7882 83.3557 58.2688 83.9306 58.2688H85.95C86.5249 58.2688 86.9909 58.7495 86.9909 59.3425C86.9909 59.9355 86.5249 60.4162 85.95 60.4162H79.9293C79.3543 60.4162 78.8882 60.8968 78.8882 61.4898C78.8882 62.0827 79.3543 62.5636 79.9293 62.5636H87.9753C87.7173 70.7325 85.4564 78.3809 81.6828 85ZM74.9053 72.9423C74.3303 72.9423 73.8642 73.4229 73.8642 74.016C73.8642 74.6088 74.3303 75.0896 74.9053 75.0896C75.4804 75.0896 75.9466 74.6088 75.9466 74.016C75.9466 73.4229 75.4804 72.9423 74.9053 72.9423ZM61.4546 79.8702H46.6857C45.6562 79.87 44.7269 79.4407 44.0519 78.7451C43.3773 78.0489 42.9612 77.0907 42.961 76.0291V73.5034H43.1194C43.3908 73.5034 43.6108 73.2766 43.6108 72.9968V71.2675V70.7885H44.4833C44.973 70.7885 45.37 70.379 45.37 69.8738V67.5371H58.9263C60.514 67.5371 61.8009 66.2098 61.8009 64.5727V18.1626C63.9455 19.219 65.9993 20.4419 67.9447 21.8147C66.2805 22.9263 65.1794 24.858 65.1793 27.055V72.9423H63.1217H63.501C62.9261 72.9423 62.4599 73.4229 62.4599 74.016C62.4599 74.6088 62.9261 75.0896 63.501 75.0896H65.1793V76.0291C65.1791 77.0907 64.7629 78.049 64.0884 78.7451C63.4133 79.4407 62.4842 79.87 61.4546 79.8702ZM10.8514 27.2832H9.63494C10.2599 26.6451 10.9023 26.0252 11.5618 25.4246C11.7653 25.6206 11.8925 25.8998 11.8925 26.2095C11.8925 26.8025 11.4265 27.2832 10.8514 27.2832Z" fill="white"/>
</mask>
<g mask="url(#mask2_968_843)">
<path d="M81.6828 85H2.31734C-1.69722 77.9578 -3.99994 69.7522 -3.99994 60.9925C-3.99994 57.828 -3.69981 54.7378 -3.12669 51.7467H0.582622C1.1575 51.7467 1.62374 51.2661 1.62374 50.6731C1.62374 50.0801 1.1575 49.5994 0.582622 49.5994H-2.66463C-0.844899 41.9868 2.75686 35.0984 7.65846 29.4305H18.7453C19.3202 29.4305 19.7865 28.9498 19.7865 28.3568C19.7865 27.7638 19.3202 27.2832 18.7453 27.2832H15.2663C14.6913 27.2832 14.2252 26.8025 14.2252 26.2095C14.2252 25.6167 14.6913 25.1359 15.2663 25.1359H15.4439C16.0188 25.1359 16.485 24.6552 16.485 24.0622C16.485 23.4692 16.0188 22.9885 15.4439 22.9885H14.4653C17.3369 20.7723 20.4653 18.8957 23.8002 17.4125V48.3773H7.90022V52.6173C7.90022 52.6179 7.90022 52.6188 7.90022 52.6194V52.6196C7.90022 52.6201 7.90038 52.6209 7.90038 52.6214C7.90038 52.6216 7.90038 52.6219 7.90038 52.622C7.90038 52.6224 7.90038 52.623 7.90038 52.6235C7.90038 52.6237 7.90038 52.6239 7.90038 52.624C7.90038 52.6245 7.90038 52.625 7.90038 52.6255C7.90038 52.6257 7.90038 52.626 7.90038 52.6262C7.90038 52.6267 7.90038 52.6272 7.90038 52.6277C7.90038 52.6278 7.90038 52.628 7.90038 52.6282C7.90038 52.6286 7.90038 52.6291 7.90038 52.6296C7.90038 52.6298 7.90038 52.63 7.90038 52.6301C7.90054 52.6306 7.90054 52.6311 7.90054 52.6318C7.90054 52.632 7.90054 52.632 7.90054 52.6321C7.90054 52.6326 7.90054 52.6333 7.90054 52.6338C7.90054 52.6338 7.90054 52.6339 7.90054 52.6341C7.90054 52.6346 7.90054 52.6353 7.9007 52.6359C7.9007 52.6359 7.9007 52.6359 7.9007 52.6361C7.9519 54.0117 13.6493 55.1239 20.6703 55.1239C22.3417 55.1239 23.9381 55.0609 25.4013 54.9462V56.804H7.90022V61.0441C7.90022 61.0448 7.90022 61.0455 7.90022 61.0461V61.0463C7.90022 61.047 7.90038 61.0476 7.90038 61.0481C7.90038 61.0484 7.90038 61.0486 7.90038 61.0488C7.90038 61.0493 7.90038 61.0498 7.90038 61.0503C7.90038 61.0504 7.90038 61.0506 7.90038 61.0507C7.90038 61.0512 7.90038 61.0519 7.90038 61.0522C7.90038 61.0524 7.90038 61.0527 7.90038 61.0529C7.90038 61.0534 7.90038 61.0539 7.90038 61.0544C7.90038 61.0545 7.90038 61.0547 7.90038 61.0549C7.90038 61.0554 7.90038 61.0559 7.90038 61.0564C7.90038 61.0565 7.90038 61.0567 7.90038 61.0569C7.90054 61.0573 7.90054 61.058 7.90054 61.0585V61.0588C7.90054 61.0595 7.90054 61.06 7.90054 61.0606C7.90054 61.0606 7.90054 61.0606 7.90054 61.0608C7.90054 61.0613 7.90054 61.0621 7.9007 61.0626V61.0628C7.9071 61.2365 8.00374 61.4063 8.18182 61.57C7.99734 61.7396 7.90022 61.9155 7.90022 62.0959V66.336C7.90022 66.3367 7.90022 66.3373 7.90022 66.338C7.90022 66.3382 7.90022 66.3382 7.90022 66.3382C7.90022 66.3388 7.90038 66.3395 7.90038 66.3401C7.90038 66.3403 7.90038 66.3405 7.90038 66.3406C7.90038 66.3411 7.90038 66.3418 7.90038 66.3421C7.90038 66.3423 7.90038 66.3426 7.90038 66.3428C7.90038 66.3431 7.90038 66.3438 7.90038 66.3443C7.90038 66.3444 7.90038 66.3446 7.90038 66.3448C7.90038 66.3454 7.90038 66.3458 7.90038 66.3463C7.90038 66.3464 7.90038 66.3466 7.90038 66.3468C7.90038 66.3474 7.90038 66.3477 7.90038 66.3484C7.90038 66.3486 7.90038 66.3487 7.90038 66.3489C7.90054 66.3494 7.90054 66.3499 7.90054 66.3504C7.90054 66.3505 7.90054 66.3507 7.90054 66.3509C7.90054 66.3514 7.90054 66.352 7.90054 66.3525V66.3527C7.90054 66.3533 7.90054 66.354 7.9007 66.3545C7.9007 66.3547 7.9007 66.3547 7.9007 66.3547C7.9071 66.5286 8.00374 66.6982 8.18182 66.8619C7.99734 67.0315 7.90022 67.2072 7.90022 67.3877V71.6277C7.90022 71.6284 7.90022 71.6291 7.90022 71.6297C7.90022 71.6299 7.90022 71.6299 7.90022 71.63C7.90022 71.6305 7.90038 71.6312 7.90038 71.6318C7.90038 71.632 7.90038 71.6322 7.90038 71.6324C7.90038 71.6329 7.90038 71.6333 7.90038 71.6338C7.90038 71.634 7.90038 71.6344 7.90038 71.6345C7.90038 71.6348 7.90038 71.6355 7.90038 71.636C7.90038 71.6362 7.90038 71.6363 7.90038 71.6365C7.90038 71.637 7.90038 71.6374 7.90038 71.638C7.90038 71.6382 7.90038 71.6383 7.90038 71.6385C7.90038 71.6389 7.90038 71.6396 7.90038 71.6401C7.90038 71.6403 7.90038 71.6404 7.90038 71.6406C7.90054 71.6411 7.90054 71.6416 7.90054 71.6421C7.90054 71.6423 7.90054 71.6424 7.90054 71.6426C7.90054 71.6431 7.90054 71.6436 7.90054 71.6442V71.6444C7.90054 71.645 7.90054 71.6457 7.9007 71.6464C7.9519 73.0222 13.6493 74.1344 20.6703 74.1344C27.7228 74.1344 33.4401 73.0122 33.4401 71.6277V67.5371H39.9121V69.8738C39.9121 70.379 40.3092 70.7885 40.7989 70.7885H41.6713V72.9968C41.6713 73.2766 41.8913 73.5034 42.1628 73.5034H42.321V76.0291C42.3212 78.515 44.2751 80.53 46.6857 80.5302H61.4546C63.8653 80.53 65.8191 78.515 65.8193 76.0291V75.0896H71.0156C71.5905 75.0896 72.0567 74.6088 72.0567 74.016C72.0567 73.4229 71.5905 72.9423 71.0156 72.9423H67.5364H65.8193V27.055C65.8194 25.5134 66.4244 24.1206 67.4039 23.11C67.7357 22.7679 68.1101 22.4703 68.5181 22.2259C71.5071 24.4046 74.2353 26.9434 76.6393 29.7781V41.5237H76.4809C76.2095 41.5237 75.9895 41.7505 75.9895 42.0304V44.2386H75.117C74.6273 44.2386 74.2301 44.6481 74.2301 45.1533V49.789H74.7237V53.6513H78.2372H79.1948V49.789H79.6882V45.1533C79.6882 44.6481 79.2911 44.2386 78.8013 44.2386H77.929V43.7596V42.0304C77.929 41.7505 77.709 41.5237 77.4375 41.5237H77.2793V30.5492C83.0226 37.6191 86.8031 46.4375 87.7605 56.1215H83.9306C83.3557 56.1215 82.8897 56.6022 82.8897 57.1952C82.8897 57.7882 83.3557 58.2688 83.9306 58.2688H85.95C86.5249 58.2688 86.9909 58.7495 86.9909 59.3425C86.9909 59.9355 86.5249 60.4162 85.95 60.4162H79.9293C79.3543 60.4162 78.8882 60.8968 78.8882 61.4898C78.8882 62.0827 79.3543 62.5636 79.9293 62.5636H87.9753C87.7173 70.7325 85.4564 78.3809 81.6828 85ZM74.9053 72.9423C74.3303 72.9423 73.8642 73.4229 73.8642 74.016C73.8642 74.6088 74.3303 75.0896 74.9053 75.0896C75.4804 75.0896 75.9466 74.6088 75.9466 74.016C75.9466 73.4229 75.4804 72.9423 74.9053 72.9423ZM61.4546 79.8702H46.6857C45.6562 79.87 44.7269 79.4407 44.0519 78.7451C43.3773 78.0489 42.9612 77.0907 42.961 76.0291V73.5034H43.1194C43.3908 73.5034 43.6108 73.2766 43.6108 72.9968V71.2675V70.7885H44.4833C44.973 70.7885 45.37 70.379 45.37 69.8738V67.5371H58.9263C60.514 67.5371 61.8009 66.2098 61.8009 64.5727V18.1626C63.9455 19.219 65.9993 20.4419 67.9447 21.8147C66.2805 22.9263 65.1794 24.858 65.1793 27.055V72.9423H63.1217H63.501C62.9261 72.9423 62.4599 73.4229 62.4599 74.016C62.4599 74.6088 62.9261 75.0896 63.501 75.0896H65.1793V76.0291C65.1791 77.0907 64.7629 78.049 64.0884 78.7451C63.4133 79.4407 62.4842 79.87 61.4546 79.8702ZM10.8514 27.2832H9.63494C10.2599 26.6451 10.9023 26.0252 11.5618 25.4246C11.7653 25.6206 11.8925 25.8998 11.8925 26.2095C11.8925 26.8025 11.4265 27.2832 10.8514 27.2832Z" fill="url(#paint5_linear_968_843)"/>
</g>
<mask id="mask3_968_843" style="mask-type:luminance" maskUnits="userSpaceOnUse" x="78" y="56" width="10" height="7">
<path d="M87.9752 62.5623H79.9292C79.3542 62.5623 78.8881 62.0813 78.8881 61.4884C78.8881 60.8954 79.3542 60.4148 79.9292 60.4148H85.9499C86.5248 60.4148 86.9908 59.9341 86.9908 59.3411C86.9908 58.7481 86.5248 58.2675 85.9499 58.2675H83.9305C83.3556 58.2675 82.8896 57.7868 82.8896 57.1938C82.8896 56.6008 83.3556 56.1202 83.9305 56.1202H87.7604C87.9187 57.7208 88 59.3472 88 60.9911C88 61.5171 87.9916 62.0402 87.9752 62.5623Z" fill="white"/>
</mask>
<g mask="url(#mask3_968_843)">
<path d="M87.9752 62.5623H79.9292C79.3542 62.5623 78.8881 62.0813 78.8881 61.4884C78.8881 60.8954 79.3542 60.4148 79.9292 60.4148H85.9499C86.5248 60.4148 86.9908 59.9341 86.9908 59.3411C86.9908 58.7481 86.5248 58.2675 85.9499 58.2675H83.9305C83.3556 58.2675 82.8896 57.7868 82.8896 57.1938C82.8896 56.6008 83.3556 56.1202 83.9305 56.1202H87.7604C87.9187 57.7208 88 59.3472 88 60.9911C88 61.5171 87.9916 62.0402 87.9752 62.5623Z" fill="url(#paint6_linear_968_843)"/>
</g>
<mask id="mask4_968_843" style="mask-type:luminance" maskUnits="userSpaceOnUse" x="3" y="22" width="12" height="8">
<path d="M7.65837 29.4293H4.83069C4.25581 29.4293 3.78973 28.9487 3.78973 28.3557C3.78973 27.7627 4.25581 27.282 4.83069 27.282H9.63486C8.9547 27.9765 8.29565 28.6926 7.65837 29.4293ZM11.5617 25.4235C11.3757 25.2444 11.1259 25.1347 10.8513 25.1347H8.83213C8.25709 25.1347 7.79101 24.6541 7.79101 24.061C7.79101 23.468 8.25709 22.9874 8.83213 22.9874H14.4653C13.4659 23.7588 12.496 24.5727 11.5617 25.4235Z" fill="white"/>
</mask>
<g mask="url(#mask4_968_843)">
<path d="M7.65837 29.4293H4.83069C4.25581 29.4293 3.78973 28.9487 3.78973 28.3557C3.78973 27.7627 4.25581 27.282 4.83069 27.282H9.63486C8.9547 27.9765 8.29565 28.6926 7.65837 29.4293ZM11.5617 25.4235C11.3757 25.2444 11.1259 25.1347 10.8513 25.1347H8.83213C8.25709 25.1347 7.79101 24.6541 7.79101 24.061C7.79101 23.468 8.25709 22.9874 8.83213 22.9874H14.4653C13.4659 23.7588 12.496 24.5727 11.5617 25.4235Z" fill="url(#paint7_linear_968_843)"/>
</g>
<mask id="mask5_968_843" style="mask-type:luminance" maskUnits="userSpaceOnUse" x="7" y="22" width="13" height="8">
<path d="M18.7453 29.4293H7.65839C8.29567 28.6926 8.95471 27.9765 9.63487 27.282H10.8513C11.4264 27.282 11.8925 26.8014 11.8925 26.2084C11.8925 25.8987 11.7653 25.6195 11.5617 25.4235C12.496 24.5727 13.4659 23.7588 14.4653 22.9874H15.4438C16.0187 22.9874 16.4849 23.468 16.4849 24.061C16.4849 24.6541 16.0187 25.1347 15.4438 25.1347H15.2662C14.6912 25.1347 14.2251 25.6155 14.2251 26.2084C14.2251 26.8014 14.6912 27.282 15.2662 27.282H18.7453C19.3201 27.282 19.7864 27.7627 19.7864 28.3557C19.7864 28.9487 19.3201 29.4293 18.7453 29.4293Z" fill="white"/>
</mask>
<g mask="url(#mask5_968_843)">
<path d="M18.7453 29.4293H7.65839C8.29567 28.6926 8.95471 27.9765 9.63487 27.282H10.8513C11.4264 27.282 11.8925 26.8014 11.8925 26.2084C11.8925 25.8987 11.7653 25.6195 11.5617 25.4235C12.496 24.5727 13.4659 23.7588 14.4653 22.9874H15.4438C16.0187 22.9874 16.4849 23.468 16.4849 24.061C16.4849 24.6541 16.0187 25.1347 15.4438 25.1347H15.2662C14.6912 25.1347 14.2251 25.6155 14.2251 26.2084C14.2251 26.8014 14.6912 27.282 15.2662 27.282H18.7453C19.3201 27.282 19.7864 27.7627 19.7864 28.3557C19.7864 28.9487 19.3201 29.4293 18.7453 29.4293Z" fill="url(#paint8_linear_968_843)"/>
</g>
<mask id="mask6_968_843" style="mask-type:luminance" maskUnits="userSpaceOnUse" x="62" y="72" width="11" height="4">
<path d="M71.0155 75.0903H65.8191V72.943H71.0155C71.5903 72.943 72.0566 73.4236 72.0566 74.0167C72.0566 74.6095 71.5903 75.0903 71.0155 75.0903ZM65.1791 75.0903H63.5009C62.926 75.0903 62.4598 74.6095 62.4598 74.0167C62.4598 73.4236 62.926 72.943 63.5009 72.943H63.1215H65.1791V75.0903Z" fill="white"/>
</mask>
<g mask="url(#mask6_968_843)">
<path d="M71.0155 75.0903H65.8191V72.943H71.0155C71.5903 72.943 72.0566 73.4236 72.0566 74.0167C72.0566 74.6095 71.5903 75.0903 71.0155 75.0903ZM65.1791 75.0903H63.5009C62.926 75.0903 62.4598 74.6095 62.4598 74.0167C62.4598 73.4236 62.926 72.943 63.5009 72.943H63.1215H65.1791V75.0903Z" fill="url(#paint9_linear_968_843)"/>
</g>
<mask id="mask7_968_843" style="mask-type:luminance" maskUnits="userSpaceOnUse" x="73" y="72" width="3" height="4">
<path d="M74.9052 75.0903C74.3302 75.0903 73.8641 74.6095 73.8641 74.0167C73.8641 73.4236 74.3302 72.943 74.9052 72.943C75.4802 72.943 75.9465 73.4236 75.9465 74.0167C75.9465 74.6095 75.4802 75.0903 74.9052 75.0903Z" fill="white"/>
</mask>
<g mask="url(#mask7_968_843)">
<path d="M74.9052 75.0903C74.3302 75.0903 73.8641 74.6095 73.8641 74.0167C73.8641 73.4236 74.3302 72.943 74.9052 72.943C75.4802 72.943 75.9465 73.4236 75.9465 74.0167C75.9465 74.6095 75.4802 75.0903 74.9052 75.0903Z" fill="url(#paint10_linear_968_843)"/>
</g>
<mask id="mask8_968_843" style="mask-type:luminance" maskUnits="userSpaceOnUse" x="59" y="13" width="3" height="6">
<path d="M61.8008 18.1635C61.2722 17.9029 60.7392 17.6533 60.1997 17.4134V14.775C60.1997 14.2261 60.0551 13.7119 59.8027 13.271C60.2442 13.4166 60.6391 13.669 60.9589 13.9989C61.4791 14.5353 61.8008 15.2764 61.8008 16.095V18.1635Z" fill="white"/>
</mask>
<g mask="url(#mask8_968_843)">
<path d="M61.8008 18.1635C61.2722 17.9029 60.7392 17.6533 60.1997 17.4134V14.775C60.1997 14.2261 60.0551 13.7119 59.8027 13.271C60.2442 13.4166 60.6391 13.669 60.9589 13.9989C61.4791 14.5353 61.8008 15.2764 61.8008 16.095V18.1635Z" fill="url(#paint11_linear_968_843)"/>
</g>
<mask id="mask9_968_843" style="mask-type:luminance" maskUnits="userSpaceOnUse" x="25" y="17" width="37" height="51">
<path d="M58.9263 67.5372H45.3699V65.7933C45.3699 65.2881 44.973 64.8788 44.4832 64.8788H42.961V58.0544H42.321V64.8788H40.7989C40.3091 64.8788 39.912 65.2881 39.912 65.7933V67.5372H33.44V67.3879C33.44 67.2074 33.3431 67.0317 33.1586 66.8621C33.3431 66.6924 33.44 66.5165 33.44 66.3362V62.096C33.44 61.9157 33.3429 61.7398 33.1586 61.5702C33.3429 61.4006 33.44 61.2247 33.44 61.0443V56.8041H25.4013V54.9464C30.1117 54.5773 33.44 53.6738 33.44 52.6174V51.1795H57.9749H60.1997V17.4127C60.7392 17.6526 61.2722 17.9023 61.8008 18.1628V64.5728C61.8008 66.21 60.5139 67.5372 58.9263 67.5372Z" fill="white"/>
</mask>
<g mask="url(#mask9_968_843)">
<path d="M58.9263 67.5372H45.3699V65.7933C45.3699 65.2881 44.973 64.8788 44.4832 64.8788H42.961V58.0544H42.321V64.8788H40.7989C40.3091 64.8788 39.912 65.2881 39.912 65.7933V67.5372H33.44V67.3879C33.44 67.2074 33.3431 67.0317 33.1586 66.8621C33.3431 66.6924 33.44 66.5165 33.44 66.3362V62.096C33.44 61.9157 33.3429 61.7398 33.1586 61.5702C33.3429 61.4006 33.44 61.2247 33.44 61.0443V56.8041H25.4013V54.9464C30.1117 54.5773 33.44 53.6738 33.44 52.6174V51.1795H57.9749H60.1997V17.4127C60.7392 17.6526 61.2722 17.9023 61.8008 18.1628V64.5728C61.8008 66.21 60.5139 67.5372 58.9263 67.5372Z" fill="url(#paint12_linear_968_843)"/>
</g>
<mask id="mask10_968_843" style="mask-type:luminance" maskUnits="userSpaceOnUse" x="7" y="67" width="27" height="8">
<path d="M20.6702 74.1335C13.6493 74.1335 7.95183 73.0213 7.90063 71.6455C7.92655 72.3446 9.41295 72.9754 11.788 73.427V69.1878C14.0864 69.6246 17.2182 69.8934 20.6702 69.8934C27.7227 69.8934 33.44 68.7712 33.44 67.3869V67.5362V71.6268C33.44 73.0114 27.7227 74.1335 20.6702 74.1335ZM7.90031 71.6351C7.90031 71.6346 7.90031 71.6339 7.90031 71.6336C7.90031 71.6341 7.90031 71.6346 7.90031 71.6351Z" fill="white"/>
</mask>
<g mask="url(#mask10_968_843)">
<path d="M20.6702 74.1335C13.6493 74.1335 7.95183 73.0213 7.90063 71.6455C7.92655 72.3446 9.41295 72.9754 11.788 73.427V69.1878C14.0864 69.6246 17.2182 69.8934 20.6702 69.8934C27.7227 69.8934 33.44 68.7712 33.44 67.3869V67.5362V71.6268C33.44 73.0114 27.7227 74.1335 20.6702 74.1335ZM7.90031 71.6351C7.90031 71.6346 7.90031 71.6339 7.90031 71.6336C7.90031 71.6341 7.90031 71.6346 7.90031 71.6351Z" fill="url(#paint13_linear_968_843)"/>
</g>
<mask id="mask11_968_843" style="mask-type:luminance" maskUnits="userSpaceOnUse" x="7" y="71" width="1" height="1">
<path d="M7.90045 71.6442V71.644C7.90045 71.6442 7.90045 71.644 7.90045 71.6442ZM7.9003 71.6344C7.9003 71.6343 7.9003 71.6339 7.9003 71.6338C7.9003 71.6341 7.9003 71.6341 7.9003 71.6344Z" fill="white"/>
</mask>
<g mask="url(#mask11_968_843)">
<path d="M7.90045 71.6442V71.644C7.90045 71.6442 7.90045 71.644 7.90045 71.6442ZM7.9003 71.6344C7.9003 71.6343 7.9003 71.6339 7.9003 71.6338C7.9003 71.6341 7.9003 71.6341 7.9003 71.6344Z" fill="url(#paint14_linear_968_843)"/>
</g>
<mask id="mask12_968_843" style="mask-type:luminance" maskUnits="userSpaceOnUse" x="7" y="67" width="5" height="7">
<path d="M11.788 73.4287C9.41295 72.9771 7.92655 72.3463 7.90063 71.6472C7.90047 71.6465 7.90047 71.6459 7.90047 71.6452C7.90047 71.645 7.90047 71.6452 7.90047 71.645C7.90047 71.6444 7.90047 71.6439 7.90047 71.6434C7.90047 71.6432 7.90047 71.6431 7.90047 71.6429C7.90047 71.6424 7.90047 71.6419 7.90031 71.6414C7.90031 71.6412 7.90031 71.6411 7.90031 71.6409C7.90031 71.6405 7.90031 71.6397 7.90031 71.6393C7.90031 71.6391 7.90031 71.639 7.90031 71.6388C7.90031 71.6383 7.90031 71.6378 7.90031 71.6373C7.90031 71.6371 7.90031 71.637 7.90031 71.6368C7.90031 71.6363 7.90031 71.6358 7.90031 71.6353C7.90031 71.635 7.90031 71.635 7.90031 71.6347C7.90031 71.6341 7.90031 71.6337 7.90031 71.6332C7.90031 71.633 7.90031 71.6329 7.90031 71.6327C7.90031 71.632 7.90015 71.6314 7.90015 71.6309C7.90015 71.6307 7.90015 71.6307 7.90015 71.6305C7.90015 71.6299 7.90015 71.6293 7.90015 71.6285V67.3886C7.90015 68.0954 9.39055 68.7338 11.788 69.1895V73.4287Z" fill="white"/>
</mask>
<g mask="url(#mask12_968_843)">
<path d="M11.788 73.4287C9.41295 72.9771 7.92655 72.3463 7.90063 71.6472C7.90047 71.6465 7.90047 71.6459 7.90047 71.6452C7.90047 71.645 7.90047 71.6452 7.90047 71.645C7.90047 71.6444 7.90047 71.6439 7.90047 71.6434C7.90047 71.6432 7.90047 71.6431 7.90047 71.6429C7.90047 71.6424 7.90047 71.6419 7.90031 71.6414C7.90031 71.6412 7.90031 71.6411 7.90031 71.6409C7.90031 71.6405 7.90031 71.6397 7.90031 71.6393C7.90031 71.6391 7.90031 71.639 7.90031 71.6388C7.90031 71.6383 7.90031 71.6378 7.90031 71.6373C7.90031 71.6371 7.90031 71.637 7.90031 71.6368C7.90031 71.6363 7.90031 71.6358 7.90031 71.6353C7.90031 71.635 7.90031 71.635 7.90031 71.6347C7.90031 71.6341 7.90031 71.6337 7.90031 71.6332C7.90031 71.633 7.90031 71.6329 7.90031 71.6327C7.90031 71.632 7.90015 71.6314 7.90015 71.6309C7.90015 71.6307 7.90015 71.6307 7.90015 71.6305C7.90015 71.6299 7.90015 71.6293 7.90015 71.6285V67.3886C7.90015 68.0954 9.39055 68.7338 11.788 69.1895V73.4287Z" fill="url(#paint15_linear_968_843)"/>
</g>
<mask id="mask13_968_843" style="mask-type:luminance" maskUnits="userSpaceOnUse" x="7" y="66" width="27" height="4">
<path d="M20.6702 69.8938C17.2182 69.8938 14.0864 69.625 11.788 69.1882C9.39055 68.7325 7.90015 68.0941 7.90015 67.3873C7.90015 67.2068 7.99727 67.031 8.18175 66.8614C9.41279 67.9932 14.5365 68.8421 20.6702 68.8421C26.8037 68.8421 31.9273 67.9932 33.1585 66.8614C33.343 67.031 33.44 67.2068 33.44 67.3873C33.44 68.7716 27.7227 69.8938 20.6702 69.8938Z" fill="white"/>
</mask>
<g mask="url(#mask13_968_843)">
<path d="M20.6702 69.8938C17.2182 69.8938 14.0864 69.625 11.788 69.1882C9.39055 68.7325 7.90015 68.0941 7.90015 67.3873C7.90015 67.2068 7.99727 67.031 8.18175 66.8614C9.41279 67.9932 14.5365 68.8421 20.6702 68.8421C26.8037 68.8421 31.9273 67.9932 33.1585 66.8614C33.343 67.031 33.44 67.2068 33.44 67.3873C33.44 68.7716 27.7227 69.8938 20.6702 69.8938Z" fill="url(#paint16_linear_968_843)"/>
</g>
<mask id="mask14_968_843" style="mask-type:luminance" maskUnits="userSpaceOnUse" x="7" y="62" width="27" height="7">
<path d="M20.6702 68.843C14.5365 68.843 9.41279 67.9941 8.18175 66.8624C8.00367 66.6987 7.90703 66.5291 7.90063 66.3552C7.92671 67.0543 9.41311 67.6849 11.788 68.1365V63.8973C14.0864 64.3343 17.2182 64.603 20.6702 64.603C27.7227 64.603 33.44 63.4807 33.44 62.0964V66.3365C33.44 66.5169 33.343 66.6928 33.1585 66.8624C31.9273 67.9941 26.8037 68.843 20.6702 68.843ZM7.90047 66.353C7.90047 66.3525 7.90047 66.3519 7.90047 66.3514C7.90047 66.3519 7.90047 66.3524 7.90047 66.353ZM7.90031 66.3489C7.90031 66.3483 7.90031 66.3479 7.90031 66.3473C7.90031 66.3478 7.90031 66.3484 7.90031 66.3489ZM7.90031 66.3448C7.90031 66.3443 7.90031 66.3436 7.90031 66.3433C7.90031 66.3438 7.90031 66.3443 7.90031 66.3448ZM7.90031 66.3426C7.90031 66.3423 7.90031 66.3417 7.90031 66.3412C7.90031 66.3417 7.90031 66.3421 7.90031 66.3426Z" fill="white"/>
</mask>
<g mask="url(#mask14_968_843)">
<path d="M20.6702 68.843C14.5365 68.843 9.41279 67.9941 8.18175 66.8624C8.00367 66.6987 7.90703 66.5291 7.90063 66.3552C7.92671 67.0543 9.41311 67.6849 11.788 68.1365V63.8973C14.0864 64.3343 17.2182 64.603 20.6702 64.603C27.7227 64.603 33.44 63.4807 33.44 62.0964V66.3365C33.44 66.5169 33.343 66.6928 33.1585 66.8624C31.9273 67.9941 26.8037 68.843 20.6702 68.843ZM7.90047 66.353C7.90047 66.3525 7.90047 66.3519 7.90047 66.3514C7.90047 66.3519 7.90047 66.3524 7.90047 66.353ZM7.90031 66.3489C7.90031 66.3483 7.90031 66.3479 7.90031 66.3473C7.90031 66.3478 7.90031 66.3484 7.90031 66.3489ZM7.90031 66.3448C7.90031 66.3443 7.90031 66.3436 7.90031 66.3433C7.90031 66.3438 7.90031 66.3443 7.90031 66.3448ZM7.90031 66.3426C7.90031 66.3423 7.90031 66.3417 7.90031 66.3412C7.90031 66.3417 7.90031 66.3421 7.90031 66.3426Z" fill="url(#paint17_linear_968_843)"/>
</g>
<mask id="mask15_968_843" style="mask-type:luminance" maskUnits="userSpaceOnUse" x="7" y="62" width="5" height="7">
<path d="M11.788 68.1348C9.41311 67.6832 7.92671 67.0525 7.90063 66.3534C7.90063 66.3534 7.90063 66.3534 7.90063 66.3533C7.90047 66.3528 7.90047 66.3521 7.90047 66.3514V66.3513C7.90047 66.3506 7.90047 66.3501 7.90047 66.3496C7.90047 66.3495 7.90047 66.3493 7.90047 66.3491C7.90047 66.3486 7.90047 66.3481 7.90031 66.3477C7.90031 66.3475 7.90031 66.3473 7.90031 66.3472C7.90031 66.3467 7.90031 66.346 7.90031 66.3455C7.90031 66.3453 7.90031 66.3452 7.90031 66.345C7.90031 66.3445 7.90031 66.3442 7.90031 66.3435C7.90031 66.3434 7.90031 66.3432 7.90031 66.343C7.90031 66.3425 7.90031 66.342 7.90031 66.3415C7.90031 66.3412 7.90031 66.3412 7.90031 66.3409C7.90031 66.3404 7.90031 66.3399 7.90031 66.3394C7.90031 66.3392 7.90031 66.3391 7.90031 66.3389C7.90031 66.3382 7.90015 66.3376 7.90015 66.3369C7.90015 66.3369 7.90015 66.3369 7.90015 66.3368C7.90015 66.3361 7.90015 66.3354 7.90015 66.3348V62.0946C7.90015 62.8015 9.39055 63.4399 11.788 63.8956V68.1348Z" fill="white"/>
</mask>
<g mask="url(#mask15_968_843)">
<path d="M11.788 68.1348C9.41311 67.6832 7.92671 67.0525 7.90063 66.3534C7.90063 66.3534 7.90063 66.3534 7.90063 66.3533C7.90047 66.3528 7.90047 66.3521 7.90047 66.3514V66.3513C7.90047 66.3506 7.90047 66.3501 7.90047 66.3496C7.90047 66.3495 7.90047 66.3493 7.90047 66.3491C7.90047 66.3486 7.90047 66.3481 7.90031 66.3477C7.90031 66.3475 7.90031 66.3473 7.90031 66.3472C7.90031 66.3467 7.90031 66.346 7.90031 66.3455C7.90031 66.3453 7.90031 66.3452 7.90031 66.345C7.90031 66.3445 7.90031 66.3442 7.90031 66.3435C7.90031 66.3434 7.90031 66.3432 7.90031 66.343C7.90031 66.3425 7.90031 66.342 7.90031 66.3415C7.90031 66.3412 7.90031 66.3412 7.90031 66.3409C7.90031 66.3404 7.90031 66.3399 7.90031 66.3394C7.90031 66.3392 7.90031 66.3391 7.90031 66.3389C7.90031 66.3382 7.90015 66.3376 7.90015 66.3369C7.90015 66.3369 7.90015 66.3369 7.90015 66.3368C7.90015 66.3361 7.90015 66.3354 7.90015 66.3348V62.0946C7.90015 62.8015 9.39055 63.4399 11.788 63.8956V68.1348Z" fill="url(#paint18_linear_968_843)"/>
</g>
<mask id="mask16_968_843" style="mask-type:luminance" maskUnits="userSpaceOnUse" x="7" y="61" width="27" height="4">
<path d="M20.6702 64.6033C17.2182 64.6033 14.0864 64.3345 11.788 63.8976C9.39055 63.4418 7.90015 62.8035 7.90015 62.0966C7.90015 61.9162 7.99727 61.7404 8.18175 61.5707C9.41295 62.7026 14.5365 63.5516 20.6702 63.5516C26.8037 63.5516 31.9273 62.7026 33.1585 61.5707C33.3429 61.7404 33.44 61.9162 33.44 62.0966C33.44 63.4809 27.7227 64.6033 20.6702 64.6033Z" fill="white"/>
</mask>
<g mask="url(#mask16_968_843)">
<path d="M20.6702 64.6033C17.2182 64.6033 14.0864 64.3345 11.788 63.8976C9.39055 63.4418 7.90015 62.8035 7.90015 62.0966C7.90015 61.9162 7.99727 61.7404 8.18175 61.5707C9.41295 62.7026 14.5365 63.5516 20.6702 63.5516C26.8037 63.5516 31.9273 62.7026 33.1585 61.5707C33.3429 61.7404 33.44 61.9162 33.44 62.0966C33.44 63.4809 27.7227 64.6033 20.6702 64.6033Z" fill="url(#paint19_linear_968_843)"/>
</g>
<mask id="mask17_968_843" style="mask-type:luminance" maskUnits="userSpaceOnUse" x="7" y="56" width="27" height="8">
<path d="M20.6702 63.5492C14.5365 63.5492 9.41295 62.7003 8.18175 61.5684C8.00367 61.4047 7.90703 61.2349 7.90063 61.0612C7.92655 61.7603 9.41295 62.3909 11.788 62.8427V56.8023H7.90015H25.4013H33.44V61.0425C33.44 61.2229 33.3429 61.3987 33.1585 61.5684C31.9273 62.7003 26.8037 63.5492 20.6702 63.5492ZM7.90063 61.061C7.90047 61.0605 7.90047 61.0597 7.90047 61.0592C7.90047 61.0597 7.90047 61.0603 7.90063 61.061ZM7.90047 61.0569C7.90047 61.0564 7.90047 61.0557 7.90031 61.0552C7.90047 61.0559 7.90047 61.0564 7.90047 61.0569ZM7.90031 61.0506C7.90031 61.0503 7.90031 61.0496 7.90031 61.0491C7.90031 61.0496 7.90031 61.0501 7.90031 61.0506Z" fill="white"/>
</mask>
<g mask="url(#mask17_968_843)">
<path d="M20.6702 63.5492C14.5365 63.5492 9.41295 62.7003 8.18175 61.5684C8.00367 61.4047 7.90703 61.2349 7.90063 61.0612C7.92655 61.7603 9.41295 62.3909 11.788 62.8427V56.8023H7.90015H25.4013H33.44V61.0425C33.44 61.2229 33.3429 61.3987 33.1585 61.5684C31.9273 62.7003 26.8037 63.5492 20.6702 63.5492ZM7.90063 61.061C7.90047 61.0605 7.90047 61.0597 7.90047 61.0592C7.90047 61.0597 7.90047 61.0603 7.90063 61.061ZM7.90047 61.0569C7.90047 61.0564 7.90047 61.0557 7.90031 61.0552C7.90047 61.0559 7.90047 61.0564 7.90047 61.0569ZM7.90031 61.0506C7.90031 61.0503 7.90031 61.0496 7.90031 61.0491C7.90031 61.0496 7.90031 61.0501 7.90031 61.0506Z" fill="url(#paint20_linear_968_843)"/>
</g>
<mask id="mask18_968_843" style="mask-type:luminance" maskUnits="userSpaceOnUse" x="7" y="61" width="1" height="1">
<path d="M7.9006 61.0618V61.0616C7.9006 61.0618 7.9006 61.0616 7.9006 61.0618ZM7.9003 61.054C7.9003 61.0538 7.9003 61.0536 7.9003 61.0535C7.9003 61.0535 7.9003 61.0538 7.9003 61.054ZM7.9003 61.052C7.9003 61.0519 7.9003 61.0515 7.9003 61.0514C7.9003 61.0517 7.9003 61.0517 7.9003 61.052ZM7.9003 61.0499C7.9003 61.0497 7.9003 61.0496 7.9003 61.0494C7.9003 61.0497 7.9003 61.0497 7.9003 61.0499ZM7.9003 61.048C7.9003 61.0478 7.9003 61.0476 7.9003 61.0473C7.9003 61.0475 7.9003 61.0478 7.9003 61.048ZM7.90015 61.0455V61.0454C7.90015 61.0455 7.90015 61.0455 7.90015 61.0455Z" fill="white"/>
</mask>
<g mask="url(#mask18_968_843)">
<path d="M7.9006 61.0618V61.0616C7.9006 61.0618 7.9006 61.0616 7.9006 61.0618ZM7.9003 61.054C7.9003 61.0538 7.9003 61.0536 7.9003 61.0535C7.9003 61.0535 7.9003 61.0538 7.9003 61.054ZM7.9003 61.052C7.9003 61.0519 7.9003 61.0515 7.9003 61.0514C7.9003 61.0517 7.9003 61.0517 7.9003 61.052ZM7.9003 61.0499C7.9003 61.0497 7.9003 61.0496 7.9003 61.0494C7.9003 61.0497 7.9003 61.0497 7.9003 61.0499ZM7.9003 61.048C7.9003 61.0478 7.9003 61.0476 7.9003 61.0473C7.9003 61.0475 7.9003 61.0478 7.9003 61.048ZM7.90015 61.0455V61.0454C7.90015 61.0455 7.90015 61.0455 7.90015 61.0455Z" fill="url(#paint21_linear_968_843)"/>
</g>
<mask id="mask19_968_843" style="mask-type:luminance" maskUnits="userSpaceOnUse" x="7" y="56" width="5" height="7">
<path d="M11.788 62.8442C9.41295 62.3925 7.92655 61.7618 7.90063 61.0627C7.90063 61.0626 7.90063 61.0627 7.90063 61.0626C7.90047 61.0619 7.90047 61.0612 7.90047 61.0608C7.90047 61.0606 7.90047 61.0606 7.90047 61.0606C7.90047 61.0599 7.90047 61.0594 7.90047 61.0588V61.0584C7.90047 61.0579 7.90047 61.0575 7.90031 61.0568C7.90031 61.0566 7.90031 61.0565 7.90031 61.0563C7.90031 61.0558 7.90031 61.0553 7.90031 61.0548C7.90031 61.0546 7.90031 61.0543 7.90031 61.0543C7.90031 61.0538 7.90031 61.0533 7.90031 61.0528C7.90031 61.0525 7.90031 61.0525 7.90031 61.0522C7.90031 61.0517 7.90031 61.0512 7.90031 61.0507C7.90031 61.0505 7.90031 61.0505 7.90031 61.0502C7.90031 61.0497 7.90031 61.0492 7.90031 61.0487C7.90031 61.0485 7.90031 61.0482 7.90031 61.048C7.90031 61.0476 7.90015 61.0469 7.90015 61.0462C7.90015 61.0462 7.90015 61.0462 7.90015 61.0461C7.90015 61.0454 7.90015 61.0447 7.90015 61.0441V56.8039H11.788V62.8442Z" fill="white"/>
</mask>
<g mask="url(#mask19_968_843)">
<path d="M11.788 62.8442C9.41295 62.3925 7.92655 61.7618 7.90063 61.0627C7.90063 61.0626 7.90063 61.0627 7.90063 61.0626C7.90047 61.0619 7.90047 61.0612 7.90047 61.0608C7.90047 61.0606 7.90047 61.0606 7.90047 61.0606C7.90047 61.0599 7.90047 61.0594 7.90047 61.0588V61.0584C7.90047 61.0579 7.90047 61.0575 7.90031 61.0568C7.90031 61.0566 7.90031 61.0565 7.90031 61.0563C7.90031 61.0558 7.90031 61.0553 7.90031 61.0548C7.90031 61.0546 7.90031 61.0543 7.90031 61.0543C7.90031 61.0538 7.90031 61.0533 7.90031 61.0528C7.90031 61.0525 7.90031 61.0525 7.90031 61.0522C7.90031 61.0517 7.90031 61.0512 7.90031 61.0507C7.90031 61.0505 7.90031 61.0505 7.90031 61.0502C7.90031 61.0497 7.90031 61.0492 7.90031 61.0487C7.90031 61.0485 7.90031 61.0482 7.90031 61.048C7.90031 61.0476 7.90015 61.0469 7.90015 61.0462C7.90015 61.0462 7.90015 61.0462 7.90015 61.0461C7.90015 61.0454 7.90015 61.0447 7.90015 61.0441V56.8039H11.788V62.8442Z" fill="url(#paint22_linear_968_843)"/>
</g>
<mask id="mask20_968_843" style="mask-type:luminance" maskUnits="userSpaceOnUse" x="7" y="54" width="27" height="6">
<path d="M33.44 56.8026C33.44 58.1872 27.7227 59.3093 20.6701 59.3093C13.6174 59.3093 7.90015 58.1872 7.90015 56.8026C7.90015 55.4185 13.6174 54.2961 20.6701 54.2961C27.7227 54.2961 33.44 55.4185 33.44 56.8026Z" fill="white"/>
</mask>
<g mask="url(#mask20_968_843)">
<path d="M33.44 56.8026C33.44 58.1872 27.7227 59.3093 20.6701 59.3093C13.6174 59.3093 7.90015 58.1872 7.90015 56.8026C7.90015 55.4185 13.6174 54.2961 20.6701 54.2961C27.7227 54.2961 33.44 55.4185 33.44 56.8026Z" fill="url(#paint23_linear_968_843)"/>
</g>
<mask id="mask21_968_843" style="mask-type:luminance" maskUnits="userSpaceOnUse" x="7" y="48" width="27" height="8">
<path d="M20.6702 55.1233C13.6493 55.1233 7.95183 54.011 7.90063 52.6354C7.92671 53.3345 9.41311 53.965 11.788 54.4166V48.3766H7.90015H23.8001V49.3461V51.1786H26.0251H33.44V52.6166C33.44 53.6729 30.1117 54.5765 25.4013 54.9456C23.9381 55.0603 22.3416 55.1233 20.6702 55.1233ZM7.90063 52.6353C7.90047 52.6346 7.90047 52.6339 7.90047 52.6334C7.90047 52.6341 7.90047 52.6346 7.90063 52.6353ZM7.90047 52.6331C7.90047 52.6326 7.90047 52.632 7.90047 52.6315C7.90047 52.6321 7.90047 52.6326 7.90047 52.6331ZM7.90047 52.6311C7.90047 52.6305 7.90047 52.63 7.90031 52.6295C7.90047 52.63 7.90047 52.6306 7.90047 52.6311ZM7.90031 52.627C7.90031 52.6265 7.90031 52.626 7.90031 52.6255C7.90031 52.626 7.90031 52.6263 7.90031 52.627ZM7.90031 52.6229C7.90031 52.6224 7.90031 52.6217 7.90031 52.6214C7.90031 52.6219 7.90031 52.6222 7.90031 52.6229ZM7.90031 52.6207C7.90031 52.6202 7.90015 52.6194 7.90015 52.6189C7.90015 52.6196 7.90031 52.6201 7.90031 52.6207Z" fill="white"/>
</mask>
<g mask="url(#mask21_968_843)">
<path d="M20.6702 55.1233C13.6493 55.1233 7.95183 54.011 7.90063 52.6354C7.92671 53.3345 9.41311 53.965 11.788 54.4166V48.3766H7.90015H23.8001V49.3461V51.1786H26.0251H33.44V52.6166C33.44 53.6729 30.1117 54.5765 25.4013 54.9456C23.9381 55.0603 22.3416 55.1233 20.6702 55.1233ZM7.90063 52.6353C7.90047 52.6346 7.90047 52.6339 7.90047 52.6334C7.90047 52.6341 7.90047 52.6346 7.90063 52.6353ZM7.90047 52.6331C7.90047 52.6326 7.90047 52.632 7.90047 52.6315C7.90047 52.6321 7.90047 52.6326 7.90047 52.6331ZM7.90047 52.6311C7.90047 52.6305 7.90047 52.63 7.90031 52.6295C7.90047 52.63 7.90047 52.6306 7.90047 52.6311ZM7.90031 52.627C7.90031 52.6265 7.90031 52.626 7.90031 52.6255C7.90031 52.626 7.90031 52.6263 7.90031 52.627ZM7.90031 52.6229C7.90031 52.6224 7.90031 52.6217 7.90031 52.6214C7.90031 52.6219 7.90031 52.6222 7.90031 52.6229ZM7.90031 52.6207C7.90031 52.6202 7.90015 52.6194 7.90015 52.6189C7.90015 52.6196 7.90031 52.6201 7.90031 52.6207Z" fill="url(#paint24_linear_968_843)"/>
</g>
<mask id="mask22_968_843" style="mask-type:luminance" maskUnits="userSpaceOnUse" x="7" y="52" width="1" height="1">
<path d="M7.90045 52.6338C7.90045 52.6336 7.90045 52.6335 7.90045 52.6335C7.90045 52.6336 7.90045 52.6336 7.90045 52.6338ZM7.9003 52.626C7.9003 52.6258 7.9003 52.6255 7.9003 52.6253C7.9003 52.6257 7.9003 52.6257 7.9003 52.626ZM7.9003 52.6219C7.9003 52.6218 7.9003 52.6214 7.9003 52.6213C7.9003 52.6216 7.9003 52.6216 7.9003 52.6219ZM7.90015 52.6195V52.6193C7.90015 52.6193 7.90015 52.6193 7.90015 52.6195Z" fill="white"/>
</mask>
<g mask="url(#mask22_968_843)">
<path d="M7.90045 52.6338C7.90045 52.6336 7.90045 52.6335 7.90045 52.6335C7.90045 52.6336 7.90045 52.6336 7.90045 52.6338ZM7.9003 52.626C7.9003 52.6258 7.9003 52.6255 7.9003 52.6253C7.9003 52.6257 7.9003 52.6257 7.9003 52.626ZM7.9003 52.6219C7.9003 52.6218 7.9003 52.6214 7.9003 52.6213C7.9003 52.6216 7.9003 52.6216 7.9003 52.6219ZM7.90015 52.6195V52.6193C7.90015 52.6193 7.90015 52.6193 7.90015 52.6195Z" fill="url(#paint25_linear_968_843)"/>
</g>
<mask id="mask23_968_843" style="mask-type:luminance" maskUnits="userSpaceOnUse" x="7" y="48" width="5" height="7">
<path d="M11.788 54.4183C9.41311 53.9667 7.92671 53.3363 7.90063 52.6372C7.90063 52.637 7.90063 52.637 7.90063 52.637C7.90047 52.6363 7.90047 52.6358 7.90047 52.6352C7.90047 52.635 7.90047 52.635 7.90047 52.6349C7.90047 52.6344 7.90047 52.6339 7.90047 52.6332C7.90047 52.633 7.90047 52.633 7.90047 52.6329C7.90047 52.6324 7.90047 52.6317 7.90031 52.6312C7.90031 52.6311 7.90031 52.6309 7.90031 52.6307C7.90031 52.6302 7.90031 52.6297 7.90031 52.6292C7.90031 52.6291 7.90031 52.6289 7.90031 52.6287C7.90031 52.6281 7.90031 52.6278 7.90031 52.6273C7.90031 52.6269 7.90031 52.6269 7.90031 52.6266C7.90031 52.6261 7.90031 52.6256 7.90031 52.6251C7.90031 52.6249 7.90031 52.6248 7.90031 52.6246C7.90031 52.624 7.90031 52.6236 7.90031 52.6231C7.90031 52.6228 7.90031 52.6228 7.90031 52.6225C7.90031 52.6218 7.90015 52.6213 7.90015 52.6207C7.90015 52.6205 7.90015 52.6205 7.90015 52.6205C7.90015 52.6198 7.90015 52.619 7.90015 52.6184V48.3783H11.788V54.4183Z" fill="white"/>
</mask>
<g mask="url(#mask23_968_843)">
<path d="M11.788 54.4183C9.41311 53.9667 7.92671 53.3363 7.90063 52.6372C7.90063 52.637 7.90063 52.637 7.90063 52.637C7.90047 52.6363 7.90047 52.6358 7.90047 52.6352C7.90047 52.635 7.90047 52.635 7.90047 52.6349C7.90047 52.6344 7.90047 52.6339 7.90047 52.6332C7.90047 52.633 7.90047 52.633 7.90047 52.6329C7.90047 52.6324 7.90047 52.6317 7.90031 52.6312C7.90031 52.6311 7.90031 52.6309 7.90031 52.6307C7.90031 52.6302 7.90031 52.6297 7.90031 52.6292C7.90031 52.6291 7.90031 52.6289 7.90031 52.6287C7.90031 52.6281 7.90031 52.6278 7.90031 52.6273C7.90031 52.6269 7.90031 52.6269 7.90031 52.6266C7.90031 52.6261 7.90031 52.6256 7.90031 52.6251C7.90031 52.6249 7.90031 52.6248 7.90031 52.6246C7.90031 52.624 7.90031 52.6236 7.90031 52.6231C7.90031 52.6228 7.90031 52.6228 7.90031 52.6225C7.90031 52.6218 7.90015 52.6213 7.90015 52.6207C7.90015 52.6205 7.90015 52.6205 7.90015 52.6205C7.90015 52.6198 7.90015 52.619 7.90015 52.6184V48.3783H11.788V54.4183Z" fill="url(#paint26_linear_968_843)"/>
</g>
<mask id="mask24_968_843" style="mask-type:luminance" maskUnits="userSpaceOnUse" x="7" y="45" width="27" height="6">
<path d="M33.44 48.377C33.44 49.7614 27.7227 50.8835 20.6701 50.8835C13.6174 50.8835 7.90015 49.7614 7.90015 48.377C7.90015 46.9925 13.6174 45.8703 20.6701 45.8703C27.7227 45.8703 33.44 46.9925 33.44 48.377Z" fill="white"/>
</mask>
<g mask="url(#mask24_968_843)">
<path d="M33.44 48.377C33.44 49.7614 27.7227 50.8835 20.6701 50.8835C13.6174 50.8835 7.90015 49.7614 7.90015 48.377C7.90015 46.9925 13.6174 45.8703 20.6701 45.8703C27.7227 45.8703 33.44 46.9925 33.44 48.377Z" fill="url(#paint27_linear_968_843)"/>
</g>
<path d="M77.2792 43.8395V27.0533C77.2791 23.6075 74.5706 20.8145 71.2293 20.8144C67.8879 20.8145 65.1794 23.6075 65.1792 27.0533V76.0275C65.1791 77.0891 64.7629 78.0474 64.0883 78.7435C63.4133 79.439 62.4842 79.8684 61.4546 79.8686H46.6856C45.6562 79.8684 44.7269 79.439 44.0519 78.7435C43.3773 78.0472 42.9611 77.0891 42.961 76.0275V58.0526H42.321V76.0275C42.3211 78.5134 44.2751 80.5284 46.6856 80.5286H61.4546C63.8653 80.5284 65.8191 78.5134 65.8192 76.0275V27.0533C65.8194 25.5118 66.4243 24.119 67.4039 23.1084C68.3839 22.0982 69.7343 21.4745 71.2293 21.4744C72.7242 21.4745 74.0746 22.0982 75.0546 23.1084C76.0341 24.119 76.6391 25.5118 76.6392 27.0533V43.8395H77.2792Z" fill="#232B57"/>
<mask id="mask25_968_843" style="mask-type:luminance" maskUnits="userSpaceOnUse" x="41" y="70" width="2" height="4">
<path d="M42.439 73.5024H42.1627C41.8912 73.5024 41.6712 73.2756 41.6712 72.9958V70.7875V71.2666H42.9304V72.9958C42.9304 73.2756 42.7104 73.5024 42.439 73.5024Z" fill="white"/>
</mask>
<g mask="url(#mask25_968_843)">
<path d="M42.439 73.5024H42.1627C41.8912 73.5024 41.6712 73.2756 41.6712 72.9958V70.7875V71.2666H42.9304V72.9958C42.9304 73.2756 42.7104 73.5024 42.439 73.5024Z" fill="url(#paint28_linear_968_843)"/>
</g>
<mask id="mask26_968_843" style="mask-type:luminance" maskUnits="userSpaceOnUse" x="41" y="70" width="3" height="4">
<path d="M43.1194 73.5024H42.439C42.7104 73.5024 42.9304 73.2756 42.9304 72.9958V71.2666H41.6712V70.7875H43.4098H43.6107V72.9958C43.6107 73.2756 43.3907 73.5024 43.1194 73.5024Z" fill="white"/>
</mask>
<g mask="url(#mask26_968_843)">
<path d="M43.1194 73.5024H42.439C42.7104 73.5024 42.9304 73.2756 42.9304 72.9958V71.2666H41.6712V70.7875H43.4098H43.6107V72.9958C43.6107 73.2756 43.3907 73.5024 43.1194 73.5024Z" fill="url(#paint29_linear_968_843)"/>
</g>
<mask id="mask27_968_843" style="mask-type:luminance" maskUnits="userSpaceOnUse" x="39" y="64" width="7" height="7">
<path d="M43.4097 70.79H40.7989C40.3091 70.79 39.912 70.3805 39.912 69.8753V67.5386V65.7947C39.912 65.2895 40.3091 64.8801 40.7989 64.8801H42.3209H42.9609H44.4832H43.4097C43.8997 64.8801 44.2968 65.2895 44.2968 65.7947V69.8753C44.2968 70.3805 43.8997 70.79 43.4097 70.79Z" fill="white"/>
</mask>
<g mask="url(#mask27_968_843)">
<path d="M43.4097 70.79H40.7989C40.3091 70.79 39.912 70.3805 39.912 69.8753V67.5386V65.7947C39.912 65.2895 40.3091 64.8801 40.7989 64.8801H42.3209H42.9609H44.4832H43.4097C43.8997 64.8801 44.2968 65.2895 44.2968 65.7947V69.8753C44.2968 70.3805 43.8997 70.79 43.4097 70.79Z" fill="url(#paint30_linear_968_843)"/>
</g>
<mask id="mask28_968_843" style="mask-type:luminance" maskUnits="userSpaceOnUse" x="43" y="64" width="3" height="7">
<path d="M44.4832 70.79H43.4097C43.8996 70.79 44.2968 70.3805 44.2968 69.8753V65.7947C44.2968 65.2895 43.8996 64.8801 43.4097 64.8801H44.4832C44.9729 64.8801 45.3699 65.2895 45.3699 65.7947V67.5386V69.8753C45.3699 70.3805 44.9729 70.79 44.4832 70.79Z" fill="white"/>
</mask>
<g mask="url(#mask28_968_843)">
<path d="M44.4832 70.79H43.4097C43.8996 70.79 44.2968 70.3805 44.2968 69.8753V65.7947C44.2968 65.2895 43.8996 64.8801 43.4097 64.8801H44.4832C44.9729 64.8801 45.3699 65.2895 45.3699 65.7947V67.5386V69.8753C45.3699 70.3805 44.9729 70.79 44.4832 70.79Z" fill="url(#paint31_linear_968_843)"/>
</g>
<mask id="mask29_968_843" style="mask-type:luminance" maskUnits="userSpaceOnUse" x="74" y="49" width="5" height="5">
<path d="M74.7237 53.653H78.2371V49.7907H74.7237V53.653Z" fill="white"/>
</mask>
<g mask="url(#mask29_968_843)">
<path d="M74.7237 53.653H78.2371V49.7907H74.7237V53.653Z" fill="url(#paint32_linear_968_843)"/>
</g>
<mask id="mask30_968_843" style="mask-type:luminance" maskUnits="userSpaceOnUse" x="78" y="49" width="2" height="5">
<path d="M79.1947 53.653H78.2371V49.7906H79.1947V53.653Z" fill="white"/>
</mask>
<g mask="url(#mask30_968_843)">
<path d="M79.1947 53.653H78.2371V49.7906H79.1947V53.653Z" fill="url(#paint33_linear_968_843)"/>
</g>
<mask id="mask31_968_843" style="mask-type:luminance" maskUnits="userSpaceOnUse" x="75" y="41" width="3" height="4">
<path d="M75.9894 44.2401V42.0319C75.9894 41.7521 76.2094 41.5252 76.4807 41.5252H76.6391H77.2791H77.4374H76.7572C77.0286 41.5252 77.2486 41.7521 77.2486 42.0319V43.7611H75.9894V44.2401Z" fill="white"/>
</mask>
<g mask="url(#mask31_968_843)">
<path d="M75.9894 44.2401V42.0319C75.9894 41.7521 76.2094 41.5252 76.4807 41.5252H76.6391H77.2791H77.4374H76.7572C77.0286 41.5252 77.2486 41.7521 77.2486 42.0319V43.7611H75.9894V44.2401Z" fill="url(#paint34_linear_968_843)"/>
</g>
<mask id="mask32_968_843" style="mask-type:luminance" maskUnits="userSpaceOnUse" x="75" y="41" width="3" height="4">
<path d="M77.9289 44.2401H75.9894V43.7611H77.2486V42.0319C77.2486 41.7521 77.0286 41.5252 76.7572 41.5252H77.4374C77.7089 41.5252 77.9289 41.7521 77.9289 42.0319V44.2401Z" fill="white"/>
</mask>
<g mask="url(#mask32_968_843)">
<path d="M77.9289 44.2401H75.9894V43.7611H77.2486V42.0319C77.2486 41.7521 77.0286 41.5252 76.7572 41.5252H77.4374C77.7089 41.5252 77.9289 41.7521 77.9289 42.0319V44.2401Z" fill="url(#paint35_linear_968_843)"/>
</g>
<mask id="mask33_968_843" style="mask-type:luminance" maskUnits="userSpaceOnUse" x="74" y="44" width="6" height="6">
<path d="M78.6151 49.7891H74.2302V45.1534C74.2302 44.6482 74.6273 44.2386 75.117 44.2386H75.9895H77.929H78.8014H77.7281C78.2178 44.2386 78.6151 44.6482 78.6151 45.1534V49.7891Z" fill="white"/>
</mask>
<g mask="url(#mask33_968_843)">
<path d="M78.6151 49.7891H74.2302V45.1534C74.2302 44.6482 74.6273 44.2386 75.117 44.2386H75.9895H77.929H78.8014H77.7281C78.2178 44.2386 78.6151 44.6482 78.6151 45.1534V49.7891Z" fill="url(#paint36_linear_968_843)"/>
</g>
<mask id="mask34_968_843" style="mask-type:luminance" maskUnits="userSpaceOnUse" x="77" y="44" width="3" height="6">
<path d="M79.6881 49.7891H78.6149V45.1534C78.6149 44.6482 78.2177 44.2386 77.7279 44.2386H78.8012C79.2909 44.2386 79.6881 44.6482 79.6881 45.1534V49.7891Z" fill="white"/>
</mask>
<g mask="url(#mask34_968_843)">
<path d="M79.6881 49.7891H78.6149V45.1534C78.6149 44.6482 78.2177 44.2386 77.7279 44.2386H78.8012C79.2909 44.2386 79.6881 44.6482 79.6881 45.1534V49.7891Z" fill="url(#paint37_linear_968_843)"/>
</g>
<mask id="mask35_968_843" style="mask-type:luminance" maskUnits="userSpaceOnUse" x="75" y="51" width="2" height="2">
<path d="M76.3836 52.2229H75.3861V51.1941H76.3836V52.2229Z" fill="white"/>
</mask>
<g mask="url(#mask35_968_843)">
<path d="M76.3836 52.2229H75.3861V51.1941H76.3836V52.2229Z" fill="url(#paint38_linear_968_843)"/>
</g>
<mask id="mask36_968_843" style="mask-type:luminance" maskUnits="userSpaceOnUse" x="77" y="51" width="2" height="2">
<path d="M78.5321 52.2229H77.5347V51.1941H78.5321V52.2229Z" fill="white"/>
</mask>
<g mask="url(#mask36_968_843)">
<path d="M78.5321 52.2229H77.5347V51.1941H78.5321V52.2229Z" fill="url(#paint39_linear_968_843)"/>
</g>
<mask id="mask37_968_843" style="mask-type:luminance" maskUnits="userSpaceOnUse" x="23" y="11" width="38" height="41">
<path d="M60.1996 51.179H57.9748V15.737C57.9748 15.286 57.7975 14.8776 57.511 14.5821C57.2244 14.2868 56.8286 14.104 56.3913 14.104H27.6086C26.734 14.104 26.0251 14.8351 26.0251 15.737V47.0521V51.179H23.8001V49.3465V48.3769V17.4122V14.7739C23.8001 13.1367 25.0871 11.8095 26.6747 11.8095H57.3252C58.119 11.8095 58.8375 12.1413 59.3577 12.6777C59.5291 12.8544 59.6788 13.0532 59.8027 13.2699C60.055 13.7108 60.1996 14.2249 60.1996 14.7739V17.4122V51.179Z" fill="white"/>
</mask>
<g mask="url(#mask37_968_843)">
<path d="M60.1996 51.179H57.9748V15.737C57.9748 15.286 57.7975 14.8776 57.511 14.5821C57.2244 14.2868 56.8286 14.104 56.3913 14.104H27.6086C26.734 14.104 26.0251 14.8351 26.0251 15.737V47.0521V51.179H23.8001V49.3465V48.3769V17.4122V14.7739C23.8001 13.1367 25.0871 11.8095 26.6747 11.8095H57.3252C58.119 11.8095 58.8375 12.1413 59.3577 12.6777C59.5291 12.8544 59.6788 13.0532 59.8027 13.2699C60.055 13.7108 60.1996 14.2249 60.1996 14.7739V17.4122V51.179Z" fill="url(#paint40_linear_968_843)"/>
</g>
<mask id="mask38_968_843" style="mask-type:luminance" maskUnits="userSpaceOnUse" x="23" y="51" width="38" height="16">
<path d="M23.8001 51.1802V63.2536C23.8001 64.8908 25.0871 66.218 26.6747 66.218H57.3252C58.9127 66.218 60.1996 64.8908 60.1996 63.2536V51.1802H23.8001Z" fill="white"/>
</mask>
<g mask="url(#mask38_968_843)">
<path d="M23.8001 51.1802V63.2536C23.8001 64.8908 25.0871 66.218 26.6747 66.218H57.3252C58.9127 66.218 60.1996 64.8908 60.1996 63.2536V51.1802H23.8001Z" fill="url(#paint41_linear_968_843)"/>
</g>
<mask id="mask39_968_843" style="mask-type:luminance" maskUnits="userSpaceOnUse" x="26" y="14" width="32" height="38">
<path d="M57.9749 51.179H26.0251V15.737C26.0251 14.8351 26.7341 14.104 27.6087 14.104H56.3914C56.8287 14.104 57.2245 14.2868 57.5111 14.5821C57.7976 14.8776 57.9749 15.286 57.9749 15.737V51.179ZM41.7341 38.7066C41.1093 38.8558 40.6437 39.4333 40.6437 40.1228C40.6437 40.9255 41.2747 41.5765 42.0531 41.5765C42.8317 41.5765 43.4627 40.9255 43.4627 40.1228C43.4627 39.4333 42.9971 38.8558 42.3723 38.7066V34.4174L44.6418 32.0771V29.5273H45.28V27.5528H43.3651V29.5273H44.0035V31.8045L42.3723 33.4867V25.9868H43.3298L42.0531 23.7066L40.7767 25.9868H41.7341V35.9368L40.1031 34.2546V32.1101C40.5346 31.9702 40.8475 31.5544 40.8475 31.0631C40.8475 30.4574 40.3714 29.9662 39.7837 29.9662C39.1963 29.9662 38.72 30.4574 38.72 31.0631C38.72 31.5544 39.0331 31.9703 39.4647 32.1101V34.5272L41.7341 36.8675V38.7066Z" fill="white"/>
</mask>
<g mask="url(#mask39_968_843)">
<path d="M57.9749 51.179H26.0251V15.737C26.0251 14.8351 26.7341 14.104 27.6087 14.104H56.3914C56.8287 14.104 57.2245 14.2868 57.5111 14.5821C57.7976 14.8776 57.9749 15.286 57.9749 15.737V51.179ZM41.7341 38.7066C41.1093 38.8558 40.6437 39.4333 40.6437 40.1228C40.6437 40.9255 41.2747 41.5765 42.0531 41.5765C42.8317 41.5765 43.4627 40.9255 43.4627 40.1228C43.4627 39.4333 42.9971 38.8558 42.3723 38.7066V34.4174L44.6418 32.0771V29.5273H45.28V27.5528H43.3651V29.5273H44.0035V31.8045L42.3723 33.4867V25.9868H43.3298L42.0531 23.7066L40.7767 25.9868H41.7341V35.9368L40.1031 34.2546V32.1101C40.5346 31.9702 40.8475 31.5544 40.8475 31.0631C40.8475 30.4574 40.3714 29.9662 39.7837 29.9662C39.1963 29.9662 38.72 30.4574 38.72 31.0631C38.72 31.5544 39.0331 31.9703 39.4647 32.1101V34.5272L41.7341 36.8675V38.7066Z" fill="url(#paint42_linear_968_843)"/>
</g>
<mask id="mask40_968_843" style="mask-type:luminance" maskUnits="userSpaceOnUse" x="26" y="51" width="32" height="13">
<path d="M26.0251 51.1786V62.2889C26.0251 63.1908 26.7341 63.9219 27.6087 63.9219H56.3914C57.2659 63.9219 57.9749 63.1908 57.9749 62.2889V51.1786H26.0251Z" fill="white"/>
</mask>
<g mask="url(#mask40_968_843)">
<path d="M26.0251 51.1786V62.2889C26.0251 63.1908 26.7341 63.9219 27.6087 63.9219H56.3914C57.2659 63.9219 57.9749 63.1908 57.9749 62.2889V51.1786H26.0251Z" fill="url(#paint43_linear_968_843)"/>
</g>
<path d="M30.639 60.7455C30.639 61.1556 30.3166 61.488 29.919 61.488C29.5212 61.488 29.199 61.1556 29.199 60.7455C29.199 60.3355 29.5212 60.003 29.919 60.003C30.3166 60.003 30.639 60.3355 30.639 60.7455Z" fill="white"/>
<path d="M34.2391 60.7455C34.2391 61.1556 33.9167 61.488 33.5191 61.488C33.1213 61.488 32.7991 61.1556 32.7991 60.7455C32.7991 60.3355 33.1213 60.003 33.5191 60.003C33.9167 60.003 34.2391 60.3355 34.2391 60.7455Z" fill="white"/>
<path d="M37.839 60.7455C37.839 61.1556 37.5166 61.488 37.119 61.488C36.7212 61.488 36.399 61.1556 36.399 60.7455C36.399 60.3355 36.7212 60.003 37.119 60.003C37.5166 60.003 37.839 60.3355 37.839 60.7455Z" fill="white"/>
<mask id="mask41_968_843" style="mask-type:luminance" maskUnits="userSpaceOnUse" x="41" y="25" width="2" height="14">
<path d="M42.3723 38.7079C42.2698 38.6835 42.1629 38.6704 42.0531 38.6704C41.9435 38.6704 41.8366 38.6835 41.7341 38.7079V36.8688L41.8275 36.9652L42.2789 36.4999L41.7341 35.938V25.988H42.3723V33.4879L41.8275 34.0498L42.2789 34.5151L42.3723 34.4187V38.7079Z" fill="white"/>
</mask>
<g mask="url(#mask41_968_843)">
<path d="M42.3723 38.7079C42.2698 38.6835 42.1629 38.6704 42.0531 38.6704C41.9435 38.6704 41.8366 38.6835 41.7341 38.7079V36.8688L41.8275 36.9652L42.2789 36.4999L41.7341 35.938V25.988H42.3723V33.4879L41.8275 34.0498L42.2789 34.5151L42.3723 34.4187V38.7079Z" fill="url(#paint44_linear_968_843)"/>
</g>
<mask id="mask42_968_843" style="mask-type:luminance" maskUnits="userSpaceOnUse" x="41" y="29" width="4" height="6">
<path d="M42.2788 34.5151L41.8275 34.0498L42.3723 33.488L44.0035 31.8058V29.5287H44.6417V32.0784L42.3723 34.4188L42.2788 34.5151Z" fill="white"/>
</mask>
<g mask="url(#mask42_968_843)">
<path d="M42.2788 34.5151L41.8275 34.0498L42.3723 33.488L44.0035 31.8058V29.5287H44.6417V32.0784L42.3723 34.4188L42.2788 34.5151Z" fill="url(#paint45_linear_968_843)"/>
</g>
<mask id="mask43_968_843" style="mask-type:luminance" maskUnits="userSpaceOnUse" x="39" y="32" width="4" height="5">
<path d="M41.8275 36.9656L41.734 36.8692L39.4646 34.5289V32.1118C39.5654 32.1444 39.6726 32.1619 39.7836 32.1619C39.8948 32.1619 40.0022 32.1443 40.103 32.1118V34.2563L41.734 35.9385L42.2788 36.5003L41.8275 36.9656Z" fill="white"/>
</mask>
<g mask="url(#mask43_968_843)">
<path d="M41.8275 36.9656L41.734 36.8692L39.4646 34.5289V32.1118C39.5654 32.1444 39.6726 32.1619 39.7836 32.1619C39.8948 32.1619 40.0022 32.1443 40.103 32.1118V34.2563L41.734 35.9385L42.2788 36.5003L41.8275 36.9656Z" fill="url(#paint46_linear_968_843)"/>
</g>
<mask id="mask44_968_843" style="mask-type:luminance" maskUnits="userSpaceOnUse" x="43" y="27" width="3" height="3">
<path d="M45.2801 29.5266H43.3652V27.5521H45.2801V29.5266Z" fill="white"/>
</mask>
<g mask="url(#mask44_968_843)">
<path d="M45.2801 29.5266H43.3652V27.5521H45.2801V29.5266Z" fill="url(#paint47_linear_968_843)"/>
</g>
<mask id="mask45_968_843" style="mask-type:luminance" maskUnits="userSpaceOnUse" x="38" y="29" width="3" height="4">
<path d="M39.7837 32.1619C39.6726 32.1619 39.5654 32.1444 39.4646 32.1117C39.0331 31.9719 38.72 31.556 38.72 31.0648C38.72 30.4591 39.1963 29.9679 39.7837 29.9679C40.3713 29.9679 40.8475 30.4591 40.8475 31.0648C40.8475 31.556 40.5345 31.9718 40.103 32.1117C40.0022 32.1442 39.8949 32.1619 39.7837 32.1619Z" fill="white"/>
</mask>
<g mask="url(#mask45_968_843)">
<path d="M39.7837 32.1619C39.6726 32.1619 39.5654 32.1444 39.4646 32.1117C39.0331 31.9719 38.72 31.556 38.72 31.0648C38.72 30.4591 39.1963 29.9679 39.7837 29.9679C40.3713 29.9679 40.8475 30.4591 40.8475 31.0648C40.8475 31.556 40.5345 31.9718 40.103 32.1117C40.0022 32.1442 39.8949 32.1619 39.7837 32.1619Z" fill="url(#paint48_linear_968_843)"/>
</g>
<mask id="mask46_968_843" style="mask-type:luminance" maskUnits="userSpaceOnUse" x="40" y="38" width="4" height="4">
<path d="M42.0532 41.5781C41.2748 41.5781 40.6437 40.9272 40.6437 40.1245C40.6437 39.4349 41.1093 38.8574 41.7341 38.7083C41.8367 38.6839 41.9436 38.6708 42.0532 38.6708C42.1629 38.6708 42.2698 38.6839 42.3724 38.7083C42.9972 38.8574 43.4628 39.4349 43.4628 40.1245C43.4628 40.9272 42.8317 41.5781 42.0532 41.5781Z" fill="white"/>
</mask>
<g mask="url(#mask46_968_843)">
<path d="M42.0532 41.5781C41.2748 41.5781 40.6437 40.9272 40.6437 40.1245C40.6437 39.4349 41.1093 38.8574 41.7341 38.7083C41.8367 38.6839 41.9436 38.6708 42.0532 38.6708C42.1629 38.6708 42.2698 38.6839 42.3724 38.7083C42.9972 38.8574 43.4628 39.4349 43.4628 40.1245C43.4628 40.9272 42.8317 41.5781 42.0532 41.5781Z" fill="url(#paint49_linear_968_843)"/>
</g>
<mask id="mask47_968_843" style="mask-type:luminance" maskUnits="userSpaceOnUse" x="40" y="23" width="4" height="3">
<path d="M43.3298 25.9885H40.7767L42.0532 23.7084L43.3298 25.9885Z" fill="white"/>
</mask>
<g mask="url(#mask47_968_843)">
<path d="M43.3298 25.9885H40.7767L42.0532 23.7084L43.3298 25.9885Z" fill="url(#paint50_linear_968_843)"/>
</g>
<path d="M68.2061 38.97C68.6933 39.1492 69.0766 39.5531 69.239 40.0608C69.4017 39.5531 69.7849 39.1492 70.2721 38.97C69.7849 38.7909 69.4017 38.387 69.239 37.8793C69.0766 38.387 68.6933 38.7909 68.2061 38.97Z" fill="white"/>
<path d="M14.9119 42.7332C15.3989 42.9122 15.7823 43.3161 15.9448 43.8239C16.1074 43.3161 16.4907 42.9122 16.9778 42.7332C16.4907 42.554 16.1074 42.1501 15.9448 41.6424C15.7823 42.1501 15.3989 42.554 14.9119 42.7332Z" fill="white"/>
<path d="M48.9677 22.9876C49.4205 23.1541 49.7767 23.5295 49.9277 24.0012C50.0788 23.5295 50.4351 23.1541 50.8877 22.9876C50.4351 22.8213 50.0788 22.4459 49.9277 21.974C49.7767 22.4459 49.4205 22.8213 48.9677 22.9876Z" fill="white"/>
<path d="M18.901 32.4523C19.3186 32.6058 19.647 32.9521 19.7864 33.3872C19.9258 32.9521 20.2542 32.6058 20.6718 32.4523C20.2542 32.2989 19.9258 31.9525 19.7864 31.5174C19.647 31.9525 19.3186 32.2989 18.901 32.4523Z" fill="white"/>
<path d="M71.1221 33.903C72.0521 34.2449 72.7837 35.0161 73.0941 35.9854C73.4044 35.0161 74.1362 34.2449 75.0661 33.903C74.1362 33.5613 73.4044 32.7901 73.0941 31.8209C72.7837 32.7901 72.0521 33.5613 71.1221 33.903Z" fill="white"/>
<path d="M9.65674 38.7943C10.5867 39.1362 11.3185 39.9073 11.6289 40.8765C11.9391 39.9073 12.6708 39.1362 13.6009 38.7943C12.6708 38.4524 11.9391 37.6814 11.6289 36.7122C11.3185 37.6814 10.5867 38.4524 9.65674 38.7943Z" fill="white"/>
<path d="M52.5304 18.0446C53.3229 18.3358 53.9462 18.9927 54.2104 19.8184C54.4749 18.9927 55.0982 18.3358 55.8904 18.0446C55.0982 17.7534 54.4749 17.0965 54.2104 16.2709C53.9462 17.0965 53.3229 17.7534 52.5304 18.0446Z" fill="white"/>
</g>
<defs>
<radialGradient id="paint0_radial_968_843" cx="0" cy="0" r="1" gradientUnits="userSpaceOnUse" gradientTransform="translate(45 26) rotate(50.906) scale(61.8466 64.4504)">
<stop stop-color="#B5EDFF"/>
<stop offset="1" stop-color="#A38CD5"/>
</radialGradient>
<radialGradient id="paint1_radial_968_843" cx="0" cy="0" r="1" gradientUnits="userSpaceOnUse" gradientTransform="translate(45.0424 26.459) rotate(51.1875) scale(58.5487 60.8854)">
<stop stop-color="#B5EDFF"/>
<stop offset="1" stop-color="#A38CD5"/>
</radialGradient>
<radialGradient id="paint2_radial_968_843" cx="0" cy="0" r="1" gradientUnits="userSpaceOnUse" gradientTransform="translate(45 26.5396) rotate(50.906) scale(58.194 60.644)">
<stop stop-color="#B5EDFF"/>
<stop offset="1" stop-color="#A38CD5"/>
</radialGradient>
<radialGradient id="paint3_radial_968_843" cx="0" cy="0" r="1" gradientUnits="userSpaceOnUse" gradientTransform="translate(48.7651 47.7106) rotate(58.644) scale(73.9017 86.6011)">
<stop stop-color="white"/>
<stop offset="1" stop-color="white" stop-opacity="0"/>
</radialGradient>
<linearGradient id="paint4_linear_968_843" x1="42" y1="85" x2="42" y2="2.5" gradientUnits="userSpaceOnUse">
<stop stop-color="#C9C8E9"/>
<stop offset="1" stop-color="#EBEBF8"/>
</linearGradient>
<linearGradient id="paint5_linear_968_843" x1="42.0001" y1="85" x2="42.0001" y2="2.5" gradientUnits="userSpaceOnUse">
<stop stop-color="#B6B6E2"/>
<stop offset="1" stop-color="#D6D7EF"/>
</linearGradient>
<linearGradient id="paint6_linear_968_843" x1="41.9999" y1="84.9986" x2="41.9999" y2="2.49864" gradientUnits="userSpaceOnUse">
<stop stop-color="#DDDCF1"/>
<stop offset="1" stop-color="#ECEDF8"/>
</linearGradient>
<linearGradient id="paint7_linear_968_843" x1="42" y1="84.9988" x2="42" y2="2.49885" gradientUnits="userSpaceOnUse">
<stop stop-color="#E6E6F6"/>
<stop offset="1" stop-color="#F8F8FC"/>
</linearGradient>
<linearGradient id="paint8_linear_968_843" x1="42" y1="84.9988" x2="42" y2="2.49885" gradientUnits="userSpaceOnUse">
<stop stop-color="#DDDCF1"/>
<stop offset="1" stop-color="#ECEDF8"/>
</linearGradient>
<linearGradient id="paint9_linear_968_843" x1="41.9999" y1="85.0007" x2="41.9999" y2="2.50072" gradientUnits="userSpaceOnUse">
<stop stop-color="#DDDCF1"/>
<stop offset="1" stop-color="#ECEDF8"/>
</linearGradient>
<linearGradient id="paint10_linear_968_843" x1="41.9998" y1="85.0007" x2="41.9998" y2="2.50072" gradientUnits="userSpaceOnUse">
<stop stop-color="#DDDCF1"/>
<stop offset="1" stop-color="#ECEDF8"/>
</linearGradient>
<linearGradient id="paint11_linear_968_843" x1="42" y1="85.0008" x2="42" y2="2.50084" gradientUnits="userSpaceOnUse">
<stop stop-color="#ABA9DC"/>
<stop offset="1" stop-color="#C7C5E8"/>
</linearGradient>
<linearGradient id="paint12_linear_968_843" x1="42" y1="85.0002" x2="42" y2="2.50018" gradientUnits="userSpaceOnUse">
<stop stop-color="#9999D5"/>
<stop offset="1" stop-color="#B5B5E1"/>
</linearGradient>
<linearGradient id="paint13_linear_968_843" x1="7.90015" y1="70.7601" x2="33.44" y2="70.7601" gradientUnits="userSpaceOnUse">
<stop stop-color="#BF43A9"/>
<stop offset="1" stop-color="#AC37A2"/>
</linearGradient>
<linearGradient id="paint14_linear_968_843" x1="40.2555" y1="84.7972" x2="40.2555" y2="3.54832" gradientUnits="userSpaceOnUse">
<stop stop-color="#F8F8FC"/>
<stop offset="1" stop-color="#FBFBFD"/>
</linearGradient>
<linearGradient id="paint15_linear_968_843" x1="7.90015" y1="70.7618" x2="33.44" y2="70.7618" gradientUnits="userSpaceOnUse">
<stop stop-color="#CF6ABC"/>
<stop offset="1" stop-color="#D174C1"/>
</linearGradient>
<linearGradient id="paint16_linear_968_843" x1="7.90015" y1="67.3873" x2="33.44" y2="67.3873" gradientUnits="userSpaceOnUse">
<stop stop-color="white"/>
<stop offset="1" stop-color="#D1D2ED"/>
</linearGradient>
<linearGradient id="paint17_linear_968_843" x1="7.90015" y1="65.4698" x2="33.44" y2="65.4698" gradientUnits="userSpaceOnUse">
<stop stop-color="#BF43A9"/>
<stop offset="1" stop-color="#AC37A2"/>
</linearGradient>
<linearGradient id="paint18_linear_968_843" x1="7.90015" y1="65.468" x2="33.44" y2="65.468" gradientUnits="userSpaceOnUse">
<stop stop-color="#CF6ABC"/>
<stop offset="1" stop-color="#D174C1"/>
</linearGradient>
<linearGradient id="paint19_linear_968_843" x1="7.90015" y1="62.0966" x2="33.44" y2="62.0966" gradientUnits="userSpaceOnUse">
<stop stop-color="white"/>
<stop offset="1" stop-color="#D1D2ED"/>
</linearGradient>
<linearGradient id="paint20_linear_968_843" x1="7.90015" y1="60.1758" x2="33.44" y2="60.1758" gradientUnits="userSpaceOnUse">
<stop stop-color="#BF43A9"/>
<stop offset="1" stop-color="#AC37A2"/>
</linearGradient>
<linearGradient id="paint21_linear_968_843" x1="40.2555" y1="84.6365" x2="40.2555" y2="3.38573" gradientUnits="userSpaceOnUse">
<stop stop-color="#F8F8FC"/>
<stop offset="1" stop-color="#FBFBFD"/>
</linearGradient>
<linearGradient id="paint22_linear_968_843" x1="7.90015" y1="60.1773" x2="33.44" y2="60.1773" gradientUnits="userSpaceOnUse">
<stop stop-color="#CF6ABC"/>
<stop offset="1" stop-color="#D174C1"/>
</linearGradient>
<linearGradient id="paint23_linear_968_843" x1="7.90015" y1="56.8026" x2="33.44" y2="56.8026" gradientUnits="userSpaceOnUse">
<stop stop-color="white"/>
<stop offset="1" stop-color="#D1D2ED"/>
</linearGradient>
<linearGradient id="paint24_linear_968_843" x1="7.90015" y1="51.7499" x2="33.44" y2="51.7499" gradientUnits="userSpaceOnUse">
<stop stop-color="#BF43A9"/>
<stop offset="1" stop-color="#AC37A2"/>
</linearGradient>
<linearGradient id="paint25_linear_968_843" x1="40.2555" y1="84.5096" x2="40.2555" y2="3.25883" gradientUnits="userSpaceOnUse">
<stop stop-color="#F8F8FC"/>
<stop offset="1" stop-color="#FBFBFD"/>
</linearGradient>
<linearGradient id="paint26_linear_968_843" x1="7.90015" y1="51.7516" x2="33.44" y2="51.7516" gradientUnits="userSpaceOnUse">
<stop stop-color="#CF6ABC"/>
<stop offset="1" stop-color="#D174C1"/>
</linearGradient>
<linearGradient id="paint27_linear_968_843" x1="7.90015" y1="48.377" x2="33.44" y2="48.377" gradientUnits="userSpaceOnUse">
<stop stop-color="white"/>
<stop offset="1" stop-color="#D1D2ED"/>
</linearGradient>
<linearGradient id="paint28_linear_968_843" x1="41.6712" y1="71.3863" x2="43.6106" y2="71.3863" gradientUnits="userSpaceOnUse">
<stop stop-color="#5C61B6"/>
<stop offset="1" stop-color="#3F45A3"/>
</linearGradient>
<linearGradient id="paint29_linear_968_843" x1="41.6712" y1="71.3863" x2="43.6106" y2="71.3863" gradientUnits="userSpaceOnUse">
<stop stop-color="#3C43A1"/>
<stop offset="1" stop-color="#2C3790"/>
</linearGradient>
<linearGradient id="paint30_linear_968_843" x1="39.912" y1="67.8351" x2="45.37" y2="67.8351" gradientUnits="userSpaceOnUse">
<stop stop-color="#5C61B6"/>
<stop offset="1" stop-color="#3F45A3"/>
</linearGradient>
<linearGradient id="paint31_linear_968_843" x1="39.912" y1="67.8351" x2="45.37" y2="67.8351" gradientUnits="userSpaceOnUse">
<stop stop-color="#3C43A1"/>
<stop offset="1" stop-color="#2C3790"/>
</linearGradient>
<linearGradient id="paint32_linear_968_843" x1="74.7237" y1="51.1811" x2="79.1946" y2="51.1811" gradientUnits="userSpaceOnUse">
<stop stop-color="#EBEBF8"/>
<stop offset="1" stop-color="#C9C8E9"/>
</linearGradient>
<linearGradient id="paint33_linear_968_843" x1="74.7236" y1="51.1811" x2="79.1946" y2="51.1811" gradientUnits="userSpaceOnUse">
<stop stop-color="#D4D3EE"/>
<stop offset="1" stop-color="#B4B3E0"/>
</linearGradient>
<linearGradient id="paint34_linear_968_843" x1="75.9894" y1="43.6413" x2="77.9288" y2="43.6413" gradientUnits="userSpaceOnUse">
<stop stop-color="#5C61B6"/>
<stop offset="1" stop-color="#3F45A3"/>
</linearGradient>
<linearGradient id="paint35_linear_968_843" x1="75.9894" y1="43.6413" x2="77.9288" y2="43.6413" gradientUnits="userSpaceOnUse">
<stop stop-color="#3C43A1"/>
<stop offset="1" stop-color="#2C3790"/>
</linearGradient>
<linearGradient id="paint36_linear_968_843" x1="74.2302" y1="47.0139" x2="79.6882" y2="47.0139" gradientUnits="userSpaceOnUse">
<stop stop-color="#5C61B6"/>
<stop offset="1" stop-color="#3F45A3"/>
</linearGradient>
<linearGradient id="paint37_linear_968_843" x1="74.23" y1="47.0139" x2="79.688" y2="47.0139" gradientUnits="userSpaceOnUse">
<stop stop-color="#3C43A1"/>
<stop offset="1" stop-color="#2C3790"/>
</linearGradient>
<linearGradient id="paint38_linear_968_843" x1="75.3861" y1="51.7086" x2="76.3836" y2="51.7086" gradientUnits="userSpaceOnUse">
<stop stop-color="#5C61B6"/>
<stop offset="1" stop-color="#3F45A3"/>
</linearGradient>
<linearGradient id="paint39_linear_968_843" x1="77.5347" y1="51.7086" x2="78.5321" y2="51.7086" gradientUnits="userSpaceOnUse">
<stop stop-color="#5C61B6"/>
<stop offset="1" stop-color="#3F45A3"/>
</linearGradient>
<linearGradient id="paint40_linear_968_843" x1="41.9999" y1="90.6687" x2="41.9999" y2="11.8095" gradientUnits="userSpaceOnUse">
<stop stop-color="#D1D2ED"/>
<stop offset="1" stop-color="white"/>
</linearGradient>
<linearGradient id="paint41_linear_968_843" x1="-10.405" y1="3.78828" x2="122.833" y2="132.989" gradientUnits="userSpaceOnUse">
<stop stop-color="#FABD55"/>
<stop offset="1" stop-color="#F68313"/>
</linearGradient>
<linearGradient id="paint42_linear_968_843" x1="42" y1="63.9222" x2="42" y2="13.6212" gradientUnits="userSpaceOnUse">
<stop stop-color="#EBEBF8"/>
<stop offset="1" stop-color="#EBEBF8"/>
</linearGradient>
<linearGradient id="paint43_linear_968_843" x1="31.1552" y1="45.8884" x2="119.404" y2="131.463" gradientUnits="userSpaceOnUse">
<stop stop-color="#F68313"/>
<stop offset="1" stop-color="#FABD55"/>
</linearGradient>
<linearGradient id="paint44_linear_968_843" x1="42" y1="63.9235" x2="42" y2="13.6224" gradientUnits="userSpaceOnUse">
<stop stop-color="#D6D7EF"/>
<stop offset="1" stop-color="#D6D7EF"/>
</linearGradient>
<linearGradient id="paint45_linear_968_843" x1="41.9999" y1="63.9236" x2="41.9999" y2="13.6225" gradientUnits="userSpaceOnUse">
<stop stop-color="#D6D7EF"/>
<stop offset="1" stop-color="#D6D7EF"/>
</linearGradient>
<linearGradient id="paint46_linear_968_843" x1="42" y1="63.9239" x2="42" y2="13.6229" gradientUnits="userSpaceOnUse">
<stop stop-color="#D6D7EF"/>
<stop offset="1" stop-color="#D6D7EF"/>
</linearGradient>
<linearGradient id="paint47_linear_968_843" x1="42.0001" y1="63.9215" x2="42.0001" y2="13.6205" gradientUnits="userSpaceOnUse">
<stop stop-color="#D6D7EF"/>
<stop offset="1" stop-color="#D6D7EF"/>
</linearGradient>
<linearGradient id="paint48_linear_968_843" x1="42" y1="63.9239" x2="42" y2="13.6228" gradientUnits="userSpaceOnUse">
<stop stop-color="#D6D7EF"/>
<stop offset="1" stop-color="#D6D7EF"/>
</linearGradient>
<linearGradient id="paint49_linear_968_843" x1="42.0001" y1="63.9239" x2="42.0001" y2="13.6228" gradientUnits="userSpaceOnUse">
<stop stop-color="#D6D7EF"/>
<stop offset="1" stop-color="#D6D7EF"/>
</linearGradient>
<linearGradient id="paint50_linear_968_843" x1="42" y1="63.924" x2="42" y2="13.6229" gradientUnits="userSpaceOnUse">
<stop stop-color="#D6D7EF"/>
<stop offset="1" stop-color="#D6D7EF"/>
</linearGradient>
</defs>
</svg>
