<svg width="90" height="90" viewBox="0 0 90 90" fill="none" xmlns="http://www.w3.org/2000/svg">
<path d="M45 90C69.8526 90 90 69.8526 90 45C90 20.1465 69.8526 0 45 0C20.1474 0 0 20.1465 0 45C0 69.8526 20.1474 90 45 90Z" fill="url(#paint0_radial_972_5276)"/>
<path d="M45.0424 87.2875C68.4272 87.2875 87.3848 68.1385 87.3848 44.5175C87.3848 20.8956 68.4272 1.74744 45.0424 1.74744C21.6576 1.74744 2.70007 20.8956 2.70007 44.5175C2.70007 68.1385 21.6576 87.2875 45.0424 87.2875Z" fill="#F2A639"/>
<mask id="mask0_972_5276" style="mask-type:alpha" maskUnits="userSpaceOnUse" x="2" y="2" width="86" height="85">
<path d="M45.0001 86.7599C68.3849 86.7599 87.3424 67.8024 87.3424 44.4175C87.3424 21.0319 68.3849 2.0752 45.0001 2.0752C21.6152 2.0752 2.65771 21.0319 2.65771 44.4175C2.65771 67.8024 21.6152 86.7599 45.0001 86.7599Z" fill="url(#paint1_radial_972_5276)"/>
</mask>
<g mask="url(#mask0_972_5276)">
<path d="M66.764 8.66113C70.1379 14.7965 72.0568 21.833 72.0568 29.3225C72.0568 53.1172 52.6979 72.4016 28.8109 72.4016C22.1445 72.4016 15.8312 70.901 10.187 68.2148C17.7646 79.4016 30.6045 86.7599 45.1711 86.7599C68.4628 86.7599 87.3441 67.9514 87.3441 44.7495C87.3365 29.4182 79.0831 15.9974 66.7649 8.66198L66.764 8.66113Z" fill="url(#paint2_radial_972_5276)" fill-opacity="0.2"/>
<mask id="mask1_972_5276" style="mask-type:luminance" maskUnits="userSpaceOnUse" x="-11" y="9" width="110" height="65">
<path d="M-11 74H99V9.50472H-11V74Z" fill="white"/>
</mask>
<g mask="url(#mask1_972_5276)">
<path d="M36.9282 55.3613C36.4656 54.6392 35.6954 54.0451 34.6372 53.5942C34.2795 53.8844 33.841 54.3577 33.6744 54.7618C33.576 55.0004 33.5339 55.2095 33.5455 55.4009C33.567 55.7554 33.7917 56.1181 34.1465 56.3711C34.3289 56.5011 34.5143 56.5834 34.6972 56.6158C35.0517 56.6788 35.459 56.5664 35.9077 56.2817C36.3022 56.0314 36.6451 55.7221 36.9282 55.3613Z" fill="#F8CAC4"/>
<path d="M34.6569 56.8211C34.4405 56.7828 34.2244 56.6876 34.0145 56.538C33.6085 56.2488 33.351 55.828 33.3259 55.4127C33.3122 55.1907 33.3593 54.9527 33.4695 54.6854C33.6587 54.2266 34.162 53.6929 34.5495 53.3913C34.5815 53.3662 34.6255 53.3603 34.6635 53.3765C35.8261 53.8606 36.6643 54.5127 37.1551 55.3146C37.1768 55.3503 37.1746 55.3947 37.1492 55.428C36.8428 55.8331 36.4662 56.1786 36.0298 56.4555C35.6249 56.7124 35.2438 56.8418 34.8936 56.8418C34.8131 56.8418 34.7342 56.8349 34.6569 56.8211ZM36.995 57.325C37.4513 56.7344 37.994 55.9432 38.1408 55.0576C38.29 54.157 37.9686 53.2855 37.3221 52.8372C37.1086 52.6894 36.8422 52.5724 36.5077 52.4799C35.4916 52.199 34.4678 52.3319 33.7688 52.8345C33.5182 53.0147 33.3024 53.2451 33.0853 53.4852C32.6888 53.9236 32.2997 54.3756 31.9236 54.8337C31.8479 54.9413 31.7646 55.0465 31.6782 55.1516C31.3979 55.4928 31.1136 55.8155 30.7181 56.011C30.6818 56.029 30.6423 56.0427 30.6042 56.0584C30.6196 56.4599 30.645 56.87 30.8001 57.2426C30.9095 57.5055 31.0797 57.7377 31.2315 57.93C31.6809 58.4997 32.1383 58.9039 32.6304 59.1658C33.2219 59.4805 33.8839 59.581 34.447 59.4408C34.8701 59.3357 35.2861 59.0934 35.756 58.6786C36.1696 58.3135 36.5633 57.8835 36.995 57.325Z" fill="#F5AA97"/>
<path d="M29.4226 55.2694C29.3031 55.2694 29.1847 55.2601 29.0705 55.241C28.4982 55.1453 27.9919 54.769 27.7805 54.2825C27.5512 53.7538 27.6613 53.1443 28.0547 52.766C28.0777 52.744 28.1095 52.7324 28.1422 52.7353C28.1748 52.738 28.2046 52.7543 28.2232 52.7797C28.8405 53.6218 29.8 54.1863 30.7297 54.6924C30.7615 54.7095 30.7821 54.7407 30.7847 54.7754C30.7874 54.8101 30.7718 54.8437 30.7431 54.8652C30.3997 55.1214 29.9009 55.2694 29.4226 55.2694ZM31.3504 55.2065L31.3582 55.1911C31.4861 55.0297 31.6159 54.869 31.7473 54.7088C31.8743 54.5269 31.9737 54.3393 32.0111 54.1354C32.0858 53.7284 31.8989 53.2593 31.498 52.8484C30.9928 52.3303 30.2466 51.9543 29.3401 51.7607C28.9944 51.6869 28.6121 51.6352 28.1716 51.6029C28.0773 51.5959 27.9763 51.5855 27.8724 51.5747C27.6783 51.5545 27.4673 51.5328 27.271 51.5328C27.1681 51.5328 27.0692 51.5388 26.979 51.5542C26.6075 51.6179 26.576 52.2011 26.5609 52.4814L26.5512 52.6506C26.543 52.7868 26.5346 52.9284 26.5304 53.0714C26.5204 53.4067 26.528 53.8369 26.6778 54.1893C26.9183 54.7554 27.3878 55.2712 27.9337 55.5693C28.19 55.7093 28.4975 55.8158 28.9012 55.9041C29.5102 56.0377 30.0017 56.0395 30.3975 55.9121C30.416 55.8824 30.4478 55.8609 30.4868 55.8597L30.5216 55.8661C30.5534 55.8528 30.5861 55.8409 30.6165 55.8259C30.904 55.6835 31.1332 55.4576 31.3504 55.2065Z" fill="#F5AA97"/>
<path d="M40.3986 58.3386C40.5198 58.3779 40.6625 58.3832 40.8606 58.356C41.2811 58.2981 41.723 58.137 42.1739 57.8771C42.5587 57.6555 42.9141 57.3858 43.2722 57.1042C42.9447 56.2297 42.3541 55.5039 41.5991 55.0474C41.1831 55.3161 40.7214 55.6491 40.3738 56.0894C40.0019 56.5606 39.8265 57.0882 39.8798 57.5743C39.9111 57.8595 40.0658 58.2307 40.3986 58.3386Z" fill="#F8CAC4"/>
<path d="M40.1978 55.9639C40.5838 55.4748 41.1153 55.1042 41.5353 54.836C41.571 54.8133 41.6174 54.8123 41.6538 54.8335C42.5011 55.3241 43.1586 56.1307 43.5054 57.1048C43.5199 57.1458 43.5065 57.1911 43.4714 57.2187C43.0867 57.5223 42.7067 57.8145 42.2879 58.0558C41.8117 58.3304 41.3419 58.5008 40.892 58.5629C40.8178 58.573 40.7325 58.5821 40.6422 58.5821C40.5409 58.5821 40.4332 58.5707 40.3275 58.5364C39.8964 58.3966 39.6991 57.9424 39.661 57.596C39.6019 57.0572 39.7924 56.4775 40.1978 55.9639ZM41.1162 60.7787C41.366 60.5467 41.6241 60.3065 41.888 60.0966C41.9802 60.0232 42.0732 59.9501 42.1662 59.8771C42.6172 59.5226 43.0836 59.1561 43.4755 58.7375C44.0097 58.1668 44.324 57.5798 44.4098 56.9928C44.5193 56.2439 44.2332 55.4507 43.6629 54.923C43.4578 54.7333 43.2417 54.5993 43.0208 54.5248C42.779 54.4431 42.5179 54.4287 42.3176 54.4254C41.8591 54.4166 41.4701 54.4692 41.1261 54.5828C40.727 54.7147 40.3627 54.9426 40.0525 55.1457C38.9085 55.8953 37.6656 57.047 36.8224 57.883C36.5131 58.2504 36.2151 58.5588 35.9056 58.832C35.4902 59.1987 35.111 59.4373 34.7295 59.5732C34.732 59.996 34.7409 60.4682 34.9669 60.8516C35.7883 62.2451 38.0201 62.6433 39.3923 62.0556C40.0423 61.7772 40.5882 61.2696 41.1162 60.7787Z" fill="#F5AA97"/>
<path d="M28.1249 53.0075C27.8692 53.3266 27.809 53.7997 27.984 54.2026C28.1672 54.6248 28.6087 54.9515 29.1086 55.0351C29.5637 55.1114 30.0897 55.014 30.47 54.7915C29.6061 54.3161 28.7327 53.7803 28.1249 53.0075Z" fill="#F8CAC4"/>
<path d="M43.3588 60.7523C43.1889 60.8615 43.0134 60.9742 42.8534 61.0973C42.4918 61.3751 42.2698 61.6705 42.1931 61.9755C42.1158 62.2832 42.2124 62.7031 42.5438 62.8758C42.6781 62.9456 42.8465 62.9777 43.0735 62.9725C43.7948 62.9602 44.4823 62.6394 45.0955 62.3378C44.7603 61.7957 44.186 60.9412 43.7686 60.4788C43.6341 60.5753 43.4946 60.665 43.3588 60.7523Z" fill="#F8CAC4"/>
<path d="M20.9416 49.6042C21.8419 45.5625 22.145 41.3246 21.8425 37.0083C21.8175 36.6504 21.7864 36.3308 21.6596 36.0435C21.511 35.7075 21.3693 35.4657 20.896 35.4149L20.8943 35.4145L20.8924 35.4147C19.6181 35.236 18.2945 35.0126 16.8457 34.7316C5.22469 32.4777 -2.8556 28.3537 -8.20258 25.6249C-9.84541 24.7864 -11.2736 24.0576 -12.5039 23.5301L-11.623 49.1126C-7.68071 49.3277 -3.41092 49.5001 0.719342 49.6668C7.55508 49.9427 14.6216 50.2285 20.6099 50.7194C20.7601 50.366 20.8576 49.9818 20.9416 49.6042Z" fill="#F5AA97"/>
<path d="M18.2594 51.7771C18.7959 52.1979 19.6527 51.9707 20.116 51.4946C20.2806 51.3252 20.4092 51.1304 20.5157 50.9216C19.6219 50.8487 18.7031 50.7807 17.7657 50.7161C17.8216 51.2055 17.9867 51.5633 18.2594 51.7771Z" fill="#3A66AA"/>
<path d="M26.4774 36.9399C26.4521 36.1722 26.163 35.5756 25.6411 35.2149C25.2704 34.9587 24.2042 34.8089 23.5772 34.7991C23.3889 34.7964 22.5567 34.7742 21.8882 34.7565C21.8624 34.7558 21.8379 34.7552 21.8128 34.7545C21.8527 34.7782 21.8919 34.8032 21.9293 34.8306C22.4165 35.1872 22.5702 35.7574 22.676 36.2639C23.0036 37.833 22.8103 41.5129 22.7277 43.0844C22.7248 43.1403 22.6763 43.1838 22.618 43.1838L22.6125 43.1837C22.5517 43.1807 22.5051 43.1317 22.508 43.0741C22.5902 41.5103 22.7826 37.8484 22.4601 36.3046C22.3621 35.8353 22.2219 35.3086 21.7951 34.9964C21.265 34.6083 20.44 34.6499 19.9358 35.0616C20.2695 35.1133 20.5986 35.1621 20.9243 35.2077L20.9251 35.2079C21.5594 35.2775 21.7345 35.6732 21.8623 35.9625C22.0025 36.2796 22.0358 36.6175 22.062 36.9944C22.3659 41.3299 22.0613 45.587 21.1569 49.6475C21.0657 50.0569 20.9591 50.4745 20.7875 50.8584L20.7762 50.8844C20.6511 51.1584 20.4928 51.4151 20.2775 51.6363C19.9449 51.9782 19.431 52.2047 18.9379 52.2047C18.6432 52.2048 18.3561 52.1239 18.1192 51.9382L18.0852 51.9078C18.2439 52.1236 18.442 52.2872 18.6626 52.3787C18.8125 52.441 18.9776 52.4701 19.1479 52.4711C19.1698 52.4704 19.1913 52.4705 19.2132 52.4699C19.5069 52.4585 19.8135 52.3608 20.0861 52.1807C20.4485 51.941 20.7611 51.5643 21.0414 51.0285C21.3363 50.4648 21.6335 48.9509 21.7034 48.3309C21.7099 48.2735 21.7634 48.2321 21.8246 48.2381C21.885 48.2444 21.9287 48.2958 21.9223 48.3534C21.8508 48.9859 21.5446 50.5362 21.2383 51.1216C20.9412 51.6896 20.6053 52.0921 20.2117 52.3523C20.1372 52.4015 20.06 52.4447 19.9814 52.483C20.7323 52.525 21.4626 52.6428 22.2005 52.7732L22.3131 52.7934C22.7769 52.8768 23.2563 52.9631 23.6856 52.8251C24.4078 52.5929 24.7679 51.8122 25.0009 51.1582C26.5656 46.766 26.6351 41.729 26.4774 36.9399Z" fill="#4F7DC8"/>
<path d="M97.2916 25.524C94.4793 27.0775 91.8226 28.5449 88.9274 29.5869C87.4892 30.1044 85.9977 30.5461 84.5552 30.9733C84.2144 31.0742 83.8737 31.1751 83.5334 31.277C80.3136 32.2414 77.3653 33.2017 74.7692 34.1318L74.7529 34.1397C74.2581 34.2681 74.178 34.5753 74.1003 34.8723C74.0213 35.1746 74.0425 35.495 74.0756 35.8524C74.4757 40.1615 75.4613 44.3045 77.0051 48.1666C77.0447 48.2653 77.0856 48.3642 77.1277 48.4629C77.5767 48.3903 78.0267 48.322 78.4766 48.2542C79.5105 48.0983 80.5794 47.9369 81.6171 47.7194C82.4702 47.5406 83.2649 47.3644 84.0333 47.1943C85.8639 46.7887 87.5931 46.4055 89.6676 46.0861C90.364 45.9787 91.156 45.8212 91.9946 45.6541C93.1176 45.4307 94.2791 45.1996 95.2408 45.088C96.8892 44.8967 98.5442 44.566 100.145 44.2461L109.393 42.3978L104.437 21.8669C101.862 22.9994 99.5391 24.2825 97.2916 25.524Z" fill="#F5AA97"/>
<path d="M42.552 44.9115C43.0197 44.8467 43.5604 44.7458 44.0254 44.4868C44.8777 44.0127 45.358 42.9999 45.1672 42.0789C45.1245 41.8726 45.0591 41.7302 44.9611 41.6301C44.8573 41.5241 44.7006 41.4586 44.5626 41.4007C44.0757 41.1967 43.2913 41.207 42.5888 41.244C42.5753 41.2449 42.5614 41.2443 42.5477 41.2435H42.547L42.5414 41.2595C42.1747 42.2131 41.756 42.8993 41.2711 43.6938C41.1591 43.8775 41.0429 44.0679 40.9225 44.2696L40.9039 44.2899C40.9713 44.5228 41.069 44.7443 41.196 44.9467C41.6756 45.0147 42.1721 44.9641 42.552 44.9115Z" fill="#F8CAC4"/>
<path d="M69.2462 35.8846C69.1774 35.8967 69.1087 35.9092 69.0397 35.9202C68.4637 36.0117 67.8732 36.0644 67.3025 36.1154C66.5019 36.1871 65.6741 36.2609 64.8842 36.4433C64.2085 36.5992 63.54 36.839 62.8936 37.0709C62.0454 37.3753 61.1704 37.6872 60.2584 37.8199C60.7108 38.0419 61.1169 38.255 61.435 38.4502C61.4862 38.4815 61.5007 38.5462 61.4679 38.5946C61.4349 38.6431 61.3666 38.6573 61.3158 38.6258C60.5959 38.1844 59.4072 37.6433 58.2576 37.1199C57.1016 36.5938 55.9062 36.0496 55.1745 35.601C54.8432 35.3978 54.5258 35.1417 54.2189 34.8939C53.7343 34.5028 53.2331 34.0982 52.669 33.8962C51.944 33.6366 50.8524 33.3886 49.7716 33.6813C49.0271 33.883 48.4 34.3006 47.7359 34.7427C47.3628 34.9909 46.977 35.2478 46.5721 35.4592C46.2311 35.6374 45.8655 35.7896 45.5118 35.9369C44.7124 36.2697 43.9575 36.5842 43.423 37.1809C42.933 37.7281 42.7177 38.4145 42.4899 39.1415C42.3802 39.4915 42.2668 39.853 42.1203 40.1945C41.9703 40.5446 41.7805 40.8835 41.5969 41.2111C41.3079 41.7273 41.0093 42.2608 40.8732 42.8313C40.7804 43.22 40.7705 43.6166 40.8355 43.993C40.9191 43.8545 41.0014 43.7193 41.0809 43.589C41.5605 42.8029 41.9747 42.1241 42.3347 41.1874C42.3485 41.1523 42.3711 41.0935 42.433 41.0582C42.4807 41.0305 42.53 41.0336 42.5593 41.0347L42.5767 41.0352C43.3055 40.9966 44.122 40.9876 44.6513 41.2093C44.809 41.2753 44.9874 41.3501 45.122 41.4878C45.2492 41.6173 45.3322 41.7924 45.3832 42.0386C45.5913 43.0441 45.067 44.1495 44.1365 44.6673C43.6391 44.9443 43.0723 45.0508 42.5836 45.1185C42.3262 45.1539 42.0168 45.1889 41.692 45.1889C41.5815 45.1889 41.4691 45.1828 41.3563 45.1734C41.8899 45.8391 42.7912 46.1931 43.6019 46.0535C43.934 45.9962 44.2725 45.8628 44.6992 45.6208C47.0382 44.2937 48.5348 41.6638 48.4235 39.0768C48.4208 39.0193 48.4682 38.9706 48.5289 38.9683L48.5335 38.9681C48.592 38.9681 48.6408 39.0122 48.6432 39.0685C48.6666 39.615 48.6194 40.1633 48.5101 40.7016C48.9446 40.7642 49.4426 40.6421 49.8954 40.3554C50.3468 40.0695 50.711 39.6688 51.0632 39.2812C51.1031 39.2374 51.1724 39.2327 51.2183 39.2704C51.2643 39.3082 51.2692 39.3743 51.2296 39.4179C50.935 39.7422 50.6311 40.0745 50.2713 40.3501C50.513 40.3496 50.7553 40.3382 50.9959 40.3176C51.018 40.2852 51.0572 40.265 51.1009 40.2702C51.127 40.2733 51.1487 40.2858 51.1655 40.3025C51.2422 40.294 51.3097 40.283 51.3591 40.2511C51.4009 40.2238 51.435 40.1779 51.4709 40.1294L51.9881 39.4318C52.0228 39.3846 52.0914 39.3729 52.1413 39.4065C52.191 39.4396 52.2029 39.5049 52.1679 39.5521L51.6509 40.2498C51.6073 40.3087 51.5579 40.3751 51.4831 40.4237C51.3976 40.479 51.2992 40.4972 51.2029 40.5085C51.2333 40.6556 51.3442 40.7842 51.4559 40.8646C51.6136 40.9782 51.804 41.0433 52.0055 41.1122L52.0652 41.1327C54.025 41.8074 55.714 43.0282 57.3474 44.2088C58.2437 44.8568 59.1697 45.5259 60.1316 46.0989C60.8249 45.2983 61.3844 44.4056 61.7958 43.4444C61.8187 43.3908 61.8834 43.365 61.9389 43.387C61.9953 43.4086 62.0224 43.4695 61.9995 43.523C61.5708 44.5253 60.9836 45.4541 60.2548 46.2847C60.8445 47.0079 61.7294 47.4807 62.5897 47.9358L62.8692 48.0844C63.3786 48.3564 63.8801 48.6441 64.3732 48.9447C64.4048 48.2198 64.4056 47.4868 64.3727 46.7629C64.3701 46.7052 64.4172 46.6566 64.4779 46.654C64.5322 46.6485 64.5898 46.6961 64.5924 46.754C64.6273 47.5247 64.6259 48.3064 64.5882 49.0774C65.4111 49.5885 66.209 50.1367 66.9722 50.7189C67.1969 50.8903 67.3891 51.0869 67.5509 51.3005C69.186 50.6739 70.8751 50.0286 72.5919 49.5034C70.6552 45.5485 69.8449 40.926 69.2666 36.4881C69.2391 36.2775 69.2328 36.0763 69.2462 35.8846Z" fill="#F5AA97"/>
<path d="M78.5113 48.4606C78.0786 48.5259 77.6462 48.5918 77.2146 48.6611C77.4354 49.1436 77.7094 49.5991 78.127 49.9135C78.6619 50.3163 79.5452 50.4159 80.0074 49.9213C80.2774 49.6325 80.4101 48.7425 80.2796 48.1816C79.6865 48.2821 79.0932 48.3728 78.5113 48.4606Z" fill="#AB2A8B"/>
<path d="M33.0075 44.9913C32.99 45.0318 32.949 45.0561 32.9057 45.0561C32.8918 45.0561 32.8775 45.0537 32.8639 45.0483C32.8077 45.0262 32.7809 44.9652 32.8039 44.9118C33.3165 43.7274 33.6186 42.4785 33.7022 41.2003C33.706 41.1427 33.759 41.0994 33.8188 41.1024C33.8796 41.1061 33.9256 41.1557 33.9219 41.2134C33.8367 42.5145 33.5292 43.7856 33.0075 44.9913ZM66.8344 50.882C65.5594 49.9097 64.1891 49.0296 62.7614 48.2665L62.4826 48.1185C61.5613 47.6312 60.6084 47.1272 59.9924 46.307C59.9793 46.2897 59.9748 46.2699 59.974 46.2503C59.0184 45.678 58.1016 45.0166 57.2142 44.3753C55.594 43.204 53.9186 41.9931 51.9901 41.3292L51.931 41.309C51.7227 41.2379 51.5074 41.1642 51.3231 41.0312C51.1358 40.8964 51.0154 40.713 50.9834 40.5269C50.743 40.5467 50.5013 40.5595 50.2602 40.5595C50.1648 40.5595 50.0698 40.5575 49.9749 40.5543C49.5739 40.7984 49.1392 40.9288 48.7331 40.9288C48.6418 40.9288 48.5531 40.9198 48.4654 40.9066C47.9972 42.9103 46.661 44.7511 44.8119 45.8002C44.5088 45.9723 44.1016 46.1799 43.6411 46.2592C43.5112 46.2815 43.3792 46.2922 43.2467 46.2922C42.4694 46.2922 41.6742 45.9188 41.1773 45.2952C40.6387 44.6195 40.4449 43.6812 40.6586 42.785C40.8012 42.1872 41.107 41.6411 41.4027 41.113C41.5837 40.7899 41.7707 40.4557 41.9166 40.1156C42.059 39.7836 42.1709 39.427 42.279 39.0818C42.5034 38.3661 42.7353 37.626 43.2555 37.0454C43.8227 36.412 44.6365 36.0732 45.4235 35.7454C45.7728 35.6 46.1338 35.4496 46.466 35.2761C46.8606 35.0701 47.2413 34.8166 47.6096 34.5714C48.2593 34.1389 48.9312 33.6916 49.7112 33.4803C50.8506 33.172 51.9905 33.4299 52.7468 33.7007C53.0545 33.8109 53.3402 33.9747 53.6128 34.162C53.3438 33.6887 52.8293 33.361 52.4097 33.1595C52.1786 33.0487 51.9335 32.9506 51.6965 32.8556C51.3097 32.7006 50.9098 32.5404 50.5481 32.3172C50.0116 31.9862 49.5746 31.5267 49.1521 31.0823C48.63 30.5336 48.137 30.0151 47.4704 29.7124C47.013 29.5048 46.504 29.4188 45.9998 29.4631C45.0199 29.55 44.1612 30.1212 43.5224 30.609C43.3475 30.7426 43.1751 30.8802 43.0027 31.0181C42.4475 31.4614 41.8735 31.9198 41.2126 32.2378C40.5962 32.5342 39.9199 32.7006 39.2659 32.8616C38.6999 33.0009 38.1147 33.1448 37.578 33.372C36.2466 33.9357 35.1949 35.0168 34.2669 35.9706C34.2493 35.9886 34.2258 36.0002 34.2003 36.0034C32.9557 36.1559 31.8581 36.2138 30.7868 36.2138C29.986 36.2138 29.2 36.1815 28.3778 36.132C28.0501 36.1124 27.7372 36.1019 27.4344 36.0919C27.1455 36.0823 26.8456 36.0707 26.5352 36.0527C26.6313 36.3167 26.6866 36.6111 26.6973 36.9333C26.855 41.7213 26.7851 46.7575 25.2292 51.1674C25.75 51.2275 26.2579 51.2898 26.7397 51.3529C26.7671 51.3564 26.7901 51.3702 26.807 51.3888C26.8479 51.3715 26.8913 51.3567 26.94 51.3485C27.2332 51.2983 27.5854 51.3345 27.8963 51.3669C27.9979 51.3773 28.0963 51.3875 28.1886 51.3943C28.6397 51.4275 29.0322 51.4806 29.3883 51.5567C30.3386 51.7595 31.1238 52.157 31.6595 52.7062C32.0949 53.1526 32.3005 53.6693 32.2322 54.1313C32.4579 53.8672 32.6866 53.6055 32.9184 53.349C33.1437 53.1001 33.3681 52.8606 33.6359 52.6681C34.3903 52.1258 35.4866 51.9806 36.5691 52.2795C36.9286 52.3788 37.2173 52.506 37.4516 52.6687C38.1641 53.1625 38.5199 54.1132 38.358 55.0903C38.2518 55.7313 37.9525 56.3196 37.6225 56.8229C38.334 56.1703 39.1518 55.4819 39.9277 54.9737C40.2496 54.7627 40.6287 54.5259 41.0539 54.3854C41.4228 54.2636 41.8375 54.2077 42.3214 54.2164C42.5386 54.22 42.8227 54.236 43.0945 54.3277C43.3456 54.4125 43.5884 54.5623 43.8164 54.7733C44.4359 55.3464 44.7467 56.2079 44.6277 57.0216C44.5358 57.6502 44.2036 58.2742 43.6399 58.8765C43.2367 59.307 42.7637 59.6788 42.3064 60.0382C42.251 60.0817 42.1957 60.1253 42.1404 60.1693C42.3471 60.0792 42.5611 59.9981 42.7945 59.9101C43.2834 59.7256 44.0287 59.5464 44.8049 59.7407C45.5192 59.9193 46.097 60.4021 46.3128 61.0004C46.5285 61.599 46.3965 62.3235 45.9505 62.9879C45.6132 63.4906 45.1502 63.9032 44.7022 64.3022L44.4594 64.5201C45.056 64.8594 45.6733 65.1793 46.2978 65.4701C46.6404 65.6298 47.007 65.7908 47.39 65.8536C48.0197 65.957 48.7318 65.79 49.346 65.3968C49.8501 65.0744 50.1864 64.6583 50.2929 64.2248C50.3768 63.8837 50.3313 63.4826 50.1616 63.0647C50.1393 63.0102 50.1156 62.9562 50.0918 62.9024C50.043 62.7911 49.9924 62.6761 49.9552 62.5558C49.8882 62.3375 49.8763 62.212 49.8615 62.0074C49.6704 61.809 49.4994 61.5919 49.3615 61.3499C49.3325 61.2991 49.3523 61.2356 49.4057 61.2082C49.4597 61.1806 49.526 61.1998 49.5549 61.2503C49.9001 61.856 50.4759 62.3043 51.0469 62.6983C51.3596 62.9138 51.6997 63.1334 52.0684 63.2791C53.0666 63.6735 54.2891 63.4898 55.1104 62.8218C55.9316 62.1536 56.3112 61.0342 56.055 60.0361C56.0501 60.0173 56.0528 59.9991 56.0582 59.9818C55.4404 59.4657 54.8437 58.8681 54.4899 58.0908C54.4658 58.0377 54.4915 57.9763 54.5472 57.9534C54.6034 57.9304 54.6678 57.9546 54.6919 58.0078C55.1524 59.0198 56.0623 59.7281 56.8653 60.3531L56.9889 60.4497C57.7934 61.0775 59.0332 61.756 60.3742 61.4258C61.6107 61.1205 62.3471 60.0216 62.2503 58.626C62.1705 57.4788 61.5429 56.3089 60.3852 55.1482C60.2785 55.0415 60.1698 54.9365 60.061 54.8316C59.7502 54.5315 59.4286 54.2212 59.1642 53.8704C58.8711 53.4822 58.5344 52.8786 58.5924 52.2071C58.5974 52.1496 58.6518 52.1063 58.7111 52.1114C58.7717 52.1162 58.8166 52.1666 58.8116 52.2242C58.7985 52.3752 58.808 52.523 58.8339 52.6655C58.8474 52.6678 58.8607 52.6723 58.873 52.6798C59.9158 53.31 60.9959 53.916 62.0825 54.4809C62.1091 54.4845 62.1331 54.4964 62.1507 54.516C62.8668 54.8869 63.5763 55.2266 64.3523 55.3621C64.7511 55.4315 65.1575 55.4444 65.5601 55.4007C66.2496 55.3255 66.8253 55.0748 67.181 54.6948C67.6974 54.143 67.947 53.4459 67.8839 52.7315C67.8198 52.0061 67.4472 51.3493 66.8344 50.882Z" fill="#F5AA97"/>
<path d="M79.156 50.4612C78.74 50.4612 78.3098 50.3178 77.9904 50.0773C77.3876 49.6235 77.0715 48.9212 76.7995 48.2407C75.2483 44.3607 74.2583 40.1988 73.8565 35.8707C73.8214 35.4943 73.7997 35.1555 73.8868 34.8218C73.9647 34.5238 74.0718 34.1191 74.653 33.9504L74.6553 33.949C74.9305 33.8504 75.2106 33.7513 75.4935 33.6519C75.1828 33.4683 74.8221 33.4138 74.4849 33.4853L74.4576 33.4955C74.4446 33.4979 74.4283 33.5007 74.4091 33.504C74.1838 33.5652 73.9716 33.6824 73.7968 33.8572C73.4255 34.2282 73.3723 34.7693 73.3515 35.2471C73.2827 36.8201 74.0657 40.4101 74.4 41.943C74.4123 41.9996 74.3742 42.0549 74.3146 42.0666L74.2922 42.0689C74.2412 42.0689 74.1954 42.035 74.1847 41.9855C73.8487 40.445 73.0618 36.8373 73.1318 35.2384C73.1541 34.7226 73.2135 34.1368 73.6372 33.7132C73.6697 33.6807 73.7038 33.6504 73.7385 33.6212C73.713 33.6257 73.6879 33.63 73.6618 33.6346C73.0056 33.7496 72.1891 33.8929 72.0038 33.9231C71.3861 34.0242 70.357 34.3282 70.0318 34.6358C69.5748 35.0684 69.3856 35.6999 69.4849 36.4623C70.1043 41.2174 70.9888 46.1843 73.2457 50.2953C73.5819 50.9076 74.0641 51.6264 74.8154 51.7502C75.2627 51.8242 75.7223 51.6683 76.1672 51.518L76.2745 51.4819C76.9831 51.2446 77.6859 51.0213 78.4219 50.87C78.3376 50.8435 78.2537 50.813 78.1714 50.7751C77.7402 50.5753 77.3432 50.2266 76.9577 49.7091C76.5604 49.1757 76.0067 47.6884 75.8338 47.0737C75.818 47.018 75.853 46.9607 75.9117 46.9458C75.9708 46.9307 76.0306 46.9642 76.0463 47.0198C76.2159 47.622 76.7546 49.0746 77.1372 49.5882C77.5008 50.0765 77.8706 50.4032 78.2676 50.5872C78.5662 50.7252 78.8845 50.7766 79.1765 50.7454C79.1985 50.7426 79.2203 50.7392 79.2425 50.7366C79.4103 50.7108 79.5685 50.658 79.7063 50.5748C79.91 50.4517 80.0798 50.2602 80.2018 50.0228L80.1718 50.06C79.9106 50.3395 79.5392 50.4612 79.156 50.4612Z" fill="#D32E9F"/>
<path d="M43.0773 63.1815C43.0635 63.1818 43.0497 63.1818 43.0364 63.1818C42.7894 63.1818 42.5986 63.1425 42.438 63.059C42.0065 62.834 41.8805 62.3193 41.9791 61.927C42.0672 61.5761 42.3148 61.2422 42.7149 60.9347C42.8824 60.8059 43.0619 60.6907 43.2356 60.579C43.3959 60.4759 43.5619 60.3692 43.7144 60.2543C43.7599 60.22 43.8253 60.225 43.8642 60.2657C44.3209 60.7432 44.9992 61.7604 45.3439 62.3275C45.359 62.3523 45.3627 62.3818 45.3542 62.4091C45.3458 62.4365 45.326 62.4595 45.2993 62.4726C44.6392 62.7984 43.8909 63.1678 43.0773 63.1815ZM45.765 62.8755C46.1749 62.265 46.2987 61.6062 46.1047 61.0681C45.9125 60.5352 45.393 60.104 44.7487 59.9429C44.0309 59.7631 43.3338 59.9315 42.8757 60.1044C42.296 60.323 41.8377 60.4961 41.3223 60.8798C41.3049 60.8959 41.2877 60.9117 41.2701 60.9282C40.7285 61.4319 40.1682 61.9526 39.4827 62.2461C39.3293 62.3118 39.1654 62.3653 38.9944 62.4077C38.8294 63.431 39.3125 64.4949 40.2138 65.0718C41.1331 65.6602 42.4301 65.6793 43.368 65.1178C43.6951 64.9221 43.985 64.6601 44.2653 64.4067L44.5519 64.1498C44.9897 63.7596 45.4425 63.3562 45.765 62.8755Z" fill="#F5AA97"/>
<path d="M59.3428 53.7486C59.5976 54.0862 59.9129 54.3906 60.2178 54.6848C60.3275 54.7908 60.4372 54.8967 60.5447 55.0044C60.62 55.08 60.6932 55.1555 60.7643 55.2312C60.9702 55.1451 61.1542 55.0177 61.3473 54.8819C61.4975 54.7764 61.6518 54.6689 61.8194 54.5809C60.8341 54.0647 59.8564 53.516 58.9071 52.9464C59.0125 53.2614 59.1844 53.5387 59.3428 53.7486Z" fill="#F5AA97"/>
<path d="M21.9811 38.9323C21.9711 38.5031 21.9567 38.0701 21.895 37.6444C21.8891 37.6041 21.8222 37.6153 21.8218 37.6539C21.817 38.0372 21.8351 38.4209 21.8362 38.8043C21.8369 39.1778 21.8275 39.5504 21.8118 39.9237C21.78 40.6806 21.7106 41.4361 21.6075 42.1872C21.4009 43.6912 21.0368 45.1688 20.5506 46.6129C20.4139 47.019 20.2655 47.4217 20.1071 47.8208C20.0298 48.0153 19.95 48.2089 19.8678 48.4015C19.826 48.499 19.7837 48.5964 19.7404 48.6933C19.7212 48.7366 19.6983 48.7804 19.6809 48.8248C17.5775 48.5631 15.4557 48.4025 13.3436 48.2213C11.1629 48.0341 8.98054 47.8651 6.79696 47.7123C2.40755 47.4051 -1.98705 47.1654 -6.38465 46.9933C-7.61241 46.945 -8.8404 46.9029 -10.0685 46.8639C-10.6938 46.8441 -11.3191 46.8264 -11.9444 46.8055C-12.5685 46.7847 -13.1966 46.7403 -13.8205 46.77C-13.9637 46.7768 -13.96 46.9664 -13.8205 46.979C-13.2644 47.0296 -12.7038 47.019 -12.1453 47.0292C-12.059 47.0308 -11.9728 47.0335 -11.8865 47.0354C-11.8659 47.7067 -11.8114 48.3769 -11.764 49.0469C-11.7591 49.1163 -11.7082 49.1669 -11.6338 49.1706C-7.753 49.3591 -3.87167 49.5379 0.00955134 49.719C3.89076 49.9 7.77186 50.0812 11.6531 50.2623C12.7277 50.3124 13.8025 50.3626 14.8773 50.4128C15.4147 50.4379 15.9522 50.4628 16.4896 50.4879C17.0223 50.5129 17.5595 50.5626 18.0919 50.5271C18.1897 50.5792 18.3371 50.5883 18.4328 50.6053C18.7657 50.6646 19.1024 50.7126 19.4393 50.7454C19.7673 50.777 20.1133 50.8043 20.442 50.7683C20.569 50.7544 20.6256 50.6798 20.6448 50.5799C20.7209 50.6322 20.8418 50.6227 20.8655 50.5112C21.1218 49.3033 21.3277 48.0854 21.4881 46.8628C21.6484 45.641 21.7875 44.4171 21.8822 43.189C21.9085 42.848 21.9338 42.5065 21.9507 42.1649C21.968 41.8111 21.9676 41.4595 21.966 41.1057C21.9658 41.0806 21.949 41.0689 21.93 41.0656C21.9504 40.7811 21.9673 40.4964 21.977 40.2113C21.9913 39.7851 21.991 39.3585 21.9811 38.9323Z" fill="#DD8172"/>
<path d="M43.4249 64.0412C43.0615 64.2022 42.6718 64.3296 42.267 64.3317C41.8754 64.3339 41.4878 64.2298 41.1432 64.0556C40.8366 63.9005 40.5641 63.6931 40.3339 63.446C40.2214 63.3253 40.1205 63.1944 40.0302 63.058C39.9841 62.9885 39.9413 62.9173 39.902 62.8443C39.8848 62.8126 39.8637 62.7799 39.8515 62.7462C39.8408 62.7158 39.8372 62.7314 39.8427 62.7106C39.8477 62.6914 39.8821 62.6666 39.8969 62.6503C40.4417 62.0509 40.9816 61.4473 41.5259 60.8474C41.8645 60.6276 42.2277 60.4443 42.6205 60.3215C43.2195 60.1343 43.8315 59.941 44.4699 60.0582C44.7769 60.1147 45.0428 60.244 45.2985 60.4114C45.5339 60.5656 45.759 60.7444 45.8729 61.0003C45.9712 61.2207 45.9878 61.4459 45.958 61.6703C45.9326 61.761 45.903 61.8511 45.8662 61.9403C45.727 62.2762 45.5127 62.5828 45.2594 62.8504C44.7584 63.3801 44.0977 63.7435 43.4249 64.0412ZM36.9327 61.0997C36.5596 60.8929 36.2386 60.6033 35.9922 60.2666C35.8698 60.0996 35.761 59.9276 35.6679 59.7438C35.6138 59.6372 35.5693 59.5269 35.5291 59.4154C35.5604 59.3867 35.5915 59.3577 35.6224 59.3289C35.8908 59.0781 36.1533 58.8215 36.4187 58.5678C36.9448 58.0643 37.471 57.561 37.9974 57.0575C38.4941 56.5822 38.9818 56.0958 39.4975 55.6388C39.9683 55.2215 40.4882 54.8162 41.0816 54.5675C41.4065 54.4312 41.7545 54.3304 42.1096 54.3035C42.2821 54.2904 42.4572 54.2921 42.6291 54.3126C42.7702 54.3296 42.9047 54.365 43.0439 54.3819C43.1118 54.4067 43.18 54.4305 43.2456 54.4612C43.3639 54.5162 43.4714 54.5886 43.5676 54.6739C43.7549 54.8397 43.9186 55.0425 44.0621 55.2432C44.3104 55.5907 44.4963 55.9941 44.5392 56.4146C44.5041 56.3909 44.4405 56.4059 44.4378 56.4604C44.4 57.2393 43.9287 57.8985 43.4001 58.4626C42.8377 59.0631 42.1783 59.5933 41.4989 60.0699C41.1453 60.3179 40.7775 60.5416 40.3995 60.7545C40.0252 60.9653 39.6314 61.159 39.2229 61.3033C38.4663 61.5705 37.6293 61.4855 36.9327 61.0997ZM35.1763 58.247C34.4676 58.4867 33.6946 58.5135 33.0255 58.1504C32.3416 57.7791 31.8899 57.1381 31.5338 56.489C31.4769 56.3853 31.4219 56.2805 31.3679 56.1754C31.3434 56.1274 31.3191 56.0796 31.295 56.0316C31.2919 56.0257 31.2718 55.9941 31.2677 55.9793L31.2739 55.9709L31.2944 55.9479C31.4352 55.7843 31.5656 55.6141 31.6785 55.4319C31.747 55.3444 31.8145 55.256 31.8843 55.17C32.1383 54.8567 32.4062 54.5536 32.68 54.2559C32.9537 53.9584 33.2417 53.6724 33.5463 53.4034C33.698 53.2695 33.8527 53.1378 34.0072 53.0065C34.1626 52.8746 34.3263 52.7366 34.5003 52.6275C34.7043 52.4995 34.9196 52.4049 35.1547 52.3416C35.3327 52.2937 35.5139 52.2824 35.6946 52.2595C35.7387 52.2625 35.7829 52.265 35.8269 52.2693C36.7104 52.355 37.5553 52.7621 38.0255 53.4873C38.0597 53.6443 38.1058 53.7995 38.1245 53.9598C38.1507 54.1818 38.154 54.4049 38.1331 54.6274C38.1017 54.962 38.0257 55.2888 37.9043 55.6017C37.8296 55.7488 37.7469 55.892 37.6568 56.0311C37.4519 56.3468 37.2313 56.6568 36.9842 56.9443C36.4986 57.5094 35.9083 57.9995 35.1763 58.247ZM29.6877 55.2048C29.413 55.2205 29.1331 55.1809 28.8683 55.1136C28.6087 55.0474 28.3593 54.9359 28.1474 54.7778C27.714 54.4546 27.4896 53.9733 27.3199 53.4898C27.2095 53.175 27.1262 52.8512 27.0712 52.5235C27.0263 52.2565 27.011 51.9862 27.011 51.7159C27.2175 51.7476 27.4303 51.7523 27.6374 51.7677C27.8852 51.7859 28.1326 51.8075 28.3791 51.8362C29.324 51.9458 30.3377 52.1703 31.102 52.7402C31.3094 52.8951 31.5001 53.0856 31.6102 53.3159C31.7102 53.5247 31.7281 53.7319 31.6871 53.9455C31.5784 54.1738 31.4119 54.3813 31.2196 54.5445C30.8079 54.8946 30.2469 55.1726 29.6877 55.2048ZM50.1071 64.8872C49.9779 64.8541 49.8429 64.9456 49.7246 64.9865C49.5937 65.0321 49.4597 65.0685 49.324 65.0979C49.0427 65.159 48.7495 65.1804 48.4615 65.174C47.8808 65.1612 47.3227 65.0406 46.8049 64.7876C46.6509 64.7125 46.5007 64.63 46.3527 64.5446C46.272 64.4979 46.1843 64.4417 46.0928 64.3998C46.5784 63.5566 46.9351 62.6334 46.8781 61.6581C46.8258 60.764 46.399 59.8951 45.5642 59.4332C45.2096 59.237 44.7922 59.1201 44.3797 59.1298C44.7089 58.5284 44.9148 57.8634 44.989 57.1906C45.0677 56.4758 45.0135 55.6876 44.5717 55.0783C44.2031 54.5699 43.638 54.237 43.0207 54.0671C42.3568 53.8844 41.6561 53.911 40.9907 54.0705C40.5658 54.1724 40.1559 54.3281 39.7619 54.509C39.4193 54.6662 39.082 54.8426 38.7689 55.0498C38.7005 54.5851 38.6078 54.1226 38.4085 53.6904C38.2042 53.247 37.8649 52.8777 37.4427 52.6094C37.0342 52.3494 36.5568 52.1805 36.0728 52.105C35.5288 52.0199 34.9755 52.0597 34.4387 52.172C34.112 52.2404 33.7908 52.3327 33.4776 52.4439C33.1974 52.5433 32.9161 52.6445 32.6395 52.7536C32.5194 52.608 32.3798 52.4779 32.247 52.3425C32.0954 52.1876 31.9359 52.0397 31.7695 51.8994C31.4365 51.6185 31.0762 51.3661 30.695 51.1476C29.8989 50.6914 29.019 50.3938 28.1033 50.2486C27.802 50.2006 27.4985 50.1672 27.1944 50.1415C26.94 50.1199 26.684 50.0976 26.4288 50.0812C26.5216 48.8261 26.514 47.5612 26.5129 46.3038C26.5125 45.9351 26.5087 45.5663 26.5014 45.1975C26.5 45.1324 26.3949 45.1321 26.3947 45.1975C26.3944 45.438 26.3902 45.678 26.3861 45.9182C26.371 45.9242 26.3578 45.9349 26.3551 45.9554C26.3155 46.2619 26.301 46.5702 26.2573 46.8763C26.2148 47.1747 26.1596 47.4717 26.0964 47.7669C25.9687 48.3623 25.8147 48.9528 25.6461 49.539C25.5997 49.7009 25.5529 49.8622 25.5144 50.026C25.498 50.0957 25.4875 50.1659 25.4785 50.2366C25.4514 50.3025 25.4231 50.3682 25.3977 50.4341C25.3032 50.6809 25.2201 50.9318 25.1261 51.1788C25.1013 51.244 25.1645 51.2964 25.2252 51.3023C25.3641 51.3157 25.5031 51.3304 25.6416 51.349C25.789 51.3686 25.932 51.4044 26.0772 51.4359C26.1997 51.4623 26.3205 51.4961 26.439 51.5362C26.5044 51.5582 26.5674 51.5849 26.6306 51.6107C26.6117 51.7041 26.5927 51.7972 26.581 51.8923C26.5641 52.0301 26.5492 52.1684 26.5355 52.3065C26.5083 52.5814 26.4868 52.8575 26.4741 53.1332C26.4518 53.6151 26.4842 54.0963 26.7067 54.5371C27.1053 55.3266 27.96 55.8297 28.8426 55.9936C29.1293 56.0469 29.4268 56.07 29.7186 56.0647C29.8602 56.0619 30.0019 56.0536 30.1427 56.0399C30.218 56.0327 30.2946 56.0271 30.3694 56.018C30.3869 56.0158 30.4014 56.0125 30.4153 56.0084V56.0086L30.419 56.0196C30.4245 56.0328 30.4297 56.0472 30.4376 56.0594C30.4531 56.0834 30.4605 56.0884 30.4807 56.1032L30.5002 56.1169C30.5005 56.1534 30.5059 56.192 30.5102 56.231C30.5249 56.3626 30.5476 56.4933 30.5763 56.6228C30.6277 56.8526 30.6925 57.0809 30.7688 57.3044C30.9102 57.7189 31.1007 58.1169 31.394 58.4548C31.9227 59.0636 32.713 59.4576 33.5412 59.5209C33.813 59.5417 34.083 59.5138 34.3545 59.5022C34.4239 59.4993 34.4935 59.4974 34.563 59.4983L34.6179 59.4968C34.6155 59.4944 34.6179 59.5686 34.6185 59.5831C34.6208 59.638 34.6236 59.6926 34.6271 59.7474C34.5654 59.8535 34.5773 59.9948 34.5859 60.1151C34.5981 60.2851 34.6305 60.4545 34.6843 60.617C34.7889 60.932 34.9678 61.2283 35.2076 61.4681C35.4826 61.7432 35.8352 61.9179 36.1995 62.0625C36.5985 62.2207 37.0097 62.3651 37.4395 62.4238C37.6831 62.4569 37.9289 62.4652 38.1747 62.4567C38.3976 62.4488 38.6264 62.4374 38.8486 62.4073C38.8755 62.4603 38.8893 62.5148 38.8923 62.5806C38.8931 62.5941 38.8989 62.6063 38.9073 62.6165C38.8963 63.5556 39.2881 64.4937 40.0962 65.0654C40.5108 65.3585 40.9891 65.5311 41.5079 65.5465C42.0867 65.564 42.6806 65.4183 43.2246 65.241C43.4923 65.1538 43.7573 65.0365 43.9548 64.8385C44.0508 64.7425 44.1281 64.6211 44.2423 64.543C44.2926 64.5086 44.3637 64.4823 44.427 64.4899C44.4447 64.5101 44.4651 64.5277 44.4896 64.5404C44.5395 64.6244 44.6656 64.6782 44.7446 64.7276C44.8552 64.7966 44.9671 64.8639 45.0786 64.9314C45.3018 65.0667 45.5314 65.1918 45.7634 65.3128C45.9912 65.4315 46.2213 65.5506 46.4628 65.6423C46.5769 65.6855 46.6935 65.719 46.8154 65.7354C46.8729 65.7429 46.9295 65.7446 46.9867 65.7392C47.1542 65.8673 47.3918 65.9138 47.601 65.9367C47.9006 65.9694 48.202 65.9499 48.4946 65.8807C48.7803 65.8133 49.0487 65.7006 49.2998 65.5555C49.4283 65.4813 49.5506 65.3983 49.6681 65.3093C49.741 65.2542 49.828 65.1914 49.8967 65.1202C49.918 65.112 49.9399 65.1052 49.961 65.0967C50.0358 65.0664 50.1056 65.0398 50.1402 64.9646C50.1543 64.9341 50.1448 64.8968 50.1071 64.8872Z" fill="#DD8172"/>
<path d="M62.4044 58.4923C62.3943 58.3971 62.3703 58.3372 62.3066 58.2649C62.2902 58.2462 62.26 58.2583 62.2531 58.2784C62.2006 58.4302 62.237 58.5859 62.2284 58.7443C62.2199 58.9055 62.1893 59.0643 62.1412 59.2191C62.0448 59.5293 61.875 59.8095 61.649 60.0502C61.4329 60.2803 61.1774 60.4806 60.906 60.6486C60.7622 60.7377 60.615 60.8286 60.4554 60.8902C60.292 60.9534 60.1185 60.978 59.9431 60.9841C58.5694 61.0323 57.2218 60.4311 56.1957 59.5966C55.9118 59.3654 55.6418 59.1159 55.3951 58.8487C55.2685 58.7116 55.1415 58.5736 55.0221 58.4303C54.9032 58.2877 54.7948 58.1369 54.6707 57.9982C54.6198 57.9415 54.5328 58.0138 54.5664 58.0748L54.5871 58.1097C54.5543 58.1334 54.5352 58.1744 54.5612 58.2187C54.7602 58.5584 54.9598 58.8979 55.1569 59.2386C55.3414 59.5575 55.5223 59.8867 55.649 60.2308C55.7607 60.5352 55.8175 60.8371 55.739 61.155C55.6691 61.438 55.5218 61.7043 55.3256 61.9268C54.3882 62.9904 52.6884 62.8144 51.4741 62.3414C50.7578 62.0624 50.1167 61.6294 49.5567 61.1248C49.5161 61.0884 49.4555 61.0879 49.4099 61.1102L49.3977 61.1093C49.3552 61.1142 49.3225 61.1248 49.2955 61.158C49.2706 61.1886 49.2609 61.2277 49.2723 61.2657C49.2811 61.295 49.2927 61.3237 49.3033 61.3527C49.3112 61.4605 49.3693 61.5722 49.4087 61.6705C49.4569 61.7906 49.5127 61.9062 49.5704 62.0224C49.6821 62.2474 49.8174 62.46 49.9202 62.6893C50.0237 62.9197 50.1013 63.1575 50.1915 63.3928C50.2373 63.512 50.2956 63.6256 50.3228 63.7502C50.3499 63.8747 50.3682 63.997 50.4103 64.1178C50.4172 64.1378 50.4454 64.133 50.4474 64.1131C50.4602 63.9857 50.4406 63.8675 50.4165 63.7421C50.3924 63.6159 50.3889 63.4895 50.365 63.3637C50.3173 63.1114 50.2179 62.8642 50.124 62.6248C50.0303 62.3863 49.9498 62.1422 49.8339 61.9127C49.8201 61.885 49.8052 61.8578 49.7908 61.8303C49.8162 61.8534 49.8416 61.8762 49.8669 61.899C49.9404 61.9658 50.0136 62.0327 50.0859 62.1006C50.124 62.1364 50.1616 62.1729 50.1981 62.2101C50.237 62.2497 50.2726 62.296 50.3216 62.3246C50.3523 62.3425 50.3853 62.3443 50.4161 62.3373C50.4329 62.355 50.4496 62.3727 50.4664 62.3896C50.635 62.5626 50.8275 62.714 51.0353 62.8428C51.4561 63.1036 51.9346 63.2913 52.4156 63.4265C52.7048 63.5078 52.998 63.5848 53.3023 63.5836C53.5821 63.5825 53.862 63.5256 54.1241 63.4336C54.5716 63.2765 54.978 63.0082 55.2992 62.6736C55.4768 62.4883 55.6365 62.2808 55.7575 62.058C55.7776 62.021 55.7965 61.9835 55.8149 61.9455C55.8797 61.8833 55.9153 61.7955 55.9515 61.7134C56.0004 61.6026 56.0448 61.49 56.0775 61.3739C56.1268 61.1987 56.1381 61.0253 56.1339 60.8492L56.1363 60.8395C56.194 60.6081 56.2002 60.3621 56.1894 60.1263C56.1864 60.0594 56.1179 60.0404 56.072 60.0652C56.063 60.0054 56.0489 59.9468 56.0225 59.8918C55.9759 59.796 55.8942 59.7408 55.8119 59.6746C55.7666 59.6382 55.6625 59.5218 55.5952 59.588C55.5468 59.5094 55.4973 59.4318 55.4476 59.3552C55.3449 59.1972 55.2476 59.0359 55.1515 58.8737C55.1641 58.8887 55.176 58.9045 55.1889 58.9193C55.4136 59.1789 55.6506 59.4301 55.9078 59.661C56.1058 59.8389 56.3141 60.0077 56.5323 60.1636C56.5475 60.176 56.5612 60.1894 56.5765 60.2015C56.75 60.342 56.9251 60.4807 57.1079 60.6101C57.4772 60.8713 57.8658 61.1113 58.2912 61.2812C59.1144 61.6104 60.088 61.6839 60.8911 61.2631C61.0839 61.1618 61.2524 61.0341 61.393 60.8835C61.5825 60.74 61.751 60.5714 61.8866 60.3783C61.9753 60.2521 62.0467 60.1177 62.1051 59.9767C62.135 59.9047 62.1542 59.8315 62.1701 59.7557C62.1803 59.7061 62.1803 59.6601 62.18 59.6132C62.2236 59.523 62.2629 59.4312 62.2953 59.3368C62.3562 59.1597 62.394 58.9747 62.4071 58.7888C62.4141 58.6905 62.4152 58.5905 62.4044 58.4923Z" fill="#DD8172"/>
<path d="M67.9593 52.6187C67.9529 52.7513 67.93 52.8834 67.8958 53.0129C67.8888 53.0397 67.881 53.066 67.8732 53.0925C67.7449 53.5088 67.4812 53.8907 67.1179 54.1511C66.8502 54.3429 66.5497 54.4577 66.2322 54.5539C65.9142 54.65 65.5873 54.7054 65.2535 54.7129C64.5106 54.7296 63.7958 54.5153 63.1029 54.2826C62.3848 54.0415 61.6647 53.8068 61.0044 53.4405C60.6261 53.2306 60.2621 52.997 59.8932 52.7726C59.7092 52.6605 59.5257 52.5476 59.3412 52.4363C59.1545 52.3239 58.9621 52.1854 58.7509 52.1195C58.7011 52.104 58.6315 52.1469 58.6387 52.2006C58.6445 52.2427 58.6507 52.2824 58.6548 52.3221C58.6114 52.3462 58.5812 52.3903 58.6004 52.443C58.7028 52.7227 58.8359 52.9976 58.9653 53.2668C59.0924 53.5319 59.2354 53.7906 59.4062 54.033C59.5748 54.2725 59.768 54.4994 59.9953 54.6907C60.2247 54.8836 60.4884 55.052 60.6583 55.2993C60.692 55.3483 60.7643 55.374 60.8202 55.3397C61.1352 55.146 61.45 54.9511 61.7679 54.7617C61.819 54.7313 61.901 54.6602 61.9607 54.6481C61.9997 54.6401 62.0491 54.6736 62.083 54.6881C62.1248 54.7061 62.1667 54.7236 62.2088 54.7412C62.3649 54.8057 62.5217 54.869 62.6801 54.9281C63.0005 55.0478 63.3258 55.1536 63.6566 55.2438C63.9792 55.3317 64.3045 55.414 64.6394 55.4426C64.6527 55.4456 64.6656 55.4492 64.68 55.4515C64.8622 55.481 65.0536 55.4792 65.2373 55.4676C65.6043 55.4446 65.9669 55.3672 66.3098 55.2413C66.6373 55.1211 66.9781 54.9702 67.232 54.7344C67.4872 54.4971 67.6296 54.1625 67.7738 53.8585C67.9205 53.5492 68.0787 53.205 68.0787 52.8593C68.0924 52.7803 68.1014 52.7001 68.1048 52.6187C68.1088 52.5297 67.9639 52.5299 67.9593 52.6187Z" fill="#DD8172"/>
<path d="M72.6279 49.426C72.0023 47.9562 71.4975 46.4407 71.0509 44.914C70.608 43.3991 70.2476 41.8581 69.9502 40.3115C69.867 39.8788 69.791 39.4449 69.7173 39.0106C69.6796 38.7881 69.6433 38.5654 69.6086 38.3425C69.5854 38.1925 69.5647 38.0412 69.5361 37.8915C69.5223 37.5391 69.5068 37.1866 69.4833 36.8348C69.4789 36.7682 69.3792 36.7682 69.3745 36.8348C69.3167 37.6519 69.3333 38.476 69.3588 39.2942C69.384 40.1022 69.427 40.9096 69.4871 41.7159C69.6087 43.3475 69.8022 44.9718 70.0656 46.5881C70.1389 47.0383 70.2174 47.4878 70.3011 47.9363C70.3429 48.1607 70.3861 48.3847 70.4305 48.6085C70.4634 48.7744 70.493 48.9418 70.532 49.1068C69.6998 49.4839 68.7949 49.7361 67.8679 49.7056C66.9296 49.6746 66.022 49.3119 65.3814 48.6512C65.0907 48.3513 64.8422 47.9587 64.7626 47.5471C64.774 47.4652 64.762 47.3796 64.7205 47.2967C64.6546 47.1656 64.46 47.2627 64.4867 47.3903C64.4904 47.4076 64.4946 47.4246 64.4986 47.4419C64.5075 47.528 64.455 47.6039 64.3761 47.6572C64.2511 47.742 64.0867 47.7161 63.949 47.6784C63.6973 47.6094 63.453 47.4951 63.2141 47.3939C62.7431 47.1944 62.2716 46.9659 61.8853 46.6364C61.3674 46.1946 60.9882 45.4166 61.1962 44.763C61.3334 44.631 61.4372 44.4663 61.4869 44.2673C61.512 44.1675 61.3806 44.0855 61.3009 44.1642C61.1518 44.3113 61.0462 44.4795 60.9768 44.659C60.6351 44.9041 60.0848 44.9183 59.6973 44.7906C59.3105 44.6632 58.9719 44.4228 58.6535 44.1843C58.3239 43.9376 57.9952 43.6902 57.6582 43.4526C56.9596 42.9599 56.238 42.4969 55.496 42.0653C54.8623 41.6971 54.2018 41.3675 53.5888 40.9677C52.9547 40.5543 52.3374 40.0243 52.0755 39.3169C52.0409 39.2231 51.932 39.1976 51.8533 39.261C51.4889 39.5548 50.967 39.1536 51.2013 38.7565C51.2774 38.6278 51.0987 38.4943 50.9863 38.5987C50.2797 39.2549 49.1171 39.3651 48.2879 38.8553C48.1914 38.7959 48.0896 38.8765 48.0792 38.969C47.8892 40.6844 47.2594 42.4339 46.1444 43.8094C45.6494 44.4201 45.0253 44.9367 44.2778 45.2475C43.631 45.5165 42.9224 45.553 42.2447 45.3697C41.62 45.2008 41.0489 44.8292 40.7396 44.2876C40.7025 44.1845 40.668 44.0806 40.6366 43.9764C40.6248 43.9369 40.5734 43.9414 40.5576 43.9695C40.5139 43.9624 40.4646 43.9934 40.4782 44.048C40.5372 44.2827 40.6391 44.4921 40.7698 44.6798C41.2396 45.9183 42.136 47.0861 43.5949 47.255C45.584 47.4851 47.2014 45.9157 48.179 44.4592C48.74 43.6232 49.1534 42.6987 49.4031 41.7363C49.6077 41.7266 49.8032 41.6841 49.985 41.5859C50.1406 41.5017 50.2932 41.4068 50.4324 41.2979C50.6032 41.6627 50.9205 41.9767 51.2428 42.2167C51.6453 42.5166 52.1025 42.7349 52.579 42.907C53.1381 43.109 53.718 43.2506 54.2853 43.4289C54.8595 43.6091 55.3997 43.8479 55.9211 44.1387C56.4428 44.4299 56.948 44.7487 57.4556 45.0613C57.9769 45.3823 58.4954 45.7077 59.003 46.048C59.5008 46.3818 59.9795 46.7366 60.458 47.0947C60.8859 47.4147 61.3262 47.6992 61.8256 47.9084C62.198 48.0645 62.5831 48.1892 62.966 48.3191C63.0649 48.3912 63.1758 48.4525 63.2783 48.5115C63.436 48.6022 63.5932 48.6939 63.7488 48.7876C64.0653 48.9779 64.3817 49.1684 64.6966 49.3607C65.3258 49.745 65.952 50.1371 66.5604 50.5503C66.9079 50.7863 67.2474 51.0302 67.5852 51.2776C67.6201 51.3033 67.6765 51.2966 67.712 51.2776C67.8728 51.1922 68.0218 51.1017 68.173 51.0025L68.1787 50.9986C68.3464 50.953 68.5121 50.8998 68.6768 50.8514C68.9936 50.7584 69.3104 50.6656 69.6272 50.5728C70.2507 50.39 70.8734 50.2017 71.4844 49.9842C71.6536 49.9238 71.8216 49.8615 71.9888 49.7966C72.0685 49.7656 72.1477 49.7341 72.2267 49.7019C72.28 49.6803 72.3411 49.6615 72.3906 49.6306C72.4507 49.6247 72.5089 49.6053 72.5663 49.5699C72.6114 49.5421 72.6506 49.4789 72.6279 49.426Z" fill="#DD8172"/>
<path d="M101.718 40.318C100.94 40.601 100.173 40.9085 99.397 41.1956C98.6209 41.4829 97.841 41.7612 97.0577 42.0305C95.4912 42.5693 93.911 43.0725 92.3191 43.5393C89.1516 44.4684 85.9379 45.2541 82.692 45.8927C80.8977 46.2458 79.0938 46.5475 77.2826 46.8102C76.6856 45.5155 76.138 44.209 75.6951 42.8581C75.2462 41.4886 74.8717 40.0954 74.5812 38.6876C74.4163 37.8893 74.2738 37.0864 74.1346 36.2839C74.128 36.246 74.0602 36.2545 74.0636 36.293C74.1513 37.2855 74.3126 38.2713 74.5174 39.2486C74.6944 40.4534 74.9852 41.6467 75.2822 42.8289C75.591 44.0579 75.9332 45.2793 76.3097 46.4912C76.5235 47.1796 76.7558 47.862 76.9862 48.5454C77.0107 48.6183 77.0821 48.6538 77.1599 48.639C80.1388 48.078 83.1104 47.4809 86.0882 46.9134C89.0493 46.3489 92.0122 45.7932 94.9768 45.2452C96.6495 44.9359 98.3227 44.6287 99.9973 44.3285C100.158 44.2996 100.117 44.0908 99.9803 44.0642C100.012 43.8727 100.005 43.6678 100.008 43.4791C100.012 43.2328 100.014 42.9864 100.012 42.7399C100.007 42.2531 99.9897 41.7661 99.9586 41.2801L99.956 41.2709C100.581 41.039 101.205 40.8012 101.816 40.5389C101.946 40.4831 101.853 40.2689 101.718 40.318Z" fill="#DD8172"/>
<path d="M21.4651 47.4967L20.2026 49.9304L13.9303 50.4107L20.6598 50.8821L21.1326 49.3017L21.4651 47.4967Z" fill="#100F0D"/>
<path d="M26.0149 47.8239L25.1261 51.1788L26.5056 51.428L25.751 50.9981L26.0149 47.8239Z" fill="#100F0D"/>
<path d="M64.8954 49.3492L67.5548 50.3578L71.7356 49.1068V47.0846L72.8644 49.5665L67.5548 51.4116L66.6928 50.6155L64.8358 49.446L64.8954 49.3492Z" fill="#100F0D"/>
<path d="M76.0826 45.9714L77.5648 48.1814L83.0571 47.499L77.2145 48.6609L76.5787 47.4632L76.0826 45.9714Z" fill="#100F0D"/>
<path d="M62.0829 54.6882L59.1846 52.9464L58.7562 52.8219V53.1681L60.067 54.6882L60.7704 55.3962L61.7679 54.7618L62.0829 54.6882Z" fill="#100F0D"/>
<path d="M44.3326 64.5712L45.7975 62.9731L45.2487 64.4023L46.7333 65.7743L45.0673 65.0132L44.3326 64.5712Z" fill="#100F0D"/>
<path d="M46.64 44.1832L48.812 41.3898L50.1463 40.9449H50.7967L51.4333 41.5321L53.1722 41.6963L51.5608 41.0503L51.6368 40.0871L50.8715 40.0374L50.9253 39.5905L49.0742 40.455L48.4746 40.2777L48.1285 41.7812L47.6979 42.7331L46.64 44.1832Z" fill="#100F0D"/>
<path d="M31.2677 52.4984L32.4415 53.4621L33.6397 52.8394L32.1845 54.3521L32.1669 53.8628L31.886 53.1452L31.2677 52.4984Z" fill="#100F0D"/>
<path d="M38.2239 54.9227L38.3737 55.8645L40.2035 54.9227L37.4252 57.152L37.6996 56.6328L38.1769 55.4376L38.2239 54.9227Z" fill="#100F0D"/>
<path d="M44 58.2595L43.4012 59.4084L44.7769 59.8417L43.3011 59.8058L41.8219 60.3928L41.8908 60.2314L43.3635 59.0584L44 58.2595Z" fill="#100F0D"/>
<path d="M69.3284 35.658C69.2203 35.6781 69.1119 35.6968 69.0034 35.7139C67.6343 35.9323 66.2113 35.9226 64.8323 36.2401C63.1489 36.6306 61.6156 37.484 59.9458 37.6497C59.8854 37.6557 59.8416 37.7073 59.848 37.7647C59.8543 37.8222 59.9086 37.8637 59.969 37.8577C61.7016 37.6815 63.2425 36.82 64.8843 36.4433C66.2277 36.1325 67.6453 36.1411 69.0396 35.9202C69.1502 35.9026 69.2605 35.8835 69.3703 35.8633C69.4299 35.8523 69.4689 35.7974 69.4573 35.7407C69.4457 35.6841 69.3879 35.647 69.3284 35.658Z" fill="#100F0D"/>
<path d="M77.0773 48.6828C78.6023 48.4342 80.1441 48.2421 81.6644 47.9235C84.5699 47.3142 86.7752 46.7431 89.7028 46.2924C91.361 46.0367 93.6191 45.4863 95.2675 45.2953C96.9263 45.1028 98.5609 44.7761 100.19 44.4506C103.309 43.8271 106.428 43.2038 109.548 42.5804C109.576 42.5746 109.602 42.5579 109.617 42.5344C109.633 42.5109 109.639 42.482 109.632 42.4548L104.621 21.6948C104.614 21.6641 104.592 21.6382 104.563 21.6244C104.533 21.6105 104.498 21.61 104.468 21.6231C98.6131 24.1799 94.0784 27.5107 88.8495 29.3913C87.0857 30.026 85.2724 30.537 83.4673 31.0775C80.5552 31.9498 77.5132 32.9244 74.6552 33.9492C74.5985 33.9695 74.5697 34.0299 74.5911 34.0838C74.6127 34.1379 74.6761 34.1652 74.733 34.1447C77.5856 33.1218 80.6243 32.1484 83.5334 31.277C85.3361 30.737 87.1534 30.2252 88.9274 29.5869C94.1974 27.6891 98.7317 24.3562 104.56 21.8131L104.514 21.7181L104.407 21.7415L109.418 42.5015L109.525 42.4781L109.502 42.3758C106.383 42.9992 103.264 43.6226 100.145 44.2459C98.5155 44.5715 96.8871 44.8968 95.2408 45.0879C93.5695 45.2819 91.3106 45.8332 89.6676 46.086C86.7274 46.5387 84.5161 47.1116 81.6171 47.7193C80.1092 48.0354 78.5709 48.2272 77.04 48.4767C76.9802 48.4864 76.94 48.5405 76.9503 48.5974C76.9605 48.6544 77.0174 48.6926 77.0773 48.6828Z" fill="#100F0D"/>
<path d="M67.596 51.5087C69.3081 50.8526 71.0236 50.1959 72.7757 49.6661C72.8336 49.6487 72.8656 49.5898 72.8471 49.5348C72.8288 49.4799 72.7669 49.4493 72.709 49.4669C70.9465 49.9999 69.2258 50.6587 67.5137 51.3147C67.4574 51.3363 67.4301 51.3972 67.4529 51.4507C67.4756 51.5044 67.5397 51.5301 67.596 51.5087Z" fill="#100F0D"/>
<path d="M48.4235 39.0769C48.4274 39.1688 48.4293 39.2606 48.4293 39.3525C48.4304 41.8578 46.9656 44.3357 44.6992 45.6208C44.3511 45.8183 43.9862 45.9873 43.6018 46.0533C43.4829 46.0738 43.3626 46.0837 43.2423 46.0837C42.5203 46.0845 41.7941 45.7241 41.3525 45.1688C40.9779 44.6991 40.7937 44.1046 40.7937 43.5072C40.7937 43.2798 40.8204 43.0522 40.8732 42.8312C41.0903 41.9124 41.7252 41.1109 42.1203 40.1945C42.3435 39.6735 42.4858 39.1208 42.6655 38.5983C42.8449 38.0755 43.061 37.5847 43.423 37.1808C43.8071 36.7517 44.3165 36.4631 44.871 36.2116C45.425 35.9598 46.0219 35.7463 46.5721 35.4592C47.1287 35.1683 47.6366 34.8008 48.1521 34.4683C48.6675 34.1356 49.1896 33.8388 49.7716 33.6814C50.1075 33.5904 50.4544 33.5493 50.8043 33.5493C51.4335 33.5491 52.0724 33.6825 52.669 33.8963C53.1212 34.0579 53.5322 34.3486 53.937 34.6681C54.3419 34.9872 54.7398 35.3342 55.1745 35.6009C55.9111 36.0524 57.0843 36.5858 58.2573 37.1199C59.4292 37.6532 60.6009 38.1871 61.3158 38.6257C61.3668 38.6571 61.4349 38.6432 61.4679 38.5947C61.5007 38.5462 61.486 38.4815 61.435 38.4501C60.6984 37.9987 59.5252 37.4654 58.3524 36.9313C57.1803 36.398 56.0088 35.8639 55.2938 35.4253C54.8808 35.1722 54.4875 34.8309 54.0775 34.5072C53.6671 34.1839 53.2388 33.8772 52.7466 33.7006C52.1299 33.4799 51.4662 33.3403 50.8043 33.3402C50.4363 33.3402 50.0688 33.3834 49.7113 33.4803C49.0924 33.6481 48.5505 33.9589 48.0285 34.2954C47.5066 34.6322 47.0037 34.9955 46.466 35.276C45.9348 35.5537 45.3417 35.7664 44.7762 36.023C44.211 36.2797 43.6712 36.5815 43.2555 37.0453C42.8644 37.4823 42.6394 38.0012 42.4563 38.5335C42.2736 39.0662 42.1319 39.6141 41.9166 40.1156C41.5398 40.999 40.8936 41.8083 40.6586 42.7851C40.6022 43.0214 40.5737 43.2643 40.5737 43.5072C40.5739 44.1449 40.7697 44.7835 41.1773 45.295C41.6614 45.9015 42.4437 46.2919 43.2423 46.2927C43.3753 46.2927 43.5087 46.2817 43.641 46.259C44.0661 46.1857 44.4535 46.0034 44.8119 45.8003C47.1481 44.4734 48.6483 41.9347 48.6493 39.3525C48.6493 39.2577 48.6473 39.1631 48.6432 39.0683C48.6408 39.0107 48.5895 38.9658 48.5288 38.9682C48.4682 38.9706 48.421 39.0192 48.4235 39.0769Z" fill="#100F0D"/>
<path d="M48.359 40.8897C48.4845 40.917 48.6114 40.9297 48.7378 40.9297C49.1944 40.9293 49.6426 40.7665 50.0175 40.5294C50.4944 40.2269 50.8678 39.8158 51.2297 39.4178C51.2694 39.3742 51.2643 39.3081 51.2184 39.2704C51.1723 39.2327 51.1029 39.2375 51.0632 39.2812C50.7018 39.6793 50.3395 40.0745 49.8954 40.3554C49.5493 40.5748 49.1382 40.7209 48.7378 40.7206C48.6268 40.7206 48.5165 40.7095 48.4079 40.6859C48.3487 40.6731 48.2897 40.7082 48.2761 40.7645C48.2626 40.8208 48.2997 40.8769 48.359 40.8897Z" fill="#100F0D"/>
<path d="M49.9503 40.554C50.0538 40.5576 50.1577 40.5594 50.2614 40.5594C50.5642 40.5594 50.8671 40.5438 51.1684 40.5128C51.2618 40.5024 51.3766 40.4916 51.4831 40.4237C51.5627 40.3714 51.6101 40.3041 51.6509 40.2499C51.8232 40.0173 51.9956 39.7846 52.1679 39.5522C52.2029 39.505 52.1911 39.4398 52.1413 39.4065C52.0916 39.3733 52.023 39.3846 51.9881 39.4319C51.8158 39.6642 51.6433 39.8968 51.4709 40.1296C51.431 40.1842 51.3954 40.2281 51.359 40.2511C51.3124 40.2825 51.2354 40.2963 51.1446 40.3049C50.8513 40.3352 50.5563 40.3504 50.2614 40.3504C50.1603 40.3504 50.0594 40.3487 49.9584 40.3451C49.8976 40.343 49.8466 40.388 49.8444 40.4457C49.8422 40.5034 49.8896 40.5519 49.9503 40.554Z" fill="#100F0D"/>
<path d="M50.9784 40.3611C50.9753 40.3845 50.9739 40.4078 50.9739 40.4309C50.974 40.554 51.0145 40.6702 51.0776 40.7717C51.1408 40.8734 51.2264 40.9614 51.3231 41.0311C51.5309 41.1803 51.7711 41.2531 51.9903 41.3289C53.4965 41.8474 54.8313 42.6869 56.1354 43.6026C57.4394 44.5181 58.712 45.5092 60.097 46.3246C60.1436 46.3519 60.204 46.3427 60.2392 46.3028C60.973 45.4703 61.5691 44.5289 61.9995 43.523C62.0224 43.4695 61.9953 43.4085 61.9391 43.3867C61.8828 43.365 61.8185 43.3908 61.7957 43.4443C61.374 44.43 60.7895 45.3529 60.0706 46.1686L60.1549 46.2356L60.2128 46.1469C58.8443 45.3414 57.5759 44.3543 56.266 43.4344C54.9561 42.5149 53.604 41.6623 52.0652 41.1324C51.8411 41.0559 51.6236 40.9862 51.4559 40.8645C51.3807 40.8104 51.3137 40.7409 51.267 40.6655C51.2201 40.5899 51.1939 40.5097 51.1939 40.4309C51.1939 40.4161 51.1949 40.4012 51.1968 40.3863C51.2041 40.329 51.1612 40.2769 51.1009 40.2699C51.0406 40.263 50.9857 40.3038 50.9784 40.3611Z" fill="#100F0D"/>
<path d="M59.9924 46.307C60.6782 47.2178 61.7662 47.7332 62.7615 48.2664C64.1925 49.0314 65.5562 49.9071 66.8345 50.8819C67.5262 51.4096 67.8933 52.1731 67.8935 52.9474C67.8933 53.5595 67.6644 54.1779 67.181 54.6948C66.787 55.1168 66.1745 55.334 65.56 55.4006C65.4051 55.4176 65.2491 55.4259 65.093 55.4259C64.8447 55.4259 64.5964 55.4046 64.3524 55.362C63.5558 55.2233 62.8141 54.8616 62.0874 54.4836C60.9952 53.9159 59.9229 53.3142 58.873 52.6797C58.8219 52.6488 58.7538 52.6632 58.7212 52.7119C58.6887 52.7606 58.7038 52.8253 58.755 52.8562C59.8089 53.4932 60.8855 54.0971 61.9818 54.667C62.7117 55.0461 63.4731 55.4208 64.3126 55.5677C64.5699 55.6126 64.8315 55.635 65.093 55.635C65.2574 55.635 65.4219 55.6261 65.5851 55.6082C66.2342 55.5372 66.8991 55.3093 67.3452 54.8337C67.8644 54.2793 68.1136 53.6091 68.1135 52.9474C68.1136 52.1102 67.7157 51.2858 66.9721 50.7188C65.6844 49.7369 64.3107 48.8546 62.8694 48.0843C61.8661 47.5492 60.812 47.0406 60.1715 46.1856C60.1361 46.1385 60.0675 46.1277 60.0181 46.1613C59.9685 46.1948 59.9571 46.2601 59.9924 46.307Z" fill="#100F0D"/>
<path d="M58.5924 52.207C58.588 52.258 58.5858 52.309 58.5858 52.3597C58.5864 52.9097 58.8349 53.4338 59.164 53.8705C59.5235 54.3463 59.9755 54.7371 60.385 55.1482C61.3549 56.1198 62.1599 57.3141 62.2501 58.6258C62.2557 58.7061 62.2585 58.7857 62.2585 58.8647C62.2585 59.4716 62.0947 60.0369 61.7785 60.4864C61.4618 60.936 60.9951 61.272 60.3741 61.4255C60.1355 61.4843 59.8983 61.5114 59.6634 61.5114C58.6898 61.5122 57.7495 61.0436 56.9891 60.4496C56.1402 59.7881 55.1714 59.0643 54.6918 58.0078C54.6678 57.9548 54.6029 57.9305 54.5472 57.9535C54.4915 57.9763 54.4658 58.0379 54.4899 58.0909C55.0003 59.21 56.0054 59.9513 56.8494 60.6112C57.6337 61.2227 58.6138 61.7196 59.6634 61.7205C59.9159 61.7205 60.1723 61.6913 60.4293 61.6279C61.1013 61.4626 61.6179 61.092 61.9615 60.6027C62.3054 60.1131 62.4785 59.507 62.4785 58.8647C62.4785 58.7811 62.4756 58.6968 62.4697 58.6122C62.3723 57.2258 61.5325 55.9952 60.5447 55.0043C60.1273 54.5863 59.6838 54.2011 59.3428 53.7487C59.0308 53.3355 58.8052 52.848 58.8058 52.3597C58.8058 52.3146 58.8077 52.2694 58.8117 52.2241C58.8167 52.1666 58.7715 52.1161 58.7111 52.1114C58.6505 52.1066 58.5974 52.1494 58.5924 52.207Z" fill="#100F0D"/>
<path d="M49.3614 61.3496C49.7247 61.9862 50.3207 62.4548 50.9177 62.8673C51.2486 63.0954 51.5953 63.3183 51.9838 63.472C52.3615 63.6213 52.7679 63.6934 53.1743 63.6934C53.9258 63.6931 54.6788 63.4476 55.2534 62.9805C55.9541 62.4098 56.3533 61.5394 56.3539 60.668C56.3539 60.439 56.3262 60.21 56.2687 59.9863C56.2543 59.9303 56.1947 59.8958 56.1358 59.9096C56.0768 59.9233 56.0406 59.9799 56.055 60.0359C56.1081 60.2426 56.1339 60.455 56.1339 60.668C56.1343 61.4789 55.7586 62.2951 55.1103 62.8217C54.5796 63.2536 53.8755 63.4845 53.1743 63.4843C52.7952 63.4843 52.4173 63.417 52.0684 63.279C51.7067 63.1361 51.3737 62.9236 51.0469 62.6981C50.457 62.2915 49.89 61.8392 49.5549 61.25C49.526 61.1993 49.4592 61.1805 49.4058 61.2079C49.3523 61.2354 49.3325 61.2988 49.3614 61.3496Z" fill="#100F0D"/>
<path d="M44.2338 64.6363C44.8731 65.0042 45.5297 65.3452 46.201 65.6578C46.5618 65.8256 46.9396 65.9916 47.3528 66.0595C47.4907 66.0822 47.6296 66.0929 47.7682 66.0929C48.373 66.0926 48.9699 65.8891 49.4689 65.5701C49.9466 65.264 50.3702 64.825 50.5072 64.2722C50.5397 64.1398 50.5544 64.0054 50.5544 63.8715C50.5542 63.5682 50.4797 63.2674 50.3668 62.9892C50.2964 62.8169 50.2156 62.6575 50.1664 62.4969C50.1015 62.2834 50.0952 62.1865 50.0782 61.9553C50.074 61.8977 50.0215 61.8542 49.961 61.8582C49.9004 61.862 49.8546 61.9119 49.8587 61.9695C49.8747 62.197 49.8848 62.3274 49.9552 62.5554C50.0119 62.7385 50.096 62.9029 50.1615 63.0644C50.2671 63.3243 50.3345 63.6011 50.3344 63.8715C50.3344 63.9909 50.3213 64.1091 50.2929 64.2247C50.1757 64.7047 49.7945 65.1102 49.346 65.3967C48.8786 65.6959 48.3204 65.884 47.7682 65.8838C47.6416 65.8838 47.5152 65.8739 47.3902 65.8535C47.0149 65.7921 46.6551 65.6367 46.2978 65.47C45.6324 65.1602 44.9815 64.8222 44.3477 64.4574C44.2958 64.4275 44.2281 64.4432 44.1967 64.4927C44.1651 64.542 44.1817 64.6063 44.2338 64.6363Z" fill="#100F0D"/>
<path d="M25.0689 51.3596C25.6299 51.4236 26.1772 51.4903 26.7096 51.56C26.7698 51.568 26.8253 51.528 26.8336 51.4708C26.8419 51.4135 26.7998 51.3609 26.7397 51.3529C26.2058 51.2831 25.6571 51.2162 25.095 51.1521C25.0347 51.1452 24.98 51.1861 24.9726 51.2435C24.9655 51.3008 25.0086 51.3528 25.0689 51.3596Z" fill="#100F0D"/>
<path d="M20.9245 35.2078C19.5735 35.0184 18.2286 34.7865 16.8897 34.5268C9.27138 33.0491 3.23496 30.7943 -1.56098 28.6297C-6.35761 26.465 -9.91089 24.3909 -12.575 23.271C-12.6097 23.2565 -12.6497 23.2598 -12.6811 23.2799C-12.7125 23.3001 -12.7307 23.3341 -12.7295 23.3701L-11.8396 49.2149C-11.8377 49.2688 -11.7926 49.3128 -11.736 49.316C-1.25377 49.8903 11.0135 50.1377 20.6741 50.9343C20.7347 50.9393 20.7881 50.8968 20.7932 50.8392C20.7985 50.7817 20.7538 50.7311 20.6932 50.7261C11.0214 49.9287 -1.24661 49.6814 -11.7233 49.1072L-11.7296 49.2116L-11.6197 49.2081L-12.5096 23.3632L-12.6195 23.3666L-12.664 23.4622C-10.0235 24.5714 -6.46187 26.6491 -1.65539 28.8186C3.15179 30.9883 9.2067 33.2501 16.8457 34.7317C18.1878 34.9919 19.5366 35.2247 20.8924 35.4147C20.9524 35.4232 21.0084 35.3837 21.0172 35.3266C21.026 35.2694 20.9845 35.2163 20.9245 35.2078Z" fill="#100F0D"/>
<path d="M53.9521 34.398C53.8515 34.0637 53.6447 33.7814 53.3874 33.5467C53.1299 33.3118 52.8213 33.1231 52.5089 32.973C51.886 32.6753 51.2235 32.4858 50.6679 32.142C50.1046 31.7949 49.6496 31.2918 49.1773 30.7977C48.7049 30.3043 48.214 29.819 47.5653 29.5239C47.1579 29.3389 46.7075 29.243 46.2565 29.2429C46.1641 29.2429 46.0715 29.2469 45.9794 29.2552C44.9934 29.3434 44.1338 29.8747 43.3846 30.446C42.6366 31.0182 41.9442 31.6523 41.1132 32.0514C40.5574 32.3189 39.9492 32.4772 39.3306 32.6298C38.7119 32.7827 38.083 32.9296 37.4884 33.1812C36.1306 33.7568 35.0949 34.8126 34.1054 35.8289L34.1861 35.8998L34.172 35.7961C32.9711 35.9433 31.894 36.0042 30.7914 36.0042C30.0208 36.0042 29.2377 35.9744 28.3917 35.9235C27.686 35.8813 27.0754 35.8821 26.3793 35.835C26.3188 35.8309 26.2661 35.8743 26.2617 35.9319C26.2575 35.9894 26.3031 36.0395 26.3636 36.0435C27.0695 36.0913 27.6809 36.0903 28.3778 36.1321C29.227 36.1833 30.0148 36.2133 30.7914 36.2133C31.9025 36.2133 32.9903 36.1518 34.2002 36.0035C34.2259 36.0003 34.2493 35.9889 34.2669 35.9707C35.2553 34.954 36.2745 33.9233 37.5781 33.3722C38.1486 33.1305 38.7655 32.9852 39.3859 32.8322C40.0061 32.6789 40.6302 32.5179 41.2125 32.2379C42.0826 31.8186 42.7844 31.172 43.5225 30.6091C44.2596 30.0454 45.0871 29.5433 45.9998 29.4633C46.085 29.4557 46.1708 29.452 46.2565 29.452C46.6746 29.452 47.0934 29.5413 47.4704 29.7125C48.0721 29.9854 48.5451 30.447 49.0145 30.9383C49.4843 31.4286 49.9492 31.9473 50.5481 32.3173C51.14 32.6817 51.811 32.8716 52.4097 33.1596C52.7078 33.3026 52.9987 33.4816 53.235 33.6975C53.4716 33.9135 53.653 34.1648 53.7406 34.4555C53.7572 34.511 53.8182 34.5432 53.8765 34.5273C53.9349 34.5114 53.9688 34.4536 53.9521 34.398Z" fill="#100F0D"/>
<path d="M26.4204 53.0684L26.3104 53.0653C26.3086 53.1272 26.3074 53.1894 26.3074 53.2518C26.3077 53.5994 26.3406 53.9532 26.4738 54.2676C26.731 54.8713 27.2276 55.4242 27.8241 55.7506C28.1464 55.9262 28.5003 56.0306 28.8517 56.1079C29.1405 56.171 29.4451 56.2164 29.7484 56.2164C30.0816 56.2166 30.4147 56.1614 30.7182 56.0111C31.1237 55.8096 31.4135 55.473 31.6782 55.1517C31.91 54.8685 32.1564 54.5557 32.2279 54.1713C32.2413 54.0983 32.2476 54.0254 32.2476 53.9529C32.2464 53.4824 31.9859 53.0418 31.6595 52.706C31.0615 52.0935 30.2314 51.7368 29.3883 51.5567C28.992 51.4721 28.59 51.4237 28.1886 51.3942C27.92 51.3747 27.5867 51.3237 27.2716 51.3234C27.1581 51.3234 27.0465 51.3301 26.94 51.3483C26.8026 51.3713 26.6907 51.4393 26.6105 51.5277C26.4895 51.661 26.4299 51.8338 26.3938 52.0037C26.3582 52.1737 26.3481 52.3435 26.3412 52.4706C26.3312 52.6567 26.3167 52.8585 26.3104 53.0653L26.4204 53.0684L26.5304 53.0713C26.5364 52.8699 26.5508 52.6699 26.5609 52.4813C26.5695 52.3145 26.5855 52.0848 26.6487 51.898C26.68 51.8047 26.7227 51.7234 26.7763 51.6651C26.8306 51.6067 26.8922 51.5695 26.979 51.5541C27.0682 51.5387 27.1672 51.5324 27.2716 51.5324C27.5622 51.5323 27.89 51.5816 28.1716 51.6027C28.5658 51.6317 28.9574 51.6789 29.3401 51.7606C30.1535 51.9341 30.9418 52.2773 31.498 52.8482C31.8006 53.1576 32.0289 53.5594 32.0276 53.9529C32.0276 54.0138 32.0223 54.0746 32.0112 54.1354C31.9535 54.4545 31.7357 54.7432 31.5049 55.0229C31.2432 55.3422 30.9694 55.6518 30.6165 55.8258C30.3527 55.9563 30.0567 56.0074 29.7484 56.0074C29.4684 56.0075 29.1793 55.965 28.9013 55.9041C28.5605 55.8294 28.2278 55.7299 27.9337 55.5693C27.3844 55.2702 26.9144 54.7475 26.6778 54.1893C26.5612 53.9157 26.5272 53.5866 26.5274 53.2518C26.5274 53.1918 26.5285 53.1315 26.5304 53.0713L26.4204 53.0684Z" fill="#100F0D"/>
<path d="M30.3807 55.9678C30.3973 56.4138 30.4138 56.8823 30.5956 57.3198C30.7088 57.591 30.8783 57.8312 31.0555 58.0559C31.4549 58.5617 31.931 59.0332 32.5229 59.3483C32.9475 59.5743 33.4344 59.7124 33.9234 59.7125C34.1178 59.7127 34.3122 59.6906 34.5026 59.6434C35.0479 59.5072 35.5074 59.1832 35.9056 58.8321C36.3795 58.4136 36.7925 57.9403 37.1724 57.449C37.7136 56.7481 38.2117 55.9705 38.358 55.0903C38.383 54.9399 38.3956 54.7864 38.3956 54.6327C38.3953 53.8831 38.0973 53.1175 37.4518 52.6686C37.1841 52.4833 36.8774 52.3646 36.5692 52.2794C36.2133 52.181 35.8377 52.1276 35.4637 52.1276C34.8112 52.1276 34.1612 52.2906 33.636 52.6679C33.3605 52.8662 33.1349 53.1098 32.9185 53.349C32.3779 53.947 31.8573 54.5613 31.3582 55.1911C31.3216 55.2372 31.3314 55.3027 31.3798 55.3374C31.4283 55.3722 31.4973 55.3629 31.5339 55.3169C32.0303 54.6908 32.5478 54.0799 33.0854 53.4852C33.3004 53.2474 33.5166 53.0158 33.7687 52.8346C34.2474 52.4904 34.849 52.3367 35.4637 52.3367C35.8157 52.3367 36.1712 52.3872 36.5077 52.4801C36.801 52.5611 37.0837 52.6722 37.3221 52.8375C37.8949 53.2335 38.1757 53.9332 38.1756 54.6327C38.1756 54.7756 38.1639 54.9183 38.1408 55.0578C38.0046 55.8831 37.5292 56.6345 36.9951 57.3252C36.6205 57.8099 36.2158 58.2729 35.756 58.6789C35.3701 59.0197 34.937 59.3196 34.447 59.441C34.276 59.4835 34.1003 59.5035 33.9234 59.5036C33.4786 59.5037 33.0257 59.3765 32.6304 59.166C32.0766 58.8714 31.6199 58.4227 31.2315 57.9304C31.059 57.7119 30.9015 57.4865 30.8002 57.2429C30.6362 56.8505 30.6162 56.4066 30.6005 55.9606C30.5985 55.9029 30.5476 55.8577 30.4869 55.8597C30.4262 55.8617 30.3786 55.9101 30.3807 55.9678Z" fill="#100F0D"/>
<path d="M34.5092 59.5337C34.5124 60.0027 34.5166 60.5129 34.775 60.9539C35.0795 61.4703 35.5709 61.8636 36.1424 62.1279C36.7142 62.3921 37.3672 62.5286 38.0041 62.5287C38.5252 62.5286 39.0361 62.4373 39.4827 62.2462C39.9915 62.0281 40.4268 61.6884 40.836 61.3256C41.2452 60.9625 41.629 60.5753 42.0291 60.2571C42.5778 59.8201 43.1533 59.396 43.6399 58.8765C44.1264 58.3564 44.5244 57.7264 44.6278 57.0215C44.6446 56.9061 44.6528 56.79 44.6528 56.6739C44.6525 55.9688 44.3497 55.2673 43.8164 54.7734C43.6122 54.5845 43.3714 54.4214 43.0945 54.3278C42.8414 54.2425 42.5766 54.2209 42.3214 54.2164C42.2908 54.2158 42.2601 54.2156 42.2293 54.2156C41.8345 54.2157 41.4336 54.2599 41.0539 54.3853C40.6408 54.5221 40.2754 54.746 39.9277 54.9736C38.8134 55.704 37.588 56.8214 36.6585 57.7434C36.6164 57.7852 36.6178 57.8513 36.6617 57.8913C36.7057 57.9311 36.7752 57.9297 36.8173 57.8881C37.7407 56.9716 38.9613 55.8604 40.0525 55.1458C40.3961 54.9205 40.7459 54.7083 41.1261 54.5828C41.4754 54.4674 41.8516 54.4246 42.2293 54.4246C42.2588 54.4246 42.2881 54.4249 42.3175 54.4255C42.5622 54.4295 42.8031 54.4511 43.0209 54.5248C43.2592 54.6051 43.4754 54.7494 43.663 54.923C44.1515 55.3748 44.4331 56.0257 44.4328 56.6739C44.4328 56.7806 44.4252 56.8872 44.4098 56.9927C44.3156 57.6402 43.9438 58.2375 43.4755 58.7376C43.0072 59.2381 42.441 59.6568 41.8879 60.0968C41.474 60.4263 41.0882 60.8158 40.6859 61.1727C40.2836 61.5298 39.8655 61.8531 39.3923 62.0555C38.9793 62.2324 38.4981 62.3196 38.0041 62.3196C37.4002 62.3198 36.7777 62.1893 36.2387 61.9398C35.6993 61.6904 35.2446 61.3232 34.967 60.8517C34.7433 60.4747 34.7307 60.0013 34.7292 59.5327C34.7289 59.475 34.6795 59.4285 34.6188 59.4288C34.5581 59.4289 34.5091 59.476 34.5092 59.5337Z" fill="#100F0D"/>
<path d="M38.7873 62.307C38.7561 62.473 38.741 62.6402 38.741 62.8068C38.7413 63.7659 39.2429 64.7017 40.0909 65.2453C40.6032 65.5731 41.2174 65.7364 41.8309 65.7366C42.4109 65.7364 42.9912 65.5903 43.4853 65.2947C43.8737 65.0619 44.1951 64.7572 44.5155 64.4692C45.0209 64.0141 45.5629 63.5649 45.9505 62.988C46.2265 62.5761 46.4137 62.0864 46.414 61.5946C46.414 61.3945 46.3826 61.1941 46.3128 61.0003C46.0827 60.3658 45.4749 59.9088 44.8049 59.7407C44.5764 59.6836 44.3425 59.6575 44.1088 59.6575C43.659 59.6577 43.2098 59.7536 42.7945 59.9102C42.181 60.1416 41.7149 60.3208 41.1825 60.7181C41.1347 60.7538 41.1265 60.8194 41.1639 60.8648C41.2014 60.9103 41.2705 60.9182 41.3183 60.8825C41.8261 60.5042 42.2604 60.3367 42.8756 60.1045C43.2689 59.9561 43.6921 59.8666 44.1088 59.8666C44.3254 59.8666 44.5402 59.8907 44.7489 59.943C45.3572 60.0945 45.9062 60.5143 46.1047 61.0681C46.166 61.2382 46.194 61.4151 46.194 61.5946C46.1944 62.0351 46.0233 62.4911 45.7651 62.8755C45.4008 63.4191 44.8746 63.859 44.3643 64.3174C44.0415 64.608 43.7291 64.9019 43.368 65.1179C42.9125 65.3906 42.3721 65.5275 41.8309 65.5275C41.2584 65.5275 40.6861 65.3743 40.2138 65.0719C39.4297 64.5705 38.9605 63.6967 38.961 62.8068C38.961 62.6524 38.975 62.4974 39.0039 62.3438C39.0146 62.2869 38.9748 62.2325 38.9151 62.2224C38.8552 62.2124 38.798 62.2501 38.7873 62.307Z" fill="#100F0D"/>
<path d="M45.198 62.287C44.5135 62.6255 43.8108 62.9608 43.0734 62.9722L43.0363 62.9726C42.8573 62.9727 42.684 62.9488 42.5438 62.8753C42.4228 62.8123 42.3292 62.7132 42.2649 62.5922C42.2007 62.4714 42.1671 62.3294 42.1671 62.1879C42.1671 62.1157 42.1758 62.0439 42.1931 61.9752C42.2787 61.6308 42.5445 61.3339 42.8534 61.097C43.162 60.8593 43.5211 60.6664 43.8511 60.4176L43.7828 60.3358L43.7014 60.4062C43.922 60.6366 44.2027 61.006 44.468 61.3852C44.7336 61.7646 44.9853 62.1551 45.1534 62.4319C45.1838 62.482 45.2511 62.4991 45.3036 62.4703C45.3562 62.4414 45.3743 62.3774 45.3439 62.3274C45.1732 62.0463 44.9199 61.6532 44.6512 61.2694C44.3822 60.8854 44.0994 60.5117 43.8642 60.2656C43.8252 60.2247 43.7599 60.2197 43.7143 60.254C43.4029 60.4897 43.0432 60.6827 42.7149 60.9345C42.3868 61.1873 42.0837 61.514 41.9791 61.9267C41.9577 62.012 41.9471 62.0999 41.9471 62.1879C41.9473 62.3603 41.9873 62.5333 42.0686 62.6863C42.1495 62.8392 42.2729 62.9727 42.438 63.0588C42.6275 63.157 42.8383 63.1814 43.0363 63.1816C43.05 63.1816 43.0637 63.1815 43.0773 63.1813C43.8834 63.1666 44.6138 62.8099 45.2993 62.4725C45.3533 62.4459 45.3743 62.3827 45.3463 62.3316C45.3182 62.2803 45.252 62.2604 45.198 62.287Z" fill="#100F0D"/>
<path d="M43.4012 57.1382L43.3311 57.0578C42.9569 57.3527 42.5816 57.642 42.1739 57.8769C41.7664 58.1118 41.3229 58.2922 40.8606 58.3557C40.7865 58.3659 40.7128 58.3727 40.6418 58.3727C40.5555 58.3727 40.4738 58.3628 40.3986 58.3383C40.2489 58.2898 40.1299 58.1858 40.041 58.0474C39.9526 57.9097 39.8977 57.7392 39.8798 57.5741C39.8735 57.5168 39.8705 57.4592 39.8705 57.4018C39.87 56.9379 40.0717 56.4717 40.3738 56.0893C40.7136 55.6584 41.1751 55.3178 41.658 55.0095L41.5966 54.9227L41.5394 55.012C42.3751 55.4956 42.9811 56.2843 43.297 57.1717L43.4012 57.1382L43.5054 57.1046C43.1749 56.1767 42.5402 55.3469 41.6538 54.8335C41.6173 54.8123 41.5708 54.8132 41.5353 54.836C41.0445 55.1497 40.562 55.5028 40.1978 55.9638C39.8734 56.3751 39.6509 56.8801 39.6505 57.4018C39.6505 57.4663 39.654 57.531 39.661 57.5958C39.6824 57.7886 39.7446 57.9862 39.8531 58.1561C39.9612 58.3253 40.1188 58.4685 40.3275 58.5362C40.4316 58.5699 40.5381 58.5818 40.6418 58.5818C40.7273 58.5818 40.8113 58.5737 40.892 58.5627C41.3931 58.4936 41.8629 58.3005 42.288 58.0558C42.7129 57.8107 43.0961 57.5144 43.4714 57.2187C43.5065 57.1911 43.52 57.1456 43.5054 57.1046L43.4012 57.1382Z" fill="#100F0D"/>
<path d="M37.06 55.3674L36.9707 55.3064C36.6815 55.6883 36.3194 56.0207 35.9077 56.282C35.5966 56.4798 35.2387 56.6338 34.8938 56.633C34.8279 56.633 34.7625 56.6275 34.6974 56.616C34.5013 56.5813 34.3137 56.4902 34.1465 56.3709C33.815 56.1352 33.5673 55.778 33.5455 55.4009C33.5441 55.3801 33.5436 55.3595 33.5436 55.3387C33.5434 55.1468 33.5965 54.9504 33.6744 54.7619C33.7574 54.5597 33.918 54.3274 34.1049 54.1122C34.2914 53.8967 34.5044 53.6969 34.689 53.5532L34.6192 53.4724L34.5751 53.5682C35.5508 53.9743 36.4395 54.5607 36.9649 55.42L37.06 55.3674L37.1551 55.3149C36.5958 54.4016 35.6638 53.7934 34.6634 53.3767C34.6255 53.3609 34.5817 53.3666 34.5495 53.3916C34.3521 53.5453 34.1314 53.7527 33.935 53.9793C33.7386 54.2062 33.5666 54.451 33.4695 54.6857C33.3855 54.8896 33.3237 55.1103 33.3236 55.3387C33.3236 55.3634 33.3243 55.3882 33.3258 55.4128C33.3547 55.8697 33.6427 56.2728 34.0145 56.5383C34.2015 56.6714 34.4178 56.7789 34.6569 56.8214C34.7361 56.8355 34.8152 56.842 34.8938 56.842C35.3074 56.8412 35.699 56.665 36.0297 56.4558C36.4637 56.1805 36.8446 55.8308 37.1492 55.4285C37.1746 55.3949 37.1769 55.3505 37.1551 55.3149L37.06 55.3674Z" fill="#100F0D"/>
<path d="M30.675 54.7827L30.7297 54.6921C29.7796 54.1757 28.832 53.6114 28.2232 52.7794C28.2045 52.7541 28.1748 52.7378 28.1422 52.7351C28.1098 52.7325 28.0775 52.7438 28.0546 52.7658C27.7905 53.0201 27.6633 53.3678 27.6632 53.7154C27.6633 53.9084 27.7024 54.1023 27.7805 54.2822C28.001 54.7873 28.51 55.1465 29.0705 55.2409C29.1847 55.26 29.3032 55.2692 29.4233 55.2692C29.8903 55.2685 30.3843 55.1315 30.743 54.865C30.7716 54.8436 30.7873 54.8096 30.7847 54.7752C30.7821 54.7406 30.7612 54.7093 30.7297 54.6921L30.675 54.7827L30.6071 54.7006C30.2992 54.9313 29.8447 55.0608 29.4233 55.0601C29.3151 55.0601 29.2091 55.0517 29.1086 55.035C28.6198 54.954 28.1698 54.6332 27.984 54.2025C27.9171 54.0488 27.8832 53.8815 27.8832 53.7154C27.8832 53.4154 27.9935 53.1217 28.2111 52.9127L28.1328 52.8392L28.0426 52.899C28.6877 53.7779 29.6667 54.354 30.6204 54.8735L30.675 54.7827Z" fill="#100F0D"/>
<path d="M41.1528 45.1521C41.3323 45.1783 41.5124 45.1892 41.6919 45.1892C41.9921 45.1892 42.2909 45.1588 42.5836 45.1184C43.1137 45.0448 43.6581 44.9332 44.1366 44.6674C44.9337 44.2223 45.4277 43.3589 45.4287 42.4878C45.4287 42.3376 45.4139 42.1871 45.3831 42.0387C45.3435 41.8491 45.2764 41.6462 45.1222 41.4877C44.9844 41.3482 44.8083 41.2756 44.6514 41.2094C44.2933 41.0602 43.8281 41.0147 43.2857 41.0141C43.0618 41.0141 42.8245 41.0222 42.5766 41.0353H42.5743C42.5682 41.0354 42.5542 41.034 42.5328 41.0339C42.5094 41.0339 42.4717 41.0361 42.433 41.058L42.4327 41.0583C42.3978 41.0784 42.376 41.106 42.3623 41.1288C42.3484 41.1519 42.3408 41.1723 42.3349 41.1876C41.8921 42.339 41.3769 43.0854 40.7311 44.1662C40.7012 44.2165 40.7197 44.2802 40.7725 44.3088C40.8254 44.3372 40.8924 44.3196 40.9225 44.2694C41.5633 43.1964 42.0895 42.4344 42.5414 41.2594C42.5465 41.2457 42.5509 41.2361 42.5531 41.2326L42.5542 41.2311L42.5438 41.2243L42.5526 41.2328L42.5542 41.2311L42.5438 41.2243L42.5526 41.2328L42.5301 41.2109L42.5467 41.2371L42.5526 41.2328L42.5301 41.2109L42.5467 41.2371L42.5464 41.2372L42.5231 41.2005L42.532 41.2427L42.5464 41.2372L42.5231 41.2005L42.532 41.2427L42.5289 41.2278L42.5301 41.243L42.532 41.2427L42.5289 41.2278L42.5301 41.243H42.5328C42.5385 41.2428 42.5527 41.2442 42.5743 41.2444L42.5886 41.2441C42.834 41.2311 43.0674 41.2232 43.2857 41.2232C43.8145 41.2226 44.2561 41.2714 44.5626 41.4007C44.7194 41.4657 44.8652 41.5313 44.9611 41.6302C45.0716 41.7421 45.1318 41.9059 45.1672 42.079C45.1952 42.2137 45.2087 42.3506 45.2087 42.4878C45.2096 43.2839 44.7493 44.0853 44.0254 44.487C43.5879 44.7307 43.0719 44.8398 42.552 44.9114C42.2649 44.9511 41.9766 44.9801 41.6919 44.9801C41.5218 44.9801 41.3528 44.9698 41.1862 44.9454C41.1261 44.9367 41.07 44.9758 41.0608 45.033C41.0516 45.09 41.0928 45.1434 41.1528 45.1521Z" fill="#100F0D"/>
<path d="M60.8121 55.4407C61.065 55.3421 61.2778 55.1905 61.4839 55.0458C61.6898 54.9006 61.8891 54.7626 62.1085 54.6799C62.1648 54.6586 62.1924 54.5977 62.17 54.5442C62.1475 54.4905 62.0836 54.4643 62.0271 54.4856C61.7728 54.5821 61.5592 54.7329 61.353 54.8777C61.1467 55.0231 60.9476 55.1623 60.7288 55.2472C60.6725 55.269 60.6457 55.33 60.6685 55.3835C60.6916 55.4369 60.7558 55.4626 60.8121 55.4407Z" fill="#100F0D"/>
<path d="M33.7022 41.2004C33.6191 42.4729 33.3143 43.7325 32.804 44.9117C32.7809 44.965 32.8077 45.0261 32.8639 45.0481C32.9201 45.0701 32.9843 45.0446 33.0075 44.9912C33.527 43.7906 33.8372 42.5089 33.9219 41.2134C33.9256 41.1557 33.8796 41.106 33.819 41.1026C33.7583 41.0989 33.706 41.1427 33.7022 41.2004Z" fill="#100F0D"/>
<path d="M64.3728 46.763C64.3895 47.1333 64.398 47.5038 64.398 47.8742C64.398 48.2836 64.3878 48.693 64.3672 49.1019C64.3643 49.1596 64.4112 49.2085 64.4718 49.2113C64.5325 49.2141 64.5841 49.1695 64.5869 49.1119C64.6076 48.6996 64.618 48.2869 64.618 47.8742C64.618 47.5007 64.6095 47.1272 64.5925 46.754C64.59 46.6963 64.5387 46.6516 64.478 46.6541C64.4172 46.6566 64.3702 46.7054 64.3728 46.7631" fill="#100F0D"/>
<path d="M20.896 35.4151C21.155 35.4438 21.3026 35.5255 21.4121 35.6339C21.5214 35.7428 21.5909 35.8877 21.6596 36.0436C21.7892 36.336 21.8193 36.6699 21.8425 37.0083C21.9176 38.0792 21.9557 39.1528 21.9557 40.2262C21.9557 43.3757 21.6276 46.5245 20.9416 49.6042C20.7884 50.2966 20.5978 51.0011 20.116 51.4945C19.8207 51.7993 19.3628 51.9976 18.9412 51.9965C18.6893 51.9964 18.4524 51.9283 18.2592 51.7771C18.0973 51.65 17.9825 51.48 17.9026 51.2857C17.8226 51.0916 17.7788 50.8745 17.7587 50.6608C17.7532 50.6034 17.6997 50.5609 17.6393 50.5662C17.5787 50.5713 17.5341 50.6221 17.5396 50.6796C17.5611 50.9072 17.6078 51.1428 17.6977 51.3618C17.7874 51.5805 17.9218 51.7834 18.1193 51.9384C18.3566 52.1246 18.6479 52.2058 18.9412 52.2056C19.4333 52.2046 19.9378 51.9841 20.2775 51.6365C20.8098 51.0877 21.001 50.3435 21.1569 49.6475C21.8461 46.5528 22.1757 43.3895 22.1757 40.2262C22.1757 39.1481 22.1374 38.07 22.062 36.9944C22.038 36.6546 22.0097 36.2969 21.8623 35.9626C21.7923 35.8051 21.7147 35.6339 21.5719 35.4901C21.4292 35.3458 21.2197 35.2384 20.9207 35.2073C20.8602 35.2009 20.8058 35.2421 20.7991 35.2994C20.7922 35.3568 20.8356 35.4085 20.896 35.4151Z" fill="#100F0D"/>
<path d="M19.8078 35.1797C20.0799 34.8848 20.5006 34.7265 20.9206 34.7266C21.2365 34.7266 21.5489 34.8158 21.7951 34.9963C21.9981 35.1449 22.1367 35.3404 22.2394 35.5664C22.3418 35.792 22.4064 36.0469 22.4601 36.3045C22.5949 36.9478 22.641 37.975 22.6408 39.0626C22.6408 40.5437 22.5571 42.1413 22.5081 43.0739C22.5051 43.1316 22.5518 43.1807 22.6125 43.1836C22.6732 43.1864 22.7248 43.1421 22.7278 43.0844C22.7768 42.1512 22.8607 40.5509 22.8608 39.0626C22.8605 37.9683 22.8161 36.937 22.676 36.2638C22.621 36.0008 22.554 35.7322 22.4413 35.4836C22.3288 35.2353 22.169 35.0058 21.9295 34.8306C21.6392 34.6184 21.2794 34.5177 20.9206 34.5175C20.444 34.5178 19.964 34.6948 19.6425 35.0417C19.6023 35.0851 19.6069 35.1512 19.6525 35.1893C19.6981 35.2274 19.7676 35.2232 19.8078 35.1797Z" fill="#100F0D"/>
<path d="M17.4162 50.617C17.4726 50.9897 17.5471 51.3723 17.7216 51.7267C17.897 52.0816 18.1821 52.4067 18.5746 52.5702C18.7587 52.6466 18.9549 52.681 19.1509 52.6809C19.5275 52.6806 19.9037 52.5555 20.2117 52.3521C20.6768 52.0442 20.9943 51.5873 21.2384 51.1215C21.3183 50.9685 21.3941 50.7619 21.4669 50.5251C21.6841 49.8153 21.8673 48.8381 21.9223 48.3532C21.9287 48.2958 21.885 48.2442 21.8246 48.2381C21.7642 48.2319 21.71 48.2735 21.7034 48.3307C21.6684 48.6424 21.5753 49.1814 21.4543 49.7099C21.3937 49.9743 21.3261 50.2365 21.2555 50.4667C21.1853 50.6967 21.1111 50.8955 21.0414 51.0284C20.806 51.4789 20.505 51.904 20.086 52.1805C19.8128 52.3616 19.4754 52.4723 19.1509 52.4718C18.9818 52.4718 18.8163 52.4424 18.6626 52.3786C18.3347 52.2433 18.0792 51.9595 17.9208 51.6379C17.7618 51.3161 17.689 50.9541 17.634 50.5874C17.6254 50.5303 17.5696 50.4906 17.5095 50.4988C17.4494 50.5069 17.4077 50.5598 17.4162 50.6171" fill="#100F0D"/>
<path d="M19.0837 52.6809C19.1966 52.6765 19.3088 52.6745 19.4207 52.6745C20.3422 52.6743 21.2336 52.8147 22.1601 52.9787C22.486 53.0361 22.8301 53.1067 23.1764 53.1068C23.3703 53.1068 23.5652 53.0844 23.756 53.023C24.1608 52.8929 24.4618 52.6186 24.6906 52.2927C24.9198 51.9661 25.0809 51.5855 25.2093 51.2249C26.4647 47.7004 26.7574 43.8257 26.7576 40.1472C26.7576 39.0537 26.7316 37.9776 26.6973 36.9332C26.6712 36.1131 26.3525 35.4476 25.7706 35.0459C25.6551 34.9664 25.5036 34.903 25.3289 34.8477C24.8054 34.6835 24.0702 34.5981 23.5809 34.5901C23.2879 34.5857 21.3841 34.5333 21.0889 34.5264C21.0282 34.525 20.9777 34.5708 20.9762 34.6285C20.9748 34.6862 21.0227 34.7341 21.0835 34.7355C21.3781 34.7422 23.2801 34.7946 23.5772 34.7992C23.8879 34.8038 24.3156 34.8431 24.7104 34.915C24.9079 34.951 25.0974 34.995 25.2596 35.0462C25.4216 35.0969 25.5565 35.156 25.6411 35.215C26.1577 35.5725 26.4509 36.1648 26.4774 36.9398C26.5117 37.983 26.5376 39.057 26.5376 40.1472C26.5378 43.8151 26.2442 47.6684 25.0009 51.1579C24.8757 51.5102 24.7195 51.8753 24.5075 52.1766C24.2952 52.4784 24.0309 52.7139 23.6855 52.825C23.5225 52.8774 23.3525 52.8977 23.1764 52.8977C22.8621 52.898 22.5299 52.8317 22.2005 52.7731C21.2715 52.6088 20.366 52.4654 19.4207 52.4654C19.306 52.4654 19.1907 52.4675 19.0749 52.4719C19.0141 52.4743 18.9669 52.523 18.9693 52.5807C18.9718 52.6382 19.0229 52.6831 19.0837 52.6809Z" fill="#100F0D"/>
<path d="M74.6949 33.9377C74.4044 34.0122 74.2149 34.149 74.0973 34.3124C73.9794 34.4755 73.9304 34.656 73.8868 34.8218C73.8408 34.9979 73.8257 35.1756 73.8257 35.3516C73.8257 35.5271 73.8408 35.701 73.8565 35.8707C74.2486 40.0944 75.2144 44.2756 76.7995 48.2406C77.0663 48.9056 77.3756 49.6129 77.9904 50.0773C78.316 50.3219 78.7402 50.4619 79.1533 50.4623C79.533 50.4627 79.9089 50.341 80.1718 50.06C80.3003 49.9208 80.3891 49.7112 80.4534 49.4674C80.5166 49.2239 80.5512 48.9467 80.5512 48.6788C80.5511 48.448 80.5257 48.2244 80.4675 48.0333C80.4504 47.9778 80.3894 47.9461 80.3311 47.9621C80.2728 47.9783 80.2392 48.0362 80.2563 48.0917C80.3066 48.2559 80.3313 48.463 80.3312 48.6788C80.3313 48.9295 80.2983 49.1925 80.2398 49.4174C80.1823 49.6419 80.0952 49.8288 80.0074 49.9211C79.7944 50.1488 79.4861 50.2528 79.1533 50.2532C78.7931 50.2536 78.4106 50.1275 78.1269 49.9134C77.5709 49.4962 77.2688 48.8282 77.0051 48.1663C75.4278 44.2206 74.4661 40.0582 74.0756 35.8523C74.0599 35.6836 74.0457 35.5158 74.0457 35.3516C74.0457 35.187 74.06 35.0264 74.1004 34.8723C74.1427 34.7081 74.1881 34.5548 74.2783 34.4313C74.3689 34.3081 74.5016 34.2058 74.7529 34.1394C74.8114 34.1242 74.846 34.0668 74.83 34.0111C74.814 33.9554 74.7535 33.9225 74.6949 33.9377Z" fill="#100F0D"/>
<path d="M75.797 33.6013C75.4964 33.3628 75.1342 33.2434 74.7746 33.2434C74.3603 33.2433 73.9484 33.402 73.6372 33.7132C73.429 33.9215 73.3081 34.1715 73.2371 34.4334C73.1661 34.6955 73.1435 34.9707 73.1317 35.2386C73.1287 35.3073 73.1273 35.3792 73.1273 35.4545C73.1276 36.3021 73.3094 37.5513 73.5322 38.783C73.7548 40.0142 74.019 41.2255 74.1847 41.9854C74.197 42.042 74.2553 42.0782 74.3147 42.0665C74.3742 42.0548 74.4123 41.9995 74.4 41.9429C74.2344 41.1834 73.9709 39.9743 73.749 38.7476C73.5269 37.5216 73.347 36.2756 73.3473 35.4545C73.3473 35.3819 73.3487 35.3126 73.3515 35.2473C73.3628 34.9848 73.3855 34.7235 73.4502 34.4855C73.5149 34.2473 73.6202 34.0338 73.7968 33.8574C74.067 33.5874 74.4189 33.4527 74.7746 33.4525C75.0832 33.4526 75.3943 33.5544 75.6561 33.7619C75.7027 33.7988 75.7721 33.793 75.811 33.7486C75.8498 33.7042 75.8437 33.6384 75.797 33.6013Z" fill="#100F0D"/>
<path d="M80.261 48.1043C80.3581 48.3132 80.4027 48.6646 80.4018 48.9952C80.4022 49.2939 80.3669 49.5814 80.3194 49.7343C80.215 50.075 80.0084 50.393 79.7063 50.5747C79.5026 50.6977 79.2626 50.7543 79.0148 50.7543C78.7603 50.7544 78.4985 50.694 78.2678 50.5871C77.8092 50.3751 77.443 49.9989 77.1373 49.5883C77.0468 49.467 76.9415 49.2815 76.8347 49.0646C76.5135 48.4132 76.1741 47.4743 76.0464 47.0196C76.0307 46.9639 75.9704 46.9307 75.9116 46.9456C75.8529 46.9605 75.8182 47.0178 75.8339 47.0736C75.9225 47.388 76.1027 47.9094 76.3107 48.4212C76.4147 48.677 76.5256 48.93 76.6354 49.1533C76.7456 49.3765 76.8541 49.5694 76.9578 49.7091C77.2743 50.1337 77.6621 50.5387 78.1714 50.7749C78.4313 50.8952 78.7238 50.9634 79.0148 50.9634C79.2976 50.9635 79.5799 50.8986 79.8244 50.7511C80.1856 50.5323 80.4147 50.1691 80.5306 49.7929C80.5876 49.6053 80.6214 49.3102 80.6218 48.9952C80.6211 48.6468 80.5809 48.2812 80.4627 48.0208C80.4385 47.9678 80.3736 47.9437 80.3179 47.9667C80.2622 47.9899 80.2368 48.0515 80.261 48.1043Z" fill="#100F0D"/>
<path d="M79.3143 50.7273C78.2486 50.8434 77.2739 51.1474 76.2745 51.4818C75.8641 51.6199 75.4512 51.77 75.0542 51.7692C74.9741 51.7692 74.8946 51.7632 74.8154 51.7502C74.4563 51.691 74.1571 51.497 73.8983 51.2297C73.6401 50.963 73.4268 50.6252 73.2458 50.2954C70.9189 46.0583 70.0734 40.9825 69.485 36.4624C69.4678 36.3311 69.4593 36.2037 69.4593 36.0807C69.4601 35.4833 69.6564 34.9917 70.0319 34.6359C70.1061 34.5652 70.2298 34.4871 70.3817 34.4133C70.838 34.1898 71.5448 33.9979 72.004 33.9232C72.2969 33.8753 74.1676 33.5455 74.4577 33.4956C74.5176 33.4854 74.5573 33.4309 74.5465 33.3742C74.5356 33.3173 74.4784 33.2796 74.4187 33.2899C74.1279 33.3399 72.2552 33.67 71.9666 33.7172C71.6451 33.7699 71.2212 33.8733 70.8289 34.0066C70.6328 34.0733 70.4448 34.1475 70.2811 34.2273C70.1174 34.3075 69.9779 34.3924 69.8767 34.4877C69.4543 34.8869 69.2387 35.4402 69.2393 36.0807C69.2393 36.2128 69.2484 36.3488 69.2666 36.4882C69.8566 41.0134 70.7017 46.1124 73.0507 50.3921C73.2361 50.7296 73.457 51.0821 73.7363 51.3711C74.0151 51.6598 74.357 51.8868 74.7779 51.9563C74.8704 51.9714 74.9627 51.9783 75.0542 51.9783C75.5086 51.9774 75.9415 51.8142 76.3477 51.679C77.3443 51.3454 78.3023 51.0479 79.3392 50.935C79.3997 50.9285 79.4429 50.8766 79.436 50.8193C79.4291 50.7619 79.3746 50.7208 79.3143 50.7273Z" fill="#100F0D"/>
</g>
</g>
<defs>
<radialGradient id="paint0_radial_972_5276" cx="0" cy="0" r="1" gradientUnits="userSpaceOnUse" gradientTransform="translate(45 26) rotate(50.906) scale(61.8466 64.4504)">
<stop stop-color="#B5EDFF"/>
<stop offset="1" stop-color="#A38CD5"/>
</radialGradient>
<radialGradient id="paint1_radial_972_5276" cx="0" cy="0" r="1" gradientUnits="userSpaceOnUse" gradientTransform="translate(45 26.5396) rotate(50.906) scale(58.194 60.644)">
<stop stop-color="#B5EDFF"/>
<stop offset="1" stop-color="#A38CD5"/>
</radialGradient>
<radialGradient id="paint2_radial_972_5276" cx="0" cy="0" r="1" gradientUnits="userSpaceOnUse" gradientTransform="translate(48.7651 47.7106) rotate(58.644) scale(73.9017 86.6011)">
<stop stop-color="white"/>
<stop offset="1" stop-color="white" stop-opacity="0"/>
</radialGradient>
</defs>
</svg>
