<svg width="94" height="94" viewBox="0 0 94 94" fill="none" xmlns="http://www.w3.org/2000/svg">
<path d="M47 93C71.8526 93 92 72.8526 92 48C92 23.1465 71.8526 3 47 3C22.1474 3 2 23.1465 2 48C2 72.8526 22.1474 93 47 93Z" fill="url(#paint0_radial_970_1789)"/>
<path d="M47.0423 90.2875C70.4272 90.2875 89.3847 71.1385 89.3847 47.5175C89.3847 23.8956 70.4272 4.74744 47.0423 4.74744C23.6575 4.74744 4.7 23.8956 4.7 47.5175C4.7 71.1385 23.6575 90.2875 47.0423 90.2875Z" fill="url(#paint1_radial_970_1789)"/>
<mask id="mask0_970_1789" style="mask-type:alpha" maskUnits="userSpaceOnUse" x="4" y="5" width="86" height="85">
<path d="M47 89.7599C70.3848 89.7599 89.3423 70.8024 89.3423 47.4175C89.3423 24.0319 70.3848 5.0752 47 5.0752C23.6152 5.0752 4.65766 24.0319 4.65766 47.4175C4.65766 70.8024 23.6152 89.7599 47 89.7599Z" fill="url(#paint2_radial_970_1789)"/>
</mask>
<g mask="url(#mask0_970_1789)">
<path d="M68.764 11.6611C72.1378 17.7965 74.0568 24.833 74.0568 32.3225C74.0568 56.1172 54.6979 75.4016 30.8108 75.4016C24.1445 75.4016 17.8312 73.901 12.187 71.2148C19.7646 82.4016 32.6045 89.7599 47.1711 89.7599C70.4628 89.7599 89.3441 70.9514 89.3441 47.7495C89.3364 32.4182 81.0831 18.9974 68.7648 11.662L68.764 11.6611Z" fill="url(#paint3_radial_970_1789)" fill-opacity="0.2"/>
<path d="M92 94H2V4H92V94Z" fill="white"/>
<mask id="mask1_970_1789" style="mask-type:luminance" maskUnits="userSpaceOnUse" x="12" y="15" width="68" height="68">
<path d="M47.0445 82.9623C42.9445 82.9623 39.8124 82.389 38.5633 82.1353C34.033 81.2152 25.2759 79.4365 18.9447 71.9912C9.36613 60.7269 10.8577 42.9806 18.2875 31.2658C18.7611 30.5191 19.9421 28.5874 21.8968 26.3076C21.9164 26.5125 21.9422 26.717 21.9738 26.9186C21.9936 27.0457 22.1033 27.1365 22.2281 27.1365C22.2324 27.1365 22.2368 27.1365 22.2412 27.1362C22.2501 27.1357 22.2592 27.1348 22.2682 27.1333C22.4089 27.1115 22.505 26.9795 22.483 26.8388C22.4403 26.5657 22.4087 26.2864 22.3893 26.0092C22.3845 25.9408 22.3534 25.8806 22.3066 25.8374C26.0182 21.6523 32.2568 16.5199 41.4159 15.3227C42.8642 15.1332 44.3532 15.0376 45.8611 15.0376C50.6452 15.0376 55.6328 15.9993 60.2209 17.9844C60.5816 20.8653 60.9399 25.0721 60.658 29.0723C55.7936 24.3787 49.1734 21.491 41.88 21.491C41.5765 21.491 41.2743 21.4958 40.9732 21.5058C40.6729 21.4961 40.3711 21.491 40.0684 21.491C25.1313 21.491 13.0223 33.6 13.0223 48.5371C13.0223 63.4742 25.1313 75.5832 40.0684 75.5832C40.3721 75.5832 40.6743 75.5781 40.9756 75.5682C41.276 75.5781 41.5773 75.583 41.88 75.583C50.8902 75.583 58.8718 71.1766 63.7869 64.4016C64.1933 66.6977 65.0595 68.7073 66.4741 70.2361C66.4741 70.2361 75.5253 67.2237 79.4688 56.0903C78.5418 63.0094 75.9272 69.2796 72.0058 73.408C70.6175 74.8695 69.3041 75.812 68.2661 76.5567C61.0338 81.7459 53.0141 82.9623 47.0445 82.9623ZM37.0867 16.3187C36.997 16.3187 36.9096 16.3658 36.8623 16.4495C36.792 16.5732 36.8354 16.7307 36.9594 16.8008C37.0756 16.867 37.1918 16.9359 37.3046 17.0062C37.3468 17.0324 37.3938 17.0451 37.4404 17.0451C37.4448 17.0451 37.4491 17.0448 37.4535 17.0448C37.535 17.0404 37.6131 16.998 37.6595 16.9235C37.7347 16.8027 37.6978 16.6436 37.5767 16.5684C37.4581 16.4946 37.3358 16.4218 37.2136 16.3527C37.1736 16.3297 37.1296 16.3187 37.0867 16.3187ZM71.7387 38.4923C70.722 33.1495 68.2214 26.8507 63.3762 19.5515C65.0008 20.4702 66.5505 21.5324 67.9934 22.7415C70.6264 24.9474 72.7852 27.5329 74.5042 30.3588C73.8373 33.0593 72.9352 35.9601 71.7387 38.4923Z" fill="white"/>
</mask>
<g mask="url(#mask1_970_1789)">
<path d="M47.0444 82.9623C42.9444 82.9623 39.8124 82.389 38.5633 82.1353C34.033 81.2151 25.2759 79.4365 18.9447 71.9912C9.36611 60.7269 10.8576 42.9807 18.2874 31.2657C18.7611 30.5192 19.9421 28.5873 21.8968 26.3075C21.9164 26.5124 21.9421 26.7173 21.9737 26.9189C21.9936 27.0458 22.1033 27.1364 22.228 27.1364C22.2324 27.1364 22.2368 27.1364 22.2412 27.1364C22.2501 27.1359 22.2591 27.1349 22.2682 27.1335C22.4088 27.1117 22.505 26.9794 22.483 26.8389C22.4402 26.5657 22.4086 26.2867 22.3893 26.0091C22.3845 25.9408 22.3534 25.8807 22.3066 25.8376C26.0182 21.6521 32.2567 16.5201 41.4159 15.3226C42.8641 15.1336 44.3531 15.0377 45.8611 15.0377C50.6451 15.0377 55.6328 15.9993 60.2209 17.9845C60.5813 20.8654 60.9398 25.0722 60.6578 29.0722C55.7937 24.379 49.1734 21.4908 41.88 21.4908C41.5765 21.4908 41.2742 21.4961 40.9732 21.5058C40.6728 21.4961 40.3711 21.4913 40.0683 21.4913C25.1312 21.4913 13.0223 33.6001 13.0223 48.5371C13.0223 63.4742 25.1312 75.5832 40.0683 75.5832C40.372 75.5832 40.6743 75.5781 40.9756 75.5682C41.2759 75.5781 41.5772 75.583 41.88 75.583C50.8902 75.583 58.8717 71.1766 63.7868 64.4016C64.1932 66.6977 65.0594 68.7073 66.4739 70.2361C66.4739 70.2361 75.525 67.2236 79.4688 56.0903C78.5416 63.0094 75.9271 69.2796 72.0056 73.4079C70.6172 74.8695 69.304 75.812 68.2658 76.5567C61.0337 81.7459 53.014 82.9623 47.0444 82.9623ZM37.0867 16.319C36.9969 16.319 36.9096 16.366 36.8623 16.4498C36.7919 16.5734 36.8353 16.7308 36.9593 16.801C37.0755 16.8669 37.1917 16.9357 37.3045 17.0064C37.3467 17.0326 37.3938 17.0452 37.4403 17.0452C37.4447 17.0452 37.4491 17.0452 37.4534 17.0447C37.535 17.0408 37.6131 16.9982 37.6594 16.9236C37.7346 16.8025 37.6977 16.6436 37.5767 16.5685C37.4581 16.4949 37.3358 16.4222 37.2135 16.3525C37.1735 16.3297 37.1296 16.319 37.0867 16.319ZM71.7387 38.4924C70.7219 33.1496 68.2213 26.8506 63.376 19.5516C65.0008 20.4701 66.5504 21.5325 67.9931 22.7416C70.6265 24.9472 72.7851 27.5326 74.5043 30.3588C73.8373 33.0595 72.9353 35.9603 71.7387 38.4924Z" fill="url(#paint4_linear_970_1789)"/>
</g>
<path d="M76.706 22.4374C76.5724 22.0739 76.0399 22.1309 75.9879 22.5145C75.4876 26.2201 73.8707 35.8961 70.0732 41.4429C63.8893 50.4739 60.8504 64.1578 66.4739 70.2361C66.4739 70.2361 91.2179 62.0026 76.706 22.4374Z" fill="#BDD0FB"/>
<path d="M67.579 65.9309C67.5675 65.9309 67.5556 65.928 67.545 65.9215C67.5148 65.903 67.5052 65.8644 67.5221 65.8339L67.5226 65.8332C68.3308 64.3949 69.0601 62.9158 69.7157 61.4042C70.3753 59.8941 70.9465 58.3469 71.4769 56.7873C72.0064 55.227 72.4726 53.6455 72.9035 52.0549C73.3331 50.4633 73.697 48.8549 74.0519 47.2452C74.7477 44.0211 75.2713 40.7613 75.7049 37.4905C75.9181 35.8544 76.0983 34.2137 76.25 32.5702C76.3265 31.7488 76.3958 30.9263 76.4549 30.103L76.5342 28.868L76.5672 28.2505L76.5805 27.9416C76.5833 27.8403 76.5878 27.7316 76.5865 27.6431V27.6285C76.5856 27.5927 76.614 27.5634 76.6497 27.5629C76.6502 27.5629 76.6506 27.5629 76.6506 27.5629C76.685 27.5629 76.713 27.5895 76.7153 27.6234C76.7226 27.7412 76.7194 27.8393 76.7203 27.9443L76.7167 28.2551L76.7025 28.8754C76.6901 29.2889 76.6713 29.7019 76.6525 30.1149C76.6121 30.941 76.5613 31.7662 76.503 32.5913C76.3834 34.2407 76.2188 35.8874 76.03 37.5304C75.8434 39.1743 75.6105 40.8131 75.3432 42.4455C75.0746 44.0784 74.7826 45.7077 74.4374 47.3268C73.753 50.5656 72.8921 53.7702 71.8079 56.9011C71.2495 58.4607 70.6504 60.0062 69.9623 61.5139C69.2641 63.016 68.5013 64.489 67.6344 65.8999C67.6225 65.92 67.601 65.9309 67.579 65.9309Z" fill="#D9E4FD"/>
<path d="M60.5536 15.5488C60.3325 15.2521 59.8594 15.4494 59.9167 15.8155C60.4684 19.3499 61.625 28.6646 59.656 34.7872C56.4492 44.7561 57.3949 58.1341 64.2102 62.1742C64.2102 62.1742 84.6555 47.8734 60.5536 15.5488Z" fill="#91B3FA"/>
<path d="M64.7415 34.0791C64.5936 33.8461 64.4425 33.6154 64.2882 33.3874C64.1222 32.1311 63.9376 30.878 63.7395 29.6267C63.4889 28.0682 63.207 26.5142 62.8976 24.9662C62.7442 24.1917 62.5836 23.4185 62.4135 22.6477L62.1493 21.4932L62.0114 20.9177L61.939 20.6309C61.9141 20.5377 61.8888 20.4364 61.8634 20.3558L61.8589 20.3423C61.8485 20.3088 61.8671 20.2735 61.9001 20.2631C61.9064 20.2613 61.9127 20.2604 61.9191 20.2604C61.9449 20.2604 61.9688 20.2762 61.9783 20.3016C62.0172 20.4079 62.0408 20.4984 62.0706 20.5947L62.1521 20.8806L62.3081 21.4533C62.4099 21.8361 62.5054 22.2197 62.6008 22.6038C62.7895 23.3724 62.9682 24.1428 63.1401 24.9155C63.4807 26.4609 63.7793 28.0153 64.0544 29.5742C64.3208 31.0694 64.5466 32.5722 64.7415 34.0791Z" fill="#C0D4FC"/>
<mask id="mask2_970_1789" style="mask-type:luminance" maskUnits="userSpaceOnUse" x="13" y="21" width="28" height="55">
<path d="M40.0684 75.5833C25.1313 75.5833 13.0223 63.4742 13.0223 48.5371C13.0223 33.6 25.1313 21.491 40.0684 21.491C40.3711 21.491 40.6729 21.4961 40.9732 21.5058C26.456 21.9844 14.8339 33.9035 14.8339 48.5371C14.8339 63.1715 26.4572 75.0913 40.9756 75.5682C40.6743 75.5782 40.3721 75.5833 40.0684 75.5833ZM16.3319 37.3674C16.2812 37.3674 16.2314 37.3914 16.2004 37.436C16.1506 37.5086 16.169 37.6078 16.2413 37.6575C16.3516 37.7335 16.4666 37.8079 16.5833 37.8783C16.609 37.8938 16.6375 37.9013 16.6655 37.9013C16.6682 37.9013 16.6709 37.9013 16.6736 37.9011C16.7246 37.8984 16.7734 37.8715 16.8019 37.8244C16.8474 37.7495 16.8233 37.6515 16.7481 37.6059C16.6368 37.5387 16.5271 37.4678 16.4219 37.3953C16.3943 37.3764 16.363 37.3674 16.3319 37.3674Z" fill="white"/>
</mask>
<g mask="url(#mask2_970_1789)">
<path d="M40.0684 75.5833C25.1313 75.5833 13.0223 63.4742 13.0223 48.5373C13.0223 33.6 25.1313 21.491 40.0684 21.491C40.3711 21.491 40.6729 21.4959 40.9733 21.5057C26.4561 21.9843 14.8339 33.9034 14.8339 48.5373C14.8339 63.1715 26.4573 75.0913 40.9757 75.5682C40.6744 75.5782 40.3721 75.5833 40.0684 75.5833ZM16.3319 37.3674C16.2813 37.3674 16.2314 37.3914 16.2005 37.4359C16.1506 37.5084 16.169 37.6076 16.2413 37.6574C16.3516 37.7335 16.4667 37.8078 16.5833 37.878C16.6091 37.8936 16.6375 37.9012 16.6656 37.9012C16.6682 37.9012 16.6709 37.9012 16.6736 37.9012C16.7246 37.8985 16.7734 37.8714 16.8019 37.8242C16.8474 37.7495 16.8233 37.6516 16.7481 37.6058C16.6369 37.5386 16.5271 37.4679 16.4219 37.3954C16.3943 37.3763 16.363 37.3674 16.3319 37.3674Z" fill="url(#paint5_linear_970_1789)"/>
</g>
<path d="M68.9263 48.5373C68.9263 63.4742 56.8173 75.583 41.88 75.583C26.9429 75.583 14.8339 63.4742 14.8339 48.5373C14.8339 33.6 26.9429 21.491 41.88 21.491C56.8173 21.491 68.9263 33.6 68.9263 48.5373Z" fill="white"/>
<mask id="mask3_970_1789" style="mask-type:luminance" maskUnits="userSpaceOnUse" x="18" y="25" width="47" height="47">
<path d="M41.88 71.6198C29.1521 71.6198 18.7973 61.2649 18.7973 48.537C18.7973 45.0675 19.5666 41.7746 20.9437 38.8194C21.0998 38.801 21.2553 38.7775 21.4087 38.7488C21.4951 38.7326 21.5521 38.6496 21.536 38.563C21.5216 38.4861 21.4539 38.4335 21.3785 38.4335C21.3692 38.4335 21.3597 38.4342 21.3502 38.4359C21.2696 38.4509 21.1884 38.4645 21.1069 38.4766C24.8513 30.7752 32.7551 25.455 41.8783 25.454C41.879 25.454 41.8793 25.454 41.88 25.454C41.8955 25.454 41.9098 25.454 41.9254 25.4543C41.9448 25.5761 42.0498 25.6699 42.1774 25.6714C42.1782 25.6714 42.1786 25.6714 42.1794 25.6714C42.184 25.6714 42.1888 25.6712 42.1934 25.6709C42.3135 25.6649 42.4122 25.5765 42.4334 25.4606C54.907 25.7556 64.9627 35.9938 64.9627 48.537C64.9627 61.2649 54.6079 71.6198 41.88 71.6198ZM34.3734 35.2903C29.7659 37.9117 26.6516 42.8675 26.6516 48.537C26.6516 56.934 33.4831 63.7655 41.88 63.7655C50.277 63.7655 57.1085 56.934 57.1085 48.537C57.1085 40.1398 50.277 33.3086 41.88 33.3086C40.3876 33.3086 38.9442 33.5245 37.5804 33.9264C37.583 33.8767 37.5712 33.8255 37.5435 33.7797C37.4952 33.6994 37.4101 33.655 37.3228 33.655C37.2774 33.655 37.2313 33.6671 37.1898 33.6921C36.9557 33.8333 36.7136 33.966 36.4696 34.0865C36.3665 34.1375 36.3124 34.2481 36.3286 34.3558C36.0598 34.4616 35.7942 34.5749 35.5329 34.6949C35.4851 34.6234 35.4041 34.5804 35.3185 34.5804C35.2913 34.5804 35.2639 34.5848 35.237 34.5938C34.9779 34.6801 34.7123 34.7563 34.4476 34.8201C34.3093 34.8536 34.2242 34.9928 34.2577 35.1311C34.2744 35.2003 34.3173 35.2561 34.3734 35.2903ZM22.9289 37.9415C22.9068 37.9415 22.8842 37.9461 22.8627 37.9558C22.6229 38.0657 22.3734 38.162 22.121 38.2423C22.0372 38.269 21.9909 38.3585 22.0176 38.4422C22.0391 38.5099 22.1018 38.5531 22.1693 38.5531C22.1719 38.5531 22.1746 38.5531 22.1773 38.5531C22.1906 38.5523 22.2042 38.5499 22.2176 38.5455C22.4821 38.4614 22.7437 38.3605 22.9952 38.2455C23.0751 38.2088 23.1103 38.1142 23.0737 38.0344C23.0469 37.9757 22.9893 37.9415 22.9289 37.9415ZM24.3133 37.0907C24.2786 37.0907 24.2436 37.1021 24.2143 37.1254C24.0076 37.2902 23.7886 37.4435 23.5634 37.5817C23.4886 37.6276 23.4651 37.7256 23.5112 37.8008C23.5411 37.8496 23.5934 37.8765 23.647 37.8765C23.6496 37.8765 23.6523 37.8765 23.655 37.8762C23.6807 37.875 23.7066 37.8675 23.7301 37.8532C23.9661 37.7081 24.1957 37.5471 24.4126 37.3746C24.4814 37.32 24.4928 37.2198 24.4381 37.1509C24.4066 37.1114 24.3602 37.0907 24.3133 37.0907ZM25.4552 35.9334C25.4075 35.9334 25.3604 35.9547 25.329 35.9955C25.1677 36.2041 24.9917 36.4057 24.8058 36.5942C24.7441 36.6568 24.7448 36.7577 24.8074 36.8193C24.8384 36.8499 24.8788 36.8651 24.9192 36.8651C24.9219 36.8651 24.9247 36.8651 24.9274 36.8649C24.9657 36.863 25.0035 36.8472 25.0326 36.8178C25.2274 36.6201 25.4119 36.4088 25.581 36.1898C25.6347 36.1204 25.6219 36.0204 25.5523 35.9666C25.5234 35.9443 25.4891 35.9334 25.4552 35.9334ZM33.1582 35.0426C33.1498 35.0426 33.1413 35.0428 33.1325 35.0438C32.863 35.071 32.5879 35.0867 32.3121 35.0916C32.1704 35.0935 32.0564 35.2114 32.0588 35.3538C32.0613 35.4945 32.1762 35.6071 32.3167 35.6071C32.3182 35.6071 32.3196 35.6071 32.3211 35.6071C32.4407 35.6049 32.5595 35.601 32.6779 35.5949C32.847 35.5862 33.0173 35.5736 33.184 35.5566C33.3256 35.5425 33.429 35.4162 33.4149 35.2745C33.4016 35.1415 33.2895 35.0426 33.1582 35.0426ZM26.2862 34.5353C26.2249 34.5353 26.1665 34.571 26.1403 34.6304C26.034 34.872 25.9115 35.1098 25.7761 35.3373C25.7311 35.413 25.756 35.5108 25.8316 35.5556C25.857 35.5709 25.885 35.578 25.9126 35.578C25.9154 35.578 25.9182 35.578 25.9209 35.5777C25.9723 35.5751 26.0215 35.5476 26.0498 35.5003C26.1917 35.2616 26.3202 35.012 26.4318 34.7587C26.4672 34.6782 26.4306 34.5843 26.35 34.5489C26.3291 34.5397 26.3076 34.5353 26.2862 34.5353ZM30.1155 34.8876C29.9961 34.8876 29.8886 34.972 29.8637 35.0938C29.835 35.233 29.925 35.3693 30.0643 35.398C30.3454 35.4557 30.6327 35.502 30.9182 35.536C30.9286 35.5372 30.9388 35.5377 30.949 35.5377C30.9534 35.5377 30.9577 35.5377 30.9621 35.5375C31.0853 35.5311 31.1896 35.437 31.2047 35.3104C31.2214 35.1692 31.1205 35.0409 30.9791 35.0241C30.7079 34.9919 30.435 34.9477 30.1679 34.8931C30.1504 34.8895 30.1329 34.8876 30.1155 34.8876ZM28.0142 34.2066C27.9162 34.2066 27.8223 34.2631 27.7793 34.3585C27.7206 34.488 27.7784 34.6408 27.9082 34.6993C28.1697 34.8175 28.4399 34.9261 28.7106 35.022C28.739 35.0319 28.7681 35.0368 28.7968 35.0368C28.8011 35.0368 28.8052 35.0365 28.8096 35.0363C28.9108 35.0312 29.0037 34.9662 29.0396 34.8648C29.0869 34.7306 29.0168 34.5834 28.8824 34.5358C28.6252 34.4448 28.3688 34.342 28.1204 34.2297C28.0857 34.2141 28.0498 34.2066 28.0142 34.2066ZM26.4582 33.3282C26.3765 33.3282 26.2957 33.3673 26.2457 33.44C26.1651 33.5572 26.1947 33.7178 26.3119 33.7983C26.4281 33.8784 26.5468 33.9565 26.6649 34.031C26.7076 34.0577 26.7549 34.0705 26.802 34.0705C26.8063 34.0705 26.8107 34.0703 26.8151 34.07C26.8961 34.0659 26.9739 34.0237 27.0203 33.95C27.0962 33.8294 27.0598 33.6703 26.9395 33.5946C26.8274 33.524 26.7146 33.4497 26.6042 33.3738C26.5596 33.343 26.5087 33.3282 26.4582 33.3282ZM39.0771 32.3132C39.0131 32.3132 38.9491 32.337 38.8993 32.3848C38.7021 32.573 38.4945 32.7555 38.2822 32.927C38.1713 33.0162 38.1541 33.1785 38.2434 33.2894C38.2943 33.3525 38.369 33.3852 38.4442 33.3852C38.4486 33.3852 38.453 33.385 38.4573 33.3847C38.5097 33.3821 38.5619 33.3634 38.6058 33.328C38.8295 33.1475 39.0478 32.9556 39.2555 32.7574C39.3583 32.6589 39.3619 32.4959 39.2637 32.393C39.213 32.3399 39.1451 32.3132 39.0771 32.3132ZM40.4982 30.6209C40.415 30.6209 40.3333 30.6612 40.2838 30.7357C40.1324 30.9622 39.9694 31.1857 39.7993 31.3994C39.7108 31.5107 39.7292 31.673 39.8406 31.7616C39.8879 31.7992 39.9446 31.8176 40.0009 31.8176C40.0053 31.8176 40.0097 31.8176 40.014 31.8174C40.0853 31.8137 40.1547 31.7805 40.2028 31.7203C40.3818 31.4955 40.5533 31.2604 40.7124 31.0219C40.7915 30.9035 40.7595 30.7434 40.6411 30.6643C40.5972 30.635 40.5475 30.6209 40.4982 30.6209ZM41.5147 28.6589C41.4113 28.6589 41.3133 28.7217 41.274 28.8241C41.1763 29.0785 41.0661 29.3321 40.947 29.5778C40.8849 29.7059 40.9383 29.8599 41.0664 29.922C41.1025 29.9397 41.1408 29.948 41.1787 29.948C41.1831 29.948 41.1874 29.948 41.1918 29.9477C41.2825 29.9431 41.3681 29.8902 41.4106 29.8027C41.5363 29.5441 41.6522 29.277 41.7551 29.0092C41.8063 28.8762 41.74 28.727 41.6071 28.6761C41.5768 28.6645 41.5455 28.6589 41.5147 28.6589ZM42.0741 26.5209C41.9484 26.5209 41.8378 26.6131 41.8191 26.7415C41.7798 27.0115 41.7281 27.2829 41.6663 27.5483C41.634 27.6868 41.7201 27.8253 41.8587 27.8578C41.8786 27.8625 41.8982 27.8646 41.9176 27.8646C41.922 27.8646 41.9263 27.8646 41.9305 27.8644C42.0423 27.8586 42.1415 27.7797 42.1682 27.6655C42.2335 27.3863 42.2876 27.1005 42.3293 26.8159C42.3499 26.6752 42.2524 26.5442 42.1114 26.5236C42.0988 26.5219 42.0865 26.5209 42.0741 26.5209ZM41.88 61.4534C34.7579 61.4534 28.9637 55.6589 28.9637 48.537C28.9637 41.4149 34.7579 35.6207 41.88 35.6207C49.0022 35.6207 54.7961 41.4149 54.7961 48.537C54.7961 55.6589 49.0022 61.4534 41.88 61.4534Z" fill="white"/>
</mask>
<g mask="url(#mask3_970_1789)">
<path d="M41.88 71.6195C29.1521 71.6195 18.7972 61.2646 18.7972 48.5366C18.7972 45.0673 19.5666 41.7746 20.9437 38.8191C21.0998 38.8006 21.2553 38.777 21.4087 38.7484C21.4951 38.7325 21.5521 38.6492 21.5359 38.563C21.5215 38.486 21.4538 38.4331 21.3785 38.4331C21.3691 38.4331 21.3596 38.4339 21.3501 38.4356C21.2696 38.4507 21.1884 38.4642 21.1069 38.4764C24.8513 30.7748 32.7551 25.4548 41.8783 25.4539C41.879 25.4539 41.8793 25.4539 41.88 25.4539C41.8955 25.4539 41.9098 25.4539 41.9254 25.4539C41.9448 25.5759 42.0498 25.6697 42.1774 25.6709C42.1781 25.6709 42.1786 25.6709 42.1794 25.6709C42.1839 25.6709 42.1888 25.6709 42.1934 25.6709C42.3135 25.6646 42.4122 25.5763 42.4334 25.4607C54.9068 25.7554 64.9629 35.9936 64.9629 48.5366C64.9629 61.2646 54.6078 71.6195 41.88 71.6195ZM34.3734 35.29C29.7659 37.9116 26.6515 42.8671 26.6515 48.5366C26.6515 56.9337 33.483 63.7653 41.88 63.7653C50.2768 63.7653 57.1083 56.9337 57.1083 48.5366C57.1083 40.1395 50.2768 33.3085 41.88 33.3085C40.3876 33.3085 38.9442 33.5242 37.5804 33.9263C37.583 33.8766 37.5711 33.8253 37.5435 33.7795C37.4952 33.6992 37.4101 33.6546 37.3227 33.6546C37.2774 33.6546 37.2313 33.6668 37.1898 33.692C36.9557 33.8329 36.7136 33.9658 36.4696 34.0865C36.3665 34.1374 36.3124 34.248 36.3286 34.3556C36.0598 34.4612 35.7942 34.5747 35.5329 34.6946C35.4851 34.6231 35.4041 34.5802 35.3185 34.5802C35.2913 34.5802 35.2639 34.5844 35.237 34.5936C34.9779 34.6799 34.7122 34.756 34.4476 34.8199C34.3093 34.8535 34.2242 34.9927 34.2576 35.1311C34.2744 35.2 34.3173 35.256 34.3734 35.29ZM22.9289 37.9415C22.9068 37.9415 22.8842 37.9461 22.8627 37.9558C22.6229 38.0655 22.3734 38.1618 22.121 38.2421C22.0372 38.2686 21.9909 38.3582 22.0176 38.4419C22.0391 38.5096 22.1018 38.5529 22.1693 38.5529C22.1719 38.5529 22.1746 38.5529 22.1773 38.5529C22.1906 38.5521 22.2041 38.5495 22.2176 38.5453C22.4821 38.4612 22.7437 38.3603 22.9952 38.2451C23.0751 38.2085 23.1103 38.1139 23.0737 38.0344C23.0469 37.9755 22.9893 37.9415 22.9289 37.9415ZM24.3133 37.0907C24.2786 37.0907 24.2437 37.1021 24.2143 37.1252C24.0076 37.2901 23.7886 37.4431 23.5634 37.5815C23.4886 37.6273 23.4651 37.7253 23.5112 37.8006C23.5411 37.8494 23.5934 37.8763 23.6469 37.8763C23.6496 37.8763 23.6523 37.8763 23.655 37.8759C23.6807 37.875 23.7066 37.8674 23.7301 37.8531C23.9661 37.7081 24.1957 37.547 24.4126 37.3742C24.4814 37.3199 24.4928 37.2194 24.4381 37.1509C24.4066 37.1113 24.3602 37.0907 24.3133 37.0907ZM25.4551 35.933C25.4075 35.933 25.3604 35.9545 25.329 35.9953C25.1677 36.2038 24.9916 36.4053 24.8058 36.5941C24.7441 36.6567 24.7448 36.7573 24.8074 36.8191C24.8384 36.8498 24.8788 36.8649 24.9192 36.8649C24.9219 36.8649 24.9247 36.8649 24.9274 36.8645C24.9657 36.8628 25.0035 36.8468 25.0326 36.8178C25.2274 36.6197 25.4119 36.4086 25.581 36.1895C25.6347 36.1202 25.6219 36.0201 25.5523 35.9662C25.5234 35.944 25.4891 35.933 25.4551 35.933ZM33.1582 35.0423C33.1497 35.0423 33.1413 35.0428 33.1325 35.0436C32.863 35.0709 32.5879 35.0865 32.3121 35.0915C32.1704 35.0932 32.0564 35.2114 32.0588 35.3535C32.0612 35.4944 32.1762 35.6067 32.3167 35.6067C32.3181 35.6067 32.3196 35.6067 32.3211 35.6067C32.4407 35.6046 32.5595 35.6008 32.6779 35.5949C32.847 35.5861 33.0173 35.5735 33.184 35.5562C33.3256 35.5424 33.429 35.4158 33.4149 35.2745C33.4015 35.1412 33.2895 35.0423 33.1582 35.0423ZM26.2862 34.5352C26.2249 34.5352 26.1666 34.5709 26.1403 34.6302C26.034 34.8716 25.9115 35.1096 25.776 35.3371C25.7311 35.4128 25.7559 35.5104 25.8316 35.5554C25.857 35.5705 25.885 35.5777 25.9126 35.5777C25.9154 35.5777 25.9181 35.5777 25.9209 35.5777C25.9722 35.5747 26.0215 35.5474 26.0498 35.5003C26.1917 35.2614 26.3202 35.0116 26.4317 34.7585C26.4672 34.6782 26.4306 34.584 26.35 34.5486C26.3291 34.5394 26.3076 34.5352 26.2862 34.5352ZM30.1155 34.8872C29.9961 34.8872 29.8886 34.9717 29.8636 35.0936C29.835 35.2328 29.925 35.3691 30.0643 35.3977C30.3454 35.4553 30.6327 35.502 30.9182 35.5356C30.9286 35.5369 30.9388 35.5373 30.949 35.5373C30.9534 35.5373 30.9577 35.5373 30.9621 35.5373C31.0853 35.531 31.1897 35.4368 31.2047 35.3102C31.2214 35.1689 31.1205 35.0407 30.9791 35.0238C30.7079 34.9915 30.4349 34.9473 30.1679 34.8931C30.1504 34.8893 30.1329 34.8872 30.1155 34.8872ZM28.0142 34.2063C27.9162 34.2063 27.8222 34.2631 27.7793 34.3582C27.7206 34.4877 27.7783 34.6407 27.9082 34.6992C28.1696 34.8174 28.4399 34.9259 28.7106 35.0217C28.739 35.0318 28.7681 35.0365 28.7967 35.0365C28.8011 35.0365 28.8052 35.0365 28.8096 35.036C28.9107 35.031 29.0037 34.9658 29.0396 34.8645C29.0869 34.7303 29.0168 34.5831 28.8824 34.5356C28.6252 34.4448 28.3688 34.3417 28.1204 34.2295C28.0857 34.2139 28.0498 34.2063 28.0142 34.2063ZM26.4582 33.3279C26.3764 33.3279 26.2957 33.367 26.2457 33.4397C26.165 33.557 26.1946 33.7177 26.3119 33.798C26.4281 33.8783 26.5467 33.9561 26.6649 34.031C26.7076 34.0575 26.7549 34.0705 26.802 34.0705C26.8063 34.0705 26.8107 34.0701 26.815 34.0697C26.8961 34.0659 26.9739 34.0234 27.0203 33.9498C27.0962 33.8291 27.0598 33.6702 26.9395 33.5945C26.8274 33.5238 26.7146 33.4494 26.6042 33.3737C26.5596 33.3426 26.5086 33.3279 26.4582 33.3279ZM39.0771 32.3131C39.0131 32.3131 38.949 32.3367 38.8993 32.3846C38.7021 32.573 38.4944 32.7551 38.2822 32.9267C38.1713 33.0158 38.1541 33.1782 38.2434 33.2892C38.2943 33.3523 38.369 33.3851 38.4442 33.3851C38.4486 33.3851 38.4529 33.3846 38.4573 33.3846C38.5097 33.3817 38.5619 33.3632 38.6058 33.3279C38.8294 33.1475 39.0478 32.9553 39.2554 32.7572C39.3583 32.6588 39.362 32.4956 39.2637 32.3926C39.213 32.3396 39.145 32.3131 39.0771 32.3131ZM40.4982 30.6205C40.415 30.6205 40.3332 30.6609 40.2838 30.7353C40.1324 30.962 39.9694 31.1853 39.7993 31.3993C39.7108 31.5103 39.7292 31.6727 39.8406 31.7614C39.8879 31.7988 39.9446 31.8173 40.0009 31.8173C40.0053 31.8173 40.0096 31.8173 40.014 31.8173C40.0853 31.8135 40.1547 31.7803 40.2028 31.7202C40.3818 31.4952 40.5533 31.2601 40.7124 31.0217C40.7915 30.9035 40.7595 30.7433 40.6411 30.6642C40.5972 30.6348 40.5475 30.6205 40.4982 30.6205ZM41.5147 28.6588C41.4113 28.6588 41.3133 28.7214 41.274 28.824C41.1762 29.0784 41.0661 29.332 40.947 29.5776C40.8849 29.7059 40.9383 29.8598 41.0663 29.922C41.1025 29.9397 41.1408 29.9477 41.1787 29.9477C41.183 29.9477 41.1874 29.9477 41.1918 29.9477C41.2825 29.943 41.3681 29.8901 41.4106 29.8026C41.5362 29.544 41.6522 29.2769 41.7551 29.0091C41.8063 28.8762 41.74 28.7269 41.6071 28.676C41.5767 28.6642 41.5455 28.6588 41.5147 28.6588ZM42.0741 26.5208C41.9484 26.5208 41.8378 26.6129 41.8191 26.7412C41.7798 27.0116 41.7281 27.2828 41.6663 27.5481C41.634 27.6865 41.7201 27.8253 41.8587 27.8577C41.8786 27.8623 41.8982 27.8644 41.9176 27.8644C41.922 27.8644 41.9263 27.8644 41.9304 27.864C42.0423 27.8585 42.1415 27.7794 42.1682 27.6651C42.2334 27.3858 42.2876 27.1003 42.3293 26.816C42.3499 26.6751 42.2524 26.5439 42.1114 26.5233C42.0988 26.5216 42.0864 26.5208 42.0741 26.5208ZM41.88 61.4532C34.7579 61.4532 28.9636 55.6587 28.9636 48.5366C28.9636 41.4146 34.7579 35.6206 41.88 35.6206C49.0022 35.6206 54.7962 41.4146 54.7962 48.5366C54.7962 55.6587 49.0022 61.4532 41.88 61.4532Z" fill="url(#paint6_linear_970_1789)"/>
</g>
<path d="M41.88 25.4543C29.1521 25.4543 18.7973 35.8091 18.7973 48.5372C18.7973 61.265 29.1521 71.6198 41.88 71.6198C54.6079 71.6198 64.9627 61.265 64.9627 48.5372C64.9627 35.8091 54.6079 25.4543 41.88 25.4543ZM41.88 72.776C28.5146 72.776 17.6411 61.9025 17.6411 48.5372C17.6411 35.1715 28.5146 24.298 41.88 24.298C55.2455 24.298 66.119 35.1715 66.119 48.5372C66.119 61.9025 55.2455 72.776 41.88 72.776Z" fill="white"/>
<mask id="mask4_970_1789" style="mask-type:luminance" maskUnits="userSpaceOnUse" x="27" y="34" width="29" height="29">
<path d="M55.9523 48.5371C55.9523 56.3089 49.652 62.6094 41.88 62.6094C34.108 62.6094 27.8077 56.3089 27.8077 48.5371C27.8077 40.7651 34.108 34.4646 41.88 34.4646C49.652 34.4646 55.9523 40.7651 55.9523 48.5371Z" fill="white"/>
</mask>
<g mask="url(#mask4_970_1789)">
<path d="M55.9522 48.5372C55.9522 56.309 49.6521 62.6094 41.8799 62.6094C34.1079 62.6094 27.8077 56.309 27.8077 48.5372C27.8077 40.7651 34.1079 34.4646 41.8799 34.4646C49.6521 34.4646 55.9522 40.7651 55.9522 48.5372Z" fill="url(#paint7_linear_970_1789)"/>
</g>
<path d="M41.88 35.6206C34.758 35.6206 28.9637 41.4146 28.9637 48.5367C28.9637 55.6589 34.758 61.4533 41.88 61.4533C49.0025 61.4533 54.7965 55.6589 54.7965 48.5367C54.7965 41.4146 49.0025 35.6206 41.88 35.6206ZM41.88 63.7654C33.4832 63.7654 26.6516 56.9339 26.6516 48.5367C26.6516 40.1397 33.4832 33.3084 41.88 33.3084C50.277 33.3084 57.1087 40.1397 57.1087 48.5367C57.1087 56.9339 50.277 63.7654 41.88 63.7654Z" fill="white"/>
<mask id="mask5_970_1789" style="mask-type:luminance" maskUnits="userSpaceOnUse" x="36" y="43" width="12" height="11">
<path d="M47.3322 48.5371C47.3322 51.5481 44.891 53.989 41.88 53.989C38.869 53.989 36.4278 51.5481 36.4278 48.5371C36.4278 45.5258 38.869 43.0849 41.88 43.0849C44.891 43.0849 47.3322 45.5258 47.3322 48.5371Z" fill="white"/>
</mask>
<g mask="url(#mask5_970_1789)">
<path d="M47.3324 48.5371C47.3324 51.548 44.8913 53.9888 41.8801 53.9888C38.8692 53.9888 36.4281 51.548 36.4281 48.5371C36.4281 45.5256 38.8692 43.0848 41.8801 43.0848C44.8913 43.0848 47.3324 45.5256 47.3324 48.5371Z" fill="url(#paint8_linear_970_1789)"/>
</g>
<path d="M41.88 44.2408C39.5113 44.2408 37.5843 46.1681 37.5843 48.5369C37.5843 50.9059 39.5113 52.8329 41.88 52.8329C44.2488 52.8329 46.1761 50.9059 46.1761 48.5369C46.1761 46.1681 44.2488 44.2408 41.88 44.2408ZM41.88 55.1451C38.2366 55.1451 35.2721 52.1806 35.2721 48.5369C35.2721 44.8931 38.2366 41.9286 41.88 41.9286C45.5238 41.9286 48.4883 44.8931 48.4883 48.5369C48.4883 52.1806 45.5238 55.1451 41.88 55.1451Z" fill="white"/>
<mask id="mask6_970_1789" style="mask-type:luminance" maskUnits="userSpaceOnUse" x="72" y="54" width="9" height="5">
<path d="M79.5469 56.6664L80.7018 58.9972L75.8045 57.8696C74.1998 57.5002 72.8456 56.4306 72.1145 54.9552L79.5469 56.6664Z" fill="white"/>
</mask>
<g mask="url(#mask6_970_1789)">
<path d="M79.5468 56.6665L80.7017 58.9973L75.8043 57.8698C74.1994 57.5003 72.8455 56.4307 72.1145 54.9553L79.5468 56.6665Z" fill="url(#paint9_linear_970_1789)"/>
</g>
<mask id="mask7_970_1789" style="mask-type:luminance" maskUnits="userSpaceOnUse" x="72" y="53" width="10" height="3">
<path d="M79.708 55.9661L81.7661 54.3749L76.8687 53.2474C75.264 52.8779 73.5782 53.2476 72.2758 54.2549L79.708 55.9661Z" fill="white"/>
</mask>
<g mask="url(#mask7_970_1789)">
<path d="M79.7079 55.9659L81.7662 54.3748L76.8686 53.2473C75.264 52.8778 73.5782 53.2475 72.276 54.2547L79.7079 55.9659Z" fill="url(#paint10_linear_970_1789)"/>
</g>
<mask id="mask8_970_1789" style="mask-type:luminance" maskUnits="userSpaceOnUse" x="47" y="48" width="33" height="9">
<path d="M79.8188 55.8695L79.6255 56.7089L47.8387 49.3905L48.032 48.5511L79.8188 55.8695Z" fill="white"/>
</mask>
<g mask="url(#mask8_970_1789)">
<path d="M79.8188 55.8695L79.6254 56.7089L47.8386 49.3905L48.032 48.5511L79.8188 55.8695Z" fill="url(#paint11_linear_970_1789)"/>
</g>
<mask id="mask9_970_1789" style="mask-type:luminance" maskUnits="userSpaceOnUse" x="41" y="47" width="9" height="4">
<path d="M49.5067 48.1373C49.9883 48.2482 49.4655 50.5186 48.9839 50.4077L41.6711 47.7759C41.4009 47.6786 41.4938 47.2756 41.7793 47.3062L49.5067 48.1373Z" fill="white"/>
</mask>
<g mask="url(#mask9_970_1789)">
<path d="M49.5067 48.1374C49.9884 48.248 49.4654 50.5186 48.984 50.4077L41.6713 47.7757C41.4009 47.6785 41.4939 47.2756 41.7793 47.3063L49.5067 48.1374Z" fill="url(#paint12_linear_970_1789)"/>
</g>
<mask id="mask10_970_1789" style="mask-type:luminance" maskUnits="userSpaceOnUse" x="54" y="80" width="4" height="3">
<path d="M57.2657 80.8884C57.2657 80.8884 57.656 81.451 57.6756 82.2413C57.6802 82.4276 57.5296 82.5812 57.3435 82.5877L54.3386 82.6925C54.1979 82.6974 54.1346 82.5186 54.2469 82.4337C54.8015 82.0145 55.8931 81.2297 56.6912 80.9083L57.2657 80.8884Z" fill="white"/>
</mask>
<g mask="url(#mask10_970_1789)">
<path d="M57.2659 80.8884C57.2659 80.8884 57.656 81.451 57.6758 82.2413C57.6803 82.4276 57.5296 82.5812 57.3438 82.5878L54.3386 82.6925C54.1979 82.6974 54.1347 82.5186 54.2471 82.4337C54.8015 82.0145 55.8931 81.2297 56.6914 80.9083L57.2659 80.8884Z" fill="url(#paint13_linear_970_1789)"/>
</g>
<mask id="mask11_970_1789" style="mask-type:luminance" maskUnits="userSpaceOnUse" x="56" y="79" width="2" height="3">
<path d="M57.3404 79.9289L57.2635 81.0841C57.2548 81.2134 57.1436 81.3146 57.0146 81.3039C56.936 81.2974 56.8419 81.2772 56.7376 81.2304C56.6386 81.186 56.5774 81.0839 56.5816 80.9755L56.6337 79.5815L57.3404 79.9289Z" fill="white"/>
</mask>
<g mask="url(#mask11_970_1789)">
<path d="M57.3404 79.9289L57.2637 81.0841C57.2548 81.2134 57.1438 81.3146 57.0145 81.3039C56.936 81.2974 56.842 81.2772 56.7374 81.2304C56.6386 81.186 56.5775 81.0839 56.5816 80.9755L56.6339 79.5815L57.3404 79.9289Z" fill="url(#paint14_linear_970_1789)"/>
</g>
<mask id="mask12_970_1789" style="mask-type:luminance" maskUnits="userSpaceOnUse" x="73" y="75" width="3" height="5">
<path d="M74.0057 75.8486C74.0057 75.8486 74.6323 75.5721 75.412 75.7028C75.5956 75.7336 75.7179 75.9107 75.689 76.0946L75.2218 79.0646C75.1997 79.2038 75.0122 79.2322 74.9503 79.1058C74.6439 78.4817 74.0804 77.261 73.9164 76.4165L74.0057 75.8486Z" fill="white"/>
</mask>
<g mask="url(#mask12_970_1789)">
<path d="M74.0056 75.8486C74.0056 75.8486 74.6322 75.5721 75.4121 75.7028C75.5957 75.7336 75.7178 75.9107 75.6888 76.0946L75.2218 79.0646C75.1996 79.2038 75.012 79.2322 74.9501 79.1059C74.644 78.4817 74.0802 77.2609 73.9166 76.4165L74.0056 75.8486Z" fill="url(#paint15_linear_970_1789)"/>
</g>
<mask id="mask13_970_1789" style="mask-type:luminance" maskUnits="userSpaceOnUse" x="72" y="75" width="3" height="2">
<path d="M73.078 75.5931L74.1976 75.8879C74.3228 75.9209 74.4011 76.0494 74.3662 76.1741C74.3448 76.2498 74.307 76.3386 74.2415 76.432C74.1789 76.5208 74.0671 76.5613 73.9613 76.5368L72.6028 76.2209L73.078 75.5931Z" fill="white"/>
</mask>
<g mask="url(#mask13_970_1789)">
<path d="M73.0783 75.5931L74.1977 75.8879C74.3229 75.9209 74.4011 76.0494 74.3664 76.1741C74.3451 76.2498 74.3069 76.3386 74.2417 76.432C74.1791 76.5208 74.0672 76.5613 73.9615 76.5368L72.6028 76.2209L73.0783 75.5931Z" fill="url(#paint16_linear_970_1789)"/>
</g>
<mask id="mask14_970_1789" style="mask-type:luminance" maskUnits="userSpaceOnUse" x="56" y="51" width="2" height="2">
<path d="M57.746 52.2235C57.746 52.2235 57.6453 51.9908 57.6616 51.8533C57.6778 51.7155 57.6817 51.2859 57.4238 51.1044C57.4238 51.1044 57.2841 51.1112 57.2814 51.2679C57.1172 51.0915 57.109 50.9394 56.9391 51.0476C56.7696 51.1556 56.1311 51.5428 56.4501 51.7982C56.7688 52.0537 57.27 52.5398 57.27 52.5398L57.746 52.2235Z" fill="white"/>
</mask>
<g mask="url(#mask14_970_1789)">
<path d="M57.7461 52.2233C57.7461 52.2233 57.6455 51.9908 57.6616 51.8533C57.678 51.7155 57.6818 51.2859 57.4239 51.1043C57.4239 51.1043 57.284 51.1111 57.2817 51.2678C57.1172 51.0916 57.1089 50.9395 56.9393 51.0475C56.7697 51.1556 56.1312 51.5427 56.4502 51.7982C56.769 52.0537 57.27 52.5397 57.27 52.5397L57.7461 52.2233Z" fill="url(#paint17_linear_970_1789)"/>
</g>
<mask id="mask15_970_1789" style="mask-type:luminance" maskUnits="userSpaceOnUse" x="63" y="67" width="11" height="10">
<path d="M63.2785 70.8067C63.2785 70.8067 63.8473 75.3453 65.4756 75.5185C67.1038 75.6917 73.3403 76.5924 73.3403 76.5924L73.5135 75.657C73.5135 75.657 69.9103 73.4744 67.7622 73.5091C66.6883 71.9153 66.9503 67.5116 66.9503 67.5116L63.2785 70.8067Z" fill="white"/>
</mask>
<g mask="url(#mask15_970_1789)">
<path d="M63.2782 70.8067C63.2782 70.8067 63.8473 75.3452 65.4754 75.5184C67.104 75.6916 73.3401 76.5924 73.3401 76.5924L73.5134 75.657C73.5134 75.657 69.9101 73.4744 67.7621 73.5091C66.688 71.9153 66.9504 67.5116 66.9504 67.5116L63.2782 70.8067Z" fill="url(#paint18_linear_970_1789)"/>
</g>
<mask id="mask16_970_1789" style="mask-type:luminance" maskUnits="userSpaceOnUse" x="57" y="52" width="13" height="15">
<path d="M69.9773 54.9611C69.7856 60.021 67.1312 60.4681 67.1312 60.4681V66.9401H63.3886C63.3886 66.9401 61.5738 62.5206 61.6209 61.0432C58.9216 59.9019 57.5553 53.3755 57.27 52.5398C57.403 52.4386 57.4743 52.4425 57.746 52.2235C61.4251 58.0788 62.3229 58.9791 62.3229 58.9791H64.4016C68.3961 58.6203 69.3786 54.8233 69.3786 54.8233L69.9773 54.9611Z" fill="white"/>
</mask>
<g mask="url(#mask16_970_1789)">
<path d="M69.9769 54.9611C69.7851 60.021 67.1311 60.4681 67.1311 60.4681V66.9401H63.3882C63.3882 66.9401 61.5736 62.5206 61.6203 61.0432C58.9213 59.9019 57.555 53.3755 57.2698 52.5398C57.4028 52.4387 57.4741 52.4425 57.7456 52.2236C61.4247 58.0788 62.3226 58.9791 62.3226 58.9791H64.4011C68.3959 58.6203 69.3781 54.8233 69.3781 54.8233L69.9769 54.9611Z" fill="url(#paint19_linear_970_1789)"/>
</g>
<mask id="mask17_970_1789" style="mask-type:luminance" maskUnits="userSpaceOnUse" x="56" y="66" width="12" height="15">
<path d="M67.0143 66.9262C67.0143 66.9262 67.3117 70.0973 61.0653 72.5688C59.5409 75.4097 57.5417 80.7057 57.5417 80.7057H56.2252C56.2252 80.7057 57.1259 72.7073 58.7195 71.1135C60.3133 69.52 62.0519 67.7265 63.3883 66.9412C66.4804 66.6179 67.0143 66.9262 67.0143 66.9262Z" fill="white"/>
</mask>
<g mask="url(#mask17_970_1789)">
<path d="M67.0143 66.9262C67.0143 66.9262 67.3114 70.0973 61.0653 72.5688C59.5407 75.4098 57.5415 80.7057 57.5415 80.7057H56.2252C56.2252 80.7057 57.1259 72.7074 58.7194 71.1135C60.313 69.52 62.0517 67.7265 63.388 66.9413C66.4802 66.6179 67.0143 66.9262 67.0143 66.9262Z" fill="url(#paint20_linear_970_1789)"/>
</g>
<mask id="mask18_970_1789" style="mask-type:luminance" maskUnits="userSpaceOnUse" x="62" y="56" width="4" height="4">
<path d="M64.3512 56.6201L65.0401 59.0465C65.0401 59.0465 63.8628 59.6794 62.9924 59.5084L62.7533 57.3695L64.3512 56.6201Z" fill="white"/>
</mask>
<g mask="url(#mask18_970_1789)">
<path d="M64.3512 56.6203L65.04 59.0466C65.04 59.0466 63.8627 59.6795 62.9922 59.5085L62.7531 57.3696L64.3512 56.6203Z" fill="url(#paint21_linear_970_1789)"/>
</g>
<mask id="mask19_970_1789" style="mask-type:luminance" maskUnits="userSpaceOnUse" x="61" y="54" width="4" height="4">
<path d="M62.924 54.8582C62.8988 54.8866 61.9617 57.2166 61.9617 57.2166L63.3037 57.7234L64.5198 55.6468C64.5198 55.6468 63.3466 54.383 62.924 54.8582Z" fill="white"/>
</mask>
<g mask="url(#mask19_970_1789)">
<path d="M62.924 54.8582C62.8987 54.8865 61.9617 57.2168 61.9617 57.2168L63.3034 57.7235L64.5196 55.647C64.5196 55.647 63.3463 54.3829 62.924 54.8582Z" fill="url(#paint22_linear_970_1789)"/>
</g>
<mask id="mask20_970_1789" style="mask-type:luminance" maskUnits="userSpaceOnUse" x="61" y="53" width="5" height="6">
<path d="M63.9621 55.9202L63.4075 57.0635C63.4005 57.0783 63.3915 57.0914 63.3808 57.1038C63.3146 57.1783 63.0681 57.4184 62.8379 57.1511C62.629 56.9088 62.4347 56.6904 62.2392 56.6329C62.1514 56.607 62.0585 56.6519 62.0243 56.7368C61.9391 56.9485 61.7562 57.4291 61.6611 57.8711C61.6417 57.9609 61.6951 58.0497 61.7826 58.0768C62.0468 58.1586 62.6084 58.3153 63.09 58.3354C63.1552 58.3381 63.2163 58.3056 63.2501 58.2498C63.4141 57.9769 63.9157 57.1499 64.0914 56.941C64.2558 56.745 64.6003 56.7896 64.7437 56.819C64.7905 56.8285 64.839 56.8185 64.8783 56.7911C65.0176 56.6943 65.2905 56.4381 64.9897 56.0607C64.9268 55.9818 64.9416 55.8673 65.0224 55.8069C65.1835 55.6864 65.3664 55.4612 65.1578 55.1328C64.9458 54.799 64.6149 54.8111 64.4075 54.8613C64.3235 54.8817 64.2393 54.8375 64.2039 54.7589C64.1835 54.7141 64.1438 54.6774 64.0676 54.6755C63.9647 54.6726 63.8888 54.5782 63.9021 54.4763C63.9279 54.2806 63.8856 54.0251 63.5574 53.8808C62.9752 53.6251 62.533 54.1656 62.4469 54.5964C62.3605 55.0272 63.0075 55.2689 63.4024 55.2837C63.7025 55.2948 63.8903 55.6148 63.963 55.7676C63.9861 55.8159 63.9856 55.8719 63.9621 55.9202Z" fill="white"/>
</mask>
<g mask="url(#mask20_970_1789)">
<path d="M63.962 55.9202L63.4075 57.0635C63.4005 57.0783 63.3916 57.0914 63.3807 57.1038C63.3144 57.1783 63.068 57.4185 62.8379 57.1511C62.6291 56.9088 62.4347 56.6904 62.2391 56.633C62.1514 56.607 62.0583 56.6519 62.0241 56.7368C61.9391 56.9486 61.756 57.4291 61.6609 57.8711C61.6415 57.9609 61.6951 58.0497 61.7828 58.0768C62.0466 58.1586 62.6085 58.3153 63.0897 58.3354C63.1553 58.3381 63.2162 58.3056 63.25 58.2498C63.4141 57.9769 63.9155 57.1499 64.0913 56.941C64.2558 56.745 64.6004 56.7897 64.7436 56.819C64.7905 56.8285 64.839 56.8185 64.8782 56.7911C65.0175 56.6943 65.2903 56.4382 64.9896 56.0607C64.9267 55.9818 64.9415 55.8673 65.0222 55.807C65.1832 55.6863 65.3664 55.4612 65.1576 55.1328C64.9458 54.799 64.6147 54.8111 64.4075 54.8615C64.3233 54.8817 64.2391 54.8374 64.2038 54.7591C64.1836 54.714 64.1437 54.6776 64.0676 54.6756C63.9648 54.6725 63.8887 54.5782 63.9019 54.4762C63.9279 54.2806 63.8856 54.0253 63.5573 53.8809C62.9752 53.6252 62.5329 54.1657 62.4467 54.5965C62.3606 55.0272 63.0074 55.2689 63.4025 55.2837C63.7024 55.2948 63.8903 55.6148 63.9628 55.7676C63.9861 55.8159 63.9857 55.872 63.962 55.9202Z" fill="url(#paint23_linear_970_1789)"/>
</g>
<mask id="mask21_970_1789" style="mask-type:luminance" maskUnits="userSpaceOnUse" x="63" y="56" width="2" height="2">
<path d="M63.8852 57.3551C63.8852 57.3551 64.0678 56.6109 64.3861 56.6094C64.7044 56.6077 64.9812 56.9005 64.6209 57.2892C64.1731 57.7726 63.8852 57.3551 63.8852 57.3551Z" fill="white"/>
</mask>
<g mask="url(#mask21_970_1789)">
<path d="M63.8852 57.355C63.8852 57.355 64.0682 56.6107 64.3864 56.6093C64.7046 56.6076 64.9812 56.9004 64.621 57.2891C64.1734 57.7725 63.8852 57.355 63.8852 57.355Z" fill="url(#paint24_linear_970_1789)"/>
</g>
<mask id="mask22_970_1789" style="mask-type:luminance" maskUnits="userSpaceOnUse" x="69" y="53" width="2" height="2">
<path d="M70.1027 53.626C70.1027 53.626 69.2942 53.268 69.3982 53.8686C69.5021 54.469 69.2849 54.9079 69.7459 54.9542C70.2065 55.0003 70.2592 54.0411 70.1027 53.626Z" fill="white"/>
</mask>
<g mask="url(#mask22_970_1789)">
<path d="M70.1028 53.6259C70.1028 53.6259 69.2942 53.2678 69.3984 53.8685C69.5021 54.4689 69.285 54.9077 69.746 54.9541C70.2066 55.0002 70.2593 54.041 70.1028 53.6259Z" fill="url(#paint25_linear_970_1789)"/>
</g>
<path d="M21.8968 26.3073C21.8885 26.2198 21.8812 26.1323 21.8751 26.0452C21.8652 25.9033 21.9722 25.7798 22.1142 25.7698H22.1192C22.1236 25.7694 22.128 25.7694 22.1324 25.7694C22.1991 25.7694 22.2605 25.7949 22.3067 25.8376C22.1663 25.9958 22.03 26.152 21.8968 26.3073Z" fill="#DEE8FD"/>
<mask id="mask23_970_1789" style="mask-type:luminance" maskUnits="userSpaceOnUse" x="21" y="25" width="2" height="3">
<path d="M22.2281 27.1365C22.1033 27.1365 21.9936 27.0457 21.9738 26.9186C21.9422 26.717 21.9164 26.5125 21.8968 26.3075C22.03 26.1523 22.1663 25.9958 22.3066 25.8374C22.3534 25.8806 22.3845 25.9408 22.3893 26.0092C22.4087 26.2864 22.4403 26.5657 22.483 26.8388C22.505 26.9795 22.4089 27.1115 22.2682 27.1333C22.2592 27.1348 22.2501 27.1357 22.2412 27.1362C22.2368 27.1365 22.2324 27.1365 22.2281 27.1365Z" fill="white"/>
</mask>
<g mask="url(#mask23_970_1789)">
<path d="M22.2282 27.1362C22.1034 27.1362 21.9937 27.0455 21.9738 26.9184C21.9422 26.7168 21.9165 26.5123 21.8969 26.3074C22.03 26.1523 22.1663 25.9959 22.3067 25.8374C22.3535 25.8805 22.3845 25.9407 22.3893 26.0088C22.4087 26.2865 22.4403 26.5654 22.483 26.8389C22.5051 26.9794 22.4089 27.1111 22.2683 27.1333C22.2592 27.1346 22.2502 27.1358 22.2413 27.1362C22.2368 27.1362 22.2325 27.1362 22.2282 27.1362Z" fill="url(#paint26_linear_970_1789)"/>
</g>
<path d="M22.1305 24.8932C22.1247 24.8932 22.1188 24.8932 22.1129 24.8927C21.9709 24.883 21.8634 24.7605 21.8729 24.618C21.8925 24.3264 21.9247 24.0329 21.9687 23.7451C21.9882 23.6173 22.0979 23.5262 22.2236 23.5262C22.2364 23.5262 22.2494 23.5272 22.2625 23.5291C22.4032 23.5509 22.4998 23.6822 22.4783 23.8231C22.4365 24.0963 22.4058 24.3754 22.3873 24.6529C22.3785 24.7842 22.2722 24.8864 22.1435 24.8927C22.1392 24.8932 22.1349 24.8932 22.1305 24.8932ZM22.5292 22.6843C22.5047 22.6843 22.4798 22.6809 22.4551 22.6731C22.3188 22.6325 22.2413 22.4886 22.2822 22.3525C22.366 22.073 22.463 21.7935 22.5705 21.5222C22.6107 21.4209 22.7078 21.3594 22.8104 21.3594C22.8419 21.3594 22.874 21.3652 22.9051 21.3773C23.0374 21.4301 23.1022 21.5798 23.0498 21.7121C22.9477 21.9698 22.8556 22.2347 22.776 22.5002C22.7439 22.6077 22.648 22.6785 22.5423 22.6838C22.5379 22.6843 22.5336 22.6843 22.5292 22.6843ZM23.412 20.6192C23.3688 20.6192 23.325 20.6086 23.2849 20.5858C23.1611 20.5156 23.1178 20.3581 23.1881 20.2341C23.3324 19.9803 23.4894 19.7299 23.6547 19.4891C23.7047 19.4169 23.7854 19.3777 23.8674 19.3777C23.9177 19.3777 23.9685 19.3922 24.0132 19.4232C24.1304 19.5036 24.1601 19.664 24.0795 19.7812C23.9225 20.0099 23.7733 20.2477 23.6363 20.4889C23.591 20.5684 23.5101 20.6149 23.425 20.6192C23.4207 20.6192 23.4163 20.6192 23.412 20.6192ZM24.7329 18.8032C24.6708 18.8032 24.6085 18.7809 24.5591 18.7359C24.454 18.6399 24.4467 18.4767 24.5428 18.3716C24.7393 18.157 24.9478 17.9472 25.1625 17.7491C25.212 17.7031 25.2748 17.6803 25.3373 17.6803C25.4067 17.6803 25.4759 17.7084 25.5267 17.7632C25.6232 17.8678 25.6168 18.031 25.5122 18.1274C25.3081 18.3159 25.11 18.5155 24.9232 18.7194C24.8756 18.7717 24.8114 18.7998 24.7461 18.8032C24.7417 18.8032 24.7373 18.8032 24.7329 18.8032ZM26.4228 17.3248C26.3411 17.3248 26.261 17.2865 26.2108 17.2143C26.1296 17.0971 26.1585 16.9368 26.2753 16.8554C26.515 16.6892 26.7646 16.5308 27.0177 16.385C27.0582 16.3618 27.1023 16.3506 27.146 16.3506C27.2353 16.3506 27.3218 16.3971 27.3696 16.48C27.4407 16.6035 27.3983 16.7609 27.2748 16.8321C27.0344 16.9702 26.7971 17.1208 26.5696 17.2788C26.5286 17.3073 26.4822 17.3224 26.4359 17.3248C26.4315 17.3248 26.4272 17.3248 26.4228 17.3248ZM28.397 16.2586C28.2949 16.2586 28.1983 16.1976 28.1578 16.0968C28.1047 15.965 28.1685 15.8149 28.3004 15.7616C28.5712 15.6526 28.8499 15.5538 29.1289 15.4685C29.1539 15.4608 29.1791 15.4574 29.2039 15.4574C29.3145 15.4574 29.4166 15.5281 29.4508 15.6395C29.4923 15.7756 29.4159 15.9195 29.2798 15.9616C29.0146 16.0425 28.7502 16.136 28.4931 16.2397C28.4659 16.2504 28.4378 16.2567 28.4101 16.2581C28.4057 16.2581 28.4014 16.2586 28.397 16.2586ZM35.8238 16.2315C35.7923 16.2315 35.7605 16.2257 35.7295 16.2135C35.4718 16.1118 35.2062 16.0203 34.9403 15.9408C34.8038 15.9001 34.7261 15.7567 34.7669 15.6206C34.8001 15.5087 34.9027 15.4361 35.0136 15.4361C35.0381 15.4361 35.0628 15.4395 35.0873 15.4467C35.3675 15.5305 35.6472 15.6269 35.9184 15.734C36.0509 15.7858 36.1159 15.936 36.0638 16.0682C36.0254 16.1651 35.9347 16.2261 35.8369 16.231C35.8326 16.2315 35.8282 16.2315 35.8238 16.2315ZM30.5597 15.6594C30.4352 15.6594 30.3256 15.5693 30.3054 15.4424C30.2831 15.3014 30.3792 15.1696 30.5197 15.1474C30.8076 15.1013 31.1011 15.0679 31.3927 15.0471L31.398 15.0466C31.4027 15.0461 31.407 15.0461 31.4114 15.0461C31.5453 15.0461 31.6584 15.1498 31.6683 15.2854C31.6785 15.4273 31.5717 15.5509 31.4296 15.561C31.1528 15.5809 30.8738 15.6129 30.6004 15.6565C30.5912 15.6579 30.582 15.6589 30.5728 15.6594C30.5684 15.6594 30.564 15.6594 30.5597 15.6594ZM33.6551 15.6487C33.6425 15.6487 33.6296 15.6478 33.6168 15.6458C33.3429 15.6042 33.0634 15.5741 32.7864 15.5562C32.6442 15.547 32.5368 15.4244 32.546 15.2825C32.5549 15.1464 32.6675 15.0413 32.8019 15.0413C32.8078 15.0413 32.8138 15.0413 32.8199 15.0418C33.1114 15.0611 33.4055 15.0926 33.6936 15.1357C33.8344 15.157 33.9314 15.2888 33.91 15.4293C33.8916 15.5523 33.7885 15.6419 33.6687 15.6482C33.6641 15.6482 33.6597 15.6487 33.6551 15.6487Z" fill="#DEE8FD"/>
<mask id="mask24_970_1789" style="mask-type:luminance" maskUnits="userSpaceOnUse" x="36" y="16" width="2" height="2">
<path d="M37.4404 17.045C37.3938 17.045 37.3468 17.0324 37.3046 17.0062C37.1918 16.9359 37.0756 16.867 36.9594 16.8008C36.8354 16.7307 36.792 16.5732 36.8623 16.4495C36.9096 16.3658 36.997 16.3187 37.0867 16.3187C37.1297 16.3187 37.1736 16.3297 37.2136 16.3527C37.3359 16.4218 37.4581 16.4946 37.5767 16.5684C37.6978 16.6436 37.7347 16.8027 37.6595 16.9235C37.6131 16.998 37.535 17.0404 37.4535 17.0448C37.4491 17.0448 37.4448 17.045 37.4404 17.045Z" fill="white"/>
</mask>
<g mask="url(#mask24_970_1789)">
<path d="M37.4404 17.0452C37.3938 17.0452 37.3467 17.0328 37.3045 17.0061C37.1917 16.936 37.0756 16.8669 36.9593 16.8007C36.8354 16.7306 36.7919 16.5734 36.8623 16.4495C36.9096 16.3661 36.9969 16.3189 37.0867 16.3189C37.1296 16.3189 37.1735 16.3298 37.2136 16.3527C37.3358 16.4218 37.4581 16.4947 37.5767 16.5686C37.6978 16.6439 37.7347 16.8026 37.6595 16.9236C37.6131 16.998 37.535 17.0404 37.4535 17.0447C37.4491 17.0452 37.4448 17.0452 37.4404 17.0452Z" fill="url(#paint27_linear_970_1789)"/>
</g>
<path d="M41.9605 23.4728C41.8414 23.4728 41.7344 23.3899 41.7087 23.2685C41.6811 23.1388 41.6502 23.0073 41.617 22.8776C41.5816 22.7399 41.6648 22.5992 41.8026 22.5642C41.8242 22.5585 41.8458 22.5558 41.8671 22.5558C41.9821 22.5558 42.0864 22.6334 42.1163 22.7496C42.1512 22.8859 42.1837 23.0244 42.2128 23.1616C42.2424 23.3005 42.1536 23.4373 42.0144 23.4671C42.0008 23.4701 41.9872 23.4719 41.9736 23.4723C41.9692 23.4728 41.9649 23.4728 41.9605 23.4728Z" fill="#DEE8FD"/>
<mask id="mask25_970_1789" style="mask-type:luminance" maskUnits="userSpaceOnUse" x="29" y="34" width="7" height="2">
<path d="M32.3167 35.6072C32.1762 35.6072 32.0613 35.4946 32.0588 35.3539C32.0564 35.2115 32.1704 35.0936 32.3121 35.0917C32.5879 35.0868 32.863 35.0711 33.1325 35.0439C33.1413 35.0429 33.1498 35.0427 33.1582 35.0427C33.2895 35.0427 33.4016 35.1417 33.4149 35.2746C33.429 35.4163 33.3256 35.5427 33.184 35.5567C33.0173 35.5737 32.847 35.5863 32.6779 35.595C32.5595 35.6011 32.4407 35.605 32.3211 35.6072C32.3196 35.6072 32.3182 35.6072 32.3167 35.6072ZM30.949 35.5378C30.9388 35.5378 30.9286 35.5373 30.9182 35.5361C30.6327 35.5021 30.3454 35.4558 30.0643 35.3981C29.925 35.3694 29.835 35.2331 29.8637 35.0939C29.8886 34.9721 29.9961 34.8877 30.1155 34.8877C30.1329 34.8877 30.1504 34.8896 30.1679 34.8932C30.435 34.9478 30.7079 34.992 30.9791 35.0242C31.1205 35.041 31.2214 35.1693 31.2047 35.3105C31.1896 35.4371 31.0853 35.5312 30.9621 35.5376C30.9577 35.5378 30.9534 35.5378 30.949 35.5378ZM34.3734 35.2904C34.3173 35.2562 34.2744 35.2004 34.2577 35.1312C34.2242 34.9929 34.3093 34.8537 34.4476 34.8202C34.7123 34.7564 34.9779 34.6803 35.237 34.5939C35.2639 34.5849 35.2913 34.5805 35.3185 34.5805C35.4041 34.5805 35.4851 34.6235 35.5329 34.695C35.1368 34.8775 34.7503 35.0759 34.3734 35.2904Z" fill="white"/>
</mask>
<g mask="url(#mask25_970_1789)">
<path d="M32.3167 35.6071C32.1763 35.6071 32.0613 35.4944 32.0588 35.3541C32.0564 35.2115 32.1704 35.0934 32.3121 35.0916C32.5879 35.0869 32.863 35.0712 33.1326 35.0438C33.1413 35.0428 33.1498 35.0428 33.1582 35.0428C33.2895 35.0428 33.4016 35.1415 33.4149 35.2746C33.429 35.4164 33.3256 35.5425 33.184 35.5568C33.0173 35.5735 32.847 35.5863 32.6779 35.595C32.5595 35.6012 32.4407 35.6049 32.3211 35.6071C32.3196 35.6071 32.3182 35.6071 32.3167 35.6071ZM30.949 35.5378C30.9388 35.5378 30.9286 35.5374 30.9182 35.536C30.6327 35.5021 30.3454 35.4558 30.0643 35.3982C29.925 35.3694 29.8351 35.233 29.8637 35.0938C29.8886 34.972 29.9961 34.8875 30.1155 34.8875C30.133 34.8875 30.1504 34.8896 30.1679 34.8933C30.435 34.948 30.7079 34.9921 30.9791 35.0242C31.1205 35.0409 31.2214 35.1692 31.2047 35.3103C31.1896 35.4372 31.0853 35.5312 30.9621 35.5374C30.9577 35.5378 30.9534 35.5378 30.949 35.5378ZM34.3734 35.2903C34.3173 35.256 34.2744 35.2002 34.2577 35.1313C34.2242 34.9928 34.3093 34.8536 34.4476 34.82C34.7123 34.7562 34.9779 34.68 35.237 34.594C35.2639 34.5849 35.2913 34.5805 35.3185 34.5805C35.4041 34.5805 35.4852 34.6235 35.533 34.695C35.1368 34.8776 34.7504 35.0759 34.3734 35.2903Z" fill="url(#paint28_linear_970_1789)"/>
</g>
<path d="M34.5079 35.3286C34.4597 35.3286 34.4131 35.3152 34.3733 35.2904C34.7503 35.0761 35.1367 34.8775 35.5329 34.6952C35.5452 34.7137 35.5554 34.7348 35.563 34.757C35.6078 34.892 35.5348 35.0379 35.3999 35.083C35.127 35.174 34.8473 35.254 34.5686 35.3217C34.5526 35.3253 34.5368 35.3275 34.5208 35.3283C34.5167 35.3286 34.5123 35.3286 34.5079 35.3286Z" fill="#DEE8FD"/>
<mask id="mask26_970_1789" style="mask-type:luminance" maskUnits="userSpaceOnUse" x="27" y="33" width="11" height="3">
<path d="M28.7968 35.0369C28.7681 35.0369 28.739 35.032 28.7106 35.0221C28.4399 34.9262 28.1697 34.8176 27.9082 34.6994C27.7784 34.641 27.7206 34.4881 27.7793 34.3586C27.8223 34.2633 27.9162 34.2067 28.0142 34.2067C28.0498 34.2067 28.0857 34.2143 28.1204 34.2298C28.3688 34.3421 28.6252 34.445 28.8824 34.5359C29.0168 34.5835 29.0869 34.7307 29.0396 34.8649C29.0037 34.9663 28.9108 35.0313 28.8096 35.0364C28.8052 35.0366 28.8011 35.0369 28.7968 35.0369ZM36.3286 34.3559C36.3124 34.2482 36.3665 34.1376 36.4696 34.0867C36.7136 33.9661 36.9557 33.8334 37.1898 33.6922C37.2313 33.6672 37.2774 33.6551 37.3227 33.6551C37.4101 33.6551 37.4952 33.6995 37.5435 33.7798C37.5712 33.8256 37.583 33.8768 37.5804 33.9265C37.1549 34.052 36.7376 34.1953 36.3286 34.3559Z" fill="white"/>
</mask>
<g mask="url(#mask26_970_1789)">
<path d="M28.7967 35.0369C28.7681 35.0369 28.7389 35.0321 28.7106 35.0221C28.4398 34.9265 28.1696 34.8177 27.9081 34.6996C27.7783 34.6411 27.7205 34.4882 27.7793 34.3586C27.8222 34.2635 27.9161 34.2068 28.0141 34.2068C28.0497 34.2068 28.0857 34.2143 28.1203 34.2298C28.3688 34.3423 28.6252 34.4453 28.8823 34.536C29.0167 34.5837 29.0868 34.7307 29.0395 34.8651C29.0036 34.9665 28.9107 35.0313 28.8095 35.0365C28.8052 35.0369 28.8011 35.0369 28.7967 35.0369ZM36.3285 34.356C36.3123 34.2483 36.3664 34.1376 36.4695 34.0869C36.7135 33.9662 36.9556 33.8337 37.1897 33.6922C37.2312 33.6674 37.2773 33.6552 37.3227 33.6552C37.41 33.6552 37.4951 33.6997 37.5434 33.78C37.571 33.8259 37.583 33.877 37.5803 33.9266C37.1548 34.0521 36.7375 34.1954 36.3285 34.356Z" fill="url(#paint29_linear_970_1789)"/>
</g>
<path d="M36.5838 34.5754C36.4887 34.5754 36.3975 34.5227 36.3527 34.4317C36.3405 34.4074 36.3325 34.3816 36.3286 34.3558C36.7377 34.1951 37.1549 34.0517 37.5804 33.9264C37.5758 34.009 37.5321 34.0875 37.456 34.1332C37.2097 34.2821 36.9548 34.4218 36.6979 34.5485C36.6653 34.5648 36.6309 34.5732 36.5969 34.5751C36.5926 34.5754 36.5882 34.5754 36.5838 34.5754Z" fill="#DEE8FD"/>
<mask id="mask27_970_1789" style="mask-type:luminance" maskUnits="userSpaceOnUse" x="38" y="25" width="5" height="9">
<path d="M38.4442 33.3853C38.369 33.3853 38.2943 33.3525 38.2434 33.2894C38.1541 33.1786 38.1713 33.0163 38.2822 32.927C38.4945 32.7555 38.7021 32.5731 38.8993 32.3848C38.9491 32.337 39.0131 32.3133 39.0771 32.3133C39.1451 32.3133 39.213 32.3399 39.2637 32.3931C39.3619 32.4959 39.3583 32.6589 39.2555 32.7574C39.0478 32.9556 38.8295 33.1475 38.6058 33.328C38.5619 33.3634 38.5097 33.3821 38.4573 33.3848C38.453 33.385 38.4486 33.3853 38.4442 33.3853ZM40.0009 31.8176C39.9446 31.8176 39.8879 31.7992 39.8406 31.7616C39.7292 31.6731 39.7108 31.5108 39.7993 31.3994C39.9694 31.1857 40.1324 30.9623 40.2838 30.7357C40.3333 30.6612 40.415 30.621 40.4982 30.621C40.5475 30.621 40.5972 30.635 40.6411 30.6644C40.7595 30.7435 40.7915 30.9036 40.7124 31.022C40.5533 31.2604 40.3818 31.4955 40.2028 31.7204C40.1547 31.7805 40.0853 31.8138 40.014 31.8174C40.0097 31.8176 40.0053 31.8176 40.0009 31.8176ZM41.1787 29.948C41.1408 29.948 41.1025 29.9398 41.0664 29.9221C40.9383 29.86 40.8849 29.7059 40.947 29.5778C41.0661 29.3321 41.1763 29.0786 41.274 28.8241C41.3133 28.7217 41.4113 28.6589 41.5147 28.6589C41.5455 28.6589 41.5768 28.6645 41.6071 28.6761C41.74 28.7271 41.8063 28.8763 41.7551 29.0092C41.6522 29.277 41.5363 29.5441 41.4106 29.8027C41.3682 29.8903 41.2825 29.9432 41.1918 29.9478C41.1874 29.948 41.1831 29.948 41.1787 29.948ZM41.9176 27.8647C41.8982 27.8647 41.8786 27.8625 41.8587 27.8579C41.7201 27.8254 41.634 27.6869 41.6663 27.5483C41.7282 27.2829 41.7798 27.0115 41.8191 26.7415C41.8378 26.6132 41.9484 26.521 42.0741 26.521C42.0865 26.521 42.0988 26.522 42.1114 26.5237C42.2524 26.5443 42.3499 26.6753 42.3293 26.816C42.2876 27.1005 42.2335 27.3863 42.1682 27.6655C42.1415 27.7798 42.0423 27.8586 41.9305 27.8644C41.9263 27.8647 41.922 27.8647 41.9176 27.8647ZM42.1794 25.6714C42.1786 25.6714 42.1782 25.6714 42.1774 25.6714C42.0498 25.67 41.9448 25.5761 41.9254 25.4543C42.0947 25.4546 42.265 25.4567 42.4334 25.4606C42.4122 25.5766 42.3135 25.6649 42.1934 25.671C42.1888 25.6712 42.184 25.6714 42.1794 25.6714Z" fill="white"/>
</mask>
<g mask="url(#mask27_970_1789)">
<path d="M38.4442 33.3854C38.3691 33.3854 38.2943 33.3526 38.2434 33.2895C38.1541 33.1785 38.1714 33.0162 38.2822 32.927C38.4945 32.7554 38.7021 32.5729 38.8993 32.3849C38.9491 32.337 39.0131 32.3135 39.0772 32.3135C39.1451 32.3135 39.213 32.3399 39.2637 32.3929C39.362 32.496 39.3583 32.6591 39.2555 32.7575C39.0478 32.9556 38.8295 33.1474 38.6058 33.3282C38.5619 33.3635 38.5098 33.382 38.4574 33.385C38.453 33.385 38.4486 33.3854 38.4442 33.3854ZM40.0009 31.8177C39.9447 31.8177 39.8879 31.7992 39.8406 31.7617C39.7292 31.673 39.7108 31.5107 39.7994 31.3996C39.9694 31.1856 40.1325 30.9623 40.2838 30.7356C40.3333 30.6612 40.415 30.6208 40.4983 30.6208C40.5475 30.6208 40.5972 30.6351 40.6411 30.6646C40.7595 30.7436 40.7915 30.9034 40.7125 31.022C40.5533 31.2605 40.3818 31.4955 40.2028 31.7205C40.1547 31.7806 40.0854 31.8139 40.014 31.8172C40.0097 31.8177 40.0053 31.8177 40.0009 31.8177ZM41.1787 29.948C41.1409 29.948 41.1026 29.94 41.0664 29.9219C40.9383 29.8601 40.8849 29.7058 40.9471 29.5779C41.0661 29.3319 41.1763 29.0788 41.2741 28.8239C41.3134 28.7217 41.4114 28.6591 41.5147 28.6591C41.5455 28.6591 41.5768 28.6645 41.6071 28.6763C41.7401 28.7272 41.8063 28.8765 41.7551 29.0094C41.6522 29.2773 41.5363 29.5443 41.4106 29.8029C41.3682 29.8904 41.2825 29.9434 41.1918 29.948C41.1875 29.948 41.1831 29.948 41.1787 29.948ZM41.9176 27.8647C41.8982 27.8647 41.8786 27.8626 41.8587 27.858C41.7202 27.8256 41.6341 27.6868 41.6663 27.5485C41.7282 27.2831 41.7799 27.0115 41.8191 26.7415C41.8378 26.6132 41.9484 26.5211 42.0741 26.5211C42.0865 26.5211 42.0989 26.522 42.1114 26.5236C42.2524 26.5443 42.3499 26.675 42.3293 26.8159C42.2876 27.1006 42.2335 27.3861 42.1682 27.6654C42.1416 27.7798 42.0423 27.8588 41.9305 27.8643C41.9264 27.8647 41.922 27.8647 41.9176 27.8647ZM42.1794 25.6712C42.1786 25.6712 42.1782 25.6712 42.1775 25.6712C42.0498 25.67 41.9448 25.5762 41.9254 25.4542C42.0948 25.4547 42.265 25.4568 42.4334 25.4606C42.4123 25.5766 42.3135 25.6649 42.1934 25.6712C42.1889 25.6712 42.184 25.6712 42.1794 25.6712Z" fill="url(#paint30_linear_970_1789)"/>
</g>
<path d="M42.4335 25.4606C42.2651 25.4567 42.0948 25.4546 41.9255 25.4542C41.9233 25.44 41.9223 25.4255 41.9226 25.411C41.9245 25.21 41.9204 25.0065 41.9102 24.8065C41.9063 24.7338 41.902 24.6615 41.8966 24.5897C41.8864 24.4473 41.9929 24.3242 42.1351 24.3139C42.1428 24.3131 42.1506 24.3127 42.1584 24.3127C42.2916 24.3127 42.401 24.4178 42.4107 24.5521C42.4162 24.6277 42.4211 24.7038 42.425 24.7799C42.4356 24.9907 42.44 25.2049 42.4378 25.4161C42.4376 25.4311 42.4362 25.446 42.4335 25.4606Z" fill="#DEE8FD"/>
<mask id="mask28_970_1789" style="mask-type:luminance" maskUnits="userSpaceOnUse" x="26" y="33" width="2" height="2">
<path d="M26.802 34.0706C26.7549 34.0706 26.7076 34.0577 26.6649 34.031C26.5468 33.9565 26.4281 33.8784 26.3119 33.7984C26.1947 33.7178 26.1651 33.5572 26.2457 33.4401C26.2957 33.3673 26.3765 33.3282 26.4582 33.3282C26.5087 33.3282 26.5596 33.343 26.6042 33.3738C26.7146 33.4498 26.8274 33.524 26.9395 33.5946C27.0598 33.6703 27.0962 33.8294 27.0203 33.95C26.974 34.0237 26.8961 34.0659 26.8151 34.0701C26.8107 34.0703 26.8063 34.0706 26.802 34.0706Z" fill="white"/>
</mask>
<g mask="url(#mask28_970_1789)">
<path d="M26.802 34.0703C26.7549 34.0703 26.7076 34.0577 26.6649 34.0309C26.5468 33.9564 26.4281 33.8782 26.312 33.7982C26.1947 33.7178 26.1651 33.557 26.2458 33.4398C26.2957 33.3672 26.3765 33.3281 26.4582 33.3281C26.5087 33.3281 26.5597 33.343 26.6043 33.3739C26.7146 33.4498 26.8275 33.5239 26.9395 33.5946C27.0598 33.6702 27.0962 33.8291 27.0203 33.9497C26.974 34.0238 26.8961 34.0658 26.8151 34.0699C26.8107 34.0703 26.8064 34.0703 26.802 34.0703Z" fill="url(#paint31_linear_970_1789)"/>
</g>
<path d="M27.0104 31.067C27.0448 31.105 27.0996 31.1172 27.1469 31.097L28.4955 30.5215C29.0585 30.9111 29.6876 31.2139 30.3649 31.4088L30.7726 32.8158C30.7867 32.8651 30.8309 32.9003 30.8823 32.9026L32.6387 32.9904C32.6901 32.9932 32.7374 32.9627 32.7565 32.9153L33.3029 31.5557C33.9959 31.4294 34.6524 31.1914 35.2513 30.86L36.5356 31.567C36.5807 31.5919 36.6365 31.5853 36.6746 31.551L37.9787 30.3712C38.0168 30.3365 38.0289 30.282 38.0088 30.2346L37.4334 28.8858C37.823 28.3229 38.1257 27.6939 38.3206 27.0164L39.7278 26.6089C39.7771 26.5944 39.812 26.5507 39.8147 26.4991L39.9024 24.7428C39.9051 24.6916 39.8748 24.6442 39.827 24.6249L38.4676 24.0785C38.3414 23.3855 38.1032 22.7292 37.7718 22.1302L38.479 20.8457C38.5037 20.8006 38.4972 20.7447 38.4627 20.7067L37.283 19.4025C37.2485 19.3645 37.1937 19.3523 37.1464 19.3725L35.7979 19.9481C35.2348 19.5584 34.6058 19.2556 33.9285 19.0608L33.5207 17.6537C33.5064 17.6045 33.4625 17.5692 33.411 17.5669L31.6547 17.4791C31.6033 17.4763 31.556 17.5063 31.5368 17.5542L30.9905 18.9138C30.2974 19.0401 29.641 19.2781 29.0418 19.6096L27.7575 18.9025C27.7126 18.8777 27.6569 18.8842 27.6188 18.9185L26.3146 20.0983C26.2765 20.133 26.2644 20.188 26.2846 20.2349L26.8599 21.5837C26.4704 22.1466 26.1677 22.7757 25.9728 23.4527L24.5655 23.8606C24.5162 23.8747 24.4813 23.9188 24.4787 23.9705L24.3908 25.7268C24.3882 25.7779 24.4185 25.8254 24.4662 25.8446L25.8257 26.3911C25.9519 27.084 26.1901 27.7403 26.5215 28.3394L25.8143 29.6238C25.7895 29.6689 25.7961 29.7248 25.8305 29.7628L27.0104 31.067Z" fill="#91B3FA"/>
<path d="M32.0804 23.8808C32.0139 23.8843 31.9475 23.8925 31.881 23.9059C31.1481 24.0523 30.6712 24.7677 30.8175 25.5005C30.964 26.2333 31.6792 26.7105 32.4123 26.5641C33.1451 26.4173 33.6221 25.7019 33.4758 24.9691C33.4047 24.6144 33.1997 24.3082 32.8987 24.1073C32.6539 23.944 32.3691 23.8661 32.0804 23.8808ZM32.2354 27.0007C31.375 27.0444 30.587 26.4507 30.4131 25.5815C30.2222 24.6252 30.8444 23.6924 31.8002 23.5014C32.2633 23.4087 32.7347 23.5023 33.1274 23.7643C33.5202 24.0259 33.7875 24.4252 33.8802 24.8886C34.0711 25.8444 33.4489 26.7772 32.4931 26.9682C32.4069 26.9855 32.3208 26.9959 32.2354 27.0007Z" fill="#BDD0FB"/>
<path d="M32.4014 29.5484C32.2537 29.5556 32.1047 29.5556 31.9548 29.5484C31.9077 29.5462 31.8607 29.543 31.8134 29.539C31.5815 29.5201 31.3512 29.4824 31.1264 29.4271C31.1235 29.4262 31.1203 29.4258 31.1171 29.4249C31.1087 29.4226 31.0999 29.4204 31.0912 29.4181C31.0742 29.4141 31.0575 29.4091 31.0407 29.4051C30.9963 29.3929 30.9667 29.3543 30.9643 29.3107C30.9639 29.3004 30.9651 29.2891 30.9677 29.2788C30.9825 29.2235 31.0393 29.1912 31.0941 29.206C31.377 29.2819 31.67 29.3278 31.965 29.3422C33.4305 29.4163 34.7584 28.7143 35.5507 27.5989C35.9917 26.9783 36.2666 26.2296 36.3073 25.4143C36.3146 25.2714 36.3146 25.1294 36.3073 24.9883C36.2588 24.0396 35.8887 23.1439 35.2426 22.4298C34.5008 21.6096 33.4839 21.1274 32.3794 21.0721C30.0983 20.958 28.1513 22.7201 28.037 25.0004C28.03 25.1406 28.0302 25.2813 28.0373 25.4211C28.0683 26.026 28.2313 26.6178 28.5169 27.1531C28.5241 27.1666 28.528 27.1814 28.5287 27.1962C28.5307 27.2349 28.5108 27.2731 28.4744 27.2924C28.4239 27.3189 28.3616 27.3005 28.3347 27.2497C28.0351 26.688 27.8638 26.0669 27.8313 25.4314C27.8238 25.2849 27.8238 25.1375 27.8311 24.9901C27.9509 22.5961 29.9966 20.7463 32.3898 20.8663C33.5493 20.9243 34.6167 21.4303 35.3957 22.2914C36.0737 23.041 36.4624 23.9812 36.5133 24.9775C36.5208 25.1254 36.5208 25.2746 36.5135 25.4247C36.4553 26.5841 35.9493 27.6519 35.0881 28.4308C34.3385 29.1089 33.3977 29.4972 32.4014 29.5484Z" fill="#BDD0FB"/>
<path d="M13.7948 34.3671C13.7291 34.3671 13.6676 34.326 13.6446 34.2605C13.6 34.1331 13.5586 34.0021 13.5217 33.8722C13.4977 33.7874 13.5468 33.6997 13.6314 33.6753C13.646 33.6712 13.6607 33.6694 13.6752 33.6694C13.7445 33.6694 13.8081 33.7153 13.828 33.7852C13.8632 33.9092 13.9026 34.0336 13.9452 34.1554C13.9742 34.2383 13.9304 34.3293 13.8475 34.3582C13.8327 34.3634 13.8178 34.366 13.8029 34.3667C13.8002 34.3671 13.7975 34.3671 13.7948 34.3671Z" fill="#DEE8FD"/>
<path d="M13.4984 33.1794C13.4211 33.1794 13.3533 33.1228 13.3412 33.0442C13.3058 32.8143 13.2819 32.5798 13.2701 32.3478C13.2676 32.2987 13.2656 32.2497 13.2641 32.2003C13.2616 32.1124 13.3355 32.0422 13.4185 32.0363C13.4201 32.0363 13.4217 32.0363 13.4233 32.0363C13.509 32.0363 13.5797 32.1043 13.5824 32.1906C13.5838 32.2375 13.5856 32.2848 13.588 32.3313C13.5993 32.5531 13.6221 32.7763 13.6558 32.996C13.6692 33.0827 13.6096 33.1642 13.5227 33.1773C13.5172 33.1782 13.5118 33.179 13.5064 33.179C13.5037 33.179 13.501 33.1794 13.4984 33.1794ZM13.4485 31.5271C13.4438 31.5271 13.4391 31.5271 13.4344 31.5266C13.3468 31.5182 13.2824 31.4409 13.2904 31.3534C13.3163 31.0723 13.3598 30.7905 13.4198 30.5162C13.4361 30.4414 13.5024 30.3907 13.5755 30.3907C13.5867 30.3907 13.598 30.392 13.6093 30.3945C13.6952 30.4131 13.7496 30.498 13.7309 30.5838C13.6736 30.8458 13.6321 31.1146 13.6074 31.3825C13.6 31.4624 13.5351 31.5228 13.4573 31.5271C13.4544 31.5271 13.4514 31.5271 13.4485 31.5271ZM13.8023 29.9123C13.7847 29.9123 13.7667 29.9098 13.7491 29.9034C13.6663 29.8743 13.6228 29.783 13.6521 29.7002C13.7459 29.4348 13.8574 29.1719 13.9836 28.9196C14.0114 28.8638 14.0675 28.8317 14.1258 28.8317C14.1498 28.8317 14.1742 28.8372 14.1971 28.8486C14.2757 28.8879 14.3076 28.9834 14.2683 29.062C14.1481 29.3025 14.0417 29.5531 13.9523 29.8062C13.9301 29.8688 13.8727 29.9089 13.8102 29.9123C13.8076 29.9123 13.8049 29.9123 13.8023 29.9123ZM14.5413 28.434C14.5109 28.434 14.4804 28.4252 14.4532 28.4074C14.3801 28.3584 14.3601 28.2595 14.4089 28.1864C14.5653 27.9514 14.7375 27.7245 14.921 27.5111C14.9525 27.4747 14.997 27.4557 15.0417 27.4557C15.0785 27.4557 15.1155 27.4684 15.1455 27.4942C15.2122 27.5516 15.2197 27.6522 15.1623 27.719C14.9874 27.9223 14.823 28.1391 14.6739 28.3626C14.6449 28.4066 14.598 28.4311 14.5494 28.4336C14.5467 28.4336 14.5439 28.434 14.5413 28.434ZM15.619 27.1806C15.5757 27.1806 15.5326 27.1633 15.5011 27.1286C15.4421 27.0635 15.4469 26.963 15.5119 26.9038C15.7205 26.714 15.9426 26.5357 16.1724 26.3734C16.2003 26.3536 16.2324 26.3438 16.2642 26.3438C16.3142 26.3438 16.3633 26.3675 16.3943 26.4115C16.445 26.4833 16.428 26.5826 16.3562 26.6333C16.137 26.788 15.9251 26.9583 15.7261 27.1392C15.6977 27.165 15.6627 27.1785 15.6272 27.1806C15.6245 27.1806 15.6218 27.1806 15.619 27.1806ZM16.9682 26.2272C16.9115 26.2272 16.8565 26.1968 16.8278 26.1431C16.7863 26.0658 16.8155 25.9694 16.8929 25.9276C17.1412 25.7945 17.4002 25.6757 17.6627 25.5743C17.6815 25.5671 17.7009 25.5637 17.7199 25.5637C17.7839 25.5637 17.8441 25.6026 17.8685 25.666C17.9002 25.7476 17.8592 25.8401 17.7773 25.8714C17.527 25.9682 17.2801 26.0814 17.0434 26.2082C17.022 26.2196 16.9991 26.2259 16.9763 26.2268C16.9736 26.2272 16.9709 26.2272 16.9682 26.2272ZM18.5092 25.6326C18.4377 25.6326 18.3728 25.5844 18.3548 25.5122C18.3336 25.4268 18.3855 25.3402 18.4708 25.319C18.7434 25.251 19.0237 25.1994 19.3042 25.1652C19.31 25.1648 19.3159 25.1644 19.3216 25.1644C19.4021 25.1644 19.4716 25.2227 19.4814 25.3042C19.492 25.3917 19.4298 25.4707 19.3425 25.4817C19.075 25.5139 18.8076 25.5633 18.5477 25.628C18.5375 25.6305 18.5273 25.6318 18.5172 25.6326C18.5145 25.6326 18.5118 25.6326 18.5092 25.6326ZM20.9764 25.4868C20.9698 25.4868 20.9631 25.4864 20.9564 25.4855C20.7262 25.4564 20.4903 25.4399 20.2552 25.4357C20.2214 25.4348 20.1882 25.4344 20.1551 25.4344C20.1533 25.4344 20.1516 25.4344 20.1498 25.4344C20.0618 25.434 19.9907 25.363 19.9908 25.2751C19.9907 25.1884 20.0601 25.1158 20.1454 25.1158C20.147 25.1158 20.1485 25.1158 20.1501 25.1158C20.1873 25.1162 20.2244 25.1162 20.2617 25.117C20.5073 25.1217 20.7546 25.139 20.9961 25.1694C21.0834 25.1804 21.1451 25.2599 21.1342 25.3473C21.1245 25.4251 21.0602 25.4826 20.9845 25.4864C20.9818 25.4864 20.9791 25.4868 20.9764 25.4868Z" fill="#DEE8FD"/>
<path d="M19.6614 38.8499C19.4133 38.8328 19.1643 38.8021 18.9201 38.7588C18.8335 38.7432 18.7758 38.6607 18.7913 38.5741C18.805 38.4967 18.8726 38.4429 18.9482 38.4429C18.9574 38.4429 18.9666 38.4436 18.9759 38.4453C19.2361 38.4916 19.5019 38.5223 19.7659 38.5376C19.7771 38.538 19.788 38.54 19.7984 38.5428C19.7521 38.6443 19.7063 38.7473 19.6614 38.8499Z" fill="#DEE8FD"/>
<path d="M19.7573 38.8556C19.7543 38.8556 19.7512 38.8556 19.748 38.8553C19.7192 38.8536 19.6903 38.8518 19.6614 38.8498C19.7063 38.7471 19.7521 38.6443 19.7984 38.5426C19.8696 38.5616 19.9202 38.6287 19.9159 38.7052C19.9113 38.7872 19.8455 38.8512 19.7653 38.8553C19.7626 38.8556 19.76 38.8556 19.7573 38.8556Z" fill="#DEE8FD"/>
<mask id="mask29_970_1789" style="mask-type:luminance" maskUnits="userSpaceOnUse" x="20" y="38" width="2" height="1">
<path d="M20.9437 38.8195C20.997 38.705 21.0517 38.5902 21.1069 38.4767C21.1884 38.4645 21.2696 38.451 21.3502 38.4359C21.3597 38.4342 21.3692 38.4335 21.3785 38.4335C21.4539 38.4335 21.5216 38.4861 21.5359 38.563C21.5521 38.6496 21.4951 38.7326 21.4087 38.7489C21.2553 38.7775 21.0998 38.801 20.9437 38.8195Z" fill="white"/>
</mask>
<g mask="url(#mask29_970_1789)">
<path d="M20.9437 38.8193C20.9971 38.7048 21.0518 38.5903 21.1069 38.4767C21.1885 38.4645 21.2696 38.4508 21.3502 38.4358C21.3597 38.4341 21.3692 38.4334 21.3786 38.4334C21.4539 38.4334 21.5216 38.4859 21.536 38.563C21.5521 38.6496 21.4951 38.7324 21.4088 38.7488C21.2553 38.7774 21.0999 38.8009 20.9437 38.8193Z" fill="url(#paint32_linear_970_1789)"/>
</g>
<path d="M20.5715 38.8523C20.4883 38.8523 20.4183 38.7876 20.4128 38.7034C20.4072 38.6156 20.4738 38.5399 20.5615 38.5341C20.7436 38.5226 20.9262 38.5031 21.107 38.4766C21.0518 38.59 20.9971 38.7048 20.9438 38.8193C20.8233 38.8336 20.7025 38.8445 20.5819 38.852L20.5797 38.8523C20.577 38.8523 20.5743 38.8523 20.5715 38.8523Z" fill="#DEE8FD"/>
<path d="M18.1562 38.5698C18.1407 38.5698 18.1249 38.5674 18.1093 38.5626C17.8443 38.4808 17.5816 38.3821 17.3287 38.2687C17.2484 38.2326 17.2126 38.1387 17.2485 38.0583C17.275 37.9995 17.3331 37.9644 17.394 37.9644C17.4157 37.9644 17.4377 37.9689 17.4588 37.9782C17.7 38.0861 17.9504 38.1803 18.2031 38.2584C18.287 38.2841 18.3342 38.3732 18.3083 38.4574C18.2881 38.5227 18.2292 38.566 18.1643 38.5695C18.1616 38.5695 18.1589 38.5698 18.1562 38.5698Z" fill="#DEE8FD"/>
<mask id="mask30_970_1789" style="mask-type:luminance" maskUnits="userSpaceOnUse" x="22" y="34" width="5" height="5">
<path d="M22.1693 38.5531C22.1018 38.5531 22.0391 38.5099 22.0176 38.4422C21.9909 38.3585 22.0372 38.269 22.121 38.2423C22.3734 38.162 22.6229 38.0657 22.8627 37.9559C22.8842 37.9461 22.9068 37.9415 22.9289 37.9415C22.9893 37.9415 23.0469 37.9757 23.0737 38.0345C23.1103 38.1143 23.0751 38.2089 22.9952 38.2455C22.7437 38.3605 22.4821 38.4614 22.2176 38.5456C22.2042 38.5499 22.1906 38.5524 22.1773 38.5531C22.1746 38.5531 22.1719 38.5531 22.1693 38.5531ZM23.647 37.8765C23.5934 37.8765 23.5411 37.8496 23.5112 37.8008C23.4651 37.7256 23.4886 37.6276 23.5634 37.5818C23.7885 37.4435 24.0076 37.2902 24.2143 37.1255C24.2436 37.1022 24.2786 37.0908 24.3133 37.0908C24.3602 37.0908 24.4066 37.1114 24.4381 37.1509C24.4928 37.2198 24.4814 37.32 24.4126 37.3746C24.1957 37.5471 23.9661 37.7082 23.7301 37.8532C23.7066 37.8675 23.6807 37.8751 23.655 37.8763C23.6523 37.8765 23.6496 37.8765 23.647 37.8765ZM24.9192 36.8652C24.8788 36.8652 24.8384 36.8499 24.8074 36.8193C24.7448 36.7577 24.7441 36.6568 24.8058 36.5942C24.9917 36.4057 25.1677 36.2041 25.329 35.9955C25.3604 35.9547 25.4075 35.9334 25.4552 35.9334C25.4891 35.9334 25.5234 35.9443 25.5523 35.9666C25.6219 36.0205 25.6347 36.1204 25.581 36.1898C25.4119 36.4089 25.2274 36.6202 25.0326 36.8179C25.0035 36.8472 24.9657 36.863 24.9274 36.8649C24.9247 36.8652 24.9219 36.8652 24.9192 36.8652ZM25.9126 35.578C25.885 35.578 25.857 35.571 25.8316 35.5557C25.756 35.5108 25.7311 35.413 25.7761 35.3374C25.9115 35.1098 26.034 34.8721 26.1403 34.6305C26.1665 34.571 26.2249 34.5354 26.2862 34.5354C26.3076 34.5354 26.3291 34.5397 26.35 34.5489C26.4306 34.5844 26.4672 34.6782 26.4318 34.7588C26.3202 35.012 26.1917 35.2617 26.0498 35.5004C26.0215 35.5477 25.9723 35.5751 25.9209 35.5778C25.9182 35.578 25.9154 35.578 25.9126 35.578Z" fill="white"/>
</mask>
<g mask="url(#mask30_970_1789)">
<path d="M22.1694 38.5531C22.1019 38.5531 22.0393 38.5101 22.0177 38.4422C21.9911 38.3587 22.0373 38.2689 22.1211 38.2423C22.3735 38.162 22.623 38.0657 22.8628 37.9559C22.8843 37.9461 22.9069 37.9417 22.929 37.9417C22.9894 37.9417 23.047 37.976 23.0738 38.0343C23.1104 38.1142 23.0752 38.2091 22.9953 38.2456C22.7439 38.3605 22.4822 38.4615 22.2176 38.5458C22.2043 38.5502 22.1908 38.5524 22.1774 38.5531C22.1747 38.5531 22.172 38.5531 22.1694 38.5531ZM23.6471 37.8767C23.5935 37.8767 23.5412 37.8497 23.5113 37.8009C23.4652 37.7257 23.4887 37.6276 23.5636 37.582C23.7887 37.4437 24.0077 37.2901 24.2145 37.1256C24.2437 37.1022 24.2787 37.0909 24.3135 37.0909C24.3603 37.0909 24.4067 37.1114 24.4382 37.1511C24.4929 37.2201 24.4815 37.32 24.4127 37.3748C24.1958 37.5473 23.9662 37.7082 23.7302 37.8534C23.7067 37.8676 23.6808 37.8753 23.6552 37.8764C23.6525 37.8767 23.6498 37.8767 23.6471 37.8767ZM24.9193 36.8651C24.8789 36.8651 24.8385 36.8498 24.8076 36.8195C24.7449 36.7579 24.7442 36.6568 24.8059 36.5944C24.9918 36.4058 25.1679 36.2041 25.3291 35.9954C25.3605 35.9549 25.4076 35.9334 25.4553 35.9334C25.4893 35.9334 25.5235 35.9443 25.5524 35.9666C25.6221 36.0206 25.6348 36.1205 25.5811 36.1898C25.412 36.4091 25.2275 36.6203 25.0327 36.818C25.0037 36.8472 24.9659 36.8629 24.9275 36.8651C24.9248 36.8651 24.922 36.8651 24.9193 36.8651ZM25.9128 35.578C25.8851 35.578 25.8572 35.5711 25.8317 35.5558C25.7561 35.5109 25.7313 35.4132 25.7762 35.3373C25.9116 35.11 26.0341 34.8721 26.1404 34.6306C26.1666 34.5712 26.225 34.5354 26.2863 34.5354C26.3077 34.5354 26.3293 34.5398 26.3501 34.5489C26.4307 34.5843 26.4673 34.6784 26.4319 34.7587C26.3203 35.0122 26.1918 35.2618 26.0499 35.5003C26.0216 35.5478 25.9723 35.5751 25.921 35.5777C25.9183 35.578 25.9155 35.578 25.9128 35.578Z" fill="url(#paint33_linear_970_1789)"/>
</g>
<mask id="mask31_970_1789" style="mask-type:luminance" maskUnits="userSpaceOnUse" x="16" y="37" width="1" height="1">
<path d="M16.6655 37.9012C16.6375 37.9012 16.609 37.8937 16.5833 37.8782C16.4666 37.8078 16.3517 37.7334 16.2413 37.6574C16.169 37.6077 16.1506 37.5085 16.2004 37.436C16.2314 37.3913 16.2812 37.3673 16.3319 37.3673C16.363 37.3673 16.3943 37.3763 16.4219 37.3952C16.5271 37.4677 16.6368 37.5386 16.7481 37.6058C16.8233 37.6514 16.8474 37.7494 16.8019 37.8243C16.7734 37.8714 16.7246 37.8983 16.6736 37.901C16.6709 37.9012 16.6682 37.9012 16.6655 37.9012Z" fill="white"/>
</mask>
<g mask="url(#mask31_970_1789)">
<path d="M16.6653 37.9014C16.6373 37.9014 16.6088 37.8937 16.5831 37.8781C16.4665 37.8079 16.3515 37.7336 16.2412 37.6575C16.1688 37.6078 16.1504 37.5084 16.2003 37.4361C16.2313 37.3913 16.281 37.3674 16.3317 37.3674C16.3628 37.3674 16.3942 37.3764 16.4217 37.3951C16.5269 37.4678 16.6366 37.5386 16.7479 37.6057C16.8231 37.6516 16.8472 37.7495 16.8017 37.8242C16.7732 37.8715 16.7244 37.8982 16.6734 37.901C16.6707 37.9014 16.6681 37.9014 16.6653 37.9014Z" fill="url(#paint34_linear_970_1789)"/>
</g>
<path d="M16.7011 35.8405C16.7242 35.8661 16.7609 35.8744 16.7925 35.8607L17.6949 35.4758C18.0716 35.7361 18.4926 35.9387 18.9458 36.0695L19.2186 37.0111C19.2282 37.0441 19.2576 37.0672 19.292 37.0692L20.4673 37.1278C20.5017 37.1295 20.5333 37.1093 20.5461 37.0775L20.9117 36.1677C21.3756 36.0831 21.8147 35.9239 22.2156 35.7019L23.075 36.1751C23.1051 36.1917 23.1425 36.1875 23.168 36.1644L24.0407 35.3751C24.0662 35.352 24.0742 35.3153 24.0607 35.2835L23.6757 34.3812C23.9364 34.0045 24.139 33.5836 24.2693 33.1306L25.211 32.8574C25.2441 32.848 25.2674 32.8182 25.2691 32.7844L25.3279 31.6089C25.3297 31.5743 25.3094 31.5429 25.2775 31.5301L24.3678 31.1646C24.2833 30.7008 24.1239 30.2614 23.9021 29.8607L24.3754 29.0009C24.3919 28.9712 24.3876 28.9336 24.3645 28.9081L23.5751 28.0354C23.552 28.0098 23.5153 28.002 23.4837 28.0156L22.5813 28.4006C22.2046 28.1398 21.7836 27.9372 21.3304 27.8068L21.0575 26.8653C21.048 26.8323 21.0186 26.8088 20.9842 26.8071L19.8089 26.7481C19.7745 26.7464 19.7429 26.7667 19.7301 26.7984L19.3645 27.7082C18.9006 27.7928 18.4614 27.9521 18.0605 28.174L17.2012 27.7008C17.171 27.6843 17.1337 27.6884 17.1082 27.7115L16.2355 28.5012C16.2101 28.5243 16.202 28.5606 16.2155 28.5924L16.6005 29.4948C16.3397 29.8715 16.1372 30.2927 16.0068 30.7458L15.0651 31.0185C15.0322 31.028 15.0088 31.0577 15.0071 31.0919L14.9482 32.2674C14.9465 32.3017 14.9668 32.3334 14.9987 32.3462L15.9084 32.7118C15.9929 33.1756 16.1523 33.6146 16.3741 34.0156L15.9008 34.875C15.8842 34.9052 15.8886 34.9427 15.9116 34.9679L16.7011 35.8405Z" fill="#91B3FA"/>
<path d="M20.0936 31.0532C20.0508 31.0552 20.0077 31.0606 19.9645 31.0692C19.4856 31.1648 19.1739 31.6325 19.2696 32.1115C19.316 32.3432 19.4498 32.5434 19.6466 32.6745C19.8436 32.8063 20.0796 32.8525 20.3117 32.8063C20.5437 32.76 20.7438 32.6263 20.8751 32.4295C21.0064 32.2324 21.0531 31.9964 21.0067 31.7643C20.9197 31.3285 20.5248 31.0311 20.0936 31.0532ZM20.1969 33.1406C19.9405 33.1538 19.6875 33.0846 19.47 32.9396C19.2025 32.7612 19.0204 32.489 18.9574 32.1737C18.8273 31.5229 19.2511 30.8872 19.9021 30.757C20.5543 30.6279 21.1888 31.0509 21.3189 31.7017C21.382 32.0174 21.3184 32.3386 21.14 32.606C20.9615 32.8735 20.6895 33.0559 20.374 33.1185C20.3151 33.1305 20.2558 33.1379 20.1969 33.1406Z" fill="#BDD0FB"/>
<path d="M20.3102 34.9147C20.2095 34.9195 20.1079 34.9195 20.0052 34.9147C19.8013 34.9048 19.5982 34.8736 19.4012 34.8229C19.3923 34.8201 19.3835 34.8181 19.3746 34.8157C19.3063 34.7973 19.2604 34.7374 19.2569 34.6703C19.256 34.6539 19.2578 34.6371 19.2622 34.6207C19.285 34.5356 19.3724 34.4857 19.4572 34.5085C19.6407 34.5576 19.8305 34.5876 20.021 34.5968H20.0211C20.0316 34.5972 20.042 34.5975 20.0525 34.5979C20.5036 34.6163 20.9422 34.5212 21.3368 34.3271C21.551 34.2216 21.7522 34.0866 21.9353 33.9236L21.9398 33.9196C21.9443 33.9156 21.9488 33.9116 21.9534 33.9072C22.4842 33.4271 22.7964 32.7691 22.8322 32.0536C22.8369 31.9614 22.8368 31.8691 22.8321 31.778C22.8008 31.1636 22.5611 30.5839 22.1429 30.1217C21.6626 29.5908 21.0043 29.2784 20.2893 29.2429C19.5748 29.2073 18.8881 29.4518 18.3571 29.932C17.8262 30.4126 17.514 31.0709 17.4782 31.7856C17.4736 31.8767 17.4737 31.9677 17.4783 32.058C17.4984 32.4499 17.6039 32.8326 17.7887 33.179C17.8001 33.2006 17.8061 33.2233 17.8072 33.2461C17.8102 33.3056 17.7794 33.3647 17.7232 33.3947C17.6455 33.4358 17.5492 33.4067 17.5077 33.3292C17.301 32.9413 17.1828 32.5126 17.1603 32.0744C17.1552 31.9733 17.1551 31.8715 17.1602 31.77C17.2003 30.9698 17.5495 30.2336 18.1436 29.6959C18.7376 29.1586 19.5048 28.8841 20.3052 28.9249C21.1052 28.9648 21.8417 29.314 22.379 29.908C22.8469 30.4253 23.115 31.0741 23.1501 31.7612C23.1553 31.8631 23.1554 31.9661 23.1502 32.0696C23.0726 33.6184 21.8268 34.8372 20.3102 34.9147Z" fill="#BDD0FB"/>
</g>
<defs>
<radialGradient id="paint0_radial_970_1789" cx="0" cy="0" r="1" gradientUnits="userSpaceOnUse" gradientTransform="translate(47 29) rotate(50.906) scale(61.8466 64.4504)">
<stop stop-color="#B5EDFF"/>
<stop offset="1" stop-color="#A38CD5"/>
</radialGradient>
<radialGradient id="paint1_radial_970_1789" cx="0" cy="0" r="1" gradientUnits="userSpaceOnUse" gradientTransform="translate(47.0423 29.459) rotate(51.1875) scale(58.5487 60.8854)">
<stop stop-color="#B5EDFF"/>
<stop offset="1" stop-color="#A38CD5"/>
</radialGradient>
<radialGradient id="paint2_radial_970_1789" cx="0" cy="0" r="1" gradientUnits="userSpaceOnUse" gradientTransform="translate(47 29.5396) rotate(50.906) scale(58.194 60.644)">
<stop stop-color="#B5EDFF"/>
<stop offset="1" stop-color="#A38CD5"/>
</radialGradient>
<radialGradient id="paint3_radial_970_1789" cx="0" cy="0" r="1" gradientUnits="userSpaceOnUse" gradientTransform="translate(50.765 50.7106) rotate(58.644) scale(73.9017 86.6011)">
<stop stop-color="white"/>
<stop offset="1" stop-color="white" stop-opacity="0"/>
</radialGradient>
<linearGradient id="paint4_linear_970_1789" x1="175.001" y1="111.992" x2="54.306" y2="-37.9029" gradientUnits="userSpaceOnUse">
<stop stop-color="#DAE3FE"/>
<stop offset="1" stop-color="#E9EFFD"/>
</linearGradient>
<linearGradient id="paint5_linear_970_1789" x1="179.805" y1="19.273" x2="-57.7693" y2="0.267159" gradientUnits="userSpaceOnUse">
<stop stop-color="#4F52FF"/>
<stop offset="1" stop-color="#4042E2"/>
</linearGradient>
<linearGradient id="paint6_linear_970_1789" x1="164.876" y1="-31.5463" x2="-197.308" y2="149.021" gradientUnits="userSpaceOnUse">
<stop stop-color="#4F52FF"/>
<stop offset="1" stop-color="#4042E2"/>
</linearGradient>
<linearGradient id="paint7_linear_970_1789" x1="175.891" y1="-53.1638" x2="-94.4612" y2="133.758" gradientUnits="userSpaceOnUse">
<stop stop-color="#4F52FF"/>
<stop offset="1" stop-color="#4042E2"/>
</linearGradient>
<linearGradient id="paint8_linear_970_1789" x1="101.504" y1="-67.3114" x2="38.3445" y2="67.4885" gradientUnits="userSpaceOnUse">
<stop stop-color="#FF928E"/>
<stop offset="1" stop-color="#FE7062"/>
</linearGradient>
<linearGradient id="paint9_linear_970_1789" x1="147.736" y1="19.301" x2="196.498" y2="35.4212" gradientUnits="userSpaceOnUse">
<stop stop-color="#4F52FF"/>
<stop offset="1" stop-color="#4042E2"/>
</linearGradient>
<linearGradient id="paint10_linear_970_1789" x1="150.737" y1="13.8173" x2="202.327" y2="20.7392" gradientUnits="userSpaceOnUse">
<stop stop-color="#4F52FF"/>
<stop offset="1" stop-color="#4042E2"/>
</linearGradient>
<linearGradient id="paint11_linear_970_1789" x1="77.16" y1="-10.9117" x2="127.806" y2="14.6672" gradientUnits="userSpaceOnUse">
<stop stop-color="#09005D"/>
<stop offset="1" stop-color="#1A0F91"/>
</linearGradient>
<linearGradient id="paint12_linear_970_1789" x1="53.397" y1="38.1938" x2="79.3811" y2="46.7839" gradientUnits="userSpaceOnUse">
<stop stop-color="#09005D"/>
<stop offset="1" stop-color="#1A0F91"/>
</linearGradient>
<linearGradient id="paint13_linear_970_1789" x1="80.3683" y1="76.7175" x2="75.4501" y2="76.8892" gradientUnits="userSpaceOnUse">
<stop stop-color="#09005D"/>
<stop offset="1" stop-color="#1A0F91"/>
</linearGradient>
<linearGradient id="paint14_linear_970_1789" x1="79.5353" y1="74.9191" x2="78.2896" y2="75.0904" gradientUnits="userSpaceOnUse">
<stop stop-color="#FEBBBA"/>
<stop offset="1" stop-color="#FF928E"/>
</linearGradient>
<linearGradient id="paint15_linear_970_1789" x1="137.866" y1="59.7502" x2="136.855" y2="66.1849" gradientUnits="userSpaceOnUse">
<stop stop-color="#09005D"/>
<stop offset="1" stop-color="#1A0F91"/>
</linearGradient>
<linearGradient id="paint16_linear_970_1789" x1="132.905" y1="60.3526" x2="132.816" y2="61.9947" gradientUnits="userSpaceOnUse">
<stop stop-color="#FEBBBA"/>
<stop offset="1" stop-color="#FF928E"/>
</linearGradient>
<linearGradient id="paint17_linear_970_1789" x1="78.6841" y1="34.0953" x2="80.7039" y2="34.7601" gradientUnits="userSpaceOnUse">
<stop stop-color="#FEBBBA"/>
<stop offset="1" stop-color="#FF928E"/>
</linearGradient>
<linearGradient id="paint18_linear_970_1789" x1="119.385" y1="52.7534" x2="131.415" y2="75.979" gradientUnits="userSpaceOnUse">
<stop stop-color="#09005D"/>
<stop offset="1" stop-color="#1A0F91"/>
</linearGradient>
<linearGradient id="paint19_linear_970_1789" x1="82.7475" y1="63.2293" x2="101.571" y2="39.9508" gradientUnits="userSpaceOnUse">
<stop stop-color="#FF928E"/>
<stop offset="1" stop-color="#FE7062"/>
</linearGradient>
<linearGradient id="paint20_linear_970_1789" x1="93.4069" y1="59.4458" x2="106.424" y2="62.1009" gradientUnits="userSpaceOnUse">
<stop stop-color="#09005D"/>
<stop offset="1" stop-color="#1A0F91"/>
</linearGradient>
<linearGradient id="paint21_linear_970_1789" x1="96.9235" y1="28.3538" x2="105.113" y2="48.4945" gradientUnits="userSpaceOnUse">
<stop stop-color="#FEBBBA"/>
<stop offset="1" stop-color="#FF928E"/>
</linearGradient>
<linearGradient id="paint22_linear_970_1789" x1="98.9775" y1="32.7266" x2="98.3761" y2="40.2574" gradientUnits="userSpaceOnUse">
<stop stop-color="#FEBBBA"/>
<stop offset="1" stop-color="#FF928E"/>
</linearGradient>
<linearGradient id="paint23_linear_970_1789" x1="101.766" y1="35.4465" x2="97.6526" y2="31.7876" gradientUnits="userSpaceOnUse">
<stop stop-color="#09005D"/>
<stop offset="1" stop-color="#1A0F91"/>
</linearGradient>
<linearGradient id="paint24_linear_970_1789" x1="101.221" y1="40.4953" x2="100.981" y2="35.2429" gradientUnits="userSpaceOnUse">
<stop stop-color="#FEBBBA"/>
<stop offset="1" stop-color="#FF928E"/>
</linearGradient>
<linearGradient id="paint25_linear_970_1789" x1="118.056" y1="25.2839" x2="119.573" y2="25.5933" gradientUnits="userSpaceOnUse">
<stop stop-color="#FEBBBA"/>
<stop offset="1" stop-color="#FF928E"/>
</linearGradient>
<linearGradient id="paint26_linear_970_1789" x1="151.339" y1="109.531" x2="47.1522" y2="-19.8625" gradientUnits="userSpaceOnUse">
<stop stop-color="#C4D5FD"/>
<stop offset="1" stop-color="#CEDDFC"/>
</linearGradient>
<linearGradient id="paint27_linear_970_1789" x1="172.194" y1="111.701" x2="53.457" y2="-35.7627" gradientUnits="userSpaceOnUse">
<stop stop-color="#C4D5FD"/>
<stop offset="1" stop-color="#CEDDFC"/>
</linearGradient>
<linearGradient id="paint28_linear_970_1789" x1="143.19" y1="-14.8306" x2="-170.772" y2="141.696" gradientUnits="userSpaceOnUse">
<stop stop-color="#636FFD"/>
<stop offset="1" stop-color="#5864E9"/>
</linearGradient>
<linearGradient id="paint29_linear_970_1789" x1="145.389" y1="-16.5254" x2="-173.463" y2="142.438" gradientUnits="userSpaceOnUse">
<stop stop-color="#636FFD"/>
<stop offset="1" stop-color="#5864E9"/>
</linearGradient>
<linearGradient id="paint30_linear_970_1789" x1="164.876" y1="-31.546" x2="-197.308" y2="149.021" gradientUnits="userSpaceOnUse">
<stop stop-color="#636FFD"/>
<stop offset="1" stop-color="#5864E9"/>
</linearGradient>
<linearGradient id="paint31_linear_970_1789" x1="146.166" y1="-17.1245" x2="-174.414" y2="142.701" gradientUnits="userSpaceOnUse">
<stop stop-color="#636FFD"/>
<stop offset="1" stop-color="#5864E9"/>
</linearGradient>
<linearGradient id="paint32_linear_970_1789" x1="134.035" y1="-7.77383" x2="-159.569" y2="138.603" gradientUnits="userSpaceOnUse">
<stop stop-color="#636FFD"/>
<stop offset="1" stop-color="#5864E9"/>
</linearGradient>
<linearGradient id="paint33_linear_970_1789" x1="143.298" y1="-14.9132" x2="-170.903" y2="141.732" gradientUnits="userSpaceOnUse">
<stop stop-color="#636FFD"/>
<stop offset="1" stop-color="#5864E9"/>
</linearGradient>
<linearGradient id="paint34_linear_970_1789" x1="140.873" y1="35.635" x2="-44.6825" y2="20.7906" gradientUnits="userSpaceOnUse">
<stop stop-color="#636FFD"/>
<stop offset="1" stop-color="#5864E9"/>
</linearGradient>
</defs>
</svg>
