<svg width="94" height="94" viewBox="0 0 94 94" fill="none" xmlns="http://www.w3.org/2000/svg">
<path d="M47 93C71.8526 93 92 72.8526 92 48C92 23.1465 71.8526 3 47 3C22.1474 3 2 23.1465 2 48C2 72.8526 22.1474 93 47 93Z" fill="url(#paint0_radial_970_1982)"/>
<path d="M47.0423 90.2875C70.4272 90.2875 89.3847 71.1385 89.3847 47.5175C89.3847 23.8956 70.4272 4.74744 47.0423 4.74744C23.6575 4.74744 4.7 23.8956 4.7 47.5175C4.7 71.1385 23.6575 90.2875 47.0423 90.2875Z" fill="url(#paint1_radial_970_1982)"/>
<mask id="mask0_970_1982" style="mask-type:alpha" maskUnits="userSpaceOnUse" x="4" y="5" width="86" height="85">
<path d="M47 89.7599C70.3848 89.7599 89.3423 70.8024 89.3423 47.4175C89.3423 24.0319 70.3848 5.0752 47 5.0752C23.6152 5.0752 4.65765 24.0319 4.65765 47.4175C4.65765 70.8024 23.6152 89.7599 47 89.7599Z" fill="url(#paint2_radial_970_1982)"/>
</mask>
<g mask="url(#mask0_970_1982)">
<path d="M68.764 11.6611C72.1378 17.7965 74.0568 24.833 74.0568 32.3225C74.0568 56.1172 54.6978 75.4016 30.8108 75.4016C24.1444 75.4016 17.8312 73.901 12.187 71.2148C19.7646 82.4016 32.6044 89.7599 47.1711 89.7599C70.4627 89.7599 89.344 70.9514 89.344 47.7495C89.3364 32.4182 81.0831 18.9974 68.7648 11.662L68.764 11.6611Z" fill="url(#paint3_radial_970_1982)" fill-opacity="0.2"/>
<path d="M99 101H-4V-3H99V101Z" fill="#80B4FF"/>
<path d="M57.5258 44.2413C57.1559 45.1079 56.6402 45.8538 56.0714 46.3511C55.1793 47.1323 54.0776 47.533 52.9801 47.533C52.5419 47.533 52.1047 47.4663 51.6809 47.3373C51.8055 48.5759 51.6809 49.7507 51.325 50.7969C51.785 52.3513 52.7636 53.4439 54.1027 53.8854C55.2996 54.2803 56.6518 54.0894 57.4672 53.4101C57.4672 53.4101 56.4868 55.7459 53.783 54.8743C52.4244 54.4261 51.3696 53.4585 50.7214 52.0984C50.5309 52.4136 50.3153 52.7106 50.0733 52.9865C47.7523 54.9177 45.6976 53.861 45.6976 53.861C47.0251 53.8418 48.3034 53.2403 49.2057 52.211C49.9506 51.3608 50.7842 49.837 50.524 47.4021C50.1239 43.6558 47.2598 39.8195 41.9191 40.252C37.3333 40.6227 34.7658 44.1057 34.1717 46.2747C34.378 46.3366 34.5876 46.4103 34.7995 46.498C37.6078 47.9027 37.6078 50.5135 37.6078 50.5135C36.258 48.3742 34.4424 47.2139 32.3571 47.159C30.02 47.0976 27.82 48.453 26.8518 49.8239C26.8518 49.8239 26.8093 47.6639 29.7535 46.3995C30.5701 46.1222 31.4597 45.965 32.3875 45.9894C32.5922 45.995 32.8088 46.011 33.0326 46.0382C33.3184 44.9117 33.9925 43.6173 35.0331 42.4505C35.2545 41.4841 34.9785 40.7864 34.189 40.3233L34.1601 40.3065L34.1655 40.2971C33.1623 39.6712 32.2309 38.8019 31.5514 37.7509C29.4741 36.1877 26.7357 37.1767 26.3991 37.5525C26.3991 37.5525 26.3991 36.2027 28.1717 35.8968C28.8948 35.817 29.8293 35.8344 30.7863 36.1741C30.7756 36.1422 30.7637 36.1112 30.7534 36.0793C30.1915 34.3251 30.4022 32.3955 31.3312 30.7839C32.3669 28.9443 34.3947 28.9443 34.3947 28.9443C34.3947 28.9443 33.3325 29.6687 32.3327 31.3727C31.5689 32.6971 31.3954 34.281 31.856 35.719C32.363 37.3015 33.5112 38.5279 34.749 39.2992L34.7493 39.2987L34.7712 39.3118C34.799 39.3283 34.8242 39.3461 34.8512 39.363C35.9464 40.0203 37.0989 40.3196 37.933 40.1934C39.0549 39.6112 40.3545 39.2049 41.8269 39.0862C41.9858 39.073 42.1437 39.0641 42.3004 39.058C42.1527 37.9527 42.2865 36.4851 42.8586 35.1677C43.9222 33.0068 45.9132 33.3418 45.9132 33.3418C43.603 34.3678 43.0501 37.3836 43.3423 39.0679C45.4091 39.1899 47.2431 39.9302 48.7067 41.2476C50.0621 42.4669 51.0132 44.1193 51.456 45.9889C52.6869 46.6303 54.2082 46.4332 55.3126 45.4672C56.4692 44.4548 57.3306 42.1263 56.7689 40.2736C56.7689 40.2736 58.5248 41.3921 57.5258 44.2413ZM46.7096 60.6268C46.0294 60.6268 45.3375 60.5228 44.6452 60.3114C41.9498 59.4886 39.7309 57.1701 39.3691 54.7982C39.0194 52.5051 39.5303 50.2283 40.7704 48.551C42.6886 46.1691 45.213 47.1515 45.213 47.1515C43.7842 47.3476 42.5691 48.0739 41.6989 49.251C40.6434 50.6782 40.2116 52.6351 40.5145 54.6203C40.807 56.5383 42.7267 58.5034 44.9807 59.1913C46.2956 59.593 48.8456 59.8868 51.1443 57.3446C51.1443 57.3446 51.1443 60.1658 46.7096 60.6268ZM67.0214 49.1342C67.0191 49.0929 67.0153 49.0521 67.0126 49.0103C67.006 48.9151 66.9977 48.8199 66.9875 48.7251C66.9823 48.6782 66.9768 48.6317 66.9707 48.5848C66.9587 48.4915 66.9442 48.3986 66.9289 48.3061C66.9219 48.2649 66.9154 48.2231 66.908 48.1823C66.8834 48.0509 66.8555 47.9205 66.8234 47.7924C66.1678 45.1886 64.1689 44.0189 63.1462 43.5793C63.129 43.8097 63.1067 44.0382 63.076 44.261C62.9706 45.0234 62.787 45.7417 62.5338 46.4004C61.2713 49.016 59.0522 49.016 59.0522 49.016C60.6636 48.2311 61.795 46.2859 62.0807 43.9092C62.1221 43.5634 62.1458 43.2092 62.1504 42.8474C62.1737 41.0196 61.7086 39.2766 60.8406 37.9391C58.7046 34.6474 54.637 34.7929 53.4164 35.2494C53.4094 35.4511 53.3913 35.7152 53.3565 36.0211C53.3342 36.213 53.3058 36.4204 53.2691 36.6395C52.6451 39.4413 50.8088 39.7134 50.8088 39.7134C51.5866 39.0167 51.9932 37.8063 52.1986 36.7774C52.3747 35.8963 52.403 35.149 52.3895 34.9716L52.3617 34.7835C52.1753 33.4773 51.8287 31.0452 49.3428 29.4477C46.5828 27.6743 43.1086 28.4437 41.4438 29.3947L41.4394 29.397C41.1231 29.5885 40.5304 29.9783 39.907 30.5455C38.8991 31.4623 37.8107 32.8435 37.6763 34.6066C37.6763 34.6066 36.7444 32.5845 38.4382 30.569C38.9679 29.9647 39.5331 29.4782 40.0118 29.1165C40.2644 28.926 40.492 28.7702 40.6787 28.6501C40.6679 28.1599 40.5196 27.518 39.9778 26.887C39.2905 26.0871 37.7525 25.084 34.3275 24.848C29.657 24.5267 26.8204 26.9748 25.8754 29.7808C26.1375 29.7269 26.3821 29.6945 26.6121 29.6781C28.6033 29.535 29.4082 30.6614 29.4082 30.6614C28.361 30.394 27.1144 30.561 26.2814 30.7529C25.8385 30.8552 25.5133 30.964 25.3972 31.0185L25.3632 31.0354C22.8737 32.2749 21.4096 34.1496 21.0114 36.609C20.6802 38.6541 21.2017 40.5326 21.5648 41.3269C21.5902 41.3724 21.7793 41.6938 22.1439 42.0958C23.1252 43.1782 25.3794 44.8437 29.1459 43.2828C29.1459 43.2828 28.2469 44.8038 26.2299 44.9568C25.6099 44.9568 25.0506 44.8747 24.5528 44.7443C23.9593 44.589 23.4536 44.3642 23.0374 44.1278C22.4401 43.7881 21.9544 43.3851 21.5769 43.0041C21.3997 42.8254 21.2457 42.6513 21.1167 42.4913C20.1401 44.2104 19.2205 47.2313 19.9894 50.1298C20.5989 52.4268 22.4364 53.976 23.5486 54.7311C23.5478 54.7238 23.5468 54.7165 23.546 54.7092C23.5195 54.4253 23.5207 54.1674 23.5419 53.9323C23.6717 52.4803 24.5755 51.937 24.5755 51.937C24.4908 52.8626 24.4913 53.755 24.5727 54.605C24.6064 54.957 24.6525 55.3023 24.7145 55.6382C25.0544 57.4772 25.9799 59.9063 28.4586 61.035C30.6007 62.0105 32.5245 61.8337 33.4814 61.6419C33.3747 61.4468 33.2818 61.2456 33.1989 61.0399C32.6602 59.7046 32.6054 58.1672 32.8657 56.725C32.0442 56.5974 31.3647 56.3246 30.8178 55.958C29.2769 54.4459 30.018 53.0437 30.018 53.0437C30.1292 53.6048 30.6759 55.3829 33.1155 55.7128C33.9193 53.4223 35.7347 53.0578 35.7347 53.0578C34.3308 54.3176 33.0011 58.0526 34.1913 60.756C34.328 61.0667 34.4964 61.3645 34.7034 61.6426C37.8277 65.4766 42.4702 65.2764 44.615 64.0596C44.4872 63.8799 44.3915 63.6836 44.3209 63.4821C44.0063 62.5812 44.1926 61.5841 44.1926 61.5841C44.3483 62.1389 44.6698 62.627 44.9835 62.9967C45.2901 63.3589 45.5875 63.6067 45.7134 63.6938C49.8265 66.2131 53.5242 65.4064 55.3652 63.4873L55.5622 63.2819L55.565 63.2824C55.7248 63.1088 55.8684 62.9171 55.9957 62.7084C56.6522 61.6307 56.8748 60.1013 56.6202 58.2889C56.6202 58.2889 58.1229 60.339 57.2391 62.5334C57.1894 62.6524 57.1355 62.7676 57.0788 62.8807C56.971 63.0963 56.8506 63.3006 56.7178 63.4925C59.9536 63.9475 63.7168 63.2598 65.4536 60.0262C66.6766 57.7491 66.5934 55.912 66.3681 54.8702C66.2998 54.9606 66.2305 55.0498 66.1581 55.1359C66.047 55.2685 65.9313 55.393 65.8138 55.5132C65.5299 55.8031 65.2283 56.0579 64.91 56.2731C63.5458 57.1324 61.5069 56.1158 61.5069 56.1158C63.4203 56.276 64.6656 55.3065 65.3723 54.4638C65.4211 54.4056 65.4662 54.3432 65.5131 54.2826C65.7208 54.014 65.9109 53.725 66.0786 53.4158C66.0832 53.4078 66.087 53.3989 66.0916 53.3904C66.1516 53.2788 66.2087 53.1648 66.2631 53.0489C66.2756 53.0222 66.2872 52.9949 66.2998 52.9682C66.3458 52.8664 66.3904 52.7632 66.4327 52.6586C66.4438 52.6313 66.4545 52.6041 66.4652 52.5774C66.5093 52.4634 66.5516 52.3489 66.5911 52.2326C66.5962 52.2161 66.6023 52.2002 66.6078 52.1842C66.744 51.7732 66.8485 51.3468 66.9201 50.9147C66.9238 50.8926 66.9271 50.8701 66.9303 50.8481C66.9494 50.7284 66.9652 50.6088 66.9791 50.4891C66.9823 50.4605 66.9856 50.4324 66.9884 50.4042C67.0009 50.2813 67.0107 50.1589 67.0181 50.0359C67.0195 50.0158 67.0214 49.9956 67.0223 49.9759C67.0297 49.8309 67.0339 49.6864 67.0335 49.5424C67.0335 49.5377 67.0335 49.533 67.0335 49.5283C67.0325 49.3965 67.0284 49.2651 67.0214 49.1342Z" fill="#FE52A7"/>
<path d="M32.4944 38.8906C32.4465 38.8538 32.3976 38.8182 32.3484 38.7834C32.0571 38.4627 31.7888 38.118 31.5514 37.7511C30.6978 37.1083 29.7322 36.8969 28.8678 36.8969C27.6287 36.8969 26.5974 37.3311 26.3991 37.5524C27.0421 36.5577 27.9678 36.4817 28.2361 36.4817C28.2843 36.4817 28.3113 36.4844 28.3113 36.4844L31.6588 36.9875C31.6588 36.9875 32.5091 38.0234 32.4944 38.8906Z" fill="#B3D2FF"/>
<path d="M32.3483 38.7831C30.9429 37.7889 28.9509 37.4298 27.575 37.4298C27.0881 37.4298 26.6782 37.4747 26.3991 37.5525C26.5974 37.3311 27.6286 36.897 28.8677 36.897C29.7322 36.897 30.6978 37.1081 31.5514 37.7511C31.7888 38.1181 32.0571 38.463 32.3483 38.7831Z" fill="#FE97CA"/>
<path d="M37.6079 50.5133C36.258 48.3739 34.4424 47.2139 32.3573 47.1588C32.306 47.1574 32.2551 47.1568 32.2038 47.1568C29.9243 47.1568 27.7989 48.4828 26.8518 49.8238C27.1896 49.016 27.8944 48.2981 28.4782 47.8039C28.7697 47.673 29.113 47.5187 29.4881 47.3648C30.4531 46.9678 31.6277 46.5714 32.6698 46.5714C32.6747 46.5714 32.68 46.5714 32.6853 46.5714C32.6867 46.5714 32.6876 46.5717 32.689 46.5717C32.9836 46.6071 33.27 46.6679 33.5468 46.7517C33.5035 46.8766 33.482 46.9507 33.482 46.9507C33.482 46.9507 34.1424 46.9911 34.9735 47.4212C36.1495 48.1849 37.0606 49.3463 37.6079 50.5133Z" fill="#B3D2FF"/>
<path d="M37.6077 50.5135C35.7086 48.5878 33.8386 47.9492 32.1607 47.9492C29.9181 47.9492 28.0179 49.0905 26.8517 49.8238C27.7988 48.4827 29.9243 47.1571 32.2039 47.1571C32.2549 47.1571 32.3059 47.1578 32.357 47.1591C34.4422 47.2139 36.2579 48.374 37.6077 50.5135Z" fill="#FE97CA"/>
<path d="M48.5882 52.8031C48.8086 52.6257 49.0156 52.4279 49.2055 52.211C49.9505 51.361 50.7841 49.837 50.5239 47.4021C50.1449 43.851 47.5509 40.2191 42.7335 40.2191C42.4684 40.2191 42.1977 40.23 41.9192 40.2522C38.6231 40.5183 36.3698 42.3927 35.1423 44.2311C35.1162 44.2502 35.0905 44.2698 35.0648 44.2897L35.5257 43.1405C35.5257 43.1405 38.8688 39.7559 42.8586 39.7232C42.8798 39.7229 42.9003 39.7229 42.9219 39.7229C43.5556 39.7229 44.1699 39.8014 44.7567 39.9458C45.2693 40.395 45.944 40.5665 46.5315 40.6187C48.7055 41.7529 50.2584 43.8078 50.6281 45.866C51.1818 48.9483 50.6177 51.3757 48.5882 52.8031Z" fill="#B3D2FF"/>
<path d="M48.5718 52.8146C51.8251 47.8659 47.9097 41.2393 42.9661 41.2393C42.8173 41.2393 42.667 41.2452 42.5171 41.2575C38.0525 41.6207 35.6845 43.7421 35.1332 44.3011C35.1361 44.278 35.1391 44.2545 35.1424 44.231C36.37 42.3926 38.6231 40.5181 41.9192 40.2519C42.198 40.2295 42.4687 40.2187 42.7335 40.2187C47.5511 40.2187 50.1451 43.851 50.524 47.4017C50.7844 49.8367 49.9508 51.3607 49.2059 52.2109C49.0158 52.4279 48.8089 52.6255 48.5885 52.803C48.5833 52.8067 48.5774 52.8108 48.5718 52.8146Z" fill="#FE97CA"/>
<path d="M19.4921 50.1012C18.3333 46.9488 20.7796 41.7811 20.7796 41.7811C20.7796 41.7811 21.7774 42.7239 22.0671 43.1399C22.0137 43.1991 21.9615 43.2591 21.9107 43.3194C21.7915 43.2137 21.6802 43.1079 21.577 43.004C21.3997 42.8249 21.2458 42.6513 21.1168 42.491C20.1707 44.1564 19.2781 47.0433 19.9224 49.8571C19.9224 49.8574 19.9224 49.8574 19.9224 49.8574L19.4921 50.1012Z" fill="#B3D2FF"/>
<path d="M19.9223 49.8571C19.2781 47.0432 20.1707 44.1566 21.1167 42.491C21.2458 42.6511 21.3997 42.8252 21.577 43.004C21.6801 43.1081 21.7915 43.214 21.9107 43.3195C19.5757 46.0892 19.9211 49.8441 19.9223 49.8571Z" fill="#FE97CA"/>
<path d="M66.7042 51.8729C66.7944 51.5593 66.8668 51.2385 66.9201 50.9145C66.9238 50.8923 66.9271 50.8701 66.9308 50.848C66.9495 50.7286 66.9654 50.6088 66.9789 50.4885C66.9827 50.4602 66.9859 50.4319 66.9887 50.4041C67.0013 50.2815 67.0112 50.1583 67.0186 50.0357C67.0196 50.0154 67.0214 49.9956 67.0224 49.9753C67.0303 49.831 67.034 49.6862 67.0336 49.5423C67.0336 49.5376 67.0336 49.5329 67.0336 49.5282C67.0331 49.3966 67.0284 49.265 67.0214 49.1343C67.0191 49.0928 67.0158 49.0518 67.013 49.0103C67.006 48.915 66.9981 48.8197 66.9878 48.7249C66.9827 48.6782 66.9771 48.6315 66.971 48.5848C66.9588 48.4914 66.9448 48.3985 66.9289 48.306C66.9219 48.2645 66.9159 48.223 66.9079 48.182C66.8832 48.0508 66.8556 47.9207 66.8238 47.7919C66.1679 45.1882 64.1695 44.0189 63.1464 43.5793C63.1291 43.8094 63.1072 44.0377 63.0763 44.2609C63.0366 44.5472 62.9862 44.8269 62.925 45.0995C62.065 47.457 60.8466 48.0438 59.3728 48.8405C60.813 47.9659 61.8146 46.125 62.0808 43.909C62.122 43.5632 62.1458 43.2085 62.1505 42.8472C62.1738 41.0194 61.7085 39.2765 60.8406 37.9388C59.3359 35.6196 56.8716 35.0064 55.1203 35.0064C54.3859 35.0064 53.7772 35.1144 53.4166 35.2493C53.4096 35.4512 53.3918 35.7148 53.3568 36.021C53.3344 36.2125 53.3059 36.4205 53.269 36.6389C53.269 36.6389 52.1301 38.5421 50.809 39.7133C51.5868 39.0166 51.9932 37.8063 52.1987 36.7775C52.3748 35.8964 52.4029 35.1488 52.3898 34.9715L52.3618 34.7833C52.1754 33.4772 51.8287 31.0451 49.343 29.4475C48.135 28.6716 46.7905 28.3825 45.5203 28.3825C43.8881 28.3825 42.3802 28.8598 41.4439 29.3942L41.4395 29.3971C41.1233 29.5886 40.5305 29.9782 39.9071 30.5456C38.8993 31.4621 37.8108 32.8432 37.6764 34.6064C37.2137 32.5772 39.1264 30.2659 39.5556 29.7456C39.5471 29.6636 39.5389 29.582 39.5309 29.5008C39.6973 29.3603 39.859 29.232 40.0119 29.1164C40.2645 28.9259 40.4922 28.7702 40.6788 28.6499C40.668 28.1594 40.5197 27.5179 39.9779 26.8868C39.2907 26.0868 37.7526 25.0835 34.3276 24.8477C34.0495 24.8288 33.7776 24.8193 33.5124 24.8193C29.3259 24.8193 26.7643 27.1415 25.8754 29.781C26.1375 29.7268 26.3822 29.6942 26.6121 29.6777C26.7308 29.6692 26.8457 29.665 26.9559 29.665C27.0769 29.665 27.1928 29.6702 27.304 29.6787C27.3069 29.6801 28.5269 30.2659 29.4083 30.6612C29.0169 30.5617 28.5977 30.522 28.1826 30.522C27.4871 30.522 26.8032 30.6324 26.2815 30.7527C25.8386 30.8551 25.5134 30.964 25.3973 31.0183L25.3632 31.0352C22.8738 32.2748 21.4097 34.1498 21.0115 36.6087C20.8408 37.6629 20.8967 38.6733 21.0406 39.5133L20.2025 39.3223C19.6442 35.4601 21.9599 31.8687 24.7494 30.0574C27.543 25.5623 30.7002 24.1151 33.5528 24.1151C36.6474 24.1151 39.3834 25.8203 40.9029 27.1867L41.7014 28.3155C41.7014 28.3155 44.3623 27.8825 45.9296 27.5792C46.7943 27.6372 47.5609 27.7995 48.241 28.0367C51.0192 29.2664 52.628 32.0923 53.375 34.1658L59.4274 35.3964C62.3079 37.1799 62.8432 40.4793 62.9881 42.6901C69.168 45.8419 67.2798 50.9357 66.7042 51.8729Z" fill="#B3D2FF"/>
<path d="M66.7041 51.8734C67.5442 47.6536 64.2754 45.5626 62.9247 45.0994C62.9858 44.827 63.0363 44.547 63.0761 44.2614C63.1066 44.038 63.1288 43.81 63.1464 43.5796C64.1689 44.0193 66.1676 45.1887 66.8235 47.7924C66.8554 47.9209 66.8832 48.0508 66.9077 48.1822C66.9156 48.2233 66.9216 48.2649 66.9286 48.3065C66.9443 48.399 66.9586 48.4916 66.9707 48.585C66.9767 48.6318 66.9822 48.6785 66.9873 48.7252C66.9975 48.8201 67.0059 48.915 67.0128 49.0108C67.0156 49.0519 67.0188 49.0931 67.0211 49.1342C67.0285 49.2651 67.0327 49.3968 67.0332 49.5286C67.0332 49.5333 67.0336 49.538 67.0336 49.5427C67.0336 49.6866 67.0299 49.831 67.0221 49.9759C67.0211 49.9955 67.0193 50.0156 67.0184 50.0362C67.0109 50.1587 67.0012 50.2816 66.9883 50.404C66.9855 50.4321 66.9822 50.4606 66.979 50.4891C66.9651 50.6087 66.9494 50.7288 66.9304 50.848C66.9267 50.87 66.9235 50.8924 66.9198 50.9144C66.8665 51.2387 66.7939 51.5598 66.7041 51.8729C66.7041 51.8734 66.7041 51.8734 66.7041 51.8734ZM59.0519 49.0159C60.8237 47.4858 61.4 44.5227 61.3139 43.1402C61.2283 41.7582 60.9279 38.7591 58.3099 37.329C57.0236 36.6266 55.784 36.448 54.8559 36.448C53.8955 36.448 53.2688 36.6392 53.2688 36.6392C53.3058 36.4205 53.334 36.2129 53.3562 36.0213C53.3914 35.7152 53.409 35.4516 53.4164 35.2497C53.777 35.1146 54.3857 35.0067 55.1202 35.0067C56.8713 35.0067 59.3356 35.6199 60.8404 37.9389C61.7083 39.277 62.1735 41.0198 62.1503 42.8477C62.1457 43.2089 62.1221 43.5637 62.0804 43.909C61.8143 46.1253 60.8126 47.9658 59.3722 48.8407C59.2666 48.8977 59.1602 48.9561 59.0519 49.0159ZM50.8091 39.7135C51.7626 38.3712 52.0871 34.4257 50.1985 32.0426C48.8858 30.3854 46.9918 29.6502 45.05 29.6502C44.1997 29.6502 43.3402 29.7913 42.5167 30.0577C39.813 30.9327 38.5255 32.8227 37.6762 34.6066C37.8107 32.8437 38.8991 31.4626 39.907 30.5457C40.5304 29.9783 41.1231 29.5885 41.4393 29.3974L41.4437 29.3946C42.3802 28.8599 43.8882 28.3827 45.5203 28.3827C46.79 28.3827 48.1351 28.672 49.3427 29.4478C51.8288 31.0453 52.1755 33.4775 52.3615 34.7837L52.3893 34.9716C52.4027 35.1492 52.3745 35.8965 52.1986 36.7775C51.9931 37.8067 51.5867 39.0171 50.8091 39.7135ZM21.0408 39.5135H21.0405C20.8966 38.6732 20.8407 37.6632 21.0114 36.6088C21.4096 34.15 22.8737 32.2749 25.3631 31.0355L25.3971 31.0186C25.5133 30.964 25.8385 30.8551 26.2814 30.7532C26.8031 30.6331 27.487 30.5223 28.1825 30.5223C28.5976 30.5223 29.0168 30.562 29.4082 30.6616C27.7584 30.7541 25.2213 31.3925 23.1185 33.6027C21.0155 35.8124 21.0408 39.5135 21.0408 39.5135ZM25.8753 29.7811C26.7642 27.1419 29.3258 24.8195 33.5122 24.8195C33.7774 24.8195 34.0494 24.8289 34.3275 24.848C37.7525 25.084 39.2905 26.0875 39.9778 26.8871C40.5196 27.5181 40.6679 28.1598 40.6787 28.65C40.492 28.7706 40.2644 28.9258 40.0118 29.1169C39.8588 29.2324 39.6971 29.3604 39.5307 29.5011C39.436 28.5636 39.3173 27.6905 38.0535 26.9727C37.2199 26.4992 35.4546 26.0739 33.6675 26.0739C32.5095 26.0739 31.3423 26.2525 30.4143 26.7123C28.0538 27.8826 27.3039 29.6792 27.3039 29.6792C27.1927 29.6703 27.0768 29.6652 26.9558 29.6652C26.8456 29.6652 26.7307 29.6694 26.612 29.6782C26.3821 29.6946 26.1375 29.7268 25.8753 29.7811Z" fill="#FE97CA"/>
<path d="M33.4814 61.6417C33.3748 61.4467 33.2819 61.2455 33.1989 61.0398C32.9971 60.5391 32.8629 60.01 32.7882 59.4681C32.7882 59.4681 33.5043 60.9457 33.4814 61.6417Z" fill="#7192E4"/>
<path d="M32.4565 61.6973C26.7622 61.6973 25.6505 56.2658 25.6505 56.2658C27.0808 59.1535 30.4381 59.5042 31.9838 59.5042C32.478 59.5042 32.7867 59.4682 32.7881 59.4682C32.8628 60.01 32.9968 60.5391 33.1988 61.04C33.2817 61.2455 33.3747 61.4467 33.4812 61.6418C33.124 61.6794 32.7829 61.6973 32.4565 61.6973Z" fill="#D6439E"/>
<path d="M42.5373 65.0208C41.98 65.0208 41.3105 64.9586 40.5076 64.8044C40.772 64.829 41.0328 64.8406 41.2882 64.8406C42.6124 64.8406 43.796 64.5243 44.6149 64.0595C44.4869 63.8799 44.3913 63.6837 44.3209 63.4822C44.1054 62.8647 44.1247 62.2018 44.1585 61.8461L44.2071 61.947C44.2554 62.3426 44.4275 63.0021 45.0122 63.6248L45.2026 64.0226C45.2026 64.0226 44.7749 65.0208 42.5373 65.0208Z" fill="#7192E4"/>
<path d="M41.288 64.8407C41.0327 64.8407 40.7718 64.829 40.5078 64.8043C40.5042 64.8037 40.5006 64.8031 40.4974 64.8022C36.4608 64.0219 33.9761 60.627 34.4912 58.1724C34.9785 60.0341 37.1522 62.159 39.8469 62.5926C40.265 62.6598 40.6572 62.6881 41.0214 62.6881C42.9979 62.6881 44.1506 61.8518 44.1584 61.8461C44.1247 62.202 44.1053 62.8646 44.3209 63.4822C44.3913 63.6837 44.4871 63.88 44.615 64.0595C43.796 64.5242 42.6126 64.8407 41.288 64.8407Z" fill="#D6439E"/>
<path d="M23.528 54.2075C23.5278 54.2072 23.5272 54.2072 23.527 54.2069C23.5288 54.1118 23.534 54.0206 23.5419 53.9324C23.6717 52.4801 24.5755 51.9368 24.5755 51.9368L23.528 54.2075Z" fill="#7192E4"/>
<path d="M23.5269 54.207C20.8882 52.5316 19.8104 49.2718 20.3288 47.5343C21.4232 51.2392 24.5755 51.9369 24.5755 51.9369C24.5755 51.9369 23.6716 52.4804 23.5419 53.9325C23.5339 54.0207 23.5287 54.1119 23.5269 54.207Z" fill="#D6439E"/>
<path d="M36.2217 41.3158C36.2558 41.2883 36.2892 41.2604 36.3237 41.2336C36.2823 41.223 36.2402 41.2112 36.1984 41.2002C36.2068 41.2384 36.2151 41.2769 36.2217 41.3158Z" fill="#FE52A7"/>
<path d="M70.3916 41.1923C70.8725 41.8231 71.3138 42.5888 71.689 43.5091C72.0222 44.3261 72.2228 45.1486 72.3314 45.9414C72.8969 46.177 73.509 46.549 73.9248 46.8296C74.8954 45.4711 75.7447 42.5404 75.0628 39.7276C74.4189 37.074 72.5765 35.0284 69.8495 33.9179C69.2023 35.7629 67.7424 36.5049 67.7424 36.5049C68.394 35.5935 68.7526 34.3096 68.9165 33.5756L68.9063 33.5721L69.0095 33.1177C69.0428 32.9685 69.7986 29.4128 67.1088 26.9923C64.3701 24.5273 60.9161 24.1099 58.8203 24.9344C59.4171 27.0886 57.9475 28.8749 57.9475 28.8749C58.559 26.9108 58.0194 25.4787 57.7405 24.9255C55.9881 22.4343 53.8526 21.6968 52.3673 21.5175C50.3556 21.2745 48.1501 21.9181 46.7455 23.1555C46.5176 23.3719 45.7959 24.145 45.6007 25.4061C45.6007 25.4061 45.0117 24.1717 45.6702 22.9342C42.0253 20.8664 38.5259 22.2071 36.9966 23.4989C38.7059 23.9182 40.7345 24.9931 41.996 26.9602C45.0215 26.0458 47.9559 26.3585 50.2988 27.8538C50.6134 28.0548 50.9094 28.2747 51.1902 28.5098C52.0645 27.3875 52.1462 25.1636 51.8145 24.5915C51.8145 24.5915 53.1922 25.1413 52.8556 27.1528C52.6848 27.919 52.382 28.6639 51.9417 29.2157C53.0111 30.3558 53.7362 31.7646 54.0219 33.297C55.8903 33.1162 57.5825 33.3637 59.0257 34.0197C59.377 34.0463 60.194 33.9851 60.8154 33.0011C61.2997 32.2334 62.2718 30.2452 60.8432 28.3567C60.8432 28.3567 62.7248 28.8141 62.6808 31.0726C62.7131 31.0558 62.7449 31.037 62.7772 31.0207C64.6509 30.179 65.5291 31.7795 65.5291 31.7795C64.8026 31.4391 63.17 31.5977 62.2728 32.7205C62.1402 33.0268 61.9812 33.3306 61.7924 33.6294C61.7821 33.6452 61.7713 33.6596 61.7615 33.6749C61.3936 34.6367 61.4205 35.4063 61.5536 35.8696C63.012 37.483 63.8956 39.7701 64.0272 42.322C66.8892 43.7165 68.465 45.8466 68.713 48.6578C68.8569 50.2939 68.5398 52.0912 67.7703 54.0014C68.0462 55.0646 68.1367 56.6744 67.9112 57.8691C70.1509 57.6659 73.4233 56.4917 74.4375 53.7851C75.3367 51.3846 75.0486 49.1434 73.6856 47.9322C73.4737 47.7667 72.9542 47.4169 72.4307 47.1388C72.4346 47.2717 72.4371 47.4041 72.4371 47.534C72.4371 50.4589 70.6137 51.4483 70.6137 51.4483C70.6284 51.4103 72.0833 47.5488 70.6176 43.9541C69.2805 40.6761 67.0731 39.6911 65.4513 39.861C65.4513 39.861 67.0345 38.4991 69.348 40.0734C69.4708 40.1791 69.5927 40.2927 69.7125 40.4128C70.7208 39.9682 71.5799 38.9832 71.757 38.7708C71.757 38.7708 71.8304 40.2937 70.3916 41.1923Z" fill="#FE52A7"/>
<path d="M74.6256 53.2279C75.285 51.0417 74.9423 49.0492 73.6857 47.9324C73.4734 47.7666 72.9542 47.4171 72.4306 47.1388C72.4345 47.272 72.4369 47.4037 72.4369 47.5339C72.4369 47.8408 72.4168 48.1264 72.3806 48.3923C72.3801 48.3923 72.3801 48.3918 72.3801 48.3918L72.0432 46.5468C72.0432 46.5468 74.0495 47.3388 74.983 48.5091C75.916 49.6779 75.4022 51.886 74.6256 53.2279Z" fill="#B3D2FF"/>
<path d="M74.6241 53.2306C75.3863 49.1881 72.43 48.4052 72.3808 48.3924C72.4169 48.1269 72.4368 47.8411 72.4368 47.5338C72.4368 47.404 72.4344 47.2717 72.4305 47.1389C72.9541 47.4172 73.4737 47.7669 73.6856 47.9321C74.9421 49.0494 75.285 51.042 74.6256 53.228C74.6251 53.2288 74.6246 53.2298 74.6241 53.2306Z" fill="#FE97CA"/>
<path d="M70.6132 51.4481C70.6281 51.4104 72.0831 47.5491 70.6169 43.9545C69.3753 40.9094 67.3818 39.8429 65.805 39.8429C65.6846 39.8429 65.5665 39.849 65.4512 39.8608L65.707 39.7731C65.8559 39.7378 66.0188 39.7231 66.1883 39.7231C67.1778 39.7231 68.3956 40.2326 68.3956 40.2326C68.3956 40.2326 68.9889 40.5324 69.8762 41.6437L71.6774 45.7185C71.9477 47.8399 71.5747 50.2449 70.6132 51.4481Z" fill="#B3D2FF"/>
<path d="M70.6132 51.4481C71.2938 43.6745 68.095 41.0993 65.4512 39.8608C65.5665 39.849 65.6846 39.8429 65.805 39.8429C67.3818 39.8429 69.3753 40.9094 70.6169 43.9545C72.0831 47.5491 70.6281 51.4104 70.6132 51.4481Z" fill="#FE97CA"/>
<path d="M74.1891 47.4688L73.5883 47.2089C73.5883 47.2089 73.692 47.0544 73.8411 46.7734C73.8695 46.7926 73.8974 46.8112 73.9244 46.8298C74.8952 45.4709 75.7444 42.5406 75.0623 39.7276C74.4185 37.0743 72.5765 35.0281 69.8494 33.9179C69.6978 34.3499 69.5019 34.7215 69.2899 35.0372C69.2895 35.0372 69.2895 35.0372 69.2895 35.0372C69.2895 35.0372 68.9105 35.1192 67.7422 36.5048C68.3939 35.5935 68.7524 34.3096 68.916 33.5755L68.906 33.572L69.0092 33.1179C69.0426 32.9688 69.7986 29.4132 67.1089 26.9919C65.1976 25.2725 62.9387 24.549 61.0354 24.549C60.2111 24.549 59.4532 24.685 58.8199 24.9342C58.9321 25.338 58.971 25.7292 58.961 26.0977V26.0982C58.96 26.129 58.959 26.1602 58.9575 26.1914C58.8882 26.8746 57.9473 28.875 57.9473 28.875C58.5586 26.9109 58.0191 25.4785 57.7403 24.9256C55.9881 22.4344 53.8529 21.6968 52.3669 21.5175C52.0847 21.4833 51.7985 21.4667 51.5112 21.4667C49.752 21.4667 47.9529 22.092 46.7452 23.1559C46.5178 23.3719 45.7958 24.1452 45.6006 25.406L45.3604 24.1075C45.3601 24.1075 45.3601 24.1075 45.3598 24.1075C45.3722 23.746 45.4538 23.3401 45.6699 22.9343C44.3054 22.16 42.9605 21.8634 41.7324 21.8634C39.6804 21.8634 37.9534 22.6906 36.9965 23.4987C37.5308 23.6296 38.096 23.825 38.6594 24.0913L36.1651 23.7767C37.6259 21.8619 39.5991 21.297 41.4189 21.297C44.0363 21.297 46.3363 22.4656 46.3363 22.4656C46.3363 22.4656 49.5551 20.7326 52.8646 20.7326C56.1746 20.7326 58.1811 24.2424 58.1811 24.2424C58.1811 24.2424 58.398 24.2228 58.7989 24.2228C59.9718 24.2228 62.7198 24.3914 66.2068 25.7156C70.8846 27.4924 69.8115 33.3424 69.8115 33.3424C69.8115 33.3424 73.8461 34.8156 75.5624 39.1924C77.2793 43.5692 74.1891 47.4688 74.1891 47.4688Z" fill="#B3D2FF"/>
<path d="M73.9248 46.8295C73.8979 46.8112 73.8695 46.7924 73.8411 46.7736C74.4228 45.6775 75.7017 42.6608 74.2325 39.4523C72.4023 35.456 69.3417 35.0441 69.2903 35.0371C69.5017 34.7215 69.6983 34.35 69.8495 33.9178C72.5765 35.0282 74.4189 37.0738 75.0628 39.7275C75.7447 42.5402 74.8954 45.471 73.9248 46.8295ZM67.7424 36.5048C69.235 33.1388 68.3955 29.182 65.9924 27.4491C64.3623 26.2734 62.5492 25.8254 60.9817 25.8254C60.2381 25.8254 59.5492 25.9262 58.9612 26.0976C58.971 25.7291 58.9318 25.3378 58.8203 24.9342C59.4533 24.6848 60.2112 24.5489 61.0355 24.5489C62.9386 24.5489 65.1979 25.2721 67.1088 26.9922C69.7986 29.4127 69.0428 32.9683 69.0095 33.1175L68.9063 33.572L68.9165 33.5755C68.7526 34.3095 68.394 35.5934 67.7424 36.5048ZM57.9475 28.8747C57.9475 28.8747 58.2244 26.9082 56.604 24.8191C55.3893 23.2522 53.2078 22.4801 51.1203 22.4801C50.4251 22.4801 49.7396 22.5661 49.1046 22.7365C46.5616 23.4192 45.6007 25.406 45.6007 25.406C45.7959 24.1449 46.5176 23.3718 46.7455 23.1554C47.953 22.0914 49.7524 21.4665 51.5116 21.4665C51.7983 21.4665 52.085 21.4833 52.3673 21.5174C53.8526 21.6967 55.9881 22.4342 57.7405 24.9253C58.0194 25.4786 58.559 26.9107 57.9475 28.8747ZM58.9577 26.1909C58.9592 26.1603 58.9602 26.1292 58.9612 26.0981C58.9626 26.1252 58.9612 26.1563 58.9577 26.1909ZM45.36 24.1073C44.2239 23.4236 43.0968 23.1959 42.1003 23.1959C40.1232 23.1959 38.6596 24.091 38.6596 24.091C38.0961 23.8248 37.5309 23.6296 36.9966 23.4987C37.9535 22.6906 39.6806 21.8636 41.7326 21.8636C42.9606 21.8636 44.3055 22.16 45.6702 22.9341C45.454 23.3402 45.3723 23.7457 45.36 24.1073Z" fill="#FE97CA"/>
<path d="M49.7495 65.2026C47.1352 65.1337 45.7476 64.4085 45.0123 63.6248L44.2074 61.947C44.18 61.7233 44.1925 61.5841 44.1925 61.5841C44.3482 62.1388 44.67 62.6269 44.9833 62.9968C45.2903 63.3587 45.5874 63.6068 45.7137 63.6937C47.1276 64.5597 48.4925 65.0328 49.7495 65.2026Z" fill="#7192E4"/>
<path d="M50.018 65.2062C49.9294 65.2062 49.8403 65.2051 49.7494 65.2028C48.4923 65.0328 47.1276 64.5598 45.7137 63.6938C45.5874 63.6065 45.29 63.3589 44.9834 62.9967C44.6701 62.627 44.3483 62.1391 44.1928 61.584C44.1928 61.584 45.4352 63.4264 48.6216 63.7192C48.8654 63.7416 49.11 63.7522 49.3538 63.7522C52.2937 63.7525 55.148 62.1712 56.2179 60.1602C56.2179 60.1602 55.7967 65.2059 50.018 65.2062Z" fill="#D6439E"/>
<path d="M45.0121 63.6248C44.4275 63.0021 44.2552 62.3426 44.2071 61.947L45.0121 63.6248Z" fill="#6576CF"/>
<path d="M56.4125 64.0442C55.725 64.0442 55.7673 63.8812 55.7673 63.8812C55.7673 63.8812 57.248 61.0272 57.3751 59.9768C57.3755 59.9784 57.3763 59.98 57.3766 59.9816C57.5606 60.7116 57.6111 61.6096 57.2393 62.5331C57.1896 62.6522 57.1355 62.7674 57.0787 62.8805C56.9713 63.096 56.851 63.3003 56.718 63.4923C57.2981 63.5739 57.8956 63.6186 58.4947 63.6186C59.1092 63.6186 59.7256 63.5715 60.3283 63.4688C58.1462 63.9225 57.0069 64.0442 56.4125 64.0442Z" fill="#7192E4"/>
<path d="M58.4947 63.6188C57.8956 63.6188 57.2982 63.5741 56.7179 63.4925C56.8508 63.3006 56.971 63.0962 57.0788 62.8806C57.1354 62.7675 57.1896 62.6524 57.239 62.5333C57.611 61.6098 57.5603 60.712 57.3766 59.9817C57.6898 60.7578 58.9771 61.5209 60.5124 61.5209C62.1772 61.5209 64.1338 60.6228 65.4556 57.8692C65.4556 57.8692 64.7474 62.5491 60.3436 63.4659C60.3385 63.4669 60.3334 63.468 60.3278 63.469C59.7253 63.5717 59.1088 63.6188 58.4947 63.6188Z" fill="#D6439E"/>
<path d="M33.4819 56.266L30.9506 55.2365C30.9506 55.2365 29.9865 54.7184 30.0179 53.0438C30.1292 53.6052 30.6759 55.3831 33.1153 55.7129C33.3947 54.9176 33.7957 54.3548 34.2004 53.9582C34.4128 53.8202 34.6282 53.6516 34.8452 53.4495C34.0407 54.5543 33.4819 56.266 33.4819 56.266Z" fill="#7192E4"/>
<path d="M33.1153 55.7128C30.6759 55.383 30.1292 53.605 30.0179 53.0437C30.5121 53.7592 31.4326 54.4853 32.5544 54.4853C33.0681 54.4853 33.6238 54.3332 34.2004 53.9581C33.7957 54.3547 33.3947 54.9175 33.1153 55.7128Z" fill="#D6439E"/>
<path d="M67.387 58.4537V55.3337C67.387 55.3337 67.6182 55.3751 67.9971 55.3958C68.0697 56.2268 68.0515 57.1277 67.9116 57.869C68.6922 57.798 69.5998 57.609 70.4923 57.2777C70.1857 57.402 69.8539 57.5073 69.4947 57.5902L67.387 58.4537Z" fill="#7192E4"/>
<path d="M67.911 57.8693C68.0509 57.128 68.0691 56.2271 67.997 55.3961C68.1254 55.4031 68.271 55.4081 68.4306 55.4081C70.0864 55.4081 73.2309 54.8959 74.2105 51.174C74.2105 51.174 74.3475 55.7159 70.4921 57.278C69.5991 57.6092 68.6921 57.7983 67.911 57.8693Z" fill="#D6439E"/>
<path d="M72.8523 46.6097C72.4249 46.6097 72.0437 46.5469 72.0437 46.5469L71.6776 45.7184C71.544 44.6711 71.2531 43.6924 70.7991 42.9624C70.4688 42.4301 70.1574 41.9957 69.8765 41.6434L69.5974 41.0122L70.7991 40.1885L71.757 38.7707C71.757 38.7707 71.7204 38.9996 71.6919 39.3601C71.5754 39.8852 71.2569 40.6517 70.3917 41.1922C70.8728 41.8233 71.3135 42.5884 71.689 43.5086C72.0223 44.326 72.2229 45.1482 72.3313 45.9411C72.7201 46.1034 73.1313 46.3299 73.485 46.5469C73.2905 46.5939 73.0657 46.6097 72.8523 46.6097Z" fill="#7192E4"/>
<path d="M73.4851 46.547C73.131 46.3299 72.7203 46.1031 72.3314 45.9411C72.2227 45.1485 72.0222 44.326 71.6889 43.509C71.3135 42.5885 70.8724 41.8231 70.3917 41.1924C71.257 40.6514 71.5753 39.8851 71.6918 39.3602C71.6101 40.3734 71.5889 42.4275 72.6015 43.3719C72.915 43.6636 73.1967 43.7768 73.4455 43.7768C74.2871 43.7768 74.7475 42.4855 74.7475 42.4855C74.7475 42.4855 74.5851 44.7319 73.4851 46.547Z" fill="#D6439E"/>
<path d="M71.6772 45.7185L69.8758 41.6434C70.1571 41.9959 70.4682 42.43 70.7988 42.9625C71.2528 43.6929 71.5435 44.6712 71.6772 45.7185Z" fill="#9AAAE4"/>
<path d="M61.9633 56.1351C61.8415 56.1351 61.716 56.1305 61.5871 56.122C61.7005 56.1292 61.8118 56.1334 61.9206 56.1334C62.8552 56.1334 63.6148 55.8588 64.2174 55.4806C63.634 55.882 62.8966 56.1351 61.9633 56.1351Z" fill="#7192E4"/>
<path d="M61.921 56.1333C61.812 56.1333 61.7005 56.1294 61.5872 56.1219C61.5604 56.1202 61.5344 56.118 61.5072 56.1158C63.7606 55.0956 65.7774 54.0122 66.4212 50.1558C66.4212 50.1558 66.4718 53.9292 64.2176 55.4807C63.6144 55.8587 62.8548 56.1333 61.921 56.1333Z" fill="#D6439E"/>
<path d="M54.9338 55.069C54.591 55.069 54.2085 55.0112 53.7835 54.8741C52.4247 54.4259 51.37 53.4585 50.7217 52.0984C50.5314 52.4135 50.3153 52.7105 50.0734 52.9862C48.9657 53.9083 47.9181 54.1491 47.1258 54.1491C46.9609 54.1491 46.8069 54.1388 46.6659 54.1219C46.6644 54.1215 46.6629 54.1212 46.6617 54.1208C48.7825 53.5359 49.9476 52.4426 50.757 51.174C51.566 49.9054 51.3151 46.6099 51.3151 46.6099C51.3151 46.6099 51.9732 46.7859 52.8736 46.7859C53.9632 46.7859 55.4073 46.5283 56.465 45.3891L57.7965 43.1401C57.7525 43.4743 57.6664 43.8407 57.5262 44.2411C57.1561 45.1077 56.6402 45.8534 56.0719 46.3511C55.1794 47.132 54.0781 47.5324 52.9805 47.5324C52.5419 47.5324 52.1048 47.4662 51.6813 47.3372C51.8056 48.5755 51.6813 49.7503 51.3253 50.7965C51.7855 52.3511 52.7637 53.4436 54.1027 53.8854C54.5182 54.0224 54.9523 54.089 55.3762 54.089C56.1738 54.089 56.9347 53.8532 57.4678 53.4099C56.9143 54.0836 56.5022 54.548 55.9513 54.8772C55.6601 54.9947 55.3227 55.069 54.9338 55.069Z" fill="#7192E4"/>
<path d="M54.0701 55.4399C52.6943 55.4403 51.298 54.2131 50.7138 54.0557C50.6144 54.0289 50.4723 54.0182 50.2994 54.0182C49.9457 54.0182 49.4634 54.063 48.955 54.1078C48.447 54.1526 47.9128 54.1978 47.456 54.1978C47.1466 54.1978 46.8725 54.1771 46.6659 54.122C46.8069 54.1388 46.9609 54.1491 47.1258 54.1491C47.9181 54.1491 48.9656 53.9084 50.0734 52.9862C50.3153 52.7106 50.5314 52.4135 50.7217 52.0985C51.37 53.4586 52.4247 54.4259 53.7835 54.8742C54.2085 55.0112 54.591 55.069 54.9337 55.069C55.3227 55.069 55.6601 54.9947 55.9513 54.8772C55.5646 55.1088 55.11 55.2738 54.4905 55.399C54.3514 55.4273 54.2104 55.4399 54.0701 55.4399ZM55.3762 54.089C54.9523 54.089 54.5182 54.0224 54.1027 53.8854C52.7637 53.4436 51.7855 52.3511 51.3253 50.7966C51.6813 49.7504 51.8056 48.5756 51.6813 47.3372C52.1047 47.4662 52.5419 47.5324 52.9805 47.5324C54.0781 47.5324 55.1794 47.132 56.0718 46.3511C56.6401 45.8535 57.1561 45.1078 57.5262 44.2411C57.6664 43.8407 57.7525 43.4744 57.7965 43.1402C57.7949 43.1685 57.5921 46.6026 54.5766 48.2923C51.7814 49.8583 52.9305 53.4888 56.5207 53.4888C56.8199 53.4888 57.1353 53.4635 57.4678 53.41C56.9347 53.8532 56.1738 54.089 55.3762 54.089Z" fill="#D6439E"/>
<path d="M48.498 59.1635C49.362 58.8666 50.2714 58.3102 51.1442 57.3445C50.6361 58.3522 49.6246 58.9271 48.498 59.1635Z" fill="#7192E4"/>
<path d="M47.2239 59.2917C46.049 59.2917 44.9021 58.9795 44.1893 58.4538C42.515 57.219 41.1185 56.2201 41.0576 53.0437C41.518 54.3609 42.5137 56.2533 44.6196 57.1756C45.9911 57.7764 47.3065 58.0039 48.4138 58.0039C49.6625 58.0039 50.6456 57.7143 51.1443 57.3443C50.2714 58.31 49.362 58.8665 48.498 59.1633C48.0826 59.2504 47.6516 59.2917 47.2239 59.2917Z" fill="#D6439E"/>
<path d="M27.5656 48.158C27.5031 48.158 27.4933 48.1203 27.5461 48.0327C27.5464 48.0323 27.5466 48.0319 27.5469 48.0315C27.9712 47.4683 28.6541 46.8714 29.7536 46.399C30.5151 46.1406 31.3401 45.9866 32.2001 45.9866C32.2625 45.9866 32.3248 45.9874 32.3876 45.989C32.5923 45.9945 32.8089 46.0106 33.0327 46.0377C33.3185 44.9114 33.9926 43.617 35.0333 42.4502C35.2546 41.4837 34.9785 40.7863 34.1891 40.3233L34.1602 40.306L34.1657 40.2969C33.6197 39.9561 33.095 39.5433 32.6204 39.0685C32.5421 38.9817 32.4929 38.9366 32.4929 38.9366C32.4937 38.9213 32.4942 38.9059 32.4945 38.8902C32.7927 39.1176 33.0605 39.3756 33.2858 39.6678C33.3326 38.7913 31.6589 36.9871 31.6589 36.9871L33.5229 38.3424C33.9061 38.7127 34.3222 39.0328 34.7491 39.2987H34.7494L34.7713 39.3116C34.7991 39.3277 34.8243 39.3458 34.8514 39.3627C34.9621 39.429 35.0737 39.4919 35.185 39.5512L35.3456 39.6678C35.3756 39.6894 35.4051 39.711 35.4343 39.7322L37.4525 41.1998C37.4525 41.1998 34.1051 44.1538 33.2039 46.6099C33.036 46.5839 32.8627 46.5718 32.6853 46.5714C32.3585 46.5321 32.0577 46.5156 31.7827 46.5156C30.1373 46.5156 29.4058 47.1114 29.4058 47.1114C29.4058 47.1114 28.9881 47.3721 28.4783 47.8037C28.0197 48.0095 27.6892 48.158 27.5656 48.158ZM36.1986 41.1998C36.2067 41.2383 36.2149 41.2768 36.2219 41.3157C36.2557 41.2882 36.2896 41.2603 36.3242 41.2332C36.2822 41.223 36.2402 41.2112 36.1986 41.1998Z" fill="#7192E4"/>
<path d="M27.5469 48.0314C29.1491 45.3894 31.2971 46.3615 32.7129 44.3684C34.6458 41.6472 33.0965 39.5941 32.6204 39.0683C33.095 39.5434 33.6198 39.9562 34.1657 40.2968L34.1604 40.306L34.189 40.3233C34.9786 40.7862 35.2546 41.4835 35.0334 42.4502C33.9926 43.6173 33.3185 44.9116 33.0327 46.0379C32.8089 46.0106 32.5924 45.9944 32.3877 45.989C32.3248 45.9875 32.2625 45.9864 32.2002 45.9864C31.3402 45.9864 30.5151 46.1409 29.7537 46.3992C28.6542 46.8716 27.9712 47.4686 27.5469 48.0314ZM35.1853 39.5511C35.0737 39.4919 34.9622 39.4292 34.8514 39.3623C34.8244 39.3454 34.7992 39.3277 34.7715 39.3116L34.7494 39.2985L34.749 39.2989C34.3222 39.0329 33.9061 38.7127 33.523 38.3425L35.1853 39.5511Z" fill="#D6439E"/>
<path d="M33.2858 39.6678C33.0605 39.3757 32.7927 39.1177 32.4945 38.8903C32.5092 38.0231 31.6589 36.9872 31.6589 36.9872C31.6589 36.9872 33.3326 38.7913 33.2858 39.6678Z" fill="#9AAAE4"/>
<path d="M28.4781 47.8038C28.9879 47.3723 29.4057 47.1119 29.4057 47.1119C29.4057 47.1119 30.1373 46.5159 31.7826 46.5159C32.0577 46.5159 32.3583 46.5326 32.685 46.5714C32.68 46.5714 32.6748 46.5714 32.6698 46.5714C31.6277 46.5714 30.4528 46.9682 29.4881 47.365C29.1127 47.519 28.7696 47.6731 28.4781 47.8038Z" fill="#9AAAE4"/>
<path d="M36.2217 41.3158C36.2151 41.2769 36.2068 41.2384 36.1984 41.2002C36.2402 41.2112 36.2823 41.223 36.3237 41.2336C36.2892 41.2604 36.2558 41.2883 36.2217 41.3158Z" fill="#D6439E"/>
<path d="M26.1786 44.5422C25.4844 44.5422 24.7171 44.3328 23.9337 43.7423C23.5627 43.463 23.2423 43.1619 22.9673 42.8458C23.7254 43.412 24.802 43.9197 26.2245 43.9197C27.0731 43.9197 28.0447 43.7395 29.1458 43.2832C29.1458 43.2832 27.8807 44.5422 26.1786 44.5422Z" fill="#7192E4"/>
<path d="M26.2246 43.9197C24.8021 43.9197 23.7255 43.4119 22.9674 42.8455C21.2397 40.8577 21.3008 38.2601 21.7451 36.4841C21.8643 43.0398 28.0991 43.2844 29.03 43.2844C29.1052 43.2844 29.1459 43.2828 29.1459 43.2828C28.0448 43.7392 27.0733 43.9197 26.2246 43.9197Z" fill="#D6439E"/>
<path d="M39.3691 54.7981C39.0193 52.505 39.5303 50.2279 40.7704 48.5509C41.8214 47.2459 43.0546 46.9508 43.9543 46.9508C44.6972 46.9508 45.2126 47.1516 45.2126 47.1516C45.2047 47.1526 45.1961 47.1537 45.1878 47.1551L42.4736 47.5343C42.4736 47.5343 39.7057 51.8892 39.3691 54.7981ZM37.608 50.5132C36.926 48.7694 35.8541 47.877 34.9737 47.4212C34.5333 47.1356 34.0558 46.9053 33.5468 46.7515C33.7184 46.254 34.2291 44.9489 35.065 44.2896L35.0064 44.4358C35.0064 44.4358 35.0102 44.4312 35.0185 44.4218C34.6061 45.0763 34.3242 45.7185 34.1719 46.2748C34.3779 46.3368 34.5874 46.4102 34.7994 46.4979C37.608 47.9024 37.608 50.5132 37.608 50.5132Z" fill="#7192E4"/>
<path d="M39.3693 54.7981C38.8394 51.9872 38.2252 51.5642 37.6078 50.5133C37.6078 50.5133 37.6078 47.9024 34.7995 46.4978C34.5876 46.4101 34.3781 46.3367 34.1718 46.2748C34.324 45.7186 34.6062 45.0761 35.0186 44.4222C35.0365 44.4017 35.0744 44.3603 35.1329 44.3011C34.8752 46.3482 36.2085 47.0999 38.056 47.0999C38.9734 47.0999 40.0183 46.9145 41.0577 46.6101C41.8138 46.3886 42.446 46.3044 42.9703 46.3044C44.6339 46.3044 45.2127 47.1514 45.2127 47.1514C45.2127 47.1514 44.697 46.9507 43.9546 46.9507C43.0544 46.9507 41.8214 47.246 40.7703 48.5508C39.5301 50.2281 39.0196 52.5051 39.3693 54.7981ZM45.1879 47.1552C45.1962 47.1538 45.2044 47.1524 45.2127 47.1514L45.1879 47.1552Z" fill="#D6439E"/>
<path d="M34.9737 47.4211C34.1424 46.9911 33.4819 46.9505 33.4819 46.9505C33.4819 46.9505 33.5037 46.8767 33.5468 46.7515C34.0561 46.9053 34.5334 47.1356 34.9737 47.4211Z" fill="#9AAAE4"/>
<path d="M35.0063 44.436L35.065 44.2898C35.0905 44.2699 35.1163 44.2504 35.1422 44.2313C35.0998 44.295 35.0584 44.3584 35.0187 44.4221C35.0105 44.4312 35.0063 44.436 35.0063 44.436Z" fill="#9AAAE4"/>
<path d="M35.0187 44.4221C35.0584 44.3584 35.0998 44.295 35.1422 44.2313C35.1388 44.2549 35.1357 44.2779 35.1329 44.3013C35.0746 44.3601 35.0363 44.4019 35.0187 44.4221Z" fill="#D67ABA"/>
<path d="M37.7943 40.623C37.1767 40.623 36.3843 40.4122 35.4343 39.7325L35.3457 39.6683C35.3457 39.6679 35.3457 39.6679 35.3457 39.6679C35.2978 39.6327 35.2507 39.5968 35.2041 39.5612C36.0235 39.9926 36.8523 40.2216 37.5367 40.2216C37.6755 40.2216 37.8075 40.2123 37.9331 40.1933C39.0551 39.6109 40.3546 39.205 41.827 39.0859C41.9858 39.073 42.1438 39.0641 42.3006 39.058C42.1554 37.9716 42.2822 36.5354 42.8294 35.2361C42.8498 35.1921 42.8586 35.1679 42.8586 35.1679L42.6886 39.3658L39.3471 40.0592C39.3471 40.0592 38.8043 40.623 37.7943 40.623Z" fill="#7192E4"/>
<path d="M37.5365 40.2218C36.8523 40.2218 36.0237 39.9923 35.2041 39.5614C32.7632 37.6819 32.1375 35.1645 32.4823 32.9958C32.7465 35.8562 34.5273 38.0227 37.3973 38.0227C37.763 38.0227 38.1468 37.9877 38.5468 37.9143C41.7077 37.3339 42.6613 35.6009 42.8295 35.2358C42.282 36.5354 42.1552 37.9718 42.3006 39.0578C42.1436 39.0641 41.9858 39.0732 41.8271 39.0862C40.3545 39.2051 39.055 39.611 37.9332 40.193C37.8076 40.2122 37.6754 40.2218 37.5365 40.2218Z" fill="#D6439E"/>
<path d="M35.4334 39.7321C35.4046 39.7112 35.3751 39.6899 35.3459 39.6683L35.4334 39.7321Z" fill="#6576CF"/>
<path d="M46.9803 40.6382C46.8398 40.6382 46.6887 40.6325 46.5313 40.6188C45.977 40.3293 45.3822 40.1002 44.7565 39.9461C44.6619 39.863 44.5728 39.7708 44.4909 39.668C44.3669 39.5125 44.2714 39.3398 44.1997 39.1558C44.8606 39.2537 45.4938 39.418 46.0946 39.6479C46.9574 40.3718 47.8453 40.5676 47.8453 40.5676C47.8453 40.5676 47.4835 40.6382 46.9803 40.6382Z" fill="#7192E4"/>
<path d="M46.0948 39.6478C45.4939 39.4178 44.8609 39.2535 44.1997 39.1557C43.6521 37.748 44.491 35.6823 44.491 35.6823C44.4271 37.7208 45.2491 38.9381 46.0948 39.6478Z" fill="#D6439E"/>
<path d="M46.5317 40.6184C45.944 40.566 45.2693 40.3948 44.7566 39.9457C45.3824 40.1 45.9771 40.3292 46.5317 40.6184Z" fill="#9AAAE4"/>
<path d="M52.3669 46.47C51.7827 46.47 51.1445 46.3577 51.1445 46.3577L49.5771 42.1563C49.5771 42.1563 49.7033 42.3444 49.9278 42.6094C50.6418 43.5975 51.1616 44.7451 51.4559 45.9891C51.9343 46.2382 52.457 46.3609 52.9815 46.3609C53.0258 46.3609 53.0702 46.3599 53.1145 46.3584C52.9361 46.4418 52.6583 46.47 52.3669 46.47Z" fill="#7192E4"/>
<path d="M52.9817 46.3611C52.4569 46.3611 51.9344 46.2381 51.4561 45.9888C51.1616 44.745 50.6416 43.5974 49.9279 42.6096C50.3781 43.1402 51.2214 43.9789 52.2289 44.2312C52.63 44.3314 53.0407 44.3899 53.4419 44.3899C54.553 44.3899 55.5926 43.9417 56.1528 42.6904C56.1528 42.6904 56.0008 45.5387 53.116 46.3577C53.1153 46.3577 53.1149 46.3581 53.1145 46.3585C53.0703 46.36 53.026 46.3611 52.9817 46.3611Z" fill="#D6439E"/>
<path d="M59.7695 35.4657L59.4276 35.3964C58.189 34.6291 56.5166 34.1424 54.2551 34.1424C53.9707 34.1424 53.6784 34.1499 53.375 34.1659C53.375 34.1659 52.6049 29.559 48.241 28.0367C47.3711 27.6517 46.3867 27.4236 45.2785 27.4236C44.2286 27.4236 43.0679 27.6278 41.7874 28.099C41.5737 27.8353 41.2745 27.521 40.9029 27.1865L39.5557 25.2825L39.664 24.6492C39.664 24.6492 39.851 24.8 40.1721 25.0042C40.8571 25.5218 41.4887 26.1687 41.996 26.9598C43.131 26.617 44.2528 26.4469 45.336 26.4469C45.9233 26.4469 46.499 26.497 47.0594 26.5968C47.5785 26.8357 48.2025 27.0324 48.8723 27.1177C49.3678 27.3182 49.8442 27.5636 50.2989 27.854C50.6134 28.0545 50.9094 28.2747 51.19 28.5098C51.5862 28.0011 51.8195 27.2666 51.9253 26.5622C52.0469 26.743 52.2102 26.8006 52.3688 26.8006C52.6453 26.8006 52.9069 26.6254 52.9074 26.6254C52.9074 26.6268 52.8986 26.7111 52.8939 26.8577C52.8851 26.9523 52.8726 27.0507 52.8554 27.1528C52.6847 27.9191 52.3818 28.6639 51.9415 29.2157C53.0109 30.3558 53.7359 31.7648 54.0222 33.297C54.4179 33.2585 54.8062 33.2393 55.1856 33.2393C56.5964 33.2393 57.8884 33.5026 59.0254 34.0197C59.0611 34.0225 59.1019 34.0244 59.1469 34.0244C59.5417 34.0244 60.2571 33.8848 60.8152 33.0009C60.9441 32.7967 61.1074 32.5063 61.2508 32.154C62.0014 31.3043 62.2171 29.827 60.843 28.3566C60.843 28.3566 62.7246 28.8138 62.681 31.0729C62.713 31.0556 62.745 31.0369 62.7775 31.021C63.1676 30.8453 63.5146 30.776 63.8194 30.776C64.9787 30.776 65.5294 31.7793 65.5294 31.7793C65.2756 31.5343 64.8256 31.4154 64.3135 31.4154C63.2177 31.4154 61.8371 31.962 61.486 32.9958C60.971 34.5125 59.7695 35.4657 59.7695 35.4657Z" fill="#7192E4"/>
<path d="M59.4273 35.3964L53.375 34.1655C53.6782 34.1497 53.9706 34.1424 54.2549 34.1424C56.5166 34.1424 58.1886 34.6292 59.4273 35.3964ZM41.7013 28.3157L40.903 27.1868C41.2743 27.521 41.5735 27.8353 41.7874 28.0993C43.0678 27.6279 44.2285 27.4232 45.2784 27.4232C46.3867 27.4232 47.3711 27.6519 48.2407 28.0368C47.5608 27.7995 46.7943 27.6374 45.9296 27.579C44.3622 27.8824 41.7013 28.3157 41.7013 28.3157Z" fill="#9AAAE4"/>
<path d="M59.1469 34.024C59.1021 34.024 59.0615 34.0226 59.0254 34.0194C57.8882 33.5028 56.5966 33.2394 55.1855 33.2394C54.8064 33.2394 54.4181 33.2585 54.0219 33.2967C53.7361 31.7647 53.0112 30.3557 51.9418 29.2158C52.3818 28.6643 52.6847 27.9187 52.8556 27.1532C52.8726 27.0506 52.8851 26.9527 52.8939 26.8581C52.875 27.4469 52.9216 29.0456 53.8469 30.3958C54.6615 31.5838 57.3853 33.1177 59.3561 33.1177C60.1886 33.1177 60.8867 32.844 61.2501 32.1549C61.2501 32.1549 61.2506 32.1545 61.2506 32.154C61.1075 32.506 60.944 32.7969 60.8152 33.0011C60.2569 33.8851 59.5417 34.024 59.1469 34.024ZM65.5292 31.7796C65.5292 31.7796 64.9788 30.7763 63.8193 30.7763C63.5146 30.7763 63.1673 30.8453 62.7771 31.0206C62.7448 31.0369 62.713 31.056 62.6811 31.0728C62.725 28.8139 60.8433 28.3565 60.8433 28.3565C62.2586 28.4456 64.4653 28.9165 65.5292 31.7796ZM51.19 28.5095C50.9093 28.2749 50.6133 28.0549 50.2989 27.8539C49.8445 27.5639 49.3675 27.3182 48.8725 27.1178C49.1038 27.1471 49.3407 27.1635 49.5813 27.1635C50.3561 27.1635 51.1642 26.9947 51.9251 26.5615C51.9251 26.562 51.9256 26.562 51.9256 26.5625C51.8194 27.267 51.5862 28.0013 51.19 28.5095ZM41.996 26.9602C41.4887 26.169 40.8571 25.5219 40.1721 25.0043C40.8365 25.4258 42.0763 26.072 43.4308 26.072C44.1447 26.072 44.8904 25.893 45.6006 25.4062C45.6541 25.7172 46.2212 26.2114 47.0592 26.597C46.4991 26.4972 45.9233 26.4469 45.336 26.4469C44.2532 26.4469 43.1311 26.617 41.996 26.9602Z" fill="#D6439E"/>
<path d="M65.4514 39.8608C65.4514 39.8608 66.0005 39.3883 66.9248 39.3218C66.995 39.3205 67.0338 39.3165 67.0338 39.3165L65.7072 39.7728C65.6161 39.794 65.5303 39.823 65.4514 39.8608ZM63.5762 39.6017C63.0162 39.3205 62.4898 38.7898 62.2584 37.8055C62.142 37.31 62.0692 36.8599 62.0318 36.4498C62.7112 37.3536 63.2341 38.4228 63.5762 39.6017Z" fill="#7192E4"/>
<path d="M64.9366 39.9008C64.5707 39.9008 64.0607 39.845 63.576 39.602C63.234 38.4232 62.711 37.3539 62.0313 36.4501C61.8755 34.7428 62.332 33.7209 62.8163 32.9525C62.7305 35.2494 63.1169 36.8526 64.2757 38.1601C65.2168 39.2224 66.4482 39.3221 66.8777 39.3221C66.8946 39.3221 66.9103 39.3221 66.9247 39.3217C66 39.3885 65.4513 39.8608 65.4513 39.8608C65.4513 39.8608 65.2455 39.9008 64.9366 39.9008Z" fill="#D6439E"/>
<path d="M65.4513 39.8608C65.5304 39.8228 65.6163 39.7943 65.7074 39.7727L65.4513 39.8608Z" fill="#9AAAE4"/>
<path d="M71.7565 38.7709C71.5795 38.9834 70.7206 39.9688 69.7122 40.4131C69.5922 40.2929 69.4707 40.1793 69.3477 40.0733C67.0339 38.4993 65.4511 39.8608 65.4511 39.8608C67.0729 39.6912 69.2802 40.6766 70.6171 43.9543C72.083 47.549 70.6281 51.4104 70.6136 51.4484C70.6136 51.4484 72.4369 50.4592 72.4364 47.5339C72.4369 47.4041 72.4344 47.2719 72.4304 47.1391C72.9539 47.4173 73.4733 47.7666 73.6853 47.9322C75.0482 49.1437 75.3367 51.3849 74.4373 53.7852C73.4229 56.4918 70.1507 57.666 67.9109 57.8693C68.1363 56.6746 68.0459 55.0647 67.7699 54.0016C68.5393 52.0913 68.8568 50.2942 68.7128 48.6581C68.4648 45.8468 66.889 43.7165 64.0267 42.3222C63.8952 39.7704 63.0118 37.4831 61.553 35.8698C61.4205 35.4064 61.3935 34.637 61.7614 33.6754C61.7714 33.6597 61.7819 33.6456 61.7919 33.6299C61.9809 33.3306 62.1399 33.0267 62.2724 32.7208C63.1698 31.5976 64.8021 31.4396 65.5291 31.7798C65.5291 31.7798 64.6507 30.1796 62.7768 31.0211C62.7448 31.0373 62.7128 31.0559 62.6808 31.0731C62.7243 28.8141 60.843 28.3567 60.843 28.3567C62.2714 30.2452 61.2995 32.2337 60.815 33.001C60.1936 33.9853 59.3767 34.0464 59.0252 34.0197C57.5823 33.3639 55.89 33.1166 54.0216 33.2968C53.7357 31.7652 53.0107 30.3563 51.9413 29.2159C52.3818 28.6642 52.6848 27.9191 52.8553 27.1533C53.1922 25.1421 51.8144 24.5919 51.8144 24.5919C52.1458 25.1638 52.0638 27.3875 51.1899 28.5097C50.9089 28.2749 50.613 28.0549 50.2985 27.8544C47.9557 26.3587 45.0214 26.0457 41.9958 26.9604C40.7343 24.9932 38.7058 23.9185 36.9965 23.499C38.5258 22.2077 42.0252 20.8664 45.6698 22.9346C45.0114 24.1719 45.6006 25.4061 45.6006 25.4061C45.7958 24.1451 46.5173 23.3723 46.7453 23.1562C48.1497 21.9184 50.3555 21.2748 52.3668 21.5176C53.8527 21.6968 55.988 22.4348 57.7403 24.9261C58.0193 25.4788 58.5587 26.911 57.9473 28.8752C57.9473 28.8752 59.4166 27.0892 58.8197 24.9341C60.916 24.1098 64.3702 24.5278 67.1089 26.9922C69.7987 29.4133 69.0428 32.9692 69.0093 33.1181L68.9063 33.5724L68.9163 33.5759C68.7523 34.3099 68.3938 35.5937 67.7419 36.5048C67.7419 36.5048 69.2022 35.7633 69.8492 33.9182C72.5764 35.0283 74.4188 37.0743 75.0622 39.728C75.7446 42.5408 74.8952 45.4712 73.9243 46.8302C73.5088 46.549 72.8969 46.1775 72.331 45.9417C72.2225 45.1487 72.022 44.3263 71.6885 43.509C71.3135 42.5888 70.8721 41.8235 70.3911 41.1925C71.83 40.2939 71.7565 38.7709 71.7565 38.7709ZM67.0219 49.9756C67.0214 49.9958 67.0194 50.016 67.0184 50.0362C67.0109 50.1589 67.0009 50.2815 66.9884 50.4042C66.9854 50.4325 66.9824 50.4607 66.9789 50.489C66.9654 50.6088 66.9495 50.7287 66.9305 50.848C66.927 50.8701 66.924 50.8925 66.92 50.9146C66.8485 51.3467 66.744 51.7731 66.6075 52.1842C66.602 52.2003 66.5965 52.2164 66.591 52.2325C66.5515 52.3487 66.5095 52.4637 66.465 52.5773C66.4545 52.6043 66.444 52.6316 66.433 52.6586C66.391 52.7632 66.346 52.8664 66.2995 52.9683C66.2875 52.9951 66.2755 53.0224 66.263 53.0489C66.2085 53.1648 66.1515 53.279 66.0915 53.3906C66.087 53.3989 66.083 53.4077 66.0785 53.416C65.911 53.7252 65.7206 54.014 65.5131 54.2826C65.4666 54.3432 65.4211 54.4056 65.3721 54.4638C64.6657 55.3065 63.4208 56.2763 61.507 56.1159C61.507 56.1159 63.5458 57.1325 64.9101 56.2732C65.2286 56.0582 65.5296 55.8031 65.8136 55.5132C65.9315 55.3931 66.047 55.2685 66.1585 55.1359C66.2305 55.0499 66.3 54.9607 66.368 54.8702C66.5935 55.912 66.6765 57.7492 65.4536 60.0262C63.7168 63.2599 59.9536 63.9476 56.7179 63.4926C56.8509 63.3007 56.9709 63.0963 57.0784 62.8808C57.1354 62.7677 57.1894 62.6525 57.2389 62.5334C58.1228 60.3393 56.6199 58.289 56.6199 58.289C56.8749 60.1014 56.6524 61.6307 55.9955 62.7084C55.8685 62.9172 55.7245 63.1088 55.565 63.2825L55.562 63.282L55.365 63.4874C53.5242 65.4064 49.8265 66.2132 45.7136 63.6935C45.5877 63.6067 45.29 63.3589 44.9833 62.9967C44.67 62.627 44.3481 62.139 44.1926 61.5842C44.1926 61.5842 44.0064 62.5813 44.321 63.4822C44.3913 63.6837 44.4871 63.8799 44.6151 64.0596C42.4704 65.2764 37.8277 65.4766 34.7034 61.6427C34.4964 61.3645 34.328 61.0668 34.1913 60.7561C33.0011 58.0526 34.3309 54.3177 35.7347 53.0578C35.7347 53.0578 33.9194 53.4226 33.1154 55.7129C30.6759 55.3829 30.1293 53.605 30.018 53.0437C30.018 53.0437 29.2769 54.4459 30.8178 55.958C31.3647 56.3246 32.0443 56.5974 32.8657 56.7251C32.6053 58.1672 32.6605 59.7046 33.1989 61.04C33.2818 61.2457 33.3748 61.4469 33.4813 61.6419C32.5245 61.8338 30.6007 62.0106 28.4589 61.0351C25.9799 59.9064 25.0544 57.4772 24.7146 55.6383C24.6525 55.3023 24.6064 54.9571 24.5727 54.605C24.4913 53.7551 24.4908 52.8625 24.5755 51.9369C24.5755 51.9369 23.6717 52.4803 23.5419 53.9324C23.5208 54.1674 23.5195 54.4254 23.546 54.7093C23.5468 54.7168 23.5478 54.7238 23.5486 54.7311C22.4365 53.9758 20.5989 52.427 19.9895 50.1296C19.2206 47.231 20.1401 44.2107 21.1167 42.4913C21.2457 42.6514 21.3997 42.8255 21.5769 43.0042C21.9544 43.3854 22.4401 43.7882 23.0375 44.1279C23.4536 44.3642 23.9593 44.5888 24.5528 44.7443C25.0503 44.8745 25.6099 44.9568 26.2299 44.9568C28.2469 44.8044 29.1458 43.2829 29.1458 43.2829C25.3794 44.8437 23.1253 43.1779 22.1439 42.0961C21.7793 41.6938 21.5902 41.3722 21.5648 41.3268C21.2017 40.5327 20.6802 38.6543 21.0114 36.6088C21.4096 34.1499 22.8737 32.275 25.3632 31.0357L25.3972 31.0186C25.5133 30.9641 25.8385 30.855 26.2814 30.7531C27.1144 30.5612 28.361 30.3941 29.4082 30.6617C29.4082 30.6617 28.6033 29.5349 26.612 29.6783C26.3821 29.6945 26.1375 29.7268 25.8753 29.7813C26.8204 26.9746 29.657 24.5268 34.3275 24.8483C37.7525 25.0841 39.2906 26.0871 39.9778 26.8872C40.5196 27.5182 40.6679 28.1599 40.6787 28.65C40.492 28.7707 40.2644 28.9262 40.0118 29.117C39.5331 29.4784 38.9679 29.965 38.438 30.5688C36.7444 32.5845 37.6763 34.6068 37.6763 34.6068C37.8107 32.8435 38.8991 31.4623 39.907 30.5456C40.5304 29.9782 41.1232 29.5885 41.4394 29.3971L41.4438 29.3946C43.1085 28.4441 46.5828 27.6742 49.3431 29.4481C51.8288 31.0453 52.1753 33.477 52.3618 34.7839L52.3893 34.9717C52.4028 35.1489 52.3748 35.8965 52.1988 36.7774C51.9933 37.8062 51.5869 39.0173 50.8089 39.7134C50.8089 39.7134 52.6448 39.4418 53.2687 36.6391C53.3057 36.4205 53.3342 36.2131 53.3562 36.0212C53.3917 35.7153 53.4092 35.4513 53.4162 35.2494C54.6371 34.793 58.7042 34.6476 60.8405 37.939C61.7084 39.2767 62.1734 41.0198 62.1504 42.8477C62.1459 43.2092 62.1219 43.5636 62.0804 43.9093C61.7949 46.286 60.6635 48.231 59.0522 49.016C59.0522 49.016 61.271 49.016 62.5339 46.4006C62.7868 45.7418 62.9703 45.0235 63.0758 44.2612C63.1068 44.0381 63.1293 43.8099 63.1463 43.5797C64.1692 44.0189 66.168 45.1885 66.8235 47.7923C66.8555 47.9206 66.883 48.0508 66.908 48.182C66.9155 48.2234 66.922 48.2648 66.929 48.3062C66.9445 48.3986 66.959 48.4915 66.9705 48.5854C66.977 48.6318 66.9824 48.6783 66.9874 48.7252C66.9979 48.8201 67.0059 48.915 67.0124 49.0104C67.0154 49.0518 67.0189 49.0932 67.0214 49.1341C67.0284 49.2654 67.0329 49.3966 67.0334 49.5284C67.0334 49.5334 67.0334 49.538 67.0334 49.5425C67.0339 49.6864 67.0299 49.8312 67.0219 49.9756ZM76.6881 39.3257C75.9356 36.2242 73.8518 33.8208 70.7766 32.477C70.8846 30.9363 70.7081 27.968 68.2223 25.7307C65.4166 23.2057 61.5145 22.2354 58.5592 23.2294C56.5614 20.8048 54.2331 20.041 52.5653 19.8396C50.3635 19.5736 48.0437 20.1506 46.3109 21.3601C41.4337 18.7164 36.5057 21.0082 35.0192 23.1759L34.997 23.2082C34.8147 23.1905 34.63 23.1749 34.4413 23.1617C28.6051 22.7594 25.0871 26.2138 24.1287 29.7798C20.7773 31.641 19.6815 34.3488 19.3597 36.3362C19.0451 38.2787 19.3623 40.1622 19.8011 41.4227C18.7186 43.2329 17.3817 46.8312 18.3727 50.567C19.2441 53.8513 22.017 55.8046 23.1842 56.4999C23.8532 59.3812 25.4674 61.527 27.7705 62.5758C30.3888 63.7679 32.7277 63.5329 33.9039 63.2809C35.6121 65.1048 37.8599 66.2301 40.3087 66.4727C42.2165 66.6614 44.1189 66.2969 45.4829 65.5076C47.3658 66.5348 49.1791 66.9683 50.8174 66.9683C52.9557 66.968 54.7951 66.2293 56.0985 65.1072C58.0078 65.4236 59.9501 65.3526 61.6279 64.8978C64.0112 64.252 65.8431 62.846 66.925 60.832C67.1539 60.4056 67.3439 59.9901 67.5014 59.5869C70.2676 59.4979 74.6172 58.0794 76.0026 54.3833C76.9905 51.7466 76.7905 49.1977 75.5167 47.4607C76.6901 45.5439 77.4035 42.2763 76.6881 39.3257Z" fill="#36087A"/>
<path d="M44.9806 59.1914C42.7268 58.5035 40.8069 56.5383 40.5143 54.6202C40.2115 52.6352 40.6435 50.6783 41.699 49.2507C42.5692 48.0736 43.7844 47.3477 45.2127 47.1517C45.2127 47.1517 42.6886 46.1689 40.7704 48.5508C39.5301 50.228 39.0193 52.5051 39.3691 54.7982C39.7308 57.1702 41.9497 59.4886 44.645 60.3115C45.3376 60.5226 46.0294 60.6265 46.7097 60.6265C51.1443 60.1657 51.1443 57.3444 51.1443 57.3444C48.8455 59.8869 46.296 59.5931 44.9806 59.1914Z" fill="#36087A"/>
<path d="M36.2216 41.3158C36.2149 41.2769 36.2067 41.2385 36.1985 41.2C36.2402 41.2115 36.2822 41.223 36.3239 41.2336C36.2894 41.2606 36.2556 41.2884 36.2216 41.3158ZM56.7687 40.2739C57.3305 42.1266 56.4693 44.4549 55.3126 45.4672C54.2084 46.4336 52.6871 46.6307 51.4559 45.9893C51.0133 44.1194 50.0619 42.467 48.7065 41.2473C47.2429 39.9304 45.4089 39.19 43.3425 39.068C43.05 37.3833 43.603 34.3675 45.9133 33.342C45.9133 33.342 43.9221 33.0069 42.8582 35.1681C42.2865 36.485 42.1525 37.9526 42.3005 39.0582C42.1437 39.0644 41.9857 39.0733 41.8268 39.0861C40.3544 39.205 39.0549 39.6113 37.933 40.1934C37.099 40.3199 35.9464 40.0202 34.8512 39.3628C34.8242 39.346 34.799 39.3283 34.7712 39.312L34.7493 39.2987L34.749 39.2992C33.5112 38.5278 32.363 37.3015 31.856 35.7194C31.3954 34.2809 31.5689 32.697 32.3326 31.3726C33.3325 29.6689 34.3947 28.9444 34.3947 28.9444C34.3947 28.9444 32.3669 28.9444 31.3312 30.7838C30.4022 32.3955 30.1915 34.3251 30.7534 36.0792C30.7637 36.111 30.7755 36.142 30.7864 36.1738C29.8292 35.8343 28.8948 35.8171 28.1717 35.8966C26.3991 36.2025 26.3991 37.5526 26.3991 37.5526C26.7356 37.1768 29.4741 36.1875 31.5514 37.7511C32.2309 38.8018 33.1623 39.6709 34.1655 40.2973L34.1601 40.3062L34.1889 40.3234C34.9784 40.7867 35.2545 41.4838 35.033 42.4506C33.9925 43.6176 33.3183 44.9115 33.0325 46.0379C32.8087 46.0109 32.5922 45.995 32.3875 45.9893C31.4597 45.9654 30.57 46.1223 29.7535 46.3995C26.8093 47.6642 26.8518 49.8237 26.8518 49.8237C27.8202 48.4529 30.02 47.098 32.3571 47.159C34.4423 47.2138 36.258 48.3742 37.6078 50.5138C37.6078 50.5138 37.6078 47.9025 34.7995 46.4981C34.5876 46.4101 34.378 46.3367 34.1717 46.2749C34.7657 44.1057 37.3333 40.6227 41.9191 40.2522C47.26 39.8195 50.1241 43.6561 50.5238 47.4021C50.7839 49.837 49.9503 51.3612 49.2056 52.2113C48.3037 53.2404 47.0249 53.8416 45.6974 53.861C45.6974 53.861 47.7525 54.9176 50.0733 52.9866C50.315 52.7108 50.5313 52.4137 50.7213 52.0985C51.3697 53.4588 52.4244 54.426 53.7829 54.8742C56.4868 55.746 57.4675 53.4101 57.4675 53.4101C56.6518 54.0896 55.2999 54.2801 54.1025 53.8858C52.7637 53.4437 51.7852 52.3514 51.325 50.7967C51.681 49.7503 51.8053 48.5758 51.681 47.3376C52.1048 47.4666 52.5417 47.533 52.9804 47.533C54.0775 47.533 55.1791 47.132 56.0713 46.3513C56.64 45.8536 57.1562 45.1078 57.5257 44.2414C58.5248 41.3923 56.7687 40.2739 56.7687 40.2739Z" fill="#36087A"/>
<path d="M47.4306 84.1752C36.6347 84.1752 27.8831 83.0525 27.8831 81.6675C27.8831 80.2827 36.6347 79.16 47.4306 79.16C58.2267 79.16 66.9784 80.2827 66.9784 81.6675C66.9784 83.0525 58.2267 84.1752 47.4306 84.1752Z" fill="#7192E4"/>
</g>
<defs>
<radialGradient id="paint0_radial_970_1982" cx="0" cy="0" r="1" gradientUnits="userSpaceOnUse" gradientTransform="translate(47 29) rotate(50.906) scale(61.8466 64.4504)">
<stop stop-color="#B5EDFF"/>
<stop offset="1" stop-color="#A38CD5"/>
</radialGradient>
<radialGradient id="paint1_radial_970_1982" cx="0" cy="0" r="1" gradientUnits="userSpaceOnUse" gradientTransform="translate(47.0423 29.459) rotate(51.1875) scale(58.5487 60.8854)">
<stop stop-color="#B5EDFF"/>
<stop offset="1" stop-color="#A38CD5"/>
</radialGradient>
<radialGradient id="paint2_radial_970_1982" cx="0" cy="0" r="1" gradientUnits="userSpaceOnUse" gradientTransform="translate(47 29.5396) rotate(50.906) scale(58.194 60.644)">
<stop stop-color="#B5EDFF"/>
<stop offset="1" stop-color="#A38CD5"/>
</radialGradient>
<radialGradient id="paint3_radial_970_1982" cx="0" cy="0" r="1" gradientUnits="userSpaceOnUse" gradientTransform="translate(50.765 50.7106) rotate(58.644) scale(73.9017 86.6011)">
<stop stop-color="white"/>
<stop offset="1" stop-color="white" stop-opacity="0"/>
</radialGradient>
</defs>
</svg>
