<svg width="94" height="94" viewBox="0 0 94 94" fill="none" xmlns="http://www.w3.org/2000/svg">
<path d="M47.045 92.0901C71.9225 92.0901 92.0901 71.9225 92.0901 47.045C92.0901 22.1667 71.9225 2 47.045 2C22.1676 2 2 22.1667 2 47.045C2 71.9225 22.1676 92.0901 47.045 92.0901Z" fill="url(#paint0_radial_975_8077)"/>
<path d="M47.0424 90.2875C70.4272 90.2875 89.3847 71.1385 89.3847 47.5175C89.3847 23.8956 70.4272 4.74744 47.0424 4.74744C23.6575 4.74744 4.70001 23.8956 4.70001 47.5175C4.70001 71.1385 23.6575 90.2875 47.0424 90.2875Z" fill="url(#paint1_radial_975_8077)"/>
<mask id="mask0_975_8077" style="mask-type:alpha" maskUnits="userSpaceOnUse" x="4" y="5" width="86" height="85">
<path d="M47 89.7599C70.3848 89.7599 89.3423 70.8024 89.3423 47.4175C89.3423 24.0319 70.3848 5.0752 47 5.0752C23.6152 5.0752 4.65765 24.0319 4.65765 47.4175C4.65765 70.8024 23.6152 89.7599 47 89.7599Z" fill="url(#paint2_radial_975_8077)"/>
</mask>
<g mask="url(#mask0_975_8077)">
<path d="M68.764 11.6611C72.1378 17.7965 74.0568 24.833 74.0568 32.3225C74.0568 56.1172 54.6978 75.4016 30.8108 75.4016C24.1445 75.4016 17.8312 73.901 12.187 71.2148C19.7646 82.4016 32.6045 89.7599 47.1711 89.7599C70.4628 89.7599 89.344 70.9514 89.344 47.7495C89.3364 32.4182 81.0831 18.9974 68.7648 11.662L68.764 11.6611Z" fill="url(#paint3_radial_975_8077)" fill-opacity="0.2"/>
<path d="M91.9882 46.7755C91.8262 47.133 91.5927 47.4383 91.2994 47.6987C90.8427 48.1043 90.2828 48.1815 89.6813 48.0911C89.1264 48.0077 88.6472 47.7593 88.2304 47.3893C87.8455 47.0473 87.4431 46.7282 87.0069 46.4484C86.5325 46.1442 86.0125 45.9675 85.463 45.8783C85.08 45.8159 84.6939 45.7718 84.308 45.7337C83.7828 45.6816 83.2966 45.5248 82.8677 45.2132C82.1765 44.7113 81.8762 44.0627 82.006 43.2413C82.1503 42.3297 82.6606 41.6839 83.4893 41.2772C83.9058 41.0728 84.3498 40.9171 84.7815 40.7402C84.9768 40.6602 85.1735 40.5831 85.3683 40.5021C85.7221 40.3552 85.9868 40.1018 86.2361 39.8302C86.3807 39.6727 86.5247 39.5151 86.6711 39.3592C87.2202 38.7735 87.9121 38.5719 88.7299 38.7036C89.3573 38.8046 89.9134 39.0573 90.4001 39.4631C90.9657 39.9346 91.2439 40.5226 91.2196 41.232C91.2122 41.442 91.2054 41.6528 91.1825 41.861C91.1249 42.389 91.2137 42.8942 91.4335 43.3901C91.6354 43.8454 91.8279 44.3053 91.9967 44.7716C92.1852 45.2916 92.2459 45.825 92.116 46.3601C92.0817 46.5007 92.0312 46.6373 91.9882 46.7755Z" fill="#F3F2F1"/>
<path d="M89.9944 37.0989C89.8157 37.4952 89.5491 37.86 89.089 38.0986C88.9226 38.185 88.737 38.2455 88.5221 38.2599C88.0552 38.2908 87.6547 38.1245 87.3161 37.7943C87.1068 37.5901 86.9581 37.364 86.8747 37.1285C86.4697 35.9868 86.6881 35.0396 87.5423 34.3039C87.6698 34.1939 87.8455 34.1126 88.0238 34.0509C88.6066 33.8498 89.2544 34.0578 89.6815 34.5728C89.9949 34.9506 90.1269 35.3481 90.1798 35.7511C90.24 36.2084 90.1767 36.6639 89.9944 37.0989Z" fill="#F3F2F1"/>
<path d="M82.7487 37.0445C82.8892 36.7256 83.0619 36.4733 83.3178 36.2767C83.9505 35.7904 84.7971 35.918 85.3608 36.5866C85.7232 37.0167 85.8859 37.4945 85.92 37.9952C85.9648 38.6527 85.813 39.246 85.3546 39.7264C85.2609 39.8246 85.1477 39.912 85.0268 39.984C84.4877 40.3064 83.8194 40.2099 83.3136 39.7429C82.9733 39.4289 82.779 39.0559 82.6701 38.6539C82.5145 38.0786 82.5518 37.5298 82.7487 37.0445Z" fill="#F3F2F1"/>
<path d="M77.8265 18.15C77.4269 18.707 76.9225 19.15 76.3314 19.4962C75.4107 20.0352 74.4255 19.9771 73.4268 19.6179C72.5047 19.2866 71.7695 18.6978 71.1825 17.9227C70.6403 17.2066 70.0603 16.5229 69.409 15.8955C68.701 15.2135 67.8707 14.7342 66.9606 14.3941C66.3261 14.1572 65.68 13.9505 65.0327 13.7538C64.151 13.486 63.3721 13.0525 62.7442 12.373C61.7323 11.2786 61.44 10.066 61.9434 8.70338C62.5017 7.1919 63.5965 6.25953 65.1543 5.84504C65.9379 5.63661 66.7509 5.52122 67.5508 5.36484C67.9125 5.29419 68.2757 5.22966 68.6368 5.15713C69.2928 5.02571 69.8329 4.68187 70.3524 4.30153C70.6537 4.0811 70.9546 3.86019 71.2583 3.64306C72.3989 2.82679 73.6523 2.71705 75.0076 3.22079C76.0476 3.60726 76.9131 4.22899 77.6078 5.08906C78.415 6.08878 78.6898 7.19025 78.4057 8.39675C78.3217 8.75401 78.2376 9.11222 78.1276 9.461C77.848 10.3453 77.8274 11.2405 78.0343 12.1648C78.2241 13.0129 78.3965 13.8657 78.5264 14.7217C78.6712 15.676 78.5928 16.61 78.1871 17.4819C78.0806 17.7113 77.9474 17.9277 77.8265 18.15Z" fill="#E7E8E5"/>
<path d="M84.4648 4.61277C83.6088 5.53643 82.6446 6.12684 81.3361 6.22811C80.9906 6.25495 80.6123 6.22787 80.2451 6.14874C79.109 5.90358 78.3297 5.04963 78.2268 3.97408C78.1566 3.24071 78.347 2.61945 78.6761 2.07001C79.3416 0.959837 80.341 0.223641 81.7184 -0.0719193C82.2217 -0.179781 82.7561 -0.190612 83.328 -0.0514275C84.4299 0.21705 85.1971 1.04627 85.3086 2.0905C85.3858 2.81374 85.2016 3.42488 84.8908 3.97549C84.7463 4.23149 84.5661 4.46299 84.4648 4.61277Z" fill="#E7E8E5"/>
<path d="M85.4508 12.1337C84.6826 13.1407 83.5625 13.8432 82.004 13.9198C81.4453 13.9471 80.8872 13.8501 80.3493 13.5724C79.5797 13.1749 79.1454 12.5734 79.02 11.804C78.9015 11.0758 79.0864 10.4338 79.4453 9.86506C80.1783 8.70354 81.2773 7.98901 82.7809 7.81803C83.5788 7.72713 84.3735 7.84936 85.1048 8.38396C85.6836 8.80669 85.9824 9.35636 86.0608 9.98846C86.1576 10.7699 85.9063 11.4283 85.4508 12.1337Z" fill="#E7E8E5"/>
<path d="M47.7831 12.1719C47.9515 12.6026 48.0167 13.0503 47.9947 13.5112C47.9607 14.229 47.5645 14.7629 46.9923 15.1937C46.4643 15.591 45.8595 15.7883 45.2037 15.8333C44.5977 15.875 43.9963 15.9497 43.4005 16.0853C42.7527 16.2327 42.1746 16.5241 41.6464 16.9117C41.278 17.1821 40.9224 17.4701 40.5721 17.7623C40.0951 18.1606 39.5621 18.4397 38.9453 18.543C37.9519 18.7098 37.1567 18.4272 36.5702 17.6411C35.9193 16.7685 35.7946 15.8076 36.1345 14.7766C36.3052 14.258 36.5397 13.7571 36.7463 13.2484C36.8396 13.0185 36.9369 12.7899 37.029 12.5595C37.1964 12.141 37.2009 11.7098 37.1771 11.2767C37.1631 11.0257 37.149 10.7746 37.1379 10.5234C37.0961 9.57921 37.4961 8.83195 38.2815 8.25379C38.8842 7.81033 39.5558 7.55174 40.2996 7.47732C41.1642 7.39089 41.8899 7.64241 42.4689 8.24743C42.6403 8.42665 42.8125 8.60633 42.9695 8.79709C43.3677 9.28082 43.8673 9.62254 44.4676 9.84675C45.0181 10.0528 45.5652 10.2702 46.0982 10.5128C46.6926 10.7829 47.193 11.1719 47.5375 11.7221C47.6282 11.8667 47.7019 12.0216 47.7831 12.1719Z" fill="#F3F2F1"/>
<path d="M37.9698 5.85617C38.1573 6.33307 38.2456 6.85777 38.0678 7.44042C38.0033 7.65166 37.9015 7.85773 37.7364 8.04967C37.3777 8.46745 36.9071 8.66646 36.3491 8.6787C36.0043 8.68624 35.6909 8.62477 35.4231 8.50066C34.1253 7.89941 33.5056 6.93525 33.5885 5.61124C33.6008 5.41341 33.6771 5.1991 33.772 4.99868C34.0825 4.34327 34.7922 3.9707 35.5792 4.03664C36.1564 4.08492 36.6008 4.30159 36.9848 4.58938C37.4207 4.91579 37.753 5.34465 37.9698 5.85617Z" fill="#F3F2F1"/>
<path d="M42.5574 3.42202C42.765 4.24535 42.7442 5.00674 42.3189 5.78179C42.2065 5.98645 42.0518 6.18969 41.8714 6.3675C41.3134 6.9174 40.5419 7.04175 39.8941 6.70309C39.4528 6.47206 39.1708 6.13576 38.9809 5.74741C38.597 4.9627 38.5483 4.12784 38.8891 3.24233C39.0135 2.91898 39.2046 2.61353 39.4946 2.34246C40.053 1.82035 40.8061 1.69388 41.439 2.01605C41.8775 2.23931 42.1559 2.56878 42.3533 2.94701C42.445 3.12269 42.5097 3.30968 42.5574 3.42202Z" fill="#F3F2F1"/>
<path d="M31.9587 11.9048C31.8052 11.5242 31.7348 11.1712 31.7797 10.7942C31.8907 9.86178 32.6962 9.2563 33.7253 9.33401C34.3874 9.38394 34.9249 9.64159 35.376 10.0257C35.968 10.5299 36.3437 11.1465 36.3713 11.9274C36.377 12.0871 36.3574 12.2543 36.3189 12.4151C36.1465 13.1337 35.5141 13.615 34.7027 13.6551C34.157 13.6822 33.6821 13.5378 33.253 13.2978C32.6388 12.9542 32.2064 12.4705 31.9587 11.9048Z" fill="#F3F2F1"/>
<path d="M47.1779 5.63831C47.4655 6.44303 47.4504 7.33348 46.9188 8.24018C46.7282 8.56518 46.4673 8.84402 46.1114 9.0449C45.6023 9.33198 45.1012 9.35483 44.6187 9.1417C44.1625 8.94034 43.8666 8.59909 43.6767 8.18695C43.289 7.34526 43.2892 6.46211 43.7469 5.55141C43.9896 5.06815 44.3521 4.6652 44.9248 4.45018C45.3779 4.27991 45.7999 4.31406 46.187 4.50317C46.6657 4.73679 46.9462 5.12137 47.1779 5.63831Z" fill="#F3F2F1"/>
<path d="M19.1061 39.146C19.2966 39.6283 19.3717 40.1302 19.3493 40.6473C19.3141 41.4528 18.8718 42.0533 18.2321 42.5389C17.6417 42.9869 16.964 43.2111 16.2286 43.2643C15.549 43.3135 14.8748 43.3999 14.2071 43.5547C13.4812 43.7231 12.8341 44.0521 12.2432 44.4892C11.8312 44.7939 11.4337 45.1187 11.042 45.4481C10.5088 45.8968 9.91201 46.2121 9.22073 46.3308C8.10704 46.522 7.21384 46.2088 6.55243 45.3292C5.81863 44.3535 5.67465 43.2761 6.05119 42.1181C6.24055 41.5357 6.50143 40.9728 6.73084 40.4015C6.83463 40.1431 6.94274 39.8862 7.04513 39.6276C7.2311 39.1575 7.23405 38.6738 7.20536 38.1879C7.18876 37.9065 7.17168 37.6249 7.15813 37.343C7.10712 36.2844 7.55266 35.4445 8.4312 34.7927C9.10523 34.2922 9.85748 33.9992 10.6914 33.9128C11.6607 33.812 12.4758 34.0908 13.128 34.7672C13.321 34.9674 13.5148 35.1681 13.6919 35.3814C14.1405 35.9221 14.7027 36.3034 15.3768 36.5524C15.9953 36.781 16.6099 37.0224 17.2089 37.2923C17.8767 37.5928 18.4397 38.0269 18.8286 38.6425C18.9309 38.8045 19.0142 38.9778 19.1061 39.146Z" fill="#F3F2F1"/>
<path d="M8.07121 32.1167C8.28336 32.6509 8.38483 33.2389 8.18798 33.8936C8.11669 34.1308 8.00331 34.362 7.819 34.5782C7.41838 35.0483 6.89148 35.2737 6.26551 35.2897C5.879 35.2996 5.5271 35.232 5.22617 35.094C3.7678 34.4252 3.06857 33.3465 3.15575 31.8612C3.16874 31.6394 3.25316 31.3982 3.35877 31.1731C3.70423 30.4366 4.49856 30.0155 5.38161 30.0862C6.02936 30.138 6.52879 30.3792 6.96077 30.7002C7.45104 31.0645 7.82573 31.544 8.07121 32.1167Z" fill="#F3F2F1"/>
<path d="M13.2062 29.3855C13.4428 30.308 13.4226 31.1622 12.949 32.0333C12.824 32.2632 12.6512 32.4921 12.4496 32.6923C11.8263 33.3116 10.9614 33.4543 10.2334 33.0773C9.73714 32.8201 9.41945 32.444 9.20479 32.0093C8.77077 31.1308 8.71256 30.1945 9.09078 29.1997C9.22895 28.8363 9.44186 28.4932 9.76599 28.1877C10.3901 27.5997 11.2343 27.4546 11.9456 27.8133C12.4384 28.0617 12.7522 28.4301 12.9752 28.8533C13.079 29.0502 13.1524 29.2597 13.2062 29.3855Z" fill="#F3F2F1"/>
<path d="M1.35513 38.9426C1.18123 38.5161 1.10061 38.1207 1.14933 37.6975C1.26979 36.6514 2.17067 35.9684 3.32528 36.0513C4.06823 36.1045 4.67234 36.3909 5.1798 36.8198C5.84606 37.3829 6.27021 38.0729 6.30471 38.9487C6.31172 39.128 6.29052 39.3152 6.24789 39.4961C6.05767 40.3027 5.35053 40.8455 4.44054 40.894C3.82859 40.9265 3.29513 40.7666 2.81277 40.4993C2.12252 40.1166 1.63527 39.5759 1.35513 38.9426Z" fill="#F3F2F1"/>
<path d="M18.3986 31.846C18.7247 32.7473 18.7117 33.7463 18.1192 34.7656C17.9069 35.1311 17.6155 35.445 17.2174 35.6718C16.6473 35.9961 16.0855 36.0239 15.5435 35.7869C15.0307 35.5627 14.6975 35.1815 14.4827 34.7201C14.044 33.7776 14.0404 32.7871 14.5497 31.7636C14.8201 31.2205 15.2249 30.7669 15.8663 30.5231C16.3739 30.3303 16.8471 30.3668 17.2821 30.5771C17.8203 30.8371 18.1365 31.2673 18.3986 31.846Z" fill="#F3F2F1"/>
<path d="M18.0571 18.3787C17.9062 18.9635 17.6328 19.4877 17.2571 19.9597C16.6719 20.6949 15.8433 20.9594 14.9075 20.9808C14.0436 21.0006 13.2515 20.7498 12.5217 20.2986C11.8475 19.8815 11.1526 19.5035 10.4173 19.1941C9.61749 18.8578 8.78205 18.7268 7.92535 18.736C7.32806 18.7421 6.73087 18.7772 6.1359 18.8208C5.32551 18.8801 4.54698 18.7704 3.814 18.411C2.63317 17.8319 2.00608 16.9276 1.98561 15.6476C1.96282 14.2275 2.56563 13.114 3.71456 12.2791C4.2923 11.8592 4.92399 11.5067 5.53198 11.1244C5.80676 10.9516 6.0848 10.7832 6.35875 10.6092C6.85624 10.2931 7.19063 9.83905 7.4966 9.36168C7.674 9.08496 7.85101 8.808 8.03133 8.53293C8.70908 7.50024 9.70477 7.0125 10.9798 6.99696C11.958 6.98495 12.8679 7.22163 13.7134 7.70866C14.6959 8.27482 15.2731 9.09344 15.4241 10.1754C15.4688 10.4956 15.514 10.8171 15.5346 11.1388C15.5868 11.9546 15.8553 12.6972 16.3199 13.3914C16.7463 14.0287 17.16 14.6754 17.5397 15.3379C17.9631 16.0767 18.1962 16.8696 18.1407 17.7151C18.1261 17.9374 18.0857 18.1576 18.0571 18.3787Z" fill="#E7E8E5"/>
<path d="M12.4725 4.23805C12.3064 4.88617 11.9989 5.50979 11.3646 5.99234C11.1347 6.16732 10.8693 6.30815 10.5474 6.38634C9.84763 6.55614 9.19636 6.40942 8.59539 5.99776C8.22419 5.74341 7.93888 5.43984 7.74986 5.10448C6.83371 3.47996 6.91414 1.98638 8.01454 0.645642C8.1789 0.445462 8.42373 0.275664 8.67759 0.135774C9.50817 -0.322993 10.5454 -0.178396 11.3295 0.490206C11.9046 0.980765 12.2099 1.54857 12.3971 2.14558C12.6094 2.82337 12.6338 3.53083 12.4725 4.23805Z" fill="#E7E8E5"/>
<path d="M19.1989 5.15261C18.7894 6.18365 18.1849 6.97471 17.1411 7.47304C16.8658 7.60445 16.546 7.70243 16.2187 7.75377C15.2066 7.9125 14.2935 7.45727 13.8658 6.60544C13.5743 6.02468 13.5328 5.45358 13.6284 4.89755C13.8216 3.77348 14.4087 2.85124 15.4469 2.17157C15.8263 1.92334 16.2624 1.74507 16.7772 1.67818C17.7686 1.54936 18.6638 1.9881 19.0884 2.8112C19.3826 3.38159 19.4258 3.94234 19.3458 4.49366C19.3087 4.74989 19.2343 4.99741 19.1989 5.15261Z" fill="#E7E8E5"/>
<path d="M1.4741 6.09025C1.6025 5.57001 1.7977 5.1421 2.13374 4.77636C2.9645 3.87249 4.28166 3.84305 5.31334 4.7083C5.97703 5.26503 6.35008 5.94682 6.53439 6.69715C6.77634 7.68227 6.70319 8.6217 6.13523 9.47094C6.01902 9.64451 5.87058 9.80677 5.70648 9.94808C4.97416 10.5785 3.93547 10.6082 3.04465 10.0333C2.44552 9.64687 2.05219 9.13252 1.78091 8.55152C1.39263 7.72019 1.30401 6.87849 1.4741 6.09025Z" fill="#E7E8E5"/>
<path d="M22.4039 11.0103C22.0934 12.0821 21.3962 13.0149 20.139 13.5719C19.6884 13.7716 19.1987 13.8689 18.6678 13.8109C17.9081 13.7283 17.3595 13.3712 17.011 12.7782C16.6813 12.2173 16.6287 11.6309 16.7425 11.0494C16.9751 9.86197 17.651 8.92583 18.8326 8.30857C19.4596 7.98075 20.1522 7.82931 20.924 8.0368C21.5346 8.20118 21.9554 8.5582 22.2213 9.053C22.5503 9.66485 22.5536 10.2861 22.4039 11.0103Z" fill="#E7E8E5"/>
<path d="M37.5499 70.5126C37.1192 69.6627 36.5605 69.1875 36.5605 69.1875C36.5605 69.1875 36.3767 67.0455 35.5252 65.7816C34.6736 64.5179 33.4027 63.4932 31.8713 64.4602L32.0765 64.3426C31.3031 63.7503 30.0607 63.6879 29.1431 64.0146C28.7133 64.1677 28.2674 64.3923 27.8896 64.722C26.7256 65.738 26.1197 66.7976 26.1197 66.7976C26.1197 66.7976 24.6239 66.8918 24.0305 69.2487C23.5787 71.0432 23.2743 73.6908 23.2743 73.6908C23.2743 73.6908 23.4517 78.0128 23.7095 79.3161C23.9674 80.6191 23.1246 83.3689 23.0771 83.9207C23.0297 84.4725 22.7673 84.8946 22.3954 87.0708C22.0235 89.2471 21.3686 93.8792 21.3686 93.8792L34.6916 93.8789C34.6916 93.8789 35.026 87.8565 34.992 87.1978C34.9582 86.5388 35.1459 84.0048 35.5124 82.4806C35.8792 80.9567 37.3055 76.1516 37.3055 76.1516C37.8271 73.9089 37.9809 71.3626 37.5499 70.5126Z" fill="#33535F"/>
<path d="M25.3675 72.3918C25.3146 72.3918 25.2617 72.3911 25.2088 72.3895C24.856 72.3789 24.4515 72.304 24.2772 71.9978C24.1426 71.7611 24.1951 71.4644 24.2805 71.2061C24.5054 70.5274 24.9366 69.9181 25.5024 69.4798L27.1892 69.5639C27.6669 69.8051 27.8948 70.4094 27.7791 70.9308C27.6636 71.4522 27.2567 71.8782 26.775 72.1116C26.3409 72.3221 25.8519 72.3918 25.3675 72.3918Z" fill="#20353D"/>
<path d="M33.4402 69.9265C32.9211 69.9265 32.3971 69.7447 32.0294 69.3813C31.6226 68.9795 31.4372 68.3477 31.6245 67.8079C31.692 67.6131 31.8171 67.4233 32.0101 67.3489C32.0828 67.3209 32.1598 67.3112 32.2377 67.3112C32.3237 67.3112 32.4108 67.323 32.4958 67.335C33.1722 67.4302 33.8483 67.5255 34.5246 67.6209L35.1154 68.0924C35.2802 68.5205 35.144 69.0302 34.8335 69.3688C34.5232 69.7075 34.0636 69.886 33.605 69.9204C33.5502 69.9244 33.4952 69.9265 33.4402 69.9265Z" fill="#20353D"/>
<path d="M33.478 64.9223C33.7517 64.8851 34.0301 64.9564 34.2672 65.098C34.6998 65.3561 35.4326 65.9048 35.4172 66.6549C35.3955 67.7175 35.366 68.9605 34.1005 69.2452C32.8347 69.5302 31.2778 68.6539 31.9506 66.8393C32.4741 65.4281 32.941 64.9953 33.478 64.9223Z" fill="#17282F"/>
<path d="M29.5041 69.2256C29.1881 69.2256 28.8693 69.1316 28.6093 68.9517C28.1023 68.601 27.8265 67.9647 27.86 67.3503C27.8773 67.0333 27.9788 66.7071 28.2095 66.4881C28.4197 66.2884 28.7156 66.1986 29.0056 66.1845C29.0377 66.1828 29.0696 66.1821 29.1015 66.1821C29.3591 66.1821 29.6153 66.2304 29.8689 66.2785L30.7406 67.3234C31.0407 67.8608 30.844 68.6031 30.3448 68.9649C30.1018 69.1408 29.804 69.2256 29.5041 69.2256Z" fill="#20353D"/>
<path d="M30.1207 64.369C30.5609 64.1851 31.0828 64.2621 31.4167 64.6024C31.4729 64.6596 31.5144 64.718 31.5293 64.7741C31.5985 65.0353 31.4337 67.0719 30.3687 68.1169C29.3036 69.1616 27.8879 67.8557 28.0018 66.7858C28.0943 65.9151 29.1039 64.7939 30.1207 64.369Z" fill="#17282F"/>
<path d="M26.4989 67.6863C26.4989 67.6863 25.785 66.9598 25.0879 68.2485C24.3908 69.5369 24.1344 71.4448 24.8863 71.5719C25.6379 71.6993 27.3413 71.2843 27.406 70.2517C27.4707 69.219 26.9148 67.9157 26.4989 67.6863Z" fill="#17282F"/>
<path d="M35.1969 73.8904C35.1802 73.8904 35.1632 73.8901 35.1462 73.8894C34.574 73.8694 34.0325 73.5255 33.7397 73.035C33.4471 72.5442 33.3989 71.9241 33.5763 71.3812C33.6665 71.1062 33.8695 70.8137 34.1569 70.8137C34.1614 70.8137 34.1661 70.8139 34.1709 70.8139C34.3034 70.8184 34.4243 70.886 34.5381 70.9535C35.0191 71.2388 35.4827 71.553 35.9257 71.894L36.5522 73.0764C36.3056 73.5731 35.7524 73.8904 35.1969 73.8904Z" fill="#20353D"/>
<path d="M37.4288 71.417C37.4729 69.9693 35.7823 69.0546 34.5844 69.8733C34.5336 69.9079 34.4845 69.9458 34.4372 69.987C33.7338 70.6022 33.5985 71.8413 34.216 72.4904C34.8335 73.1395 36.1609 74.2946 37.088 72.591C37.3197 72.1652 37.4179 71.771 37.4288 71.417Z" fill="#17282F"/>
<path d="M33.0877 79.2319C32.7181 79.2319 32.3592 79.0805 32.0326 78.9019C31.6753 78.7067 31.334 78.4743 30.9475 78.3461C30.6572 78.2498 30.3559 78.2166 30.0506 78.2166C29.6624 78.2166 29.2675 78.2706 28.8814 78.3167C28.5992 78.3506 28.3092 78.3789 28.023 78.3789C27.6091 78.3789 27.2024 78.32 26.8366 78.1337C26.2177 77.8186 25.803 77.0066 26.1516 76.4072C26.3206 76.1162 26.6274 75.9334 26.9351 75.7954C27.5621 75.5147 28.2495 75.3722 28.9367 75.3722C29.3927 75.3722 29.8489 75.435 30.287 75.5618L34.0686 78.5143C34.0075 78.9158 33.5975 79.1956 33.1913 79.2279C33.1569 79.2304 33.1222 79.2319 33.0877 79.2319Z" fill="#20353D"/>
<path d="M34.9036 75.4967C34.6481 74.9858 34.2346 74.5699 33.7401 74.2826C33.2681 74.0082 32.5455 73.5134 32.1731 72.8804C31.5907 71.891 31.7241 71.1416 30.5517 71.0792C29.3794 71.0168 29.4585 72.0356 28.0287 72.5021C25.7404 73.2492 25.2386 73.7995 25.0202 74.8061C24.802 75.8129 25.0379 76.3066 25.6072 76.9702C26.1768 77.6339 28.079 76.6171 29.5998 76.6706C31.1208 76.7239 32.2737 78.3031 33.1977 78.7546C34.1217 79.2059 35.0158 78.2763 35.1615 76.8409C35.2151 76.3119 35.0848 75.8593 34.9036 75.4967Z" fill="#17282F"/>
<path d="M29.3138 90.2778C29.8317 90.1912 30.4225 90.0536 30.6617 89.5876C30.84 89.2405 30.7548 88.8086 30.5614 88.4694C30.1141 87.6854 29.1487 87.2914 28.2457 87.3447C27.7866 87.3717 27.3247 87.5043 26.9587 87.782C26.5927 88.0598 26.3334 88.4939 26.3265 88.9525C26.3214 89.2852 26.4711 89.6398 26.7689 89.7902C27.0239 89.9187 27.3271 89.8768 27.6131 89.8744C28.1163 89.8705 28.6202 90.003 29.0559 90.2546" fill="#17282F"/>
<path d="M26.2939 82.7306C26.2935 82.724 26.3981 82.7084 26.5929 82.6793C26.7875 82.6482 27.0723 82.6001 27.4282 82.5153C28.1373 82.3467 29.1414 82.0191 30.196 81.3653L30.4627 81.2L30.2676 81.4456C29.9431 81.8538 29.5941 82.2928 29.2271 82.7543C29.1877 82.8093 29.1539 82.8714 29.1452 82.9284C29.136 82.984 29.1608 83.0264 29.2075 83.0445C29.3105 83.0786 29.4723 83.0106 29.6144 82.9705C29.9053 82.8782 30.1925 82.7539 30.4679 82.5996C30.7848 82.4225 31.0747 82.2106 31.3255 81.9819L31.6212 81.7125L31.4193 82.0573C31.1848 82.4581 30.9999 82.8719 30.8658 83.284C30.7982 83.4898 30.7427 83.6952 30.6981 83.898C30.6587 84.1009 30.6055 84.3026 30.6228 84.487C30.631 84.5786 30.6594 84.6664 30.7156 84.7213C30.772 84.7771 30.8547 84.7964 30.9345 84.7785C31.0993 84.7421 31.2384 84.6118 31.3784 84.5091C31.655 84.2934 31.9027 84.0822 32.1209 83.8817C32.5566 83.4802 32.8777 83.1276 33.0924 82.8801C33.1925 82.7628 33.2738 82.6682 33.3373 82.5935C33.393 82.5279 33.4235 82.4946 33.4265 82.4969C33.4296 82.4993 33.4051 82.537 33.3552 82.6074C33.3054 82.6776 33.2294 82.7798 33.1264 82.9082C32.9212 83.1653 32.6078 83.5282 32.1761 83.9406C31.9603 84.1464 31.714 84.3631 31.4379 84.5842C31.2974 84.687 31.1643 84.8261 30.9557 84.8784C30.8525 84.9038 30.7255 84.8791 30.6426 84.7967C30.5583 84.7149 30.5262 84.6019 30.5153 84.4978C30.4952 84.2825 30.55 84.0805 30.588 83.8742C30.6317 83.6677 30.6872 83.4583 30.7548 83.2483C30.8891 82.8276 31.0759 82.4051 31.3142 81.996L31.408 82.0714C31.151 82.3069 30.8532 82.5247 30.5281 82.7066C30.2454 82.8648 29.9507 82.9922 29.6517 83.0866C29.5771 83.1112 29.5022 83.1314 29.4267 83.1524C29.3487 83.1707 29.2621 83.1905 29.1653 83.1576C29.0644 83.1265 29.0049 83.0031 29.0262 82.9112C29.0415 82.8198 29.0847 82.7492 29.1303 82.6846C29.5013 82.2235 29.8541 81.7853 30.1821 81.3776L30.2534 81.4579C29.1804 82.1112 28.1607 82.4268 27.4426 82.5782C27.082 82.6545 26.7941 82.6926 26.5974 82.7131C26.4989 82.7235 26.4231 82.7275 26.3719 82.7306C26.3209 82.7334 26.2944 82.7334 26.2939 82.7306Z" fill="#17282F"/>
<path d="M12.1633 59.8576C12.1633 59.8576 12.9157 60.3241 13.5929 61.276C14.2702 62.2282 14.5993 65.38 14.4347 68.2362C14.4347 68.2362 13.719 74.4196 13.5929 76.363C13.4668 78.3064 13.7534 81.4504 13.9253 82.2507C14.0973 83.0509 14.7962 93.855 14.7962 93.855H-0.750291C-0.750291 93.855 -0.922868 87.4523 -0.921309 84.7084C-0.919656 81.9648 -0.695482 81.3932 -0.750291 80.7072C-0.804983 80.0214 -0.363954 76.4773 -0.928417 74.934C-1.49276 73.3907 -2.56723 68.1319 -2.56723 68.1319C-2.56723 68.1319 -3.25888 64.7166 -2.56723 62.5322C-1.87549 60.3482 -1.49276 61.1011 -1.49276 61.1011C-1.49276 61.1011 -0.0993988 57.6714 1.06667 56.1851C1.44515 55.7028 1.92474 55.3352 2.3998 55.0584C3.41393 54.4676 4.6704 54.4727 5.69885 55.0382C7.30706 53.5359 9.00795 54.5276 10.263 55.8994C11.5181 57.2713 12.1633 59.8576 12.1633 59.8576Z" fill="#F2575D"/>
<path d="M7.92517 61.4427C7.43351 61.4427 6.94379 61.3097 6.54297 61.029C5.96073 60.6208 5.60181 59.8851 5.71858 59.1852C5.76074 58.9323 5.87466 58.6737 6.09541 58.5427C6.27049 58.4386 6.48422 58.4302 6.68781 58.4247C7.53619 58.4012 8.38464 58.3776 9.23302 58.3541L10.0553 58.8093C10.3468 59.2999 10.2858 59.9525 9.97635 60.4317C9.66666 60.911 9.14097 61.2251 8.58603 61.3624C8.3708 61.4157 8.14776 61.4427 7.92517 61.4427Z" fill="#CC4341"/>
<path d="M7.97624 55.1639C7.97624 55.1639 9.92741 55.6643 10.1225 56.9709C10.3177 58.2772 10.5407 59.8064 9.04943 60.4178C7.55809 61.0294 5.46746 60.2788 5.91347 57.916C6.35948 55.5531 7.02844 55.1916 7.97624 55.1639Z" fill="#17282F"/>
<path d="M3.07818 61.3702C2.79648 61.3702 2.51438 61.3114 2.25969 61.1922C1.56537 60.8677 1.09454 60.1456 1.00757 59.3859C0.962557 58.9935 1.0189 58.5729 1.25588 58.2566C1.47183 57.9686 1.81581 57.7971 2.168 57.7194C2.41956 57.6641 2.67748 57.6516 2.93566 57.6516C3.03907 57.6516 3.14248 57.6537 3.24561 57.6556L4.53133 58.7549C5.01128 59.3515 4.92511 60.3017 4.38889 60.8484C4.04943 61.1946 3.5645 61.3702 3.07818 61.3702Z" fill="#CC4341"/>
<path d="M3.96233 54.9136C3.96233 54.9136 4.82639 55.1637 4.96577 55.4694C5.10514 55.7753 5.3282 58.3049 4.24101 59.8063C3.15388 61.3074 1.14691 60.0008 1.06334 58.6664C0.979669 57.332 2.51278 55.2471 3.96233 54.9136Z" fill="#17282F"/>
<path d="M11.0451 65.9143C10.422 65.9143 9.80362 65.618 9.39785 65.1423C8.93689 64.6016 8.74845 63.852 8.85287 63.1502C8.90655 62.7884 9.09988 62.3805 9.46296 62.3316C9.48733 62.3283 9.51158 62.3268 9.53583 62.3268C9.67421 62.3268 9.8112 62.3761 9.94191 62.4265C10.5907 62.6761 11.2244 62.9648 11.8383 63.2908L12.8524 64.6098C12.648 65.2895 12.0048 65.8034 11.2995 65.8976C11.215 65.9087 11.13 65.9143 11.0451 65.9143Z" fill="#CC4341"/>
<path d="M11.9623 60.3449C12.2132 60.3171 14.1923 61.6515 13.4118 63.9309C12.6313 66.2106 10.7637 65.0708 9.87172 64.4036C8.97972 63.7364 8.81248 62.1241 9.62081 61.2902C10.4292 60.4561 11.9623 60.3449 11.9623 60.3449Z" fill="#17282F"/>
<path d="M2.81721 72.9478C2.54203 72.9478 2.26954 72.9136 2.00406 72.8307C1.17996 72.5728 0.502591 71.6642 0.8046 70.8572C0.951082 70.4655 1.28889 70.178 1.63721 69.9453C2.63059 69.2814 3.82582 68.9253 5.02103 68.9253C5.24629 68.9253 5.47156 68.9378 5.69542 68.9635L10.9446 71.7966C10.9536 72.3013 10.5096 72.7292 10.0188 72.8528C9.87644 72.8886 9.7317 72.9042 9.58633 72.9042C9.23036 72.9042 8.87033 72.8112 8.53087 72.6939C8.05248 72.5288 7.58581 72.3148 7.08558 72.2379C6.93484 72.2148 6.78383 72.2045 6.63312 72.2045C5.9303 72.2045 5.2296 72.4294 4.54772 72.6308C3.9864 72.7965 3.39594 72.9478 2.81721 72.9478Z" fill="#CC4341"/>
<path d="M10.263 66.8668C10.4024 67.0335 11.823 67.8597 11.9344 69.5075C12.0554 71.2964 11.1539 72.6211 9.92742 72.2596C8.70094 71.8983 6.95917 70.2025 5.08437 70.4528C3.20969 70.7029 1.09119 72.3429 0.254991 71.648C-0.581301 70.953 -0.973259 70.3972 -0.915781 69.1184C-0.858326 67.8396 -0.35826 67.0613 2.28983 65.6713C3.94451 64.8028 3.63494 63.5711 5.08437 63.4044C6.53391 63.2374 6.52673 64.1834 7.4466 65.2747C8.36646 66.3663 10.263 66.8668 10.263 66.8668Z" fill="#17282F"/>
<path d="M12.2449 60.2348C12.4186 59.691 12.2068 58.8575 11.8699 58.3008C11.784 58.1586 11.5753 58.171 11.5069 58.3225C11.2589 58.8719 11.1364 59.6863 11.2245 60.2826" fill="#DADBD8"/>
<path d="M11.2245 60.2826C11.2111 60.2861 11.1453 60.0369 11.1606 59.6269C11.1679 59.4227 11.1937 59.1797 11.2524 58.915C11.2821 58.7829 11.3195 58.6451 11.3687 58.5052C11.3936 58.435 11.4211 58.3658 11.4529 58.2939C11.4913 58.2049 11.5884 58.1402 11.6887 58.1402C11.789 58.135 11.8893 58.2016 11.9292 58.2812C11.9683 58.3476 12.0041 58.4143 12.0367 58.4809C12.1015 58.6145 12.154 58.7475 12.1974 58.8763C12.2817 59.1349 12.3275 59.377 12.3397 59.5826C12.3703 59.9976 12.2561 60.2428 12.2449 60.2347C12.2246 60.2296 12.3045 59.9875 12.2531 59.5906C12.2305 59.3933 12.1775 59.1611 12.0902 58.9129C12.0453 58.7894 11.9923 58.6618 11.9287 58.5342C11.8966 58.4703 11.8618 58.4067 11.8242 58.3436C11.7948 58.2897 11.7475 58.2626 11.6912 58.2629C11.6361 58.2636 11.5858 58.2958 11.5638 58.3458C11.5343 58.4112 11.5066 58.4793 11.482 58.5459C11.4332 58.6799 11.3947 58.813 11.3628 58.9406C11.2996 59.1969 11.2655 59.4333 11.2474 59.6323C11.2103 60.0315 11.2444 60.28 11.2245 60.2826Z" fill="#17282F"/>
<path d="M11.6542 58.3559C11.6804 58.3394 11.8947 58.7127 11.9316 59.2308C11.9728 59.7487 11.8169 60.1498 11.7886 60.1373C11.7525 60.1283 11.8489 59.7317 11.809 59.24C11.7747 58.748 11.62 58.3703 11.6542 58.3559Z" fill="#17282F"/>
<path d="M7.67388 55.28C7.84757 54.7362 7.63576 53.9027 7.2989 53.346C7.21292 53.2037 7.00426 53.2162 6.93592 53.3676C6.68777 53.9171 6.56526 54.7315 6.65346 55.3278" fill="#DADBD8"/>
<path d="M6.65345 55.3277C6.63996 55.3313 6.57419 55.0821 6.58952 54.6721C6.59679 54.4679 6.62253 54.2248 6.68129 53.9601C6.71109 53.828 6.74845 53.6905 6.79752 53.5506C6.82253 53.4804 6.85001 53.4109 6.88185 53.3393C6.92022 53.2501 7.01735 53.1856 7.11771 53.1853C7.21788 53.1801 7.31815 53.2468 7.3582 53.3264C7.39722 53.3928 7.43301 53.4595 7.46565 53.5261C7.53043 53.6596 7.5829 53.7927 7.62635 53.9215C7.71056 54.1801 7.75642 54.4222 7.76867 54.6278C7.79911 55.0428 7.68501 55.2879 7.67386 55.2799C7.65355 55.275 7.73344 55.0326 7.68206 54.6358C7.65936 54.4385 7.60632 54.2062 7.51916 53.9583C7.47425 53.8346 7.42128 53.707 7.35764 53.5793C7.32554 53.5155 7.29076 53.4519 7.25302 53.389C7.22369 53.3349 7.17637 53.308 7.12019 53.308C7.06503 53.3087 7.01477 53.3412 6.99272 53.3909C6.96329 53.4564 6.93543 53.5245 6.91099 53.5911C6.8622 53.7251 6.82364 53.8582 6.79161 53.986C6.72852 54.242 6.69439 54.4785 6.67633 54.6775C6.63923 55.0767 6.67338 55.3251 6.65345 55.3277Z" fill="#17282F"/>
<path d="M7.08316 53.4013C7.10934 53.3848 7.32365 53.7581 7.36053 54.276C7.40177 54.7939 7.24588 55.1949 7.21757 55.1825C7.18149 55.1735 7.27779 54.7769 7.23795 54.2852C7.20364 53.7932 7.04894 53.4155 7.08316 53.4013Z" fill="#17282F"/>
<path d="M4.85137 55.1108C5.02508 54.567 4.81318 53.7335 4.47639 53.1768C4.39043 53.0345 4.18177 53.047 4.11341 53.1985C3.86526 53.7479 3.74287 54.5623 3.83086 55.1586" fill="#DADBD8"/>
<path d="M3.83093 55.1585C3.81747 55.1621 3.7517 54.9129 3.767 54.5029C3.7743 54.2987 3.80013 54.0557 3.85879 53.7909C3.8886 53.6588 3.92595 53.5211 3.97512 53.3812C4.00003 53.3112 4.02752 53.2417 4.05933 53.1702C4.0977 53.0809 4.19485 53.0161 4.29522 53.0161C4.39549 53.011 4.49566 53.0776 4.53559 53.1572C4.5747 53.2236 4.6105 53.2903 4.64316 53.3569C4.70791 53.4904 4.7604 53.6235 4.80386 53.7523C4.88816 54.0109 4.9339 54.253 4.94618 54.4586C4.97672 54.8736 4.86251 55.1187 4.85134 55.1107C4.83106 55.1058 4.91095 54.8634 4.85956 54.4666C4.83696 54.2693 4.78392 54.0371 4.69657 53.7888C4.65173 53.6654 4.59878 53.5378 4.53514 53.4101C4.50293 53.3463 4.46827 53.2827 4.43062 53.2198C4.4012 53.1657 4.35388 53.1386 4.2977 53.1388C4.24253 53.1395 4.19226 53.172 4.17022 53.2217C4.14078 53.2872 4.11294 53.3553 4.08849 53.4219C4.03959 53.5559 4.00112 53.689 3.96912 53.8169C3.90602 54.0728 3.8719 54.3093 3.85381 54.5083C3.81674 54.9075 3.85086 55.1559 3.83093 55.1585Z" fill="#17282F"/>
<path d="M7.57584 87.2075C8.19223 86.9939 8.88747 86.7028 9.0835 86.0822C9.22953 85.6197 9.0349 85.1085 8.72715 84.733C8.0155 83.865 6.75081 83.5825 5.65539 83.8351C5.09851 83.9637 4.56017 84.2217 4.1696 84.6381C3.77904 85.0543 3.55175 85.64 3.639 86.2033C3.70229 86.6119 3.95967 87.0156 4.35566 87.1378C4.69522 87.2425 5.05782 87.1281 5.40772 87.0662C6.02374 86.9567 6.6687 87.0149 7.2551 87.2324" fill="#17282F"/>
<path d="M2.30031 78.5845C2.29948 78.5816 2.33028 78.5698 2.39052 78.5498C2.46009 78.5273 2.54798 78.499 2.6571 78.4637C2.88957 78.3866 3.22903 78.2696 3.6481 78.0927C4.48318 77.7409 5.64715 77.1323 6.80546 76.1123L7.04059 75.9051L6.88931 76.1794C6.5767 76.7466 6.24019 77.3567 5.88616 77.9987C5.84871 78.0757 5.81928 78.1601 5.82046 78.2359C5.82011 78.3103 5.86502 78.3664 5.93292 78.379C6.07775 78.3998 6.25863 78.2811 6.42569 78.2031C6.76387 78.0289 7.09042 77.8167 7.39639 77.5699C7.74868 77.2863 8.06075 76.9655 8.32096 76.6325L8.56697 76.3175L8.42592 76.6912C8.22199 77.232 8.08157 77.7785 8.00327 78.3122C7.96359 78.579 7.93852 78.8426 7.92642 79.1006C7.92062 79.358 7.89738 79.6162 7.95798 79.842C7.98768 79.9542 8.04164 80.059 8.12604 80.1171C8.21044 80.1764 8.32124 80.1826 8.41792 80.1428C8.61706 80.0611 8.75948 79.8715 8.90977 79.7167C9.20337 79.3946 9.46268 79.0837 9.68766 78.7922C10.1372 78.2086 10.4558 77.7089 10.6661 77.36C10.7653 77.1919 10.8444 77.0581 10.9042 76.9569C10.9578 76.8643 10.9875 76.8167 10.9909 76.8186C10.9943 76.8203 10.9713 76.8713 10.9242 76.9675C10.8769 77.0635 10.8043 77.2039 10.7042 77.3822C10.505 77.7388 10.1957 78.2474 9.75222 78.8409C9.53029 79.1374 9.2732 79.4535 8.98096 79.7809C8.83042 79.9361 8.6953 80.1331 8.45554 80.2377C8.3372 80.2889 8.18177 80.2845 8.06665 80.2036C7.95023 80.1234 7.88834 79.9946 7.85393 79.8706C7.78528 79.6148 7.8101 79.3557 7.81381 79.0958C7.8245 78.8339 7.84876 78.5663 7.88786 78.2955C7.96508 77.7534 8.10576 77.1978 8.3121 76.6484L8.41707 76.707C8.15187 77.0478 7.83352 77.3756 7.47368 77.6653C7.16126 77.9172 6.82751 78.1339 6.48177 78.3112C6.39572 78.3565 6.30837 78.397 6.22073 78.4379C6.13005 78.4765 6.02959 78.5171 5.91013 78.4975C5.78681 78.4811 5.6941 78.3513 5.70029 78.2388C5.69991 78.1278 5.73717 78.0336 5.77897 77.9462C6.13707 77.3043 6.47754 76.6938 6.79374 76.1267L6.8776 76.1941C5.70102 77.2166 4.51972 77.816 3.67273 78.1523C3.24766 78.3216 2.9035 78.4293 2.66707 78.4963C2.549 78.5303 2.45695 78.5513 2.39522 78.5665C2.33342 78.5812 2.30104 78.5873 2.30031 78.5845Z" fill="#17282F"/>
<path d="M93.0342 84.266L86.3781 67.0312L84.9426 71.1201L72.8847 44.9586L66.6709 32.0731L55.3158 27.1367L42.3952 31.6874C42.3952 31.6874 39.1331 40.4032 38.7415 42.4858C38.3502 44.5681 39.7858 51.4666 39.7858 51.4666L43.4399 60.1869L45.7615 72.7312C45.7615 72.7312 44.875 79.5815 44.9999 83.1019C45.1248 86.6223 46.7781 93.8792 46.7781 93.8792H95.1222L93.0342 84.266Z" fill="#F2575D"/>
<path d="M76.9693 93.8792H52.1119C49.0647 90.9127 47.6095 85.5535 47.5871 81.4093C47.5774 79.6101 48.2297 77.5906 49.8728 76.8471C50.8074 76.4241 51.8793 76.4964 52.8997 76.3862C53.9201 76.2764 55.0423 75.8711 55.4416 74.9284C55.9755 73.6677 54.9348 72.3267 53.9331 71.3918C51.3588 68.9892 48.5029 66.4118 45.4422 64.6667C47.6858 65.3004 50.3436 65.7088 53.0853 65.7088C55.3792 65.7088 57.7322 65.4229 59.9499 64.7442C60.5856 64.5692 61.2199 64.366 61.8499 64.1319C62.4866 63.8954 63.1249 63.6196 63.7596 63.3097C66.6196 62.0031 68.748 60.4233 70.4209 58.6712C70.7926 58.3215 71.1496 57.9654 71.4899 57.6048C71.4503 57.8311 71.4085 58.0695 71.3645 58.3196C71.255 58.9955 71.1315 59.759 71.0868 60.6019L71.0764 60.7997L71.1865 60.6339C71.4503 60.2359 71.7277 59.8172 72.0173 59.3808C72.0539 59.9439 72.0975 60.5293 72.1478 61.131C71.9216 62.1197 71.5594 63.1039 71.1988 64.0238C70.3172 66.2745 68.8146 68.22 67.3226 70.1241C66.5509 71.1092 65.8259 72.672 66.8156 73.4393C67.0497 73.6206 67.3092 73.6978 67.5782 73.6978C68.3338 73.6978 69.1644 73.0887 69.7103 72.4626C70.3604 71.7173 71.1714 70.8353 72.0952 70.8353C72.2236 70.8353 72.3542 70.8523 72.4867 70.8892C72.758 70.9646 73.0206 71.1007 73.2443 71.2821C73.2983 71.441 73.3538 71.5992 73.4115 71.7578C73.4358 71.9201 73.4585 72.0682 73.479 72.2013C73.5203 72.4579 73.5534 72.6614 73.5775 72.8112C73.589 72.8748 73.5985 72.9266 73.6063 72.9694C73.6134 73.0047 73.6181 73.023 73.62 73.023C73.6202 73.023 73.6202 73.023 73.6202 73.023C73.6223 73.0224 73.6216 73.0038 73.6186 72.9678C73.6141 72.9244 73.6086 72.872 73.602 72.8079C73.5992 72.7855 73.5964 72.762 73.5933 72.7372L73.5317 72.0807C73.5619 72.1605 73.5928 72.2398 73.6242 72.3197C73.6077 72.0844 73.5898 71.8497 73.5704 71.6157C73.6696 71.7455 73.7503 71.8873 73.807 72.0383C75.1627 75.6403 76.2936 79.2424 76.8198 83.4535C76.1867 81.7852 75.9068 80.1908 75.252 78.5177C75.397 80.6293 76.0686 82.6436 76.9447 84.5836C77.0833 86.0236 77.1511 87.5374 77.1341 89.1466C77.1239 90.1077 77.2649 92.3531 76.9693 93.8792ZM76.8207 83.4612C76.8037 83.4177 76.7872 83.3744 76.7704 83.3303L76.82 83.457C76.8202 83.4585 76.8205 83.4599 76.8207 83.4612Z" fill="#F89CA4"/>
<path d="M71.5984 59.2031C71.6 59.2071 71.5667 59.2272 71.5015 59.262C71.4234 59.302 71.3287 59.3503 71.2149 59.4083C71.0892 59.4695 70.9362 59.5456 70.7631 59.6426C70.5895 59.7384 70.3876 59.8397 70.1753 59.9709C69.7425 60.2191 69.2442 60.5429 68.71 60.9287C68.1808 61.3208 67.6188 61.7786 67.0655 62.2998C66.5162 62.8255 66.03 63.3631 65.6111 63.8711C65.1988 64.3843 64.8497 64.8647 64.5801 65.2837C64.4384 65.4888 64.3269 65.685 64.2225 65.8531C64.1167 66.0208 64.0329 66.1692 63.9656 66.2914C63.9018 66.4021 63.8489 66.4939 63.805 66.57C63.767 66.6331 63.7453 66.6654 63.7415 66.6635C63.7377 66.6616 63.7521 66.6256 63.7831 66.5587C63.8213 66.4796 63.8676 66.384 63.9236 66.269C63.9845 66.1428 64.0624 65.9904 64.163 65.8187C64.2622 65.6466 64.3689 65.4464 64.5069 65.237C64.7685 64.8098 65.1123 64.3209 65.5228 63.8002C65.9398 63.2847 66.4272 62.7407 66.9807 62.211C67.538 61.6858 68.1069 61.2271 68.6434 60.8371C69.1849 60.4539 69.6915 60.1355 70.1324 59.8958C70.3484 59.7686 70.5543 59.6723 70.7317 59.5818C70.9086 59.49 71.0651 59.4198 71.1943 59.3652C71.3124 59.3152 71.4104 59.2738 71.4914 59.2394C71.5599 59.2118 71.5967 59.1994 71.5984 59.2031Z" fill="#17282F"/>
<path d="M76.0131 41.9054C74.0871 36.1855 69.0687 33.9943 69.0687 33.9943C69.0687 33.9943 68.1943 32.6828 65.4082 30.0948C62.6221 27.5071 57.5051 25.7153 53.7758 25.3578C53.6273 25.3437 53.475 25.3347 53.3193 25.3307C49.5667 25.2323 43.8964 27.9684 43.8964 27.9684C40.2918 28.9637 35.588 35.7575 34.6864 38.439C33.785 41.1203 34.3543 46.1377 34.3543 46.1377C34.3543 46.1377 32.3995 50.5829 33.6237 54.9181C35.7807 62.556 49.0075 68.6815 61.9486 63.7571C74.8897 58.8327 77.9391 47.6254 76.0131 41.9054Z" fill="#F2575D"/>
<path d="M44.2015 64.2948C44.1946 64.2927 44.1878 64.2906 44.1809 64.2887C38.9694 62.7068 34.4762 59.0487 33.6237 54.9141C34.7324 58.8402 38.7672 62.3672 44.1835 64.1985L44.2015 64.2948Z" fill="white"/>
<path d="M53.1085 65.6484C49.8447 65.6484 46.7639 65.0896 44.2014 64.3138L44.1835 64.2175C46.6725 65.0592 49.4529 65.5425 52.3762 65.5425C55.4669 65.5427 58.7165 65.002 61.9486 63.7722C65.9287 62.2576 68.9738 60.1482 71.2254 57.7875C70.9692 58.0906 70.7017 58.3892 70.4209 58.6833C68.4819 60.5078 66.1499 62.1549 63.7596 63.3219C62.6864 63.8124 61.5099 64.2644 60.216 64.6727C60.1277 64.7012 60.0389 64.729 59.9499 64.7563C57.655 65.3875 55.3393 65.6484 53.1085 65.6484Z" fill="#F89CA4"/>
<path d="M59.9499 64.7542C60.0389 64.7268 60.1277 64.699 60.216 64.6705C61.5099 64.2622 62.6864 63.8102 63.7597 63.3197C63.1249 63.6296 62.4866 63.9054 61.8499 64.1418C61.2199 64.3759 60.5856 64.5792 59.9499 64.7542ZM70.4209 58.6812C70.7017 58.387 70.9692 58.0884 71.2255 57.7853C71.3235 57.6826 71.4196 57.5799 71.5143 57.4763C71.5062 57.522 71.4982 57.5682 71.4899 57.6148C71.1496 57.9753 70.7926 58.3314 70.4209 58.6812Z" fill="#FBC9CE"/>
<path d="M33.2232 52.113C33.1828 51.5365 33.176 51.0024 33.1984 50.5092C33.2303 50.485 33.2624 50.461 33.2947 50.4369C33.2402 50.9704 33.2116 51.5332 33.2232 52.113Z" fill="white"/>
<path d="M52.3762 65.5276C49.4529 65.5276 46.6725 65.0443 44.1835 64.2026C38.7672 62.3713 34.7324 58.8444 33.6237 54.9183C33.4114 53.8891 33.2818 52.9563 33.2232 52.1143C33.2116 51.5345 33.2402 50.9717 33.2947 50.4382C34.0799 49.8579 34.9617 49.4074 35.8973 49.1243C36.6967 48.8825 37.5312 48.7636 38.3662 48.7636C39.8299 48.7636 41.2947 49.1293 42.5732 49.8408C43.9532 50.6085 45.1973 51.7834 46.7693 51.9424C46.8871 51.9544 47.0052 51.9601 47.1228 51.9601C48.1248 51.9601 49.1083 51.5423 49.9233 50.9483C50.8336 50.2845 51.5659 49.4119 52.2888 48.5485C52.7585 50.1368 53.4667 51.6546 54.3808 53.0368C54.0719 53.3189 53.8103 53.6487 53.6216 54.0219C53.4265 54.407 53.3115 54.8514 53.4086 55.2718C53.5973 56.0885 54.4715 56.5207 55.2475 56.8421C55.8782 57.1033 56.5519 57.3685 57.2207 57.3685C57.4037 57.3685 57.5865 57.3487 57.7679 57.3035C58.4033 57.1447 58.9226 56.6938 59.372 56.2183C59.9766 55.5784 60.5272 54.8071 60.566 53.9287C60.6047 53.0557 60.2014 51.7462 58.1998 51.7462C58.1934 51.7462 58.1873 51.7462 58.1809 51.7462C57.9341 50.2246 57.5062 48.4649 57.3579 47.0729C58.0959 47.1343 58.9205 47.2139 59.7371 47.2139C60.9736 47.2139 62.1919 47.0314 63.0623 46.3268C64.4088 45.2368 65.0887 43.5384 65.5914 41.8832C66.0942 40.2279 66.493 38.4983 67.4688 37.0688C67.956 36.355 68.6344 35.729 69.4017 35.3296C69.4024 35.4386 69.4092 35.5477 69.4224 35.6562C69.6031 35.4657 69.7835 35.2752 69.9639 35.0846C70.0107 35.0682 70.0577 35.0524 70.1051 35.0378C69.7089 35.9504 69.6577 36.8618 69.5086 38.2444C69.4371 38.9088 69.3977 39.5779 69.3884 40.2458L69.3568 42.569L69.8078 42.1934V43.5169C69.8078 44.841 69.9528 46.1579 70.2419 47.4527C70.6783 49.4074 71.2162 52.6124 71.7546 56.0923C71.7296 56.2376 71.702 56.3965 71.6715 56.5685C71.6243 56.8379 71.5716 57.137 71.5142 57.4636C71.4195 57.5672 71.3234 57.6699 71.2254 57.7726C68.9738 60.1333 65.9286 62.2427 61.9486 63.7573C58.7165 64.9871 55.4669 65.5278 52.3762 65.5276Z" fill="#F89CA4"/>
<path d="M58.1632 51.7599C57.2744 51.7931 56.3779 51.9294 55.5642 52.2881C54.7507 52.6468 54.0224 53.2436 53.6216 54.0356C53.4266 54.4206 53.3116 54.865 53.4086 55.2854C53.5973 56.1021 54.4715 56.5343 55.2475 56.8557C56.0509 57.1885 56.9242 57.5276 57.7679 57.3171C58.4034 57.1584 58.9227 56.7074 59.3721 56.2319C59.9766 55.592 60.5273 54.8207 60.566 53.9423C60.605 53.0641 60.1967 51.7441 58.1632 51.7599Z" fill="#17282F"/>
<path d="M57.8784 56.69C57.8862 56.6876 57.9387 56.8214 58.022 57.0675C58.103 57.3138 58.2218 57.673 58.2974 58.1355C58.3699 58.5931 58.3866 59.179 58.1422 59.7636C58.0213 60.0525 57.8267 60.3361 57.5519 60.5476C57.2791 60.7607 56.9414 60.898 56.5886 60.9731C55.8785 61.1187 55.1816 61.0558 54.5785 60.914C53.974 60.7654 53.4623 60.524 53.0677 60.2723C52.6705 60.0226 52.3883 59.7657 52.2081 59.5775C52.115 59.4861 52.0525 59.4061 52.0085 59.3536C51.9651 59.3003 51.9441 59.2711 51.9471 59.2683C51.9691 59.244 52.3207 59.7193 53.1132 60.1983C53.5071 60.4366 54.0122 60.6649 54.605 60.8043C55.1949 60.9369 55.8787 60.9936 56.5626 60.8533C56.9022 60.781 57.222 60.6507 57.4782 60.4527C57.7356 60.2565 57.92 59.993 58.0381 59.7191C58.2766 59.1649 58.2721 58.5988 58.2112 58.1478C58.1481 57.6923 58.043 57.3313 57.9762 57.0814C57.9073 56.8315 57.8699 56.6926 57.8784 56.69Z" fill="#17282F"/>
<path d="M58.1202 57.5971C58.1287 57.5733 58.2546 57.6477 58.4593 57.7919C58.6667 57.9339 58.9614 58.1491 59.3513 58.367C59.7355 58.5924 60.2519 58.7461 60.8392 58.7836C61.4202 58.8199 62.0889 58.7019 62.6314 58.2975C63.1759 57.8981 63.5252 57.326 63.7389 56.7844C63.9505 56.2364 64.0336 55.706 64.083 55.2628C64.1307 54.8181 64.1444 54.4547 64.1585 54.2042C64.1713 53.9534 64.1812 53.8144 64.1899 53.8146C64.1982 53.8146 64.2046 53.9536 64.2062 54.2051C64.2069 54.4566 64.2065 54.8212 64.1696 55.271C64.1307 55.7197 64.0563 56.2592 63.8447 56.8249C63.631 57.383 63.2746 57.9774 62.7039 58.3964C62.1338 58.8215 61.4298 58.9407 60.8322 58.8962C60.2307 58.8528 59.696 58.6828 59.3083 58.4423C58.9172 58.2108 58.6298 57.9843 58.4308 57.8303C58.2331 57.6734 58.1243 57.5903 58.1202 57.5971Z" fill="#17282F"/>
<path d="M48.416 45.814C48.0393 45.3479 47.4457 45.0764 46.8475 45.0589C46.473 45.0481 46.1121 45.2042 45.8359 45.4567C45.216 45.8272 44.8348 46.5619 44.8896 47.2805C44.9531 48.1078 45.6007 48.8555 46.4109 49.0439C47.2213 49.2323 48.1307 48.8506 48.5669 48.1443C49.0033 47.4378 48.9379 46.4602 48.416 45.814Z" fill="#17282F"/>
<path d="M62.6184 42.3334C62.2516 41.8793 61.6875 41.6598 61.1103 41.6598C60.7325 41.6601 60.3655 41.7879 60.0382 41.9761C59.4183 42.3465 59.0372 43.0813 59.0922 43.7999C59.1555 44.6272 59.8032 45.3749 60.6135 45.5636C61.4237 45.7517 62.3331 45.37 62.7693 44.6637C63.2057 43.9572 63.1402 42.9796 62.6184 42.3334Z" fill="#17282F"/>
<path d="M44.5144 41.9375C43.8444 41.9375 43.1863 41.7964 42.6098 41.4587C42.0594 41.1365 41.5849 40.5829 41.5904 39.9463C41.5944 39.4755 41.856 39.0469 42.1432 38.6729C42.9867 37.5755 44.3535 36.2265 45.7522 36.2265C45.9419 36.2265 46.1324 36.2514 46.3221 36.3049L46.7859 36.5454C47.4782 37.4073 47.8695 38.505 47.878 39.6093C47.8811 40.0111 47.8299 40.4286 47.6164 40.7692C47.3351 41.2183 46.8206 41.4627 46.3169 41.6299C45.7409 41.8212 45.1227 41.9375 44.5144 41.9375Z" fill="#F89CA4"/>
<path d="M59.8536 39.0853C59.2452 39.0853 58.6272 38.969 58.051 38.7778C57.5473 38.6105 57.0328 38.3661 56.7515 37.917C56.538 37.5764 56.4868 37.1589 56.4899 36.7573C56.4984 35.6531 56.8899 34.5551 57.5821 33.6932L58.0458 33.453C58.2357 33.3993 58.426 33.3743 58.6157 33.3743C60.0144 33.3743 61.3812 34.7233 62.2247 35.8207C62.5119 36.1947 62.7738 36.6233 62.7775 37.0944C62.783 37.7307 62.3085 38.2844 61.7581 38.6068C61.1816 38.9443 60.5235 39.0853 59.8536 39.0853Z" fill="#F89CA4"/>
<path d="M50.7335 56.4394C50.7276 56.4443 50.6348 56.3478 50.4775 56.1641C50.3219 55.9795 50.0959 55.7105 49.8593 55.3457C49.6267 54.9826 49.3698 54.5127 49.2899 53.9308C49.251 53.6418 49.2673 53.3295 49.3405 53.0222C49.4127 52.7139 49.532 52.4101 49.6642 52.1077C50.1882 50.8897 50.8743 49.898 51.3678 49.1929C51.6082 48.8544 51.8073 48.574 51.9598 48.3596C52.1006 48.1637 52.1809 48.0568 52.1882 48.0617C52.195 48.0662 52.1282 48.1818 51.9995 48.3863C51.8708 48.5907 51.6783 48.8822 51.4396 49.2416C50.9642 49.9599 50.2959 50.9507 49.7771 52.1567C49.6458 52.4567 49.5289 52.7535 49.4578 53.0498C49.3858 53.3456 49.3683 53.6399 49.4023 53.9167C49.472 54.4732 49.7126 54.9359 49.933 55.2995C50.1568 55.6651 50.371 55.9411 50.5151 56.1342C50.6603 56.3266 50.7406 56.4337 50.7335 56.4394Z" fill="#17282F"/>
<path d="M64.3635 51.3396C64.3543 51.3391 64.3538 51.1992 64.3495 50.947C64.3417 50.6962 64.3403 50.3276 64.2362 49.8943C64.1807 49.68 64.0995 49.4471 63.9512 49.2354C63.8062 49.0215 63.5967 48.8348 63.3393 48.6951C63.0833 48.5529 62.7879 48.4521 62.4783 48.3557C62.1666 48.2599 61.8445 48.1607 61.5146 48.059C60.1938 47.6509 59.0006 47.275 58.1384 46.9969C57.7235 46.8603 57.3801 46.7472 57.1196 46.6615C56.8797 46.5798 56.7484 46.5308 56.751 46.5226C56.7534 46.5145 56.8896 46.5482 57.1338 46.6161C57.3974 46.6921 57.7445 46.7927 58.1641 46.914C59.0329 47.1709 60.2304 47.5338 61.5509 47.942C61.8808 48.0444 62.2029 48.1445 62.5144 48.2413C62.8254 48.3397 63.1282 48.445 63.3948 48.5964C63.6626 48.745 63.886 48.949 64.0357 49.1786C64.1894 49.4066 64.269 49.6517 64.3207 49.8743C64.4171 50.3239 64.4041 50.6953 64.3975 50.9475C64.3927 51.0742 64.3854 51.1722 64.3793 51.2386C64.3729 51.305 64.3677 51.3396 64.3635 51.3396Z" fill="#17282F"/>
<path d="M33.5644 24.6116C32.0736 24.2251 30.2671 24.1663 29.2281 25.3004C28.2112 26.4106 28.3966 28.139 28.7621 29.5977C29.766 33.602 31.6618 37.3814 34.2731 40.5839L42.0223 28.9442C39.3661 27.1918 36.6469 25.4107 33.5644 24.6116Z" fill="#F2575D"/>
<path d="M35.7353 37.0551C33.3748 35.0921 31.7234 31.9797 30.5196 29.1595C30.1788 28.3604 29.9146 27.3666 30.4513 26.6829C30.776 26.2691 31.2764 26.1172 31.8113 26.1172C32.2508 26.1172 32.7138 26.2199 33.1219 26.3643C35.5682 27.23 37.9566 29.1357 39.8826 30.8711C38.2154 32.592 36.88 34.7096 35.7353 37.0551Z" fill="#F89CA4"/>
<path d="M37.3388 34.2027C37.3324 34.2082 37.2533 34.129 37.1161 33.9816C36.9628 33.8158 36.7687 33.606 36.5371 33.3554C36.0282 32.8111 35.357 32.0935 34.6151 31.3001C33.8632 30.4978 33.1906 29.763 32.7181 29.2183C32.4815 28.9465 32.2935 28.7232 32.1676 28.5657C32.0413 28.4083 31.9747 28.3189 31.9811 28.3134C31.9877 28.308 32.0666 28.3869 32.2038 28.5343C32.357 28.7001 32.5511 28.91 32.7828 29.1606C33.2917 29.7048 33.9628 30.4226 34.705 31.2163C35.4567 32.0184 36.1295 32.753 36.6018 33.2977C36.8384 33.5695 37.0264 33.7927 37.1525 33.9503C37.2786 34.1076 37.3454 34.1971 37.3388 34.2027Z" fill="#17282F"/>
<path d="M64.1427 18.8894C63.5242 17.5183 62.5966 16.0464 61.1091 15.8024C59.5891 15.553 58.2071 16.7148 57.2762 17.9387C55.3514 20.4694 54.3216 23.547 53.3236 26.5634L65.944 30.8192C65.6035 26.4732 65.8401 22.654 64.1427 18.8894Z" fill="#F2575D"/>
<path d="M63.2996 28.9338C61.2978 27.7686 58.963 26.9123 56.4405 26.2307C56.8757 23.679 57.3388 21.2408 58.7224 19.0506C59.1751 18.3342 59.8932 17.6133 60.6985 17.6133C60.8033 17.6133 60.9098 17.6255 61.0175 17.6517C61.8634 17.8573 62.2729 18.801 62.5012 19.6389C63.3067 22.5968 63.9349 25.9351 63.2996 28.9338Z" fill="#F89CA4"/>
<path d="M60.3022 27.4836C60.2937 27.4834 60.2904 27.3763 60.2916 27.1829C60.2921 26.9895 60.3006 26.71 60.3162 26.3648C60.3469 25.6742 60.4161 24.7219 60.5058 23.6722C60.5925 22.6353 60.6711 21.6977 60.7308 20.9841C60.7563 20.6594 60.7776 20.3864 60.7946 20.1691C60.8104 19.9766 60.8232 19.8704 60.8317 19.8707C60.8402 19.8709 60.8435 19.9781 60.8425 20.1714C60.8418 20.3648 60.8333 20.6443 60.8178 20.9896C60.7871 21.6801 60.7181 22.6324 60.6281 23.6826C60.5415 24.719 60.4628 25.6566 60.4031 26.3702C60.3776 26.6949 60.3563 26.9679 60.3393 27.185C60.3235 27.3777 60.3107 27.4839 60.3022 27.4836Z" fill="#17282F"/>
<path d="M71.5983 57.377C71.5983 57.377 71.5572 57.475 71.4415 57.6387C71.3289 57.8047 71.1395 58.0327 70.8757 58.3066C70.6124 58.5809 70.274 58.9005 69.8664 59.2545C69.6624 59.4311 69.4418 59.6172 69.2026 59.8086C68.9686 60.0055 68.7216 60.2135 68.4623 60.432C67.4109 61.293 66.0673 62.2132 64.4676 63.0388C62.8703 63.8669 61.0057 64.5715 58.9843 65.0522C56.96 65.5274 54.9785 65.7248 53.1795 65.7443C51.3787 65.7578 49.7599 65.5969 48.419 65.3687C47.0777 65.1377 46.012 64.8513 45.2887 64.6172C44.9283 64.4964 44.6489 64.4012 44.4633 64.3259C44.3752 64.2913 44.3053 64.2639 44.2515 64.2427C44.204 64.2232 44.1802 64.2124 44.1809 64.2102C44.1816 64.2084 44.2071 64.2154 44.256 64.231C44.3108 64.2491 44.3821 64.2729 44.4718 64.3028C44.6598 64.3704 44.9413 64.458 45.3031 64.5717C46.029 64.7912 47.0947 65.0637 48.4332 65.2832C49.7714 65.4996 51.385 65.6508 53.1781 65.6313C54.9698 65.6056 56.9416 65.4057 58.9562 64.933C60.9674 64.4542 62.8235 63.7569 64.4159 62.9383C66.0106 62.122 67.3531 61.2139 68.4077 60.3642C68.9308 59.9344 69.4045 59.5451 69.8215 59.2024C70.2322 58.8544 70.5741 58.5411 70.8415 58.2731C71.1092 58.0058 71.3034 57.7842 71.4214 57.6243C71.5426 57.4665 71.5917 57.3733 71.5983 57.377Z" fill="#17282F"/>
<path d="M55.0692 54.6027C54.9381 54.6027 54.8005 54.5393 54.7521 54.4187C54.6961 54.2798 54.7743 54.1253 54.8574 54.0005C55.5349 52.9831 56.7454 52.3446 57.9682 52.3446C58.0322 52.3446 58.0961 52.3463 58.1601 52.3498L58.2253 52.3969C58.4024 52.4306 58.4655 52.6743 58.3833 52.8347C58.3014 52.9949 58.1316 53.0877 57.9715 53.1708C57.1419 53.6018 56.3121 54.033 55.4825 54.4642C55.3597 54.528 55.2324 54.593 55.0942 54.6017C55.086 54.6022 55.0775 54.6027 55.0692 54.6027Z" fill="#849193"/>
<path d="M64.2098 29.4651C64.2053 29.4724 64.0908 29.4121 63.8877 29.2972C63.6853 29.1811 63.3903 29.0169 63.0236 28.8193C62.2901 28.4237 61.2572 27.9126 60.0774 27.439C58.8965 26.9671 57.796 26.624 56.9919 26.4038C56.59 26.2933 56.2632 26.2085 56.0365 26.1527C55.8103 26.0957 55.6858 26.0604 55.6875 26.0519C55.6893 26.0437 55.8171 26.0635 56.0469 26.1061C56.2771 26.1475 56.608 26.2198 57.0141 26.3199C57.8262 26.5192 58.9366 26.851 60.1232 27.3253C61.3087 27.8013 62.3409 28.3271 63.0656 28.7435C63.4284 28.9515 63.7174 29.1274 63.9125 29.2562C64.1082 29.3841 64.2143 29.458 64.2098 29.4651Z" fill="#17282F"/>
<path d="M61.194 59.6475C61.2039 59.66 61.0721 59.7853 60.8386 59.9629C60.6052 60.1407 60.2673 60.3673 59.8727 60.5806C59.4779 60.7935 59.1029 60.952 58.8261 61.0495C58.5491 61.1475 58.372 61.1889 58.3668 61.1739C58.3545 61.1388 59.0353 60.896 59.8144 60.4728C60.5953 60.0538 61.1713 59.6181 61.194 59.6475Z" fill="#17282F"/>
<path d="M40.8061 30.1243C40.812 30.1304 40.7181 30.2336 40.5431 30.4147C40.3671 30.5944 40.1173 30.8596 39.8153 31.1923C39.2105 31.8572 38.4154 32.8136 37.6427 33.9459C36.8719 35.0798 36.2738 36.1698 35.877 36.9754C35.6782 37.3781 35.5233 37.7074 35.4206 37.9368C35.3162 38.1657 35.2548 38.291 35.2468 38.2877C35.239 38.2846 35.2855 38.1532 35.3764 37.9181C35.4657 37.6826 35.609 37.347 35.7986 36.938C36.1767 36.1198 36.7661 35.0169 37.5409 33.8769C38.3176 32.7387 39.1281 31.7856 39.7515 31.1334C40.0627 30.807 40.3227 30.5503 40.5095 30.3808C40.6951 30.2098 40.8002 30.1182 40.8061 30.1243Z" fill="#17282F"/>
<path d="M90.0157 89.0823C90.0157 89.0823 89.9683 89.0743 89.8788 89.0518C89.7829 89.0261 89.6513 88.991 89.4832 88.946C89.1382 88.8487 88.6331 88.699 87.9976 88.4816C86.7283 88.0471 84.9315 87.3358 82.9067 86.2007L82.9681 86.1194C84.1106 87.2348 85.2765 88.6149 86.3037 90.2405L86.4187 90.4229L86.226 90.3256C85.105 89.7597 83.9767 89.043 82.9143 88.1831C81.9097 87.3721 81.0169 86.4786 80.2508 85.5526L80.3523 85.4911C81.0128 87.0556 81.6325 88.5228 82.1931 89.8504L82.2658 90.0228L82.1135 89.9141C80.0354 88.4354 78.687 86.7513 77.8844 85.5172C77.0807 84.2731 76.7704 83.4816 76.7704 83.4816C76.7719 83.4808 76.779 83.4922 76.7917 83.5147C76.8063 83.542 76.8243 83.5752 76.8465 83.6169C76.897 83.7133 76.9665 83.8463 77.0555 84.0168C77.243 84.3642 77.5266 84.8703 77.9363 85.4831C78.7513 86.7026 80.1044 88.3673 82.1747 89.8277L82.0951 89.8916C81.5307 88.5658 80.907 87.1003 80.2418 85.5377L80.0812 85.1607L80.3434 85.4765C81.1059 86.3952 81.9936 87.2821 82.9918 88.0878C84.0473 88.942 85.1676 89.6551 86.2801 90.2192L86.2024 90.3042C85.1834 88.6853 84.028 87.3083 82.8959 86.1927L82.6186 85.9195L82.9575 86.1114C84.9702 87.2523 86.7562 87.9754 88.0172 88.4257C88.6487 88.6509 89.1502 88.8094 89.4922 88.9161C89.6584 88.9672 89.7883 89.0072 89.883 89.0364C89.9713 89.0642 90.0157 89.0823 90.0157 89.0823Z" fill="#17282F"/>
<path d="M71.9308 55.0391C71.74 56.6827 71.2122 58.961 71.1411 60.6015C71.4488 60.1347 71.7568 59.668 72.0645 59.201C72.341 63.4822 73.0088 68.7736 73.6202 73.0203L71.9308 55.0391Z" fill="#F2575D"/>
<path d="M73.6202 73.0203C73.6181 73.0204 73.6133 73.0023 73.6063 72.9667C73.5985 72.9238 73.589 72.8721 73.5775 72.8085C73.5534 72.6587 73.5203 72.4552 73.479 72.1986C73.3973 71.6679 73.2825 70.9 73.1512 69.9495C72.8886 68.0484 72.549 65.4183 72.2704 62.5027C72.161 61.3499 72.0711 60.2386 72.0061 59.2047L72.1133 59.233C71.7891 59.7219 71.4793 60.1894 71.1865 60.6312L71.0764 60.797L71.0868 60.5992C71.1314 59.7563 71.2549 58.9928 71.3645 58.3169C71.4824 57.6457 71.5855 57.0576 71.6715 56.5685C71.7572 56.0833 71.8217 55.7011 71.8623 55.4397C71.8817 55.3163 71.8973 55.2176 71.9093 55.1411C71.9206 55.0735 71.928 55.0388 71.9308 55.0391C71.9339 55.0393 71.9322 55.0749 71.9265 55.1432C71.9202 55.2115 71.9121 55.313 71.8956 55.4444C71.8659 55.7075 71.8113 56.092 71.7346 56.5791C71.6557 57.0691 71.561 57.6584 71.4526 58.331C71.3508 59.0067 71.2342 59.7695 71.1952 60.6039L71.0958 60.5718C71.3865 60.1286 71.6939 59.6595 72.0156 59.1692L72.1112 59.0234L72.1228 59.1974C72.1915 60.2294 72.2836 61.3393 72.3927 62.4912C72.6711 65.4044 72.997 68.0348 73.2374 69.9381C73.3583 70.8814 73.4565 71.6486 73.5262 72.1919C73.5581 72.4501 73.5834 72.6545 73.602 72.8052C73.6086 72.8693 73.6141 72.9217 73.6185 72.9651C73.6216 73.0011 73.6223 73.0197 73.6202 73.0203Z" fill="#17282F"/>
<path d="M83.3087 92.2114C83.221 92.2114 83.1315 92.1987 83.0461 92.1823C81.9742 91.9759 81.0341 91.3102 80.3105 90.4948C79.587 89.6795 79.0547 88.7163 78.5385 87.7569C77.9809 86.7208 77.4312 85.6657 76.9447 84.5878C76.9138 84.2676 76.8795 83.951 76.8418 83.6378C76.915 83.801 77.0474 84.0794 77.2512 84.4503C77.9585 85.8956 78.8781 87.0508 80.0061 88.1214C80.6052 88.7212 81.3038 89.3284 82.1135 89.9044L82.2658 90.013L82.1931 89.8406C81.6762 88.6162 81.1087 87.2729 80.5053 85.844C80.5474 85.8926 80.5899 85.9414 80.6326 85.9898C81.6381 87.3364 83.1242 88.5029 84.5822 89.3766C85.126 89.7252 85.677 90.0387 86.226 90.3159L86.4187 90.4131L86.3037 90.2308C85.3851 88.7773 84.3557 87.5199 83.3313 86.4726C83.4383 86.5138 83.5462 86.5555 83.6546 86.597C85.3723 87.4996 86.8868 88.0917 87.9976 88.4718C88.6331 88.6892 89.1382 88.839 89.4832 88.9362C89.6513 88.9812 89.7829 89.0164 89.8787 89.042C89.9682 89.0646 90.0157 89.0726 90.0157 89.0726C90.0157 89.0726 89.9713 89.0544 89.883 89.0267C89.7883 88.9975 89.6584 88.9575 89.4922 88.9063C89.1502 88.7996 88.6486 88.6411 88.0172 88.416C87.088 88.0842 85.8737 87.6042 84.4936 86.9182C86.8695 87.8242 89.4955 88.802 91.7587 89.6758C91.2172 89.8733 90.641 89.9711 90.0646 89.9711C89.2567 89.9711 88.4482 89.7791 87.7338 89.4018C88.294 90.3001 88.8536 91.198 89.4135 92.0961C87.2925 91.874 84.799 90.4164 83.0515 89.1972C83.0515 89.1972 83.4326 90.6644 83.6312 91.0212C83.8298 91.3778 83.967 91.9043 83.6253 92.1288C83.5318 92.1903 83.4218 92.2114 83.3087 92.2114ZM76.9941 83.8899C76.9339 83.7744 76.8847 83.6802 76.8465 83.6072C76.8427 83.6002 76.8392 83.5933 76.8356 83.5867C76.8307 83.5465 76.8257 83.5057 76.8207 83.4654C76.8767 83.6096 76.9346 83.7511 76.9941 83.8899ZM76.8781 83.6091L76.82 83.4612C76.82 83.46 76.8198 83.4589 76.8198 83.4577C76.8389 83.5081 76.8583 83.5585 76.8781 83.6091Z" fill="#CC4341"/>
<path d="M76.9447 84.5737C76.0686 82.6337 75.397 80.6193 75.252 78.5078C75.9069 80.1809 76.1867 81.7753 76.8198 83.4436C76.8198 83.4448 76.82 83.4459 76.82 83.4471L76.7704 83.3204C76.7872 83.3645 76.8037 83.4078 76.8207 83.4513C76.8257 83.4916 76.8307 83.5324 76.8356 83.5726C76.8184 83.5404 76.804 83.5138 76.7917 83.4909C76.7792 83.4688 76.7721 83.4578 76.7707 83.4578C76.7707 83.4578 76.7707 83.4578 76.7704 83.4578C76.7704 83.4578 76.7931 83.5152 76.8418 83.6237C76.8795 83.9369 76.9138 84.2535 76.9447 84.5737Z" fill="#BA6E70"/>
<path d="M86.4187 90.4229L86.226 90.3256C85.677 90.0484 85.1261 89.7349 84.5822 89.3863C85.1537 89.7288 85.7209 90.0264 86.2529 90.2723C85.4564 88.962 84.318 87.5006 83.2123 86.4364C83.252 86.4517 83.2914 86.4671 83.3313 86.4824C84.3557 87.5296 85.3851 88.787 86.3037 90.2405L86.4187 90.4229ZM82.2658 90.0228L82.1135 89.9141C81.3038 89.3381 80.6052 88.731 80.0061 88.1312C80.6345 88.7275 81.3276 89.2974 82.0847 89.8767C81.9166 89.1608 81.083 87.2668 80.2971 85.5144C80.4017 85.6786 80.5139 85.8401 80.6326 85.9996C80.5899 85.9511 80.5474 85.9023 80.5054 85.8537C81.1087 87.2826 81.6762 88.6259 82.1931 89.8504L82.2658 90.0228ZM90.0157 89.0823C90.0157 89.0823 89.9683 89.0743 89.8788 89.0518C89.7829 89.0261 89.6513 88.991 89.4832 88.946C89.1382 88.8487 88.6331 88.699 87.9976 88.4816C86.8868 88.1015 85.3724 87.5094 83.6546 86.6067C83.93 86.7127 84.21 86.8196 84.4936 86.928C85.8737 87.614 87.088 88.0939 88.0172 88.4257C88.6487 88.6509 89.1502 88.8094 89.4922 88.9161C89.6584 88.9672 89.7883 89.0072 89.883 89.0364C89.9713 89.0642 90.0157 89.0823 90.0157 89.0823ZM77.2512 84.46C77.0475 84.0891 76.915 83.8107 76.8418 83.6475C76.7931 83.539 76.7704 83.4816 76.7704 83.4816C76.7707 83.4816 76.7707 83.4816 76.7707 83.4816C76.7721 83.4816 76.7792 83.4926 76.7917 83.5147C76.804 83.5376 76.8184 83.5642 76.8356 83.5965C76.8392 83.603 76.8427 83.6099 76.8465 83.6169C76.8847 83.6899 76.9339 83.7841 76.9941 83.8996C77.0765 84.0912 77.1622 84.278 77.2512 84.46Z" fill="#0F191D"/>
<path d="M69.8078 43.5312C69.8078 44.8552 69.9528 46.1722 70.2419 47.467C71.6255 53.6651 74.0313 72.4342 74.2266 72.6706C74.4604 72.9537 89.537 73.4553 89.537 73.4553L87.0712 70.3031L89.2359 71.0118C89.2359 71.0118 88.8373 70.4008 87.0712 68.8338C84.7083 66.7375 81.3696 41.122 81.3696 41.122C81.7992 37.6259 82.2297 34.1183 82.1957 30.5979C82.1619 27.0778 81.6504 23.5238 80.2583 20.2658C79.8122 19.2211 79.2674 18.1974 78.4716 17.3653C77.6758 16.5333 76.7069 16.5684 75.5873 16.2137C73.5812 15.5783 72.2992 16.4911 71.2677 17.6505C70.5656 18.4397 70.5071 19.3636 70.0955 20.3275C70.0955 20.3275 69.4919 20.7189 69.1211 21.7005C68.5116 23.3144 68.0299 24.9943 67.9607 26.7097C67.8917 28.4249 68.297 30.2058 69.3877 31.568C69.0453 31.3801 68.7031 31.1919 68.3607 31.0037C68.9846 31.6864 69.6088 32.3694 70.2327 33.0521L69.7561 33.9487C69.468 34.4732 69.3502 35.082 69.4224 35.6705C69.6808 35.3978 69.9389 35.1253 70.197 34.8526C69.716 35.8344 69.6683 36.7755 69.5086 38.2587C69.4371 38.9231 69.3976 39.5921 69.3884 40.26L69.3568 42.5833L69.8078 42.2077V43.5312Z" fill="#F2575D"/>
<path d="M82.306 81.0447C81.6211 81.0447 80.9351 80.7015 80.4477 80.2164C79.8356 79.6074 79.4767 78.8065 79.1461 78.0189C78.4457 76.3494 77.8151 74.6537 77.2406 72.94C79.4238 73.0631 82.4151 73.1885 84.9005 73.2843C84.91 73.3568 84.9192 73.4296 84.9281 73.5024C85.1775 75.4879 85.3442 77.5936 84.4641 79.4029C84.1267 80.097 83.5882 80.7602 82.8278 80.974C82.6562 81.022 82.4812 81.0447 82.306 81.0447Z" fill="#F89CA4"/>
<path d="M84.9005 73.2861C82.4151 73.1903 79.4238 73.065 77.2406 72.9418C76.4472 70.5754 75.7602 68.1745 75.1417 65.7594C73.4481 59.1459 73.5801 55.7327 72.9163 48.9492C72.9163 48.9492 72.8284 45.6144 75.6277 45.5539C75.6648 45.5532 75.7021 45.5527 75.7392 45.5527C77.2805 45.5527 78.9081 46.2371 79.8132 47.4405C80.3193 48.1134 80.4893 48.9621 80.6461 49.7805C81.4022 53.7273 82.1586 57.6742 82.9148 61.621C83.6572 65.4965 84.4004 69.3746 84.9005 73.2861Z" fill="#F89CA4"/>
<path d="M74.2864 17.791C73.8406 17.3862 73.0925 17.4265 72.5926 17.767C72.0926 18.108 71.8093 18.6796 71.6666 19.2557C71.5512 19.7222 71.5153 20.216 71.6416 20.68C71.7677 21.1439 72.0697 21.5752 72.5083 21.7979C72.9468 22.0207 73.5237 22.0035 73.9072 21.7002C74.2574 21.4232 74.3993 20.9725 74.4943 20.5443C74.6801 19.7045 74.9392 18.3555 74.2864 17.791Z" fill="#17282F"/>
<path d="M70.3576 21.955C70.2811 21.9574 69.3389 22.1194 68.9993 23.3414C68.6597 24.5635 68.514 26.091 69.4843 26.2085C70.4547 26.326 71.3279 26.2791 71.4493 25.01C71.5707 23.7408 71.1341 21.9319 70.3576 21.955Z" fill="#17282F"/>
<path d="M77.2739 18.2364C77.2168 18.2364 76.3142 18.0562 75.8988 18.8609C75.4834 19.6659 74.8961 21.0655 75.3545 21.9545C75.8129 22.8438 76.8873 23.8706 77.7323 22.6356C78.5774 21.4006 78.7064 20.1101 78.5345 19.4716C78.3625 18.8331 77.2739 18.2364 77.2739 18.2364Z" fill="#17282F"/>
<path d="M79.6729 23.8034C79.5511 23.8239 77.293 24.9783 76.8942 26.0829C76.4951 27.1874 76.7863 27.3756 77.6839 27.9396C78.5815 28.5034 79.6488 28.2215 80.2553 27.3756C80.8617 26.5294 81.2013 23.5448 79.6729 23.8034Z" fill="#17282F"/>
<path d="M73.9702 34.058C73.5793 34.058 73.1817 33.9153 72.8581 33.6673C72.3131 33.2493 71.9598 32.5766 71.765 31.8734C71.5704 31.1702 71.5194 30.4293 71.4694 29.6955L71.9502 29.5652C72.0966 29.4218 72.2803 29.3712 72.4751 29.3712C72.6921 29.3712 72.9233 29.4341 73.1321 29.5019C73.7935 29.7169 74.4547 29.9319 75.116 30.1467C75.4277 30.248 75.7675 30.3725 75.9361 30.6806C76.1404 31.0532 76.0112 31.5317 75.8763 31.9417C75.6359 32.6737 75.3493 33.4647 74.7369 33.8451C74.502 33.9911 74.2377 34.058 73.9702 34.058Z" fill="#F89CA4"/>
<path d="M73.5062 25.8922C73.1172 26.375 72.4747 26.5785 71.8761 26.7751C71.2774 26.9715 70.6401 27.2207 70.3146 27.7459C70.0291 28.2067 70.0495 28.7957 70.2223 29.3066C70.3453 29.6707 70.5555 30.0272 70.896 30.222C71.5223 30.5804 72.3292 30.2827 73.0421 30.4219C74.0774 30.6242 74.7367 31.7002 75.7647 31.9353C76.6493 32.1376 77.5941 31.6202 78.0605 30.8644C78.3011 30.4742 78.4379 29.9978 78.3078 29.5609C78.1408 28.9997 77.5903 28.6387 77.0656 28.3506C76.5411 28.0628 75.9701 27.7675 75.6979 27.2464C75.5479 26.9593 75.5061 26.6324 75.4152 26.3232C75.324 26.0137 75.1616 25.697 74.8652 25.5519C74.4274 25.3371 73.8897 25.5853 73.5442 25.923" fill="#17282F"/>
<path d="M75.5049 43.9436C75.06 43.9436 74.6106 43.7926 74.2392 43.5482C73.7168 43.2043 73.3326 42.6945 73.0339 42.1554L75.0964 41.0287C75.5446 41.4868 75.9772 41.959 76.3935 42.4444C76.5591 42.6375 76.7301 42.8525 76.7362 43.1033C76.7452 43.4672 76.3978 43.754 76.04 43.8647C75.866 43.9186 75.6858 43.9436 75.5049 43.9436Z" fill="#CC4341"/>
<path d="M74.9311 40.9933C74.502 40.8259 73.9889 40.8433 73.5978 41.0826C73.2065 41.3216 72.9652 41.7919 73.0514 42.2323C73.1241 42.6026 73.4039 42.9064 73.723 43.1218C74.3242 43.5274 75.1035 43.6758 75.8183 43.521C76.1893 43.4407 76.5874 43.2283 76.6512 42.8654C76.6949 42.6181 76.5112 42.221 76.3603 42.0168C76.0337 41.5753 75.4513 41.1963 74.9311 40.9933Z" fill="#17282F"/>
<path d="M76.0983 39.23C76.0955 39.2333 76.0684 39.2137 76.0192 39.1735C75.9711 39.1325 75.8974 39.0741 75.8102 38.991C75.6322 38.8287 75.3859 38.5802 75.1089 38.2489C74.5544 37.5911 73.8986 36.5641 73.5128 35.2975L73.633 35.2813L73.6327 35.2879C73.6238 35.6157 73.6153 35.9355 73.6067 36.2449C73.6023 36.3994 73.5978 36.5513 73.5933 36.7002C73.5912 36.7744 73.5888 36.8478 73.5867 36.9206C73.586 36.9934 73.5782 37.0775 73.5456 37.1526C73.5291 37.1905 73.5057 37.2296 73.4667 37.2602C73.4273 37.292 73.3715 37.3024 73.3241 37.2944C73.2218 37.2718 73.1758 37.195 73.1373 37.1399C73.0636 37.0252 72.9939 36.9124 72.9349 36.7989C72.8142 36.5735 72.721 36.3535 72.6515 36.1479C72.5113 35.7363 72.4619 35.3861 72.4425 35.1458C72.4333 35.0253 72.431 34.9315 72.4331 34.8679C72.4345 34.8044 72.4374 34.7709 72.4416 34.7709C72.4697 34.7664 72.4437 35.3135 72.7335 36.119C72.8069 36.3189 72.9026 36.532 73.0244 36.7503C73.0842 36.8601 73.1538 36.9691 73.227 37.0801C73.2965 37.1983 73.3959 37.2305 73.4412 37.1086C73.4863 36.9995 73.4667 36.8448 73.4759 36.6971C73.4792 36.5483 73.4828 36.3964 73.4863 36.2419C73.4939 35.9324 73.5017 35.6126 73.5099 35.2848V35.278L73.5198 34.8993L73.6304 35.2617C74.0106 36.5097 74.6444 37.5289 75.1764 38.1945C75.4421 38.5294 75.6768 38.7851 75.8438 38.957C76.0105 39.1292 76.1047 39.2229 76.0983 39.23Z" fill="#17282F"/>
<path d="M76.296 24.7039C76.2882 24.7096 76.1864 24.5831 76.0115 24.3523C75.8251 24.101 75.58 23.7706 75.2867 23.3752L75.3731 23.3488C75.3651 23.6938 75.3564 24.0761 75.3472 24.488L75.3439 24.63L75.2478 24.524C75.0107 24.2621 74.8043 23.9265 74.6817 23.5426L74.7955 23.5492C74.7188 23.7204 74.638 23.9008 74.5561 24.0843C74.4829 24.2475 74.4104 24.4086 74.3393 24.5666L74.2992 24.6561L74.2366 24.5808C73.9549 24.2402 73.9048 23.7697 74.0554 23.4089L74.1433 23.4751C73.6993 23.8187 73.2613 24.0737 72.8825 24.2572L72.7725 24.3106L72.823 24.2009C72.9982 23.8219 73.2174 23.5601 73.3796 23.3969C73.4613 23.3149 73.53 23.257 73.5775 23.2193C73.6259 23.1821 73.6528 23.1649 73.6554 23.1679C73.662 23.1757 73.5654 23.2589 73.4148 23.4294C73.2655 23.6001 73.0625 23.8641 72.9028 24.236L72.8433 24.1797C73.2129 23.988 73.6398 23.7289 74.0732 23.3858L74.2425 23.2515L74.161 23.4517C74.0292 23.7751 74.0786 24.2013 74.3306 24.5028L74.2278 24.5169C74.2987 24.3587 74.3707 24.1976 74.4439 24.0341C74.5261 23.8509 74.6071 23.6708 74.6841 23.4995L74.75 23.3533L74.7979 23.5059C74.9134 23.8726 75.1084 24.195 75.3328 24.4484L75.2334 24.4844C75.2494 24.0728 75.2643 23.6908 75.2777 23.346L75.2834 23.2026L75.3642 23.3198C75.644 23.7252 75.8776 24.0638 76.0551 24.3212C76.2169 24.5614 76.3038 24.6985 76.296 24.7039Z" fill="#17282F"/>
<path d="M74.2252 16.4537C74.0986 16.3366 73.8854 16.3484 73.7397 16.4421C73.5942 16.5361 73.5281 16.615 73.4705 16.814C73.4476 16.8856 73.4733 16.9744 73.5314 17.0283C73.6089 17.1001 73.7241 17.1202 73.8311 17.1136C73.9968 17.1037 74.165 17.0311 74.2571 16.8971C74.3492 16.7631 74.3454 16.5648 74.2252 16.4537Z" fill="#DADBD8"/>
<path d="M77.9909 17.6695C77.9188 17.4868 77.784 17.3275 77.6128 17.2239C77.5719 17.199 77.5223 17.1766 77.4768 17.1924C77.4392 17.2051 77.3549 17.2348 77.3341 17.2675C77.2659 17.3749 77.2567 17.438 77.2791 17.5951C77.3603 17.8132 77.6076 17.9606 77.8452 17.9333C77.9009 17.9267 77.9602 17.9085 77.992 17.8636C78.0315 17.808 78.0157 17.7324 77.9909 17.6695Z" fill="#DADBD8"/>
<path d="M73.5704 71.6184C73.5409 71.5799 73.5099 71.5424 73.4773 71.5061L73.0386 66.8344C73.2417 68.4222 73.4372 70.0024 73.5704 71.6184ZM73.355 71.3811C73.3194 71.3477 73.2825 71.3155 73.2443 71.2847C72.1611 68.0875 71.8416 64.8088 72.1733 61.4359C72.2036 61.7884 72.2359 62.1462 72.2704 62.5081C72.5491 65.4237 72.8886 68.0538 73.1512 69.9548C73.2254 70.4917 73.2943 70.9703 73.355 71.3811Z" fill="#CC4341"/>
<path d="M73.6243 72.3193C73.5928 72.2395 73.5619 72.1602 73.5317 72.0803L73.4774 71.5031C73.51 71.5394 73.5409 71.5769 73.5704 71.6154C73.5898 71.8493 73.6077 72.0841 73.6243 72.3193ZM73.4115 71.7574C73.3539 71.5989 73.2984 71.4407 73.2443 71.2817C73.2825 71.3125 73.3194 71.3447 73.355 71.3781C73.3749 71.5118 73.3935 71.6385 73.4115 71.7574Z" fill="#BA6E70"/>
<path d="M73.5317 72.0776C73.5215 72.051 73.5114 72.0244 73.5014 71.9981C73.4341 71.4719 73.3446 70.7739 73.2374 69.9378C72.997 68.0345 72.6711 65.4041 72.3927 62.4909C72.342 61.9546 72.2947 61.4276 72.252 60.9132L72.3481 60.7258C72.5167 62.8272 72.7833 64.8337 73.0386 66.8287L73.4773 71.5004L73.5317 72.0776Z" fill="#CC4341"/>
<path d="M73.5015 72.0051C73.471 71.9241 73.441 71.843 73.4115 71.7618C73.3935 71.6428 73.3749 71.5162 73.3551 71.3824C73.2944 70.9717 73.2254 70.4931 73.1513 69.9562C72.8887 68.0552 72.5491 65.4251 72.2704 62.5095C72.236 62.1475 72.2036 61.7898 72.1734 61.4372C72.1882 61.2846 72.2048 61.1313 72.2225 60.9782L72.252 60.9203C72.2948 61.4346 72.342 61.9617 72.3928 62.498C72.6712 65.4112 72.9971 68.0415 73.2375 69.9449C73.3447 70.7809 73.4342 71.479 73.5015 72.0051Z" fill="#0F191D"/>
<path d="M75.7857 39.037C74.8664 38.6924 74.1306 37.9181 73.8519 37.002C73.875 37.1673 73.898 37.3383 73.8517 37.4991C73.8056 37.66 73.6713 37.8095 73.4993 37.8225C73.4908 37.8232 73.4821 37.8237 73.4736 37.8237C73.3078 37.8237 73.164 37.7021 73.053 37.5792C72.5127 36.9813 72.257 36.1516 72.3701 35.3647L72.4192 35.1478C72.4433 35.3565 72.4834 35.5635 72.5384 35.7665C72.5675 35.8892 72.6043 36.0209 72.6516 36.1593C72.721 36.3649 72.8143 36.5849 72.9349 36.8103C72.994 36.9238 73.0636 37.0366 73.1373 37.1513C73.1758 37.2064 73.2219 37.2832 73.3241 37.3058C73.3343 37.3074 73.3449 37.3084 73.3555 37.3084C73.3947 37.3084 73.4358 37.2966 73.4667 37.2716C73.5057 37.241 73.5291 37.2019 73.5456 37.164C73.5782 37.0889 73.586 37.0048 73.5867 36.932C73.5888 36.8593 73.5912 36.7858 73.5933 36.7116C73.5978 36.5628 73.6023 36.4109 73.6068 36.2564C73.6122 36.0569 73.6176 35.8529 73.6233 35.6455C74.016 36.7575 74.6043 37.6619 75.1089 38.2603C75.2785 38.4631 75.4365 38.635 75.5746 38.7749C75.6445 38.863 75.7149 38.9503 75.7857 39.037Z" fill="#CC4341"/>
<path d="M75.5746 38.7711C75.4364 38.6312 75.2784 38.4593 75.1089 38.2565C74.6042 37.6581 74.016 36.7538 73.6233 35.6417C73.6176 35.8492 73.6122 36.0531 73.6068 36.2526C73.6023 36.4071 73.5978 36.559 73.5933 36.7078C73.5912 36.782 73.5888 36.8555 73.5867 36.9283C73.586 37.0011 73.5782 37.0851 73.5456 37.1603C73.5291 37.1982 73.5057 37.2373 73.4667 37.2679C73.4358 37.2928 73.3947 37.3046 73.3555 37.3046C73.3449 37.3046 73.3342 37.3037 73.3241 37.302C73.2218 37.2794 73.1758 37.2026 73.1373 37.1475C73.0636 37.0328 72.994 36.92 72.9349 36.8065C72.8142 36.5811 72.721 36.3612 72.6515 36.1556C72.6043 36.0171 72.5675 35.8855 72.5384 35.7628C72.6577 36.202 72.8478 36.6231 73.1009 37.0053C73.1524 37.0828 73.2726 37.2455 73.3687 37.2455C73.3734 37.2455 73.3782 37.2453 73.3829 37.2443C73.4868 37.2255 73.4755 37.0173 73.4899 36.9158C73.5557 36.4493 73.6382 35.8921 73.5678 35.426C74.0257 36.6334 74.7618 37.7476 75.5746 38.7711Z" fill="#0F191D"/>
<path d="M79.4259 59.4364C79.4233 59.4395 79.3879 59.4122 79.3225 59.357C79.258 59.301 79.1593 59.2219 79.0419 59.1091C78.8027 58.8884 78.4697 58.5511 78.0969 58.0969C77.3502 57.1965 76.4674 55.7738 75.9996 53.9917L76.1198 53.9708C76.1361 54.171 76.1534 54.3839 76.1706 54.5994C76.2381 55.584 76.2466 56.5253 76.2143 57.3795L76.2079 57.5469L76.1113 57.4104C75.3656 56.3548 74.9655 55.3162 74.7634 54.5742C74.6611 54.2016 74.6035 53.9013 74.5709 53.695C74.5539 53.5919 74.5459 53.5118 74.5395 53.4581C74.5339 53.4042 74.5325 53.3759 74.5355 53.3754C74.5424 53.3745 74.5646 53.4847 74.6071 53.6884C74.6505 53.8917 74.7185 54.1882 74.8295 54.5551C75.0489 55.2866 75.4596 56.3075 76.2037 57.3449L76.1009 57.3757C76.1269 56.5249 76.1153 55.5878 76.048 54.6076C76.0308 54.3933 76.0138 54.1811 75.998 53.9819L76.1182 53.9609C76.5777 55.723 77.4375 57.1374 78.1618 58.045C78.5236 58.5026 78.845 58.8467 79.0736 59.0768C79.1857 59.1941 79.2793 59.2782 79.3383 59.3399C79.3983 59.4004 79.4285 59.4336 79.4259 59.4364Z" fill="#17282F"/>
<path d="M89.3729 78.3561C89.3814 78.3552 89.3986 78.4642 89.423 78.6625C89.4489 78.8606 89.4723 79.1488 89.4886 79.5056C89.5219 80.219 89.5011 81.2104 89.3448 82.2911C89.1864 83.3722 88.9233 84.3287 88.6878 85.003C88.5705 85.3405 88.4659 85.6101 88.3844 85.7926C88.3048 85.9759 88.2569 86.0752 88.2491 86.0722C88.2413 86.0689 88.2741 85.9634 88.3398 85.7754C88.4073 85.5882 88.4992 85.3153 88.6052 84.9762C88.8184 84.2984 89.0657 83.3462 89.2232 82.2737C89.3781 81.201 89.4126 80.2182 89.4015 79.5079C89.3965 79.1528 89.3864 78.865 89.3753 78.6663C89.3658 78.4675 89.3644 78.357 89.3729 78.3561Z" fill="#17282F"/>
</g>
<defs>
<radialGradient id="paint0_radial_975_8077" cx="0" cy="0" r="1" gradientUnits="userSpaceOnUse" gradientTransform="translate(47.045 28.026) rotate(50.906) scale(61.9085 64.5149)">
<stop stop-color="#B5EDFF"/>
<stop offset="1" stop-color="#A38CD5"/>
</radialGradient>
<radialGradient id="paint1_radial_975_8077" cx="0" cy="0" r="1" gradientUnits="userSpaceOnUse" gradientTransform="translate(47.0423 29.459) rotate(51.1875) scale(58.5487 60.8854)">
<stop stop-color="#B5EDFF"/>
<stop offset="1" stop-color="#A38CD5"/>
</radialGradient>
<radialGradient id="paint2_radial_975_8077" cx="0" cy="0" r="1" gradientUnits="userSpaceOnUse" gradientTransform="translate(47 29.5396) rotate(50.906) scale(58.194 60.644)">
<stop stop-color="#B5EDFF"/>
<stop offset="1" stop-color="#A38CD5"/>
</radialGradient>
<radialGradient id="paint3_radial_975_8077" cx="0" cy="0" r="1" gradientUnits="userSpaceOnUse" gradientTransform="translate(50.765 50.7106) rotate(58.644) scale(73.9017 86.6011)">
<stop stop-color="white"/>
<stop offset="1" stop-color="white" stop-opacity="0"/>
</radialGradient>
</defs>
</svg>
