<svg width="90" height="90" viewBox="0 0 90 90" fill="none" xmlns="http://www.w3.org/2000/svg">
<path d="M45 90C69.8526 90 90 69.8526 90 45C90 20.1465 69.8526 0 45 0C20.1474 0 0 20.1465 0 45C0 69.8526 20.1474 90 45 90Z" fill="url(#paint0_radial_966_619)"/>
<path d="M45.0424 87.2875C68.4272 87.2875 87.3847 68.1385 87.3847 44.5175C87.3847 20.8956 68.4272 1.74744 45.0424 1.74744C21.6575 1.74744 2.70001 20.8956 2.70001 44.5175C2.70001 68.1385 21.6575 87.2875 45.0424 87.2875Z" fill="url(#paint1_radial_966_619)"/>
<mask id="mask0_966_619" style="mask-type:alpha" maskUnits="userSpaceOnUse" x="2" y="2" width="86" height="85">
<path d="M45 86.7599C68.3848 86.7599 87.3423 67.8024 87.3423 44.4175C87.3423 21.0319 68.3848 2.0752 45 2.0752C21.6152 2.0752 2.65765 21.0319 2.65765 44.4175C2.65765 67.8024 21.6152 86.7599 45 86.7599Z" fill="url(#paint2_radial_966_619)"/>
</mask>
<g mask="url(#mask0_966_619)">
<path d="M66.764 8.66113C70.1378 14.7965 72.0568 21.833 72.0568 29.3225C72.0568 53.1172 52.6979 72.4016 28.8108 72.4016C22.1445 72.4016 15.8312 70.901 10.187 68.2148C17.7646 79.4016 30.6045 86.7599 45.1711 86.7599C68.4628 86.7599 87.3441 67.9514 87.3441 44.7495C87.3364 29.4182 79.0831 15.9974 66.7648 8.66198L66.764 8.66113Z" fill="url(#paint3_radial_966_619)" fill-opacity="0.2"/>
<path d="M92 92H-2V-2H92V92Z" fill="#F6C4A3"/>
<path d="M56.6212 47.4444V63.6748C56.6212 66.4046 54.3871 68.6371 51.6585 68.6371H35.2496C32.521 68.6371 30.2873 66.4046 30.2873 63.6748V47.4444C30.2873 45.8372 31.0614 44.4033 32.2543 43.4952C33.0885 42.8597 34.1272 42.4821 35.2496 42.4821H51.6585C52.8863 42.4821 54.0131 42.9345 54.8823 43.6808C55.9454 44.5921 56.6212 45.9422 56.6212 47.4444Z" fill="white"/>
<path d="M51.658 41.6404H35.2502C32.0498 41.6404 29.4463 44.244 29.4463 47.444V63.675C29.4463 66.8752 32.0498 69.4788 35.2502 69.4788H51.658C54.8584 69.4788 57.462 66.8752 57.462 63.675V47.444C57.462 44.244 54.8584 41.6404 51.658 41.6404ZM51.658 42.4816C54.3874 42.4816 56.6207 44.7146 56.6207 47.444V63.675C56.6207 66.4043 54.3874 68.6372 51.658 68.6372H35.2502C32.5207 68.6372 30.2878 66.4043 30.2878 63.675V47.444C30.2878 44.7146 32.5207 42.4816 35.2502 42.4816H51.658Z" fill="#371A45"/>
<path d="M49.6931 41.9011C55.8051 43.9997 56.2562 48.8396 60.4846 51.6493C62.3146 52.8652 64.2264 52.5684 66.5092 51.9557C67.7263 51.6293 68.3103 52.8355 68.3898 54.9007C68.5014 57.7776 67.5118 59.8131 61.5244 59.93C54.5465 60.0663 53.3384 51.8053 53.3384 51.8053L49.6931 41.9011Z" fill="white"/>
<path d="M61.3397 59.5114C59.5759 59.5114 58.0655 58.9398 56.8268 57.8106C56.8281 57.696 56.8201 57.5804 56.803 57.4645C56.6692 56.5612 56.0029 55.8627 55.155 55.6667C55.053 55.4867 54.9577 55.3065 54.8691 55.1277C54.8599 55.0875 54.8503 55.0475 54.8407 55.0076C54.5213 53.5518 54.1095 52.1108 53.4741 50.7473C53.4511 50.6984 53.4013 50.6653 53.3453 50.6653C53.3407 50.6653 53.3361 50.6655 53.3311 50.6662C53.3227 50.6669 53.3144 50.6686 53.3064 50.6709C53.2763 50.5663 53.2458 50.4618 53.2149 50.357C55.4648 52.4929 55.5112 57.7216 61.3301 57.7216C61.3945 57.7216 61.4584 57.7211 61.5245 57.7197C62.8601 57.6936 63.9475 57.5721 64.8292 57.367C65.0026 57.6231 65.2016 57.8645 65.4249 58.0884C65.6477 58.3108 65.8877 58.5088 66.1423 58.6816C65.103 59.1969 63.5742 59.4693 61.5161 59.5095C61.4567 59.5106 61.3982 59.5114 61.3397 59.5114Z" fill="#B9AFBE"/>
<path d="M61.3576 60.3527C58.4213 60.3527 56.0357 58.8949 54.4495 56.1281C53.2493 54.0347 52.9346 51.954 52.922 51.8663C52.8881 51.6365 53.0476 51.4229 53.2772 51.3891C53.5067 51.3562 53.7205 51.5148 53.7544 51.7446C53.7575 51.7643 54.0639 53.7743 55.1915 55.7304C56.6673 58.2912 58.7968 59.5675 61.5162 59.5095C64.3721 59.4538 66.2091 58.9509 67.1324 57.9719C67.7671 57.2993 68.0253 56.3572 67.9696 54.9174C67.9018 53.1725 67.4919 52.6172 67.2533 52.4416C67.1468 52.3631 66.9651 52.2694 66.6182 52.3624C64.433 52.9487 62.3013 53.3619 60.2517 51.9998C58.4686 50.8152 57.3271 49.2727 56.2235 47.7809C54.5947 45.5801 53.0563 43.501 49.5567 42.299C49.3367 42.2234 49.2198 41.9843 49.2954 41.7648C49.3706 41.5449 49.6097 41.4279 49.8296 41.5031C53.5771 42.7902 55.2663 45.0728 56.8999 47.2801C58.0096 48.7796 59.0572 50.196 60.7173 51.2988C62.3174 52.3622 63.9488 52.2071 66.4 51.5498C66.909 51.4132 67.3767 51.4871 67.7527 51.7641C68.3926 52.2358 68.7486 53.2855 68.8103 54.8847C68.8542 56.0186 68.7725 57.4595 67.7449 58.5493C66.643 59.717 64.669 60.2895 61.5323 60.3507C61.4741 60.3519 61.4154 60.3527 61.3576 60.3527Z" fill="#371A45"/>
<path d="M37.1928 41.901C31.0811 43.9999 30.1974 49.0071 26.0368 51.9159C24.795 52.7839 23.0851 53.2597 20.379 52.8364C19.1343 52.6416 17.6544 52.4679 17.3983 54.5189C17.1901 56.1854 20.0722 59.9419 25.3618 59.9299C32.3412 59.9145 33.5479 51.8053 33.5479 51.8053L37.1928 41.901Z" fill="white"/>
<path d="M25.3606 59.5096C25.3523 59.5096 25.3446 59.5096 25.336 59.5096C21.64 59.5096 19.5842 57.6386 18.8711 56.8326C18.5117 56.4263 18.2595 56.0421 18.0912 55.7004C19.3019 57.4627 21.9438 58.4931 25.4556 58.4931C25.4684 58.4931 25.481 58.4931 25.4938 58.4931C29.4171 58.4848 30.5268 56.1009 31.5547 53.8646C31.7127 54.3372 31.8205 54.8402 31.8537 55.3675C31.8009 55.4653 31.7454 55.5638 31.6881 55.6617C30.8281 55.8499 30.1502 56.5524 30.0153 57.4647C29.9997 57.5697 29.9919 57.6748 29.9917 57.7788C28.8686 58.782 27.3644 59.5051 25.3606 59.5096ZM32.2504 54.1324C32.1597 53.7774 32.0419 53.4374 31.9047 53.1141C32.2828 52.3279 32.6909 51.599 33.2582 51.0463C33.1547 51.2593 33.062 51.4759 32.9743 51.6943C32.8308 52.0432 32.7054 52.398 32.6062 52.7593C32.5029 53.1196 32.4042 53.4814 32.3162 53.8457C32.2926 53.9407 32.271 54.0364 32.2504 54.1324Z" fill="#B9AFBE"/>
<path d="M25.3361 60.3508C21.2973 60.3508 19.0296 58.2814 18.2409 57.39C17.3491 56.382 16.878 55.2893 16.9807 54.4668C17.0812 53.6629 17.3717 53.0747 17.8443 52.7188C18.6187 52.1352 19.6737 52.3002 20.4439 52.4209C22.7501 52.7815 24.4504 52.5115 25.7957 51.5711C27.389 50.4573 28.4775 49.0357 29.6299 47.5306C31.4064 45.2111 33.2432 42.8128 37.0563 41.5032C37.2756 41.4279 37.5151 41.5448 37.5905 41.7645C37.6659 41.9845 37.5493 42.2237 37.3293 42.2991C33.7567 43.5258 31.9984 45.8217 30.2982 48.0423C29.1574 49.5318 27.9779 51.0722 26.2777 52.2605C24.7641 53.3188 22.8136 53.6434 20.3138 53.2521C19.5376 53.1305 18.8032 53.0501 18.3506 53.3908C18.0627 53.6077 17.8877 53.9936 17.8156 54.571C17.7617 55.0032 18.0057 55.8546 18.8711 56.8325C19.5842 57.6382 21.64 59.5094 25.3361 59.5094C25.3445 59.5094 25.3523 59.5094 25.3608 59.5094C31.9026 59.4948 33.12 51.8209 33.1315 51.7433C33.1659 51.5134 33.3797 51.354 33.6096 51.3893C33.8395 51.4235 33.998 51.6375 33.9639 51.8674C33.9509 51.9534 33.6366 53.9977 32.4362 56.0727C30.8204 58.8647 28.3746 60.344 25.3626 60.3508C25.3539 60.3508 25.3448 60.3508 25.3361 60.3508Z" fill="#371A45"/>
<path d="M32.1585 56.0033C31.9962 56.0033 31.8647 55.8715 31.8647 55.7095C31.8647 52.2232 28.501 49.7232 28.467 49.6985C28.3358 49.6028 28.3074 49.4189 28.4029 49.2882C28.4986 49.1572 28.6819 49.1283 28.8132 49.224C28.9618 49.3324 32.452 51.921 32.452 55.7095C32.452 55.8715 32.3208 56.0033 32.1585 56.0033Z" fill="#371A45"/>
<path d="M20.8453 53.2535C19.7407 51.9773 20.914 51.1792 22.0933 51.8546C23.1649 52.4682 24.1221 53.208 25.3372 52.8563C25.3372 52.8563 25.245 53.6282 24.2693 54.4749C23.2936 55.3219 20.8453 53.2535 20.8453 53.2535Z" fill="white"/>
<path d="M20.5272 53.5288C20.3059 53.3013 20.0954 53.0295 19.9895 52.6454C19.9391 52.4552 19.9174 52.2289 19.9853 51.9969C20.0147 51.8816 20.0716 51.7701 20.1385 51.6697C20.2084 51.5704 20.2948 51.4858 20.3871 51.4181C20.5731 51.2828 20.7773 51.2152 20.9708 51.1861C21.1657 51.1585 21.3515 51.1716 21.5267 51.2041C21.7021 51.2367 21.8663 51.2946 22.0181 51.3677C22.0936 51.4051 22.1681 51.4437 22.2379 51.4875C22.2752 51.5093 22.3062 51.5296 22.3349 51.5491L22.424 51.6083C22.8968 51.9242 23.3288 52.2575 23.7948 52.5C24.0268 52.6228 24.2686 52.7173 24.5239 52.7721C24.7788 52.8258 25.0474 52.8348 25.3205 52.7987H25.3212C25.3545 52.7944 25.3849 52.8175 25.3894 52.8508C25.3929 52.8781 25.3776 52.9037 25.354 52.9142C25.0905 53.0312 24.7953 53.0984 24.4949 53.1016C24.1937 53.1081 23.8928 53.0508 23.6081 52.9651C23.038 52.7879 22.5311 52.5073 22.0412 52.263L21.9495 52.2169C21.918 52.2009 21.8884 52.1863 21.864 52.1763C21.8123 52.152 21.7594 52.133 21.7072 52.1144C21.6022 52.0793 21.4964 52.0593 21.3963 52.0488C21.1957 52.027 21.0117 52.0806 20.9366 52.147C20.9003 52.1818 20.8837 52.2054 20.8734 52.2445C20.862 52.2813 20.8614 52.3437 20.8781 52.4224C20.8966 52.5003 20.9314 52.5932 20.9813 52.6874C21.0312 52.7824 21.0959 52.8794 21.1635 52.9784L21.1769 52.9981C21.3081 53.1901 21.2587 53.4522 21.0667 53.5832C20.8949 53.7005 20.6672 53.6732 20.5272 53.5288Z" fill="#371A45"/>
<path d="M25.8525 57.4251C25.6571 57.4443 25.4475 57.4297 25.2506 57.3538C25.0539 57.2781 24.8789 57.1515 24.7326 57.0101C24.5834 56.8691 24.459 56.7148 24.3397 56.5627L23.9902 56.1133C23.7611 55.8193 23.5192 55.5476 23.2575 55.3015C22.9963 55.0528 22.7117 54.8415 22.4099 54.6424C22.0917 54.4301 21.7846 54.2339 21.4701 54.0587C21.1559 53.8836 20.8354 53.7327 20.509 53.6103C19.8559 53.3591 19.175 53.2651 18.4833 53.2831L18.4721 53.2834C18.2396 53.2892 18.0462 53.1057 18.0403 52.8732C18.0347 52.658 18.1915 52.4765 18.399 52.4458C19.2191 52.3233 20.0823 52.4451 20.8399 52.7598C21.6041 53.0628 22.2672 53.5502 22.8544 54.0275C23.1682 54.2721 23.4639 54.5559 23.7231 54.8605C23.9865 55.163 24.2051 55.4985 24.404 55.8307C24.6014 56.1642 24.771 56.504 24.9777 56.791C25.0821 56.9341 25.2024 57.057 25.3492 57.1459C25.4964 57.2318 25.669 57.2849 25.8525 57.3048L25.8533 57.3051C25.8864 57.3087 25.9105 57.3384 25.9068 57.3715C25.9037 57.4005 25.8805 57.4224 25.8525 57.4251Z" fill="#371A45"/>
<path d="M55.9054 68.3268H31.0024C31.0024 68.3268 30.9751 65.5442 31.4654 61.4117C31.5528 60.6703 31.6574 59.8844 31.7828 59.0631C32.3323 55.4418 33.2666 51.1346 34.8577 46.8539C35.0969 46.2099 35.3514 45.567 35.6208 44.9265C35.8355 44.4179 36.059 43.9122 36.2947 43.4092C36.4656 43.0407 36.643 42.6739 36.826 42.3092H50.083C50.2657 42.6739 50.4431 43.0407 50.6144 43.4092C50.8525 43.9175 51.0789 44.4307 51.2957 44.9446C51.6038 45.6779 51.8921 46.4146 52.1615 47.1514C53.6852 51.3336 54.5893 55.5254 55.125 59.0622C55.2508 59.8863 55.3553 60.675 55.4434 61.4189C55.9328 65.5477 55.9054 68.3268 55.9054 68.3268Z" fill="white"/>
<path d="M44.2771 62.7435C43.6935 62.6321 43.1518 62.5201 42.6452 62.4073H45.631C45.2087 62.5203 44.7589 62.6324 44.2771 62.7435ZM50.2283 60.809C50.2922 60.5999 50.327 60.3778 50.327 60.1477V59.9388C50.8349 60.0309 51.3772 60.0786 51.9254 60.0951C51.3349 60.3407 50.7809 60.5783 50.2283 60.809ZM35.7648 60.1395C35.7311 60.1252 35.6974 60.1108 35.6634 60.0965C35.6328 60.0836 35.6018 60.0704 35.5712 60.0575C35.6359 60.0521 35.7005 60.0462 35.7648 60.0396V60.1395ZM33.3217 55.6521C33.1546 55.648 32.9902 55.6432 32.8296 55.6377C32.8671 55.4674 32.9063 55.2979 32.9465 55.1287L33.0023 54.888C33.0992 55.1469 33.2059 55.4018 33.3217 55.6521ZM53.6064 55.649C53.7175 55.41 53.82 55.1658 53.9139 54.9179C53.9314 55.0094 53.9489 55.1008 53.9661 55.1927C53.9967 55.3399 54.0267 55.4874 54.0559 55.6353C53.909 55.6404 53.7591 55.6452 53.6064 55.649Z" fill="#B9AFBE"/>
<path d="M53.474 50.7473C54.1095 52.1106 54.5214 53.5517 54.8406 55.0077C55.0152 55.733 55.1383 56.4688 55.2703 57.2025C55.3326 57.5698 55.3845 57.939 55.4421 58.3072L55.5283 58.8593L55.6045 59.4129L55.7541 60.5205L55.8908 61.6294C55.972 62.3699 56.05 63.1109 56.1109 63.8534C56.2343 65.3412 56.3202 66.8212 56.3259 68.3306L56.3277 68.7473H55.9055H43.2419V67.9058H43.666V68.7473H31.0028H30.5805L30.5819 68.3306C30.5878 66.814 30.6743 65.3271 30.7991 63.8321C30.9248 62.3403 31.0938 60.852 31.3149 59.3713L31.395 58.8155L31.4864 58.2616C31.5487 57.8925 31.6054 57.5226 31.6726 57.1541C31.814 56.4188 31.9423 55.6812 32.0897 54.9465C32.163 54.5794 32.2265 54.2097 32.3162 53.8454C32.4041 53.4812 32.503 53.1197 32.6062 52.759C32.7054 52.398 32.8308 52.043 32.9742 51.6941C33.1145 51.3445 33.2687 50.9988 33.4576 50.6653C33.4969 50.5959 33.585 50.5719 33.6541 50.6109C33.7018 50.6381 33.7281 50.6879 33.7272 50.7387V50.743C33.7126 51.5113 33.5662 52.2359 33.4306 52.9644C33.3589 53.3273 33.283 53.6891 33.1961 54.048L32.9465 55.1286C32.6029 56.5676 32.3679 58.0304 32.1473 59.4933C31.9287 60.9568 31.7618 62.4282 31.6375 63.9026C31.5142 65.3741 31.4291 66.8617 31.4235 68.3224L31.0028 67.9058H43.666V68.7473H43.2419V67.9058H55.9055L55.4847 68.3224C55.4793 66.8687 55.3945 65.3882 55.2725 63.9237C55.1469 62.4569 54.9887 60.9912 54.7618 59.5358L54.6799 58.9897L54.5861 58.4454C54.5206 58.0833 54.4612 57.72 54.3911 57.3586C54.2462 56.6369 54.1156 55.9127 53.966 55.1927C53.6937 53.7445 53.3548 52.3175 53.2045 50.8249L53.2042 50.8217C53.1963 50.7437 53.2532 50.6739 53.3312 50.6664C53.3927 50.66 53.4493 50.6943 53.474 50.7473Z" fill="#371A45"/>
<path d="M37.5085 59.2211C35.9655 59.8457 33.5775 59.715 31.9497 59.518C30.9734 59.3999 30.2879 58.4988 30.4317 57.5258C30.563 56.6382 31.3445 55.9925 32.241 56.0345C33.7637 56.106 36.0477 56.1392 37.4942 55.8185L37.5085 59.2211Z" fill="white"/>
<path d="M34.428 59.2589C34.1559 59.2589 33.873 59.2519 33.5801 59.2373C33.4648 59.1919 33.3475 59.1461 33.2281 59.1001C32.6641 58.8822 32.0787 58.7779 31.4955 58.7779C31.4257 58.7779 31.3561 58.7793 31.2863 58.7823C31.2207 58.7248 31.1604 58.6599 31.1061 58.5887C30.8866 58.3013 30.7949 57.9455 30.8478 57.5874C30.8588 57.5129 30.8758 57.4405 30.8983 57.3707C31.1674 57.652 31.5319 57.8456 31.9497 57.8964C32.6775 57.9847 33.5576 58.0597 34.4461 58.0597C34.8896 58.0597 35.3351 58.0409 35.7649 57.996V59.1919C35.3565 59.2366 34.9093 59.2589 34.428 59.2589Z" fill="#B9AFBE"/>
<path d="M32.1577 56.4534C31.502 56.4534 30.9447 56.931 30.8476 57.5874C30.7948 57.9454 30.8864 58.3014 31.106 58.5888C31.3248 58.8755 31.6422 59.057 32 59.1003C34.3262 59.3822 36.2261 59.2866 37.3504 58.8312C37.6741 58.7002 37.771 58.1748 37.7975 57.955C37.8926 57.1676 37.6556 56.4316 37.5041 56.2468C36.0366 56.5538 33.8287 56.5302 32.221 56.4549C32.2 56.4541 32.1787 56.4534 32.1577 56.4534ZM34.4408 60.1017C33.5474 60.1017 32.6594 60.0278 31.8991 59.9357C31.314 59.8651 30.7945 59.5679 30.437 59.099C30.0788 58.6296 29.9288 58.0491 30.0154 57.4648C30.1792 56.3575 31.142 55.5594 32.2606 55.6145C33.847 55.6886 36.0268 55.7128 37.4027 55.4077C37.6213 55.3593 38.1648 55.3573 38.484 56.3833C38.8067 57.4207 38.7699 59.1641 37.6663 59.6113C36.7598 59.978 35.5959 60.1017 34.4408 60.1017Z" fill="#371A45"/>
<path d="M54.8689 59.5178C54.1055 59.6104 53.173 59.6884 52.2397 59.6798C52.1754 59.6798 52.1122 59.6786 52.048 59.6767C51.9808 59.6757 51.9126 59.6739 51.8451 59.6708C51.7995 59.6699 51.7546 59.668 51.7108 59.6661C51.6573 59.6631 51.6049 59.6602 51.5521 59.6572C51.4849 59.6534 51.4178 59.6485 51.3513 59.6436H51.3463C51.2802 59.6389 51.2131 59.633 51.1467 59.6262C51.1028 59.6222 51.059 59.6172 51.0163 59.6125C50.979 59.6095 50.9423 59.6045 50.9061 59.6008C50.8486 59.594 50.7912 59.5862 50.7355 59.5782C50.682 59.5705 50.6296 59.5627 50.5779 59.554C50.5671 59.5531 50.5563 59.5521 50.5466 59.5491C50.4852 59.5404 50.4249 59.5296 50.3656 59.5178C50.3053 59.5073 50.2457 59.4955 50.1872 59.4828C50.1822 59.4819 50.1775 59.4809 50.1725 59.48C50.1394 59.4722 50.1064 59.4654 50.0741 59.4574C50.0382 59.4497 50.0023 59.441 49.966 59.4313H49.9653C49.855 59.4038 49.7469 59.3728 49.6417 59.3397C49.585 59.3221 49.5286 59.3026 49.4733 59.2831C49.4177 59.2638 49.3631 59.2422 49.3103 59.2208L49.3171 57.5873L49.325 55.8183C49.6952 55.9009 50.1208 55.9594 50.5739 56.0004C51.891 56.1202 53.4448 56.0869 54.5777 56.0345C54.605 56.0334 54.6323 56.0327 54.6603 56.0327C55.5217 56.0327 56.26 56.6656 56.3868 57.5257C56.5308 58.4991 55.8449 59.4001 54.8689 59.5178Z" fill="white"/>
<path d="M52.3906 59.2588C51.6053 59.2588 50.9101 59.1991 50.327 59.0807V57.7564C50.3398 57.7588 50.3526 57.7611 50.3658 57.7635C50.4252 57.775 50.4854 57.7858 50.547 57.7945C50.5566 57.7976 50.5672 57.7985 50.5779 57.7994C50.6299 57.8082 50.6822 57.8161 50.7356 57.8239C50.7915 57.8316 50.8488 57.8394 50.9065 57.8462C50.9424 57.8502 50.9795 57.8549 51.0165 57.858C51.0592 57.8627 51.103 57.8676 51.1471 57.8716C51.2133 57.8784 51.2806 57.8843 51.3465 57.889H51.3515C51.4177 57.8939 51.485 57.8989 51.5522 57.9028C51.6049 57.9057 51.6576 57.9085 51.711 57.9115C51.7548 57.9134 51.7996 57.9153 51.8456 57.9165C51.9128 57.9193 51.9808 57.9212 52.0481 57.9221C52.1125 57.9242 52.1755 57.9252 52.24 57.9252C52.288 57.9256 52.3364 57.9259 52.3845 57.9259C53.2691 57.9259 54.1448 57.8512 54.8692 57.7635C55.2686 57.7153 55.62 57.5358 55.8852 57.2738C55.9254 57.3722 55.9546 57.4773 55.971 57.5875C56.024 57.9456 55.9325 58.3012 55.7129 58.5886C55.4939 58.8753 55.1764 59.0569 54.8187 59.1002C53.9426 59.2064 53.1271 59.2588 52.3906 59.2588Z" fill="#B9AFBE"/>
<path d="M49.4681 58.8312C50.5925 59.2864 52.4925 59.382 54.8188 59.1002C55.1765 59.057 55.494 58.8753 55.713 58.5886C55.9323 58.3012 56.024 57.9457 55.9709 57.5875C55.8708 56.9098 55.2819 56.4254 54.5973 56.4548C52.9899 56.53 50.7821 56.5538 49.3146 56.2464C49.1628 56.4316 48.9258 57.1676 49.0209 57.9548C49.0476 58.1746 49.1444 58.7 49.4681 58.8312ZM52.3779 60.1016C51.2225 60.1016 50.0588 59.9782 49.1524 59.6111C48.0486 59.1641 48.0121 57.4207 48.3348 56.3831C48.6538 55.3569 49.1968 55.3584 49.4157 55.4075C50.7915 55.7128 52.9719 55.6882 54.5583 55.6142C55.6754 55.5582 56.6397 56.3573 56.8033 57.4644C56.8897 58.0491 56.7401 58.6298 56.3817 59.0993C56.024 59.5679 55.5049 59.8649 54.9196 59.9357C54.1594 60.0278 53.271 60.1016 52.3779 60.1016Z" fill="#371A45"/>
<path d="M49.9067 54.6938V60.1468C49.9067 61.1586 49.0784 61.9867 48.0667 61.9867H38.0242C37.0137 61.9867 36.1858 61.1586 36.1858 60.1468V54.6938C36.1858 53.6821 37.0137 52.8554 38.0242 52.8554H48.0667C48.6622 52.8554 49.194 53.1423 49.5312 53.5843C49.7666 53.8929 49.9067 54.2779 49.9067 54.6938Z" fill="white"/>
<path d="M48.0674 61.5659H39.4956C38.4356 61.2275 37.5379 60.8778 36.6538 60.5122C36.6228 60.3959 36.6064 60.2737 36.6064 60.1476V58.7247C37.8102 60.1145 40.3121 60.7787 42.6883 60.7787C43.1071 60.7787 43.5216 60.758 43.9246 60.7171C44.5961 60.6492 45.0769 60.0109 44.9164 59.3551C44.8684 59.159 44.8428 58.9518 44.8428 58.7367C44.8428 58.3722 44.917 58.0288 45.0475 57.7281C45.1906 58.4568 45.833 59.0064 46.6034 59.0064C47.3744 59.0064 48.0169 58.4565 48.1597 57.7278C48.2768 57.9966 48.3485 58.2995 48.3624 58.6208C49.0368 57.7392 49.3546 56.6905 49.4853 55.7006V60.1476C49.4853 60.7178 49.147 61.2104 48.6609 61.4355C48.5943 61.4606 48.527 61.4858 48.4591 61.5107C48.3346 61.5467 48.2032 61.5659 48.0674 61.5659Z" fill="#B9AFBE"/>
<path d="M38.0246 53.2755C37.2426 53.2755 36.6063 53.9121 36.6063 54.6938V60.1477C36.6063 60.9298 37.2426 61.5659 38.0246 61.5659H48.0675C48.8492 61.5659 49.4855 60.9298 49.4855 60.1477V54.6938C49.4855 53.9121 48.8492 53.2755 48.0675 53.2755H38.0246ZM48.0675 62.4072H38.0246C36.7784 62.4072 35.7649 61.3937 35.7649 60.1477V54.6938C35.7649 53.4479 36.7784 52.4345 38.0246 52.4345H48.0675C49.3131 52.4345 50.3269 53.4479 50.3269 54.6938V60.1477C50.3269 61.3937 49.3131 62.4072 48.0675 62.4072Z" fill="#371A45"/>
<path d="M48.1895 57.4207C48.1895 58.2967 47.4794 59.0067 46.6034 59.0067C45.7277 59.0067 45.0177 58.2967 45.0177 57.4207C45.0177 56.545 45.7277 55.8349 46.6034 55.8349C47.4794 55.8349 48.1895 56.545 48.1895 57.4207Z" fill="#22A7F0"/>
<path d="M48.1899 57.421C48.1899 57.5072 48.1834 57.5916 48.1692 57.6738C48.0485 56.9179 47.3933 56.3406 46.6035 56.3406C45.8137 56.3406 45.1588 56.9179 45.0381 57.6738C45.0239 57.5916 45.0174 57.5072 45.0174 57.421C45.0174 56.5453 45.7278 55.835 46.6035 55.835C47.4795 55.835 48.1899 56.5453 48.1899 57.421Z" fill="white"/>
<path d="M46.6031 59.0062C45.8127 59.0062 45.1574 58.4279 45.0374 57.6711C45.0377 57.672 45.0377 57.6729 45.038 57.6738C45.0709 57.4658 45.1448 57.2712 45.2507 57.0986C45.5283 57.5538 46.0303 57.857 46.6031 57.857C47.1765 57.857 47.6785 57.5535 47.9561 57.0983C48.062 57.2709 48.1355 57.4651 48.1688 57.6732C48.0481 58.4288 47.3932 59.0062 46.6031 59.0062Z" fill="#2976B4"/>
<path d="M45.038 57.6737C45.0377 57.6728 45.0377 57.6719 45.0377 57.6709C45.0247 57.5893 45.0176 57.5056 45.0176 57.4206C45.0176 57.218 45.0558 57.0246 45.1266 56.8467C45.1605 56.9344 45.2024 57.0188 45.251 57.0982C45.1448 57.271 45.0712 57.4656 45.038 57.6737ZM48.1688 57.6731C48.1358 57.4653 48.0619 57.2707 47.9563 57.0979C48.0047 57.0185 48.0462 56.9344 48.0804 56.8467C48.1509 57.0246 48.1891 57.218 48.1891 57.4206C48.1891 57.5065 48.1823 57.5909 48.1688 57.6731Z" fill="#B9AFBE"/>
<path d="M46.6036 56.1504C45.9033 56.1504 45.3335 56.7202 45.3335 57.4208C45.3335 58.1214 45.9033 58.6912 46.6036 58.6912C47.3041 58.6912 47.8742 58.1214 47.8742 57.4208C47.8742 56.7202 47.3041 56.1504 46.6036 56.1504ZM46.6036 59.322C45.5553 59.322 44.7023 58.469 44.7023 57.4208C44.7023 56.3723 45.5553 55.5193 46.6036 55.5193C47.6524 55.5193 48.5051 56.3723 48.5051 57.4208C48.5051 58.469 47.6524 59.322 46.6036 59.322Z" fill="#371A45"/>
<path d="M42.1097 62.3389C41.9149 62.3389 41.757 62.1809 41.757 61.9864V59.355C41.757 58.678 41.4343 58.0307 40.8934 57.6234C40.1768 57.0839 39.7488 56.226 39.7488 55.3289V52.8548C39.7488 52.6603 39.9065 52.5024 40.1013 52.5024C40.2958 52.5024 40.4537 52.6603 40.4537 52.8548V55.3289C40.4537 56.0059 40.7767 56.6532 41.3176 57.0604C42.0341 57.6 42.4621 58.4576 42.4621 59.355V61.9864C42.4621 62.1809 42.3045 62.3389 42.1097 62.3389Z" fill="#371A45"/>
<path d="M54.3918 44.2679C54.2753 44.1545 54.1549 44.0429 54.0317 43.9322C54.2306 43.7822 54.426 43.6276 54.6176 43.4688C54.7083 43.5365 54.7966 43.607 54.8821 43.6806C54.7226 43.8809 54.5593 44.0767 54.3918 44.2679ZM32.6909 44.038C32.5419 43.8607 32.3962 43.6796 32.2542 43.4953C32.3922 43.3903 32.5358 43.2919 32.6845 43.2015C32.8481 43.3439 33.0153 43.4838 33.1842 43.6199C33.0146 43.7567 32.8505 43.8959 32.6909 44.038Z" fill="#B9AFBE"/>
<path d="M51.9336 46.5396C51.8024 46.1943 51.6671 45.8491 51.5271 45.5049C52.1517 45.1847 52.7548 44.8268 53.3329 44.4337C53.5025 44.5806 53.6658 44.7309 53.8234 44.8844C53.2343 45.4905 52.6024 46.0443 51.9336 46.5396Z" fill="#B9AFBE"/>
<path d="M53.8231 44.8845C53.6653 44.7313 53.5023 44.5811 53.3328 44.4337C53.5702 44.2725 53.803 44.1054 54.0317 43.9324C54.1548 44.0428 54.2749 44.1545 54.3918 44.268C54.2074 44.4791 54.0175 44.6849 53.8231 44.8845Z" fill="#371A45"/>
<path d="M35.0581 46.3234C34.4172 45.8243 33.8137 45.2716 33.2527 44.6709C33.4529 44.493 33.661 44.3193 33.8783 44.1502C34.4002 44.5283 34.9436 44.877 35.5087 45.1949C35.3534 45.5704 35.2031 45.9467 35.0581 46.3234Z" fill="#B9AFBE"/>
<path d="M33.2524 44.6714C33.0603 44.4657 32.873 44.2544 32.6908 44.038C32.8505 43.8958 33.0143 43.7569 33.1841 43.6201C33.4106 43.8026 33.6421 43.9795 33.878 44.1505C33.6608 44.3194 33.4527 44.4933 33.2524 44.6714Z" fill="#371A45"/>
<path d="M43.6538 49.3271C43.3236 49.3271 42.992 49.3152 42.6578 49.2908C39.8252 49.0836 37.2278 48.0129 35.0582 46.3238C35.2031 45.9469 35.3533 45.5707 35.5085 45.1951C37.651 46.4012 40.0886 47.1582 42.7015 47.3293C43.0771 47.3538 43.45 47.3657 43.8215 47.3657C46.5788 47.3657 49.203 46.697 51.5271 45.5052C51.667 45.8493 51.8024 46.1944 51.9334 46.5395C49.5474 48.3061 46.6939 49.3271 43.6538 49.3271Z" fill="#B9AFBE"/>
<path d="M59.8468 35.4907C59.6609 35.4919 59.5091 35.3422 59.5083 35.1558L59.4537 25.4553C59.4525 25.2694 59.6027 25.1176 59.7886 25.1168C61.74 25.1057 63.3307 26.6787 63.3418 28.6302L63.3602 31.9379C63.3713 33.8889 61.7983 35.4796 59.8468 35.4907Z" fill="white"/>
<path d="M59.8088 25.1962C59.8022 25.1962 59.7957 25.1962 59.7891 25.1962C59.7201 25.1966 59.6556 25.2237 59.6071 25.2726C59.5586 25.3215 59.5323 25.3864 59.5327 25.4554L59.5874 35.1559C59.5874 35.2245 59.6149 35.2894 59.6638 35.3375C59.7123 35.3856 59.7764 35.4118 59.845 35.4118H59.8462C60.769 35.4069 61.6342 35.0429 62.2829 34.3868C62.9317 33.7307 63.2858 32.8613 63.2809 31.9386L63.2624 28.6308C63.2571 27.7081 62.8926 26.8428 62.2369 26.1941C61.5853 25.5503 60.7238 25.1962 59.8088 25.1962ZM59.845 35.5704C59.7345 35.5704 59.6309 35.5277 59.5525 35.4501C59.4732 35.372 59.4296 35.2681 59.4288 35.1567L59.3741 25.4562C59.3737 25.3449 59.4165 25.2405 59.4945 25.1617C59.5726 25.0824 59.6769 25.0384 59.7879 25.038C60.7509 25.0323 61.6621 25.4032 62.3478 26.0815C63.0344 26.7599 63.4148 27.6649 63.4206 28.63L63.4391 31.9377C63.4444 32.9028 63.0738 33.812 62.3955 34.4981C61.7172 35.1838 60.8121 35.5651 59.847 35.5704H59.845Z" fill="#371A45"/>
<path d="M60.1823 35.0304C60.3336 34.4568 60.4511 33.8737 60.5348 33.2826C60.5666 33.0966 60.5957 32.909 60.6216 32.7206C61.5708 32.5553 62.3893 32.0112 62.9155 31.2501L62.9195 31.9407C62.9242 32.7664 62.6072 33.5447 62.0261 34.1322C61.5254 34.6389 60.8801 34.9507 60.1823 35.0304Z" fill="#B9AFBE"/>
<path d="M59.8947 25.5585L59.948 35.0482C60.7349 35.018 61.4694 34.695 62.0258 34.1324C62.607 33.545 62.9243 32.7667 62.9193 31.9406L62.9007 28.6326C62.8962 27.8065 62.5702 27.032 61.9828 26.4512C61.4202 25.8947 60.6821 25.58 59.8947 25.5585ZM59.8447 35.9318C59.6386 35.9318 59.4449 35.852 59.2982 35.707C59.1508 35.5612 59.0686 35.3663 59.0673 35.1585L59.0128 25.4581C59.012 25.2503 59.0913 25.0545 59.2375 24.9071C59.3837 24.7596 59.5783 24.6774 59.7857 24.6762C60.851 24.6679 61.8474 25.0781 62.6025 25.8245C63.3567 26.5705 63.776 27.5665 63.7818 28.6277L63.8008 31.9356C63.8066 32.9968 63.3989 33.9973 62.6524 34.752C61.9064 35.5067 60.9105 35.9256 59.8493 35.9318H59.8447Z" fill="#371A45"/>
<path d="M27.769 25.2969C27.9552 25.2961 28.1067 25.4459 28.1077 25.6321L28.1624 35.3324C28.1633 35.5186 28.0134 35.67 27.8276 35.6712C25.8761 35.6823 24.2854 34.1092 24.2746 32.158L24.2558 28.8498C24.245 26.8986 25.8178 25.308 27.769 25.2969Z" fill="white"/>
<path d="M27.7696 25.3762C25.8652 25.3864 24.3245 26.945 24.3351 28.8493L24.3536 32.1573C24.3645 34.055 25.9119 35.5919 27.8074 35.5919C27.814 35.5919 27.8206 35.5919 27.8272 35.5919C27.896 35.5914 27.9604 35.5644 28.0089 35.5152C28.0572 35.4665 28.0836 35.4017 28.0833 35.3329L28.0288 25.6323C28.0284 25.5634 28.0011 25.4987 27.9522 25.4503C27.9033 25.402 27.8375 25.3721 27.7696 25.3762ZM27.8074 35.75C25.825 35.7504 24.2065 34.1431 24.1953 32.1581L24.1767 28.8501C24.1656 26.8585 25.7771 25.2291 27.7687 25.2176C27.8841 25.2201 27.9846 25.2598 28.0636 25.3377C28.1425 25.4159 28.1865 25.52 28.187 25.6314L28.2417 35.3317C28.2422 35.4431 28.1994 35.5476 28.1214 35.6267C28.0434 35.7057 27.939 35.7496 27.8281 35.75C27.8213 35.75 27.8142 35.75 27.8074 35.75Z" fill="#371A45"/>
<path d="M27.538 35.2188C25.966 35.0821 24.7243 33.7634 24.7151 32.1552L24.7114 31.4862C25.2664 32.1838 26.0807 32.6668 27.0068 32.79C27.1248 33.6194 27.3032 34.4302 27.538 35.2188Z" fill="#B9AFBE"/>
<path d="M27.6678 25.7396C26.0108 25.8039 24.6871 27.1768 24.6965 28.8476L24.715 32.1554C24.7244 33.8258 26.0637 35.1835 27.7212 35.2296L27.6678 25.7396ZM27.8072 36.1116C25.6263 36.112 23.8462 34.344 23.834 32.1604L23.8155 28.8526C23.803 26.6615 25.5756 24.8688 27.7667 24.8564C27.975 24.8556 28.17 24.9351 28.3176 25.0809C28.4652 25.2268 28.5472 25.4216 28.5484 25.6292L28.6029 35.3301C28.6041 35.5373 28.5244 35.7334 28.3784 35.8809C28.2323 36.0284 28.0377 36.1103 27.83 36.1116C27.8224 36.1116 27.8147 36.1116 27.8072 36.1116Z" fill="#371A45"/>
<path d="M60.3056 31.4735C59.7093 40.5836 51.8405 47.4858 42.7301 46.8894C33.6199 46.2932 26.7182 38.4245 27.3144 29.3144C27.9108 20.2038 35.7796 13.302 44.8898 13.8983C54.0001 14.4945 60.9019 22.3634 60.3056 31.4735Z" fill="white"/>
<path d="M43.7989 13.9417C35.2127 13.9417 27.9623 20.6306 27.3936 29.3195C26.8009 38.3712 33.6833 46.218 42.7353 46.8104C43.0988 46.8344 43.4617 46.8459 43.821 46.8461C52.4073 46.8466 59.6578 40.157 60.2267 31.4682C60.8192 22.4164 53.937 14.57 44.8846 13.9775C44.5211 13.9533 44.1582 13.9417 43.7989 13.9417ZM43.8337 47.0048C43.4652 47.0048 43.096 46.9928 42.7249 46.9683C33.5858 46.37 26.6373 38.4481 27.2354 29.3088C27.8337 20.1696 35.7544 13.2216 44.895 13.8194C54.0341 14.4178 60.9831 22.3396 60.3847 31.4788C60.0947 35.9059 58.0982 39.9555 54.7629 42.8809C51.707 45.5616 47.8614 47.0048 43.8337 47.0048Z" fill="#371A45"/>
<path d="M43.8206 46.4849C43.4695 46.4849 43.1146 46.473 42.7591 46.45C39.041 46.2065 35.6974 44.7123 33.1119 42.4041C35.6372 43.8953 39.1462 45.2342 42.9678 45.3919C43.2892 45.4054 43.6065 45.4118 43.9215 45.4118C47.5611 45.4118 50.7538 44.5526 53.1404 43.4954C50.4953 45.3827 47.2678 46.4849 43.8206 46.4849Z" fill="#B9AFBE"/>
<path d="M43.799 14.3036C35.4016 14.3036 28.3103 20.8456 27.754 29.343C27.1745 38.1964 33.9058 45.8704 42.7589 46.4501C43.1145 46.4731 43.4694 46.4848 43.8207 46.4848C52.2183 46.4853 59.3095 39.9426 59.866 31.4452C60.4453 22.5918 53.714 14.9179 44.8608 14.3381C44.5055 14.3148 44.1504 14.3036 43.799 14.3036ZM43.8214 47.3658C43.4501 47.3658 43.0769 47.3539 42.7014 47.3292C33.3632 46.7177 26.2636 38.6233 26.8749 29.2852C27.4861 19.9477 35.5783 12.8478 44.9186 13.4592C54.2564 14.07 61.3563 22.1649 60.7449 31.5025C60.1583 40.4651 52.6782 47.3658 43.8214 47.3658Z" fill="#371A45"/>
<path d="M60.2247 31.8941C60.0624 35.125 58.8629 38.0715 56.9442 40.463C55.5062 42.2558 49.8143 45.2338 42.9859 44.9521C36.6541 44.6906 31.0656 41.0265 29.8144 39.0984C28.1457 36.5266 27.2478 33.4742 27.4104 30.2433C27.8405 21.6943 35.364 18.5193 44.4259 18.975C53.4879 19.4308 60.6552 23.3447 60.2247 31.8941Z" fill="#371A45"/>
<path d="M42.8546 19.3759C37.542 19.3759 28.3286 20.7592 27.8504 30.2655C27.6979 33.2989 28.5049 36.2704 30.1842 38.8584C31.3763 40.6957 36.83 44.2568 43.0041 44.5118C49.8488 44.7949 55.3191 41.7846 56.6007 40.1874C58.5312 37.7807 59.6323 34.9052 59.7852 31.8717C59.9801 27.9886 58.5805 24.9213 55.6244 22.7548C52.965 20.8053 49.0846 19.6504 44.4042 19.4148C43.9421 19.3917 43.4202 19.3759 42.8546 19.3759ZM43.9213 45.4117C43.6065 45.4117 43.2891 45.4054 42.9677 45.3918C36.4034 45.121 30.7599 41.3645 29.4449 39.3381C27.664 36.5932 26.8084 33.4409 26.9703 30.2212C27.1816 26.0233 29.0277 22.8714 32.4578 20.8523C35.4486 19.0923 39.5943 18.2901 44.4481 18.5348C49.3016 18.779 53.3466 19.9922 56.1453 22.0439C59.3556 24.3967 60.8759 27.7182 60.6651 31.9161C60.5033 35.1358 59.3352 38.1868 57.2881 40.7386C55.931 42.4303 50.7026 45.4117 43.9213 45.4117Z" fill="#371A45"/>
<path d="M54.6419 33.3542C54.5229 33.3539 54.4039 33.3408 54.2858 33.3131C53.1455 33.0467 52.5194 31.5555 52.887 29.982C53.2162 28.5717 54.232 27.5745 55.26 27.5745C55.379 27.5745 55.4984 27.588 55.6166 27.6156C56.5379 27.831 57.1236 28.846 57.1205 30.0583C56.9604 30.7666 56.76 31.4602 56.5217 32.1365C56.0458 32.8855 55.3466 33.3542 54.6419 33.3542Z" fill="#9B8DA2"/>
<path d="M51.9456 37.4414C51.8234 37.4414 51.7013 37.42 51.5831 37.3744C50.9893 37.1452 50.7244 36.3989 50.9914 35.7069C51.2048 35.1524 51.6954 34.8015 52.187 34.8015C52.3091 34.8015 52.4312 34.8233 52.5495 34.8689C53.1432 35.0977 53.4082 35.8444 53.1415 36.5364C52.9278 37.0905 52.4372 37.4414 51.9456 37.4414Z" fill="#9B8DA2"/>
<path d="M43.9085 44.5305C43.61 44.5305 43.3082 44.5243 43.0038 44.5119C41.0703 44.432 39.2072 44.0275 37.5234 43.4536C45.3577 43.2619 51.6991 39.8552 53.3938 37.7423C54.7365 36.0688 55.8014 34.1807 56.5219 32.1366C56.7401 31.7925 56.9115 31.3901 57.015 30.9466C57.0858 30.6448 57.1193 30.3459 57.1202 30.0585C57.3541 29.0243 57.5019 27.9585 57.557 26.8671C57.5988 26.0485 57.5843 25.2635 57.5189 24.5112C59.1713 26.4758 59.9323 28.9414 59.7849 31.872C59.6322 34.9053 58.5312 37.7808 56.6005 40.1872C55.3762 41.7138 50.327 44.5305 43.9085 44.5305Z" fill="#2A1A3B"/>
<path d="M43.8904 44.9708C43.5911 44.9708 43.2901 44.965 42.9857 44.9524C40.5746 44.8532 38.2717 44.2603 36.2745 43.4565C36.4601 43.4603 36.6465 43.4624 36.8307 43.4624C37.0627 43.4624 37.2941 43.4594 37.5235 43.4536C39.2073 44.0276 41.0703 44.4316 43.0041 44.5115C43.3081 44.5241 43.6099 44.5304 43.9084 44.5304C50.327 44.5304 55.3761 41.7136 56.6007 40.1871C58.5312 37.7806 59.6327 34.9052 59.7851 31.8716C59.9325 28.9413 59.1713 26.4758 57.5189 24.511C57.4967 24.2561 57.4686 24.0049 57.4351 23.7574C59.3447 25.7725 60.3972 28.4595 60.2251 31.8934C60.0623 35.125 58.8624 38.0712 56.9449 40.463C55.5704 42.1758 50.3119 44.9708 43.8904 44.9708Z" fill="#2A1A3B"/>
<path d="M56.5217 32.1365C56.76 31.4601 56.9603 30.7665 57.1202 30.0582C57.1199 30.3459 57.086 30.6449 57.0154 30.9467C56.9116 31.3898 56.7402 31.7926 56.5217 32.1365Z" fill="#6B6577"/>
<path d="M59.191 24.7568C59.0844 24.7568 58.9783 24.7175 58.8949 24.6382L58.8509 24.5993L58.8259 24.5557C56.2427 20.5191 50.9842 18.0138 44.3986 17.6825C37.7769 17.3502 32.2946 19.3871 29.3588 23.2727L29.3278 23.3093C29.1694 23.4868 28.9001 23.4984 28.7229 23.3399C28.5504 23.1856 28.5344 22.9206 28.6794 22.7431C31.792 18.6328 37.5358 16.4745 44.4422 16.822C51.2983 17.1672 56.7987 19.8088 59.5385 24.0715C59.6594 24.236 59.6492 24.4686 59.5037 24.622C59.4189 24.7114 59.305 24.7568 59.191 24.7568Z" fill="#371A45"/>
<path d="M30.8393 35.5148C30.8393 35.5148 28.6155 26.9475 33.3301 23.8151C36.498 21.7103 40.4905 21.1746 42.7157 21.1746C43.8015 21.1746 44.4663 21.3023 44.4094 21.437C44.4094 21.437 37.0816 22.8257 33.9608 28.4066C31.5544 32.71 30.8393 35.5148 30.8393 35.5148Z" fill="#9B8DA2"/>
<path d="M44.2601 72.645C44.2601 72.645 33.9043 73.8186 29.3014 69.8636C23.0126 64.4602 28.4049 57.6887 33.0767 59.4926C37.1437 61.0631 38.8163 62.298 46.0407 63.4822C52.0941 64.4741 57.2938 70.6889 52.9501 74.2961C49.8831 76.8428 44.2601 72.645 44.2601 72.645Z" fill="white"/>
<path d="M50.4924 74.6968C50.4924 74.6968 50.492 74.6968 50.4917 74.6968C48.5488 74.6965 46.3677 73.5056 45.2539 72.8053C45.404 72.8071 45.5582 72.8081 45.7161 72.8081C48.1254 72.8081 51.3773 72.581 54.1018 71.5915C53.9776 72.4861 53.4998 73.2929 52.6817 73.9725C52.0529 74.4947 51.2933 74.6968 50.4924 74.6968ZM31.9469 70.9633C31.0603 70.5906 30.2512 70.1248 29.5758 69.5444C28.0699 68.2505 27.2892 66.9039 27.0028 65.6462C27.1779 65.8187 27.3642 65.9903 27.5623 66.1601C28.922 67.3286 30.7839 68.0493 32.7322 68.4852C32.259 69.2948 31.9787 70.1375 31.9469 70.9633Z" fill="#B9AFBE"/>
<path d="M44.3783 72.2083L44.5119 72.308C44.5534 72.3388 47.7581 74.6965 50.4917 74.6967C51.2928 74.697 52.0528 74.4946 52.6816 73.9725C53.9467 72.922 54.398 71.5672 53.9868 70.0545C53.2145 67.2117 49.6945 64.5071 45.9728 63.8971C40.2896 62.9658 37.9936 61.9952 35.3359 60.8714C34.5879 60.5551 33.8145 60.2282 32.9253 59.8849C30.9891 59.1374 28.7366 60.0116 27.5687 61.9637C26.4501 63.8336 26.3899 66.8068 29.5758 69.5444C33.9885 73.3359 44.1112 72.2386 44.2131 72.2271L44.3783 72.2083ZM50.4949 75.5399C47.77 75.5402 44.8198 73.5608 44.1439 73.0804C42.7449 73.22 33.4504 73.983 29.0273 70.1826C25.445 67.1046 25.5521 63.6957 26.8468 61.5318C28.2255 59.2271 30.9094 58.2044 33.2282 59.1C34.1298 59.4481 34.9095 59.7777 35.6635 60.0964C38.2716 61.1993 40.5248 62.1515 46.1088 63.0668C50.13 63.726 53.947 66.6983 54.7987 69.8339C55.2954 71.6619 54.7344 73.3615 53.2191 74.6196C52.4166 75.2864 51.47 75.5399 50.4949 75.5399Z" fill="#371A45"/>
<path d="M34.5873 72.5076C34.4821 72.5076 34.3806 72.4509 34.3278 72.352C34.2512 72.2086 34.3054 72.0307 34.4488 71.9546C38.7948 69.638 37.5735 61.5671 37.5608 61.486C37.5354 61.3259 37.6447 61.1754 37.8051 61.15C37.9653 61.1248 38.1158 61.2341 38.1412 61.3943C38.1961 61.7431 39.4364 69.9616 34.7251 72.473C34.6809 72.4965 34.6338 72.5076 34.5873 72.5076Z" fill="#371A45"/>
<path d="M42.2394 72.6449C42.2394 72.6449 52.5952 73.8185 57.1982 69.8634C63.4869 64.4601 58.0945 57.6886 53.4232 59.4924C49.3558 61.0629 47.6833 62.2978 40.4592 63.482C34.4055 64.4739 29.2056 70.6887 33.5494 74.296C36.6161 76.8427 42.2394 72.6449 42.2394 72.6449Z" fill="white"/>
<path d="M36.003 75.1162C35.115 75.1164 34.263 74.889 33.549 74.2961C33.1611 73.9739 32.8494 73.6308 32.6076 73.2726C32.8494 73.631 33.1613 73.9739 33.5493 74.2961C34.263 74.8887 35.1154 75.1162 36.003 75.1162C38.0031 75.1162 40.1827 73.9616 41.362 73.2308C41.362 73.2308 41.3623 73.2308 41.3627 73.2308C40.1835 73.9614 38.0031 75.1162 36.003 75.1162ZM54.9731 71.2394C55.7979 70.8695 56.5542 70.4169 57.198 69.8635C57.2984 69.777 57.3969 69.6898 57.4914 69.6029C57.3966 69.6903 57.2987 69.777 57.1976 69.8637C56.5542 70.4169 55.7979 70.8698 54.9731 71.2394Z" fill="#B38982"/>
<path d="M45.7162 72.808C45.5582 72.808 45.404 72.8071 45.2539 72.8052C45.2536 72.8052 45.2536 72.8052 45.2532 72.8049C45.4036 72.8068 45.5582 72.8077 45.7162 72.8077C48.1258 72.8077 51.3773 72.581 54.1018 71.5914C51.3773 72.581 48.1254 72.808 45.7162 72.808Z" fill="#8C7B94"/>
<path d="M41.3619 73.2307C41.9079 72.8925 42.2396 72.6448 42.2396 72.6448C42.2396 72.6448 43.4626 72.7835 45.2536 72.8049C45.2536 72.8051 45.2536 72.8051 45.2539 72.8051C43.4622 72.7837 42.2399 72.6453 42.2399 72.6453C42.2399 72.6453 41.9086 72.8925 41.363 73.2307C41.3626 73.2307 41.3623 73.2307 41.3619 73.2307ZM54.1019 71.5913C54.3994 71.4832 54.6905 71.3662 54.9733 71.2393C54.6905 71.3662 54.3994 71.4835 54.1019 71.5913Z" fill="#371A45"/>
<path d="M57.4923 69.602C57.4942 69.6004 57.4963 69.5985 57.4978 69.5968C57.496 69.5987 57.4942 69.6004 57.4923 69.602ZM57.5018 69.5933C57.5026 69.5926 57.5036 69.5917 57.5044 69.5909C57.5036 69.5919 57.5026 69.5926 57.5018 69.5933ZM57.5099 69.586C57.5102 69.5855 57.5102 69.5855 57.5106 69.5853C57.5102 69.5855 57.5102 69.5858 57.5099 69.586Z" fill="#B38982"/>
<path d="M36.003 75.1162C35.1156 75.1162 34.263 74.8887 33.5493 74.2961C33.1613 73.9739 32.8495 73.631 32.6077 73.2726C32.6074 73.2724 32.6072 73.2722 32.6072 73.2719C32.606 73.2703 32.6048 73.2687 32.6037 73.2668C32.6032 73.2661 32.6025 73.2651 32.6021 73.2642C32.6016 73.2635 32.6011 73.263 32.6006 73.2623C31.9196 72.2469 31.7988 71.11 32.0989 69.9786C32.3207 70.7283 32.5383 71.8812 33.3195 72.4875C34.2969 73.2461 35.317 73.5556 36.2938 73.5556C37.6977 73.5556 39.0125 72.9171 39.9861 72.0535C41.2389 70.9421 41.0343 70.0318 41.839 69.5796C41.946 69.5195 42.0581 69.4927 42.1774 69.4927C43.0662 69.4927 44.3549 70.9652 46.8384 71.0944C47.2487 71.1158 47.6495 71.1262 48.0396 71.1262C52.6871 71.1262 55.8861 69.6652 57.4594 68.0578C58.9428 66.5425 59.6499 64.7875 59.9371 63.3926C60.3348 65.2653 59.7535 67.5119 57.5106 69.5853C57.5102 69.5855 57.5102 69.5855 57.5099 69.586C57.5079 69.5876 57.506 69.5893 57.5041 69.5909C57.5034 69.5916 57.5026 69.5925 57.5018 69.5933C57.5003 69.5944 57.4992 69.5956 57.498 69.5968C57.4961 69.5984 57.4942 69.6003 57.4923 69.6019C57.4919 69.6022 57.4919 69.6026 57.4915 69.6029C57.3967 69.6898 57.2988 69.777 57.1982 69.8635C56.5542 70.4169 55.7981 70.8695 54.9729 71.2394C54.6903 71.3663 54.3989 71.4834 54.1017 71.5915C51.377 72.581 48.1256 72.8078 45.7163 72.8078C45.558 72.8078 45.4035 72.8069 45.2532 72.805C43.4623 72.7836 42.2394 72.645 42.2394 72.645C42.2394 72.645 41.9078 72.8927 41.3617 73.2308C40.1827 73.9616 38.0033 75.1162 36.003 75.1162Z" fill="#B9AFBE"/>
<path d="M55.0044 59.6194C54.5224 59.6194 54.0393 59.7054 53.5747 59.885C52.6853 60.2283 51.912 60.5552 51.1643 60.8715C48.5059 61.9953 46.2104 62.9658 40.527 63.8971C36.8056 64.5071 33.2851 67.2118 32.513 70.0546C32.1019 71.5672 32.5531 72.922 33.8181 73.9725C36.594 76.2776 41.9343 72.3477 41.9877 72.308L42.1212 72.2086L42.2867 72.2271C42.3885 72.2386 52.5144 73.3333 56.9239 69.5444C60.1099 66.8069 60.0496 63.8337 58.9308 61.9638C58.0434 60.4804 56.5293 59.6194 55.0044 59.6194ZM36.005 75.5399C35.0295 75.5399 34.0835 75.2866 33.2805 74.6197C31.7652 73.3615 31.2042 71.6619 31.7008 69.8339C32.5527 66.6983 36.37 63.726 40.3912 63.0669C45.9752 62.1515 48.2278 61.1993 50.8362 60.0965C51.5906 59.7778 52.3701 59.4481 53.2714 59.1001C55.5905 58.2042 58.274 59.2272 59.6531 61.5319C60.9478 63.6957 61.0546 67.1046 57.4721 70.1826C53.0493 73.983 43.7548 73.22 42.3556 73.0804C41.6802 73.5607 38.7298 75.5399 36.005 75.5399Z" fill="#371A45"/>
<path d="M51.9124 72.5074C51.8659 72.5074 51.8186 72.4964 51.7747 72.4729C47.0631 69.9615 48.3034 61.7428 48.3587 61.3941C48.384 61.2341 48.5344 61.1238 48.6945 61.1499C48.8546 61.1753 48.9637 61.3257 48.9388 61.4857C48.9261 61.567 47.7084 69.64 52.0509 71.9545C52.194 72.0306 52.2483 72.2085 52.172 72.3519C52.1191 72.4508 52.0176 72.5074 51.9124 72.5074Z" fill="#371A45"/>
<path d="M65.7243 54.6374C65.7243 53.1485 67.3873 51.9415 68.8751 51.9415H70.1398L71.0614 57.3336H68.8751C68.1315 57.3336 67.4579 57.0314 66.9692 56.5437C66.4814 56.0561 65.7243 55.3826 65.7243 54.6374ZM64.4168 54.6374C64.4168 55.8691 64.9161 56.9832 65.7225 57.7906C66.5298 58.5969 67.6437 59.0963 68.8751 59.0963H73.1509L71.6267 50.1788H68.8751C66.4131 50.1788 64.4168 52.1753 64.4168 54.6374Z" fill="#00C10E"/>
<path d="M70.9085 58.6757H68.8751C68.2762 58.6757 67.6965 58.5457 67.1687 58.2994C67.2881 58.2369 67.4071 58.1561 67.5256 58.0555C67.9515 58.1906 68.4046 58.2635 68.8751 58.2635H70.73C70.7873 58.4016 70.8472 58.5391 70.9085 58.6757ZM68.6783 51.5258C68.6774 51.5187 68.677 51.5117 68.6761 51.5046C68.6761 51.5046 68.5808 51.3486 68.405 51.1378C68.5522 51.1181 68.7083 51.1082 68.8751 51.1082H69.5698L69.5599 51.2624C69.5546 51.3486 69.5501 51.4349 69.5461 51.5209H68.8751C68.8098 51.5209 68.7441 51.5225 68.6783 51.5258Z" fill="#138721"/>
<path d="M68.8754 52.3624C67.5517 52.3624 66.145 53.1598 66.145 54.6377C66.145 56.8869 68.848 56.9129 68.8754 56.9129H70.5629L69.785 52.3624H68.8754ZM71.5602 57.7543H68.8754C67.4399 57.7543 65.3036 56.9242 65.3036 54.6377C65.3036 52.6867 67.1196 51.5209 68.8754 51.5209H70.4951L71.5602 57.7543ZM68.8754 50.5995C66.649 50.5995 64.8376 52.4111 64.8376 54.6377C64.8376 55.7156 65.2572 56.7299 66.0202 57.4934C66.7836 58.2558 67.7977 58.6757 68.8754 58.6757H72.6523L71.2715 50.5995H68.8754ZM73.6496 59.517H68.8754C67.5731 59.517 66.3478 59.0098 65.4252 58.0884C64.5035 57.1653 63.9962 55.9401 63.9962 54.6377C63.9962 51.9469 66.1849 49.7582 68.8754 49.7582H71.9816L73.6496 59.517Z" fill="#371A45"/>
<path d="M71.0338 58.9464C71.4485 59.8222 72.2749 60.44 73.2358 60.5653C73.7653 60.6344 74.2984 60.6689 74.831 60.6689C75.3646 60.6689 75.8977 60.6344 76.4278 60.5653C77.3928 60.4393 78.2191 59.8152 78.6348 58.9351C79.6204 56.8488 80.1324 54.5686 80.1324 52.2573C80.1324 51.9255 80.1228 51.5949 80.1011 51.2628L79.9434 48.7613C79.9434 49.2943 77.6548 49.7262 74.831 49.7262C72.0083 49.7262 69.7197 49.2943 69.7197 48.7613L69.5605 51.2628C69.3927 53.9158 69.9036 56.5588 71.0338 58.9464Z" fill="#00C10E"/>
<path d="M76.2256 55.472C76.041 55.1024 75.7636 54.8072 75.476 54.517C75.3249 54.365 75.1918 54.2045 75.0801 54.0336C74.928 53.801 74.8153 53.5498 74.7536 53.276C74.7376 53.2076 74.725 53.1373 74.7162 53.0659C74.7041 52.9709 74.6973 52.8741 74.6973 52.7745C74.6968 52.6699 74.7269 52.6234 74.8309 52.6011C75.0223 52.5599 75.2064 52.5625 75.3832 52.6044V52.6046C75.5129 52.6349 75.6383 52.6871 75.7597 52.758C76.6482 53.279 77.184 54.4679 76.9853 55.4796C76.9144 55.8436 76.7711 56.1735 76.4476 56.4172C76.4515 56.0732 76.3723 55.7646 76.2256 55.472Z" fill="#FCF7FB"/>
<path d="M74.2767 52.8698C74.2858 53.3553 74.417 53.7741 74.6358 54.1463C74.8086 54.441 75.0365 54.7063 75.3022 54.9531C75.4397 55.0802 75.5565 55.2278 75.6618 55.3836C75.8921 55.7239 76.0391 56.0907 76.03 56.5114C76.0276 56.6234 75.9864 56.6723 75.8796 56.6954C75.5416 56.7685 75.2261 56.7045 74.935 56.5344C74.3414 56.187 73.9143 55.5354 73.7554 54.8382C73.6768 54.4956 73.6634 54.1416 73.7271 53.8072C73.7271 53.8042 73.7276 53.8013 73.7285 53.7983C73.7424 53.7255 73.7601 53.6538 73.7812 53.5833C73.8669 53.3039 74.0115 53.0564 74.2767 52.8698Z" fill="#FCF7FB"/>
<path d="M80.1105 51.4183C80.1075 51.3664 80.1045 51.3147 80.1015 51.2628L79.9438 48.7655C79.9438 48.764 79.9438 48.7624 79.9438 48.7607L80.1015 51.263C80.105 51.3147 80.108 51.3667 80.1105 51.4183ZM79.0738 49.2998C79.4652 49.1901 79.7408 49.0644 79.8667 48.9288C79.7413 49.0644 79.4657 49.1901 79.0738 49.2998Z" fill="#FCEDE3"/>
<path d="M78.2589 59.1655C78.9825 57.338 79.3564 55.3865 79.3564 53.4127C79.3564 53.0805 79.3463 52.75 79.3256 52.4187L79.238 51.0472C79.2133 50.6458 78.8782 50.3437 78.4948 50.3437C78.4398 50.3437 78.3844 50.3498 78.3285 50.3627C77.6865 50.5109 76.7584 50.6012 75.8408 50.6012C75.2629 50.6012 74.6889 50.5653 74.1931 50.4856C72.9783 50.29 71.8264 49.8652 70.8181 49.3592C71.7549 49.5822 73.2045 49.7263 74.8315 49.7263C76.5981 49.7263 78.1556 49.5571 79.0737 49.2998C79.4657 49.19 79.7413 49.0643 79.8668 48.9287C79.8668 48.9285 79.8673 48.9282 79.8673 48.9282C79.8678 48.928 79.8678 48.9278 79.8678 48.9275C79.9167 48.8749 79.9424 48.8206 79.9439 48.7654L80.1016 51.2627C80.1046 51.3147 80.1082 51.3664 80.1107 51.4183C80.1253 51.6982 80.1324 51.9771 80.1324 52.2568C80.1324 54.5685 79.6199 56.8489 78.6343 58.9355C78.6091 58.9891 78.5824 59.0417 78.5542 59.0932C78.456 59.1186 78.3577 59.1428 78.2589 59.1655Z" fill="#B2ECB6"/>
<path d="M76.4561 60.5615C77.3499 60.4356 78.1221 59.8812 78.5541 59.0932C78.5541 59.0932 78.5546 59.0932 78.5546 59.093C78.5635 59.0789 78.5719 59.0639 78.5799 59.0498C78.5779 59.0538 78.5754 59.058 78.5739 59.0622C78.1809 59.8751 77.3983 60.433 76.5041 60.5552C76.4877 60.5573 76.4719 60.5594 76.4561 60.5615ZM73.2052 60.5613C73.1904 60.5592 73.1751 60.5573 73.1597 60.5552C72.4439 60.4574 71.8087 60.0772 71.3756 59.517H71.3895C71.8369 60.0772 72.482 60.4591 73.2052 60.5613ZM70.2396 56.9129C69.7808 55.4437 69.5406 53.9106 69.5292 52.3624H69.5297C69.5406 53.9106 69.7808 55.4437 70.2396 56.9129ZM70.252 49.1904C69.9128 49.0618 69.7215 48.9168 69.7195 48.7634V48.7608C69.7195 48.915 69.9108 49.0605 70.252 49.1897V49.1904Z" fill="#B38982"/>
<path d="M69.5703 51.1081L69.6024 50.5994H69.6029L69.5703 51.1081Z" fill="#138721"/>
<path d="M69.5461 51.5209C69.5501 51.4349 69.5546 51.3486 69.5599 51.2624L69.5698 51.1082H69.5702L69.5604 51.2628C69.555 51.3488 69.5501 51.4351 69.5461 51.5209Z" fill="#20612E"/>
<path d="M71.3896 59.517H71.3757C71.2568 59.3631 71.1528 59.1953 71.0668 59.0162C71.0128 58.9032 70.9601 58.7899 70.9088 58.6757C70.9493 58.7664 70.9911 58.8566 71.0335 58.9464C71.1307 59.1518 71.2509 59.3431 71.3896 59.517ZM69.5297 52.3624H69.5292C69.5274 52.0823 69.5328 51.8017 69.5459 51.5209H69.5463C69.5333 51.8017 69.5274 52.0821 69.5297 52.3624Z" fill="#371A45"/>
<path d="M74.8304 60.6687C74.2883 60.6687 73.7452 60.633 73.2055 60.5613C72.4825 60.4591 71.8371 60.0772 71.3898 59.5169C71.2509 59.343 71.1309 59.1518 71.0335 58.9464C70.991 58.8566 70.9495 58.7663 70.9085 58.6757C70.8472 58.5391 70.7879 58.4016 70.7306 58.2634C70.6599 58.095 70.5927 57.9248 70.5289 57.7542C70.4242 57.4764 70.3278 57.1958 70.2398 56.9129C69.7812 55.4437 69.5405 53.9105 69.5297 52.3624C69.5277 52.082 69.5331 51.8017 69.5465 51.5209C69.5504 51.4351 69.5554 51.3488 69.5603 51.2628L69.5702 51.1082L69.6028 50.5994L69.6562 49.7581L69.6621 49.6692L69.7199 48.7633C69.7214 48.9168 69.9127 49.0618 70.2517 49.1904L70.1953 50.0801C70.0589 52.2519 70.3757 54.4172 71.1155 56.441C71.7788 58.2547 73.505 59.4812 75.4358 59.4861C75.4462 59.4861 75.4566 59.4861 75.4669 59.4861C76.4039 59.4861 77.3404 59.379 78.2592 59.1656C78.1702 59.39 78.0763 59.6124 77.977 59.8328C78.2063 59.6215 78.4015 59.3722 78.5542 59.0932C78.1223 59.8812 77.3503 60.4355 76.4563 60.5615C75.9172 60.633 75.374 60.6687 74.8304 60.6687Z" fill="#138721"/>
<path d="M77.9771 59.8328C78.0759 59.6124 78.1698 59.3901 78.2588 59.1656C78.3571 59.1428 78.456 59.1186 78.5538 59.0932C78.4011 59.3722 78.2059 59.6215 77.9771 59.8328Z" fill="#87A38F"/>
<path d="M69.7197 48.7612C69.7197 49.2941 72.0081 49.7261 74.8313 49.7261C77.6551 49.7261 79.9435 49.2941 79.9435 48.7612C79.9435 48.2282 77.6551 47.7951 74.8313 47.7951C72.0081 47.7951 69.7197 48.2282 69.7197 48.7612Z" fill="white"/>
<path d="M69.7198 48.7607C69.7198 48.937 69.9687 49.1015 70.4036 49.2436C71.2873 49.5317 72.9388 49.7256 74.8306 49.7256C76.7228 49.7256 78.3753 49.5317 79.2601 49.2436C79.6949 49.1015 79.9443 48.937 79.9443 48.7607C79.9443 48.2284 77.6549 47.7946 74.8306 47.7946C72.0078 47.7946 69.7198 48.2284 69.7198 48.7607Z" fill="white"/>
<path d="M70.4754 49.2431C71.3591 49.531 73.0102 49.7249 74.9028 49.7249C76.7944 49.7249 78.447 49.531 79.3322 49.2431C78.447 48.954 76.7944 48.7599 74.9028 48.7599C73.0102 48.7599 71.3591 48.954 70.4754 49.2431Z" fill="#93603E"/>
<path d="M70.089 49.5787L69.9801 51.2897C69.8165 53.8796 70.3219 56.4853 71.4422 58.8254C71.7856 59.5433 72.4521 60.0347 73.2255 60.1398C74.287 60.2843 75.3764 60.2838 76.4385 60.1395C77.2083 60.0347 77.8667 59.5598 78.1999 58.8691C79.189 56.8197 79.7117 54.5334 79.7117 52.2574C79.7117 51.9188 79.7016 51.6025 79.6813 51.2904L79.5734 49.5787C79.3 49.6846 78.952 49.7763 78.5241 49.8571C77.5334 50.044 76.2222 50.1469 74.831 50.1469C73.4402 50.1469 72.129 50.044 71.1389 49.8571C70.7109 49.7763 70.363 49.6846 70.089 49.5787ZM74.831 61.0898C74.2582 61.0898 73.6803 61.0506 73.1125 60.9736C72.0576 60.8302 71.1495 60.1628 70.6831 59.1887C69.501 56.7193 68.9677 53.9694 69.1404 51.2363L69.2999 48.7348L70.1401 48.7613C70.1401 48.6969 70.1138 48.653 70.1047 48.6426C70.3052 48.8666 71.9457 49.3056 74.831 49.3056C77.7168 49.3056 79.3582 48.8666 79.5582 48.6426C79.5491 48.653 79.5228 48.6969 79.5228 48.7613L80.3635 48.735L80.521 51.2366C80.5428 51.5663 80.5529 51.9004 80.5529 52.2574C80.5529 54.6593 80.0014 57.0721 78.9581 59.2348C78.5018 60.1804 77.6023 60.8304 76.5514 60.9733C75.9832 61.0506 75.4043 61.0898 74.831 61.0898Z" fill="#371A45"/>
<path d="M70.3041 48.7613C70.8498 48.9932 72.398 49.3055 74.831 49.3055C77.2651 49.3055 78.8133 48.9932 79.3591 48.7613C78.8133 48.5286 77.2646 48.2158 74.831 48.2158C72.398 48.2158 70.8498 48.5286 70.3041 48.7613ZM74.831 50.1469C73.4405 50.1469 72.1292 50.0439 71.1388 49.8571C69.8665 49.6169 69.299 49.279 69.299 48.7613C69.299 48.2438 69.8665 47.9056 71.1383 47.665C72.1292 47.4777 73.4405 47.3745 74.831 47.3745C76.2216 47.3745 77.5334 47.4777 78.5243 47.665C79.7966 47.9056 80.3641 48.2438 80.3641 48.7613C80.3641 49.279 79.7966 49.6169 78.5243 49.8571C77.5339 50.0439 76.2221 50.1469 74.831 50.1469Z" fill="#371A45"/>
<path d="M62.534 51.736C62.1651 52.9962 62.5711 54.1863 63.2992 54.4927C64.831 55.1376 65.9388 52.1491 65.9388 52.1491C65.9388 52.1491 65.4241 49.9896 64.415 50.025C63.6985 50.0504 62.8678 50.5957 62.534 51.736Z" fill="white"/>
<path d="M63.7339 54.1389C63.6472 54.1389 63.5605 54.1201 63.4718 54.0827C62.9983 53.8835 62.6738 52.9735 62.9338 51.9597C63.0805 52.4535 63.3645 52.8279 63.7291 52.9811C63.8311 53.0243 63.932 53.0513 64.0308 53.0638C63.998 53.4179 63.9887 53.7662 63.9936 54.0848C63.9045 54.1208 63.819 54.1389 63.7339 54.1389Z" fill="#B9AFBE"/>
<path d="M62.9608 51.8611C62.6527 52.9141 62.9826 53.8769 63.4715 54.0828C63.6536 54.1594 63.8248 54.1578 64.0111 54.0774C64.6725 53.7916 65.2474 52.6667 65.4719 52.1205C65.2726 51.3951 64.8227 50.4537 64.4304 50.4701C63.8961 50.4889 63.2344 50.9265 62.9608 51.8611ZM63.7333 55.0282C63.5285 55.0282 63.3246 54.9866 63.1261 54.9031C62.1361 54.4863 61.6884 53.0403 62.1068 51.6113C62.5323 50.1573 63.6074 49.6087 64.3989 49.5806C65.7057 49.5382 66.2718 51.6261 66.3717 52.0461L66.4027 52.1771L66.3561 52.3038C66.2781 52.5146 65.558 54.3772 64.3653 54.8937C64.1584 54.9833 63.9457 55.0282 63.7333 55.0282Z" fill="#371A45"/>
<path d="M68.6764 51.5045C68.6764 51.5045 67.2635 49.1907 65.2677 50.3498C63.7165 51.2507 63.9477 54.6131 64.1061 55.3745C64.673 58.1005 66.6514 59.6769 68.1552 57.3041C68.227 57.1906 68.9676 54.4373 68.6764 51.5045Z" fill="white"/>
<path d="M66.5217 58.4648C65.4633 58.4648 64.4793 57.1691 64.1054 55.375C64.0865 55.2834 64.0663 55.1537 64.0487 54.9953C64.0487 54.9953 64.0487 54.9951 64.0491 54.9951C64.0668 55.1535 64.0869 55.283 64.1063 55.3746C64.4789 57.1686 65.4637 58.4648 66.5222 58.4648C66.5293 58.4648 66.5369 58.4648 66.5444 58.4646C66.5369 58.4648 66.5293 58.4648 66.5217 58.4648Z" fill="#371A45"/>
<path d="M68.2877 56.849C68.4078 56.3536 68.5777 55.493 68.6727 54.448C68.5782 55.4933 68.4082 56.3536 68.2877 56.849Z" fill="#371A45"/>
<path d="M68.2041 57.1637C68.2265 57.0869 68.255 56.9809 68.2873 56.849C68.2554 56.9809 68.2265 57.0869 68.2041 57.1637Z" fill="#371A45"/>
<path d="M64.0485 54.9954C64.0262 54.7975 64.0071 54.5543 63.9982 54.2836C64.0071 54.5545 64.0262 54.7973 64.0489 54.9951C64.0485 54.9951 64.0485 54.9954 64.0485 54.9954Z" fill="#371A45"/>
<path d="M66.5222 58.4648C65.4637 58.4648 64.479 57.1686 64.106 55.3746C64.0869 55.283 64.0669 55.1535 64.0491 54.9951C64.0266 54.7972 64.0075 54.5545 63.9983 54.2835C63.9849 53.8875 63.9923 53.4321 64.04 52.971C64.06 53.168 64.0834 53.327 64.1056 53.4338C64.4751 55.2101 65.412 55.9252 66.4562 55.9252C67.015 55.9252 67.6046 55.7205 68.1551 55.3641C68.2354 55.3119 68.6002 53.8499 68.7135 51.9655C68.7704 52.8439 68.7408 53.6941 68.6727 54.448C68.5776 55.4931 68.4078 56.3536 68.2875 56.849C68.2554 56.9808 68.2268 57.0868 68.2042 57.1637C68.1807 57.2429 68.1634 57.2911 68.1551 57.3042C67.648 58.1039 67.0866 58.4552 66.5443 58.4646C66.537 58.4648 66.5296 58.4648 66.5222 58.4648Z" fill="#B9AFBE"/>
<path d="M67.7794 57.0661C67.7776 57.0686 67.7759 57.0717 67.7737 57.0755C67.7754 57.0722 67.7776 57.0691 67.7794 57.0661ZM66.3858 50.4764C66.1081 50.4764 65.808 50.5507 65.4913 50.7347C64.223 51.4712 64.3847 54.5288 64.5419 55.2841C64.846 56.7465 65.5955 57.8655 66.3648 58.0056C66.9597 58.1137 67.4478 57.5793 67.7592 57.0976C67.878 56.7505 68.4812 54.2773 68.2438 51.6566C68.0493 51.3748 67.3527 50.4764 66.3858 50.4764ZM66.5146 58.9087C66.399 58.9087 66.2947 58.8974 66.2058 58.8812C65.0536 58.6716 64.0583 57.3307 63.6706 55.4653C63.5269 54.7751 63.1883 51.0425 65.0444 49.9649C66.9207 48.8752 68.4891 50.3439 69.056 51.2726L69.109 51.3593L69.1191 51.4606C69.4077 54.3652 68.6989 57.2776 68.5311 57.5424C67.8166 58.6695 67.0425 58.9087 66.5146 58.9087Z" fill="#371A45"/>
<path d="M57.3255 59.0278C57.1817 59.0278 57.0557 58.9223 57.0349 58.7759C56.187 52.8555 59.209 50.7508 59.338 50.6639C59.473 50.5736 59.6555 50.6093 59.7458 50.744C59.8361 50.8783 59.8004 51.0603 59.6665 51.151C59.635 51.1726 56.8247 53.1643 57.6164 58.6925C57.6392 58.8532 57.5281 59.002 57.3676 59.025C57.3532 59.0269 57.3391 59.0278 57.3255 59.0278Z" fill="#371A45"/>
<path d="M74.2885 46.0353L74.2303 45.1082C74.2288 45.0783 74.2512 45.0527 74.2811 45.0508H74.2816L74.2885 45.0504L74.7049 45.0288C74.7731 45.0248 74.8463 45.0226 74.9106 45.0168C74.9728 45.0111 75.0341 45.0001 75.0924 44.9794C75.3254 44.9023 75.5122 44.7117 75.5764 44.4876C75.6457 44.2647 75.5929 44.0154 75.4509 43.846C75.319 43.6827 75.1212 43.5894 74.9151 43.5894C74.9016 43.5894 74.8877 43.5899 74.8732 43.5906C74.3179 43.608 73.7626 43.6315 73.2073 43.6425L72.3741 43.6627L71.9578 43.6728C71.9085 43.6735 71.8676 43.6759 71.8144 43.6759C71.789 43.6759 71.7606 43.6754 71.7272 43.6737C71.6351 43.6688 71.5429 43.6519 71.4538 43.6251C71.0947 43.5187 70.7989 43.2247 70.6868 42.8607C70.631 42.6788 70.6201 42.4854 70.654 42.2978C70.6888 42.1102 70.7725 41.9319 70.89 41.7825C71.0085 41.6331 71.1644 41.5141 71.3387 41.4354C71.4269 41.3971 71.5185 41.3677 71.6132 41.3512C71.6605 41.3428 71.7078 41.3358 71.7556 41.3343L71.8243 41.3308L71.8761 41.3303L72.7098 41.3204C73.6371 41.3124 74.565 41.3084 75.4928 41.3084C75.6755 41.3084 75.8588 41.3084 76.0421 41.3089L77.708 41.3154L77.8126 41.3164H77.8644C77.8718 41.3169 77.8788 41.3169 77.8853 41.3169C77.8953 41.3169 77.9037 41.3164 77.9087 41.3159C77.953 41.3149 77.9968 41.3109 78.0392 41.2999C78.1238 41.28 78.2045 41.2412 78.2737 41.1864C78.4097 41.0748 78.4994 40.907 78.4969 40.7277C78.4974 40.5504 78.4162 40.3721 78.2703 40.2591C78.1985 40.2023 78.1149 40.161 78.0252 40.1401L77.957 40.1276L77.8828 40.1231L77.6746 40.1201C77.1193 40.1147 76.5635 40.0962 76.0082 40.0843C75.4529 40.0698 74.8971 40.0604 74.3418 40.0389L73.5086 40.0111C73.1884 40.0071 72.8567 39.8751 72.6346 39.643C72.407 39.4144 72.2785 39.0957 72.285 38.7824C72.287 38.4687 72.4219 38.1629 72.6436 37.9562C72.8547 37.755 73.1396 37.642 73.4205 37.642C73.4319 37.642 73.4429 37.642 73.4534 37.6425C73.7342 37.6564 74.0097 37.6733 74.2885 37.6927L73.4568 37.7465C73.1924 37.768 72.9459 37.8954 72.782 38.0892C72.6172 38.2819 72.5345 38.5329 72.5534 38.7755C72.5699 39.018 72.6884 39.2446 72.8672 39.3955C73.0345 39.5364 73.2407 39.6131 73.4573 39.6131C73.4743 39.6131 73.4917 39.6126 73.5086 39.6116L74.3418 39.5838C74.8971 39.5628 75.4529 39.5534 76.0082 39.5389C76.5635 39.527 77.1193 39.5086 77.6746 39.5031L77.8828 39.5001C77.8838 39.5001 77.8848 39.5001 77.8858 39.5001C77.9231 39.5001 77.9734 39.5021 78.0168 39.5046C78.0626 39.5095 78.1084 39.5155 78.1542 39.5235C78.336 39.5603 78.5098 39.638 78.6597 39.7491C78.9615 39.9682 79.1533 40.3373 79.1627 40.7153C79.1782 41.0938 79.0029 41.4763 78.7105 41.7178C78.5641 41.8388 78.3903 41.927 78.2055 41.9733C78.1139 41.9982 78.0188 42.0091 77.9241 42.0126C77.8982 42.0141 77.8813 42.0141 77.8644 42.0141L77.8126 42.0146L77.708 42.0151L76.0421 42.0221C75.8598 42.0226 75.6775 42.0226 75.4953 42.0226C74.5669 42.0226 73.6381 42.0186 72.7098 42.0106L71.8761 42.0007L71.8243 41.9997L71.789 42.0007C71.787 42.0007 71.7845 42.0007 71.7825 42.0007C71.7626 42.0007 71.7436 42.0032 71.7247 42.0061C71.6819 42.0116 71.6405 42.0241 71.6002 42.0395C71.521 42.0729 71.4478 42.1237 71.391 42.1904C71.3358 42.2572 71.2944 42.3359 71.2755 42.421C71.2576 42.5063 71.2601 42.5975 71.282 42.6823C71.3278 42.8531 71.4657 42.9986 71.6371 43.0618C71.7272 43.0961 71.7994 43.0978 71.9578 43.1006L72.3741 43.1109L73.2073 43.1311C73.7626 43.1419 74.3179 43.1657 74.8732 43.1831C75.2084 43.1854 75.5486 43.3605 75.7328 43.6394C75.9236 43.9153 75.9619 44.2817 75.8384 44.5811C75.7204 44.8826 75.4499 45.111 75.1452 45.1744C75.0754 45.1911 75.0042 45.1975 74.9335 45.1975C74.9275 45.1975 74.9215 45.1975 74.9156 45.1972C74.8414 45.1961 74.7756 45.1907 74.7049 45.1876L74.3423 45.1688L74.2885 46.0353Z" fill="#FCEDE3"/>
</g>
<defs>
<radialGradient id="paint0_radial_966_619" cx="0" cy="0" r="1" gradientUnits="userSpaceOnUse" gradientTransform="translate(45 26) rotate(50.906) scale(61.8466 64.4504)">
<stop stop-color="#B5EDFF"/>
<stop offset="1" stop-color="#A38CD5"/>
</radialGradient>
<radialGradient id="paint1_radial_966_619" cx="0" cy="0" r="1" gradientUnits="userSpaceOnUse" gradientTransform="translate(45.0423 26.459) rotate(51.1875) scale(58.5487 60.8854)">
<stop stop-color="#B5EDFF"/>
<stop offset="1" stop-color="#A38CD5"/>
</radialGradient>
<radialGradient id="paint2_radial_966_619" cx="0" cy="0" r="1" gradientUnits="userSpaceOnUse" gradientTransform="translate(45 26.5396) rotate(50.906) scale(58.194 60.644)">
<stop stop-color="#B5EDFF"/>
<stop offset="1" stop-color="#A38CD5"/>
</radialGradient>
<radialGradient id="paint3_radial_966_619" cx="0" cy="0" r="1" gradientUnits="userSpaceOnUse" gradientTransform="translate(48.765 47.7106) rotate(58.644) scale(73.9017 86.6011)">
<stop stop-color="white"/>
<stop offset="1" stop-color="white" stop-opacity="0"/>
</radialGradient>
</defs>
</svg>
